<svg width="876" height="496" viewBox="0 0 876 496" fill="none" xmlns="http://www.w3.org/2000/svg">
<path d="M874.61 470.72L841.272 427.049H41.6162L1.00391 470.72H874.61Z" fill="#D9D9D9" stroke="black" stroke-width="0.875648"/>
<rect width="875.496" height="139.634" fill="#E2231A"/>
<rect x="52.2554" y="164.477" width="777.838" height="215.019" fill="#E1E1E1"/>
<rect y="471.157" width="95.0881" height="24.8428" fill="#FFD600"/>
<rect x="95.0879" y="471.157" width="95.0881" height="24.8428" fill="#484848"/>
<rect x="190.176" y="471.157" width="95.0881" height="24.8428" fill="#FFD600"/>
<rect x="285.264" y="471.157" width="95.0881" height="24.8428" fill="#484848"/>
<rect x="380.353" y="471.157" width="95.0881" height="24.8428" fill="#FFD600"/>
<rect x="475.44" y="471.157" width="95.0881" height="24.8428" fill="#484848"/>
<rect x="570.529" y="471.157" width="95.0881" height="24.8428" fill="#FFD600"/>
<rect x="665.616" y="471.157" width="95.0881" height="24.8428" fill="#484848"/>
<rect x="760.705" y="471.157" width="95.0881" height="24.8428" fill="#FFD600"/>
<rect x="855.793" y="471.157" width="19.7029" height="24.8428" fill="#484848"/>
<rect x="44.1268" y="164.915" width="7.69085" height="270.682" fill="#868585" stroke="black" stroke-width="0.875648"/>
<rect x="13.2874" y="140.072" width="7.69085" height="325.508" fill="#C5C5C5" stroke="black" stroke-width="0.875648"/>
<rect x="851.947" y="140.072" width="7.69085" height="325.508" fill="#C5C5C5" stroke="black" stroke-width="0.875648"/>
<rect x="44.1268" y="156.348" width="794.095" height="7.69085" fill="#868585" stroke="black" stroke-width="0.875648"/>
<rect x="306.262" y="157.205" width="7.69085" height="278.392" fill="#868585" stroke="black" stroke-width="0.875648"/>
<rect x="830.563" y="156.086" width="7.69085" height="278.392" fill="#868585" stroke="black" stroke-width="0.875648"/>
<rect x="568.396" y="157.205" width="7.69085" height="278.392" fill="#868585" stroke="black" stroke-width="0.875648"/>
<path d="M852.101 139.857L834.428 156.115H49.6553L30.3262 139.857H852.101Z" fill="#726E6E" stroke="black" stroke-width="0.875648"/>
<rect x="61.2217" y="176.977" width="234.793" height="188.813" rx="26.2694" fill="#3FA9F5"/>
<rect x="323.749" y="176.977" width="234.793" height="188.813" rx="26.2694" fill="#3FA9F5"/>
<rect x="586.276" y="176.977" width="234.793" height="188.813" rx="26.2694" fill="#3FA9F5"/>
<rect x="340.528" y="391.07" width="203.007" height="10.2608" fill="#E6E6E6" stroke="black" stroke-width="0.875648"/>
<rect x="350.807" y="409.06" width="183.304" height="3.4076" fill="#E6E6E6" stroke="black" stroke-width="0.875648"/>
<rect x="350.807" y="418.483" width="183.304" height="3.4076" fill="#E6E6E6" stroke="black" stroke-width="0.875648"/>
<rect x="349.951" y="402.206" width="10.2608" height="47.9534" fill="#E6E6E6" stroke="black" stroke-width="0.875648"/>
<rect x="524.707" y="402.206" width="10.2608" height="47.9534" fill="#E6E6E6" stroke="black" stroke-width="0.875648"/>
<path d="M110.76 283.322V275.046L130.169 257.028C131.829 255.441 133.221 254.013 134.344 252.744C135.467 251.45 136.321 250.192 136.907 248.972C137.493 247.726 137.786 246.384 137.786 244.943C137.786 243.332 137.42 241.953 136.687 240.805C135.955 239.658 134.966 238.766 133.721 238.132C132.476 237.497 131.048 237.18 129.436 237.18C127.776 237.18 126.324 237.521 125.079 238.205C123.833 238.864 122.869 239.828 122.186 241.098C121.526 242.343 121.197 243.845 121.197 245.602H110.21C110.21 242.014 111.016 238.913 112.627 236.301C114.263 233.664 116.534 231.625 119.439 230.185C122.369 228.745 125.738 228.024 129.546 228.024C133.428 228.024 136.822 228.72 139.727 230.112C142.632 231.479 144.891 233.383 146.502 235.825C148.113 238.242 148.919 241.037 148.919 244.211C148.919 246.262 148.516 248.288 147.71 250.29C146.905 252.267 145.477 254.489 143.426 256.955C141.375 259.396 138.47 262.314 134.71 265.707L126.727 273.508V273.911H149.651V283.322H110.76ZM177.202 284.055C172.563 284.055 168.596 282.956 165.3 280.759C162.028 278.537 159.514 275.351 157.756 271.201C156.022 267.026 155.156 261.984 155.156 256.076C155.156 250.192 156.035 245.163 157.792 240.988C159.55 236.789 162.065 233.578 165.336 231.357C168.632 229.135 172.587 228.024 177.202 228.024C181.84 228.024 185.795 229.135 189.067 231.357C192.363 233.578 194.877 236.777 196.611 240.952C198.369 245.126 199.247 250.168 199.247 256.076C199.247 261.984 198.381 267.026 196.647 271.201C194.914 275.351 192.399 278.537 189.103 280.759C185.832 282.956 181.865 284.055 177.202 284.055ZM177.202 274.533C179.423 274.533 181.291 273.825 182.805 272.409C184.343 270.969 185.502 268.869 186.284 266.11C187.089 263.351 187.492 260.007 187.492 256.076C187.492 252.121 187.089 248.764 186.284 246.005C185.502 243.246 184.343 241.147 182.805 239.706C181.291 238.242 179.423 237.509 177.202 237.509C173.906 237.509 171.367 239.133 169.584 242.38C167.802 245.602 166.911 250.168 166.911 256.076C166.911 260.007 167.302 263.351 168.083 266.11C168.889 268.869 170.06 270.969 171.599 272.409C173.137 273.825 175.004 274.533 177.202 274.533ZM204.386 273.727V264.682L227.127 228.757H234.964V241.354H230.313L215.958 264.059V264.499H248.367V273.727H204.386ZM230.533 283.322V270.981L230.753 266.916V228.757H241.593V283.322H230.533Z" fill="white"/>
<path d="M417.378 284.055C414.595 284.055 411.897 283.591 409.285 282.663C406.672 281.735 404.341 280.234 402.29 278.159C400.239 276.083 398.603 273.337 397.383 269.919C396.186 266.476 395.588 262.265 395.588 257.285C395.588 252.695 396.101 248.593 397.126 244.98C398.176 241.367 399.665 238.303 401.594 235.788C403.547 233.249 405.891 231.32 408.625 230.002C411.36 228.683 414.411 228.024 417.781 228.024C421.418 228.024 424.629 228.732 427.412 230.148C430.195 231.564 432.429 233.481 434.114 235.898C435.823 238.315 436.848 241.013 437.19 243.991H425.874C425.434 242.087 424.494 240.598 423.054 239.523C421.614 238.449 419.856 237.912 417.781 237.912C414.216 237.912 411.506 239.462 409.651 242.563C407.82 245.639 406.904 249.826 406.904 255.124H407.27C408.1 253.513 409.199 252.133 410.566 250.986C411.958 249.838 413.545 248.959 415.327 248.349C417.109 247.739 418.989 247.433 420.967 247.433C424.214 247.433 427.095 248.19 429.609 249.704C432.148 251.218 434.138 253.305 435.578 255.966C437.043 258.603 437.776 261.63 437.776 265.048C437.776 268.735 436.909 272.018 435.176 274.899C433.467 277.756 431.086 280.002 428.035 281.638C424.983 283.249 421.431 284.055 417.378 284.055ZM417.305 274.973C419.087 274.973 420.674 274.557 422.065 273.727C423.457 272.873 424.556 271.713 425.361 270.248C426.191 268.784 426.606 267.148 426.606 265.341C426.606 263.535 426.203 261.911 425.398 260.471C424.592 259.03 423.494 257.895 422.102 257.065C420.735 256.21 419.16 255.783 417.378 255.783C415.62 255.783 414.033 256.223 412.617 257.101C411.201 257.956 410.078 259.116 409.248 260.58C408.442 262.021 408.039 263.62 408.039 265.378C408.039 267.136 408.442 268.747 409.248 270.212C410.054 271.677 411.152 272.836 412.544 273.691C413.96 274.545 415.547 274.973 417.305 274.973ZM442.914 273.727V264.682L465.656 228.757H473.492V241.354H468.842L454.486 264.059V264.499H486.896V273.727H442.914ZM469.061 283.322V270.981L469.281 266.916V228.757H480.121V283.322H469.061Z" fill="white"/>
<path d="M630.712 290.134V221.945H635.07V290.134H630.712ZM632.909 284.091C628.515 284.091 624.682 283.42 621.41 282.077C618.163 280.734 615.624 278.732 613.793 276.071C611.986 273.41 611.034 270.114 610.936 266.183H622.069C622.216 267.99 622.753 269.516 623.681 270.761C624.608 271.982 625.853 272.897 627.416 273.508C628.978 274.118 630.773 274.423 632.799 274.423C634.752 274.423 636.449 274.142 637.89 273.581C639.354 273.019 640.478 272.238 641.259 271.237C642.064 270.212 642.467 269.028 642.467 267.685C642.467 266.464 642.101 265.439 641.369 264.609C640.661 263.779 639.611 263.071 638.219 262.485C636.852 261.899 635.18 261.374 633.202 260.91L627.233 259.445C622.643 258.347 619.018 256.601 616.356 254.208C613.695 251.791 612.365 248.569 612.365 244.54C612.365 241.245 613.256 238.364 615.038 235.898C616.845 233.408 619.298 231.479 622.399 230.112C625.524 228.72 629.076 228.024 633.056 228.024C637.108 228.024 640.636 228.72 643.639 230.112C646.666 231.503 649.022 233.432 650.707 235.898C652.416 238.364 653.295 241.208 653.344 244.431H642.248C642.052 242.307 641.137 240.646 639.501 239.45C637.89 238.254 635.705 237.656 632.946 237.656C631.09 237.656 629.503 237.924 628.185 238.461C626.891 238.974 625.902 239.694 625.219 240.622C624.535 241.55 624.193 242.612 624.193 243.808C624.193 245.078 624.584 246.152 625.365 247.031C626.146 247.885 627.184 248.593 628.478 249.155C629.796 249.692 631.237 250.143 632.799 250.51L637.67 251.718C640.038 252.255 642.223 252.975 644.225 253.879C646.227 254.758 647.96 255.844 649.425 257.138C650.915 258.432 652.062 259.958 652.868 261.716C653.673 263.449 654.076 265.451 654.076 267.722C654.076 271.066 653.234 273.972 651.549 276.437C649.889 278.879 647.484 280.771 644.335 282.114C641.186 283.432 637.377 284.091 632.909 284.091ZM659.251 283.322V275.046L678.66 257.028C680.32 255.441 681.712 254.013 682.835 252.744C683.958 251.45 684.812 250.192 685.398 248.972C685.984 247.726 686.277 246.384 686.277 244.943C686.277 243.332 685.911 241.953 685.179 240.805C684.446 239.658 683.457 238.766 682.212 238.132C680.967 237.497 679.539 237.18 677.928 237.18C676.267 237.18 674.815 237.521 673.57 238.205C672.325 238.864 671.36 239.828 670.677 241.098C670.017 242.343 669.688 243.845 669.688 245.602H658.702C658.702 242.014 659.507 238.913 661.119 236.301C662.754 233.664 665.025 231.625 667.93 230.185C670.86 228.745 674.229 228.024 678.037 228.024C681.919 228.024 685.313 228.72 688.218 230.112C691.123 231.479 693.382 233.383 694.993 235.825C696.604 238.242 697.41 241.037 697.41 244.211C697.41 246.262 697.007 248.288 696.202 250.29C695.396 252.267 693.968 254.489 691.917 256.955C689.866 259.396 686.961 262.314 683.201 265.707L675.218 273.508V273.911H698.142V283.322H659.251ZM724.045 227.951C726.852 227.951 729.55 228.427 732.138 229.379C734.75 230.307 737.082 231.821 739.133 233.92C741.208 235.995 742.844 238.754 744.04 242.197C745.236 245.615 745.834 249.802 745.834 254.758C745.834 259.372 745.309 263.486 744.26 267.099C743.234 270.712 741.745 273.788 739.792 276.328C737.863 278.867 735.532 280.807 732.797 282.15C730.087 283.469 727.048 284.128 723.679 284.128C720.065 284.128 716.855 283.42 714.047 282.004C711.24 280.563 708.993 278.622 707.309 276.181C705.624 273.74 704.599 271.017 704.233 268.015H715.585C716.025 269.968 716.952 271.494 718.368 272.592C719.809 273.691 721.579 274.24 723.679 274.24C727.243 274.24 729.941 272.69 731.772 269.589C733.603 266.464 734.518 262.241 734.518 256.918H734.189C733.383 258.505 732.284 259.885 730.893 261.057C729.501 262.204 727.914 263.083 726.132 263.693C724.35 264.304 722.458 264.609 720.456 264.609C717.233 264.609 714.352 263.852 711.813 262.338C709.274 260.825 707.284 258.749 705.844 256.113C704.404 253.452 703.671 250.412 703.647 246.994C703.671 243.307 704.538 240.036 706.247 237.18C707.956 234.299 710.336 232.04 713.388 230.405C716.464 228.745 720.016 227.927 724.045 227.951ZM724.118 237.106C722.385 237.106 720.81 237.534 719.394 238.388C717.978 239.218 716.867 240.366 716.061 241.83C715.256 243.271 714.853 244.894 714.853 246.701C714.853 248.508 715.243 250.131 716.025 251.572C716.83 253.012 717.929 254.16 719.321 255.014C720.712 255.844 722.287 256.259 724.045 256.259C725.827 256.259 727.414 255.832 728.805 254.977C730.222 254.099 731.345 252.939 732.175 251.498C733.005 250.034 733.42 248.41 733.42 246.628C733.42 244.894 733.017 243.307 732.211 241.867C731.406 240.402 730.307 239.243 728.915 238.388C727.524 237.534 725.925 237.106 724.118 237.106ZM752.108 283.322V228.757H763.607V252.817H764.339L783.968 228.757H797.774L777.559 253.183L798.031 283.322H784.224L769.283 260.91L763.607 267.831V283.322H752.108Z" fill="white"/>
<path d="M139.094 325.033V308.3H142.126V315.386H149.875V308.3H152.907V325.033H149.875V317.936H142.126V325.033H139.094ZM158.441 325.292C157.64 325.292 156.921 325.149 156.285 324.865C155.648 324.573 155.147 324.146 154.78 323.585C154.413 323.023 154.229 322.331 154.229 321.507C154.229 320.803 154.36 320.219 154.622 319.755C154.884 319.291 155.24 318.92 155.689 318.643C156.146 318.366 156.659 318.157 157.228 318.014C157.797 317.865 158.385 317.76 158.991 317.7C159.732 317.618 160.331 317.546 160.788 317.487C161.245 317.427 161.574 317.329 161.776 317.195C161.986 317.06 162.091 316.85 162.091 316.566V316.51C162.091 315.903 161.911 315.431 161.552 315.094C161.192 314.758 160.668 314.589 159.979 314.589C159.253 314.589 158.677 314.746 158.25 315.061C157.831 315.375 157.546 315.746 157.396 316.173L154.645 315.78C154.862 315.016 155.221 314.379 155.723 313.87C156.225 313.354 156.835 312.968 157.554 312.714C158.28 312.452 159.081 312.321 159.957 312.321C160.556 312.321 161.155 312.392 161.754 312.534C162.353 312.669 162.903 312.901 163.405 313.23C163.906 313.56 164.307 314.001 164.606 314.555C164.906 315.109 165.056 315.802 165.056 316.633V325.033H162.214V323.304H162.124C161.945 323.648 161.69 323.974 161.361 324.281C161.039 324.58 160.634 324.824 160.148 325.011C159.669 325.198 159.1 325.292 158.441 325.292ZM159.193 323.113C159.792 323.113 160.309 322.997 160.743 322.765C161.177 322.525 161.514 322.211 161.754 321.822C161.993 321.425 162.113 320.994 162.113 320.53V319.059C162.016 319.134 161.859 319.205 161.641 319.272C161.424 319.332 161.177 319.388 160.9 319.441C160.623 319.493 160.35 319.538 160.08 319.575C159.818 319.613 159.59 319.643 159.395 319.665C158.954 319.725 158.557 319.826 158.205 319.969C157.861 320.103 157.587 320.29 157.385 320.53C157.183 320.77 157.082 321.08 157.082 321.462C157.082 322.009 157.28 322.42 157.677 322.698C158.074 322.975 158.579 323.113 159.193 323.113ZM172.33 325.281C171.08 325.281 170.005 325.007 169.107 324.461C168.208 323.907 167.52 323.143 167.04 322.17C166.561 321.196 166.322 320.077 166.322 318.812C166.322 317.531 166.565 316.405 167.052 315.431C167.538 314.458 168.231 313.698 169.129 313.152C170.028 312.598 171.087 312.321 172.307 312.321C173.333 312.321 174.239 312.508 175.025 312.882C175.811 313.256 176.437 313.784 176.901 314.466C177.372 315.139 177.642 315.929 177.709 316.835H174.879C174.804 316.431 174.658 316.068 174.441 315.746C174.224 315.424 173.94 315.169 173.588 314.982C173.243 314.795 172.832 314.701 172.352 314.701C171.746 314.701 171.214 314.866 170.758 315.196C170.308 315.517 169.957 315.982 169.702 316.588C169.447 317.195 169.32 317.921 169.32 318.767C169.32 319.62 169.444 320.358 169.691 320.979C169.938 321.593 170.29 322.069 170.746 322.406C171.203 322.735 171.738 322.9 172.352 322.9C173.004 322.9 173.554 322.709 174.003 322.327C174.46 321.945 174.752 321.417 174.879 320.743H177.709C177.642 321.634 177.38 322.42 176.923 323.102C176.466 323.783 175.849 324.318 175.07 324.708C174.292 325.09 173.378 325.281 172.33 325.281ZM181.615 321.103L181.603 317.52H182.086L186.59 312.478H190.049L184.501 318.666H183.883L181.615 321.103ZM178.919 325.033V308.3H181.873V325.033H178.919ZM186.792 325.033L182.704 319.328L184.703 317.24L190.329 325.033H186.792ZM195.796 325.281C194.538 325.281 193.452 325.018 192.539 324.494C191.625 323.963 190.922 323.214 190.427 322.248C189.941 321.282 189.698 320.144 189.698 318.834C189.698 317.539 189.941 316.405 190.427 315.431C190.914 314.451 191.599 313.687 192.483 313.14C193.366 312.594 194.407 312.321 195.605 312.321C196.376 312.321 197.106 312.444 197.795 312.691C198.491 312.938 199.105 313.32 199.636 313.837C200.176 314.353 200.599 315.012 200.906 315.813C201.212 316.607 201.366 317.554 201.366 318.655V319.575H191.079V317.588H199.895L198.513 318.172C198.513 317.46 198.405 316.843 198.188 316.319C197.971 315.787 197.649 315.372 197.222 315.072C196.795 314.773 196.264 314.623 195.627 314.623C194.991 314.623 194.448 314.773 193.999 315.072C193.55 315.372 193.209 315.776 192.977 316.285C192.745 316.787 192.629 317.348 192.629 317.969V319.351C192.629 320.115 192.76 320.77 193.022 321.316C193.291 321.855 193.666 322.267 194.145 322.552C194.631 322.836 195.197 322.978 195.841 322.978C196.26 322.978 196.642 322.918 196.986 322.799C197.338 322.679 197.637 322.499 197.885 322.26C198.139 322.012 198.334 321.709 198.469 321.35L201.231 321.676C201.052 322.402 200.718 323.038 200.232 323.585C199.753 324.124 199.135 324.543 198.379 324.843C197.63 325.135 196.769 325.281 195.796 325.281ZM202.587 325.033V312.478H205.451V314.589H205.586C205.81 313.855 206.203 313.294 206.765 312.905C207.326 312.508 207.967 312.309 208.685 312.309C208.842 312.309 209.022 312.317 209.224 312.332C209.434 312.347 209.606 312.365 209.741 312.388V315.106C209.614 315.061 209.415 315.023 209.146 314.993C208.876 314.963 208.618 314.948 208.371 314.948C207.824 314.948 207.338 315.065 206.911 315.297C206.484 315.529 206.147 315.847 205.9 316.251C205.661 316.656 205.541 317.127 205.541 317.666V325.033H202.587ZM220.373 315.813L217.689 316.094C217.577 315.682 217.333 315.319 216.959 315.005C216.585 314.683 216.057 314.522 215.376 314.522C214.762 314.522 214.245 314.656 213.826 314.926C213.414 315.196 213.208 315.54 213.208 315.959C213.208 316.326 213.343 316.629 213.612 316.869C213.889 317.101 214.346 317.288 214.983 317.43L217.128 317.88C218.303 318.127 219.183 318.531 219.767 319.093C220.351 319.654 220.643 320.38 220.643 321.271C220.643 322.057 220.414 322.754 219.958 323.36C219.501 323.967 218.868 324.438 218.06 324.775C217.259 325.112 216.334 325.281 215.286 325.281C213.751 325.281 212.516 324.959 211.58 324.315C210.651 323.663 210.094 322.761 209.906 321.608L212.793 321.339C212.92 321.9 213.197 322.327 213.624 322.619C214.058 322.903 214.612 323.046 215.286 323.046C215.99 323.046 216.555 322.903 216.982 322.619C217.408 322.327 217.622 321.971 217.622 321.552C217.622 320.848 217.06 320.369 215.937 320.115L213.792 319.665C212.587 319.403 211.696 318.98 211.119 318.396C210.543 317.805 210.255 317.052 210.255 316.139C210.255 315.36 210.468 314.686 210.895 314.117C211.321 313.548 211.917 313.107 212.68 312.792C213.444 312.478 214.327 312.321 215.331 312.321C216.806 312.321 217.962 312.639 218.801 313.275C219.647 313.904 220.171 314.75 220.373 315.813Z" fill="white"/>
<path d="M403.334 325.033V308.3H409.612C410.9 308.3 411.978 308.54 412.846 309.019C413.722 309.498 414.385 310.157 414.834 310.995C415.283 311.834 415.508 312.785 415.508 313.848C415.508 314.919 415.279 315.873 414.823 316.712C414.374 317.543 413.707 318.198 412.824 318.677C411.94 319.149 410.855 319.385 409.567 319.385H405.412V316.891H409.151C409.908 316.891 410.525 316.764 411.004 316.51C411.491 316.247 411.847 315.888 412.071 315.431C412.303 314.967 412.419 314.439 412.419 313.848C412.419 313.249 412.303 312.725 412.071 312.276C411.847 311.819 411.491 311.467 411.004 311.22C410.525 310.965 409.904 310.838 409.14 310.838H406.366V325.033H403.334ZM416.774 325.033V312.478H419.638V314.589H419.772C419.997 313.855 420.39 313.294 420.952 312.905C421.513 312.508 422.153 312.309 422.872 312.309C423.029 312.309 423.209 312.317 423.411 312.332C423.621 312.347 423.793 312.365 423.928 312.388V315.106C423.8 315.061 423.602 315.023 423.332 314.993C423.063 314.963 422.805 314.948 422.558 314.948C422.011 314.948 421.524 315.065 421.098 315.297C420.671 315.529 420.334 315.847 420.087 316.251C419.847 316.656 419.727 317.127 419.727 317.666V325.033H416.774ZM429.607 325.281C428.379 325.281 427.316 325.011 426.418 324.472C425.519 323.933 424.823 323.177 424.329 322.203C423.842 321.23 423.599 320.1 423.599 318.812C423.599 317.517 423.842 316.382 424.329 315.409C424.823 314.428 425.519 313.668 426.418 313.129C427.316 312.59 428.379 312.321 429.607 312.321C430.835 312.321 431.898 312.59 432.797 313.129C433.695 313.668 434.392 314.428 434.886 315.409C435.38 316.382 435.627 317.517 435.627 318.812C435.627 320.1 435.38 321.23 434.886 322.203C434.392 323.177 433.695 323.933 432.797 324.472C431.898 325.011 430.835 325.281 429.607 325.281ZM429.607 322.9C430.289 322.9 430.85 322.72 431.292 322.361C431.734 321.994 432.063 321.5 432.28 320.878C432.505 320.257 432.617 319.568 432.617 318.812C432.617 318.041 432.505 317.344 432.28 316.723C432.063 316.101 431.734 315.611 431.292 315.252C430.85 314.885 430.289 314.701 429.607 314.701C428.941 314.701 428.383 314.885 427.934 315.252C427.485 315.611 427.148 316.101 426.923 316.723C426.706 317.344 426.598 318.041 426.598 318.812C426.598 319.568 426.706 320.257 426.923 320.878C427.148 321.5 427.485 321.994 427.934 322.361C428.383 322.72 428.941 322.9 429.607 322.9ZM436.87 312.478H439.824V325.752C439.832 326.658 439.663 327.403 439.319 327.987C438.974 328.579 438.476 329.017 437.825 329.301C437.174 329.586 436.384 329.728 435.455 329.728H434.86V327.324H435.287C435.856 327.324 436.26 327.186 436.5 326.909C436.747 326.639 436.87 326.243 436.87 325.719V312.478ZM438.342 310.715C437.87 310.715 437.466 310.557 437.129 310.243C436.792 309.928 436.623 309.55 436.623 309.109C436.623 308.659 436.792 308.278 437.129 307.963C437.466 307.649 437.87 307.491 438.342 307.491C438.806 307.491 439.206 307.649 439.543 307.963C439.88 308.278 440.049 308.656 440.049 309.097C440.049 309.547 439.88 309.928 439.543 310.243C439.206 310.557 438.806 310.715 438.342 310.715ZM447.188 325.281C445.931 325.281 444.845 325.018 443.931 324.494C443.018 323.963 442.314 323.214 441.82 322.248C441.333 321.282 441.09 320.144 441.09 318.834C441.09 317.539 441.333 316.405 441.82 315.431C442.307 314.451 442.992 313.687 443.875 313.14C444.759 312.594 445.799 312.321 446.997 312.321C447.769 312.321 448.499 312.444 449.187 312.691C449.884 312.938 450.498 313.32 451.029 313.837C451.568 314.353 451.991 315.012 452.298 315.813C452.605 316.607 452.759 317.554 452.759 318.655V319.575H442.472V317.588H451.287L449.906 318.172C449.906 317.46 449.798 316.843 449.58 316.319C449.363 315.787 449.041 315.372 448.615 315.072C448.188 314.773 447.656 314.623 447.02 314.623C446.383 314.623 445.841 314.773 445.391 315.072C444.942 315.372 444.602 315.776 444.369 316.285C444.137 316.787 444.021 317.348 444.021 317.969V319.351C444.021 320.115 444.152 320.77 444.414 321.316C444.684 321.855 445.058 322.267 445.537 322.552C446.024 322.836 446.589 322.978 447.233 322.978C447.653 322.978 448.034 322.918 448.379 322.799C448.731 322.679 449.03 322.499 449.277 322.26C449.532 322.012 449.726 321.709 449.861 321.35L452.624 321.676C452.444 322.402 452.111 323.038 451.624 323.585C451.145 324.124 450.528 324.543 449.771 324.843C449.023 325.135 448.162 325.281 447.188 325.281ZM459.449 325.281C458.199 325.281 457.124 325.007 456.226 324.461C455.327 323.907 454.639 323.143 454.159 322.17C453.68 321.196 453.441 320.077 453.441 318.812C453.441 317.531 453.684 316.405 454.171 315.431C454.657 314.458 455.35 313.698 456.248 313.152C457.147 312.598 458.206 312.321 459.427 312.321C460.452 312.321 461.358 312.508 462.144 312.882C462.93 313.256 463.556 313.784 464.02 314.466C464.491 315.139 464.761 315.929 464.828 316.835H461.998C461.923 316.431 461.777 316.068 461.56 315.746C461.343 315.424 461.059 315.169 460.707 314.982C460.362 314.795 459.951 314.701 459.471 314.701C458.865 314.701 458.333 314.866 457.877 315.196C457.428 315.517 457.076 315.982 456.821 316.588C456.567 317.195 456.439 317.921 456.439 318.767C456.439 319.62 456.563 320.358 456.81 320.979C457.057 321.593 457.409 322.069 457.866 322.406C458.322 322.735 458.858 322.9 459.471 322.9C460.123 322.9 460.673 322.709 461.122 322.327C461.579 321.945 461.871 321.417 461.998 320.743H464.828C464.761 321.634 464.499 322.42 464.042 323.102C463.586 323.783 462.968 324.318 462.189 324.708C461.411 325.09 460.497 325.281 459.449 325.281ZM472.294 312.478V314.769H465.095V312.478H472.294ZM466.858 309.49H469.812V321.26C469.812 321.754 469.92 322.121 470.137 322.361C470.355 322.593 470.699 322.709 471.171 322.709C471.298 322.709 471.44 322.698 471.597 322.675C471.755 322.653 471.897 322.626 472.024 322.596L472.53 324.91C472.215 325.007 471.897 325.078 471.575 325.123C471.253 325.176 470.931 325.202 470.609 325.202C469.441 325.202 468.524 324.895 467.858 324.281C467.191 323.66 466.858 322.814 466.858 321.743V309.49ZM483.263 315.813L480.579 316.094C480.467 315.682 480.223 315.319 479.849 315.005C479.474 314.683 478.947 314.522 478.265 314.522C477.651 314.522 477.135 314.656 476.716 314.926C476.304 315.196 476.098 315.54 476.098 315.959C476.098 316.326 476.233 316.629 476.502 316.869C476.779 317.101 477.236 317.288 477.872 317.43L480.017 317.88C481.193 318.127 482.072 318.531 482.656 319.093C483.24 319.654 483.532 320.38 483.532 321.271C483.532 322.057 483.304 322.754 482.847 323.36C482.391 323.967 481.758 324.438 480.949 324.775C480.148 325.112 479.224 325.281 478.175 325.281C476.641 325.281 475.405 324.959 474.469 324.315C473.541 323.663 472.983 322.761 472.796 321.608L475.682 321.339C475.81 321.9 476.087 322.327 476.513 322.619C476.948 322.903 477.502 323.046 478.175 323.046C478.879 323.046 479.445 322.903 479.871 322.619C480.298 322.327 480.511 321.971 480.511 321.552C480.511 320.848 479.95 320.369 478.827 320.115L476.682 319.665C475.476 319.403 474.585 318.98 474.009 318.396C473.432 317.805 473.144 317.052 473.144 316.139C473.144 315.36 473.358 314.686 473.784 314.117C474.211 313.548 474.806 313.107 475.57 312.792C476.334 312.478 477.217 312.321 478.22 312.321C479.695 312.321 480.852 312.639 481.691 313.275C482.537 313.904 483.061 314.75 483.263 315.813Z" fill="white"/>
<path d="M660.462 325.033V308.3H666.885C668.091 308.3 669.094 308.491 669.895 308.873C670.696 309.247 671.295 309.764 671.692 310.423C672.089 311.074 672.287 311.811 672.287 312.635C672.287 313.316 672.156 313.9 671.894 314.387C671.64 314.866 671.292 315.255 670.85 315.555C670.408 315.854 669.914 316.072 669.367 316.206V316.375C669.966 316.397 670.535 316.577 671.074 316.914C671.621 317.243 672.066 317.707 672.411 318.306C672.763 318.905 672.939 319.628 672.939 320.474C672.939 321.342 672.729 322.121 672.31 322.81C671.898 323.491 671.269 324.034 670.423 324.438C669.585 324.835 668.525 325.033 667.245 325.033H660.462ZM663.494 322.507H666.751C667.851 322.507 668.645 322.293 669.132 321.866C669.626 321.44 669.873 320.897 669.873 320.238C669.873 319.736 669.749 319.287 669.502 318.89C669.255 318.494 668.903 318.179 668.447 317.947C667.997 317.715 667.466 317.599 666.852 317.599H663.494V322.507ZM663.494 315.42H666.504C667.02 315.42 667.488 315.323 667.907 315.128C668.327 314.934 668.656 314.66 668.896 314.308C669.143 313.949 669.266 313.526 669.266 313.039C669.266 312.395 669.038 311.864 668.581 311.445C668.125 311.018 667.454 310.804 666.571 310.804H663.494V315.42ZM679.685 325.281C678.457 325.281 677.394 325.011 676.496 324.472C675.597 323.933 674.901 323.177 674.407 322.203C673.92 321.23 673.677 320.1 673.677 318.812C673.677 317.517 673.92 316.382 674.407 315.409C674.901 314.428 675.597 313.668 676.496 313.129C677.394 312.59 678.457 312.321 679.685 312.321C680.913 312.321 681.976 312.59 682.875 313.129C683.773 313.668 684.469 314.428 684.964 315.409C685.458 316.382 685.705 317.517 685.705 318.812C685.705 320.1 685.458 321.23 684.964 322.203C684.469 323.177 683.773 323.933 682.875 324.472C681.976 325.011 680.913 325.281 679.685 325.281ZM679.685 322.9C680.367 322.9 680.928 322.72 681.37 322.361C681.812 321.994 682.141 321.5 682.358 320.878C682.583 320.257 682.695 319.568 682.695 318.812C682.695 318.041 682.583 317.344 682.358 316.723C682.141 316.101 681.812 315.611 681.37 315.252C680.928 314.885 680.367 314.701 679.685 314.701C679.019 314.701 678.461 314.885 678.012 315.252C677.563 315.611 677.226 316.101 677.001 316.723C676.784 317.344 676.675 318.041 676.675 318.812C676.675 319.568 676.784 320.257 677.001 320.878C677.226 321.5 677.563 321.994 678.012 322.361C678.461 322.72 679.019 322.9 679.685 322.9ZM694.944 319.766V312.478H697.898V325.033H695.034V322.799H694.9C694.615 323.502 694.151 324.079 693.507 324.528C692.863 324.977 692.069 325.198 691.126 325.191C690.303 325.191 689.576 325.011 688.947 324.652C688.326 324.285 687.836 323.749 687.476 323.046C687.124 322.334 686.948 321.477 686.948 320.474V312.478H689.902V320.025C689.902 320.811 690.119 321.44 690.553 321.911C690.995 322.383 691.572 322.615 692.283 322.608C692.717 322.608 693.136 322.503 693.541 322.293C693.952 322.084 694.289 321.769 694.551 321.35C694.813 320.931 694.944 320.403 694.944 319.766ZM702.657 317.689V325.033H699.703V312.478H702.601V314.623H702.747C703.031 313.919 703.477 313.361 704.083 312.949C704.697 312.53 705.476 312.321 706.419 312.321C707.288 312.321 708.044 312.504 708.688 312.871C709.331 313.238 709.829 313.777 710.181 314.488C710.541 315.192 710.72 316.045 710.72 317.049V325.033H707.767V317.509C707.767 316.67 707.55 316.015 707.115 315.544C706.681 315.065 706.082 314.825 705.318 314.825C704.802 314.825 704.341 314.937 703.937 315.162C703.54 315.386 703.226 315.712 702.994 316.139C702.769 316.558 702.657 317.075 702.657 317.689ZM718.781 312.478V314.769H711.582V312.478H718.781ZM713.345 309.49H716.299V321.26C716.299 321.754 716.407 322.121 716.625 322.361C716.842 322.593 717.186 322.709 717.658 322.709C717.785 322.709 717.927 322.698 718.085 322.675C718.242 322.653 718.384 322.626 718.511 322.596L719.017 324.91C718.702 325.007 718.384 325.078 718.062 325.123C717.74 325.176 717.418 325.202 717.096 325.202C715.928 325.202 715.011 324.895 714.345 324.281C713.678 323.66 713.345 322.814 713.345 321.743V309.49ZM720.024 325.033V312.478H722.978V325.033H720.024ZM721.507 310.715C721.035 310.715 720.631 310.557 720.294 310.243C719.957 309.928 719.789 309.55 719.789 309.109C719.789 308.659 719.957 308.278 720.294 307.963C720.631 307.649 721.035 307.491 721.507 307.491C721.971 307.491 722.372 307.649 722.709 307.963C723.045 308.278 723.214 308.656 723.214 309.097C723.214 309.547 723.045 309.928 722.709 310.243C722.372 310.557 721.971 310.715 721.507 310.715ZM730.342 325.281C729.084 325.281 727.999 325.018 727.085 324.494C726.172 323.963 725.468 323.214 724.974 322.248C724.487 321.282 724.244 320.144 724.244 318.834C724.244 317.539 724.487 316.405 724.974 315.431C725.461 314.451 726.146 313.687 727.029 313.14C727.913 312.594 728.953 312.321 730.151 312.321C730.923 312.321 731.652 312.444 732.341 312.691C733.038 312.938 733.652 313.32 734.183 313.837C734.722 314.353 735.145 315.012 735.452 315.813C735.759 316.607 735.913 317.554 735.913 318.655V319.575H725.625V317.588H734.441L733.06 318.172C733.06 317.46 732.951 316.843 732.734 316.319C732.517 315.787 732.195 315.372 731.769 315.072C731.342 314.773 730.81 314.623 730.174 314.623C729.537 314.623 728.995 314.773 728.545 315.072C728.096 315.372 727.756 315.776 727.523 316.285C727.291 316.787 727.175 317.348 727.175 317.969V319.351C727.175 320.115 727.306 320.77 727.568 321.316C727.838 321.855 728.212 322.267 728.691 322.552C729.178 322.836 729.743 322.978 730.387 322.978C730.806 322.978 731.188 322.918 731.533 322.799C731.885 322.679 732.184 322.499 732.431 322.26C732.686 322.012 732.88 321.709 733.015 321.35L735.778 321.676C735.598 322.402 735.265 323.038 734.778 323.585C734.299 324.124 733.681 324.543 732.925 324.843C732.177 325.135 731.316 325.281 730.342 325.281ZM747.039 315.813L744.355 316.094C744.243 315.682 743.999 315.319 743.625 315.005C743.251 314.683 742.723 314.522 742.041 314.522C741.428 314.522 740.911 314.656 740.492 314.926C740.08 315.196 739.874 315.54 739.874 315.959C739.874 316.326 740.009 316.629 740.278 316.869C740.555 317.101 741.012 317.288 741.648 317.43L743.793 317.88C744.969 318.127 745.849 318.531 746.433 319.093C747.017 319.654 747.309 320.38 747.309 321.271C747.309 322.057 747.08 322.754 746.623 323.36C746.167 323.967 745.534 324.438 744.726 324.775C743.924 325.112 743 325.281 741.952 325.281C740.417 325.281 739.181 324.959 738.246 324.315C737.317 323.663 736.759 322.761 736.572 321.608L739.458 321.339C739.586 321.9 739.863 322.327 740.29 322.619C740.724 322.903 741.278 323.046 741.952 323.046C742.655 323.046 743.221 322.903 743.647 322.619C744.074 322.327 744.288 321.971 744.288 321.552C744.288 320.848 743.726 320.369 742.603 320.115L740.458 319.665C739.253 319.403 738.362 318.98 737.785 318.396C737.209 317.805 736.92 317.052 736.92 316.139C736.92 315.36 737.134 314.686 737.561 314.117C737.987 313.548 738.582 313.107 739.346 312.792C740.11 312.478 740.993 312.321 741.997 312.321C743.471 312.321 744.628 312.639 745.467 313.275C746.313 313.904 746.837 314.75 747.039 315.813Z" fill="white"/>
<path d="M173.036 68.8062V33.8843H195.77V39.1812H179.364V48.5562H194.552V53.7827H179.364V63.5093H195.864V68.8062H173.036ZM198.012 39.1812V33.8843H225.856V39.1812H215.074V68.8062H208.817V39.1812H198.012ZM228.519 68.8062V33.8843H234.847V48.6733H251.019V33.8843H257.347V68.8062H251.019V53.9937H234.847V68.8062H228.519ZM261.534 33.8843H269.292L279.651 59.1733H280.05L290.432 33.8843H298.284V68.8062H292.073V44.8062H291.792L282.089 68.689H277.542L267.956 44.7593H267.628V68.8062H261.534V33.8843ZM318.901 57.814V42.603H325.065V68.8062H319.088V64.1421H318.807C318.213 65.6108 317.244 66.814 315.901 67.7515C314.557 68.689 312.901 69.1499 310.932 69.1343C309.213 69.1343 307.697 68.7593 306.385 68.0093C305.088 67.2437 304.065 66.1265 303.315 64.6577C302.58 63.1733 302.213 61.3843 302.213 59.2905V42.603H308.377V58.353C308.377 59.9937 308.83 61.3062 309.736 62.2905C310.658 63.2749 311.861 63.7593 313.346 63.7437C314.252 63.7437 315.127 63.5249 315.971 63.0874C316.83 62.6499 317.533 61.9937 318.08 61.1187C318.627 60.2437 318.901 59.1421 318.901 57.814ZM328.759 68.8062V42.603H334.642V47.0796H334.97C335.517 45.5796 336.423 44.4077 337.689 43.564C338.955 42.7046 340.455 42.2749 342.189 42.2749C343.97 42.2749 345.47 42.7046 346.689 43.564C347.908 44.4233 348.759 45.5952 349.244 47.0796H349.525C350.119 45.6265 351.103 44.4624 352.478 43.5874C353.853 42.7124 355.494 42.2749 357.4 42.2749C359.806 42.2749 361.767 43.0405 363.283 44.5718C364.814 46.0874 365.58 48.3062 365.58 51.228V68.8062H359.392V52.1655C359.392 50.5562 358.955 49.3765 358.08 48.6265C357.22 47.8608 356.166 47.478 354.916 47.478C353.431 47.478 352.275 47.9468 351.447 48.8843C350.619 49.8062 350.205 50.9937 350.205 52.4468V68.8062H344.111V51.9312C344.111 50.5718 343.712 49.4937 342.916 48.6968C342.119 47.8843 341.064 47.478 339.751 47.478C338.861 47.478 338.048 47.7046 337.314 48.1577C336.58 48.6108 335.994 49.2437 335.556 50.0562C335.134 50.8687 334.923 51.8062 334.923 52.8687V68.8062H328.759ZM383.173 69.2749C381.688 69.2749 380.446 69.0249 379.446 68.5249C378.462 68.0093 377.665 67.3999 377.055 66.6968C376.462 65.978 376.009 65.2983 375.696 64.6577H375.321V68.8062H369.274V33.8843H375.438V46.939H375.696C376.009 46.314 376.454 45.6421 377.032 44.9233C377.61 44.189 378.391 43.564 379.376 43.0483C380.376 42.5327 381.649 42.2749 383.196 42.2749C385.212 42.2749 387.032 42.7905 388.657 43.8218C390.282 44.853 391.571 46.3687 392.524 48.3687C393.493 50.3687 393.977 52.8296 393.977 55.7515C393.977 58.6265 393.509 61.0718 392.571 63.0874C391.634 65.103 390.345 66.6421 388.704 67.7046C387.079 68.7515 385.235 69.2749 383.173 69.2749ZM381.485 64.2124C382.845 64.2124 383.977 63.8452 384.884 63.1108C385.805 62.3765 386.501 61.3687 386.97 60.0874C387.438 58.8062 387.673 57.353 387.673 55.728C387.673 54.103 387.438 52.6577 386.97 51.3921C386.501 50.1265 385.813 49.1343 384.907 48.4155C384.001 47.6968 382.86 47.3374 381.485 47.3374C380.157 47.3374 379.032 47.6812 378.11 48.3687C377.204 49.0562 376.509 50.0327 376.024 51.2983C375.555 52.5483 375.321 54.0249 375.321 55.728C375.321 57.4155 375.555 58.8999 376.024 60.1812C376.509 61.4468 377.212 62.439 378.134 63.1577C379.055 63.8608 380.173 64.2124 381.485 64.2124ZM404.07 69.3452C402.399 69.3452 400.899 69.0483 399.57 68.4546C398.242 67.8452 397.195 66.9546 396.43 65.7827C395.664 64.6108 395.281 63.1655 395.281 61.4468C395.281 59.978 395.555 58.7593 396.102 57.7905C396.649 56.8218 397.391 56.0483 398.328 55.4702C399.281 54.8921 400.352 54.4546 401.539 54.1577C402.727 53.8452 403.953 53.6265 405.219 53.5015C406.766 53.3296 408.016 53.1812 408.969 53.0562C409.922 52.9312 410.61 52.728 411.031 52.4468C411.469 52.1655 411.688 51.728 411.688 51.1343V51.0171C411.688 49.7515 411.313 48.7671 410.563 48.064C409.813 47.3608 408.719 47.0093 407.281 47.0093C405.766 47.0093 404.563 47.3374 403.672 47.9937C402.797 48.6499 402.203 49.4233 401.891 50.314L396.149 49.4937C396.602 47.8999 397.352 46.5718 398.399 45.5093C399.445 44.4312 400.719 43.6265 402.219 43.0952C403.735 42.5483 405.406 42.2749 407.235 42.2749C408.485 42.2749 409.735 42.4233 410.985 42.7202C412.235 43.0015 413.383 43.4858 414.43 44.1733C415.477 44.8608 416.313 45.7827 416.938 46.939C417.563 48.0952 417.875 49.5405 417.875 51.2749V68.8062H411.945V65.1968H411.758C411.383 65.9155 410.852 66.5952 410.164 67.2358C409.492 67.8608 408.649 68.3687 407.633 68.7593C406.633 69.1499 405.445 69.3452 404.07 69.3452ZM405.641 64.7983C406.891 64.7983 407.969 64.5562 408.875 64.0718C409.781 63.5718 410.485 62.9155 410.985 62.103C411.485 61.2749 411.735 60.3765 411.735 59.4077V56.3374C411.531 56.4937 411.203 56.6421 410.75 56.7827C410.297 56.9077 409.781 57.0249 409.203 57.1343C408.625 57.2437 408.055 57.3374 407.492 57.4155C406.945 57.4937 406.469 57.5562 406.063 57.603C405.141 57.728 404.313 57.939 403.578 58.2358C402.86 58.5171 402.289 58.9077 401.867 59.4077C401.445 59.9077 401.235 60.5562 401.235 61.353C401.235 62.4937 401.649 63.353 402.477 63.9312C403.305 64.5093 404.36 64.7983 405.641 64.7983ZM421.57 68.8062V42.603H427.734V68.8062H421.57ZM424.664 38.9233C423.679 38.9233 422.835 38.5952 422.132 37.939C421.429 37.2827 421.078 36.4937 421.078 35.5718C421.078 34.6343 421.429 33.8374 422.132 33.1812C422.835 32.5249 423.679 32.1968 424.664 32.1968C425.632 32.1968 426.468 32.5249 427.171 33.1812C427.875 33.8374 428.226 34.6265 428.226 35.5483C428.226 36.4858 427.875 37.2827 427.171 37.939C426.468 38.5952 425.632 38.9233 424.664 38.9233ZM440.584 68.8062V64.2593L452.725 52.353C453.865 51.1812 454.819 50.1421 455.584 49.2358C456.365 48.3296 456.951 47.4546 457.342 46.6108C457.733 45.7515 457.928 44.8374 457.928 43.8687C457.928 42.7749 457.678 41.8296 457.178 41.0327C456.678 40.2358 455.99 39.6265 455.115 39.2046C454.256 38.7827 453.272 38.5718 452.162 38.5718C451.006 38.5718 449.998 38.8062 449.139 39.2749C448.279 39.7437 447.608 40.4077 447.123 41.2671C446.654 42.1265 446.42 43.1499 446.42 44.3374H440.42C440.42 42.1343 440.92 40.2202 441.92 38.5952C442.936 36.9546 444.334 35.6812 446.115 34.7749C447.897 33.8687 449.936 33.4155 452.233 33.4155C454.592 33.4155 456.654 33.853 458.42 34.728C460.186 35.603 461.561 36.8062 462.545 38.3374C463.529 39.853 464.022 41.5874 464.022 43.5405C464.022 44.853 463.772 46.1421 463.272 47.4077C462.772 48.6577 461.889 50.0562 460.623 51.603C459.373 53.1343 457.615 54.9858 455.35 57.1577L449.35 63.2749V63.5327H464.537V68.8062H440.584ZM480.724 69.2749C477.896 69.2749 475.474 68.5718 473.459 67.1655C471.459 65.7437 469.927 63.7046 468.865 61.0483C467.802 58.3765 467.271 55.1499 467.271 51.3687C467.271 47.5874 467.802 44.3608 468.865 41.689C469.927 39.0015 471.459 36.9546 473.459 35.5483C475.474 34.1265 477.896 33.4155 480.724 33.4155C483.537 33.4155 485.951 34.1265 487.966 35.5483C489.982 36.9702 491.521 39.0171 492.584 41.689C493.646 44.3608 494.177 47.5874 494.177 51.3687C494.177 55.1499 493.646 58.3765 492.584 61.0483C491.521 63.7046 489.99 65.7437 487.99 67.1655C485.99 68.5718 483.568 69.2749 480.724 69.2749ZM480.724 63.978C482.24 63.978 483.521 63.4858 484.568 62.5015C485.63 61.5171 486.435 60.0874 486.982 58.2124C487.544 56.3218 487.826 54.0405 487.826 51.3687C487.826 48.6812 487.544 46.3921 486.982 44.5015C486.435 42.6108 485.63 41.1733 484.568 40.189C483.521 39.189 482.24 38.689 480.724 38.689C478.443 38.689 476.685 39.7983 475.451 42.0171C474.232 44.2202 473.623 47.3374 473.623 51.3687C473.623 54.0405 473.896 56.3218 474.443 58.2124C474.99 60.0874 475.794 61.5171 476.857 62.5015C477.919 63.4858 479.209 63.978 480.724 63.978ZM497.145 68.8062V64.2593L509.286 52.353C510.427 51.1812 511.38 50.1421 512.145 49.2358C512.927 48.3296 513.513 47.4546 513.903 46.6108C514.294 45.7515 514.489 44.8374 514.489 43.8687C514.489 42.7749 514.239 41.8296 513.739 41.0327C513.239 40.2358 512.552 39.6265 511.677 39.2046C510.817 38.7827 509.833 38.5718 508.723 38.5718C507.567 38.5718 506.559 38.8062 505.7 39.2749C504.841 39.7437 504.169 40.4077 503.684 41.2671C503.216 42.1265 502.981 43.1499 502.981 44.3374H496.981C496.981 42.1343 497.481 40.2202 498.481 38.5952C499.497 36.9546 500.895 35.6812 502.677 34.7749C504.458 33.8687 506.497 33.4155 508.794 33.4155C511.153 33.4155 513.216 33.853 514.981 34.728C516.747 35.603 518.122 36.8062 519.106 38.3374C520.091 39.853 520.583 41.5874 520.583 43.5405C520.583 44.853 520.333 46.1421 519.833 47.4077C519.333 48.6577 518.45 50.0562 517.184 51.603C515.934 53.1343 514.177 54.9858 511.911 57.1577L505.911 63.2749V63.5327H521.098V68.8062H497.145ZM522.988 62.3374V57.2983L537.824 33.8843H541.996V41.0562H539.442L529.457 56.853V57.1343H550.153V62.3374H522.988ZM539.629 68.8062V60.814L539.723 58.5405V33.8843H545.676V68.8062H539.629ZM568.839 33.8843V68.8062H562.511V33.8843H568.839ZM572.768 68.8062V42.603H578.651V47.0796H578.979C579.526 45.5796 580.432 44.4077 581.697 43.564C582.963 42.7046 584.463 42.2749 586.197 42.2749C587.979 42.2749 589.479 42.7046 590.697 43.564C591.916 44.4233 592.768 45.5952 593.252 47.0796H593.533C594.127 45.6265 595.112 44.4624 596.487 43.5874C597.862 42.7124 599.502 42.2749 601.408 42.2749C603.815 42.2749 605.776 43.0405 607.291 44.5718C608.822 46.0874 609.588 48.3062 609.588 51.228V68.8062H603.401V52.1655C603.401 50.5562 602.963 49.3765 602.088 48.6265C601.229 47.8608 600.174 47.478 598.924 47.478C597.44 47.478 596.283 47.9468 595.455 48.8843C594.627 49.8062 594.213 50.9937 594.213 52.4468V68.8062H588.119V51.9312C588.119 50.5718 587.721 49.4937 586.924 48.6968C586.127 47.8843 585.072 47.478 583.76 47.478C582.869 47.478 582.057 47.7046 581.322 48.1577C580.588 48.6108 580.002 49.2437 579.565 50.0562C579.143 50.8687 578.932 51.8062 578.932 52.8687V68.8062H572.768ZM613.283 78.603V42.603H619.33V46.939H619.705C620.017 46.314 620.462 45.6421 621.041 44.9233C621.619 44.189 622.4 43.564 623.384 43.0483C624.384 42.5327 625.658 42.2749 627.205 42.2749C629.22 42.2749 631.041 42.7905 632.666 43.8218C634.291 44.853 635.58 46.3687 636.533 48.3687C637.501 50.3687 637.986 52.8296 637.986 55.7515C637.986 58.6265 637.517 61.0718 636.58 63.0874C635.642 65.103 634.353 66.6421 632.712 67.7046C631.087 68.7515 629.244 69.2749 627.181 69.2749C625.697 69.2749 624.455 69.0249 623.455 68.5249C622.47 68.0093 621.673 67.3999 621.064 66.6968C620.47 65.978 620.017 65.2983 619.705 64.6577H619.447V78.603H613.283ZM625.494 64.2124C626.853 64.2124 627.986 63.8452 628.892 63.1108C629.814 62.3765 630.509 61.3687 630.978 60.0874C631.447 58.8062 631.681 57.353 631.681 55.728C631.681 54.103 631.447 52.6577 630.978 51.3921C630.509 50.1265 629.822 49.1343 628.916 48.4155C628.009 47.6968 626.869 47.3374 625.494 47.3374C624.166 47.3374 623.041 47.6812 622.119 48.3687C621.212 49.0562 620.517 50.0327 620.033 51.2983C619.564 52.5483 619.33 54.0249 619.33 55.728C619.33 57.4155 619.564 58.8999 620.033 60.1812C620.517 61.4468 621.22 62.439 622.142 63.1577C623.064 63.8608 624.181 64.2124 625.494 64.2124ZM648.079 69.3452C646.407 69.3452 644.907 69.0483 643.579 68.4546C642.251 67.8452 641.204 66.9546 640.438 65.7827C639.673 64.6108 639.29 63.1655 639.29 61.4468C639.29 59.978 639.563 58.7593 640.11 57.7905C640.657 56.8218 641.399 56.0483 642.337 55.4702C643.29 54.8921 644.36 54.4546 645.548 54.1577C646.735 53.8452 647.962 53.6265 649.227 53.5015C650.774 53.3296 652.024 53.1812 652.977 53.0562C653.931 52.9312 654.618 52.728 655.04 52.4468C655.477 52.1655 655.696 51.728 655.696 51.1343V51.0171C655.696 49.7515 655.321 48.7671 654.571 48.064C653.821 47.3608 652.727 47.0093 651.29 47.0093C649.774 47.0093 648.571 47.3374 647.681 47.9937C646.806 48.6499 646.212 49.4233 645.899 50.314L640.157 49.4937C640.61 47.8999 641.36 46.5718 642.407 45.5093C643.454 44.4312 644.727 43.6265 646.227 43.0952C647.743 42.5483 649.415 42.2749 651.243 42.2749C652.493 42.2749 653.743 42.4233 654.993 42.7202C656.243 43.0015 657.391 43.4858 658.438 44.1733C659.485 44.8608 660.321 45.7827 660.946 46.939C661.571 48.0952 661.884 49.5405 661.884 51.2749V68.8062H655.954V65.1968H655.766C655.391 65.9155 654.86 66.5952 654.173 67.2358C653.501 67.8608 652.657 68.3687 651.641 68.7593C650.641 69.1499 649.454 69.3452 648.079 69.3452ZM649.649 64.7983C650.899 64.7983 651.977 64.5562 652.884 64.0718C653.79 63.5718 654.493 62.9155 654.993 62.103C655.493 61.2749 655.743 60.3765 655.743 59.4077V56.3374C655.54 56.4937 655.212 56.6421 654.759 56.7827C654.306 56.9077 653.79 57.0249 653.212 57.1343C652.634 57.2437 652.063 57.3374 651.501 57.4155C650.954 57.4937 650.477 57.5562 650.071 57.603C649.149 57.728 648.321 57.939 647.587 58.2358C646.868 58.5171 646.298 58.9077 645.876 59.4077C645.454 59.9077 645.243 60.5562 645.243 61.353C645.243 62.4937 645.657 63.353 646.485 63.9312C647.313 64.5093 648.368 64.7983 649.649 64.7983ZM676.992 69.3218C674.383 69.3218 672.141 68.7515 670.266 67.6108C668.391 66.4546 666.953 64.8608 665.953 62.8296C664.953 60.7983 664.453 58.4624 664.453 55.8218C664.453 53.1499 664.961 50.7983 665.977 48.7671C666.992 46.7358 668.438 45.1499 670.313 44.0093C672.188 42.853 674.399 42.2749 676.946 42.2749C679.086 42.2749 680.977 42.6655 682.617 43.4468C684.258 44.228 685.563 45.3296 686.531 46.7515C687.516 48.1577 688.078 49.8062 688.219 51.6968H682.313C682.156 50.853 681.852 50.0952 681.399 49.4233C680.946 48.7515 680.352 48.2202 679.617 47.8296C678.899 47.439 678.039 47.2437 677.039 47.2437C675.774 47.2437 674.664 47.5874 673.711 48.2749C672.774 48.9468 672.039 49.9155 671.508 51.1812C670.977 52.4468 670.711 53.9624 670.711 55.728C670.711 57.5093 670.969 59.0483 671.485 60.3452C672 61.6265 672.735 62.6187 673.688 63.3218C674.641 64.0093 675.758 64.353 677.039 64.353C678.399 64.353 679.547 63.9546 680.485 63.1577C681.438 62.3608 682.047 61.2593 682.313 59.853H688.219C688.078 61.7124 687.531 63.353 686.578 64.7749C685.625 66.1968 684.336 67.314 682.711 68.1265C681.086 68.9233 679.18 69.3218 676.992 69.3218ZM703.726 42.603V47.3843H688.703V42.603H703.726ZM692.382 36.3687H698.546V60.9312C698.546 61.9624 698.773 62.728 699.226 63.228C699.679 63.7124 700.398 63.9546 701.382 63.9546C701.648 63.9546 701.945 63.9312 702.273 63.8843C702.601 63.8374 702.898 63.7827 703.164 63.7202L704.218 68.5483C703.562 68.7515 702.898 68.8999 702.226 68.9937C701.554 69.103 700.882 69.1577 700.211 69.1577C697.773 69.1577 695.859 68.5171 694.468 67.2358C693.078 65.939 692.382 64.1733 692.382 61.939V36.3687Z" fill="white"/>
<path d="M233.373 112.327V94.8663H243.85V96.7413H235.482V102.835H243.053V104.71H235.482V112.327H233.373ZM245.683 112.327V99.2257H247.675V112.327H245.683ZM246.691 97.046C246.3 97.046 245.964 96.9132 245.683 96.6476C245.402 96.382 245.261 96.0616 245.261 95.6866C245.261 95.3116 245.402 94.9913 245.683 94.7257C245.964 94.4601 246.3 94.3273 246.691 94.3273C247.081 94.3273 247.417 94.4601 247.698 94.7257C247.98 94.9913 248.12 95.3116 248.12 95.6866C248.12 96.0616 247.98 96.382 247.698 96.6476C247.417 96.9132 247.081 97.046 246.691 97.046ZM249.86 112.327V99.2257H251.782V101.218H251.922C252.164 100.569 252.598 100.046 253.223 99.6476C253.856 99.2413 254.563 99.0382 255.344 99.0382C255.493 99.0382 255.676 99.0421 255.895 99.0499C256.114 99.0499 256.282 99.0538 256.399 99.0616V101.101C256.328 101.085 256.172 101.062 255.93 101.03C255.688 100.999 255.43 100.984 255.157 100.984C254.524 100.984 253.957 101.116 253.457 101.382C252.957 101.648 252.563 102.011 252.274 102.472C251.993 102.933 251.852 103.46 251.852 104.054V112.327H249.86ZM266.529 102.179L264.724 102.671C264.552 102.226 264.255 101.804 263.834 101.405C263.42 100.999 262.771 100.796 261.888 100.796C261.091 100.796 260.427 100.984 259.896 101.359C259.365 101.726 259.099 102.187 259.099 102.741C259.099 103.241 259.279 103.64 259.638 103.937C260.005 104.234 260.576 104.476 261.349 104.663L263.295 105.132C264.459 105.413 265.326 105.847 265.896 106.433C266.474 107.019 266.763 107.765 266.763 108.671C266.763 109.421 266.548 110.093 266.119 110.687C265.689 111.28 265.091 111.749 264.326 112.093C263.56 112.437 262.67 112.609 261.654 112.609C260.318 112.609 259.212 112.316 258.337 111.73C257.47 111.144 256.92 110.296 256.685 109.187L258.584 108.718C258.763 109.421 259.107 109.948 259.615 110.3C260.13 110.651 260.802 110.827 261.63 110.827C262.56 110.827 263.302 110.628 263.857 110.23C264.42 109.823 264.701 109.343 264.701 108.788C264.701 107.866 264.052 107.249 262.755 106.937L260.576 106.421C259.373 106.132 258.49 105.691 257.927 105.097C257.365 104.503 257.084 103.757 257.084 102.859C257.084 102.116 257.291 101.46 257.705 100.89C258.127 100.319 258.701 99.8741 259.427 99.5538C260.154 99.2257 260.974 99.0616 261.888 99.0616C263.193 99.0616 264.212 99.3507 264.947 99.9288C265.689 100.499 266.216 101.249 266.529 102.179ZM273.964 99.2257V100.937H267.19V99.2257H273.964ZM269.159 96.1085H271.151V108.577C271.151 109.257 271.292 109.757 271.573 110.077C271.854 110.39 272.3 110.546 272.909 110.546C273.042 110.546 273.178 110.538 273.319 110.523C273.468 110.507 273.628 110.484 273.8 110.452L274.221 112.257C274.034 112.327 273.803 112.382 273.53 112.421C273.264 112.468 272.995 112.491 272.721 112.491C271.667 112.491 270.807 112.179 270.143 111.554C269.487 110.929 269.159 110.116 269.159 109.116V96.1085ZM286.208 112.609C284.95 112.609 283.861 112.327 282.939 111.765C282.025 111.202 281.321 110.417 280.829 109.409C280.337 108.394 280.091 107.218 280.091 105.882C280.091 104.538 280.333 103.355 280.818 102.331C281.302 101.308 281.982 100.507 282.857 99.9288C283.739 99.3507 284.771 99.0616 285.95 99.0616C286.63 99.0616 287.306 99.1749 287.978 99.4015C288.65 99.6281 289.259 99.9952 289.806 100.503C290.361 101.011 290.802 101.683 291.13 102.519C291.458 103.355 291.622 104.382 291.622 105.601V106.468H281.521V104.734H290.532L289.607 105.39C289.607 104.515 289.47 103.737 289.196 103.058C288.923 102.378 288.513 101.843 287.966 101.452C287.427 101.062 286.755 100.866 285.95 100.866C285.146 100.866 284.454 101.066 283.876 101.464C283.306 101.855 282.868 102.366 282.564 102.999C282.259 103.632 282.107 104.312 282.107 105.038V106.187C282.107 107.179 282.278 108.019 282.622 108.706C282.966 109.394 283.446 109.917 284.064 110.276C284.681 110.628 285.396 110.804 286.208 110.804C286.732 110.804 287.208 110.73 287.638 110.581C288.068 110.425 288.439 110.194 288.751 109.89C289.064 109.577 289.302 109.194 289.466 108.741L291.411 109.304C291.208 109.96 290.864 110.538 290.38 111.038C289.903 111.53 289.31 111.917 288.599 112.198C287.888 112.472 287.091 112.609 286.208 112.609ZM303.346 99.2257L298.518 112.327H296.455L291.627 99.2257H293.807L297.416 109.679H297.557L301.166 99.2257H303.346ZM309.515 112.609C308.257 112.609 307.168 112.327 306.246 111.765C305.332 111.202 304.629 110.417 304.136 109.409C303.644 108.394 303.398 107.218 303.398 105.882C303.398 104.538 303.64 103.355 304.125 102.331C304.609 101.308 305.289 100.507 306.164 99.9288C307.046 99.3507 308.078 99.0616 309.257 99.0616C309.937 99.0616 310.613 99.1749 311.285 99.4015C311.957 99.6281 312.566 99.9952 313.113 100.503C313.668 101.011 314.109 101.683 314.437 102.519C314.765 103.355 314.929 104.382 314.929 105.601V106.468H304.828V104.734H313.839L312.914 105.39C312.914 104.515 312.777 103.737 312.504 103.058C312.23 102.378 311.82 101.843 311.273 101.452C310.734 101.062 310.062 100.866 309.257 100.866C308.453 100.866 307.761 101.066 307.183 101.464C306.613 101.855 306.175 102.366 305.871 102.999C305.566 103.632 305.414 104.312 305.414 105.038V106.187C305.414 107.179 305.586 108.019 305.929 108.706C306.273 109.394 306.754 109.917 307.371 110.276C307.988 110.628 308.703 110.804 309.515 110.804C310.039 110.804 310.515 110.73 310.945 110.581C311.375 110.425 311.746 110.194 312.058 109.89C312.371 109.577 312.609 109.194 312.773 108.741L314.718 109.304C314.515 109.96 314.171 110.538 313.687 111.038C313.211 111.53 312.617 111.917 311.906 112.198C311.195 112.472 310.398 112.609 309.515 112.609ZM316.434 112.327V99.2257H318.356V101.218H318.497C318.739 100.569 319.173 100.046 319.798 99.6476C320.43 99.2413 321.137 99.0382 321.919 99.0382C322.067 99.0382 322.251 99.0421 322.47 99.0499C322.688 99.0499 322.856 99.0538 322.973 99.0616V101.101C322.903 101.085 322.747 101.062 322.505 101.03C322.262 100.999 322.005 100.984 321.731 100.984C321.098 100.984 320.532 101.116 320.032 101.382C319.532 101.648 319.137 102.011 318.848 102.472C318.567 102.933 318.427 103.46 318.427 104.054V112.327H316.434ZM329.335 112.327V94.8663H339.882V96.7413H331.445V102.577H339.32V104.452H331.445V110.452H339.999V112.327H329.335ZM347.575 99.2257V100.937H340.801V99.2257H347.575ZM342.77 96.1085H344.762V108.577C344.762 109.257 344.903 109.757 345.184 110.077C345.465 110.39 345.911 110.546 346.52 110.546C346.653 110.546 346.789 110.538 346.93 110.523C347.079 110.507 347.239 110.484 347.411 110.452L347.832 112.257C347.645 112.327 347.414 112.382 347.141 112.421C346.875 112.468 346.606 112.491 346.332 112.491C345.278 112.491 344.418 112.179 343.754 111.554C343.098 110.929 342.77 110.116 342.77 109.116V96.1085ZM351.377 104.452V112.327H349.384V94.8663H351.377V101.288H351.564C351.869 100.609 352.326 100.069 352.935 99.671C353.552 99.2648 354.377 99.0616 355.408 99.0616C356.298 99.0616 357.08 99.2413 357.752 99.6007C358.423 99.9523 358.947 100.495 359.322 101.23C359.697 101.956 359.884 102.882 359.884 104.007V112.327H357.869V104.148C357.869 103.101 357.599 102.292 357.06 101.722C356.521 101.151 355.775 100.866 354.822 100.866C354.158 100.866 353.568 101.007 353.052 101.288C352.537 101.569 352.127 101.976 351.822 102.507C351.525 103.038 351.377 103.687 351.377 104.452ZM367.554 112.609C366.296 112.609 365.206 112.327 364.284 111.765C363.37 111.202 362.667 110.417 362.175 109.409C361.682 108.394 361.436 107.218 361.436 105.882C361.436 104.538 361.679 103.355 362.163 102.331C362.647 101.308 363.327 100.507 364.202 99.9288C365.085 99.3507 366.116 99.0616 367.296 99.0616C367.975 99.0616 368.651 99.1749 369.323 99.4015C369.995 99.6281 370.604 99.9952 371.151 100.503C371.706 101.011 372.147 101.683 372.475 102.519C372.804 103.355 372.968 104.382 372.968 105.601V106.468H362.866V104.734H371.878L370.952 105.39C370.952 104.515 370.815 103.737 370.542 103.058C370.268 102.378 369.858 101.843 369.311 101.452C368.772 101.062 368.1 100.866 367.296 100.866C366.491 100.866 365.8 101.066 365.221 101.464C364.651 101.855 364.214 102.366 363.909 102.999C363.604 103.632 363.452 104.312 363.452 105.038V106.187C363.452 107.179 363.624 108.019 363.968 108.706C364.311 109.394 364.792 109.917 365.409 110.276C366.026 110.628 366.741 110.804 367.554 110.804C368.077 110.804 368.554 110.73 368.983 110.581C369.413 110.425 369.784 110.194 370.096 109.89C370.409 109.577 370.647 109.194 370.811 108.741L372.757 109.304C372.554 109.96 372.21 110.538 371.725 111.038C371.249 111.53 370.655 111.917 369.944 112.198C369.233 112.472 368.436 112.609 367.554 112.609ZM374.473 112.327V99.2257H376.395V101.218H376.535C376.777 100.569 377.211 100.046 377.836 99.6476C378.469 99.2413 379.176 99.0382 379.957 99.0382C380.105 99.0382 380.289 99.0421 380.508 99.0499C380.727 99.0499 380.895 99.0538 381.012 99.0616V101.101C380.941 101.085 380.785 101.062 380.543 101.03C380.301 100.999 380.043 100.984 379.77 100.984C379.137 100.984 378.57 101.116 378.07 101.382C377.57 101.648 377.176 102.011 376.887 102.472C376.605 102.933 376.465 103.46 376.465 104.054V112.327H374.473ZM386.97 112.609C385.712 112.609 384.622 112.327 383.7 111.765C382.786 111.202 382.083 110.417 381.591 109.409C381.099 108.394 380.853 107.218 380.853 105.882C380.853 104.538 381.095 103.355 381.579 102.331C382.064 101.308 382.743 100.507 383.618 99.9288C384.501 99.3507 385.532 99.0616 386.712 99.0616C387.392 99.0616 388.068 99.1749 388.739 99.4015C389.411 99.6281 390.021 99.9952 390.568 100.503C391.122 101.011 391.564 101.683 391.892 102.519C392.22 103.355 392.384 104.382 392.384 105.601V106.468H382.282V104.734H391.294L390.368 105.39C390.368 104.515 390.232 103.737 389.958 103.058C389.685 102.378 389.275 101.843 388.728 101.452C388.189 101.062 387.517 100.866 386.712 100.866C385.907 100.866 385.216 101.066 384.638 101.464C384.068 101.855 383.63 102.366 383.325 102.999C383.021 103.632 382.868 104.312 382.868 105.038V106.187C382.868 107.179 383.04 108.019 383.384 108.706C383.728 109.394 384.208 109.917 384.825 110.276C385.443 110.628 386.157 110.804 386.97 110.804C387.493 110.804 387.97 110.73 388.4 110.581C388.829 110.425 389.2 110.194 389.513 109.89C389.825 109.577 390.064 109.194 390.228 108.741L392.173 109.304C391.97 109.96 391.626 110.538 391.142 111.038C390.665 111.53 390.071 111.917 389.361 112.198C388.65 112.472 387.853 112.609 386.97 112.609ZM402.139 106.984V99.2257H404.131V112.327H402.139V110.101H401.998C401.686 110.765 401.205 111.331 400.557 111.8C399.916 112.269 399.1 112.499 398.108 112.491C397.288 112.491 396.561 112.316 395.928 111.964C395.295 111.605 394.795 111.058 394.428 110.323C394.069 109.589 393.889 108.663 393.889 107.546V99.2257H395.881V107.429C395.881 108.374 396.151 109.132 396.69 109.702C397.237 110.273 397.928 110.554 398.764 110.546C399.264 110.546 399.772 110.421 400.288 110.171C400.811 109.913 401.248 109.523 401.6 108.999C401.959 108.468 402.139 107.796 402.139 106.984ZM406.316 112.327V99.2257H408.238V101.288H408.425C408.699 100.585 409.14 100.038 409.75 99.6476C410.359 99.257 411.089 99.0616 411.941 99.0616C412.8 99.0616 413.515 99.257 414.086 99.6476C414.664 100.038 415.113 100.585 415.433 101.288H415.574C415.918 100.609 416.421 100.069 417.086 99.671C417.757 99.2648 418.558 99.0616 419.488 99.0616C420.66 99.0616 421.621 99.4288 422.371 100.163C423.121 100.89 423.496 102.023 423.496 103.562V112.327H421.48V103.562C421.48 102.593 421.214 101.901 420.683 101.487C420.152 101.073 419.527 100.866 418.808 100.866C417.894 100.866 417.183 101.148 416.675 101.71C416.175 102.265 415.925 102.96 415.925 103.796V112.327H413.863V103.351C413.863 102.609 413.625 102.011 413.148 101.558C412.671 101.097 412.05 100.866 411.285 100.866C410.761 100.866 410.273 101.007 409.82 101.288C409.367 101.569 409 101.956 408.718 102.448C408.445 102.941 408.308 103.507 408.308 104.148V112.327H406.316ZM432.904 104.452V112.327H430.912V94.8663H432.904V101.288H433.092C433.396 100.609 433.854 100.069 434.463 99.671C435.08 99.2648 435.904 99.0616 436.936 99.0616C437.826 99.0616 438.607 99.2413 439.279 99.6007C439.951 99.9523 440.475 100.495 440.85 101.23C441.225 101.956 441.412 102.882 441.412 104.007V112.327H439.396V104.148C439.396 103.101 439.127 102.292 438.588 101.722C438.049 101.151 437.303 100.866 436.35 100.866C435.686 100.866 435.096 101.007 434.58 101.288C434.064 101.569 433.654 101.976 433.35 102.507C433.053 103.038 432.904 103.687 432.904 104.452ZM447.441 112.632C446.613 112.632 445.859 112.476 445.179 112.163C444.499 111.843 443.96 111.382 443.562 110.78C443.163 110.179 442.964 109.452 442.964 108.601C442.964 107.851 443.113 107.245 443.409 106.784C443.706 106.316 444.101 105.948 444.593 105.683C445.093 105.409 445.64 105.206 446.234 105.073C446.835 104.941 447.441 104.835 448.05 104.757C448.847 104.655 449.491 104.577 449.984 104.523C450.484 104.468 450.847 104.374 451.073 104.241C451.308 104.109 451.425 103.882 451.425 103.562V103.491C451.425 102.655 451.195 102.007 450.734 101.546C450.28 101.077 449.589 100.843 448.659 100.843C447.706 100.843 446.956 101.054 446.409 101.476C445.863 101.89 445.48 102.335 445.261 102.812L443.339 102.132C443.683 101.335 444.14 100.714 444.71 100.269C445.288 99.8234 445.913 99.5109 446.585 99.3312C447.265 99.1515 447.933 99.0616 448.589 99.0616C449.011 99.0616 449.495 99.1124 450.042 99.214C450.589 99.3077 451.12 99.5109 451.636 99.8234C452.159 100.128 452.589 100.593 452.925 101.218C453.269 101.835 453.441 102.663 453.441 103.702V112.327H451.425V110.546H451.331C451.198 110.827 450.972 111.132 450.652 111.46C450.331 111.78 449.905 112.058 449.374 112.292C448.851 112.519 448.206 112.632 447.441 112.632ZM447.745 110.827C448.542 110.827 449.214 110.671 449.761 110.359C450.308 110.046 450.722 109.644 451.003 109.151C451.284 108.651 451.425 108.132 451.425 107.593V105.741C451.339 105.843 451.152 105.937 450.863 106.023C450.581 106.101 450.253 106.171 449.878 106.234C449.511 106.296 449.152 106.351 448.8 106.398C448.448 106.437 448.167 106.468 447.956 106.491C447.433 106.562 446.945 106.675 446.491 106.831C446.038 106.98 445.671 107.202 445.39 107.499C445.116 107.796 444.98 108.202 444.98 108.718C444.98 109.413 445.238 109.941 445.753 110.3C446.277 110.651 446.941 110.827 447.745 110.827ZM460.922 112.609C459.704 112.609 458.649 112.319 457.758 111.741C456.875 111.155 456.192 110.355 455.707 109.339C455.231 108.323 454.993 107.163 454.993 105.859C454.993 104.523 455.239 103.347 455.731 102.331C456.223 101.308 456.911 100.507 457.793 99.9288C458.684 99.3507 459.719 99.0616 460.899 99.0616C461.821 99.0616 462.649 99.2335 463.383 99.5773C464.125 99.9132 464.731 100.39 465.2 101.007C465.676 101.624 465.969 102.343 466.079 103.163H464.063C463.961 102.765 463.778 102.39 463.512 102.038C463.247 101.687 462.895 101.405 462.457 101.194C462.028 100.976 461.516 100.866 460.922 100.866C460.141 100.866 459.457 101.069 458.872 101.476C458.286 101.882 457.829 102.456 457.5 103.198C457.172 103.933 457.008 104.796 457.008 105.788C457.008 106.796 457.168 107.679 457.489 108.437C457.809 109.187 458.262 109.769 458.848 110.183C459.442 110.597 460.133 110.804 460.922 110.804C461.711 110.804 462.387 110.601 462.95 110.194C463.512 109.78 463.883 109.218 464.063 108.507H466.079C465.969 109.28 465.688 109.976 465.235 110.593C464.789 111.21 464.2 111.702 463.465 112.069C462.739 112.429 461.891 112.609 460.922 112.609ZM469.459 107.546L469.412 105.062H469.834L475.552 99.2257H478.037L471.943 105.413H471.755L469.459 107.546ZM467.584 112.327V94.8663H469.576V112.327H467.584ZM475.88 112.327L470.771 105.859L472.201 104.452L478.459 112.327H475.88ZM482.964 112.632C482.136 112.632 481.382 112.476 480.702 112.163C480.022 111.843 479.483 111.382 479.085 110.78C478.686 110.179 478.487 109.452 478.487 108.601C478.487 107.851 478.636 107.245 478.932 106.784C479.229 106.316 479.624 105.948 480.116 105.683C480.616 105.409 481.163 105.206 481.757 105.073C482.358 104.941 482.964 104.835 483.573 104.757C484.37 104.655 485.014 104.577 485.507 104.523C486.007 104.468 486.37 104.374 486.596 104.241C486.831 104.109 486.948 103.882 486.948 103.562V103.491C486.948 102.655 486.718 102.007 486.257 101.546C485.804 101.077 485.112 100.843 484.182 100.843C483.229 100.843 482.479 101.054 481.932 101.476C481.386 101.89 481.003 102.335 480.784 102.812L478.862 102.132C479.206 101.335 479.663 100.714 480.233 100.269C480.811 99.8234 481.436 99.5109 482.108 99.3312C482.788 99.1515 483.456 99.0616 484.112 99.0616C484.534 99.0616 485.018 99.1124 485.565 99.214C486.112 99.3077 486.643 99.5109 487.159 99.8234C487.682 100.128 488.112 100.593 488.448 101.218C488.792 101.835 488.964 102.663 488.964 103.702V112.327H486.948V110.546H486.854C486.721 110.827 486.495 111.132 486.175 111.46C485.854 111.78 485.429 112.058 484.897 112.292C484.374 112.519 483.729 112.632 482.964 112.632ZM483.268 110.827C484.065 110.827 484.737 110.671 485.284 110.359C485.831 110.046 486.245 109.644 486.526 109.151C486.807 108.651 486.948 108.132 486.948 107.593V105.741C486.862 105.843 486.675 105.937 486.386 106.023C486.104 106.101 485.776 106.171 485.401 106.234C485.034 106.296 484.675 106.351 484.323 106.398C483.971 106.437 483.69 106.468 483.479 106.491C482.956 106.562 482.468 106.675 482.014 106.831C481.561 106.98 481.194 107.202 480.913 107.499C480.639 107.796 480.503 108.202 480.503 108.718C480.503 109.413 480.761 109.941 481.276 110.3C481.8 110.651 482.464 110.827 483.268 110.827ZM496.82 99.2257V100.937H490.047V99.2257H496.82ZM492.016 96.1085H494.008V108.577C494.008 109.257 494.148 109.757 494.43 110.077C494.711 110.39 495.156 110.546 495.766 110.546C495.898 110.546 496.035 110.538 496.176 110.523C496.324 110.507 496.484 110.484 496.656 110.452L497.078 112.257C496.891 112.327 496.66 112.382 496.387 112.421C496.121 112.468 495.852 112.491 495.578 112.491C494.523 112.491 493.664 112.179 493 111.554C492.344 110.929 492.016 110.116 492.016 109.116V96.1085ZM500.622 104.452V112.327H498.63V94.8663H500.622V101.288H500.81C501.114 100.609 501.572 100.069 502.181 99.671C502.798 99.2648 503.622 99.0616 504.654 99.0616C505.544 99.0616 506.325 99.2413 506.997 99.6007C507.669 99.9523 508.193 100.495 508.568 101.23C508.943 101.956 509.13 102.882 509.13 104.007V112.327H507.114V104.148C507.114 103.101 506.845 102.292 506.306 101.722C505.767 101.151 505.021 100.866 504.068 100.866C503.404 100.866 502.814 101.007 502.298 101.288C501.782 101.569 501.372 101.976 501.068 102.507C500.771 103.038 500.622 103.687 500.622 104.452ZM516.612 112.609C515.432 112.609 514.397 112.327 513.506 111.765C512.616 111.202 511.92 110.413 511.42 109.398C510.928 108.382 510.682 107.202 510.682 105.859C510.682 104.491 510.928 103.3 511.42 102.284C511.92 101.261 512.616 100.468 513.506 99.9054C514.397 99.3429 515.432 99.0616 516.612 99.0616C517.799 99.0616 518.838 99.3429 519.729 99.9054C520.62 100.468 521.315 101.261 521.815 102.284C522.315 103.3 522.565 104.491 522.565 105.859C522.565 107.202 522.315 108.382 521.815 109.398C521.315 110.413 520.62 111.202 519.729 111.765C518.838 112.327 517.799 112.609 516.612 112.609ZM516.612 110.804C517.518 110.804 518.26 110.573 518.838 110.112C519.416 109.651 519.846 109.046 520.127 108.296C520.409 107.538 520.549 106.726 520.549 105.859C520.549 104.976 520.409 104.155 520.127 103.398C519.846 102.64 519.416 102.03 518.838 101.569C518.26 101.101 517.518 100.866 516.612 100.866C515.721 100.866 514.987 101.101 514.409 101.569C513.831 102.03 513.401 102.64 513.12 103.398C512.838 104.155 512.698 104.976 512.698 105.859C512.698 106.726 512.838 107.538 513.12 108.296C513.401 109.046 513.831 109.651 514.409 110.112C514.987 110.573 515.721 110.804 516.612 110.804ZM526.109 104.452V112.327H524.117V99.2257H526.039V101.288H526.226C526.531 100.616 526.996 100.077 527.621 99.671C528.246 99.2648 529.054 99.0616 530.047 99.0616C530.929 99.0616 531.703 99.2413 532.367 99.6007C533.031 99.9601 533.547 100.507 533.914 101.241C534.289 101.968 534.476 102.89 534.476 104.007V112.327H532.484V104.148C532.484 103.124 532.214 102.323 531.675 101.745C531.136 101.159 530.402 100.866 529.472 100.866C528.832 100.866 528.257 101.007 527.75 101.288C527.242 101.569 526.839 101.976 526.543 102.507C526.254 103.038 526.109 103.687 526.109 104.452ZM541.893 112.327V99.2257H543.885V112.327H541.893ZM542.9 97.046C542.51 97.046 542.174 96.9132 541.893 96.6476C541.611 96.382 541.471 96.0616 541.471 95.6866C541.471 95.3116 541.611 94.9913 541.893 94.7257C542.174 94.4601 542.51 94.3273 542.9 94.3273C543.291 94.3273 543.627 94.4601 543.908 94.7257C544.189 94.9913 544.33 95.3116 544.33 95.6866C544.33 96.0616 544.189 96.382 543.908 96.6476C543.627 96.9132 543.291 97.046 542.9 97.046ZM548.062 104.452V112.327H546.07V99.2257H547.991V101.288H548.179C548.484 100.616 548.948 100.077 549.573 99.671C550.198 99.2648 551.007 99.0616 551.999 99.0616C552.882 99.0616 553.656 99.2413 554.32 99.6007C554.984 99.9601 555.499 100.507 555.866 101.241C556.241 101.968 556.429 102.89 556.429 104.007V112.327H554.437V104.148C554.437 103.124 554.167 102.323 553.628 101.745C553.089 101.159 552.355 100.866 551.425 100.866C550.784 100.866 550.21 101.007 549.702 101.288C549.195 101.569 548.792 101.976 548.495 102.507C548.206 103.038 548.062 103.687 548.062 104.452ZM564.103 94.8663H566.634L572.564 109.351H572.775L578.705 94.8663H581.318V112.327H579.244V99.0616H579.08L573.584 112.327H571.685L566.259 99.0616H566.095V112.327H564.103V94.8663ZM592.022 106.984V99.2257H594.014V112.327H592.022V110.101H591.882C591.569 110.765 591.089 111.331 590.44 111.8C589.8 112.269 588.983 112.499 587.991 112.491C587.171 112.491 586.444 112.316 585.811 111.964C585.179 111.605 584.679 111.058 584.311 110.323C583.952 109.589 583.772 108.663 583.772 107.546V99.2257H585.764V107.429C585.764 108.374 586.034 109.132 586.573 109.702C587.12 110.273 587.811 110.554 588.647 110.546C589.147 110.546 589.655 110.421 590.171 110.171C590.694 109.913 591.132 109.523 591.483 108.999C591.843 108.468 592.022 107.796 592.022 106.984ZM596.199 112.327V99.2257H598.121V101.288H598.309C598.582 100.585 599.023 100.038 599.633 99.6476C600.242 99.257 600.973 99.0616 601.824 99.0616C602.684 99.0616 603.398 99.257 603.969 99.6476C604.547 100.038 604.996 100.585 605.316 101.288H605.457C605.801 100.609 606.305 100.069 606.969 99.671C607.641 99.2648 608.441 99.0616 609.371 99.0616C610.543 99.0616 611.504 99.4288 612.254 100.163C613.004 100.89 613.379 102.023 613.379 103.562V112.327H611.363V103.562C611.363 102.593 611.098 101.901 610.566 101.487C610.035 101.073 609.41 100.866 608.691 100.866C607.777 100.866 607.066 101.148 606.559 101.71C606.059 102.265 605.809 102.96 605.809 103.796V112.327H603.746V103.351C603.746 102.609 603.508 102.011 603.031 101.558C602.555 101.097 601.934 100.866 601.168 100.866C600.645 100.866 600.156 101.007 599.703 101.288C599.25 101.569 598.883 101.956 598.602 102.448C598.328 102.941 598.191 103.507 598.191 104.148V112.327H596.199ZM621.54 112.609C620.704 112.609 620.032 112.468 619.525 112.187C619.017 111.898 618.626 111.573 618.353 111.214C618.079 110.847 617.868 110.546 617.72 110.312H617.486V112.327H615.564V94.8663H617.556V101.312H617.72C617.868 101.085 618.075 100.796 618.341 100.444C618.607 100.085 618.99 99.7648 619.49 99.4835C619.99 99.2023 620.665 99.0616 621.517 99.0616C622.618 99.0616 623.587 99.339 624.423 99.8937C625.259 100.441 625.911 101.222 626.38 102.237C626.857 103.245 627.095 104.437 627.095 105.812C627.095 107.194 626.861 108.398 626.392 109.421C625.923 110.437 625.271 111.222 624.435 111.776C623.599 112.331 622.634 112.609 621.54 112.609ZM621.282 110.804C622.118 110.804 622.818 110.581 623.38 110.136C623.943 109.683 624.365 109.077 624.646 108.319C624.935 107.562 625.079 106.718 625.079 105.788C625.079 104.866 624.939 104.034 624.657 103.292C624.376 102.55 623.954 101.96 623.392 101.523C622.837 101.085 622.134 100.866 621.282 100.866C620.462 100.866 619.775 101.073 619.22 101.487C618.665 101.894 618.243 102.468 617.954 103.21C617.673 103.944 617.532 104.804 617.532 105.788C617.532 106.773 617.677 107.644 617.966 108.401C618.255 109.151 618.677 109.741 619.232 110.171C619.794 110.593 620.478 110.804 621.282 110.804ZM632.491 112.632C631.663 112.632 630.909 112.476 630.229 112.163C629.549 111.843 629.01 111.382 628.612 110.78C628.213 110.179 628.014 109.452 628.014 108.601C628.014 107.851 628.163 107.245 628.459 106.784C628.756 106.316 629.151 105.948 629.643 105.683C630.143 105.409 630.69 105.206 631.284 105.073C631.885 104.941 632.491 104.835 633.1 104.757C633.897 104.655 634.541 104.577 635.034 104.523C635.534 104.468 635.897 104.374 636.123 104.241C636.358 104.109 636.475 103.882 636.475 103.562V103.491C636.475 102.655 636.245 102.007 635.784 101.546C635.331 101.077 634.639 100.843 633.709 100.843C632.756 100.843 632.006 101.054 631.459 101.476C630.913 101.89 630.53 102.335 630.311 102.812L628.389 102.132C628.733 101.335 629.19 100.714 629.76 100.269C630.338 99.8234 630.963 99.5109 631.635 99.3312C632.315 99.1515 632.983 99.0616 633.639 99.0616C634.061 99.0616 634.545 99.1124 635.092 99.214C635.639 99.3077 636.17 99.5109 636.686 99.8234C637.209 100.128 637.639 100.593 637.975 101.218C638.319 101.835 638.491 102.663 638.491 103.702V112.327H636.475V110.546H636.381C636.248 110.827 636.022 111.132 635.702 111.46C635.381 111.78 634.956 112.058 634.424 112.292C633.901 112.519 633.256 112.632 632.491 112.632ZM632.795 110.827C633.592 110.827 634.264 110.671 634.811 110.359C635.358 110.046 635.772 109.644 636.053 109.151C636.334 108.651 636.475 108.132 636.475 107.593V105.741C636.389 105.843 636.202 105.937 635.913 106.023C635.631 106.101 635.303 106.171 634.928 106.234C634.561 106.296 634.202 106.351 633.85 106.398C633.498 106.437 633.217 106.468 633.006 106.491C632.483 106.562 631.995 106.675 631.541 106.831C631.088 106.98 630.721 107.202 630.44 107.499C630.166 107.796 630.03 108.202 630.03 108.718C630.03 109.413 630.288 109.941 630.803 110.3C631.327 110.651 631.991 110.827 632.795 110.827ZM640.675 112.327V99.2257H642.668V112.327H640.675ZM641.683 97.046C641.293 97.046 640.957 96.9132 640.675 96.6476C640.394 96.382 640.254 96.0616 640.254 95.6866C640.254 95.3116 640.394 94.9913 640.675 94.7257C640.957 94.4601 641.293 94.3273 641.683 94.3273C642.074 94.3273 642.41 94.4601 642.691 94.7257C642.972 94.9913 643.113 95.3116 643.113 95.6866C643.113 96.0616 642.972 96.382 642.691 96.6476C642.41 96.9132 642.074 97.046 641.683 97.046Z" fill="#F3F3F3"/>
</svg>
