<svg width="400" height="400" viewBox="0 0 400 400" fill="none" xmlns="http://www.w3.org/2000/svg">
<g clip-path="url(#clip0_605_25)">
<path d="M-0.00078125 31.6C-0.00078125 20.775 -0.000781178 15.3656 2.03984 11.2C3.99297 7.2125 7.21484 3.99062 11.2023 2.0375C15.3648 0 20.7742 0 31.5992 0H368.399C379.221 0 384.637 0 388.799 2.04063C392.784 3.99375 396.005 7.21562 397.962 11.2031C399.999 15.3656 399.999 20.7781 399.999 31.6031V368.403C399.999 379.225 399.999 384.641 397.962 388.803C396.005 392.788 392.784 396.009 388.799 397.966C384.637 400.003 379.221 400.003 368.399 400.003H31.5992C20.7742 400.003 15.3648 400.003 11.1992 397.966C7.21172 396.009 3.98984 392.788 2.03672 388.803C-0.00390625 384.641 -0.00390625 379.225 -0.00390625 368.403V31.6H-0.00078125Z" fill="#0000FF"/>
</g>
<defs>
<clipPath id="clip0_605_25">
<rect width="400" height="400" fill="white"/>
</clipPath>
</defs>
</svg>
