<svg width="340" height="400" viewBox="0 0 340 400" fill="none" xmlns="http://www.w3.org/2000/svg">
<g clip-path="url(#clip0_605_21)">
<path d="M176.032 116.396C194.496 116.396 205.199 124.812 205.199 139.094C205.199 153.376 195.031 161.792 177.905 161.792H147.133V116.396H176.032Z" fill="#1647DB"/>
<path d="M178.173 189.336C198.777 189.336 209.213 197.752 209.213 214.585C209.213 229.887 196.637 239.323 176.3 239.323H147.133V189.336H178.173Z" fill="#1647DB"/>
<path fill-rule="evenodd" clip-rule="evenodd" d="M339.631 227.23C339.631 319.592 169.925 400 169.925 400C169.925 400 0.217446 319.592 0.217446 227.23C0.217446 203.245 0.227224 182.072 0.236573 161.829C0.255159 121.582 0.272048 85.0106 0.207031 37.3278C107.968 -11.9313 231.896 -11.8802 339.631 37.4353V227.23ZM156.677 66.3912H134.779V88.0866H112.882V268.908H134.779V290.608H156.677V268.908H178.575V290.608H200.472V266.822C228.295 260.962 244.268 243.016 244.268 216.37C244.268 197.752 232.226 180.92 211.622 175.564C229.818 170.208 240.254 154.651 240.254 137.309C240.254 112.632 225.322 95.3294 200.472 89.8988V66.3912H178.575V88.0866H156.677V66.3912Z" fill="#1647DB"/>
</g>
<defs>
<clipPath id="clip0_605_21">
<rect width="340" height="400" fill="white"/>
</clipPath>
</defs>
</svg>
