<svg width="341" height="400" viewBox="0 0 341 400" fill="none" xmlns="http://www.w3.org/2000/svg">
<path d="M339.544 107.893C335.123 85.6177 305.596 96.827 293.597 105.402C286.287 110.63 288.066 112.743 277.507 112.815C277.326 112.815 276.564 112.876 275.527 112.963C273.974 113.096 273.223 111.045 274.456 110.057C274.471 110.047 274.486 110.032 274.5 110.021C289.721 97.8399 303.281 82.5224 310.45 62.0528C315.883 46.546 320.477 28.6703 314.301 11.5364C312.096 5.4125 306.901 -0.471044 301.453 4.06177C297.361 7.46907 296.447 15.9209 295.233 21.3133C295.17 21.6049 295.096 21.912 294.909 22.1115C294.757 22.2751 294.506 22.3315 294.324 22.2189C294.28 22.1932 294.241 22.1574 294.207 22.1115C294.129 22.004 294.094 21.8608 294.064 21.7225C292.094 12.6058 284.896 4.24596 277.581 0.715931C273.803 -1.11053 267.509 0.567538 267.051 5.63754C266.457 12.2425 271.42 19.3896 274.81 24.4341C276.52 26.9769 279.036 30.2409 280.081 33.6124C280.509 34.9938 279.123 36.2216 277.886 35.5617C275.523 34.3032 273.14 32.2873 270.766 31.4943C267.184 30.292 264.35 31.4689 263.589 35.8072C263.289 37.5006 263.47 39.2964 264.026 40.9694C265.259 44.6735 267.323 47.6766 269.809 50.3063C275.237 56.0516 281.251 61.7867 278.569 70.8628C276.544 77.7082 270.089 82.8754 263.706 79.8365C260.611 78.363 257.909 75.5849 255.669 72.679C252.186 68.1616 246.721 61.8686 241.519 66.0025C236.449 70.0289 239.234 79.0486 240.63 84.9269C242.29 91.9155 243.847 101.81 239.641 107.53C236.306 112.058 228.357 113.495 223.626 110.569C215.921 105.806 212.35 95.7373 206.543 89.3523C203.109 85.5767 198.49 84.4358 195.571 88.851C192.457 93.5578 193.857 98.9962 194.57 104.557C195.017 108.052 194.526 111.572 193.444 114.733C189.966 124.925 173.404 121.947 170.756 111.208C169.307 105.335 170.687 99.2776 169.414 93.4094C168.103 87.352 162.811 79.8876 157.594 85.3209C154.98 88.0426 154.877 91.4807 154.361 94.9391C154.12 96.566 151.963 96.8117 151.374 95.282C149.036 89.2347 148.17 81.5247 146.436 75.7129C144.274 68.4838 137.941 61.7459 132.704 69.1949C130.773 71.9423 130.124 75.6821 129.874 79.3351C129.619 83.0596 129.727 86.912 130.557 90.6263C130.719 91.3476 131.594 94.8061 132.444 97.4716C132.881 98.8377 131.506 100.086 130.277 99.4311C127.536 97.9679 125.034 95.6912 122.19 94.5095C112.836 90.6263 110.035 100.71 113.607 109.213C118.663 121.241 128.214 129.55 138.344 135.024C155.697 144.408 174.17 147.532 192.294 146.197C200.466 145.594 208.561 144.084 216.457 141.829C222.087 140.222 227.521 138.253 232.793 135.97C234.124 135.398 235.421 136.86 234.773 138.201C233.963 139.869 233.117 141.665 232.223 143.603C230.287 147.813 217.829 156.052 217.519 156.129C214.443 156.89 211.206 155.954 208.331 154.583C201.31 151.232 195.301 147.655 187.249 148.116C175.143 148.812 168.181 157.094 159.701 164.877C157.043 167.317 153.761 172.228 150.317 173.195C146.486 174.274 139.651 172.074 135.607 171.824C125.836 171.21 115.69 171.138 106.203 173.983C95.8805 177.078 65.8322 195.134 58.8508 203.477C50.2479 213.766 53.5938 222.428 65.8715 221.952C66.8689 221.911 67.6402 222.853 67.4535 223.876L62.6191 250.147C62.6044 250.233 62.5945 250.315 62.5897 250.402C62.3145 258.46 62.6338 266.426 63.7147 274.35C63.8129 275.056 63.4641 275.757 62.8352 276.05C59.3028 277.671 48.5185 277.784 47.0102 284.757C46.2045 288.487 48.1698 338.036 47.5949 338.02C35.0568 337.652 11.5772 342.119 5.40638 355.261C1.8788 362.773 7.2488 366.487 12.7809 369.029C14.0878 369.628 13.9994 371.576 12.6482 372.047C6.11395 374.35 -2.50362 378.991 0.684947 386.241C3.97666 393.719 14.6627 395.049 21.4918 395.966C31.8388 397.347 42.2937 398.13 52.7144 398.575C81.5835 399.808 110.507 398.733 139.391 399.521C180.744 400.652 222.647 400.923 262.257 386.793C270.349 383.907 286.39 379.993 287.254 368.968C287.83 361.622 274.883 359.161 269.789 358.496C268.403 358.311 263.869 358.429 260.674 357.866C259.27 357.62 258.911 355.727 260.096 354.904C264.89 351.568 268.737 344.856 262.934 340.486C254.647 334.24 234.473 336.619 224.5 337.222C221.464 337.407 220.379 285.672 220.997 277.169C221.031 276.663 221.297 276.213 221.704 275.932C225.149 273.543 228.927 272.933 232.307 270.145C237.701 265.693 241.539 258.916 245.081 252.889C247.001 249.614 249.1 246.264 250.661 242.789C252.146 239.49 252.671 235.356 254.99 232.521C257.727 229.181 260.817 229.012 263.234 224.822C265.49 220.918 267.436 216.83 269.229 212.681C271.809 206.711 273.271 190.984 279.403 187.827C281.826 186.578 285.619 187.954 288.439 186.871C291.019 185.877 293.14 184.062 294.953 181.948C302.913 172.662 304.46 158.799 307.447 147.184C307.54 146.816 307.761 146.495 308.057 146.274C310.799 144.223 314.419 144.718 317.534 143.568C331.693 138.328 342.87 124.561 339.559 107.898L339.544 107.893ZM203.629 339.499C199.33 339.52 195.13 340.625 190.929 341.566C190.143 341.739 189.317 341.3 189.077 340.497C188.03 336.987 182.331 335.949 179.143 335.647C163.838 334.199 148.986 339.53 133.849 339.499C133.441 339.499 130.557 328.889 130.213 327.794C128.066 320.968 127.373 313.79 126.621 306.689C125.777 298.709 125.227 290.65 125.831 282.628C126.347 275.798 118.83 280.593 116.171 282.644C110.561 286.977 103.481 293.117 99.8602 299.41C96.7404 304.842 102.685 314.251 105.024 319.142C105.481 320.094 108.384 324.908 109.849 328.356C110.414 329.682 109.161 331.041 107.859 330.525C97.1825 326.269 80.1292 327.379 76.3609 339.71C76.1251 340.486 75.3439 340.937 74.5727 340.774L68.5934 339.489C67.7385 339.304 67.1932 338.425 67.3897 337.539C69.3254 328.664 73.5851 319.368 78.1984 311.765C83.1164 303.661 89.6459 296.452 96.0132 289.587C100.946 284.27 105.889 278.679 111.588 274.237C115.563 271.142 119.586 267.669 124.446 266.221C128.646 264.968 132.94 266.012 137.131 266.707C149.064 268.692 161.951 266.687 173.241 271.966C179.54 274.914 182.94 281.672 186.173 287.647C190.491 295.619 192.359 304.633 195.714 313.029C198.947 321.102 202.613 329.031 205.089 337.407C205.393 338.445 204.661 339.504 203.62 339.509L203.629 339.499ZM281.944 134.64C280.303 138.385 274.039 143.353 269.833 140.498C266.109 137.965 270.629 134.272 272.697 132.763C274.417 131.504 276.436 130.117 278.613 129.841C280.289 129.631 281.6 130.547 282.086 131.882C282.381 132.696 282.371 133.668 281.949 134.64H281.944Z" fill="#306961"/>
<path d="M244.567 289.157C241.649 294.55 237.885 299.434 234.353 304.393C232.466 307.042 230.589 309.708 228.835 312.455C227.189 315.034 224.91 317.608 225.263 320.938C225.666 324.728 225.996 328.863 226.925 332.561C227.15 333.467 233.572 327.907 233.979 327.482C239.516 321.659 245.152 315.939 250.629 310.051C251.755 308.843 252.875 307.63 253.985 306.408C259.302 300.58 264.509 294.641 269.899 288.89C274.252 284.246 279.415 278.884 279.882 272.023C280.157 268.001 277.632 263.459 275.902 260.031C273.942 256.147 271.087 252.889 268.253 249.686C266.277 247.45 264.43 244.825 262.259 242.671C261.625 242.042 259.542 239.73 258.742 240.262C258.063 240.717 258.176 242.493 258.005 243.235C256.107 251.426 250.542 258.133 245.653 264.589C244.606 265.971 243.525 267.326 242.41 268.646C241.413 269.833 239.727 270.774 241.192 271.936C242.817 273.226 245.609 273.696 247.525 274.357C248.139 274.566 251.312 275.246 251.445 276.1C251.499 276.453 251.366 276.801 251.233 277.128C249.485 281.369 246.749 285.135 244.572 289.147L244.567 289.157Z" fill="#306961"/>
</svg>
