<svg width="350" height="400" viewBox="0 0 350 400" fill="none" xmlns="http://www.w3.org/2000/svg">
<path d="M170.424 4.85435L60.3578 185.848C59.4946 187.268 57.4892 187.425 56.4184 186.156C46.7286 174.656 10.6292 125.74 55.2986 81.1555C96.0595 40.4721 147.978 11.4655 167.219 1.44021C169.402 0.302794 171.702 2.7534 170.424 4.85435Z" fill="#0080BC"/>
<path d="M164.337 398.935C166.534 400.473 169.24 397.851 167.768 395.614C143.184 358.244 61.4604 233.906 50.1713 215.241C39.0365 196.831 17.1359 166.235 15.309 140.059C15.1266 137.446 11.5109 136.915 10.6014 139.373C9.13448 143.336 7.57277 148.067 6.11727 153.47C-12.2572 221.685 14.4281 294.071 72.3831 334.611L164.337 398.937V398.935Z" fill="#0080BC"/>
<path d="M179.454 395.716L289.521 214.724C290.384 213.304 292.39 213.146 293.461 214.416C303.15 225.913 339.25 274.831 294.58 319.416C253.819 360.099 201.901 389.107 182.66 399.131C180.477 400.268 178.177 397.818 179.454 395.716Z" fill="#0080BC"/>
<path d="M185.663 1.61174C183.466 0.0751718 180.759 2.69561 182.232 4.9334C206.817 42.3032 288.54 166.641 299.829 185.306C310.965 203.716 332.864 234.312 334.692 260.488C334.874 263.101 338.49 263.631 339.4 261.174C340.865 257.21 342.428 252.481 343.884 247.077C362.257 178.862 335.572 106.477 277.618 65.936L185.663 1.61174Z" fill="#0080BC"/>
</svg>
