<svg width="247" height="400" viewBox="0 0 247 400" fill="none" xmlns="http://www.w3.org/2000/svg">
<g clip-path="url(#clip0_605_103)">
<path d="M122.876 0V147.896L0 203.739L122.876 0Z" fill="#62D0FC"/>
<path d="M245.705 203.739L122.877 147.896V0L245.705 203.739Z" fill="#1EABE4"/>
<path d="M122.876 276.286V147.895L0 203.739L122.876 276.286Z" fill="#1EABE4"/>
<path d="M245.705 203.739L122.877 147.895V276.286L245.705 203.739Z" fill="#0075A5"/>
<path d="M198.735 231.479H46.9961L122.9 276.351L198.735 231.479Z" fill="#E91F25"/>
<path d="M245.802 227.006L122.877 299.554V400L245.802 227.006Z" fill="#1EABE4"/>
<path d="M0 227.006L122.876 299.554V400L0 227.006Z" fill="#62D0FC"/>
<path d="M198.692 136.071H47.1016V220.119H198.692V136.071Z" fill="#E91F25"/>
<path d="M198.679 136.071H122.908V220.119H198.679V136.071Z" fill="#BF0613"/>
<path d="M56.4199 145.108H116.767C117.775 145.108 118.589 145.925 118.589 146.929V183.911H56.4199C55.4116 183.911 54.5977 183.094 54.5977 182.09V146.933C54.5977 145.925 55.4157 145.111 56.4199 145.111V145.108Z" fill="black"/>
<path d="M129.217 145.108H189.564C190.572 145.108 191.387 145.925 191.387 146.928V182.085C191.387 183.092 190.568 183.906 189.564 183.906H127.395V146.924C127.395 145.916 128.213 145.104 129.217 145.104V145.108Z" fill="black"/>
<path d="M56.4788 188.167H118.587V203.642C118.587 204.682 117.741 205.528 116.7 205.528H56.4788C55.4381 205.528 54.5918 204.682 54.5918 203.642V190.049C54.5918 189.009 55.4381 188.163 56.4788 188.163V188.167Z" fill="black"/>
<path d="M127.391 188.167H189.495C190.535 188.167 191.383 189.014 191.383 190.053V203.638C191.383 204.677 190.535 205.524 189.495 205.524H129.278C128.237 205.524 127.391 204.677 127.391 203.638V188.163V188.167Z" fill="black"/>
<path fill-rule="evenodd" clip-rule="evenodd" d="M47.0561 136.31L198.707 136.27C198.318 128.905 199.391 122.346 193.026 117.943C187.527 114.143 180.893 112.8 173.046 111.517C146.767 107.223 99.6364 107.219 73.3077 111.501C66.3105 112.638 57.9042 114.317 53.211 117.821C48.5462 121.306 46.643 127.391 47.052 136.306L47.0561 136.31Z" fill="white"/>
<path fill-rule="evenodd" clip-rule="evenodd" d="M122.889 136.29L198.704 136.27C198.315 128.905 199.388 122.345 193.023 117.943C187.525 114.143 180.891 112.799 173.044 111.517C159.904 109.368 141.233 108.296 122.873 108.292L122.885 136.286L122.889 136.29Z" fill="#E3E6E8"/>
<path d="M130.452 117.234H83.6784C82.7816 117.234 82.0547 117.961 82.0547 118.857V128.104C82.0547 129 82.7816 129.727 83.6784 129.727H130.452C131.349 129.727 132.076 129 132.076 128.104V118.857C132.076 117.961 131.349 117.234 130.452 117.234Z" fill="#020100"/>
<path d="M164.273 115.438H151.829C150.932 115.438 150.205 116.164 150.205 117.06V129.896C150.205 130.792 150.932 131.519 151.829 131.519H164.273C165.169 131.519 165.895 130.792 165.895 129.896V117.06C165.895 116.164 165.169 115.438 164.273 115.438Z" fill="#020100"/>
<path fill-rule="evenodd" clip-rule="evenodd" d="M198.708 231.39L181.75 232.134C163.063 232.956 145.849 235.671 135.276 250.849L122.873 268.651L110.478 250.834C99.8728 235.59 82.5782 232.854 63.8137 232.081L47.0859 231.39V219.8H198.708V231.39Z" fill="#FBCE01"/>
<path fill-rule="evenodd" clip-rule="evenodd" d="M122.905 219.8H198.713V231.39L181.754 232.134C163.067 232.956 145.853 235.671 135.28 250.849L122.877 268.651L122.905 219.8Z" fill="#F9BE03"/>
<path d="M136.308 229.944H109.494C108.822 229.944 108.279 229.402 108.279 228.73C108.279 228.058 108.822 227.516 109.494 227.516H136.308C136.981 227.516 137.524 228.058 137.524 228.73C137.524 229.402 136.981 229.944 136.308 229.944Z" fill="black"/>
<path d="M136.308 236.29H109.494C108.822 236.29 108.279 235.748 108.279 235.076C108.279 234.404 108.822 233.862 109.494 233.862H136.308C136.981 233.862 137.524 234.404 137.524 235.076C137.524 235.748 136.981 236.29 136.308 236.29Z" fill="black"/>
<path d="M136.308 242.635H109.494C108.822 242.635 108.279 242.092 108.279 241.421C108.279 240.749 108.822 240.208 109.494 240.208H136.308C136.981 240.208 137.524 240.749 137.524 241.421C137.524 242.092 136.981 242.635 136.308 242.635Z" fill="black"/>
<path d="M198.692 214.961H47.1016V221.767H198.692V214.961Z" fill="#029D3D"/>
<path d="M198.716 214.961H122.896V221.767H198.716V214.961Z" fill="#07702C"/>
<path d="M90.1692 250.923C93.2106 250.923 95.6763 248.458 95.6763 245.419C95.6763 242.38 93.2106 239.915 90.1692 239.915C87.1277 239.915 84.6621 242.38 84.6621 245.419C84.6621 248.458 87.1277 250.923 90.1692 250.923Z" fill="white"/>
<path d="M155.629 250.923C158.67 250.923 161.135 248.458 161.135 245.419C161.135 242.38 158.67 239.915 155.629 239.915C152.586 239.915 150.121 242.38 150.121 245.419C150.121 248.458 152.586 250.923 155.629 250.923Z" fill="white"/>
<path d="M44.6388 167.26H35.7303C34.3281 167.26 33.1914 168.395 33.1914 169.796V185.149C33.1914 186.551 34.3281 187.686 35.7303 187.686H44.6388C46.041 187.686 47.1777 186.551 47.1777 185.149V169.796C47.1777 168.395 46.041 167.26 44.6388 167.26Z" fill="#020100"/>
<path d="M210.058 167.26H201.15C199.748 167.26 198.611 168.395 198.611 169.796V185.149C198.611 186.551 199.748 187.686 201.15 187.686H210.058C211.46 187.686 212.597 186.551 212.597 185.149V169.796C212.597 168.395 211.46 167.26 210.058 167.26Z" fill="#020100"/>
</g>
<defs>
<clipPath id="clip0_605_103">
<rect width="247" height="400" fill="white"/>
</clipPath>
</defs>
</svg>
