<svg width="355" height="400" viewBox="0 0 355 400" fill="none" xmlns="http://www.w3.org/2000/svg">
<path d="M350.591 4.29639H167.992V232.008H350.591V4.29639Z" fill="#FFDF0A"/>
<path d="M354.885 236.305H163.693V0H354.885V236.305ZM172.286 227.712H346.293V8.5929H172.286V227.712Z" fill="black"/>
<path d="M317.937 37.1631H135.338V264.875H317.937V37.1631Z" fill="#FFDF0A"/>
<path d="M322.235 269.171H131.043V32.8665H322.235V269.171ZM139.636 260.578H313.642V41.4594H139.636V260.578Z" fill="black"/>
<path d="M285.066 69.8164H102.467V297.528H285.066V69.8164Z" fill="#FFDF0A"/>
<path d="M289.366 301.827H98.1738V65.522H289.366V301.827ZM106.767 293.234H280.773V74.1149H106.767V293.234Z" fill="black"/>
<path d="M252.418 102.685H69.8184V330.397H252.418V102.685Z" fill="#FFDF0A"/>
<path d="M256.712 334.693H65.5195V98.3884H256.712V334.693ZM74.1124 326.1H248.119V106.981H74.1124V326.1Z" fill="black"/>
<path d="M219.546 135.338H36.9473V363.05H219.546V135.338Z" fill="#FFDF0A"/>
<path d="M223.844 367.347H32.6523V131.042H223.844V367.347ZM41.2452 358.754H215.251V139.635H41.2452V358.754Z" fill="black"/>
<path d="M186.894 167.991H4.29492V395.703H186.894V167.991Z" fill="#FFDF0A"/>
<path d="M191.192 400H0V163.695H191.192V400ZM8.5929 391.407H182.599V172.288H8.5929V391.407Z" fill="black"/>
<path d="M57.7859 256.713C64.3113 256.713 69.6012 251.423 69.6012 244.898C69.6012 238.373 64.3113 233.083 57.7859 233.083C51.2606 233.083 45.9707 238.373 45.9707 244.898C45.9707 251.423 51.2606 256.713 57.7859 256.713Z" fill="black"/>
<path d="M110.632 256.713C117.157 256.713 122.447 251.423 122.447 244.898C122.447 238.373 117.157 233.083 110.632 233.083C104.106 233.083 98.8164 238.373 98.8164 244.898C98.8164 251.423 104.106 256.713 110.632 256.713Z" fill="black"/>
<path d="M131.043 281.632C131.043 291.299 126.961 300.536 119.658 307.196C112.354 314.07 102.472 317.722 92.1602 317.722C81.8487 317.722 71.9669 313.855 64.6629 307.196C57.359 300.321 53.2773 291.084 53.2773 281.632H92.1602H131.043Z" fill="black"/>
</svg>
