<svg width="531" height="400" viewBox="0 0 531 400" fill="none" xmlns="http://www.w3.org/2000/svg">
<mask id="mask0_683_80" style="mask-type:luminance" maskUnits="userSpaceOnUse" x="0" y="0" width="531" height="400">
<path d="M530.667 0H0V400H530.667V0Z" fill="white"/>
</mask>
<g mask="url(#mask0_683_80)">
<path d="M530.663 209.371C530.663 243.976 516.316 275.479 493.297 293.24C493.928 290.803 494.464 288.333 494.999 285.8V285.737C495.252 284.502 495.472 283.235 495.693 281.969C495.914 280.671 496.135 279.373 496.323 278.075C496.513 276.777 496.702 275.447 496.86 274.117C497.017 273.041 497.144 271.995 497.239 270.888C497.396 269.558 497.522 268.228 497.616 266.835C497.775 265.189 497.869 263.51 497.964 261.801C498.058 259.87 498.153 258.065 498.216 256.324C498.279 254.614 498.31 252.968 498.31 251.416V248.757C498.373 242.931 498.437 233.782 497.932 222.352C497.869 221.275 497.838 220.168 497.775 219.028C497.711 217.888 497.648 216.748 497.585 215.576C497.459 213.55 497.333 211.461 497.144 209.34C497.08 208.548 497.017 207.757 496.954 206.934C496.797 205.097 496.639 203.198 496.45 201.266C496.04 197.087 495.567 192.781 494.968 188.381C494.59 185.626 494.179 182.84 493.739 179.99C493.076 175.653 492.287 171.252 491.373 166.756C491.058 165.269 490.742 163.749 490.428 162.228C490.08 160.614 489.734 158.968 489.355 157.352C489.04 156.086 488.724 154.788 488.41 153.49C488.031 151.812 487.589 150.134 487.117 148.456C486.706 146.904 486.296 145.354 485.855 143.802C485.319 141.808 484.72 139.781 484.057 137.755C483.743 136.646 483.395 135.539 483.017 134.43C482.513 132.847 482.008 131.296 481.472 129.713C480.936 128.161 480.369 126.578 479.801 124.995C478.728 121.956 477.562 118.917 476.301 115.877C476.269 115.783 476.238 115.687 476.174 115.593C508.275 128.478 530.663 166.123 530.663 209.371Z" fill="#D80012"/>
<path d="M58.5881 114.105C57.7997 115.814 57.0115 117.524 56.2546 119.234C54.7095 122.653 53.259 126.072 51.9662 129.493C51.3671 130.98 50.7994 132.469 50.2319 133.956C50.0426 134.399 49.885 134.875 49.7273 135.318C49.1913 136.773 48.6553 138.262 48.1507 139.718C47.5515 141.428 46.984 143.138 46.4163 144.847C44.7136 149.945 43.2001 154.979 41.8757 159.981C41.4027 161.627 40.9612 163.306 40.5512 164.952C40.1413 166.599 39.7314 168.245 39.353 169.859C38.9431 171.505 38.5647 173.121 38.2179 174.735C37.7133 176.888 37.2718 179.041 36.8619 181.162C36.7358 181.637 36.6412 182.112 36.5781 182.587C36.1367 184.708 35.7583 186.829 35.3798 188.919C34.8438 191.99 34.3393 195.03 33.8978 197.974C32.3212 208.327 31.3436 217.888 30.7446 226.31C30.5554 228.463 30.4292 230.553 30.3346 232.579C30.3031 232.801 30.3031 233.022 30.3031 233.243C30.24 234.162 30.2085 235.048 30.1769 235.904C30.1139 237.328 30.0508 238.69 30.0193 239.987C29.9562 242.109 29.8932 244.103 29.8932 245.94C29.8301 247.839 29.8301 249.581 29.8301 251.164C29.8301 252.747 29.8301 254.425 29.9246 256.198C29.9562 257.053 29.9877 257.971 30.0193 258.889C30.0193 259.839 30.1139 260.789 30.1455 261.802C30.2716 264.176 30.4607 266.519 30.6815 268.831C30.7446 269.527 30.8077 270.224 30.9022 270.92C31.0284 272.281 31.186 273.611 31.3752 274.909C31.7536 277.917 32.195 280.893 32.7627 283.774C32.9834 284.945 33.2041 286.085 33.4564 287.225C33.6771 288.365 33.9294 289.504 34.2132 290.613C13.0861 272.408 0 241.982 0 209.371C0 164.287 24.5956 125.281 58.5881 114.105Z" fill="#D80012"/>
<path d="M488.824 248.662V251.385C488.792 254.361 488.698 257.559 488.476 261.263C488.319 264.176 488.099 267.057 487.814 269.843C486.932 278.233 485.481 286.054 483.4 293.557C483.274 293.969 483.147 294.412 483.021 294.823C482.864 295.52 482.644 296.216 482.391 296.881C482.076 297.926 481.697 299.002 481.319 300.015C481.224 300.269 481.161 300.491 481.066 300.712C480.814 301.345 480.594 301.978 480.341 302.58C476.305 312.806 470.219 322.432 462.115 331.328C403.37 401.836 265.697 400.063 264.341 399.968H263.837C262.481 400.063 124.745 401.804 65.8731 331.17C57.5167 321.989 51.2102 311.793 47.1424 300.871C46.2281 298.464 45.4397 296.026 44.746 293.557C43.0117 287.32 41.7189 280.861 40.8043 274.023C40.2683 269.938 39.89 265.695 39.6377 261.295C39.4485 257.433 39.3539 254.234 39.3539 251.132C39.2908 236.03 40.4575 205.888 48.6561 171.601C49.4759 168.276 50.3273 164.889 51.2733 161.469C53.6383 152.889 56.4446 144.183 59.7871 135.444C61.143 131.93 62.562 128.416 64.0756 124.932C65.6208 121.418 67.229 117.967 68.9002 114.484C69.7831 112.743 70.6344 111.034 71.5489 109.292C109.483 36.7575 176.396 0 270.426 0C364.458 0 429.511 37.0116 463.345 109.988C469.305 122.779 473.846 135.888 477.377 148.71C489.296 192.37 488.95 232.927 488.824 248.662Z" fill="#D80012"/>
<path d="M40.8043 274.022C41.6872 280.861 42.98 287.32 44.7144 293.556H44.7459C43.0115 287.32 41.7187 280.861 40.8043 274.022ZM40.5835 221.972C40.6466 221.338 40.7096 220.737 40.7727 220.072C40.8358 219.249 40.9305 218.395 40.9934 217.571C40.8358 219.091 40.7096 220.547 40.5835 221.972ZM39.4168 243.564C39.5114 239.037 39.7322 233.718 40.1421 227.797C39.6691 234.129 39.4799 239.765 39.3853 244.514V245.306C39.3223 247.428 39.3223 249.391 39.3223 251.131C39.3223 254.234 39.4168 257.431 39.6375 261.295C39.4484 257.431 39.3537 254.234 39.3537 251.131C39.3537 249.706 39.3537 248.188 39.3853 246.509C39.3853 245.559 39.4168 244.577 39.4168 243.564ZM39.3853 244.514V246.509C39.3853 245.559 39.4168 244.577 39.4168 243.564C39.4168 243.882 39.4168 244.197 39.3853 244.514Z" fill="white"/>
<path d="M163.954 189.171C146.926 190.85 128.353 190.66 108.109 188.981H107.983C101.266 188.064 94.9917 192.527 93.5728 199.208C88.3695 223.871 83.1035 248.599 83.1666 272.439C83.1666 275.13 83.2611 277.79 83.4188 280.449C83.9233 289.124 85.1847 297.672 87.5811 306.031C90.9869 317.841 97.1357 327.909 105.208 336.488C152.413 391.419 259.75 390.882 265.142 390.596C270.534 390.882 377.873 391.419 425.077 336.488C433.118 327.909 439.299 317.841 442.704 306.031C445.1 297.672 446.361 289.093 446.866 280.418C447.024 277.822 447.118 275.226 447.118 272.629C447.214 248.756 441.948 223.967 436.713 199.239C435.294 192.591 429.051 188.127 422.303 189.014H422.176C401.932 190.691 383.359 190.881 366.332 189.204C348.957 186.639 327.609 175.621 308.973 163.939C282.075 147.126 248.146 147.126 221.249 163.939C202.612 175.59 181.265 186.607 163.891 189.171H163.954Z" fill="white"/>
<path d="M164.317 284.502C178.066 284.502 189.228 273.326 189.228 259.49C189.228 245.655 178.066 234.478 164.317 234.478C150.569 234.478 139.406 245.655 139.406 259.49C139.406 273.326 150.569 284.502 164.317 284.502Z" fill="#D80012"/>
<path d="M364.739 284.502C378.487 284.502 389.65 273.326 389.65 259.49C389.65 245.655 378.487 234.478 364.739 234.478C350.991 234.478 339.828 245.655 339.828 259.49C339.828 273.326 350.991 284.502 364.739 284.502Z" fill="#D80012"/>
<path d="M231.482 311.192L296.282 311.033C296.282 311.033 301.012 352.635 261.532 351.56C226.468 350.578 231.514 311.192 231.514 311.192H231.482Z" fill="#D80012"/>
<path d="M262.92 132.482C287.742 132.482 307.864 112.36 307.864 87.5386C307.864 62.7168 287.742 42.5947 262.92 42.5947C238.099 42.5947 217.977 62.7168 217.977 87.5386C217.977 112.36 238.099 132.482 262.92 132.482Z" fill="white"/>
<path d="M262.92 118.999C280.295 118.999 294.38 104.914 294.38 87.5383C294.38 70.1631 280.295 56.0776 262.92 56.0776C245.544 56.0776 231.459 70.1631 231.459 87.5383C231.459 104.914 245.544 118.999 262.92 118.999Z" fill="#D80012"/>
<path d="M262.923 105.516C272.852 105.516 280.9 97.4673 280.9 87.5386C280.9 77.6099 272.852 69.561 262.923 69.561C252.994 69.561 244.945 77.6099 244.945 87.5386C244.945 97.4673 252.994 105.516 262.923 105.516Z" fill="white"/>
</g>
</svg>
