<svg width="126" height="40" viewBox="0 0 126 40" fill="none" xmlns="http://www.w3.org/2000/svg">
<g clip-path="url(#clip0_211_4787)">
<path d="M106.098 0H19.8418C8.88346 0 0 8.92787 0 19.9408C0 30.9538 8.88346 39.8816 19.8418 39.8816H106.098C117.057 39.8816 125.94 30.9537 125.94 19.9408C125.94 8.92778 117.057 0 106.098 0Z" fill="#D02119"/>
<path d="M34.9793 24.7157C34.7576 24.7157 34.5647 24.6331 34.4007 24.4683C34.2463 24.3035 34.1692 24.1097 34.1692 23.8869V14.9301C34.1692 14.7072 34.2463 14.5133 34.4007 14.3485C34.5647 14.1837 34.7576 14.1013 34.9793 14.1013H40.101C40.3229 14.1013 40.511 14.1837 40.6652 14.3485C40.8292 14.5133 40.9113 14.7072 40.9113 14.9301V15.2645C40.9113 15.4875 40.8292 15.6813 40.6652 15.8461C40.511 16.0109 40.3229 16.0933 40.101 16.0933H36.7445C36.6674 16.0933 36.6287 16.1321 36.6287 16.2096V18.1289C36.6287 18.2162 36.6674 18.2598 36.7445 18.2598H39.8117C40.0334 18.2598 40.2215 18.3422 40.3759 18.507C40.5399 18.6718 40.6218 18.8656 40.6218 19.0886V19.3067C40.6218 19.5296 40.5399 19.7235 40.3759 19.8883C40.2215 20.0531 40.0334 20.1355 39.8117 20.1355H36.7445C36.6674 20.1355 36.6287 20.1743 36.6287 20.2518V22.6073C36.6287 22.6848 36.6674 22.7236 36.7445 22.7236H40.101C40.3229 22.7236 40.511 22.806 40.6652 22.9707C40.8292 23.1355 40.9113 23.3294 40.9113 23.5525V23.8869C40.9113 24.1097 40.8292 24.3035 40.6652 24.4683C40.511 24.6331 40.3229 24.7157 40.101 24.7157H34.9793ZM42.4217 16.1515C42.1998 16.1515 42.0069 16.0691 41.8429 15.9043C41.6789 15.7395 41.5971 15.5456 41.5971 15.3227V14.9301C41.5971 14.7072 41.6789 14.5133 41.8429 14.3485C42.0069 14.1837 42.1998 14.1013 42.4217 14.1013H48.8743C49.0963 14.1013 49.2892 14.1837 49.4532 14.3485C49.6172 14.5133 49.699 14.7072 49.699 14.9301V15.3227C49.699 15.5456 49.6172 15.7395 49.4532 15.9043C49.2892 16.0691 49.0963 16.1515 48.8743 16.1515H47.0226C46.9452 16.1515 46.9068 16.1903 46.9068 16.2678V23.8869C46.9068 24.1097 46.8247 24.3035 46.6607 24.4683C46.4967 24.6331 46.3039 24.7157 46.0821 24.7157H45.214C44.9922 24.7157 44.7991 24.6331 44.6354 24.4683C44.4714 24.3035 44.3893 24.1097 44.3893 23.8869V16.2678C44.3893 16.1903 44.3506 16.1515 44.2735 16.1515H42.4217ZM51.35 24.7157C51.1282 24.7157 50.9352 24.6331 50.7712 24.4683C50.6072 24.3035 50.5253 24.1097 50.5253 23.8869V14.9301C50.5253 14.7072 50.6072 14.5133 50.7712 14.3485C50.9352 14.1837 51.1282 14.1013 51.35 14.1013H52.1747C52.3964 14.1013 52.5845 14.1837 52.739 14.3485C52.9029 14.5133 52.9848 14.7072 52.9848 14.9301V18.1289C52.9848 18.2162 53.0283 18.2598 53.1151 18.2598H56.0955C56.1823 18.2598 56.2258 18.2162 56.2258 18.1289V14.9301C56.2258 14.7072 56.3029 14.5133 56.4571 14.3485C56.6211 14.1837 56.8139 14.1013 57.0359 14.1013H57.8606C58.0824 14.1013 58.2752 14.1837 58.4392 14.3485C58.6032 14.5133 58.6853 14.7072 58.6853 14.9301V23.8869C58.6853 24.1097 58.6032 24.3035 58.4392 24.4683C58.2752 24.6331 58.0824 24.7157 57.8606 24.7157H57.0359C56.8139 24.7157 56.6211 24.6331 56.4571 24.4683C56.3029 24.3035 56.2258 24.1097 56.2258 23.8869V20.2518C56.2258 20.1743 56.1823 20.1355 56.0955 20.1355H53.1151C53.0283 20.1355 52.9848 20.1743 52.9848 20.2518V23.8869C52.9848 24.1097 52.9029 24.3035 52.739 24.4683C52.5845 24.6331 52.3964 24.7157 52.1747 24.7157H51.35Z" fill="white"/>
<path d="M60.719 24.7157C60.4973 24.7157 60.3044 24.6331 60.1404 24.4683C59.9765 24.3035 59.8943 24.1097 59.8943 23.8869V14.9301C59.8943 14.7072 59.9765 14.5133 60.1404 14.3485C60.3044 14.1837 60.4973 14.1013 60.719 14.1013H61.5437C61.7946 14.1013 62.0211 14.1692 62.2238 14.3049C62.4264 14.4406 62.5758 14.6248 62.6723 14.8574L64.9148 20.339C64.9148 20.3487 64.9196 20.3536 64.9293 20.3536C64.9389 20.3536 64.9437 20.3487 64.9437 20.339L67.1862 14.8574C67.2826 14.6248 67.4323 14.4406 67.6347 14.3049C67.8373 14.1692 68.0641 14.1013 68.3147 14.1013H69.1974C69.4192 14.1013 69.612 14.1837 69.776 14.3485C69.94 14.5133 70.0219 14.7072 70.0219 14.9301V23.8869C70.0219 24.1097 69.94 24.3035 69.776 24.4683C69.612 24.6331 69.4192 24.7157 69.1974 24.7157H68.5028C68.2811 24.7157 68.0882 24.6331 67.9242 24.4683C67.7698 24.3035 67.6927 24.1097 67.6927 23.8869V18.2307C67.6927 18.221 67.6879 18.2162 67.6781 18.2162C67.6588 18.2162 67.6493 18.221 67.6493 18.2307L66.2603 21.5313C66.1639 21.764 66.0094 21.9482 65.7972 22.0839C65.5948 22.2196 65.3681 22.2874 65.1174 22.2874H64.7413C64.4904 22.2874 64.2589 22.2196 64.0467 22.0839C63.8442 21.9482 63.6946 21.764 63.5982 21.5313L62.2092 18.2307C62.2092 18.221 62.1996 18.2162 62.1803 18.2162C62.1708 18.2162 62.166 18.221 62.166 18.2307V23.8869C62.166 24.1097 62.0839 24.3035 61.9199 24.4683C61.7657 24.6331 61.5776 24.7157 61.3556 24.7157H60.719ZM79.1594 20.8625C79.1594 23.5282 77.8091 24.861 75.1083 24.861C72.4077 24.861 71.0574 23.5282 71.0574 20.8625V14.9301C71.0574 14.7072 71.1393 14.5133 71.3033 14.3485C71.4672 14.1837 71.6601 14.1013 71.8821 14.1013H72.7211C72.9431 14.1013 73.1359 14.1837 73.2999 14.3485C73.4639 14.5133 73.5458 14.7072 73.5458 14.9301V21.037C73.5458 21.6961 73.6713 22.1663 73.922 22.4474C74.1728 22.7285 74.5779 22.869 75.1374 22.869C75.6967 22.869 76.102 22.7285 76.3526 22.4474C76.6035 22.1663 76.7288 21.6961 76.7288 21.037V14.9301C76.7288 14.7072 76.8109 14.5133 76.9749 14.3485C77.1386 14.1837 77.3317 14.1013 77.5535 14.1013H78.3347C78.5567 14.1013 78.7495 14.1837 78.9135 14.3485C79.0775 14.5133 79.1594 14.7072 79.1594 14.9301V20.8625ZM81.0314 24.7157C80.8094 24.7157 80.6166 24.6331 80.4526 24.4683C80.2886 24.3035 80.2067 24.1097 80.2067 23.8869V14.9301C80.2067 14.7072 80.2886 14.5133 80.4526 14.3485C80.6166 14.1837 80.8094 14.1013 81.0314 14.1013H81.8559C82.1067 14.1013 82.3335 14.1692 82.5359 14.3049C82.7386 14.4406 82.888 14.6248 82.9844 14.8574L85.2269 20.339C85.2269 20.3487 85.2319 20.3536 85.2415 20.3536C85.2511 20.3536 85.2561 20.3487 85.2561 20.339L87.4986 14.8574C87.595 14.6248 87.7444 14.4406 87.9471 14.3049C88.1495 14.1692 88.3763 14.1013 88.6269 14.1013H89.5096C89.7313 14.1013 89.9242 14.1837 90.0882 14.3485C90.2522 14.5133 90.3343 14.7072 90.3343 14.9301V23.8869C90.3343 24.1097 90.2522 24.3035 90.0882 24.4683C89.9242 24.6331 89.7313 24.7157 89.5096 24.7157H88.815C88.5932 24.7157 88.4004 24.6331 88.2364 24.4683C88.082 24.3035 88.0049 24.1097 88.0049 23.8869V18.2307C88.0049 18.221 88.0001 18.2162 87.9903 18.2162C87.9712 18.2162 87.9614 18.221 87.9614 18.2307L86.5725 21.5313C86.476 21.764 86.3218 21.9482 86.1096 22.0839C85.907 22.2196 85.6805 22.2874 85.4296 22.2874H85.0534C84.8025 22.2874 84.5712 22.2196 84.359 22.0839C84.1564 21.9482 84.007 21.764 83.9105 21.5313L82.5216 18.2307C82.5216 18.221 82.5118 18.2162 82.4925 18.2162C82.4829 18.2162 82.4781 18.221 82.4781 18.2307V23.8869C82.4781 24.1097 82.396 24.3035 82.2321 24.4683C82.0779 24.6331 81.8898 24.7157 81.668 24.7157H81.0314ZM93.9305 20.2082V22.7672C93.9305 22.8545 93.9737 22.9079 94.0606 22.9271C94.2632 22.9659 94.5091 22.9854 94.7984 22.9854C95.4832 22.9854 95.9849 22.8594 96.3031 22.6073C96.6215 22.3456 96.7805 21.9482 96.7805 21.415C96.7805 20.5232 96.0573 20.0773 94.6103 20.0773H94.046C93.9689 20.0773 93.9305 20.1209 93.9305 20.2082ZM93.9305 16.0497V18.1871C93.9305 18.2647 93.9689 18.3034 94.046 18.3034H94.4079C95.8159 18.3034 96.5201 17.8818 96.5201 17.0384C96.5201 16.2339 95.9317 15.8316 94.7552 15.8316C94.4754 15.8316 94.2391 15.851 94.046 15.8898C93.9689 15.9091 93.9305 15.9625 93.9305 16.0497ZM92.3246 24.7447C92.093 24.7253 91.9002 24.6235 91.7457 24.4393C91.5913 24.2551 91.5142 24.0469 91.5142 23.8142V15.0028C91.5142 14.7605 91.5913 14.5521 91.7457 14.3776C91.9097 14.1934 92.1074 14.0916 92.3389 14.0723C93.0913 13.9947 93.8291 13.9559 94.5525 13.9559C97.3496 13.9559 98.7483 14.8623 98.7483 16.6749C98.7483 17.2856 98.5504 17.8042 98.1551 18.2307C97.7692 18.6572 97.2483 18.9287 96.5924 19.045C96.5829 19.045 96.5781 19.0547 96.5781 19.0741C96.5781 19.0837 96.5876 19.0886 96.607 19.0886C97.3689 19.1952 97.9718 19.486 98.4156 19.961C98.8688 20.436 99.0954 21.003 99.0954 21.6622C99.0954 22.7382 98.7385 23.5426 98.0248 24.0759C97.3207 24.5993 96.2115 24.861 94.6972 24.861C93.9353 24.861 93.1442 24.8222 92.3246 24.7447ZM103.32 16.2533L102.264 20.4263C102.254 20.4554 102.259 20.4845 102.278 20.5135C102.307 20.5329 102.336 20.5426 102.365 20.5426H104.304C104.333 20.5426 104.357 20.5329 104.376 20.5135C104.405 20.4845 104.414 20.4554 104.405 20.4263L103.349 16.2533C103.349 16.2436 103.344 16.2387 103.334 16.2387C103.325 16.2387 103.32 16.2436 103.32 16.2533ZM99.4568 24.7157C99.2543 24.7157 99.0904 24.6331 98.9648 24.4683C98.8493 24.3035 98.8249 24.1243 98.8925 23.9305L101.815 14.8865C101.892 14.6539 102.027 14.4648 102.22 14.3194C102.423 14.174 102.645 14.1013 102.886 14.1013H103.841C104.091 14.1013 104.318 14.174 104.521 14.3194C104.723 14.4648 104.858 14.6539 104.926 14.8865L107.834 23.9305C107.901 24.1243 107.872 24.3035 107.747 24.4683C107.631 24.6331 107.472 24.7157 107.269 24.7157H106.3C106.059 24.7157 105.842 24.643 105.649 24.4976C105.456 24.3424 105.331 24.1486 105.273 23.9159L104.926 22.5346C104.916 22.4571 104.868 22.4183 104.781 22.4183H101.887C101.81 22.4183 101.762 22.4571 101.743 22.5346L101.395 23.9159C101.338 24.1486 101.212 24.3424 101.019 24.4976C100.826 24.643 100.609 24.7157 100.368 24.7157H99.4568ZM109.18 24.7157C108.958 24.7157 108.766 24.6331 108.602 24.4683C108.447 24.3035 108.37 24.1097 108.37 23.8869V14.9301C108.37 14.7072 108.447 14.5133 108.602 14.3485C108.766 14.1837 108.958 14.1013 109.18 14.1013H110.251C110.473 14.1013 110.661 14.1837 110.815 14.3485C110.979 14.5133 111.061 14.7072 111.061 14.9301V23.8869C111.061 24.1097 110.979 24.3035 110.815 24.4683C110.661 24.6331 110.473 24.7157 110.251 24.7157H109.18Z" fill="white"/>
<path d="M20.9287 3.60402V15.3429L11.2306 19.7754L20.9287 3.60402Z" fill="white"/>
<path d="M20.8465 3.90144V15.2893L11.438 19.5895L20.8465 3.90144ZM21.011 3.3067L11.0232 19.961L21.011 15.3958V3.3067Z" fill="#D02119"/>
<path d="M21.0933 15.3429V3.60402L30.7874 19.7754L21.0933 15.3429Z" fill="white"/>
<path d="M21.1756 3.90178L30.5802 19.5899L21.1756 15.2897V3.90178ZM21.011 3.3067V15.3962L30.9949 19.9613L21.011 3.3067Z" fill="#D02119"/>
<path d="M11.1654 19.9688L20.9452 15.4989V25.7758L11.1654 19.9688Z" fill="white"/>
<path d="M20.8794 15.6016V25.6594L11.308 19.9762L20.8794 15.6013M21.011 15.3962L11.0232 19.9613L21.011 25.8917V15.3962Z" fill="#D02119"/>
<path d="M21.0768 15.4989L30.8527 19.9688L21.0768 25.7758V15.4989Z" fill="white"/>
<path d="M21.1427 15.6016L30.7106 19.9766L21.1427 25.6597V15.6019M21.011 15.3962V25.8917L30.9949 19.9613L21.011 15.3962Z" fill="#D02119"/>
<path d="M21.0933 27.8402L30.7122 22.1315L21.0933 35.7445V27.8402Z" fill="white"/>
<path d="M30.4213 22.3998L21.1753 35.4853V27.8875L30.4213 22.4001M31.0028 21.8629L21.011 27.7931V36.0039L31.0028 21.8629Z" fill="#D02119"/>
<path d="M11.3139 22.1315L20.9288 27.8402V35.7445L11.3139 22.1315Z" fill="white"/>
<path d="M11.6045 22.4001L20.8465 27.8875V35.4853L11.6045 22.4001ZM11.0232 21.8629L21.011 36.0039V27.7931L11.0232 21.8629Z" fill="#D02119"/>
<path d="M27.1739 14.6281H14.8521V21.3H27.1739V14.6281Z" fill="#D02119"/>
<path d="M15.6091 15.1681H20.5143C20.5962 15.1681 20.6624 15.2349 20.6624 15.3169V20.2899H15.6091C15.5271 20.2899 15.461 20.2231 15.461 20.1411V15.3169C15.461 15.2346 15.5275 15.1681 15.6091 15.1681Z" fill="white"/>
<path d="M21.5265 15.1681H26.4316C26.5137 15.1681 26.5799 15.2349 26.5799 15.3169V20.1411C26.5799 20.2235 26.5132 20.2899 26.4316 20.2899H21.3783V15.3169C21.3783 15.2346 21.4448 15.1681 21.5265 15.1681Z" fill="white"/>
<path fill-rule="evenodd" clip-rule="evenodd" d="M14.8482 14.1843L27.1748 14.181C27.1432 13.579 27.2306 13.3074 26.7131 12.9475C26.266 12.6369 25.727 12.5271 25.089 12.4222C22.9529 12.0712 19.1221 12.0709 16.982 12.4209C16.4133 12.5139 15.73 12.6511 15.3485 12.9376C14.9693 13.2224 14.8146 13.4552 14.8478 14.184L14.8482 14.1843Z" fill="#D02119"/>
<path d="M20.7224 12.9377H17.8306C17.7577 12.9377 17.6986 12.9971 17.6986 13.0704V13.5976C17.6986 13.6709 17.7577 13.7303 17.8306 13.7303H20.7224C20.7953 13.7303 20.8544 13.6709 20.8544 13.5976V13.0704C20.8544 12.9971 20.7953 12.9377 20.7224 12.9377Z" fill="white"/>
<path d="M23.6132 12.7578H22.8872C22.8142 12.7578 22.7551 12.8172 22.7551 12.8904V13.6453C22.7551 13.7186 22.8142 13.7779 22.8872 13.7779H23.6132C23.6862 13.7779 23.7451 13.7186 23.7451 13.6453V12.8904C23.7451 12.8172 23.6862 12.7578 23.6132 12.7578Z" fill="white"/>
<path fill-rule="evenodd" clip-rule="evenodd" d="M27.1753 22.221L25.7968 22.2819C24.2777 22.349 22.8785 22.571 22.0192 23.8117L21.011 25.267L20.0035 23.8105C19.1415 22.5644 17.7357 22.3408 16.2105 22.2776L14.8508 22.221L13.3914 21.2737H28.6702L27.1753 22.221Z" fill="#D02119"/>
<path fill-rule="evenodd" clip-rule="evenodd" d="M29.2252 20.8496H12.845L13.919 21.5485H28.0498L29.2252 20.8496Z" fill="white"/>
<path d="M14.8166 16.979H14.0925C13.9785 16.979 13.8861 17.0719 13.8861 17.1864V18.4414C13.8861 18.556 13.9785 18.6488 14.0925 18.6488H14.8166C14.9305 18.6488 15.0229 18.556 15.0229 18.4414V17.1864C15.0229 17.0719 14.9305 16.979 14.8166 16.979Z" fill="#D02119"/>
<path d="M27.9329 16.979H27.2087C27.0948 16.979 27.0024 17.0719 27.0024 17.1864V18.4414C27.0024 18.556 27.0948 18.6488 27.2087 18.6488H27.9329C28.0468 18.6488 28.1392 18.556 28.1392 18.4414V17.1864C28.1392 17.0719 28.0468 16.979 27.9329 16.979Z" fill="#D02119"/>
<path d="M27.2251 14.1828H14.8136V14.6271H27.2251V14.1828Z" fill="white"/>
<path fill-rule="evenodd" clip-rule="evenodd" d="M27.4066 14.1835H14.6191L14.8495 13.7964H27.1762L27.4066 14.1835Z" fill="#D02119"/>
</g>
<defs>
<clipPath id="clip0_211_4787">
<rect width="126" height="40" fill="white"/>
</clipPath>
</defs>
</svg>
