<svg width="419" height="595" viewBox="0 0 419 595" fill="none" xmlns="http://www.w3.org/2000/svg">
<path d="M147.211 21.5097C147.33 15.6042 141.41 7.95015 138.435 4.8613L0.5 4.8613V0.5H140.738C142.733 0.5 152.175 11.9903 152.269 21.5097L154.5 342.5H149.443C148.798 274.126 147.449 38.4722 147.211 21.5097Z" fill="#D8B246" stroke="black"/>
<path d="M154.5 321.5H1.5V327.5L154.5 327.5V321.5Z" fill="#D9B346" stroke="black"/>
<path d="M64.6394 149.479H152.925V144.343H62.3986C47.6993 144.343 48.0578 156.429 48.8047 165.04L52.9874 192.989C54.4315 205.076 58.0366 234.566 60.9048 255.837C63.7699 269.891 67.2 299.2 58 304H1.5V307.959H62.8468C71 302.5 71.0131 279.657 69.569 268.83C65.5357 239.622 56.9909 177.549 55.0788 162.925C53.4057 151.806 60.7554 149.328 64.6394 149.479Z" fill="#D9B346" stroke="black"/>
<path d="M152.925 191.63L140.377 192.687C139.032 192.838 138.883 193.291 138.883 193.896V194.953C138.883 196.162 139.63 196.241 140.377 196.313C143.514 196.615 150.146 197.219 151.58 197.219C153.015 197.219 154.12 197.219 154.12 196.615V192.385C154.12 191.327 152.925 191.176 152.925 191.63Z" fill="#D8B243" stroke="black"/>
<mask id="path-5-inside-1_2131_1811" fill="white">
<ellipse cx="141.722" cy="194.349" rx="0.746919" ry="0.755382"/>
</mask>
<ellipse cx="141.722" cy="194.349" rx="0.746919" ry="0.755382" fill="#D8B243"/>
<path d="M142.468 194.349H141.468C141.468 194.225 141.571 194.105 141.722 194.105V195.105V196.105C142.697 196.105 143.468 195.308 143.468 194.349H142.468ZM141.722 195.105V194.105C141.872 194.105 141.975 194.225 141.975 194.349H140.975H139.975C139.975 195.308 140.746 196.105 141.722 196.105V195.105ZM140.975 194.349H141.975C141.975 194.474 141.872 194.594 141.722 194.594V193.594V192.594C140.746 192.594 139.975 193.39 139.975 194.349H140.975ZM141.722 193.594V194.594C141.571 194.594 141.468 194.474 141.468 194.349H142.468H143.468C143.468 193.39 142.697 192.594 141.722 192.594V193.594Z" fill="black" mask="url(#path-5-inside-1_2131_1811)"/>
<mask id="path-7-inside-2_2131_1811" fill="white">
<ellipse cx="145.007" cy="194.349" rx="0.746919" ry="0.755382"/>
</mask>
<ellipse cx="145.007" cy="194.349" rx="0.746919" ry="0.755382" fill="#D8B243"/>
<path d="M145.754 194.349H144.754C144.754 194.225 144.856 194.105 145.007 194.105V195.105V196.105C145.982 196.105 146.754 195.308 146.754 194.349H145.754ZM145.007 195.105V194.105C145.157 194.105 145.26 194.225 145.26 194.349H144.26H143.26C143.26 195.308 144.031 196.105 145.007 196.105V195.105ZM144.26 194.349H145.26C145.26 194.474 145.157 194.594 145.007 194.594V193.594V192.594C144.031 192.594 143.26 193.39 143.26 194.349H144.26ZM145.007 193.594V194.594C144.856 194.594 144.754 194.474 144.754 194.349H145.754H146.754C146.754 193.39 145.982 192.594 145.007 192.594V193.594Z" fill="black" mask="url(#path-7-inside-2_2131_1811)"/>
<path d="M150.087 193.791C150.383 193.791 150.633 194.035 150.633 194.349C150.633 194.662 150.383 194.906 150.087 194.906C149.791 194.906 149.541 194.662 149.541 194.349C149.541 194.035 149.791 193.791 150.087 193.791Z" fill="#D8B243" stroke="black"/>
<path d="M152.925 234.323L140.377 235.38C139.032 235.532 138.883 235.985 138.883 236.589V237.647C138.883 238.855 139.63 238.934 140.377 239.006C143.514 239.308 150.146 239.913 151.58 239.913C153.015 239.913 154.12 239.913 154.12 239.308V235.078C154.12 234.021 152.925 233.87 152.925 234.323Z" fill="#D8B243" stroke="black"/>
<mask id="path-11-inside-3_2131_1811" fill="white">
<ellipse cx="141.722" cy="237.042" rx="0.746919" ry="0.755382"/>
</mask>
<ellipse cx="141.722" cy="237.042" rx="0.746919" ry="0.755382" fill="#D8B243"/>
<path d="M142.468 237.042H141.468C141.468 236.918 141.571 236.798 141.722 236.798V237.798V238.798C142.697 238.798 143.468 238.001 143.468 237.042H142.468ZM141.722 237.798V236.798C141.872 236.798 141.975 236.918 141.975 237.042H140.975H139.975C139.975 238.001 140.746 238.798 141.722 238.798V237.798ZM140.975 237.042H141.975C141.975 237.167 141.872 237.287 141.722 237.287V236.287V235.287C140.746 235.287 139.975 236.084 139.975 237.042H140.975ZM141.722 236.287V237.287C141.571 237.287 141.468 237.167 141.468 237.042H142.468H143.468C143.468 236.084 142.697 235.287 141.722 235.287V236.287Z" fill="black" mask="url(#path-11-inside-3_2131_1811)"/>
<mask id="path-13-inside-4_2131_1811" fill="white">
<ellipse cx="145.007" cy="237.042" rx="0.746919" ry="0.755382"/>
</mask>
<ellipse cx="145.007" cy="237.042" rx="0.746919" ry="0.755382" fill="#D8B243"/>
<path d="M145.754 237.042H144.754C144.754 236.918 144.856 236.798 145.007 236.798V237.798V238.798C145.982 238.798 146.754 238.001 146.754 237.042H145.754ZM145.007 237.798V236.798C145.157 236.798 145.26 236.918 145.26 237.042H144.26H143.26C143.26 238.001 144.031 238.798 145.007 238.798V237.798ZM144.26 237.042H145.26C145.26 237.167 145.157 237.287 145.007 237.287V236.287V235.287C144.031 235.287 143.26 236.084 143.26 237.042H144.26ZM145.007 236.287V237.287C144.856 237.287 144.754 237.167 144.754 237.042H145.754H146.754C146.754 236.084 145.982 235.287 145.007 235.287V236.287Z" fill="black" mask="url(#path-13-inside-4_2131_1811)"/>
<path d="M150.087 236.485C150.383 236.485 150.633 236.73 150.633 237.043C150.633 237.356 150.383 237.6 150.087 237.601C149.791 237.601 149.541 237.356 149.541 237.043C149.541 236.73 149.791 236.485 150.087 236.485Z" fill="#D8B243" stroke="black"/>
<path d="M152.925 274.509L140.377 275.567C139.032 275.718 138.883 276.171 138.883 276.776V277.833C138.883 279.042 139.63 279.121 140.377 279.193C143.514 279.495 150.146 280.099 151.58 280.099C153.015 280.099 154.12 280.099 154.12 279.495V275.265C154.12 274.207 152.925 274.056 152.925 274.509Z" fill="#D8B243" stroke="black"/>
<mask id="path-17-inside-5_2131_1811" fill="white">
<ellipse cx="141.722" cy="277.229" rx="0.746919" ry="0.755382"/>
</mask>
<ellipse cx="141.722" cy="277.229" rx="0.746919" ry="0.755382" fill="#D8B243"/>
<path d="M142.468 277.229H141.468C141.468 277.105 141.571 276.984 141.722 276.984V277.984V278.984C142.697 278.984 143.468 278.188 143.468 277.229H142.468ZM141.722 277.984V276.984C141.872 276.984 141.975 277.105 141.975 277.229H140.975H139.975C139.975 278.188 140.746 278.984 141.722 278.984V277.984ZM140.975 277.229H141.975C141.975 277.353 141.872 277.474 141.722 277.474V276.474V275.474C140.746 275.474 139.975 276.27 139.975 277.229H140.975ZM141.722 276.474V277.474C141.571 277.474 141.468 277.353 141.468 277.229H142.468H143.468C143.468 276.27 142.697 275.474 141.722 275.474V276.474Z" fill="black" mask="url(#path-17-inside-5_2131_1811)"/>
<mask id="path-19-inside-6_2131_1811" fill="white">
<ellipse cx="145.007" cy="277.229" rx="0.746919" ry="0.755382"/>
</mask>
<ellipse cx="145.007" cy="277.229" rx="0.746919" ry="0.755382" fill="#D8B243"/>
<path d="M145.754 277.229H144.754C144.754 277.105 144.856 276.984 145.007 276.984V277.984V278.984C145.982 278.984 146.754 278.188 146.754 277.229H145.754ZM145.007 277.984V276.984C145.157 276.984 145.26 277.105 145.26 277.229H144.26H143.26C143.26 278.188 144.031 278.984 145.007 278.984V277.984ZM144.26 277.229H145.26C145.26 277.353 145.157 277.474 145.007 277.474V276.474V275.474C144.031 275.474 143.26 276.27 143.26 277.229H144.26ZM145.007 276.474V277.474C144.856 277.474 144.754 277.353 144.754 277.229H145.754H146.754C146.754 276.27 145.982 275.474 145.007 275.474V276.474Z" fill="black" mask="url(#path-19-inside-6_2131_1811)"/>
<path d="M150.087 276.671C150.383 276.671 150.633 276.915 150.633 277.229C150.633 277.542 150.383 277.786 150.087 277.786C149.791 277.786 149.541 277.542 149.541 277.229C149.541 276.915 149.791 276.671 150.087 276.671Z" fill="#D8B243" stroke="black"/>
<path d="M155.464 147.364C155.464 144.947 153.572 142.933 152.626 142.228C152.327 143.436 149.04 143.738 147.397 143.285C145.366 142.56 142.567 143.889 141.422 144.645V149.177C141.422 150.99 146.053 152.199 147.397 151.594C149.907 150.507 151.929 151.544 152.626 152.199C153.572 151.594 155.464 149.781 155.464 147.364Z" fill="#D9B447" stroke="black"/>
<mask id="path-23-inside-7_2131_1811" fill="white">
<ellipse cx="142.616" cy="147.213" rx="0.746919" ry="0.755382"/>
</mask>
<ellipse cx="142.616" cy="147.213" rx="0.746919" ry="0.755382" fill="#D9B447"/>
<path d="M143.363 147.213H142.363C142.363 147.089 142.466 146.969 142.616 146.969V147.969V148.969C143.591 148.969 144.363 148.172 144.363 147.213H143.363ZM142.616 147.969V146.969C142.766 146.969 142.869 147.089 142.869 147.213H141.869H140.869C140.869 148.172 141.641 148.969 142.616 148.969V147.969ZM141.869 147.213H142.869C142.869 147.338 142.766 147.458 142.616 147.458V146.458V145.458C141.641 145.458 140.869 146.255 140.869 147.213H141.869ZM142.616 146.458V147.458C142.466 147.458 142.363 147.338 142.363 147.213H143.363H144.363C144.363 146.255 143.591 145.458 142.616 145.458V146.458Z" fill="black" mask="url(#path-23-inside-7_2131_1811)"/>
<mask id="path-25-inside-8_2131_1811" fill="white">
<ellipse cx="145.903" cy="150.537" rx="0.746919" ry="0.755382"/>
</mask>
<ellipse cx="145.903" cy="150.537" rx="0.746919" ry="0.755382" fill="#D9B447"/>
<path d="M146.65 150.537H145.65C145.65 150.412 145.753 150.292 145.903 150.292V151.292V152.292C146.879 152.292 147.65 151.495 147.65 150.537H146.65ZM145.903 151.292V150.292C146.054 150.292 146.156 150.412 146.156 150.537H145.156H144.156C144.156 151.495 144.928 152.292 145.903 152.292V151.292ZM145.156 150.537H146.156C146.156 150.661 146.054 150.781 145.903 150.781V149.781V148.781C144.928 148.781 144.156 149.578 144.156 150.537H145.156ZM145.903 149.781V150.781C145.753 150.781 145.65 150.661 145.65 150.537H146.65H147.65C147.65 149.578 146.879 148.781 145.903 148.781V149.781Z" fill="black" mask="url(#path-25-inside-8_2131_1811)"/>
<mask id="path-27-inside-9_2131_1811" fill="white">
<ellipse cx="145.903" cy="144.192" rx="0.746919" ry="0.755382"/>
</mask>
<ellipse cx="145.903" cy="144.192" rx="0.746919" ry="0.755382" fill="#D9B447"/>
<path d="M146.65 144.192H145.65C145.65 144.067 145.753 143.947 145.903 143.947V144.947V145.947C146.879 145.947 147.65 145.151 147.65 144.192H146.65ZM145.903 144.947V143.947C146.054 143.947 146.156 144.067 146.156 144.192H145.156H144.156C144.156 145.151 144.928 145.947 145.903 145.947V144.947ZM145.156 144.192H146.156C146.156 144.316 146.054 144.437 145.903 144.437V143.437V142.437C144.928 142.437 144.156 143.233 144.156 144.192H145.156ZM145.903 143.437V144.437C145.753 144.437 145.65 144.316 145.65 144.192H146.65H147.65C147.65 143.233 146.879 142.437 145.903 142.437V143.437Z" fill="black" mask="url(#path-27-inside-9_2131_1811)"/>
<path d="M156.958 325.242C156.958 322.789 155.066 320.744 154.12 320.028C153.821 321.255 150.833 321.102 149.19 320.642C148.443 319.568 144.061 320.795 142.916 321.562V327.082C142.916 328.922 147.547 330.149 148.891 329.536C151.401 328.432 153.423 329.485 154.12 330.149C155.066 329.536 156.958 327.696 156.958 325.242Z" fill="#D9B447" stroke="black"/>
<path d="M144.173 324.516C144.297 324.516 144.42 324.623 144.42 324.782C144.42 324.942 144.297 325.049 144.173 325.049C144.049 325.049 143.926 324.942 143.926 324.782C143.926 324.623 144.049 324.516 144.173 324.516Z" fill="#D9B447" stroke="black"/>
<path d="M147.397 327.735C147.521 327.735 147.644 327.842 147.645 328.002C147.645 328.162 147.522 328.268 147.397 328.269C147.273 328.269 147.15 328.162 147.15 328.002C147.15 327.842 147.273 327.735 147.397 327.735Z" fill="#D9B447" stroke="black"/>
<mask id="path-32-inside-10_2131_1811" fill="white">
<ellipse cx="147.397" cy="322.023" rx="0.746919" ry="0.766731"/>
</mask>
<ellipse cx="147.397" cy="322.023" rx="0.746919" ry="0.766731" fill="#D9B447"/>
<path d="M148.144 322.023H147.144C147.144 321.919 147.233 321.789 147.397 321.789V322.789V323.789C148.387 323.789 149.144 322.973 149.144 322.023H148.144ZM147.397 322.789V321.789C147.562 321.789 147.65 321.919 147.65 322.023H146.65H145.65C145.65 322.973 146.408 323.789 147.397 323.789V322.789ZM146.65 322.023H147.65C147.65 322.127 147.562 322.256 147.397 322.256V321.256V320.256C146.408 320.256 145.65 321.072 145.65 322.023H146.65ZM147.397 321.256V322.256C147.233 322.256 147.144 322.127 147.144 322.023H148.144H149.144C149.144 321.072 148.387 320.256 147.397 320.256V321.256Z" fill="black" mask="url(#path-32-inside-10_2131_1811)"/>
<path d="M134.402 144.343C134.004 144.343 133.327 145.733 133.805 149.479H134.701L133.805 159.601C133.108 159.752 131.385 159.964 130.07 159.601C129.712 157.909 129.423 152.249 129.323 149.63C128.925 148.774 128.277 146.518 128.875 144.343C129.323 143.436 130.369 143.285 131.265 143.285C132.161 143.285 134.402 143.285 134.701 144.343L134.402 144.343Z" fill="#D9B447"/>
<path d="M133.805 149.479C133.327 145.733 134.004 144.343 134.402 144.343L134.701 144.343C134.402 143.285 132.161 143.285 131.265 143.285C130.369 143.285 129.323 143.436 128.875 144.343C128.277 146.518 128.925 148.774 129.323 149.63C129.423 152.249 129.712 157.909 130.07 159.601C131.385 159.964 133.108 159.752 133.805 159.601M133.805 149.479C133.805 153.226 133.805 157.839 133.805 159.601M133.805 149.479H134.701L133.805 159.601" stroke="black"/>
<mask id="path-36-inside-11_2131_1811" fill="white">
<ellipse cx="131.117" cy="147.062" rx="0.896302" ry="0.906459"/>
</mask>
<ellipse cx="131.117" cy="147.062" rx="0.896302" ry="0.906459" fill="#D9B447"/>
<path d="M132.013 147.062H131.013C131.013 147.021 131.049 146.968 131.117 146.968V147.968V148.968C132.175 148.968 133.013 148.104 133.013 147.062H132.013ZM131.117 147.968V146.968C131.185 146.968 131.221 147.021 131.221 147.062H130.221H129.221C129.221 148.104 130.059 148.968 131.117 148.968V147.968ZM130.221 147.062H131.221C131.221 147.103 131.185 147.155 131.117 147.155V146.155V145.155C130.059 145.155 129.221 146.019 129.221 147.062H130.221ZM131.117 146.155V147.155C131.049 147.155 131.013 147.103 131.013 147.062H132.013H133.013C133.013 146.019 132.175 145.155 131.117 145.155V146.155Z" fill="black" mask="url(#path-36-inside-11_2131_1811)"/>
<mask id="path-38-inside-12_2131_1811" fill="white">
<ellipse cx="131.563" cy="152.35" rx="0.746919" ry="0.755382"/>
</mask>
<ellipse cx="131.563" cy="152.35" rx="0.746919" ry="0.755382" fill="#D9B447"/>
<path d="M132.31 152.35H131.31C131.31 152.226 131.413 152.105 131.563 152.105V153.105V154.105C132.539 154.105 133.31 153.309 133.31 152.35H132.31ZM131.563 153.105V152.105C131.714 152.105 131.816 152.226 131.816 152.35H130.816H129.816C129.816 153.309 130.588 154.105 131.563 154.105V153.105ZM130.816 152.35H131.816C131.816 152.475 131.714 152.595 131.563 152.595V151.595V150.595C130.588 150.595 129.816 151.391 129.816 152.35H130.816ZM131.563 151.595V152.595C131.413 152.595 131.31 152.475 131.31 152.35H132.31H133.31C133.31 151.391 132.539 150.595 131.563 150.595V151.595Z" fill="black" mask="url(#path-38-inside-12_2131_1811)"/>
<mask id="path-40-inside-13_2131_1811" fill="white">
<ellipse cx="131.563" cy="156.58" rx="0.746919" ry="0.755382"/>
</mask>
<ellipse cx="131.563" cy="156.58" rx="0.746919" ry="0.755382" fill="#D9B447"/>
<path d="M132.31 156.58H131.31C131.31 156.455 131.413 156.335 131.563 156.335V157.335V158.335C132.539 158.335 133.31 157.538 133.31 156.58H132.31ZM131.563 157.335V156.335C131.714 156.335 131.816 156.455 131.816 156.58H130.816H129.816C129.816 157.538 130.588 158.335 131.563 158.335V157.335ZM130.816 156.58H131.816C131.816 156.704 131.714 156.824 131.563 156.824V155.824V154.824C130.588 154.824 129.816 155.621 129.816 156.58H130.816ZM131.563 155.824V156.824C131.413 156.824 131.31 156.704 131.31 156.58H132.31H133.31C133.31 155.621 132.539 154.824 131.563 154.824V155.824Z" fill="black" mask="url(#path-40-inside-13_2131_1811)"/>
<path d="M135.092 327.438C134.693 327.438 134.016 325.364 134.494 321.561H135.39L134.494 311.95C133.797 311.797 132.074 311.582 130.76 311.95C130.401 313.668 130.112 318.75 130.013 321.408C129.614 322.277 128.967 325.23 129.564 327.438C130.013 328.358 131.058 328.512 131.955 328.512C132.851 328.512 135.092 328.512 135.39 327.438L135.092 327.438Z" fill="#D9B447"/>
<path d="M134.494 321.561C134.016 325.364 134.693 327.438 135.092 327.438L135.39 327.438C135.092 328.512 132.851 328.512 131.955 328.512C131.058 328.512 130.013 328.358 129.564 327.438C128.967 325.23 129.614 322.277 130.013 321.408C130.112 318.75 130.401 313.668 130.76 311.95C132.074 311.582 133.797 311.797 134.494 311.95M134.494 321.561C134.494 317.758 134.494 313.739 134.494 311.95M134.494 321.561H135.39L134.494 311.95" stroke="black"/>
<mask id="path-44-inside-14_2131_1811" fill="white">
<ellipse cx="0.896302" cy="0.920077" rx="0.896302" ry="0.920077" transform="matrix(1 0 0 -1 130.908 325.599)"/>
</mask>
<ellipse cx="0.896302" cy="0.920077" rx="0.896302" ry="0.920077" transform="matrix(1 0 0 -1 130.908 325.599)" fill="#D9B447"/>
<path d="M132.701 324.679H131.701C131.701 324.692 131.707 324.71 131.722 324.726C131.737 324.742 131.767 324.758 131.805 324.758V323.758V322.758C132.876 322.758 133.701 323.643 133.701 324.679H132.701ZM131.805 323.758V324.758C131.842 324.758 131.872 324.742 131.887 324.726C131.902 324.71 131.908 324.692 131.908 324.679H130.908H129.908C129.908 323.643 130.733 322.758 131.805 322.758V323.758ZM130.908 324.679H131.908C131.908 324.665 131.902 324.647 131.887 324.631C131.872 324.616 131.842 324.599 131.805 324.599V325.599V326.599C130.733 326.599 129.908 325.714 129.908 324.679H130.908ZM131.805 325.599V324.599C131.767 324.599 131.737 324.616 131.722 324.631C131.707 324.647 131.701 324.665 131.701 324.679H132.701H133.701C133.701 325.714 132.876 326.599 131.805 326.599V325.599Z" fill="black" mask="url(#path-44-inside-14_2131_1811)"/>
<mask id="path-46-inside-15_2131_1811" fill="white">
<ellipse cx="0.746919" cy="0.766731" rx="0.746919" ry="0.766731" transform="matrix(1 0 0 -1 131.506 320.077)"/>
</mask>
<ellipse cx="0.746919" cy="0.766731" rx="0.746919" ry="0.766731" transform="matrix(1 0 0 -1 131.506 320.077)" fill="#D9B447"/>
<path d="M133 319.31H132C132 319.414 132.088 319.544 132.253 319.544V318.544V317.544C133.242 317.544 134 318.36 134 319.31H133ZM132.253 318.544V319.544C132.417 319.544 132.506 319.414 132.506 319.31H131.506H130.506C130.506 318.36 131.263 317.544 132.253 317.544V318.544ZM131.506 319.31H132.506C132.506 319.206 132.417 319.077 132.253 319.077V320.077V321.077C131.263 321.077 130.506 320.261 130.506 319.31H131.506ZM132.253 320.077V319.077C132.088 319.077 132 319.206 132 319.31H133H134C134 320.261 133.242 321.077 132.253 321.077V320.077Z" fill="black" mask="url(#path-46-inside-15_2131_1811)"/>
<mask id="path-48-inside-16_2131_1811" fill="white">
<ellipse cx="0.746919" cy="0.766731" rx="0.746919" ry="0.766731" transform="matrix(1 0 0 -1 131.506 315.784)"/>
</mask>
<ellipse cx="0.746919" cy="0.766731" rx="0.746919" ry="0.766731" transform="matrix(1 0 0 -1 131.506 315.784)" fill="#D9B447"/>
<path d="M133 315.017H132C132 315.121 132.088 315.251 132.253 315.251V314.251V313.251C133.242 313.251 134 314.067 134 315.017H133ZM132.253 314.251V315.251C132.417 315.251 132.506 315.121 132.506 315.017H131.506H130.506C130.506 314.067 131.263 313.251 132.253 313.251V314.251ZM131.506 315.017H132.506C132.506 314.913 132.417 314.784 132.253 314.784V315.784V316.784C131.263 316.784 130.506 315.968 130.506 315.017H131.506ZM132.253 315.784V314.784C132.088 314.784 132 314.913 132 315.017H133H134C134 315.968 133.242 316.784 132.253 316.784V315.784Z" fill="black" mask="url(#path-48-inside-16_2131_1811)"/>
<path d="M60.0081 249.19L59.8587 247.981C57.3192 248.283 55.0784 248.132 54.4809 248.586C54.0028 248.948 53.7837 249.744 53.734 250.096C53.6842 250.55 53.6144 251.819 53.734 253.269C53.8535 254.719 54.5805 255.384 54.929 255.535H59.4105C62.5476 256.895 66.1328 256.139 67.6266 255.535C69.1205 254.931 68.3736 251.154 68.2242 249.19C68.1047 247.619 67.0789 247.427 66.581 247.528C66.6307 247.78 66.7303 248.374 66.7303 248.737C63.1451 249.704 60.755 249.442 60.0081 249.19Z" fill="#DAB445" stroke="black"/>
<path d="M56.7227 252.107C57.1011 252.108 57.418 252.42 57.418 252.816C57.4178 253.213 57.101 253.524 56.7227 253.524C56.3442 253.524 56.0275 253.213 56.0273 252.816C56.0273 252.42 56.3441 252.107 56.7227 252.107Z" fill="#DAB445" stroke="black"/>
<path d="M48.655 249.341H53.8835C53.4054 252.483 53.9831 254.477 54.3316 255.082H49.1032C48.2069 255.082 47.7837 253.722 47.6094 252.665C47.2281 250.351 47.9081 249.341 48.655 249.341Z" fill="#DAB445" stroke="black"/>
<path d="M275.768 21.9935C275.648 15.9521 281.584 8.12173 284.566 4.96174L417.5 4.96177V0.500023L282.257 0.5C280.257 0.5 270.791 12.2549 270.697 21.9935L268.46 350.376H273.53C274.177 280.428 275.529 39.3467 275.768 21.9935Z" fill="#D8B246" stroke="black"/>
<path d="M268.189 329.923H418V335.615H268.189V329.923Z" fill="#D9B346" stroke="black"/>
<path d="M358.118 164.253H269.832V159.16H360.359C375.058 159.16 374.7 171.144 373.953 179.682L369.77 207.393C368.326 219.377 364.721 248.616 361.853 269.707C358.987 283.641 355.557 312.701 364.757 317.46H417.5V321.385H359.911C351.757 315.973 351.744 293.324 353.188 282.589C357.222 253.629 365.766 192.084 367.678 177.585C369.352 166.56 362.002 164.103 358.118 164.253Z" fill="#D9B346" stroke="black"/>
<path d="M269.833 206.045L282.381 207.094C283.726 207.244 283.875 207.693 283.875 208.292V209.341C283.875 210.539 283.128 210.618 282.381 210.689C279.244 210.989 272.611 211.588 271.177 211.588C269.743 211.588 268.638 211.588 268.638 210.989V206.794C268.638 205.746 269.833 205.596 269.833 206.045Z" fill="#D8B243" stroke="black"/>
<mask id="path-57-inside-17_2131_1811" fill="white">
<ellipse cx="0.746919" cy="0.74896" rx="0.746919" ry="0.74896" transform="matrix(-1 0 0 1 281.783 207.993)"/>
</mask>
<ellipse cx="0.746919" cy="0.74896" rx="0.746919" ry="0.74896" transform="matrix(-1 0 0 1 281.783 207.993)" fill="#D8B243"/>
<path d="M280.289 208.742H281.289C281.289 208.606 281.179 208.491 281.036 208.491V209.491V210.491C280.069 210.491 279.289 209.705 279.289 208.742H280.289ZM281.036 209.491V208.491C280.894 208.491 280.783 208.606 280.783 208.742H281.783H282.783C282.783 209.705 282.004 210.491 281.036 210.491V209.491ZM281.783 208.742H280.783C280.783 208.878 280.894 208.993 281.036 208.993V207.993V206.993C282.004 206.993 282.783 207.779 282.783 208.742H281.783ZM281.036 207.993V208.993C281.179 208.993 281.289 208.878 281.289 208.742H280.289H279.289C279.289 207.779 280.069 206.993 281.036 206.993V207.993Z" fill="black" mask="url(#path-57-inside-17_2131_1811)"/>
<mask id="path-59-inside-18_2131_1811" fill="white">
<ellipse cx="0.746919" cy="0.74896" rx="0.746919" ry="0.74896" transform="matrix(-1 0 0 1 278.496 207.993)"/>
</mask>
<ellipse cx="0.746919" cy="0.74896" rx="0.746919" ry="0.74896" transform="matrix(-1 0 0 1 278.496 207.993)" fill="#D8B243"/>
<path d="M277.002 208.742H278.002C278.002 208.606 277.892 208.491 277.749 208.491V209.491V210.491C276.782 210.491 276.002 209.705 276.002 208.742H277.002ZM277.749 209.491V208.491C277.607 208.491 277.496 208.606 277.496 208.742H278.496H279.496C279.496 209.705 278.717 210.491 277.749 210.491V209.491ZM278.496 208.742H277.496C277.496 208.878 277.607 208.993 277.749 208.993V207.993V206.993C278.717 206.993 279.496 207.779 279.496 208.742H278.496ZM277.749 207.993V208.993C277.892 208.993 278.002 208.878 278.002 208.742H277.002H276.002C276.002 207.779 276.782 206.993 277.749 206.993V207.993Z" fill="black" mask="url(#path-59-inside-18_2131_1811)"/>
<path d="M272.671 208.193C272.371 208.193 272.125 208.438 272.125 208.742C272.125 209.046 272.371 209.29 272.671 209.29C272.971 209.29 273.217 209.046 273.217 208.742C273.217 208.438 272.971 208.193 272.671 208.193Z" fill="#D8B243" stroke="black"/>
<path d="M269.833 248.376L282.381 249.424C283.726 249.574 283.875 250.023 283.875 250.622V251.671C283.875 252.869 283.128 252.948 282.381 253.019C279.244 253.319 272.611 253.918 271.177 253.918C269.743 253.918 268.638 253.918 268.638 253.319V249.125C268.638 248.076 269.833 247.926 269.833 248.376Z" fill="#D8B243" stroke="black"/>
<mask id="path-63-inside-19_2131_1811" fill="white">
<ellipse cx="0.746919" cy="0.74896" rx="0.746919" ry="0.74896" transform="matrix(-1 0 0 1 281.783 250.323)"/>
</mask>
<ellipse cx="0.746919" cy="0.74896" rx="0.746919" ry="0.74896" transform="matrix(-1 0 0 1 281.783 250.323)" fill="#D8B243"/>
<path d="M280.289 251.072H281.289C281.289 250.936 281.179 250.821 281.036 250.821V251.821V252.821C280.069 252.821 279.289 252.036 279.289 251.072H280.289ZM281.036 251.821V250.821C280.894 250.821 280.783 250.936 280.783 251.072H281.783H282.783C282.783 252.036 282.004 252.821 281.036 252.821V251.821ZM281.783 251.072H280.783C280.783 251.208 280.894 251.323 281.036 251.323V250.323V249.323C282.004 249.323 282.783 250.109 282.783 251.072H281.783ZM281.036 250.323V251.323C281.179 251.323 281.289 251.208 281.289 251.072H280.289H279.289C279.289 250.109 280.069 249.323 281.036 249.323V250.323Z" fill="black" mask="url(#path-63-inside-19_2131_1811)"/>
<mask id="path-65-inside-20_2131_1811" fill="white">
<ellipse cx="0.746919" cy="0.74896" rx="0.746919" ry="0.74896" transform="matrix(-1 0 0 1 278.496 250.323)"/>
</mask>
<ellipse cx="0.746919" cy="0.74896" rx="0.746919" ry="0.74896" transform="matrix(-1 0 0 1 278.496 250.323)" fill="#D8B243"/>
<path d="M277.002 251.072H278.002C278.002 250.936 277.892 250.821 277.749 250.821V251.821V252.821C276.782 252.821 276.002 252.036 276.002 251.072H277.002ZM277.749 251.821V250.821C277.607 250.821 277.496 250.936 277.496 251.072H278.496H279.496C279.496 252.036 278.717 252.821 277.749 252.821V251.821ZM278.496 251.072H277.496C277.496 251.208 277.607 251.323 277.749 251.323V250.323V249.323C278.717 249.323 279.496 250.109 279.496 251.072H278.496ZM277.749 250.323V251.323C277.892 251.323 278.002 251.208 278.002 251.072H277.002H276.002C276.002 250.109 276.782 249.323 277.749 249.323V250.323Z" fill="black" mask="url(#path-65-inside-20_2131_1811)"/>
<path d="M272.671 250.523C272.371 250.524 272.125 250.768 272.125 251.072C272.125 251.376 272.371 251.62 272.671 251.62C272.971 251.62 273.217 251.376 273.217 251.072C273.217 250.768 272.971 250.523 272.671 250.523Z" fill="#D8B243" stroke="black"/>
<path d="M269.833 288.22L282.381 289.269C283.726 289.419 283.875 289.868 283.875 290.467V291.516C283.875 292.714 283.128 292.793 282.381 292.864C279.244 293.163 272.611 293.763 271.177 293.763C269.743 293.763 268.638 293.763 268.638 293.163V288.969C268.638 287.921 269.833 287.771 269.833 288.22Z" fill="#D8B243" stroke="black"/>
<mask id="path-69-inside-21_2131_1811" fill="white">
<ellipse cx="0.746919" cy="0.74896" rx="0.746919" ry="0.74896" transform="matrix(-1 0 0 1 281.783 290.168)"/>
</mask>
<ellipse cx="0.746919" cy="0.74896" rx="0.746919" ry="0.74896" transform="matrix(-1 0 0 1 281.783 290.168)" fill="#D8B243"/>
<path d="M280.289 290.917H281.289C281.289 290.781 281.179 290.666 281.036 290.666V291.666V292.666C280.069 292.666 279.289 291.88 279.289 290.917H280.289ZM281.036 291.666V290.666C280.894 290.666 280.783 290.781 280.783 290.917H281.783H282.783C282.783 291.88 282.004 292.666 281.036 292.666V291.666ZM281.783 290.917H280.783C280.783 291.053 280.894 291.168 281.036 291.168V290.168V289.168C282.004 289.168 282.783 289.954 282.783 290.917H281.783ZM281.036 290.168V291.168C281.179 291.168 281.289 291.053 281.289 290.917H280.289H279.289C279.289 289.954 280.069 289.168 281.036 289.168V290.168Z" fill="black" mask="url(#path-69-inside-21_2131_1811)"/>
<mask id="path-71-inside-22_2131_1811" fill="white">
<ellipse cx="0.746919" cy="0.74896" rx="0.746919" ry="0.74896" transform="matrix(-1 0 0 1 278.496 290.168)"/>
</mask>
<ellipse cx="0.746919" cy="0.74896" rx="0.746919" ry="0.74896" transform="matrix(-1 0 0 1 278.496 290.168)" fill="#D8B243"/>
<path d="M277.002 290.917H278.002C278.002 290.781 277.892 290.666 277.749 290.666V291.666V292.666C276.782 292.666 276.002 291.88 276.002 290.917H277.002ZM277.749 291.666V290.666C277.607 290.666 277.496 290.781 277.496 290.917H278.496H279.496C279.496 291.88 278.717 292.666 277.749 292.666V291.666ZM278.496 290.917H277.496C277.496 291.053 277.607 291.168 277.749 291.168V290.168V289.168C278.717 289.168 279.496 289.954 279.496 290.917H278.496ZM277.749 290.168V291.168C277.892 291.168 278.002 291.053 278.002 290.917H277.002H276.002C276.002 289.954 276.782 289.168 277.749 289.168V290.168Z" fill="black" mask="url(#path-71-inside-22_2131_1811)"/>
<path d="M272.671 290.368C272.371 290.368 272.125 290.613 272.125 290.917C272.125 291.221 272.371 291.465 272.671 291.465C272.971 291.465 273.217 291.221 273.217 290.917C273.217 290.613 272.971 290.368 272.671 290.368Z" fill="#D8B243" stroke="black"/>
<path d="M267.292 162.156C267.292 159.76 269.184 157.763 270.13 157.063C270.429 158.262 273.715 158.561 275.359 158.112C277.39 157.393 280.189 158.711 281.334 159.46V163.954C281.334 165.751 276.703 166.95 275.359 166.351C272.849 165.272 270.827 166.301 270.13 166.95C269.184 166.351 267.292 164.553 267.292 162.156Z" fill="#D9B447" stroke="black"/>
<mask id="path-75-inside-23_2131_1811" fill="white">
<ellipse cx="0.746919" cy="0.74896" rx="0.746919" ry="0.74896" transform="matrix(-1 0 0 1 280.887 161.258)"/>
</mask>
<ellipse cx="0.746919" cy="0.74896" rx="0.746919" ry="0.74896" transform="matrix(-1 0 0 1 280.887 161.258)" fill="#D9B447"/>
<path d="M279.393 162.007H280.393C280.393 161.871 280.282 161.756 280.14 161.756V162.756V163.756C279.172 163.756 278.393 162.97 278.393 162.007H279.393ZM280.14 162.756V161.756C279.997 161.756 279.887 161.871 279.887 162.007H280.887H281.887C281.887 162.97 281.107 163.756 280.14 163.756V162.756ZM280.887 162.007H279.887C279.887 162.143 279.997 162.258 280.14 162.258V161.258V160.258C281.107 160.258 281.887 161.043 281.887 162.007H280.887ZM280.14 161.258V162.258C280.282 162.258 280.393 162.143 280.393 162.007H279.393H278.393C278.393 161.043 279.172 160.258 280.14 160.258V161.258Z" fill="black" mask="url(#path-75-inside-23_2131_1811)"/>
<mask id="path-77-inside-24_2131_1811" fill="white">
<ellipse cx="0.746919" cy="0.74896" rx="0.746919" ry="0.74896" transform="matrix(-1 0 0 1 277.6 164.553)"/>
</mask>
<ellipse cx="0.746919" cy="0.74896" rx="0.746919" ry="0.74896" transform="matrix(-1 0 0 1 277.6 164.553)" fill="#D9B447"/>
<path d="M276.106 165.302H277.106C277.106 165.166 276.995 165.051 276.853 165.051V166.051V167.051C275.885 167.051 275.106 166.265 275.106 165.302H276.106ZM276.853 166.051V165.051C276.71 165.051 276.6 165.166 276.6 165.302H277.6H278.6C278.6 166.265 277.82 167.051 276.853 167.051V166.051ZM277.6 165.302H276.6C276.6 165.438 276.71 165.553 276.853 165.553V164.553V163.553C277.82 163.553 278.6 164.338 278.6 165.302H277.6ZM276.853 164.553V165.553C276.995 165.553 277.106 165.438 277.106 165.302H276.106H275.106C275.106 164.338 275.885 163.553 276.853 163.553V164.553Z" fill="black" mask="url(#path-77-inside-24_2131_1811)"/>
<mask id="path-79-inside-25_2131_1811" fill="white">
<ellipse cx="0.746919" cy="0.74896" rx="0.746919" ry="0.74896" transform="matrix(-1 0 0 1 277.6 158.262)"/>
</mask>
<ellipse cx="0.746919" cy="0.74896" rx="0.746919" ry="0.74896" transform="matrix(-1 0 0 1 277.6 158.262)" fill="#D9B447"/>
<path d="M276.106 159.011H277.106C277.106 158.875 276.995 158.76 276.853 158.76V159.76V160.76C275.885 160.76 275.106 159.974 275.106 159.011H276.106ZM276.853 159.76V158.76C276.71 158.76 276.6 158.875 276.6 159.011H277.6H278.6C278.6 159.974 277.82 160.76 276.853 160.76V159.76ZM277.6 159.011H276.6C276.6 159.147 276.71 159.262 276.853 159.262V158.262V157.262C277.82 157.262 278.6 158.047 278.6 159.011H277.6ZM276.853 158.262V159.262C276.995 159.262 277.106 159.147 277.106 159.011H276.106H275.106C275.106 158.047 275.885 157.262 276.853 157.262V158.262Z" fill="black" mask="url(#path-79-inside-25_2131_1811)"/>
<path d="M265.798 333.519C265.798 331.122 267.69 329.125 268.636 328.426C268.935 329.624 271.923 329.474 273.566 329.025C274.313 327.976 278.695 329.175 279.84 329.924V335.316C279.84 337.114 275.209 338.312 273.864 337.713C271.355 336.634 269.333 337.663 268.636 338.312C267.69 337.713 265.798 335.915 265.798 333.519Z" fill="#D9B447" stroke="black"/>
<path d="M278.583 332.82C278.448 332.82 278.336 332.931 278.336 333.069C278.336 333.208 278.448 333.318 278.583 333.318C278.718 333.318 278.83 333.208 278.83 333.069C278.83 332.931 278.718 332.82 278.583 332.82Z" fill="#D9B447" stroke="black"/>
<path d="M275.358 335.966C275.223 335.966 275.111 336.076 275.111 336.215C275.111 336.354 275.223 336.464 275.358 336.464C275.493 336.464 275.605 336.354 275.605 336.215C275.605 336.076 275.493 335.966 275.358 335.966Z" fill="#D9B447" stroke="black"/>
<mask id="path-84-inside-26_2131_1811" fill="white">
<ellipse cx="0.746919" cy="0.74896" rx="0.746919" ry="0.74896" transform="matrix(-1 0 0 1 276.105 329.624)"/>
</mask>
<ellipse cx="0.746919" cy="0.74896" rx="0.746919" ry="0.74896" transform="matrix(-1 0 0 1 276.105 329.624)" fill="#D9B447"/>
<path d="M274.612 330.373H275.612C275.612 330.237 275.501 330.122 275.359 330.122V331.122V332.122C274.391 332.122 273.612 331.336 273.612 330.373H274.612ZM275.359 331.122V330.122C275.216 330.122 275.105 330.237 275.105 330.373H276.105H277.105C277.105 331.336 276.326 332.122 275.359 332.122V331.122ZM276.105 330.373H275.105C275.105 330.509 275.216 330.624 275.359 330.624V329.624V328.624C276.326 328.624 277.105 329.41 277.105 330.373H276.105ZM275.359 329.624V330.624C275.501 330.624 275.612 330.509 275.612 330.373H274.612H273.612C273.612 329.41 274.391 328.624 275.359 328.624V329.624Z" fill="black" mask="url(#path-84-inside-26_2131_1811)"/>
<path d="M288.356 159.16C288.754 159.16 289.431 160.538 288.953 164.253H288.057L288.953 174.289C289.65 174.439 291.373 174.648 292.688 174.289C293.046 172.611 293.335 166.999 293.435 164.403C293.833 163.554 294.48 161.317 293.883 159.16C293.435 158.261 292.389 158.111 291.493 158.111C290.596 158.111 288.356 158.111 288.057 159.16L288.356 159.16Z" fill="#D9B447"/>
<path d="M288.953 164.253C289.431 160.538 288.754 159.16 288.356 159.16L288.057 159.16C288.356 158.111 290.596 158.111 291.493 158.111C292.389 158.111 293.435 158.261 293.883 159.16C294.48 161.317 293.833 163.554 293.435 164.403C293.335 166.999 293.046 172.611 292.688 174.289C291.373 174.648 289.65 174.439 288.953 174.289M288.953 164.253C288.953 167.968 288.953 172.541 288.953 174.289M288.953 164.253H288.057L288.953 174.289" stroke="black"/>
<mask id="path-88-inside-27_2131_1811" fill="white">
<ellipse cx="0.896302" cy="0.898752" rx="0.896302" ry="0.898752" transform="matrix(-1 0 0 1 292.537 160.957)"/>
</mask>
<ellipse cx="0.896302" cy="0.898752" rx="0.896302" ry="0.898752" transform="matrix(-1 0 0 1 292.537 160.957)" fill="#D9B447"/>
<path d="M290.745 161.856H291.745C291.745 161.802 291.701 161.755 291.641 161.755V162.755V163.755C290.591 163.755 289.745 162.902 289.745 161.856H290.745ZM291.641 162.755V161.755C291.581 161.755 291.537 161.802 291.537 161.856H292.537H293.537C293.537 162.902 292.691 163.755 291.641 163.755V162.755ZM292.537 161.856H291.537C291.537 161.909 291.581 161.957 291.641 161.957V160.957V159.957C292.691 159.957 293.537 160.81 293.537 161.856H292.537ZM291.641 160.957V161.957C291.701 161.957 291.745 161.909 291.745 161.856H290.745H289.745C289.745 160.81 290.591 159.957 291.641 159.957V160.957Z" fill="black" mask="url(#path-88-inside-27_2131_1811)"/>
<mask id="path-90-inside-28_2131_1811" fill="white">
<ellipse cx="0.746919" cy="0.74896" rx="0.746919" ry="0.74896" transform="matrix(-1 0 0 1 291.941 166.35)"/>
</mask>
<ellipse cx="0.746919" cy="0.74896" rx="0.746919" ry="0.74896" transform="matrix(-1 0 0 1 291.941 166.35)" fill="#D9B447"/>
<path d="M290.448 167.099H291.448C291.448 166.963 291.337 166.848 291.194 166.848V167.848V168.848C290.227 168.848 289.448 168.062 289.448 167.099H290.448ZM291.194 167.848V166.848C291.052 166.848 290.941 166.963 290.941 167.099H291.941H292.941C292.941 168.062 292.162 168.848 291.194 168.848V167.848ZM291.941 167.099H290.941C290.941 167.235 291.052 167.35 291.194 167.35V166.35V165.35C292.162 165.35 292.941 166.135 292.941 167.099H291.941ZM291.194 166.35V167.35C291.337 167.35 291.448 167.235 291.448 167.099H290.448H289.448C289.448 166.135 290.227 165.35 291.194 165.35V166.35Z" fill="black" mask="url(#path-90-inside-28_2131_1811)"/>
<mask id="path-92-inside-29_2131_1811" fill="white">
<ellipse cx="0.746919" cy="0.74896" rx="0.746919" ry="0.74896" transform="matrix(-1 0 0 1 291.941 170.544)"/>
</mask>
<ellipse cx="0.746919" cy="0.74896" rx="0.746919" ry="0.74896" transform="matrix(-1 0 0 1 291.941 170.544)" fill="#D9B447"/>
<path d="M290.448 171.293H291.448C291.448 171.157 291.337 171.042 291.194 171.042V172.042V173.042C290.227 173.042 289.448 172.256 289.448 171.293H290.448ZM291.194 172.042V171.042C291.052 171.042 290.941 171.157 290.941 171.293H291.941H292.941C292.941 172.256 292.162 173.042 291.194 173.042V172.042ZM291.941 171.293H290.941C290.941 171.429 291.052 171.544 291.194 171.544V170.544V169.544C292.162 169.544 292.941 170.33 292.941 171.293H291.941ZM291.194 170.544V171.544C291.337 171.544 291.448 171.429 291.448 171.293H290.448H289.448C289.448 170.33 290.227 169.544 291.194 169.544V170.544Z" fill="black" mask="url(#path-92-inside-29_2131_1811)"/>
<path d="M287.666 335.664C288.064 335.664 288.742 333.638 288.264 329.924H287.367L288.264 320.535C288.961 320.386 290.684 320.176 291.998 320.535C292.357 322.213 292.646 327.177 292.745 329.774C293.144 330.623 293.791 333.507 293.193 335.664C292.745 336.563 291.699 336.713 290.803 336.713C289.907 336.713 287.666 336.713 287.367 335.664L287.666 335.664Z" fill="#D9B447"/>
<path d="M288.264 329.924C288.742 333.638 288.064 335.664 287.666 335.664L287.367 335.664C287.666 336.713 289.907 336.713 290.803 336.713C291.699 336.713 292.745 336.563 293.193 335.664C293.791 333.507 293.144 330.623 292.745 329.774C292.646 327.177 292.357 322.213 291.998 320.535C290.684 320.176 288.961 320.386 288.264 320.535M288.264 329.924C288.264 326.209 288.264 322.283 288.264 320.535M288.264 329.924H287.367L288.264 320.535" stroke="black"/>
<mask id="path-96-inside-30_2131_1811" fill="white">
<ellipse cx="290.953" cy="332.968" rx="0.896302" ry="0.898752" transform="rotate(180 290.953 332.968)"/>
</mask>
<ellipse cx="290.953" cy="332.968" rx="0.896302" ry="0.898752" transform="rotate(180 290.953 332.968)" fill="#D9B447"/>
<path d="M290.057 332.968H291.057C291.057 333.022 291.013 333.07 290.953 333.07V332.07V331.07C289.903 331.07 289.057 331.922 289.057 332.968H290.057ZM290.953 332.07V333.07C290.893 333.07 290.85 333.022 290.85 332.968H291.85H292.85C292.85 331.922 292.003 331.07 290.953 331.07V332.07ZM291.85 332.968H290.85C290.85 332.915 290.893 332.867 290.953 332.867V333.867V334.867C292.003 334.867 292.85 334.015 292.85 332.968H291.85ZM290.953 333.867V332.867C291.013 332.867 291.057 332.915 291.057 332.968H290.057H289.057C289.057 334.015 289.903 334.867 290.953 334.867V333.867Z" fill="black" mask="url(#path-96-inside-30_2131_1811)"/>
<mask id="path-98-inside-31_2131_1811" fill="white">
<ellipse cx="290.505" cy="327.726" rx="0.746919" ry="0.74896" transform="rotate(180 290.505 327.726)"/>
</mask>
<ellipse cx="290.505" cy="327.726" rx="0.746919" ry="0.74896" transform="rotate(180 290.505 327.726)" fill="#D9B447"/>
<path d="M289.758 327.726H290.758C290.758 327.862 290.647 327.977 290.505 327.977V326.977V325.977C289.538 325.977 288.758 326.762 288.758 327.726H289.758ZM290.505 326.977V327.977C290.363 327.977 290.252 327.862 290.252 327.726H291.252H292.252C292.252 326.762 291.472 325.977 290.505 325.977V326.977ZM291.252 327.726H290.252C290.252 327.59 290.363 327.475 290.505 327.475V328.475V329.475C291.472 329.475 292.252 328.689 292.252 327.726H291.252ZM290.505 328.475V327.475C290.647 327.475 290.758 327.59 290.758 327.726H289.758H288.758C288.758 328.689 289.538 329.475 290.505 329.475V328.475Z" fill="black" mask="url(#path-98-inside-31_2131_1811)"/>
<mask id="path-100-inside-32_2131_1811" fill="white">
<ellipse cx="290.505" cy="323.531" rx="0.746919" ry="0.74896" transform="rotate(180 290.505 323.531)"/>
</mask>
<ellipse cx="290.505" cy="323.531" rx="0.746919" ry="0.74896" transform="rotate(180 290.505 323.531)" fill="#D9B447"/>
<path d="M289.758 323.531H290.758C290.758 323.667 290.647 323.782 290.505 323.782V322.782V321.782C289.538 321.782 288.758 322.568 288.758 323.531H289.758ZM290.505 322.782V323.782C290.363 323.782 290.252 323.667 290.252 323.531H291.252H292.252C292.252 322.568 291.472 321.782 290.505 321.782V322.782ZM291.252 323.531H290.252C290.252 323.395 290.363 323.28 290.505 323.28V324.28V325.28C291.472 325.28 292.252 324.495 292.252 323.531H291.252ZM290.505 324.28V323.28C290.647 323.28 290.758 323.395 290.758 323.531H289.758H288.758C288.758 324.495 289.538 325.28 290.505 325.28V324.28Z" fill="black" mask="url(#path-100-inside-32_2131_1811)"/>
<path d="M362.75 263.116L362.899 261.918C365.439 262.217 367.679 262.067 368.277 262.517C368.755 262.876 368.974 263.665 369.024 264.015C369.074 264.464 369.143 265.722 369.024 267.16C368.904 268.598 368.177 269.257 367.829 269.407H363.347C360.21 270.755 356.625 270.006 355.131 269.407C353.637 268.808 354.384 265.063 354.534 263.116C354.653 261.558 355.679 261.368 356.177 261.468C356.127 261.718 356.027 262.307 356.027 262.667C359.613 263.625 362.003 263.366 362.75 263.116Z" fill="#DAB445" stroke="black"/>
<path d="M366.035 266.013C365.653 266.013 365.34 266.324 365.34 266.711C365.34 267.098 365.653 267.409 366.035 267.409C366.418 267.409 366.73 267.098 366.73 266.711C366.73 266.324 366.418 266.013 366.035 266.013Z" fill="#DAB445" stroke="black"/>
<path d="M374.103 263.266H368.874C369.352 266.381 368.775 268.359 368.426 268.958H373.655C374.551 268.958 374.974 267.61 375.148 266.561C375.53 264.268 374.85 263.266 374.103 263.266Z" fill="#DAB445" stroke="black"/>
<path d="M132.258 592.169C132.258 590.037 129.038 587.432 127.428 586.396C128.13 590.659 127.72 592.021 127.428 592.169C128.306 592.243 130.502 592.346 132.258 592.169Z" fill="#798F9C" stroke="black" stroke-width="0.5"/>
<path d="M84.3934 583.287C74.3816 584.709 64.4138 584.768 60.6813 584.62H60.2422L61.34 591.947H127.866C129.183 586.618 126.329 584.62 123.474 583.287C115.57 581.733 96.9081 581.511 84.3934 583.287Z" fill="#4B7494" stroke="black" stroke-width="0.5"/>
<path d="M47.0698 593.501H3.59766V475.151C8.94019 476.188 21.6013 480.791 29.5053 490.917C40.5709 509.924 44.5083 534.215 45.0938 543.985L47.0698 593.501Z" fill="#848889" stroke="black" stroke-width="0.5"/>
<path d="M49.7041 489.807C32.8422 464.76 11.6477 457.166 3.1582 456.5V463.827C5.42695 464.42 10.184 466.492 15.2338 469.823C33.2374 480.703 41.9465 505.054 44.6544 517.118C45.3862 520.967 47.772 531.551 51.4606 543.097C55.4126 540.655 51.4606 512.899 49.7041 489.807Z" fill="#656668" stroke="black" stroke-width="0.5"/>
<path d="M46.6308 594.167C44.2157 490.917 21.3818 480.259 2.5 476.706V471.377C5.42742 472.117 13.5217 474.574 22.4796 478.482C43.557 487.586 48.8264 530.219 51.4611 542.209C57.0817 558.552 60.3897 583.657 61.3411 594.167H46.6308Z" fill="#969C9C" stroke="black" stroke-width="0.5"/>
<path d="M287.5 592.169C287.5 590.037 290.72 587.432 292.33 586.396C291.627 590.659 292.037 592.021 292.33 592.169C291.452 592.243 289.256 592.346 287.5 592.169Z" fill="#798F9C" stroke="black" stroke-width="0.5"/>
<path d="M335.364 583.287C345.376 584.709 355.344 584.768 359.077 584.62H359.516L358.418 591.947H291.892C290.575 586.618 293.429 584.62 296.283 583.287C304.187 581.733 322.85 581.511 335.364 583.287Z" fill="#4B7494" stroke="black" stroke-width="0.5"/>
<path d="M372.688 593.501H416.16V475.151C410.818 476.188 398.157 480.791 390.253 490.917C379.187 509.924 375.249 534.215 374.664 543.985L372.688 593.501Z" fill="#848889" stroke="black" stroke-width="0.5"/>
<path d="M370.054 489.807C386.916 464.76 408.11 457.166 416.6 456.5V463.827C414.331 464.42 409.574 466.492 404.524 469.823C386.52 480.703 377.811 505.054 375.103 517.118C374.372 520.967 371.986 531.551 368.297 543.097C364.345 540.655 368.297 512.899 370.054 489.807Z" fill="#656668" stroke="black" stroke-width="0.5"/>
<path d="M373.127 594.167C375.542 490.917 398.376 480.259 417.258 476.706V471.377C414.33 472.117 406.236 474.574 397.278 478.482C376.201 487.586 370.931 530.219 368.297 542.209C362.676 558.552 359.368 583.657 358.417 594.167H373.127Z" fill="#969C9C" stroke="black" stroke-width="0.5"/>
</svg>
