<svg width="384" height="555" viewBox="0 0 384 555" fill="none" xmlns="http://www.w3.org/2000/svg">
<rect x="1" width="382" height="65" fill="#E2231A"/>
<path d="M60.0894 29.6885V12.2275H71.4565V14.876H63.2534V19.5635H70.8472V22.1768H63.2534V27.04H71.5034V29.6885H60.0894ZM72.5246 14.876V12.2275L86.4464 12.2275V14.876H81.0558V29.6885H77.9269V14.876H72.5246ZM87.7254 29.6885V12.2275H90.8895V19.6221H98.9754V12.2275H102.139V29.6885H98.9754V22.2822H90.8895V29.6885H87.7254ZM104.18 12.2275H108.059L113.239 24.8721H113.438L118.629 12.2275H122.555V29.6885H119.45V17.6885H119.309L114.457 29.6299H112.184L107.391 17.665H107.227V29.6885H104.18V12.2275ZM132.811 24.1924V16.5869H135.893V29.6885H132.904V27.3564H132.764C132.467 28.0908 131.983 28.6924 131.311 29.1611C130.639 29.6299 129.811 29.8604 128.826 29.8525C127.967 29.8525 127.209 29.665 126.553 29.29C125.904 28.9072 125.393 28.3486 125.018 27.6143C124.651 26.8721 124.467 25.9775 124.467 24.9307V16.5869L127.549 16.5869V24.4619C127.549 25.2822 127.776 25.9385 128.229 26.4307C128.69 26.9229 129.291 27.165 130.033 27.1572C130.486 27.1572 130.924 27.0479 131.346 26.8291C131.776 26.6104 132.127 26.2822 132.401 25.8447C132.674 25.4072 132.811 24.8564 132.811 24.1924ZM137.687 29.6885V16.5869H140.629V18.8252H140.793C141.066 18.0752 141.519 17.4893 142.152 17.0674C142.785 16.6377 143.535 16.4229 144.402 16.4229C145.293 16.4229 146.043 16.6377 146.652 17.0674C147.261 17.4971 147.687 18.083 147.929 18.8252H148.07C148.367 18.0986 148.859 17.5166 149.547 17.0791C150.234 16.6416 151.054 16.4229 152.008 16.4229C153.211 16.4229 154.191 16.8057 154.949 17.5713C155.715 18.3291 156.097 19.4385 156.097 20.8994V29.6885H153.004V21.3682C153.004 20.5635 152.785 19.9736 152.347 19.5986C151.918 19.2158 151.39 19.0244 150.765 19.0244C150.023 19.0244 149.445 19.2588 149.031 19.7275C148.617 20.1885 148.41 20.7822 148.41 21.5088V29.6885H145.363V21.251C145.363 20.5713 145.164 20.0322 144.765 19.6338C144.367 19.2275 143.84 19.0244 143.183 19.0244C142.738 19.0244 142.332 19.1377 141.965 19.3643C141.597 19.5908 141.304 19.9072 141.086 20.3135C140.875 20.7197 140.769 21.1885 140.769 21.7197V29.6885H137.687ZM164.841 29.9229C164.099 29.9229 163.478 29.7979 162.978 29.5479C162.486 29.29 162.087 28.9854 161.783 28.6338C161.486 28.2744 161.259 27.9346 161.103 27.6143H160.915V29.6885H157.892V12.2275H160.974V18.7549H161.103C161.259 18.4424 161.482 18.1064 161.771 17.7471C162.06 17.3799 162.451 17.0674 162.943 16.8096C163.443 16.5518 164.08 16.4229 164.853 16.4229C165.861 16.4229 166.771 16.6807 167.583 17.1963C168.396 17.7119 169.04 18.4697 169.517 19.4697C170.001 20.4697 170.244 21.7002 170.244 23.1611C170.244 24.5986 170.009 25.8213 169.54 26.8291C169.072 27.8369 168.427 28.6064 167.607 29.1377C166.794 29.6611 165.872 29.9229 164.841 29.9229ZM163.997 27.3916C164.677 27.3916 165.244 27.208 165.697 26.8408C166.158 26.4736 166.505 25.9697 166.74 25.3291C166.974 24.6885 167.091 23.9619 167.091 23.1494C167.091 22.3369 166.974 21.6143 166.74 20.9814C166.505 20.3486 166.162 19.8525 165.708 19.4932C165.255 19.1338 164.685 18.9541 163.997 18.9541C163.333 18.9541 162.771 19.126 162.31 19.4697C161.857 19.8135 161.509 20.3018 161.267 20.9346C161.033 21.5596 160.915 22.2979 160.915 23.1494C160.915 23.9932 161.033 24.7354 161.267 25.376C161.509 26.0088 161.861 26.5049 162.322 26.8643C162.783 27.2158 163.341 27.3916 163.997 27.3916ZM175.237 29.958C174.401 29.958 173.651 29.8096 172.987 29.5127C172.323 29.208 171.8 28.7627 171.417 28.1768C171.034 27.5908 170.843 26.8682 170.843 26.0088C170.843 25.2744 170.98 24.665 171.253 24.1807C171.526 23.6963 171.898 23.3096 172.366 23.0205C172.843 22.7314 173.378 22.5127 173.972 22.3643C174.566 22.208 175.179 22.0986 175.812 22.0361C176.585 21.9502 177.21 21.876 177.687 21.8135C178.163 21.751 178.507 21.6494 178.718 21.5088C178.937 21.3682 179.046 21.1494 179.046 20.8525V20.7939C179.046 20.1611 178.858 19.6689 178.483 19.3174C178.108 18.9658 177.562 18.79 176.843 18.79C176.085 18.79 175.483 18.9541 175.038 19.2822C174.601 19.6104 174.304 19.9971 174.148 20.4424L171.276 20.0322C171.503 19.2354 171.878 18.5713 172.401 18.04C172.925 17.501 173.562 17.0986 174.312 16.833C175.069 16.5596 175.905 16.4229 176.819 16.4229C177.444 16.4229 178.069 16.4971 178.694 16.6455C179.319 16.7861 179.894 17.0283 180.417 17.3721C180.941 17.7158 181.358 18.1768 181.671 18.7549C181.983 19.333 182.14 20.0557 182.14 20.9229V29.6885H179.175V27.8838H179.081C178.894 28.2432 178.628 28.583 178.284 28.9033C177.948 29.2158 177.526 29.4697 177.019 29.665C176.519 29.8604 175.925 29.958 175.237 29.958ZM176.023 27.6846C176.648 27.6846 177.187 27.5635 177.64 27.3213C178.093 27.0713 178.444 26.7432 178.694 26.3369C178.944 25.9229 179.069 25.4736 179.069 24.9893V23.4541C178.968 23.5322 178.804 23.6064 178.577 23.6768C178.351 23.7393 178.093 23.7979 177.804 23.8525C177.515 23.9072 177.23 23.9541 176.948 23.9932C176.675 24.0322 176.437 24.0635 176.233 24.0869C175.773 24.1494 175.358 24.2549 174.991 24.4033C174.632 24.5439 174.347 24.7393 174.136 24.9893C173.925 25.2393 173.819 25.5635 173.819 25.9619C173.819 26.5322 174.026 26.9619 174.441 27.251C174.855 27.54 175.382 27.6846 176.023 27.6846ZM183.934 29.6885V16.5869H187.016V29.6885H183.934ZM185.481 14.7471C184.989 14.7471 184.567 14.583 184.216 14.2549C183.864 13.9268 183.688 13.5322 183.688 13.0713C183.688 12.6025 183.864 12.2041 184.216 11.876C184.567 11.5479 184.989 11.3838 185.481 11.3838C185.966 11.3838 186.384 11.5479 186.735 11.876C187.087 12.2041 187.262 12.5986 187.262 13.0596C187.262 13.5283 187.087 13.9268 186.735 14.2549C186.384 14.583 185.966 14.7471 185.481 14.7471ZM193.336 29.6885V27.415L199.406 21.4619C199.977 20.876 200.453 20.3564 200.836 19.9033C201.227 19.4502 201.52 19.0127 201.715 18.5908C201.91 18.1611 202.008 17.7041 202.008 17.2197C202.008 16.6729 201.883 16.2002 201.633 15.8018C201.383 15.4033 201.039 15.0986 200.602 14.8877C200.172 14.6768 199.68 14.5713 199.125 14.5713C198.547 14.5713 198.043 14.6885 197.613 14.9229C197.184 15.1572 196.848 15.4893 196.606 15.9189C196.371 16.3486 196.254 16.8604 196.254 17.4541H193.254C193.254 16.3525 193.504 15.3955 194.004 14.583C194.512 13.7627 195.211 13.126 196.102 12.6729C196.992 12.2197 198.012 11.9932 199.16 11.9932C200.34 11.9932 201.371 12.2119 202.254 12.6494C203.137 13.0869 203.824 13.6885 204.316 14.4541C204.809 15.2119 205.055 16.0791 205.055 17.0557C205.055 17.7119 204.93 18.3564 204.68 18.9893C204.43 19.6143 203.988 20.3135 203.356 21.0869C202.731 21.8525 201.852 22.7783 200.719 23.8643L197.719 26.9229V27.0518H205.313V29.6885H193.336ZM213.353 29.9229C211.939 29.9229 210.728 29.5713 209.72 28.8682C208.72 28.1572 207.955 27.1377 207.424 25.8096C206.892 24.4736 206.627 22.8604 206.627 20.9697C206.627 19.0791 206.892 17.4658 207.424 16.1299C207.955 14.7861 208.72 13.7627 209.72 13.0596C210.728 12.3486 211.939 11.9932 213.353 11.9932C214.759 11.9932 215.967 12.3486 216.974 13.0596C217.982 13.7705 218.752 14.7939 219.283 16.1299C219.814 17.4658 220.08 19.0791 220.08 20.9697C220.08 22.8604 219.814 24.4736 219.283 25.8096C218.752 27.1377 217.986 28.1572 216.986 28.8682C215.986 29.5713 214.775 29.9229 213.353 29.9229ZM213.353 27.2744C214.111 27.2744 214.752 27.0283 215.275 26.5361C215.806 26.0439 216.209 25.3291 216.482 24.3916C216.763 23.4463 216.904 22.3057 216.904 20.9697C216.904 19.626 216.763 18.4814 216.482 17.5361C216.209 16.5908 215.806 15.8721 215.275 15.3799C214.752 14.8799 214.111 14.6299 213.353 14.6299C212.213 14.6299 211.334 15.1846 210.717 16.2939C210.107 17.3955 209.802 18.9541 209.802 20.9697C209.802 22.3057 209.939 23.4463 210.213 24.3916C210.486 25.3291 210.888 26.0439 211.42 26.5361C211.951 27.0283 212.595 27.2744 213.353 27.2744ZM221.511 29.6885V27.415L227.581 21.4619C228.152 20.876 228.628 20.3564 229.011 19.9033C229.402 19.4502 229.695 19.0127 229.89 18.5908C230.085 18.1611 230.183 17.7041 230.183 17.2197C230.183 16.6729 230.058 16.2002 229.808 15.8018C229.558 15.4033 229.214 15.0986 228.777 14.8877C228.347 14.6768 227.855 14.5713 227.3 14.5713C226.722 14.5713 226.218 14.6885 225.788 14.9229C225.359 15.1572 225.023 15.4893 224.781 15.9189C224.546 16.3486 224.429 16.8604 224.429 17.4541H221.429C221.429 16.3525 221.679 15.3955 222.179 14.583C222.687 13.7627 223.386 13.126 224.277 12.6729C225.167 12.2197 226.187 11.9932 227.335 11.9932C228.515 11.9932 229.546 12.2119 230.429 12.6494C231.312 13.0869 231.999 13.6885 232.492 14.4541C232.984 15.2119 233.23 16.0791 233.23 17.0557C233.23 17.7119 233.105 18.3564 232.855 18.9893C232.605 19.6143 232.163 20.3135 231.531 21.0869C230.906 21.8525 230.027 22.7783 228.894 23.8643L225.894 26.9229V27.0518H233.488V29.6885H221.511ZM241.47 29.9229C240.634 29.9229 239.817 29.7822 239.021 29.501C238.224 29.2119 237.509 28.7432 236.876 28.0947C236.243 27.4385 235.739 26.5674 235.364 25.4814C234.989 24.3955 234.802 23.0518 234.802 21.4502C234.802 19.958 234.962 18.6299 235.282 17.4658C235.603 16.2939 236.06 15.3018 236.653 14.4893C237.255 13.6768 237.974 13.0596 238.81 12.6377C239.653 12.208 240.599 11.9932 241.646 11.9932C242.747 11.9932 243.72 12.2119 244.563 12.6494C245.415 13.0791 246.103 13.665 246.626 14.4072C247.149 15.1494 247.474 15.9932 247.599 16.9385H244.493C244.337 16.2666 244.013 15.7314 243.521 15.333C243.028 14.9346 242.403 14.7354 241.646 14.7354C240.442 14.7354 239.513 15.2588 238.856 16.3057C238.208 17.3525 237.884 18.7979 237.884 20.6416H238.001C238.282 20.1416 238.642 19.7119 239.079 19.3525C239.524 18.9854 240.024 18.708 240.579 18.5205C241.142 18.3252 241.735 18.2275 242.36 18.2275C243.384 18.2275 244.302 18.4736 245.114 18.9658C245.927 19.4502 246.571 20.1221 247.048 20.9814C247.524 21.833 247.763 22.8096 247.763 23.9111C247.763 25.0596 247.501 26.0869 246.978 26.9932C246.454 27.8994 245.72 28.6143 244.774 29.1377C243.829 29.6611 242.728 29.9229 241.47 29.9229ZM241.446 27.3682C242.071 27.3682 242.626 27.2197 243.11 26.9229C243.603 26.6182 243.989 26.2119 244.271 25.7041C244.56 25.1885 244.704 24.6143 244.704 23.9814C244.704 23.3564 244.563 22.7939 244.282 22.2939C244.009 21.7861 243.63 21.3838 243.146 21.0869C242.669 20.79 242.118 20.6416 241.493 20.6416C240.884 20.6416 240.329 20.7939 239.829 21.0986C239.337 21.4033 238.946 21.8096 238.657 22.3174C238.368 22.8252 238.224 23.3838 238.224 23.9932C238.224 24.6025 238.364 25.165 238.646 25.6807C238.927 26.1885 239.31 26.5986 239.794 26.9111C240.278 27.2158 240.829 27.3682 241.446 27.3682ZM257.106 12.2275V29.6885H253.942V12.2275H257.106ZM259.018 29.6885V16.5869H261.959V18.8252H262.123C262.396 18.0752 262.85 17.4893 263.482 17.0674C264.115 16.6377 264.865 16.4229 265.732 16.4229C266.623 16.4229 267.373 16.6377 267.982 17.0674C268.592 17.4971 269.018 18.083 269.26 18.8252H269.4C269.697 18.0986 270.189 17.5166 270.877 17.0791C271.564 16.6416 272.385 16.4229 273.338 16.4229C274.541 16.4229 275.521 16.8057 276.279 17.5713C277.045 18.3291 277.428 19.4385 277.428 20.8994V29.6885H274.334V21.3682C274.334 20.5635 274.115 19.9736 273.678 19.5986C273.248 19.2158 272.721 19.0244 272.096 19.0244C271.354 19.0244 270.775 19.2588 270.361 19.7275C269.947 20.1885 269.74 20.7822 269.74 21.5088V29.6885H266.693V21.251C266.693 20.5713 266.494 20.0322 266.096 19.6338C265.697 19.2275 265.17 19.0244 264.514 19.0244C264.068 19.0244 263.662 19.1377 263.295 19.3643C262.928 19.5908 262.635 19.9072 262.416 20.3135C262.205 20.7197 262.1 21.1885 262.1 21.7197V29.6885H259.018ZM279.222 34.5869V16.5869H282.246V18.7549H282.433C282.589 18.4424 282.812 18.1064 283.101 17.7471C283.39 17.3799 283.781 17.0674 284.273 16.8096C284.773 16.5518 285.41 16.4229 286.183 16.4229C287.191 16.4229 288.101 16.6807 288.914 17.1963C289.726 17.7119 290.371 18.4697 290.847 19.4697C291.332 20.4697 291.574 21.7002 291.574 23.1611C291.574 24.5986 291.339 25.8213 290.871 26.8291C290.402 27.8369 289.757 28.6064 288.937 29.1377C288.125 29.6611 287.203 29.9229 286.172 29.9229C285.429 29.9229 284.808 29.7979 284.308 29.5479C283.816 29.29 283.418 28.9854 283.113 28.6338C282.816 28.2744 282.589 27.9346 282.433 27.6143H282.304V34.5869H279.222ZM285.328 27.3916C286.007 27.3916 286.574 27.208 287.027 26.8408C287.488 26.4736 287.836 25.9697 288.07 25.3291C288.304 24.6885 288.422 23.9619 288.422 23.1494C288.422 22.3369 288.304 21.6143 288.07 20.9814C287.836 20.3486 287.492 19.8525 287.039 19.4932C286.586 19.1338 286.015 18.9541 285.328 18.9541C284.664 18.9541 284.101 19.126 283.64 19.4697C283.187 19.8135 282.839 20.3018 282.597 20.9346C282.363 21.5596 282.246 22.2979 282.246 23.1494C282.246 23.9932 282.363 24.7354 282.597 25.376C282.839 26.0088 283.191 26.5049 283.652 26.8643C284.113 27.2158 284.672 27.3916 285.328 27.3916ZM296.568 29.958C295.732 29.958 294.982 29.8096 294.318 29.5127C293.654 29.208 293.13 28.7627 292.747 28.1768C292.365 27.5908 292.173 26.8682 292.173 26.0088C292.173 25.2744 292.31 24.665 292.583 24.1807C292.857 23.6963 293.228 23.3096 293.697 23.0205C294.173 22.7314 294.708 22.5127 295.302 22.3643C295.896 22.208 296.509 22.0986 297.142 22.0361C297.915 21.9502 298.54 21.876 299.017 21.8135C299.493 21.751 299.837 21.6494 300.048 21.5088C300.267 21.3682 300.376 21.1494 300.376 20.8525V20.7939C300.376 20.1611 300.189 19.6689 299.814 19.3174C299.439 18.9658 298.892 18.79 298.173 18.79C297.415 18.79 296.814 18.9541 296.368 19.2822C295.931 19.6104 295.634 19.9971 295.478 20.4424L292.607 20.0322C292.833 19.2354 293.208 18.5713 293.732 18.04C294.255 17.501 294.892 17.0986 295.642 16.833C296.4 16.5596 297.236 16.4229 298.15 16.4229C298.775 16.4229 299.4 16.4971 300.025 16.6455C300.65 16.7861 301.224 17.0283 301.747 17.3721C302.271 17.7158 302.689 18.1768 303.001 18.7549C303.314 19.333 303.47 20.0557 303.47 20.9229V29.6885H300.505V27.8838H300.411C300.224 28.2432 299.958 28.583 299.615 28.9033C299.279 29.2158 298.857 29.4697 298.349 29.665C297.849 29.8604 297.255 29.958 296.568 29.958ZM297.353 27.6846C297.978 27.6846 298.517 27.5635 298.97 27.3213C299.423 27.0713 299.775 26.7432 300.025 26.3369C300.275 25.9229 300.4 25.4736 300.4 24.9893V23.4541C300.298 23.5322 300.134 23.6064 299.908 23.6768C299.681 23.7393 299.423 23.7979 299.134 23.8525C298.845 23.9072 298.56 23.9541 298.279 23.9932C298.005 24.0322 297.767 24.0635 297.564 24.0869C297.103 24.1494 296.689 24.2549 296.322 24.4033C295.962 24.5439 295.677 24.7393 295.466 24.9893C295.255 25.2393 295.15 25.5635 295.15 25.9619C295.15 26.5322 295.357 26.9619 295.771 27.251C296.185 27.54 296.712 27.6846 297.353 27.6846ZM310.972 29.9463C309.667 29.9463 308.546 29.6611 307.608 29.0908C306.671 28.5127 305.952 27.7158 305.452 26.7002C304.952 25.6846 304.702 24.5166 304.702 23.1963C304.702 21.8604 304.956 20.6846 305.464 19.6689C305.972 18.6533 306.694 17.8604 307.632 17.29C308.569 16.7119 309.675 16.4229 310.948 16.4229C312.018 16.4229 312.964 16.6182 313.784 17.0088C314.604 17.3994 315.257 17.9502 315.741 18.6611C316.233 19.3643 316.515 20.1885 316.585 21.1338H313.632C313.554 20.7119 313.401 20.333 313.175 19.9971C312.948 19.6611 312.651 19.3955 312.284 19.2002C311.925 19.0049 311.495 18.9072 310.995 18.9072C310.362 18.9072 309.808 19.0791 309.331 19.4229C308.862 19.7588 308.495 20.2432 308.229 20.876C307.964 21.5088 307.831 22.2666 307.831 23.1494C307.831 24.04 307.96 24.8096 308.218 25.458C308.476 26.0986 308.843 26.5947 309.319 26.9463C309.796 27.29 310.354 27.4619 310.995 27.4619C311.675 27.4619 312.249 27.2627 312.718 26.8643C313.194 26.4658 313.499 25.915 313.632 25.2119H316.585C316.515 26.1416 316.241 26.9619 315.765 27.6729C315.288 28.3838 314.643 28.9424 313.831 29.3486C313.018 29.7471 312.065 29.9463 310.972 29.9463ZM324.286 16.5869V18.9775H316.774V16.5869H324.286ZM318.614 13.4697H321.696V25.751C321.696 26.2666 321.809 26.6494 322.036 26.8994C322.262 27.1416 322.622 27.2627 323.114 27.2627C323.247 27.2627 323.395 27.251 323.559 27.2275C323.723 27.2041 323.872 27.1768 324.004 27.1455L324.532 29.5596C324.204 29.6611 323.872 29.7354 323.536 29.7822C323.2 29.8369 322.864 29.8643 322.528 29.8643C321.309 29.8643 320.352 29.5439 319.657 28.9033C318.962 28.2549 318.614 27.3721 318.614 26.2549V13.4697Z" fill="white"/>
<path d="M54.8878 51V39.3594H58.9659C59.7732 39.3594 60.4399 39.5 60.9659 39.7812C61.492 40.0573 61.8826 40.4297 62.1378 40.8984C62.3982 41.3672 62.5284 41.8854 62.5284 42.4531C62.5284 42.9531 62.4399 43.3672 62.2628 43.6953C62.0857 44.0182 61.8539 44.276 61.5675 44.4688C61.281 44.6562 60.9711 44.7969 60.6378 44.8906V45C60.9972 45.0208 61.3565 45.1458 61.7159 45.375C62.0753 45.6042 62.3748 45.9297 62.6143 46.3516C62.8591 46.7734 62.9815 47.2917 62.9815 47.9062C62.9815 48.4896 62.8487 49.0156 62.5831 49.4844C62.3175 49.9479 61.8982 50.3177 61.3253 50.5938C60.7576 50.8646 60.0128 51 59.0909 51H54.8878ZM56.294 49.75H59.0909C60.0128 49.75 60.6664 49.5703 61.0518 49.2109C61.4425 48.8516 61.6378 48.4167 61.6378 47.9062C61.6378 47.5104 61.5362 47.1458 61.3331 46.8125C61.1352 46.4792 60.8513 46.2109 60.4815 46.0078C60.1117 45.8047 59.6742 45.7031 59.169 45.7031H56.294V49.75ZM56.294 44.4844H58.919C59.3409 44.4844 59.7237 44.401 60.0675 44.2344C60.4112 44.0625 60.6821 43.8255 60.88 43.5234C61.0831 43.2161 61.1847 42.8594 61.1847 42.4531C61.1847 41.9427 61.0076 41.5078 60.6534 41.1484C60.2992 40.7891 59.7367 40.6094 58.9659 40.6094H56.294V44.4844ZM64.3237 51V39.3594H71.3549V40.6094H65.7299V44.5H70.9799V45.75H65.7299V49.75H71.433V51H64.3237ZM76.6033 51.2031C75.77 51.2031 75.0486 51.0703 74.4392 50.8047C73.8298 50.5339 73.3507 50.1589 73.0017 49.6797C72.658 49.1953 72.4627 48.6354 72.4158 48H73.8689C73.9106 48.4375 74.059 48.7995 74.3142 49.0859C74.5746 49.3724 74.9054 49.5859 75.3064 49.7266C75.7075 49.8672 76.1397 49.9375 76.6033 49.9375C77.1397 49.9375 77.6215 49.849 78.0486 49.6719C78.4809 49.4948 78.822 49.2474 79.072 48.9297C79.322 48.612 79.447 48.2396 79.447 47.8125C79.447 47.4271 79.3377 47.1146 79.1189 46.875C78.9002 46.6354 78.6137 46.4401 78.2595 46.2891C77.9106 46.138 77.5304 46.0052 77.1189 45.8906L75.697 45.4844C74.7856 45.224 74.0642 44.8516 73.533 44.3672C73.0069 43.8776 72.7439 43.2396 72.7439 42.4531C72.7439 41.8021 72.9184 41.2344 73.2673 40.75C73.6215 40.2604 74.0981 39.8802 74.697 39.6094C75.3012 39.3385 75.9731 39.2031 76.7127 39.2031C77.4627 39.2031 78.1293 39.3385 78.7127 39.6094C79.296 39.875 79.7595 40.2396 80.1033 40.7031C80.447 41.1615 80.6293 41.6823 80.6502 42.2656H79.2752C79.2075 41.6927 78.9314 41.2474 78.447 40.9297C77.9679 40.612 77.3741 40.4531 76.6658 40.4531C76.1554 40.4531 75.7075 40.5365 75.322 40.7031C74.9366 40.8698 74.6371 41.099 74.4236 41.3906C74.2101 41.6823 74.1033 42.0156 74.1033 42.3906C74.1033 42.8021 74.2309 43.1354 74.4861 43.3906C74.7413 43.6406 75.0434 43.8359 75.3923 43.9766C75.7465 44.1172 76.0668 44.2292 76.3533 44.3125L77.5252 44.6406C77.8272 44.724 78.1632 44.8359 78.533 44.9766C78.908 45.1172 79.2673 45.3073 79.6111 45.5469C79.9601 45.7865 80.2465 46.0938 80.4705 46.4688C80.6944 46.8385 80.8064 47.2969 80.8064 47.8438C80.8064 48.4688 80.6423 49.0365 80.3142 49.5469C79.9861 50.0521 79.5095 50.4557 78.8845 50.7578C78.2595 51.0547 77.4991 51.2031 76.6033 51.2031ZM81.5079 40.6094V39.3594H90.2423V40.6094H86.586V51H85.1798V40.6094H81.5079ZM94.9734 51V39.3594H102.005V40.6094H96.3797V44.5H101.63V45.75H96.3797V49.75H102.083V51H94.9734ZM107.175 42.2656V43.4062H102.659V42.2656H107.175ZM103.972 40.1875H105.3V48.5C105.3 48.9531 105.394 49.2865 105.581 49.5C105.769 49.7083 106.066 49.8125 106.472 49.8125C106.56 49.8125 106.651 49.8073 106.745 49.7969C106.844 49.7865 106.951 49.7708 107.066 49.75L107.347 50.9531C107.222 51 107.068 51.0365 106.886 51.0625C106.709 51.0938 106.529 51.1094 106.347 51.1094C105.644 51.1094 105.071 50.901 104.628 50.4844C104.191 50.0677 103.972 49.526 103.972 48.8594V40.1875ZM109.751 45.75V51H108.423V39.3594H109.751V43.6406H109.876C110.08 43.1875 110.384 42.8281 110.79 42.5625C111.202 42.2917 111.751 42.1562 112.439 42.1562C113.033 42.1562 113.554 42.276 114.001 42.5156C114.449 42.75 114.798 43.112 115.048 43.6016C115.298 44.0859 115.423 44.7031 115.423 45.4531V51H114.08V45.5469C114.08 44.849 113.9 44.3099 113.54 43.9297C113.181 43.5495 112.684 43.3594 112.048 43.3594C111.606 43.3594 111.212 43.4531 110.869 43.6406C110.525 43.8281 110.251 44.099 110.048 44.4531C109.85 44.8073 109.751 45.2396 109.751 45.75ZM120.578 51.1875C119.739 51.1875 119.013 51 118.398 50.625C117.789 50.25 117.32 49.7266 116.992 49.0547C116.664 48.3776 116.5 47.5938 116.5 46.7031C116.5 45.8073 116.661 45.0182 116.984 44.3359C117.307 43.6536 117.76 43.1198 118.344 42.7344C118.932 42.349 119.62 42.1562 120.406 42.1562C120.859 42.1562 121.31 42.2318 121.758 42.3828C122.206 42.5339 122.612 42.7786 122.976 43.1172C123.346 43.4557 123.64 43.9036 123.859 44.4609C124.078 45.0182 124.187 45.7031 124.187 46.5156V47.0938H117.453V45.9375H123.461L122.844 46.375C122.844 45.7917 122.752 45.2734 122.57 44.8203C122.388 44.3672 122.114 44.0104 121.75 43.75C121.39 43.4896 120.943 43.3594 120.406 43.3594C119.87 43.3594 119.409 43.4922 119.023 43.7578C118.643 44.0182 118.351 44.3594 118.148 44.7812C117.945 45.2031 117.844 45.6562 117.844 46.1406V46.9062C117.844 47.5677 117.958 48.1276 118.187 48.5859C118.416 49.0443 118.737 49.3932 119.148 49.6328C119.56 49.8672 120.036 49.9844 120.578 49.9844C120.927 49.9844 121.245 49.9349 121.531 49.8359C121.818 49.7318 122.065 49.5781 122.273 49.375C122.482 49.1667 122.64 48.9115 122.75 48.6094L124.047 48.9844C123.911 49.4219 123.682 49.8073 123.359 50.1406C123.041 50.4688 122.646 50.7266 122.172 50.9141C121.698 51.0964 121.166 51.1875 120.578 51.1875ZM125.233 51V42.2656H126.514V43.5938H126.608C126.769 43.1615 127.058 42.8125 127.475 42.5469C127.897 42.276 128.368 42.1406 128.889 42.1406C128.988 42.1406 129.11 42.1432 129.256 42.1484C129.402 42.1484 129.514 42.151 129.592 42.1562V43.5156C129.545 43.5052 129.441 43.4896 129.279 43.4688C129.118 43.4479 128.946 43.4375 128.764 43.4375C128.342 43.4375 127.964 43.526 127.631 43.7031C127.298 43.8802 127.035 44.1224 126.842 44.4297C126.654 44.737 126.561 45.0885 126.561 45.4844V51H125.233ZM133.606 51.1875C132.767 51.1875 132.041 51 131.426 50.625C130.817 50.25 130.348 49.7266 130.02 49.0547C129.692 48.3776 129.528 47.5938 129.528 46.7031C129.528 45.8073 129.689 45.0182 130.012 44.3359C130.335 43.6536 130.788 43.1198 131.372 42.7344C131.96 42.349 132.648 42.1562 133.434 42.1562C133.887 42.1562 134.338 42.2318 134.786 42.3828C135.234 42.5339 135.64 42.7786 136.004 43.1172C136.374 43.4557 136.668 43.9036 136.887 44.4609C137.106 45.0182 137.215 45.7031 137.215 46.5156V47.0938H130.481V45.9375H136.489L135.872 46.375C135.872 45.7917 135.78 45.2734 135.598 44.8203C135.416 44.3672 135.142 44.0104 134.778 43.75C134.418 43.4896 133.971 43.3594 133.434 43.3594C132.898 43.3594 132.437 43.4922 132.051 43.7578C131.671 44.0182 131.379 44.3594 131.176 44.7812C130.973 45.2031 130.872 45.6562 130.872 46.1406V46.9062C130.872 47.5677 130.986 48.1276 131.215 48.5859C131.444 49.0443 131.765 49.3932 132.176 49.6328C132.588 49.8672 133.064 49.9844 133.606 49.9844C133.955 49.9844 134.273 49.9349 134.559 49.8359C134.846 49.7318 135.093 49.5781 135.301 49.375C135.51 49.1667 135.668 48.9115 135.778 48.6094L137.075 48.9844C136.939 49.4219 136.71 49.8073 136.387 50.1406C136.069 50.4688 135.674 50.7266 135.2 50.9141C134.726 51.0964 134.194 51.1875 133.606 51.1875ZM143.761 47.4375V42.2656H145.089V51H143.761V49.5156H143.667C143.458 49.9583 143.138 50.3359 142.706 50.6484C142.279 50.9609 141.735 51.1146 141.073 51.1094C140.526 51.1094 140.042 50.9922 139.62 50.7578C139.198 50.5182 138.865 50.1536 138.62 49.6641C138.38 49.1745 138.261 48.5573 138.261 47.8125V42.2656H139.589V47.7344C139.589 48.3646 139.768 48.8698 140.128 49.25C140.492 49.6302 140.953 49.8177 141.511 49.8125C141.844 49.8125 142.182 49.7292 142.526 49.5625C142.875 49.3906 143.167 49.1302 143.401 48.7812C143.641 48.4271 143.761 47.9792 143.761 47.4375ZM146.587 51V42.2656H147.868V43.6406H147.993C148.176 43.1719 148.47 42.8073 148.876 42.5469C149.282 42.2865 149.769 42.1562 150.337 42.1562C150.91 42.1562 151.387 42.2865 151.767 42.5469C152.152 42.8073 152.452 43.1719 152.665 43.6406H152.759C152.988 43.1875 153.324 42.8281 153.767 42.5625C154.215 42.2917 154.749 42.1562 155.368 42.1562C156.15 42.1562 156.79 42.401 157.29 42.8906C157.79 43.375 158.04 44.1302 158.04 45.1562V51H156.696V45.1562C156.696 44.5104 156.519 44.0495 156.165 43.7734C155.811 43.4974 155.394 43.3594 154.915 43.3594C154.306 43.3594 153.832 43.5469 153.493 43.9219C153.16 44.2917 152.993 44.7552 152.993 45.3125V51H151.618V45.0156C151.618 44.5208 151.459 44.1224 151.142 43.8203C150.824 43.513 150.41 43.3594 149.9 43.3594C149.551 43.3594 149.225 43.4531 148.923 43.6406C148.621 43.8281 148.376 44.0859 148.189 44.4141C148.006 44.7422 147.915 45.1198 147.915 45.5469V51H146.587ZM167.928 51.1562C166.938 51.1562 166.055 50.9141 165.279 50.4297C164.503 49.9453 163.894 49.2578 163.451 48.3672C163.008 47.4714 162.787 46.4115 162.787 45.1875C162.787 43.9583 163.008 42.8958 163.451 42C163.894 41.1042 164.503 40.4141 165.279 39.9297C166.055 39.4453 166.938 39.2031 167.928 39.2031C168.511 39.2031 169.06 39.2891 169.576 39.4609C170.097 39.6328 170.566 39.8828 170.982 40.2109C171.399 40.5339 171.745 40.9323 172.021 41.4062C172.303 41.875 172.495 42.4062 172.599 43H171.193C171.11 42.5938 170.964 42.237 170.756 41.9297C170.553 41.6224 170.303 41.3646 170.006 41.1562C169.714 40.9427 169.391 40.7839 169.037 40.6797C168.683 40.5703 168.313 40.5156 167.928 40.5156C167.224 40.5156 166.586 40.6953 166.013 41.0547C165.441 41.4089 164.985 41.9349 164.646 42.6328C164.313 43.3255 164.146 44.1771 164.146 45.1875C164.146 46.1927 164.313 47.0417 164.646 47.7344C164.985 48.4271 165.441 48.9531 166.013 49.3125C166.586 49.6667 167.224 49.8438 167.928 49.8438C168.313 49.8438 168.683 49.7917 169.037 49.6875C169.391 49.5781 169.714 49.4193 170.006 49.2109C170.303 48.9974 170.553 48.737 170.756 48.4297C170.964 48.1224 171.11 47.7656 171.193 47.3594H172.599C172.495 47.9583 172.303 48.4922 172.021 48.9609C171.745 49.4297 171.399 49.8281 170.982 50.1562C170.566 50.4792 170.097 50.7266 169.576 50.8984C169.06 51.0703 168.511 51.1562 167.928 51.1562ZM177.27 51.1875C176.483 51.1875 175.793 51 175.199 50.625C174.606 50.25 174.142 49.724 173.809 49.0469C173.481 48.3698 173.317 47.5833 173.317 46.6875C173.317 45.776 173.481 44.9818 173.809 44.3047C174.142 43.6224 174.606 43.0938 175.199 42.7188C175.793 42.3438 176.483 42.1562 177.27 42.1562C178.061 42.1562 178.754 42.3438 179.348 42.7188C179.942 43.0938 180.405 43.6224 180.738 44.3047C181.072 44.9818 181.238 45.776 181.238 46.6875C181.238 47.5833 181.072 48.3698 180.738 49.0469C180.405 49.724 179.942 50.25 179.348 50.625C178.754 51 178.061 51.1875 177.27 51.1875ZM177.27 49.9844C177.874 49.9844 178.369 49.8307 178.754 49.5234C179.139 49.2161 179.426 48.8125 179.613 48.3125C179.801 47.8073 179.895 47.2656 179.895 46.6875C179.895 46.099 179.801 45.5521 179.613 45.0469C179.426 44.5417 179.139 44.1354 178.754 43.8281C178.369 43.5156 177.874 43.3594 177.27 43.3594C176.676 43.3594 176.186 43.5156 175.801 43.8281C175.416 44.1354 175.129 44.5417 174.942 45.0469C174.754 45.5521 174.66 46.099 174.66 46.6875C174.66 47.2656 174.754 47.8073 174.942 48.3125C175.129 48.8125 175.416 49.2161 175.801 49.5234C176.186 49.8307 176.676 49.9844 177.27 49.9844ZM183.643 45.75V51H182.315V42.2656H183.596V43.6406H183.721C183.924 43.1927 184.234 42.8333 184.651 42.5625C185.068 42.2917 185.607 42.1562 186.268 42.1562C186.857 42.1562 187.372 42.276 187.815 42.5156C188.258 42.7552 188.601 43.1198 188.846 43.6094C189.096 44.0938 189.221 44.7083 189.221 45.4531V51H187.893V45.5469C187.893 44.8646 187.713 44.3307 187.354 43.9453C186.995 43.5547 186.505 43.3594 185.885 43.3594C185.458 43.3594 185.075 43.4531 184.737 43.6406C184.398 43.8281 184.13 44.099 183.932 44.4531C183.739 44.8073 183.643 45.2396 183.643 45.75ZM194.595 42.2656V43.4062H189.891V42.2656H194.595ZM191.298 51V41.0625C191.298 40.5625 191.415 40.1458 191.649 39.8125C191.889 39.4792 192.196 39.2292 192.571 39.0625C192.946 38.8958 193.339 38.8125 193.751 38.8125C194.084 38.8125 194.355 38.8411 194.563 38.8984C194.777 38.9505 194.933 39 195.032 39.0469L194.641 40.2031C194.574 40.1771 194.48 40.1484 194.36 40.1172C194.246 40.0807 194.089 40.0625 193.891 40.0625C193.449 40.0625 193.126 40.1771 192.923 40.4062C192.725 40.6302 192.626 40.9583 192.626 41.3906V51H191.298ZM198.812 51.1875C197.973 51.1875 197.247 51 196.632 50.625C196.023 50.25 195.554 49.7266 195.226 49.0547C194.898 48.3776 194.734 47.5938 194.734 46.7031C194.734 45.8073 194.895 45.0182 195.218 44.3359C195.541 43.6536 195.994 43.1198 196.577 42.7344C197.166 42.349 197.853 42.1562 198.64 42.1562C199.093 42.1562 199.543 42.2318 199.991 42.3828C200.439 42.5339 200.846 42.7786 201.21 43.1172C201.58 43.4557 201.874 43.9036 202.093 44.4609C202.312 45.0182 202.421 45.7031 202.421 46.5156V47.0938H195.687V45.9375H201.695L201.077 46.375C201.077 45.7917 200.986 45.2734 200.804 44.8203C200.622 44.3672 200.348 44.0104 199.984 43.75C199.624 43.4896 199.176 43.3594 198.64 43.3594C198.103 43.3594 197.642 43.4922 197.257 43.7578C196.877 44.0182 196.585 44.3594 196.382 44.7812C196.179 45.2031 196.077 45.6562 196.077 46.1406V46.9062C196.077 47.5677 196.192 48.1276 196.421 48.5859C196.65 49.0443 196.971 49.3932 197.382 49.6328C197.793 49.8672 198.27 49.9844 198.812 49.9844C199.161 49.9844 199.478 49.9349 199.765 49.8359C200.051 49.7318 200.299 49.5781 200.507 49.375C200.715 49.1667 200.874 48.9115 200.984 48.6094L202.28 48.9844C202.145 49.4219 201.916 49.8073 201.593 50.1406C201.275 50.4688 200.879 50.7266 200.405 50.9141C199.931 51.0964 199.4 51.1875 198.812 51.1875ZM203.466 51V42.2656H204.748V43.5938H204.841C205.003 43.1615 205.292 42.8125 205.708 42.5469C206.13 42.276 206.602 42.1406 207.123 42.1406C207.222 42.1406 207.344 42.1432 207.49 42.1484C207.636 42.1484 207.748 42.151 207.826 42.1562V43.5156C207.779 43.5052 207.675 43.4896 207.513 43.4688C207.352 43.4479 207.18 43.4375 206.998 43.4375C206.576 43.4375 206.198 43.526 205.865 43.7031C205.531 43.8802 205.268 44.1224 205.076 44.4297C204.888 44.737 204.794 45.0885 204.794 45.4844V51H203.466ZM211.84 51.1875C211.001 51.1875 210.275 51 209.66 50.625C209.051 50.25 208.582 49.7266 208.254 49.0547C207.926 48.3776 207.762 47.5938 207.762 46.7031C207.762 45.8073 207.923 45.0182 208.246 44.3359C208.569 43.6536 209.022 43.1198 209.605 42.7344C210.194 42.349 210.881 42.1562 211.668 42.1562C212.121 42.1562 212.571 42.2318 213.019 42.3828C213.467 42.5339 213.874 42.7786 214.238 43.1172C214.608 43.4557 214.902 43.9036 215.121 44.4609C215.34 45.0182 215.449 45.7031 215.449 46.5156V47.0938H208.715V45.9375H214.723L214.105 46.375C214.105 45.7917 214.014 45.2734 213.832 44.8203C213.65 44.3672 213.376 44.0104 213.012 43.75C212.652 43.4896 212.204 43.3594 211.668 43.3594C211.131 43.3594 210.67 43.4922 210.285 43.7578C209.905 44.0182 209.613 44.3594 209.41 44.7812C209.207 45.2031 209.105 45.6562 209.105 46.1406V46.9062C209.105 47.5677 209.22 48.1276 209.449 48.5859C209.678 49.0443 209.999 49.3932 210.41 49.6328C210.821 49.8672 211.298 49.9844 211.84 49.9844C212.189 49.9844 212.506 49.9349 212.793 49.8359C213.079 49.7318 213.327 49.5781 213.535 49.375C213.743 49.1667 213.902 48.9115 214.012 48.6094L215.308 48.9844C215.173 49.4219 214.944 49.8073 214.621 50.1406C214.303 50.4688 213.907 50.7266 213.433 50.9141C212.959 51.0964 212.428 51.1875 211.84 51.1875ZM217.822 45.75V51H216.494V42.2656H217.776V43.6406H217.901C218.104 43.1927 218.414 42.8333 218.83 42.5625C219.247 42.2917 219.786 42.1562 220.447 42.1562C221.036 42.1562 221.552 42.276 221.994 42.5156C222.437 42.7552 222.781 43.1198 223.026 43.6094C223.276 44.0938 223.401 44.7083 223.401 45.4531V51H222.072V45.5469C222.072 44.8646 221.893 44.3307 221.533 43.9453C221.174 43.5547 220.684 43.3594 220.065 43.3594C219.638 43.3594 219.255 43.4531 218.916 43.6406C218.578 43.8281 218.309 44.099 218.111 44.4531C217.919 44.8073 217.822 45.2396 217.822 45.75ZM228.43 51.1875C227.618 51.1875 226.915 50.9948 226.321 50.6094C225.732 50.2188 225.277 49.6849 224.954 49.0078C224.636 48.3307 224.477 47.5573 224.477 46.6875C224.477 45.7969 224.641 45.013 224.969 44.3359C225.297 43.6536 225.756 43.1198 226.344 42.7344C226.938 42.349 227.628 42.1562 228.415 42.1562C229.029 42.1562 229.581 42.2708 230.071 42.5C230.566 42.724 230.969 43.0417 231.282 43.4531C231.599 43.8646 231.795 44.3438 231.868 44.8906H230.524C230.456 44.625 230.334 44.375 230.157 44.1406C229.98 43.9062 229.745 43.7188 229.454 43.5781C229.167 43.4323 228.826 43.3594 228.43 43.3594C227.909 43.3594 227.454 43.4948 227.063 43.7656C226.672 44.0365 226.368 44.4193 226.149 44.9141C225.93 45.4036 225.821 45.9792 225.821 46.6406C225.821 47.3125 225.928 47.901 226.141 48.4062C226.355 48.9062 226.657 49.2943 227.047 49.5703C227.443 49.8464 227.904 49.9844 228.43 49.9844C228.956 49.9844 229.407 49.849 229.782 49.5781C230.157 49.3021 230.404 48.9271 230.524 48.4531H231.868C231.795 48.9688 231.607 49.4323 231.305 49.8438C231.008 50.2552 230.615 50.5833 230.126 50.8281C229.641 51.0677 229.076 51.1875 228.43 51.1875ZM236.569 51.1875C235.731 51.1875 235.004 51 234.39 50.625C233.78 50.25 233.311 49.7266 232.983 49.0547C232.655 48.3776 232.491 47.5938 232.491 46.7031C232.491 45.8073 232.653 45.0182 232.975 44.3359C233.298 43.6536 233.751 43.1198 234.335 42.7344C234.923 42.349 235.611 42.1562 236.397 42.1562C236.85 42.1562 237.301 42.2318 237.749 42.3828C238.197 42.5339 238.603 42.7786 238.968 43.1172C239.337 43.4557 239.632 43.9036 239.85 44.4609C240.069 45.0182 240.179 45.7031 240.179 46.5156V47.0938H233.444V45.9375H239.452L238.835 46.375C238.835 45.7917 238.744 45.2734 238.561 44.8203C238.379 44.3672 238.106 44.0104 237.741 43.75C237.382 43.4896 236.934 43.3594 236.397 43.3594C235.861 43.3594 235.4 43.4922 235.015 43.7578C234.634 44.0182 234.343 44.3594 234.14 44.7812C233.936 45.2031 233.835 45.6562 233.835 46.1406V46.9062C233.835 47.5677 233.949 48.1276 234.179 48.5859C234.408 49.0443 234.728 49.3932 235.14 49.6328C235.551 49.8672 236.028 49.9844 236.569 49.9844C236.918 49.9844 237.236 49.9349 237.522 49.8359C237.809 49.7318 238.056 49.5781 238.265 49.375C238.473 49.1667 238.632 48.9115 238.741 48.6094L240.038 48.9844C239.903 49.4219 239.673 49.8073 239.35 50.1406C239.033 50.4688 238.637 50.7266 238.163 50.9141C237.689 51.0964 237.158 51.1875 236.569 51.1875ZM248.035 51.1562C247.274 51.1562 246.615 51.0182 246.058 50.7422C245.506 50.4609 245.079 50.0755 244.777 49.5859C244.48 49.0964 244.332 48.5365 244.332 47.9062C244.332 47.4219 244.438 46.9948 244.652 46.625C244.865 46.2552 245.154 45.9115 245.519 45.5938C245.889 45.2708 246.306 44.9375 246.769 44.5938L248.457 43.3438C248.774 43.1094 249.032 42.875 249.23 42.6406C249.433 42.401 249.535 42.0833 249.535 41.6875C249.535 41.3906 249.404 41.1042 249.144 40.8281C248.889 40.5469 248.55 40.4062 248.128 40.4062C247.837 40.4062 247.576 40.4818 247.347 40.6328C247.123 40.7786 246.946 40.9661 246.816 41.1953C246.691 41.4245 246.628 41.6615 246.628 41.9062C246.628 42.1771 246.704 42.4531 246.855 42.7344C247.006 43.0156 247.199 43.3021 247.433 43.5938C247.668 43.8802 247.91 44.1771 248.16 44.4844L253.503 51H251.878L247.472 45.6875C247.066 45.1927 246.696 44.7448 246.363 44.3438C246.029 43.9375 245.764 43.5417 245.566 43.1562C245.368 42.7656 245.269 42.3438 245.269 41.8906C245.269 41.3646 245.386 40.9036 245.621 40.5078C245.855 40.112 246.183 39.8047 246.605 39.5859C247.027 39.362 247.519 39.25 248.082 39.25C248.67 39.25 249.175 39.362 249.597 39.5859C250.019 39.8099 250.342 40.1068 250.566 40.4766C250.795 40.8464 250.91 41.25 250.91 41.6875C250.91 42.2396 250.769 42.7188 250.488 43.125C250.212 43.5312 249.837 43.9115 249.363 44.2656L247.035 46C246.514 46.3854 246.162 46.7604 245.98 47.125C245.798 47.4896 245.707 47.75 245.707 47.9062C245.707 48.2708 245.8 48.612 245.988 48.9297C246.181 49.2422 246.449 49.4974 246.793 49.6953C247.136 49.888 247.54 49.9844 248.003 49.9844C248.441 49.9844 248.868 49.8906 249.285 49.7031C249.701 49.5104 250.076 49.237 250.41 48.8828C250.748 48.5286 251.016 48.1016 251.214 47.6016C251.418 47.0964 251.519 46.5312 251.519 45.9062H252.816C252.816 46.6771 252.727 47.3073 252.55 47.7969C252.373 48.2865 252.173 48.6693 251.949 48.9453C251.725 49.2214 251.545 49.4271 251.41 49.5625C251.363 49.6198 251.319 49.6771 251.277 49.7344C251.24 49.7917 251.201 49.849 251.16 49.9062C250.779 50.3281 250.303 50.6432 249.73 50.8516C249.157 51.0547 248.592 51.1562 248.035 51.1562ZM257.719 51V39.3594H259.125V44.5469H265.328V39.3594H266.735V51H265.328V45.7969H259.125V51H257.719ZM270.967 51.2031C270.415 51.2031 269.913 51.099 269.46 50.8906C269.006 50.6771 268.647 50.3698 268.381 49.9688C268.116 49.5677 267.983 49.0833 267.983 48.5156C267.983 48.0156 268.082 47.612 268.28 47.3047C268.478 46.9922 268.741 46.7474 269.069 46.5703C269.402 46.388 269.767 46.2526 270.163 46.1641C270.564 46.0755 270.967 46.0052 271.374 45.9531C271.905 45.8854 272.335 45.8333 272.663 45.7969C272.996 45.7604 273.238 45.6979 273.389 45.6094C273.545 45.5208 273.624 45.3698 273.624 45.1562V45.1094C273.624 44.5521 273.47 44.1198 273.163 43.8125C272.861 43.5 272.4 43.3438 271.78 43.3438C271.144 43.3438 270.644 43.4844 270.28 43.7656C269.915 44.0417 269.66 44.3385 269.514 44.6562L268.233 44.2031C268.462 43.6719 268.767 43.2578 269.147 42.9609C269.532 42.6641 269.949 42.4557 270.397 42.3359C270.85 42.2161 271.295 42.1562 271.733 42.1562C272.014 42.1562 272.337 42.1901 272.702 42.2578C273.066 42.3203 273.42 42.4557 273.764 42.6641C274.113 42.8672 274.4 43.1771 274.624 43.5938C274.853 44.0052 274.967 44.5573 274.967 45.25V51H273.624V49.8125H273.561C273.473 50 273.321 50.2031 273.108 50.4219C272.894 50.6354 272.611 50.8203 272.256 50.9766C271.907 51.1276 271.478 51.2031 270.967 51.2031ZM271.17 50C271.702 50 272.15 49.8958 272.514 49.6875C272.879 49.4792 273.155 49.2109 273.342 48.8828C273.53 48.5495 273.624 48.2031 273.624 47.8438V46.6094C273.566 46.6771 273.441 46.7396 273.249 46.7969C273.061 46.849 272.842 46.8958 272.592 46.9375C272.348 46.9792 272.108 47.0156 271.874 47.0469C271.639 47.0729 271.452 47.0938 271.311 47.1094C270.962 47.1562 270.637 47.2318 270.335 47.3359C270.032 47.4349 269.788 47.5833 269.6 47.7812C269.418 47.9792 269.327 48.25 269.327 48.5938C269.327 49.0573 269.499 49.4089 269.842 49.6484C270.191 49.8828 270.634 50 271.17 50ZM279.997 51.1875C279.184 51.1875 278.481 50.9948 277.888 50.6094C277.299 50.2188 276.843 49.6849 276.52 49.0078C276.203 48.3307 276.044 47.5573 276.044 46.6875C276.044 45.7969 276.208 45.013 276.536 44.3359C276.864 43.6536 277.322 43.1198 277.911 42.7344C278.505 42.349 279.195 42.1562 279.981 42.1562C280.596 42.1562 281.148 42.2708 281.638 42.5C282.132 42.724 282.536 43.0417 282.849 43.4531C283.166 43.8646 283.362 44.3438 283.434 44.8906H282.091C282.023 44.625 281.901 44.375 281.724 44.1406C281.546 43.9062 281.312 43.7188 281.02 43.5781C280.734 43.4323 280.393 43.3594 279.997 43.3594C279.476 43.3594 279.02 43.4948 278.63 43.7656C278.239 44.0365 277.934 44.4193 277.716 44.9141C277.497 45.4036 277.388 45.9792 277.388 46.6406C277.388 47.3125 277.494 47.901 277.708 48.4062C277.921 48.9062 278.224 49.2943 278.614 49.5703C279.01 49.8464 279.471 49.9844 279.997 49.9844C280.523 49.9844 280.974 49.849 281.349 49.5781C281.724 49.3021 281.971 48.9271 282.091 48.4531H283.434C283.362 48.9688 283.174 49.4323 282.872 49.8438C282.575 50.2552 282.182 50.5833 281.692 50.8281C281.208 51.0677 280.643 51.1875 279.997 51.1875ZM285.73 47.8125L285.698 46.1562H285.98L289.792 42.2656H291.448L287.386 46.3906H287.261L285.73 47.8125ZM284.48 51V39.3594H285.808V51H284.48ZM290.011 51L286.605 46.6875L287.558 45.75L291.73 51H290.011ZM294.775 51.2031C294.223 51.2031 293.72 51.099 293.267 50.8906C292.814 50.6771 292.455 50.3698 292.189 49.9688C291.923 49.5677 291.791 49.0833 291.791 48.5156C291.791 48.0156 291.89 47.612 292.087 47.3047C292.285 46.9922 292.548 46.7474 292.877 46.5703C293.21 46.388 293.574 46.2526 293.97 46.1641C294.371 46.0755 294.775 46.0052 295.181 45.9531C295.712 45.8854 296.142 45.8333 296.47 45.7969C296.804 45.7604 297.046 45.6979 297.197 45.6094C297.353 45.5208 297.431 45.3698 297.431 45.1562V45.1094C297.431 44.5521 297.278 44.1198 296.97 43.8125C296.668 43.5 296.207 43.3438 295.587 43.3438C294.952 43.3438 294.452 43.4844 294.087 43.7656C293.723 44.0417 293.468 44.3385 293.322 44.6562L292.041 44.2031C292.27 43.6719 292.574 43.2578 292.955 42.9609C293.34 42.6641 293.757 42.4557 294.205 42.3359C294.658 42.2161 295.103 42.1562 295.541 42.1562C295.822 42.1562 296.145 42.1901 296.509 42.2578C296.874 42.3203 297.228 42.4557 297.572 42.6641C297.921 42.8672 298.207 43.1771 298.431 43.5938C298.66 44.0052 298.775 44.5573 298.775 45.25V51H297.431V49.8125H297.369C297.28 50 297.129 50.2031 296.916 50.4219C296.702 50.6354 296.418 50.8203 296.064 50.9766C295.715 51.1276 295.285 51.2031 294.775 51.2031ZM294.978 50C295.509 50 295.957 49.8958 296.322 49.6875C296.686 49.4792 296.962 49.2109 297.15 48.8828C297.337 48.5495 297.431 48.2031 297.431 47.8438V46.6094C297.374 46.6771 297.249 46.7396 297.056 46.7969C296.869 46.849 296.65 46.8958 296.4 46.9375C296.155 46.9792 295.916 47.0156 295.681 47.0469C295.447 47.0729 295.259 47.0938 295.119 47.1094C294.77 47.1562 294.444 47.2318 294.142 47.3359C293.84 47.4349 293.595 47.5833 293.408 47.7812C293.225 47.9792 293.134 48.25 293.134 48.5938C293.134 49.0573 293.306 49.4089 293.65 49.6484C293.999 49.8828 294.442 50 294.978 50ZM304.055 42.2656V43.4062H299.539V42.2656H304.055ZM300.851 40.1875H302.18V48.5C302.18 48.9531 302.273 49.2865 302.461 49.5C302.648 49.7083 302.945 49.8125 303.351 49.8125C303.44 49.8125 303.531 49.8073 303.625 49.7969C303.724 49.7865 303.831 49.7708 303.945 49.75L304.226 50.9531C304.101 51 303.948 51.0365 303.766 51.0625C303.588 51.0938 303.409 51.1094 303.226 51.1094C302.523 51.1094 301.95 50.901 301.508 50.4844C301.07 50.0677 300.851 49.526 300.851 48.8594V40.1875ZM306.631 45.75V51H305.303V39.3594H306.631V43.6406H306.756C306.959 43.1875 307.264 42.8281 307.67 42.5625C308.082 42.2917 308.631 42.1562 309.319 42.1562C309.912 42.1562 310.433 42.276 310.881 42.5156C311.329 42.75 311.678 43.112 311.928 43.6016C312.178 44.0859 312.303 44.7031 312.303 45.4531V51H310.959V45.5469C310.959 44.849 310.78 44.3099 310.42 43.9297C310.061 43.5495 309.563 43.3594 308.928 43.3594C308.485 43.3594 308.092 43.4531 307.748 43.6406C307.405 43.8281 307.131 44.099 306.928 44.4531C306.73 44.8073 306.631 45.2396 306.631 45.75ZM317.333 51.1875C316.546 51.1875 315.856 51 315.262 50.625C314.669 50.25 314.205 49.724 313.872 49.0469C313.544 48.3698 313.379 47.5833 313.379 46.6875C313.379 45.776 313.544 44.9818 313.872 44.3047C314.205 43.6224 314.669 43.0938 315.262 42.7188C315.856 42.3438 316.546 42.1562 317.333 42.1562C318.124 42.1562 318.817 42.3438 319.411 42.7188C320.004 43.0938 320.468 43.6224 320.801 44.3047C321.135 44.9818 321.301 45.776 321.301 46.6875C321.301 47.5833 321.135 48.3698 320.801 49.0469C320.468 49.724 320.004 50.25 319.411 50.625C318.817 51 318.124 51.1875 317.333 51.1875ZM317.333 49.9844C317.937 49.9844 318.432 49.8307 318.817 49.5234C319.202 49.2161 319.489 48.8125 319.676 48.3125C319.864 47.8073 319.958 47.2656 319.958 46.6875C319.958 46.099 319.864 45.5521 319.676 45.0469C319.489 44.5417 319.202 44.1354 318.817 43.8281C318.432 43.5156 317.937 43.3594 317.333 43.3594C316.739 43.3594 316.249 43.5156 315.864 43.8281C315.478 44.1354 315.192 44.5417 315.004 45.0469C314.817 45.5521 314.723 46.099 314.723 46.6875C314.723 47.2656 314.817 47.8073 315.004 48.3125C315.192 48.8125 315.478 49.2161 315.864 49.5234C316.249 49.8307 316.739 49.9844 317.333 49.9844ZM323.706 45.75V51H322.378V42.2656H323.659V43.6406H323.784C323.987 43.1927 324.297 42.8333 324.714 42.5625C325.13 42.2917 325.67 42.1562 326.331 42.1562C326.92 42.1562 327.435 42.276 327.878 42.5156C328.321 42.7552 328.664 43.1198 328.909 43.6094C329.159 44.0938 329.284 44.7083 329.284 45.4531V51H327.956V45.5469C327.956 44.8646 327.776 44.3307 327.417 43.9453C327.058 43.5547 326.568 43.3594 325.948 43.3594C325.521 43.3594 325.138 43.4531 324.8 43.6406C324.461 43.8281 324.193 44.099 323.995 44.4531C323.802 44.8073 323.706 45.2396 323.706 45.75Z" fill="#F3F3F3"/>
<rect x="24" y="76" width="339" height="420" fill="#E1E1E1"/>
<rect x="51" y="292" width="297.098" height="87.5224" rx="23.4906" fill="#3FA9F5"/>
<path d="M221.24 347.522C220.872 347.522 220.552 347.386 220.28 347.114C220.024 346.842 219.896 346.522 219.896 346.154V331.37C219.896 331.002 220.024 330.682 220.28 330.41C220.552 330.138 220.872 330.002 221.24 330.002H221.888C222.256 330.002 222.576 330.138 222.848 330.41C223.12 330.682 223.256 331.002 223.256 331.37V336.818C223.256 336.946 223.32 337.01 223.448 337.01H229.448C229.576 337.01 229.64 336.946 229.64 336.818V331.37C229.64 331.002 229.776 330.682 230.048 330.41C230.32 330.138 230.64 330.002 231.008 330.002H231.656C232.024 330.002 232.336 330.138 232.592 330.41C232.864 330.682 233 331.002 233 331.37V346.154C233 346.522 232.864 346.842 232.592 347.114C232.336 347.386 232.024 347.522 231.656 347.522H231.008C230.64 347.522 230.32 347.386 230.048 347.114C229.776 346.842 229.64 346.522 229.64 346.154V339.794C229.64 339.65 229.576 339.578 229.448 339.578H223.448C223.32 339.578 223.256 339.65 223.256 339.794V346.154C223.256 346.522 223.12 346.842 222.848 347.114C222.576 347.386 222.256 347.522 221.888 347.522H221.24ZM242.09 341.522C239.802 341.522 238.658 342.226 238.658 343.634C238.658 344.146 238.802 344.562 239.09 344.882C239.394 345.202 239.778 345.362 240.242 345.362C241.154 345.362 241.89 345.082 242.45 344.522C243.01 343.946 243.29 343.162 243.29 342.17V341.738C243.29 341.594 243.218 341.522 243.074 341.522H242.09ZM239.378 347.762C238.29 347.762 237.386 347.41 236.666 346.706C235.962 345.986 235.61 345.058 235.61 343.922C235.61 342.53 236.138 341.45 237.194 340.682C238.266 339.914 239.898 339.53 242.09 339.53H243.074C243.218 339.53 243.29 339.458 243.29 339.314V339.122C243.29 338.386 243.114 337.874 242.762 337.586C242.41 337.282 241.786 337.13 240.89 337.13C239.962 337.13 238.826 337.298 237.482 337.634C237.194 337.714 236.93 337.666 236.69 337.49C236.45 337.298 236.33 337.05 236.33 336.746C236.33 336.378 236.442 336.05 236.666 335.762C236.89 335.458 237.178 335.274 237.53 335.21C238.746 334.938 239.89 334.802 240.962 334.802C243.01 334.802 244.442 335.17 245.258 335.906C246.074 336.642 246.482 337.93 246.482 339.77V346.154C246.482 346.522 246.346 346.842 246.074 347.114C245.818 347.386 245.506 347.522 245.138 347.522H244.874C244.49 347.522 244.162 347.394 243.89 347.138C243.618 346.866 243.474 346.538 243.458 346.154V345.818C243.458 345.802 243.45 345.794 243.434 345.794C243.402 345.794 243.386 345.802 243.386 345.818C242.41 347.114 241.074 347.762 239.378 347.762ZM254.671 347.762C252.687 347.762 251.159 347.218 250.087 346.13C249.015 345.026 248.479 343.41 248.479 341.282C248.479 339.186 248.991 337.586 250.015 336.482C251.055 335.362 252.527 334.802 254.431 334.802C255.279 334.802 256.095 334.858 256.879 334.97C257.247 335.018 257.551 335.186 257.791 335.474C258.031 335.762 258.151 336.098 258.151 336.482C258.151 336.802 258.023 337.058 257.767 337.25C257.527 337.442 257.247 337.506 256.927 337.442C256.303 337.314 255.607 337.25 254.839 337.25C253.831 337.25 253.079 337.57 252.583 338.21C252.087 338.85 251.839 339.874 251.839 341.282C251.839 342.722 252.103 343.754 252.631 344.378C253.159 345.002 253.975 345.314 255.079 345.314C255.863 345.314 256.543 345.242 257.119 345.098C257.423 345.018 257.695 345.074 257.935 345.266C258.191 345.458 258.319 345.706 258.319 346.01C258.319 346.394 258.199 346.73 257.959 347.018C257.735 347.306 257.439 347.482 257.071 347.546C256.255 347.69 255.455 347.762 254.671 347.762ZM262.651 347.522C262.283 347.522 261.963 347.386 261.691 347.114C261.419 346.842 261.283 346.522 261.283 346.154V330.89C261.283 330.522 261.419 330.202 261.691 329.93C261.963 329.658 262.283 329.522 262.651 329.522H263.131C263.499 329.522 263.819 329.658 264.091 329.93C264.363 330.202 264.499 330.522 264.499 330.89V340.13C264.499 340.146 264.507 340.154 264.523 340.154H264.547L268.195 336.05C268.787 335.378 269.539 335.042 270.451 335.042H271.459C271.715 335.042 271.891 335.162 271.987 335.402C272.099 335.642 272.067 335.858 271.891 336.05L267.499 340.898C267.419 340.994 267.419 341.098 267.499 341.21L271.939 346.49C272.115 346.698 272.139 346.922 272.011 347.162C271.899 347.402 271.715 347.522 271.459 347.522H270.451C269.539 347.522 268.795 347.17 268.219 346.466L264.547 342.026C264.547 342.01 264.539 342.002 264.523 342.002C264.507 342.002 264.499 342.01 264.499 342.026V346.154C264.499 346.522 264.363 346.842 264.091 347.114C263.819 347.386 263.499 347.522 263.131 347.522H262.651ZM278.469 337.034C277.653 337.034 277.021 337.266 276.573 337.73C276.141 338.178 275.869 338.906 275.757 339.914C275.757 340.042 275.821 340.106 275.949 340.106H280.653C280.781 340.106 280.845 340.042 280.845 339.914C280.781 337.994 279.989 337.034 278.469 337.034ZM279.069 347.762C276.973 347.762 275.357 347.218 274.221 346.13C273.101 345.026 272.541 343.41 272.541 341.282C272.541 339.17 273.045 337.562 274.053 336.458C275.061 335.354 276.517 334.802 278.421 334.802C281.973 334.802 283.797 336.818 283.893 340.85C283.909 341.234 283.773 341.554 283.485 341.81C283.197 342.066 282.861 342.194 282.477 342.194H275.925C275.781 342.194 275.725 342.266 275.757 342.41C275.869 343.482 276.221 344.266 276.813 344.762C277.421 345.242 278.301 345.482 279.453 345.482C280.173 345.482 280.973 345.362 281.853 345.122C282.141 345.042 282.405 345.09 282.645 345.266C282.901 345.442 283.029 345.682 283.029 345.986C283.029 346.354 282.917 346.682 282.693 346.97C282.485 347.242 282.205 347.41 281.853 347.474C280.957 347.666 280.029 347.762 279.069 347.762ZM287.507 347.522C287.139 347.522 286.819 347.386 286.547 347.114C286.275 346.842 286.139 346.522 286.139 346.154V336.41C286.139 336.042 286.275 335.722 286.547 335.45C286.819 335.178 287.139 335.042 287.507 335.042H287.987C288.355 335.042 288.675 335.178 288.947 335.45C289.219 335.722 289.355 336.042 289.355 336.41V337.418C289.355 337.434 289.363 337.442 289.379 337.442C289.411 337.442 289.427 337.434 289.427 337.418C289.891 336.778 290.499 336.258 291.251 335.858C292.003 335.442 292.827 335.186 293.723 335.09C294.059 335.058 294.347 335.17 294.587 335.426C294.827 335.666 294.947 335.954 294.947 336.29C294.947 336.626 294.827 336.914 294.587 337.154C294.347 337.394 294.059 337.53 293.723 337.562C290.891 337.786 289.475 339.226 289.475 341.882V346.154C289.475 346.522 289.339 346.842 289.067 347.114C288.795 347.386 288.475 347.522 288.107 347.522H287.507ZM301.27 342.482C299.59 342.114 298.39 341.61 297.67 340.97C296.966 340.33 296.614 339.498 296.614 338.474C296.614 337.322 297.038 336.426 297.886 335.786C298.75 335.13 300.022 334.802 301.702 334.802C302.758 334.802 303.806 334.898 304.846 335.09C305.198 335.154 305.478 335.33 305.686 335.618C305.91 335.89 306.022 336.21 306.022 336.578C306.022 336.882 305.902 337.13 305.662 337.322C305.422 337.498 305.15 337.546 304.846 337.466C303.95 337.242 303.006 337.13 302.014 337.13C300.574 337.13 299.854 337.53 299.854 338.33C299.854 338.714 299.99 339.034 300.262 339.29C300.534 339.546 300.998 339.746 301.654 339.89C303.494 340.258 304.75 340.754 305.422 341.378C306.11 342.002 306.454 342.914 306.454 344.114C306.454 345.266 306.022 346.162 305.158 346.802C304.294 347.442 303.038 347.762 301.39 347.762C300.318 347.762 299.222 347.634 298.102 347.378C297.75 347.298 297.462 347.114 297.238 346.826C297.014 346.522 296.902 346.178 296.902 345.794C296.902 345.49 297.022 345.258 297.262 345.098C297.518 344.938 297.79 344.898 298.078 344.978C299.118 345.266 300.102 345.41 301.03 345.41C302.486 345.41 303.214 344.978 303.214 344.114C303.214 343.698 303.07 343.37 302.782 343.13C302.51 342.89 302.006 342.674 301.27 342.482Z" fill="white"/>
<rect x="51" y="389" width="297.098" height="87.5224" rx="23.4906" fill="#3FA9F5"/>
<path d="M223.208 429.738V435.522C223.208 435.634 223.272 435.706 223.4 435.738C224.008 435.818 224.6 435.858 225.176 435.858C226.472 435.858 227.456 435.578 228.128 435.018C228.816 434.442 229.16 433.626 229.16 432.57C229.16 430.442 227.832 429.378 225.176 429.378C224.6 429.378 224.008 429.418 223.4 429.498C223.272 429.53 223.208 429.61 223.208 429.738ZM221.24 444.522C220.872 444.522 220.552 444.386 220.28 444.114C220.024 443.842 219.896 443.522 219.896 443.154V428.49C219.896 428.106 220.024 427.762 220.28 427.458C220.536 427.154 220.856 426.986 221.24 426.954C222.6 426.826 223.912 426.762 225.176 426.762C227.576 426.762 229.376 427.242 230.576 428.202C231.776 429.146 232.376 430.522 232.376 432.33C232.376 434.33 231.792 435.842 230.624 436.866C229.472 437.89 227.76 438.402 225.488 438.402C224.96 438.402 224.264 438.37 223.4 438.306C223.272 438.306 223.208 438.37 223.208 438.498V443.154C223.208 443.522 223.072 443.842 222.8 444.114C222.528 444.386 222.208 444.522 221.84 444.522H221.24ZM235.516 444.522C235.148 444.522 234.828 444.386 234.556 444.114C234.284 443.842 234.148 443.522 234.148 443.154V433.41C234.148 433.042 234.284 432.722 234.556 432.45C234.828 432.178 235.148 432.042 235.516 432.042H235.996C236.364 432.042 236.684 432.178 236.956 432.45C237.228 432.722 237.364 433.042 237.364 433.41V434.418C237.364 434.434 237.372 434.442 237.388 434.442C237.42 434.442 237.436 434.434 237.436 434.418C237.9 433.778 238.508 433.258 239.26 432.858C240.012 432.442 240.836 432.186 241.732 432.09C242.068 432.058 242.356 432.17 242.596 432.426C242.836 432.666 242.956 432.954 242.956 433.29C242.956 433.626 242.836 433.914 242.596 434.154C242.356 434.394 242.068 434.53 241.732 434.562C238.9 434.786 237.484 436.226 237.484 438.882V443.154C237.484 443.522 237.348 443.842 237.076 444.114C236.804 444.386 236.484 444.522 236.116 444.522H235.516ZM252.327 435.138C251.863 434.466 251.159 434.13 250.215 434.13C249.271 434.13 248.559 434.466 248.079 435.138C247.615 435.794 247.383 436.842 247.383 438.282C247.383 439.722 247.615 440.778 248.079 441.45C248.559 442.106 249.271 442.434 250.215 442.434C251.159 442.434 251.863 442.106 252.327 441.45C252.807 440.778 253.047 439.722 253.047 438.282C253.047 436.842 252.807 435.794 252.327 435.138ZM254.679 443.082C253.623 444.202 252.135 444.762 250.215 444.762C248.295 444.762 246.799 444.202 245.727 443.082C244.671 441.946 244.143 440.346 244.143 438.282C244.143 436.218 244.671 434.626 245.727 433.506C246.799 432.37 248.295 431.802 250.215 431.802C252.135 431.802 253.623 432.37 254.679 433.506C255.751 434.626 256.287 436.218 256.287 438.282C256.287 440.346 255.751 441.946 254.679 443.082ZM257.208 449.778C256.84 449.794 256.536 449.674 256.296 449.418C256.04 449.178 255.912 448.882 255.912 448.53C255.912 448.194 256.04 447.898 256.296 447.642C256.552 447.386 256.856 447.242 257.208 447.21C258.28 447.146 258.968 446.922 259.272 446.538C259.592 446.154 259.752 445.402 259.752 444.282V433.41C259.752 433.042 259.888 432.722 260.16 432.45C260.432 432.178 260.752 432.042 261.12 432.042H261.768C262.136 432.042 262.448 432.178 262.704 432.45C262.976 432.722 263.112 433.042 263.112 433.41V444.282C263.112 446.314 262.712 447.714 261.912 448.482C261.128 449.25 259.56 449.682 257.208 449.778ZM261.768 426.522C262.136 426.522 262.448 426.658 262.704 426.93C262.976 427.202 263.112 427.522 263.112 427.89V428.034C263.112 428.402 262.976 428.722 262.704 428.994C262.448 429.266 262.136 429.402 261.768 429.402H261.12C260.752 429.402 260.432 429.266 260.16 428.994C259.888 428.722 259.752 428.402 259.752 428.034V427.89C259.752 427.522 259.888 427.202 260.16 426.93C260.432 426.658 260.752 426.522 261.12 426.522H261.768ZM271.883 434.034C271.067 434.034 270.435 434.266 269.987 434.73C269.555 435.178 269.283 435.906 269.171 436.914C269.171 437.042 269.235 437.106 269.363 437.106H274.067C274.195 437.106 274.259 437.042 274.259 436.914C274.195 434.994 273.403 434.034 271.883 434.034ZM272.483 444.762C270.387 444.762 268.771 444.218 267.635 443.13C266.515 442.026 265.955 440.41 265.955 438.282C265.955 436.17 266.459 434.562 267.467 433.458C268.475 432.354 269.931 431.802 271.835 431.802C275.387 431.802 277.211 433.818 277.307 437.85C277.323 438.234 277.187 438.554 276.899 438.81C276.611 439.066 276.275 439.194 275.891 439.194H269.339C269.195 439.194 269.139 439.266 269.171 439.41C269.283 440.482 269.635 441.266 270.227 441.762C270.835 442.242 271.715 442.482 272.867 442.482C273.587 442.482 274.387 442.362 275.267 442.122C275.555 442.042 275.819 442.09 276.059 442.266C276.315 442.442 276.443 442.682 276.443 442.986C276.443 443.354 276.331 443.682 276.107 443.97C275.899 444.242 275.619 444.41 275.267 444.474C274.371 444.666 273.443 444.762 272.483 444.762ZM285.139 444.762C283.155 444.762 281.627 444.218 280.555 443.13C279.483 442.026 278.947 440.41 278.947 438.282C278.947 436.186 279.459 434.586 280.483 433.482C281.523 432.362 282.995 431.802 284.899 431.802C285.747 431.802 286.563 431.858 287.347 431.97C287.715 432.018 288.019 432.186 288.259 432.474C288.499 432.762 288.619 433.098 288.619 433.482C288.619 433.802 288.491 434.058 288.235 434.25C287.995 434.442 287.715 434.506 287.395 434.442C286.771 434.314 286.075 434.25 285.307 434.25C284.299 434.25 283.547 434.57 283.051 435.21C282.555 435.85 282.307 436.874 282.307 438.282C282.307 439.722 282.571 440.754 283.099 441.378C283.627 442.002 284.443 442.314 285.547 442.314C286.331 442.314 287.011 442.242 287.587 442.098C287.891 442.018 288.163 442.074 288.403 442.266C288.659 442.458 288.787 442.706 288.787 443.01C288.787 443.394 288.667 443.73 288.427 444.018C288.203 444.306 287.907 444.482 287.539 444.546C286.723 444.69 285.923 444.762 285.139 444.762ZM292.182 434.85C291.862 434.85 291.59 434.738 291.366 434.514C291.142 434.274 291.03 433.994 291.03 433.674C291.03 433.354 291.142 433.082 291.366 432.858C291.59 432.634 291.862 432.522 292.182 432.522H293.334C293.478 432.522 293.55 432.45 293.55 432.306V429.33C293.55 428.962 293.678 428.642 293.934 428.37C294.206 428.098 294.526 427.962 294.894 427.962H295.374C295.742 427.962 296.062 428.098 296.334 428.37C296.606 428.642 296.742 428.962 296.742 429.33V432.306C296.742 432.45 296.814 432.522 296.958 432.522H299.694C300.014 432.522 300.286 432.634 300.51 432.858C300.75 433.082 300.87 433.354 300.87 433.674C300.87 433.994 300.75 434.274 300.51 434.514C300.286 434.738 300.014 434.85 299.694 434.85H296.958C296.814 434.85 296.742 434.914 296.742 435.042V439.89C296.742 440.93 296.854 441.602 297.078 441.906C297.302 442.21 297.766 442.362 298.47 442.362C298.854 442.362 299.142 442.346 299.334 442.314C299.654 442.282 299.934 442.354 300.174 442.53C300.414 442.706 300.534 442.946 300.534 443.25C300.534 443.602 300.414 443.922 300.174 444.21C299.95 444.482 299.67 444.634 299.334 444.666C298.63 444.73 298.102 444.762 297.75 444.762C296.198 444.762 295.11 444.434 294.486 443.778C293.862 443.106 293.55 441.914 293.55 440.202V435.042C293.55 434.914 293.478 434.85 293.334 434.85H292.182ZM307.91 439.482C306.23 439.114 305.03 438.61 304.31 437.97C303.606 437.33 303.254 436.498 303.254 435.474C303.254 434.322 303.678 433.426 304.526 432.786C305.39 432.13 306.662 431.802 308.342 431.802C309.398 431.802 310.446 431.898 311.486 432.09C311.838 432.154 312.118 432.33 312.326 432.618C312.55 432.89 312.662 433.21 312.662 433.578C312.662 433.882 312.542 434.13 312.302 434.322C312.062 434.498 311.79 434.546 311.486 434.466C310.59 434.242 309.646 434.13 308.654 434.13C307.214 434.13 306.494 434.53 306.494 435.33C306.494 435.714 306.63 436.034 306.902 436.29C307.174 436.546 307.638 436.746 308.294 436.89C310.134 437.258 311.39 437.754 312.062 438.378C312.75 439.002 313.094 439.914 313.094 441.114C313.094 442.266 312.662 443.162 311.798 443.802C310.934 444.442 309.678 444.762 308.03 444.762C306.958 444.762 305.862 444.634 304.742 444.378C304.39 444.298 304.102 444.114 303.878 443.826C303.654 443.522 303.542 443.178 303.542 442.794C303.542 442.49 303.662 442.258 303.902 442.098C304.158 441.938 304.43 441.898 304.718 441.978C305.758 442.266 306.742 442.41 307.67 442.41C309.126 442.41 309.854 441.978 309.854 441.114C309.854 440.698 309.71 440.37 309.422 440.13C309.15 439.89 308.646 439.674 307.91 439.482Z" fill="white"/>
<rect x="51" y="194" width="297.098" height="87.5224" rx="23.4906" fill="#3FA9F5"/>
<path d="M224.744 241.13C222.824 240.49 221.432 239.714 220.568 238.802C219.72 237.89 219.296 236.786 219.296 235.49C219.296 234.034 219.784 232.882 220.76 232.034C221.736 231.186 223.104 230.762 224.864 230.762C226.352 230.762 227.648 230.93 228.752 231.266C229.136 231.378 229.44 231.61 229.664 231.962C229.904 232.298 230.024 232.674 230.024 233.09V233.306C230.024 233.61 229.888 233.85 229.616 234.026C229.344 234.186 229.064 234.21 228.776 234.098C227.576 233.634 226.352 233.402 225.104 233.402C224.304 233.402 223.696 233.586 223.28 233.954C222.864 234.322 222.656 234.834 222.656 235.49C222.656 236.642 223.408 237.466 224.912 237.962C227.072 238.65 228.568 239.434 229.4 240.314C230.248 241.194 230.672 242.33 230.672 243.722C230.672 247.082 228.6 248.762 224.456 248.762C223.16 248.762 221.984 248.562 220.928 248.162C220.544 248.018 220.24 247.77 220.016 247.418C219.808 247.066 219.704 246.674 219.704 246.242V245.954C219.704 245.65 219.832 245.434 220.088 245.306C220.344 245.162 220.608 245.154 220.88 245.282C221.936 245.81 223.048 246.074 224.216 246.074C226.248 246.074 227.264 245.306 227.264 243.77C227.264 243.146 227.072 242.634 226.688 242.234C226.304 241.818 225.656 241.45 224.744 241.13ZM236.214 240.65V243.914C236.214 244.554 236.486 245.122 237.03 245.618C237.59 246.114 238.238 246.362 238.974 246.362C239.822 246.362 240.494 246.018 240.99 245.33C241.486 244.642 241.734 243.626 241.734 242.282C241.734 239.562 240.814 238.202 238.974 238.202C238.238 238.202 237.59 238.45 237.03 238.946C236.486 239.442 236.214 240.01 236.214 240.65ZM234.414 253.802C234.046 253.802 233.726 253.666 233.454 253.394C233.182 253.122 233.046 252.802 233.046 252.434V237.41C233.046 237.042 233.182 236.722 233.454 236.45C233.726 236.178 234.046 236.042 234.414 236.042H234.702C235.086 236.042 235.414 236.178 235.686 236.45C235.958 236.706 236.102 237.026 236.118 237.41V237.578C236.118 237.594 236.126 237.602 236.142 237.602C236.158 237.602 236.174 237.594 236.19 237.578C236.766 236.938 237.342 236.482 237.918 236.21C238.494 235.938 239.166 235.802 239.934 235.802C241.438 235.802 242.638 236.37 243.534 237.506C244.43 238.626 244.878 240.218 244.878 242.282C244.878 244.282 244.406 245.866 243.462 247.034C242.534 248.186 241.358 248.762 239.934 248.762C238.542 248.762 237.334 248.258 236.31 247.25C236.294 247.234 236.278 247.226 236.262 247.226C236.246 247.226 236.238 247.234 236.238 247.25V252.434C236.238 252.802 236.102 253.122 235.83 253.394C235.574 253.666 235.262 253.802 234.894 253.802H234.414ZM252.439 238.034C251.623 238.034 250.991 238.266 250.543 238.73C250.111 239.178 249.839 239.906 249.727 240.914C249.727 241.042 249.791 241.106 249.919 241.106H254.623C254.751 241.106 254.815 241.042 254.815 240.914C254.751 238.994 253.959 238.034 252.439 238.034ZM253.039 248.762C250.943 248.762 249.327 248.218 248.191 247.13C247.071 246.026 246.511 244.41 246.511 242.282C246.511 240.17 247.015 238.562 248.023 237.458C249.031 236.354 250.487 235.802 252.391 235.802C255.943 235.802 257.767 237.818 257.863 241.85C257.879 242.234 257.743 242.554 257.455 242.81C257.167 243.066 256.831 243.194 256.447 243.194H249.895C249.751 243.194 249.695 243.266 249.727 243.41C249.839 244.482 250.191 245.266 250.783 245.762C251.391 246.242 252.271 246.482 253.423 246.482C254.143 246.482 254.943 246.362 255.823 246.122C256.111 246.042 256.375 246.09 256.615 246.266C256.871 246.442 256.999 246.682 256.999 246.986C256.999 247.354 256.887 247.682 256.663 247.97C256.455 248.242 256.175 248.41 255.823 248.474C254.927 248.666 253.999 248.762 253.039 248.762ZM265.988 242.522C263.7 242.522 262.556 243.226 262.556 244.634C262.556 245.146 262.7 245.562 262.988 245.882C263.292 246.202 263.676 246.362 264.14 246.362C265.052 246.362 265.788 246.082 266.348 245.522C266.908 244.946 267.188 244.162 267.188 243.17V242.738C267.188 242.594 267.116 242.522 266.972 242.522H265.988ZM263.276 248.762C262.188 248.762 261.284 248.41 260.564 247.706C259.86 246.986 259.508 246.058 259.508 244.922C259.508 243.53 260.036 242.45 261.092 241.682C262.164 240.914 263.796 240.53 265.988 240.53H266.972C267.116 240.53 267.188 240.458 267.188 240.314V240.122C267.188 239.386 267.012 238.874 266.66 238.586C266.308 238.282 265.684 238.13 264.788 238.13C263.86 238.13 262.724 238.298 261.38 238.634C261.092 238.714 260.828 238.666 260.588 238.49C260.348 238.298 260.228 238.05 260.228 237.746C260.228 237.378 260.34 237.05 260.564 236.762C260.788 236.458 261.076 236.274 261.428 236.21C262.644 235.938 263.788 235.802 264.86 235.802C266.908 235.802 268.34 236.17 269.156 236.906C269.972 237.642 270.38 238.93 270.38 240.77V247.154C270.38 247.522 270.244 247.842 269.972 248.114C269.716 248.386 269.404 248.522 269.036 248.522H268.772C268.388 248.522 268.06 248.394 267.788 248.138C267.516 247.866 267.372 247.538 267.356 247.154V246.818C267.356 246.802 267.348 246.794 267.332 246.794C267.3 246.794 267.284 246.802 267.284 246.818C266.308 248.114 264.972 248.762 263.276 248.762ZM274.705 248.522C274.337 248.522 274.017 248.386 273.745 248.114C273.473 247.842 273.337 247.522 273.337 247.154V231.89C273.337 231.522 273.473 231.202 273.745 230.93C274.017 230.658 274.337 230.522 274.705 230.522H275.185C275.553 230.522 275.873 230.658 276.145 230.93C276.417 231.202 276.553 231.522 276.553 231.89V241.13C276.553 241.146 276.561 241.154 276.577 241.154H276.601L280.249 237.05C280.841 236.378 281.593 236.042 282.505 236.042H283.513C283.769 236.042 283.945 236.162 284.041 236.402C284.153 236.642 284.121 236.858 283.945 237.05L279.553 241.898C279.473 241.994 279.473 242.098 279.553 242.21L283.993 247.49C284.169 247.698 284.193 247.922 284.065 248.162C283.953 248.402 283.769 248.522 283.513 248.522H282.505C281.593 248.522 280.849 248.17 280.273 247.466L276.601 243.026C276.601 243.01 276.593 243.002 276.577 243.002C276.561 243.002 276.553 243.01 276.553 243.026V247.154C276.553 247.522 276.417 247.842 276.145 248.114C275.873 248.386 275.553 248.522 275.185 248.522H274.705ZM290.523 238.034C289.707 238.034 289.075 238.266 288.627 238.73C288.195 239.178 287.923 239.906 287.811 240.914C287.811 241.042 287.875 241.106 288.003 241.106H292.707C292.835 241.106 292.899 241.042 292.899 240.914C292.835 238.994 292.043 238.034 290.523 238.034ZM291.123 248.762C289.027 248.762 287.411 248.218 286.275 247.13C285.155 246.026 284.595 244.41 284.595 242.282C284.595 240.17 285.099 238.562 286.107 237.458C287.115 236.354 288.571 235.802 290.475 235.802C294.027 235.802 295.851 237.818 295.947 241.85C295.963 242.234 295.827 242.554 295.539 242.81C295.251 243.066 294.915 243.194 294.531 243.194H287.979C287.835 243.194 287.779 243.266 287.811 243.41C287.923 244.482 288.275 245.266 288.867 245.762C289.475 246.242 290.355 246.482 291.507 246.482C292.227 246.482 293.027 246.362 293.907 246.122C294.195 246.042 294.459 246.09 294.699 246.266C294.955 246.442 295.083 246.682 295.083 246.986C295.083 247.354 294.971 247.682 294.747 247.97C294.539 248.242 294.259 248.41 293.907 248.474C293.011 248.666 292.083 248.762 291.123 248.762ZM299.561 248.522C299.193 248.522 298.873 248.386 298.601 248.114C298.329 247.842 298.193 247.522 298.193 247.154V237.41C298.193 237.042 298.329 236.722 298.601 236.45C298.873 236.178 299.193 236.042 299.561 236.042H300.041C300.409 236.042 300.729 236.178 301.001 236.45C301.273 236.722 301.409 237.042 301.409 237.41V238.418C301.409 238.434 301.417 238.442 301.433 238.442C301.465 238.442 301.481 238.434 301.481 238.418C301.945 237.778 302.553 237.258 303.305 236.858C304.057 236.442 304.881 236.186 305.777 236.09C306.113 236.058 306.401 236.17 306.641 236.426C306.881 236.666 307.001 236.954 307.001 237.29C307.001 237.626 306.881 237.914 306.641 238.154C306.401 238.394 306.113 238.53 305.777 238.562C302.945 238.786 301.529 240.226 301.529 242.882V247.154C301.529 247.522 301.393 247.842 301.121 248.114C300.849 248.386 300.529 248.522 300.161 248.522H299.561ZM313.325 243.482C311.645 243.114 310.445 242.61 309.725 241.97C309.021 241.33 308.669 240.498 308.669 239.474C308.669 238.322 309.093 237.426 309.941 236.786C310.805 236.13 312.077 235.802 313.757 235.802C314.813 235.802 315.861 235.898 316.901 236.09C317.253 236.154 317.533 236.33 317.741 236.618C317.965 236.89 318.077 237.21 318.077 237.578C318.077 237.882 317.957 238.13 317.717 238.322C317.477 238.498 317.205 238.546 316.901 238.466C316.005 238.242 315.061 238.13 314.069 238.13C312.629 238.13 311.909 238.53 311.909 239.33C311.909 239.714 312.045 240.034 312.317 240.29C312.589 240.546 313.053 240.746 313.709 240.89C315.549 241.258 316.805 241.754 317.477 242.378C318.165 243.002 318.509 243.914 318.509 245.114C318.509 246.266 318.077 247.162 317.213 247.802C316.349 248.442 315.093 248.762 313.445 248.762C312.373 248.762 311.277 248.634 310.157 248.378C309.805 248.298 309.517 248.114 309.293 247.826C309.069 247.522 308.957 247.178 308.957 246.794C308.957 246.49 309.077 246.258 309.317 246.098C309.573 245.938 309.845 245.898 310.133 245.978C311.173 246.266 312.157 246.41 313.085 246.41C314.541 246.41 315.269 245.978 315.269 245.114C315.269 244.698 315.125 244.37 314.837 244.13C314.565 243.89 314.061 243.674 313.325 243.482Z" fill="white"/>
<rect x="51" y="91" width="297.098" height="87.5224" rx="23.4906" fill="#3FA9F5"/>
<path d="M225.92 130.456L223.808 137.992C223.792 138.04 223.8 138.088 223.832 138.136C223.864 138.184 223.904 138.208 223.952 138.208H227.936C227.984 138.208 228.024 138.184 228.056 138.136C228.088 138.088 228.096 138.04 228.08 137.992L225.968 130.456C225.968 130.44 225.96 130.432 225.944 130.432C225.928 130.432 225.92 130.44 225.92 130.456ZM219.704 145C219.368 145 219.104 144.864 218.912 144.592C218.72 144.32 218.68 144.024 218.792 143.704L223.76 128.776C223.904 128.392 224.136 128.08 224.456 127.84C224.792 127.6 225.16 127.48 225.56 127.48H226.424C226.84 127.48 227.208 127.6 227.528 127.84C227.864 128.08 228.096 128.392 228.224 128.776L233.192 143.704C233.304 144.024 233.264 144.32 233.072 144.592C232.88 144.864 232.616 145 232.28 145H231.416C231.032 145 230.672 144.88 230.336 144.64C230.016 144.384 229.8 144.064 229.688 143.68L228.92 140.968C228.904 140.84 228.816 140.776 228.656 140.776H223.232C223.088 140.776 223 140.84 222.968 140.968L222.2 143.68C222.104 144.064 221.888 144.384 221.552 144.64C221.232 144.88 220.872 145 220.472 145H219.704ZM234.114 135.328C233.794 135.328 233.522 135.216 233.298 134.992C233.074 134.752 232.962 134.472 232.962 134.152C232.962 133.832 233.074 133.56 233.298 133.336C233.522 133.112 233.794 133 234.114 133H235.266C235.41 133 235.482 132.928 235.482 132.784V129.808C235.482 129.44 235.61 129.12 235.866 128.848C236.138 128.576 236.458 128.44 236.826 128.44H237.306C237.674 128.44 237.994 128.576 238.266 128.848C238.538 129.12 238.674 129.44 238.674 129.808V132.784C238.674 132.928 238.746 133 238.89 133H241.626C241.946 133 242.218 133.112 242.442 133.336C242.682 133.56 242.802 133.832 242.802 134.152C242.802 134.472 242.682 134.752 242.442 134.992C242.218 135.216 241.946 135.328 241.626 135.328H238.89C238.746 135.328 238.674 135.392 238.674 135.52V140.368C238.674 141.408 238.786 142.08 239.01 142.384C239.234 142.688 239.698 142.84 240.402 142.84C240.786 142.84 241.074 142.824 241.266 142.792C241.586 142.76 241.866 142.832 242.106 143.008C242.346 143.184 242.466 143.424 242.466 143.728C242.466 144.08 242.346 144.4 242.106 144.688C241.882 144.96 241.602 145.112 241.266 145.144C240.562 145.208 240.034 145.24 239.682 145.24C238.13 145.24 237.042 144.912 236.418 144.256C235.794 143.584 235.482 142.392 235.482 140.68V135.52C235.482 135.392 235.41 135.328 235.266 135.328H234.114ZM245.864 135.328C245.544 135.328 245.272 135.216 245.048 134.992C244.824 134.752 244.712 134.472 244.712 134.152C244.712 133.832 244.824 133.56 245.048 133.336C245.272 133.112 245.544 133 245.864 133H247.016C247.16 133 247.232 132.928 247.232 132.784V129.808C247.232 129.44 247.36 129.12 247.616 128.848C247.888 128.576 248.208 128.44 248.576 128.44H249.056C249.424 128.44 249.744 128.576 250.016 128.848C250.288 129.12 250.424 129.44 250.424 129.808V132.784C250.424 132.928 250.496 133 250.64 133H253.376C253.696 133 253.968 133.112 254.192 133.336C254.432 133.56 254.552 133.832 254.552 134.152C254.552 134.472 254.432 134.752 254.192 134.992C253.968 135.216 253.696 135.328 253.376 135.328H250.64C250.496 135.328 250.424 135.392 250.424 135.52V140.368C250.424 141.408 250.536 142.08 250.76 142.384C250.984 142.688 251.448 142.84 252.152 142.84C252.536 142.84 252.824 142.824 253.016 142.792C253.336 142.76 253.616 142.832 253.856 143.008C254.096 143.184 254.216 143.424 254.216 143.728C254.216 144.08 254.096 144.4 253.856 144.688C253.632 144.96 253.352 145.112 253.016 145.144C252.312 145.208 251.784 145.24 251.432 145.24C249.88 145.24 248.792 144.912 248.168 144.256C247.544 143.584 247.232 142.392 247.232 140.68V135.52C247.232 135.392 247.16 135.328 247.016 135.328H245.864ZM262.384 134.512C261.568 134.512 260.936 134.744 260.488 135.208C260.056 135.656 259.784 136.384 259.672 137.392C259.672 137.52 259.736 137.584 259.864 137.584H264.568C264.696 137.584 264.76 137.52 264.76 137.392C264.696 135.472 263.904 134.512 262.384 134.512ZM262.984 145.24C260.888 145.24 259.272 144.696 258.136 143.608C257.016 142.504 256.456 140.888 256.456 138.76C256.456 136.648 256.96 135.04 257.968 133.936C258.976 132.832 260.432 132.28 262.336 132.28C265.888 132.28 267.712 134.296 267.808 138.328C267.824 138.712 267.688 139.032 267.4 139.288C267.112 139.544 266.776 139.672 266.392 139.672H259.84C259.696 139.672 259.64 139.744 259.672 139.888C259.784 140.96 260.136 141.744 260.728 142.24C261.336 142.72 262.216 142.96 263.368 142.96C264.088 142.96 264.888 142.84 265.768 142.6C266.056 142.52 266.32 142.568 266.56 142.744C266.816 142.92 266.944 143.16 266.944 143.464C266.944 143.832 266.832 144.16 266.608 144.448C266.4 144.72 266.12 144.888 265.768 144.952C264.872 145.144 263.944 145.24 262.984 145.24ZM271.421 145C271.053 145 270.733 144.864 270.461 144.592C270.189 144.32 270.053 144 270.053 143.632V133.888C270.053 133.52 270.189 133.2 270.461 132.928C270.733 132.656 271.053 132.52 271.421 132.52H271.733C272.117 132.52 272.437 132.656 272.693 132.928C272.965 133.184 273.109 133.504 273.125 133.888V134.056C273.125 134.072 273.133 134.08 273.149 134.08C273.165 134.08 273.181 134.072 273.197 134.056C274.285 132.872 275.557 132.28 277.013 132.28C278.469 132.28 279.525 132.696 280.181 133.528C280.853 134.344 281.189 135.712 281.189 137.632V143.632C281.189 144 281.053 144.32 280.781 144.592C280.509 144.864 280.189 145 279.821 145H279.413C279.045 145 278.725 144.864 278.453 144.592C278.197 144.32 278.069 144 278.069 143.632V137.872C278.069 136.672 277.909 135.856 277.589 135.424C277.285 134.976 276.733 134.752 275.933 134.752C275.277 134.752 274.669 135.032 274.109 135.592C273.549 136.152 273.269 136.752 273.269 137.392V143.632C273.269 144 273.133 144.32 272.861 144.592C272.589 144.864 272.269 145 271.901 145H271.421ZM289.237 134.68C287.397 134.68 286.477 136.04 286.477 138.76C286.477 140.12 286.725 141.144 287.221 141.832C287.717 142.504 288.389 142.84 289.237 142.84C289.989 142.84 290.637 142.592 291.181 142.096C291.725 141.6 291.997 141.032 291.997 140.392V137.128C291.997 136.488 291.725 135.92 291.181 135.424C290.637 134.928 289.989 134.68 289.237 134.68ZM288.277 145.24C286.853 145.24 285.669 144.664 284.725 143.512C283.781 142.344 283.309 140.76 283.309 138.76C283.309 136.696 283.757 135.104 284.653 133.984C285.565 132.848 286.773 132.28 288.277 132.28C289.637 132.28 290.837 132.776 291.877 133.768C291.893 133.784 291.909 133.792 291.925 133.792C291.941 133.792 291.949 133.784 291.949 133.768V128.368C291.949 128 292.085 127.68 292.357 127.408C292.629 127.136 292.949 127 293.317 127H293.797C294.165 127 294.485 127.136 294.757 127.408C295.029 127.68 295.165 128 295.165 128.368V143.632C295.165 144 295.029 144.32 294.757 144.592C294.485 144.864 294.165 145 293.797 145H293.533C293.149 145 292.821 144.872 292.549 144.616C292.293 144.344 292.157 144.016 292.141 143.632L292.117 143.464C292.117 143.448 292.109 143.44 292.093 143.44C292.077 143.44 292.061 143.448 292.045 143.464C290.989 144.648 289.733 145.24 288.277 145.24ZM303.351 134.512C302.535 134.512 301.903 134.744 301.455 135.208C301.023 135.656 300.751 136.384 300.639 137.392C300.639 137.52 300.703 137.584 300.831 137.584H305.535C305.663 137.584 305.727 137.52 305.727 137.392C305.663 135.472 304.871 134.512 303.351 134.512ZM303.951 145.24C301.855 145.24 300.239 144.696 299.103 143.608C297.983 142.504 297.423 140.888 297.423 138.76C297.423 136.648 297.927 135.04 298.935 133.936C299.943 132.832 301.399 132.28 303.303 132.28C306.855 132.28 308.679 134.296 308.775 138.328C308.791 138.712 308.655 139.032 308.367 139.288C308.079 139.544 307.743 139.672 307.359 139.672H300.807C300.663 139.672 300.607 139.744 300.639 139.888C300.751 140.96 301.103 141.744 301.695 142.24C302.303 142.72 303.183 142.96 304.335 142.96C305.055 142.96 305.855 142.84 306.735 142.6C307.023 142.52 307.287 142.568 307.527 142.744C307.783 142.92 307.911 143.16 307.911 143.464C307.911 143.832 307.799 144.16 307.575 144.448C307.367 144.72 307.087 144.888 306.735 144.952C305.839 145.144 304.911 145.24 303.951 145.24ZM316.343 134.512C315.527 134.512 314.895 134.744 314.447 135.208C314.015 135.656 313.743 136.384 313.631 137.392C313.631 137.52 313.695 137.584 313.823 137.584H318.527C318.655 137.584 318.719 137.52 318.719 137.392C318.655 135.472 317.863 134.512 316.343 134.512ZM316.943 145.24C314.847 145.24 313.231 144.696 312.095 143.608C310.975 142.504 310.415 140.888 310.415 138.76C310.415 136.648 310.919 135.04 311.927 133.936C312.935 132.832 314.391 132.28 316.295 132.28C319.847 132.28 321.671 134.296 321.767 138.328C321.783 138.712 321.647 139.032 321.359 139.288C321.071 139.544 320.735 139.672 320.351 139.672H313.799C313.655 139.672 313.599 139.744 313.631 139.888C313.743 140.96 314.095 141.744 314.687 142.24C315.295 142.72 316.175 142.96 317.327 142.96C318.047 142.96 318.847 142.84 319.727 142.6C320.015 142.52 320.279 142.568 320.519 142.744C320.775 142.92 320.903 143.16 320.903 143.464C320.903 143.832 320.791 144.16 320.567 144.448C320.359 144.72 320.079 144.888 319.727 144.952C318.831 145.144 317.903 145.24 316.943 145.24ZM328.309 139.96C326.629 139.592 325.429 139.088 324.709 138.448C324.005 137.808 323.653 136.976 323.653 135.952C323.653 134.8 324.077 133.904 324.925 133.264C325.789 132.608 327.061 132.28 328.741 132.28C329.797 132.28 330.845 132.376 331.885 132.568C332.237 132.632 332.517 132.808 332.725 133.096C332.949 133.368 333.061 133.688 333.061 134.056C333.061 134.36 332.941 134.608 332.701 134.8C332.461 134.976 332.189 135.024 331.885 134.944C330.989 134.72 330.045 134.608 329.053 134.608C327.613 134.608 326.893 135.008 326.893 135.808C326.893 136.192 327.029 136.512 327.301 136.768C327.573 137.024 328.037 137.224 328.693 137.368C330.533 137.736 331.789 138.232 332.461 138.856C333.149 139.48 333.493 140.392 333.493 141.592C333.493 142.744 333.061 143.64 332.197 144.28C331.333 144.92 330.077 145.24 328.429 145.24C327.357 145.24 326.261 145.112 325.141 144.856C324.789 144.776 324.501 144.592 324.277 144.304C324.053 144 323.941 143.656 323.941 143.272C323.941 142.968 324.061 142.736 324.301 142.576C324.557 142.416 324.829 142.376 325.117 142.456C326.157 142.744 327.141 142.888 328.069 142.888C329.525 142.888 330.253 142.456 330.253 141.592C330.253 141.176 330.109 140.848 329.821 140.608C329.549 140.368 329.045 140.152 328.309 139.96Z" fill="white"/>
<rect x="20.2941" y="72.2258" width="346.133" height="3.24459" fill="#868585" stroke="black" stroke-width="0.490571"/>
<path d="M372.394 65.0352L364.807 72.0146H22.6699L14.3721 65.0352H372.394Z" fill="#726E6E" stroke="black" stroke-width="0.490571"/>
<path d="M93.92 118.98C93 118.98 92.2 118.66 91.52 118.02C90.84 117.34 90.5 116.54 90.5 115.62C90.5 114.7 90.84 113.9 91.52 113.22C92.2 112.54 93 112.2 93.92 112.2H116.9C117.82 112.2 118.62 112.54 119.3 113.22C119.98 113.9 120.32 114.7 120.32 115.62C120.32 117.82 119.72 119.94 118.52 121.98C113.24 131.1 108.72 141.36 104.96 152.76C104.64 153.72 104.06 154.5 103.22 155.1C102.42 155.7 101.52 156 100.52 156H98.42C97.58 156 96.92 155.66 96.44 154.98C95.96 154.3 95.86 153.56 96.14 152.76C100.54 140.56 105.92 129.38 112.28 119.22V119.1C112.28 119.02 112.26 118.98 112.22 118.98H93.92ZM133.465 128.34C132.905 128.78 132.305 128.84 131.665 128.52C131.065 128.2 130.765 127.7 130.765 127.02V124.62C130.765 122.38 131.665 120.56 133.465 119.16L139.885 114.24C141.685 112.88 143.725 112.2 146.005 112.2H147.805C148.725 112.2 149.505 112.54 150.145 113.22C150.825 113.9 151.165 114.7 151.165 115.62V152.58C151.165 153.5 150.825 154.3 150.145 154.98C149.505 155.66 148.725 156 147.805 156H146.005C145.085 156 144.285 155.66 143.605 154.98C142.925 154.3 142.585 153.5 142.585 152.58V121.44L142.525 121.38L142.465 121.44L133.465 128.34ZM171.091 118.98C170.171 118.98 169.371 118.66 168.691 118.02C168.011 117.34 167.671 116.54 167.671 115.62C167.671 114.7 168.011 113.9 168.691 113.22C169.371 112.54 170.171 112.2 171.091 112.2H194.071C194.991 112.2 195.791 112.54 196.471 113.22C197.151 113.9 197.491 114.7 197.491 115.62C197.491 117.82 196.891 119.94 195.691 121.98C190.411 131.1 185.891 141.36 182.131 152.76C181.811 153.72 181.231 154.5 180.391 155.1C179.591 155.7 178.691 156 177.691 156H175.591C174.751 156 174.091 155.66 173.611 154.98C173.131 154.3 173.031 153.56 173.311 152.76C177.711 140.56 183.091 129.38 189.451 119.22V119.1C189.451 119.02 189.431 118.98 189.391 118.98H171.091Z" fill="white"/>
<path d="M130.64 242.22C130.64 242.26 130.62 242.28 130.58 242.28C130.58 242.28 130.58 242.3 130.58 242.34C130.58 242.38 130.6 242.4 130.64 242.4H142.1C142.42 242.4 142.58 242.22 142.58 241.86V225.24C142.58 225.2 142.56 225.18 142.52 225.18H142.46L130.64 242.22ZM126.08 249C125.2 249 124.42 248.68 123.74 248.04C123.1 247.4 122.78 246.62 122.78 245.7C122.78 243.46 123.42 241.46 124.7 239.7L140.66 216.96C141.94 215.12 143.72 214.2 146 214.2H147.32C148.24 214.2 149.04 214.54 149.72 215.22C150.4 215.9 150.74 216.7 150.74 217.62V241.86C150.74 242.22 150.9 242.4 151.22 242.4H154.1C155.02 242.4 155.8 242.72 156.44 243.36C157.08 244 157.4 244.78 157.4 245.7C157.4 246.62 157.08 247.4 156.44 248.04C155.8 248.68 155.02 249 154.1 249H151.22C150.9 249 150.74 249.18 150.74 249.54V254.58C150.74 255.5 150.4 256.3 149.72 256.98C149.04 257.66 148.24 258 147.32 258H146C145.08 258 144.28 257.66 143.6 256.98C142.92 256.3 142.58 255.5 142.58 254.58V249.54C142.58 249.18 142.42 249 142.1 249H126.08ZM178.585 238.14C173.545 239.78 171.025 242.26 171.025 245.58C171.025 247.66 171.825 249.34 173.425 250.62C175.025 251.86 177.145 252.48 179.785 252.48C182.425 252.48 184.505 251.86 186.025 250.62C187.585 249.34 188.365 247.66 188.365 245.58C188.365 243.82 187.725 242.36 186.445 241.2C185.165 240.04 182.885 239.02 179.605 238.14C179.245 238.02 178.905 238.02 178.585 238.14ZM179.785 219.72C177.465 219.72 175.645 220.24 174.325 221.28C173.045 222.32 172.405 223.7 172.405 225.42C172.405 228.34 174.765 230.48 179.485 231.84C179.925 231.92 180.245 231.92 180.445 231.84C185.005 230.4 187.285 228.26 187.285 225.42C187.285 223.7 186.625 222.32 185.305 221.28C183.985 220.24 182.145 219.72 179.785 219.72ZM192.145 255.18C189.185 257.46 185.065 258.6 179.785 258.6C174.505 258.6 170.385 257.46 167.425 255.18C164.465 252.9 162.985 249.84 162.985 246C162.985 243.8 163.705 241.78 165.145 239.94C166.585 238.06 168.725 236.52 171.565 235.32C171.645 235.32 171.685 235.28 171.685 235.2C171.685 235.16 171.665 235.14 171.625 235.14C169.305 233.98 167.505 232.48 166.225 230.64C164.985 228.8 164.365 226.78 164.365 224.58C164.365 221.3 165.725 218.66 168.445 216.66C171.165 214.62 174.945 213.6 179.785 213.6C184.625 213.6 188.405 214.62 191.125 216.66C193.845 218.66 195.205 221.3 195.205 224.58C195.205 228.74 192.725 231.96 187.765 234.24C187.725 234.24 187.705 234.28 187.705 234.36C187.705 234.4 187.725 234.42 187.765 234.42C193.645 236.66 196.585 240.52 196.585 246C196.585 249.84 195.105 252.9 192.145 255.18Z" fill="white"/>
<path d="M119.6 326.38C119.6 330.14 118.4 333.76 116 337.24C113.64 340.68 109.04 345.26 102.2 350.98C102.12 351.06 102.08 351.12 102.08 351.16C102.08 351.2 102.1 351.22 102.14 351.22H116.3C117.22 351.22 118.02 351.56 118.7 352.24C119.38 352.88 119.72 353.66 119.72 354.58C119.72 355.5 119.38 356.3 118.7 356.98C118.02 357.66 117.22 358 116.3 358H94.28C93.36 358 92.56 357.66 91.88 356.98C91.24 356.3 90.92 355.5 90.92 354.58C90.92 352.3 91.78 350.48 93.5 349.12C100.42 343.6 105.06 339.3 107.42 336.22C109.78 333.14 110.96 330.14 110.96 327.22C110.96 322.78 108.58 320.56 103.82 320.56C101.38 320.56 98.42 321.24 94.94 322.6C94.18 322.92 93.46 322.86 92.78 322.42C92.14 321.98 91.82 321.38 91.82 320.62V319.6C91.82 318.56 92.1 317.62 92.66 316.78C93.26 315.9 94.04 315.32 95 315.04C98.4 314.08 101.74 313.6 105.02 313.6C109.7 313.6 113.3 314.72 115.82 316.96C118.34 319.2 119.6 322.34 119.6 326.38ZM133.465 330.34C132.905 330.78 132.305 330.84 131.665 330.52C131.065 330.2 130.765 329.7 130.765 329.02V326.62C130.765 324.38 131.665 322.56 133.465 321.16L139.885 316.24C141.685 314.88 143.725 314.2 146.005 314.2H147.805C148.725 314.2 149.505 314.54 150.145 315.22C150.825 315.9 151.165 316.7 151.165 317.62V354.58C151.165 355.5 150.825 356.3 150.145 356.98C149.505 357.66 148.725 358 147.805 358H146.005C145.085 358 144.285 357.66 143.605 356.98C142.925 356.3 142.585 355.5 142.585 354.58V323.44L142.525 323.38L142.465 323.44L133.465 330.34ZM171.091 320.98C170.171 320.98 169.371 320.66 168.691 320.02C168.011 319.34 167.671 318.54 167.671 317.62C167.671 316.7 168.011 315.9 168.691 315.22C169.371 314.54 170.171 314.2 171.091 314.2H194.071C194.991 314.2 195.791 314.54 196.471 315.22C197.151 315.9 197.491 316.7 197.491 317.62C197.491 319.82 196.891 321.94 195.691 323.98C190.411 333.1 185.891 343.36 182.131 354.76C181.811 355.72 181.231 356.5 180.391 357.1C179.591 357.7 178.691 358 177.691 358H175.591C174.751 358 174.091 357.66 173.611 356.98C173.131 356.3 173.031 355.56 173.311 354.76C177.711 342.56 183.091 331.38 189.451 321.22V321.1C189.451 321.02 189.431 320.98 189.391 320.98H171.091Z" fill="white"/>
<path d="M140 437.14C134.96 438.78 132.44 441.26 132.44 444.58C132.44 446.66 133.24 448.34 134.84 449.62C136.44 450.86 138.56 451.48 141.2 451.48C143.84 451.48 145.92 450.86 147.44 449.62C149 448.34 149.78 446.66 149.78 444.58C149.78 442.82 149.14 441.36 147.86 440.2C146.58 439.04 144.3 438.02 141.02 437.14C140.66 437.02 140.32 437.02 140 437.14ZM141.2 418.72C138.88 418.72 137.06 419.24 135.74 420.28C134.46 421.32 133.82 422.7 133.82 424.42C133.82 427.34 136.18 429.48 140.9 430.84C141.34 430.92 141.66 430.92 141.86 430.84C146.42 429.4 148.7 427.26 148.7 424.42C148.7 422.7 148.04 421.32 146.72 420.28C145.4 419.24 143.56 418.72 141.2 418.72ZM153.56 454.18C150.6 456.46 146.48 457.6 141.2 457.6C135.92 457.6 131.8 456.46 128.84 454.18C125.88 451.9 124.4 448.84 124.4 445C124.4 442.8 125.12 440.78 126.56 438.94C128 437.06 130.14 435.52 132.98 434.32C133.06 434.32 133.1 434.28 133.1 434.2C133.1 434.16 133.08 434.14 133.04 434.14C130.72 432.98 128.92 431.48 127.64 429.64C126.4 427.8 125.78 425.78 125.78 423.58C125.78 420.3 127.14 417.66 129.86 415.66C132.58 413.62 136.36 412.6 141.2 412.6C146.04 412.6 149.82 413.62 152.54 415.66C155.26 417.66 156.62 420.3 156.62 423.58C156.62 427.74 154.14 430.96 149.18 433.24C149.14 433.24 149.12 433.28 149.12 433.36C149.12 433.4 149.14 433.42 149.18 433.42C155.06 435.66 158 439.52 158 445C158 448.84 156.52 451.9 153.56 454.18ZM186.025 422.74C184.665 420.34 182.585 419.14 179.785 419.14C176.985 419.14 174.905 420.34 173.545 422.74C172.185 425.14 171.505 429.26 171.505 435.1C171.505 440.94 172.185 445.06 173.545 447.46C174.905 449.86 176.985 451.06 179.785 451.06C182.585 451.06 184.665 449.86 186.025 447.46C187.385 445.06 188.065 440.94 188.065 435.1C188.065 429.26 187.385 425.14 186.025 422.74ZM192.385 452.26C189.625 455.82 185.425 457.6 179.785 457.6C174.145 457.6 169.925 455.82 167.125 452.26C164.365 448.7 162.985 442.98 162.985 435.1C162.985 427.22 164.365 421.5 167.125 417.94C169.925 414.38 174.145 412.6 179.785 412.6C185.425 412.6 189.625 414.38 192.385 417.94C195.185 421.5 196.585 427.22 196.585 435.1C196.585 442.98 195.185 448.7 192.385 452.26Z" fill="white"/>
<path d="M383.503 543.178L368.963 524.245H18.2764L0.56543 543.178H383.503Z" fill="#D9D9D9" stroke="black" stroke-width="0.490571"/>
<rect y="543.423" width="41.7064" height="10.832" fill="#FFD600"/>
<rect x="41.707" y="543.423" width="41.7064" height="10.832" fill="#484848"/>
<rect x="83.4121" y="543.423" width="41.7064" height="10.832" fill="#FFD600"/>
<rect x="125.119" y="543.423" width="41.7064" height="10.832" fill="#484848"/>
<rect x="166.826" y="543.423" width="41.7064" height="10.832" fill="#FFD600"/>
<rect x="208.533" y="543.423" width="41.7064" height="10.832" fill="#484848"/>
<rect x="250.238" y="543.423" width="41.7064" height="10.832" fill="#FFD600"/>
<rect x="291.945" y="543.423" width="41.7064" height="10.832" fill="#484848"/>
<rect x="333.652" y="543.423" width="41.7064" height="10.832" fill="#FFD600"/>
<rect x="375.357" y="543.423" width="8.64188" height="10.832" fill="#484848"/>
<rect x="20.1476" y="75.2453" width="3.50943" height="454.509" fill="#868585" stroke="black" stroke-width="0.490571"/>
<rect x="372.148" y="65.2453" width="3.50943" height="471.509" fill="#C5C5C5" stroke="black" stroke-width="0.490571"/>
<rect x="11.1476" y="65.2453" width="3.50943" height="471.509" fill="#C5C5C5" stroke="black" stroke-width="0.490571"/>
<rect x="363.148" y="75.2453" width="3.50943" height="454.509" fill="#868585" stroke="black" stroke-width="0.490571"/>
<rect x="143.245" y="508.245" width="100.224" height="5.0895" fill="#E6E6E6" stroke="black" stroke-width="0.490571"/>
<rect x="148.323" y="517.259" width="90.4913" height="1.65561" fill="#E6E6E6" stroke="black" stroke-width="0.490571"/>
<rect x="148.323" y="521.981" width="90.4913" height="1.65561" fill="#E6E6E6" stroke="black" stroke-width="0.490571"/>
<rect x="147.902" y="513.826" width="5.01066" height="23.9759" fill="#E6E6E6" stroke="black" stroke-width="0.490571"/>
<rect x="234.228" y="513.826" width="5.01066" height="23.9759" fill="#E6E6E6" stroke="black" stroke-width="0.490571"/>
</svg>
