<svg width="382" height="466" viewBox="0 0 382 466" fill="none" xmlns="http://www.w3.org/2000/svg">
<rect width="382" height="65" fill="#E2231A"/>
<rect x="23" y="76" width="339" height="330" fill="#E1E1E1"/>
<path d="M381.238 454.063L366.786 435.131H18.1699L0.5625 454.063H381.238Z" fill="#D9D9D9" stroke="black" stroke-width="0.490571"/>
<rect y="454.309" width="41.4603" height="10.832" fill="#FFD600"/>
<rect x="41.4609" y="454.309" width="41.4603" height="10.832" fill="#484848"/>
<rect x="82.9199" y="454.309" width="41.4603" height="10.832" fill="#FFD600"/>
<rect x="124.381" y="454.309" width="41.4603" height="10.832" fill="#484848"/>
<rect x="165.842" y="454.309" width="41.4603" height="10.832" fill="#FFD600"/>
<rect x="207.303" y="454.309" width="41.4603" height="10.832" fill="#484848"/>
<rect x="248.762" y="454.309" width="41.4603" height="10.832" fill="#FFD600"/>
<rect x="290.223" y="454.309" width="41.4603" height="10.832" fill="#484848"/>
<rect x="331.684" y="454.309" width="41.4603" height="10.832" fill="#FFD600"/>
<rect x="373.143" y="454.309" width="8.59088" height="10.832" fill="#484848"/>
<rect x="19.1476" y="71.1281" width="3.50943" height="371.509" fill="#868585" stroke="black" stroke-width="0.490571"/>
<rect x="371.148" y="65.1281" width="3.50943" height="382.509" fill="#C5C5C5" stroke="black" stroke-width="0.490571"/>
<rect x="10.1476" y="65.1281" width="3.50943" height="382.509" fill="#C5C5C5" stroke="black" stroke-width="0.490571"/>
<rect x="19.2941" y="72.2258" width="346.133" height="3.24459" fill="#868585" stroke="black" stroke-width="0.490571"/>
<rect x="362.148" y="71.1281" width="3.50943" height="369.509" fill="#868585" stroke="black" stroke-width="0.490571"/>
<path d="M371.394 65.0352L363.807 72.0146H21.6699L13.3721 65.0352H371.394Z" fill="#726E6E" stroke="black" stroke-width="0.490571"/>
<rect x="148.53" y="422.245" width="88.4064" height="4.36514" fill="#E6E6E6" stroke="black" stroke-width="0.490571"/>
<rect x="153.013" y="430.089" width="79.8155" height="1.37701" fill="#E6E6E6" stroke="black" stroke-width="0.490571"/>
<rect x="153.013" y="434.197" width="79.8155" height="1.37701" fill="#E6E6E6" stroke="black" stroke-width="0.490571"/>
<rect x="152.64" y="427.101" width="4.36514" height="20.7999" fill="#E6E6E6" stroke="black" stroke-width="0.490571"/>
<rect x="228.837" y="427.101" width="4.36514" height="20.7999" fill="#E6E6E6" stroke="black" stroke-width="0.490571"/>
<rect x="47" y="88" width="297" height="88" rx="23.4906" fill="#3FA9F5"/>
<path d="M85.5488 155V148.379L101.076 133.965C102.404 132.695 103.518 131.553 104.416 130.537C105.314 129.502 105.998 128.496 106.467 127.52C106.936 126.523 107.17 125.449 107.17 124.297C107.17 123.008 106.877 121.904 106.291 120.986C105.705 120.068 104.914 119.355 103.918 118.848C102.922 118.34 101.779 118.086 100.49 118.086C99.1621 118.086 98 118.359 97.0039 118.906C96.0078 119.434 95.2363 120.205 94.6895 121.221C94.1621 122.217 93.8984 123.418 93.8984 124.824H85.1094C85.1094 121.953 85.7539 119.473 87.043 117.383C88.3516 115.273 90.168 113.643 92.4922 112.49C94.8359 111.338 97.5312 110.762 100.578 110.762C103.684 110.762 106.398 111.318 108.723 112.432C111.047 113.525 112.854 115.049 114.143 117.002C115.432 118.936 116.076 121.172 116.076 123.711C116.076 125.352 115.754 126.973 115.109 128.574C114.465 130.156 113.322 131.934 111.682 133.906C110.041 135.859 107.717 138.193 104.709 140.908L98.3223 147.148V147.471H116.662V155H85.5488ZM138.724 155.586C135.013 155.586 131.839 154.707 129.203 152.949C126.585 151.172 124.574 148.623 123.167 145.303C121.781 141.963 121.087 137.93 121.087 133.203C121.087 128.496 121.79 124.473 123.197 121.133C124.603 117.773 126.615 115.205 129.232 113.428C131.869 111.65 135.033 110.762 138.724 110.762C142.435 110.762 145.599 111.65 148.216 113.428C150.853 115.205 152.865 117.764 154.251 121.104C155.658 124.443 156.361 128.477 156.361 133.203C156.361 137.93 155.667 141.963 154.281 145.303C152.894 148.623 150.882 151.172 148.246 152.949C145.628 154.707 142.455 155.586 138.724 155.586ZM138.724 147.969C140.501 147.969 141.996 147.402 143.206 146.27C144.437 145.117 145.365 143.438 145.99 141.23C146.634 139.023 146.956 136.348 146.956 133.203C146.956 130.039 146.634 127.354 145.99 125.146C145.365 122.939 144.437 121.26 143.206 120.107C141.996 118.936 140.501 118.35 138.724 118.35C136.087 118.35 134.056 119.648 132.63 122.246C131.205 124.824 130.492 128.477 130.492 133.203C130.492 136.348 130.804 139.023 131.429 141.23C132.074 143.438 133.011 145.117 134.242 146.27C135.472 147.402 136.966 147.969 138.724 147.969ZM160.493 147.324V140.088L178.686 111.348H184.956V121.426H181.235L169.751 139.59V139.941H195.679V147.324H160.493ZM181.411 155V145.127L181.587 141.875V111.348H190.259V155H181.411Z" fill="white"/>
<path d="M217.149 145V127.539H220.314V134.934H228.399V127.539H231.564V145H228.399V137.594H220.314V145H217.149ZM237.395 145.27C236.559 145.27 235.809 145.121 235.145 144.824C234.481 144.52 233.958 144.074 233.575 143.488C233.192 142.902 233.001 142.18 233.001 141.32C233.001 140.586 233.137 139.977 233.411 139.492C233.684 139.008 234.055 138.621 234.524 138.332C235.001 138.043 235.536 137.824 236.13 137.676C236.723 137.52 237.337 137.41 237.969 137.348C238.743 137.262 239.368 137.188 239.844 137.125C240.321 137.062 240.665 136.961 240.876 136.82C241.094 136.68 241.204 136.461 241.204 136.164V136.105C241.204 135.473 241.016 134.98 240.641 134.629C240.266 134.277 239.719 134.102 239.001 134.102C238.243 134.102 237.641 134.266 237.196 134.594C236.759 134.922 236.462 135.309 236.305 135.754L233.434 135.344C233.661 134.547 234.036 133.883 234.559 133.352C235.083 132.812 235.719 132.41 236.469 132.145C237.227 131.871 238.063 131.734 238.977 131.734C239.602 131.734 240.227 131.809 240.852 131.957C241.477 132.098 242.051 132.34 242.575 132.684C243.098 133.027 243.516 133.488 243.829 134.066C244.141 134.645 244.298 135.367 244.298 136.234V145H241.333V143.195H241.239C241.051 143.555 240.786 143.895 240.442 144.215C240.106 144.527 239.684 144.781 239.176 144.977C238.676 145.172 238.083 145.27 237.395 145.27ZM238.18 142.996C238.805 142.996 239.344 142.875 239.798 142.633C240.251 142.383 240.602 142.055 240.852 141.648C241.102 141.234 241.227 140.785 241.227 140.301V138.766C241.126 138.844 240.962 138.918 240.735 138.988C240.509 139.051 240.251 139.109 239.962 139.164C239.673 139.219 239.387 139.266 239.106 139.305C238.833 139.344 238.594 139.375 238.391 139.398C237.93 139.461 237.516 139.566 237.149 139.715C236.79 139.855 236.505 140.051 236.294 140.301C236.083 140.551 235.977 140.875 235.977 141.273C235.977 141.844 236.184 142.273 236.598 142.562C237.012 142.852 237.54 142.996 238.18 142.996ZM251.946 145.258C250.641 145.258 249.52 144.973 248.582 144.402C247.645 143.824 246.926 143.027 246.426 142.012C245.926 140.996 245.676 139.828 245.676 138.508C245.676 137.172 245.93 135.996 246.438 134.98C246.946 133.965 247.668 133.172 248.606 132.602C249.543 132.023 250.649 131.734 251.922 131.734C252.993 131.734 253.938 131.93 254.758 132.32C255.578 132.711 256.231 133.262 256.715 133.973C257.207 134.676 257.489 135.5 257.559 136.445H254.606C254.528 136.023 254.375 135.645 254.149 135.309C253.922 134.973 253.625 134.707 253.258 134.512C252.899 134.316 252.469 134.219 251.969 134.219C251.336 134.219 250.782 134.391 250.305 134.734C249.836 135.07 249.469 135.555 249.203 136.188C248.938 136.82 248.805 137.578 248.805 138.461C248.805 139.352 248.934 140.121 249.192 140.77C249.45 141.41 249.817 141.906 250.293 142.258C250.77 142.602 251.328 142.773 251.969 142.773C252.649 142.773 253.223 142.574 253.692 142.176C254.168 141.777 254.473 141.227 254.606 140.523H257.559C257.489 141.453 257.215 142.273 256.739 142.984C256.262 143.695 255.618 144.254 254.805 144.66C253.993 145.059 253.039 145.258 251.946 145.258ZM261.691 140.898L261.68 137.16H262.184L266.883 131.898H270.492L264.703 138.355H264.059L261.691 140.898ZM258.879 145V127.539H261.961V145H258.879ZM267.094 145L262.828 139.047L264.914 136.867L270.785 145H267.094ZM276.547 145.258C275.234 145.258 274.101 144.984 273.148 144.438C272.195 143.883 271.461 143.102 270.945 142.094C270.437 141.086 270.183 139.898 270.183 138.531C270.183 137.18 270.437 135.996 270.945 134.98C271.453 133.957 272.168 133.16 273.089 132.59C274.011 132.02 275.097 131.734 276.347 131.734C277.152 131.734 277.914 131.863 278.632 132.121C279.359 132.379 280 132.777 280.554 133.316C281.117 133.855 281.558 134.543 281.879 135.379C282.199 136.207 282.359 137.195 282.359 138.344V139.305H271.625V137.23H280.824L279.382 137.84C279.382 137.098 279.269 136.453 279.043 135.906C278.816 135.352 278.48 134.918 278.035 134.605C277.589 134.293 277.035 134.137 276.371 134.137C275.707 134.137 275.14 134.293 274.672 134.605C274.203 134.918 273.847 135.34 273.605 135.871C273.363 136.395 273.242 136.98 273.242 137.629V139.07C273.242 139.867 273.379 140.551 273.652 141.121C273.933 141.684 274.324 142.113 274.824 142.41C275.332 142.707 275.922 142.855 276.593 142.855C277.031 142.855 277.429 142.793 277.789 142.668C278.156 142.543 278.468 142.355 278.726 142.105C278.992 141.848 279.195 141.531 279.336 141.156L282.218 141.496C282.031 142.254 281.683 142.918 281.175 143.488C280.675 144.051 280.031 144.488 279.242 144.801C278.461 145.105 277.562 145.258 276.547 145.258ZM283.691 145V131.898H286.679V134.102H286.82C287.054 133.336 287.464 132.75 288.05 132.344C288.636 131.93 289.304 131.723 290.054 131.723C290.218 131.723 290.406 131.73 290.616 131.746C290.835 131.762 291.015 131.781 291.156 131.805V134.641C291.023 134.594 290.816 134.555 290.534 134.523C290.253 134.492 289.984 134.477 289.726 134.477C289.156 134.477 288.648 134.598 288.202 134.84C287.757 135.082 287.406 135.414 287.148 135.836C286.898 136.258 286.773 136.75 286.773 137.312V145H283.691ZM302.308 135.379L299.507 135.672C299.39 135.242 299.136 134.863 298.745 134.535C298.354 134.199 297.804 134.031 297.093 134.031C296.452 134.031 295.913 134.172 295.476 134.453C295.046 134.734 294.831 135.094 294.831 135.531C294.831 135.914 294.972 136.23 295.253 136.48C295.542 136.723 296.018 136.918 296.683 137.066L298.921 137.535C300.147 137.793 301.065 138.215 301.675 138.801C302.284 139.387 302.589 140.145 302.589 141.074C302.589 141.895 302.351 142.621 301.874 143.254C301.397 143.887 300.737 144.379 299.893 144.73C299.058 145.082 298.093 145.258 296.999 145.258C295.397 145.258 294.108 144.922 293.132 144.25C292.163 143.57 291.581 142.629 291.386 141.426L294.397 141.145C294.53 141.73 294.819 142.176 295.265 142.48C295.718 142.777 296.296 142.926 296.999 142.926C297.733 142.926 298.323 142.777 298.768 142.48C299.214 142.176 299.436 141.805 299.436 141.367C299.436 140.633 298.851 140.133 297.679 139.867L295.44 139.398C294.183 139.125 293.253 138.684 292.651 138.074C292.05 137.457 291.749 136.672 291.749 135.719C291.749 134.906 291.972 134.203 292.417 133.609C292.862 133.016 293.483 132.555 294.28 132.227C295.077 131.898 295.999 131.734 297.046 131.734C298.585 131.734 299.792 132.066 300.667 132.73C301.55 133.387 302.097 134.27 302.308 135.379Z" fill="white"/>
<rect x="50" y="191.739" width="297.098" height="87.5224" rx="23.4906" fill="#3FA9F5"/>
<path d="M141.453 258.586C139.227 258.586 137.068 258.215 134.979 257.473C132.889 256.73 131.023 255.529 129.383 253.869C127.742 252.209 126.434 250.012 125.457 247.277C124.5 244.523 124.021 241.154 124.021 237.17C124.021 233.498 124.432 230.217 125.252 227.326C126.092 224.436 127.283 221.984 128.826 219.973C130.389 217.941 132.264 216.398 134.451 215.344C136.639 214.289 139.08 213.762 141.775 213.762C144.686 213.762 147.254 214.328 149.48 215.461C151.707 216.594 153.494 218.127 154.842 220.061C156.209 221.994 157.029 224.152 157.303 226.535H148.25C147.898 225.012 147.146 223.82 145.994 222.961C144.842 222.102 143.436 221.672 141.775 221.672C138.924 221.672 136.756 222.912 135.271 225.393C133.807 227.854 133.074 231.203 133.074 235.441H133.367C134.031 234.152 134.91 233.049 136.004 232.131C137.117 231.213 138.387 230.51 139.812 230.021C141.238 229.533 142.742 229.289 144.324 229.289C146.922 229.289 149.227 229.895 151.238 231.105C153.27 232.316 154.861 233.986 156.014 236.115C157.186 238.225 157.771 240.646 157.771 243.381C157.771 246.33 157.078 248.957 155.691 251.262C154.324 253.547 152.42 255.344 149.979 256.652C147.537 257.941 144.695 258.586 141.453 258.586ZM141.395 251.32C142.82 251.32 144.09 250.988 145.203 250.324C146.316 249.641 147.195 248.713 147.84 247.541C148.504 246.369 148.836 245.061 148.836 243.615C148.836 242.17 148.514 240.871 147.869 239.719C147.225 238.566 146.346 237.658 145.232 236.994C144.139 236.311 142.879 235.969 141.453 235.969C140.047 235.969 138.777 236.32 137.645 237.023C136.512 237.707 135.613 238.635 134.949 239.807C134.305 240.959 133.982 242.238 133.982 243.645C133.982 245.051 134.305 246.34 134.949 247.512C135.594 248.684 136.473 249.611 137.586 250.295C138.719 250.979 139.988 251.32 141.395 251.32ZM161.904 250.324V243.088L180.097 214.348H186.367V224.426H182.646L171.162 242.59V242.941H197.089V250.324H161.904ZM182.822 258V248.127L182.997 244.875V214.348H191.669V258H182.822Z" fill="white"/>
<path d="M218.266 244V226.539H224.816C226.16 226.539 227.285 226.789 228.191 227.289C229.105 227.789 229.797 228.477 230.266 229.352C230.734 230.227 230.969 231.219 230.969 232.328C230.969 233.445 230.73 234.441 230.254 235.316C229.785 236.184 229.09 236.867 228.168 237.367C227.246 237.859 226.113 238.105 224.77 238.105H220.434V235.504H224.336C225.125 235.504 225.77 235.371 226.27 235.105C226.777 234.832 227.148 234.457 227.383 233.98C227.625 233.496 227.746 232.945 227.746 232.328C227.746 231.703 227.625 231.156 227.383 230.688C227.148 230.211 226.777 229.844 226.27 229.586C225.77 229.32 225.121 229.188 224.324 229.188H221.43V244H218.266ZM232.347 244V230.898H235.336V233.102H235.476C235.711 232.336 236.121 231.75 236.707 231.344C237.293 230.93 237.961 230.723 238.711 230.723C238.875 230.723 239.062 230.73 239.273 230.746C239.492 230.762 239.672 230.781 239.812 230.805V233.641C239.679 233.594 239.472 233.555 239.191 233.523C238.91 233.492 238.64 233.477 238.382 233.477C237.812 233.477 237.304 233.598 236.859 233.84C236.414 234.082 236.062 234.414 235.804 234.836C235.554 235.258 235.429 235.75 235.429 236.312V244H232.347ZM245.796 244.258C244.515 244.258 243.406 243.977 242.468 243.414C241.531 242.852 240.804 242.062 240.288 241.047C239.781 240.031 239.527 238.852 239.527 237.508C239.527 236.156 239.781 234.973 240.288 233.957C240.804 232.934 241.531 232.141 242.468 231.578C243.406 231.016 244.515 230.734 245.796 230.734C247.077 230.734 248.187 231.016 249.124 231.578C250.062 232.141 250.788 232.934 251.304 233.957C251.82 234.973 252.077 236.156 252.077 237.508C252.077 238.852 251.82 240.031 251.304 241.047C250.788 242.062 250.062 242.852 249.124 243.414C248.187 243.977 247.077 244.258 245.796 244.258ZM245.796 241.773C246.507 241.773 247.093 241.586 247.554 241.211C248.015 240.828 248.359 240.312 248.585 239.664C248.82 239.016 248.937 238.297 248.937 237.508C248.937 236.703 248.82 235.977 248.585 235.328C248.359 234.68 248.015 234.168 247.554 233.793C247.093 233.41 246.507 233.219 245.796 233.219C245.101 233.219 244.519 233.41 244.05 233.793C243.581 234.168 243.23 234.68 242.995 235.328C242.769 235.977 242.656 236.703 242.656 237.508C242.656 238.297 242.769 239.016 242.995 239.664C243.23 240.312 243.581 240.828 244.05 241.211C244.519 241.586 245.101 241.773 245.796 241.773ZM253.433 230.898H256.515V244.75C256.522 245.695 256.347 246.473 255.987 247.082C255.628 247.699 255.108 248.156 254.429 248.453C253.749 248.75 252.925 248.898 251.956 248.898H251.335V246.391H251.78C252.374 246.391 252.796 246.246 253.046 245.957C253.304 245.676 253.433 245.262 253.433 244.715V230.898ZM254.968 229.059C254.476 229.059 254.054 228.895 253.702 228.566C253.351 228.238 253.175 227.844 253.175 227.383C253.175 226.914 253.351 226.516 253.702 226.188C254.054 225.859 254.476 225.695 254.968 225.695C255.452 225.695 255.87 225.859 256.222 226.188C256.573 226.516 256.749 226.91 256.749 227.371C256.749 227.84 256.573 228.238 256.222 228.566C255.87 228.895 255.452 229.059 254.968 229.059ZM264.256 244.258C262.944 244.258 261.811 243.984 260.858 243.438C259.905 242.883 259.17 242.102 258.655 241.094C258.147 240.086 257.893 238.898 257.893 237.531C257.893 236.18 258.147 234.996 258.655 233.98C259.163 232.957 259.878 232.16 260.799 231.59C261.721 231.02 262.807 230.734 264.057 230.734C264.862 230.734 265.624 230.863 266.342 231.121C267.069 231.379 267.71 231.777 268.264 232.316C268.827 232.855 269.268 233.543 269.588 234.379C269.909 235.207 270.069 236.195 270.069 237.344V238.305H259.335V236.23H268.534L267.092 236.84C267.092 236.098 266.979 235.453 266.753 234.906C266.526 234.352 266.19 233.918 265.745 233.605C265.299 233.293 264.745 233.137 264.081 233.137C263.417 233.137 262.85 233.293 262.381 233.605C261.913 233.918 261.557 234.34 261.315 234.871C261.073 235.395 260.952 235.98 260.952 236.629V238.07C260.952 238.867 261.088 239.551 261.362 240.121C261.643 240.684 262.034 241.113 262.534 241.41C263.042 241.707 263.631 241.855 264.303 241.855C264.741 241.855 265.139 241.793 265.499 241.668C265.866 241.543 266.178 241.355 266.436 241.105C266.702 240.848 266.905 240.531 267.045 240.156L269.928 240.496C269.741 241.254 269.393 241.918 268.885 242.488C268.385 243.051 267.741 243.488 266.952 243.801C266.17 244.105 265.272 244.258 264.256 244.258ZM277.108 244.258C275.803 244.258 274.682 243.973 273.744 243.402C272.807 242.824 272.088 242.027 271.588 241.012C271.088 239.996 270.838 238.828 270.838 237.508C270.838 236.172 271.092 234.996 271.6 233.98C272.108 232.965 272.83 232.172 273.768 231.602C274.705 231.023 275.811 230.734 277.084 230.734C278.154 230.734 279.1 230.93 279.92 231.32C280.74 231.711 281.393 232.262 281.877 232.973C282.369 233.676 282.651 234.5 282.721 235.445H279.768C279.69 235.023 279.537 234.645 279.311 234.309C279.084 233.973 278.787 233.707 278.42 233.512C278.061 233.316 277.631 233.219 277.131 233.219C276.498 233.219 275.944 233.391 275.467 233.734C274.998 234.07 274.631 234.555 274.365 235.188C274.1 235.82 273.967 236.578 273.967 237.461C273.967 238.352 274.096 239.121 274.354 239.77C274.612 240.41 274.979 240.906 275.455 241.258C275.932 241.602 276.49 241.773 277.131 241.773C277.811 241.773 278.385 241.574 278.854 241.176C279.33 240.777 279.635 240.227 279.768 239.523H282.721C282.651 240.453 282.377 241.273 281.901 241.984C281.424 242.695 280.779 243.254 279.967 243.66C279.154 244.059 278.201 244.258 277.108 244.258ZM290.568 230.898V233.289H283.056V230.898H290.568ZM284.896 227.781H287.978V240.062C287.978 240.578 288.092 240.961 288.318 241.211C288.545 241.453 288.904 241.574 289.396 241.574C289.529 241.574 289.678 241.562 289.842 241.539C290.006 241.516 290.154 241.488 290.287 241.457L290.814 243.871C290.486 243.973 290.154 244.047 289.818 244.094C289.482 244.148 289.146 244.176 288.81 244.176C287.592 244.176 286.635 243.855 285.939 243.215C285.244 242.566 284.896 241.684 284.896 240.566V227.781ZM302.072 234.379L299.271 234.672C299.154 234.242 298.9 233.863 298.509 233.535C298.119 233.199 297.568 233.031 296.857 233.031C296.216 233.031 295.677 233.172 295.24 233.453C294.81 233.734 294.595 234.094 294.595 234.531C294.595 234.914 294.736 235.23 295.017 235.48C295.306 235.723 295.783 235.918 296.447 236.066L298.685 236.535C299.912 236.793 300.83 237.215 301.439 237.801C302.048 238.387 302.353 239.145 302.353 240.074C302.353 240.895 302.115 241.621 301.638 242.254C301.162 242.887 300.501 243.379 299.658 243.73C298.822 244.082 297.857 244.258 296.763 244.258C295.162 244.258 293.873 243.922 292.896 243.25C291.927 242.57 291.345 241.629 291.15 240.426L294.162 240.145C294.294 240.73 294.583 241.176 295.029 241.48C295.482 241.777 296.06 241.926 296.763 241.926C297.498 241.926 298.087 241.777 298.533 241.48C298.978 241.176 299.201 240.805 299.201 240.367C299.201 239.633 298.615 239.133 297.443 238.867L295.205 238.398C293.947 238.125 293.017 237.684 292.416 237.074C291.814 236.457 291.513 235.672 291.513 234.719C291.513 233.906 291.736 233.203 292.181 232.609C292.626 232.016 293.248 231.555 294.044 231.227C294.841 230.898 295.763 230.734 296.81 230.734C298.349 230.734 299.556 231.066 300.431 231.73C301.314 232.387 301.861 233.27 302.072 234.379Z" fill="white"/>
<rect x="50" y="295.478" width="297.098" height="87.5224" rx="23.4906" fill="#3FA9F5"/>
<path d="M82.1745 365.116V313.897H85.4479V365.116H82.1745ZM83.825 360.578C80.5241 360.578 77.6449 360.073 75.1876 359.065C72.7486 358.056 70.8414 356.552 69.466 354.553C68.1089 352.555 67.3937 350.079 67.3204 347.126H75.6827C75.7927 348.483 76.1962 349.63 76.893 350.565C77.5899 351.482 78.5252 352.169 79.6988 352.628C80.8725 353.086 82.2204 353.316 83.7425 353.316C85.2095 353.316 86.4841 353.105 87.566 352.683C88.6663 352.261 89.5099 351.674 90.0967 350.922C90.7019 350.152 91.0045 349.263 91.0045 348.254C91.0045 347.337 90.7294 346.567 90.1793 345.944C89.6474 345.32 88.8589 344.788 87.8136 344.348C86.7866 343.908 85.5305 343.514 84.045 343.165L79.5613 342.065C76.1137 341.24 73.3904 339.929 71.3915 338.131C69.3926 336.316 68.3932 333.895 68.3932 330.869C68.3932 328.394 69.0625 326.23 70.4012 324.378C71.7583 322.507 73.6013 321.058 75.9303 320.031C78.2776 318.986 80.9458 318.463 83.935 318.463C86.9792 318.463 89.6291 318.986 91.8847 320.031C94.1587 321.077 95.9284 322.525 97.1937 324.378C98.4774 326.23 99.1376 328.366 99.1743 330.787H90.8394C90.6927 329.191 90.005 327.944 88.7764 327.046C87.566 326.147 85.9247 325.698 83.8525 325.698C82.4588 325.698 81.2668 325.9 80.2765 326.303C79.3046 326.688 78.5618 327.229 78.0484 327.926C77.5349 328.623 77.2782 329.421 77.2782 330.319C77.2782 331.273 77.5716 332.08 78.1584 332.74C78.7452 333.382 79.5246 333.914 80.4966 334.335C81.4868 334.739 82.5688 335.078 83.7425 335.353L87.401 336.261C89.1798 336.664 90.8211 337.205 92.3249 337.884C93.8286 338.544 95.1306 339.36 96.231 340.332C97.3496 341.304 98.2115 342.45 98.8167 343.77C99.4218 345.072 99.7244 346.576 99.7244 348.282C99.7244 350.794 99.0918 352.976 97.8264 354.829C96.5794 356.662 94.773 358.084 92.4074 359.092C90.0417 360.083 87.1809 360.578 83.825 360.578ZM103.644 360V353.783L118.224 340.249C119.471 339.057 120.516 337.985 121.359 337.031C122.203 336.059 122.845 335.115 123.285 334.198C123.725 333.263 123.945 332.254 123.945 331.172C123.945 329.962 123.67 328.925 123.12 328.064C122.57 327.202 121.827 326.532 120.892 326.056C119.956 325.579 118.884 325.34 117.673 325.34C116.426 325.34 115.335 325.597 114.4 326.111C113.465 326.606 112.74 327.33 112.227 328.284C111.732 329.219 111.484 330.347 111.484 331.667H103.232C103.232 328.971 103.837 326.642 105.047 324.68C106.276 322.7 107.981 321.168 110.164 320.086C112.364 319.004 114.895 318.463 117.756 318.463C120.672 318.463 123.221 318.986 125.403 320.031C127.585 321.058 129.282 322.489 130.492 324.323C131.702 326.138 132.307 328.238 132.307 330.622C132.307 332.162 132.005 333.684 131.4 335.188C130.795 336.673 129.722 338.342 128.181 340.194C126.641 342.028 124.459 344.22 121.634 346.769L115.638 352.628V352.931H132.858V360H103.644ZM152.347 318.408C154.456 318.408 156.482 318.766 158.426 319.481C160.388 320.178 162.14 321.315 163.68 322.892C165.239 324.451 166.468 326.523 167.366 329.109C168.265 331.676 168.714 334.821 168.714 338.544C168.714 342.01 168.32 345.1 167.531 347.814C166.761 350.528 165.642 352.839 164.175 354.746C162.727 356.653 160.975 358.111 158.921 359.12C156.886 360.11 154.603 360.605 152.072 360.605C149.358 360.605 146.946 360.073 144.837 359.01C142.728 357.928 141.041 356.47 139.776 354.636C138.511 352.802 137.74 350.757 137.465 348.502H145.993C146.323 349.969 147.02 351.115 148.083 351.94C149.165 352.765 150.495 353.178 152.072 353.178C154.749 353.178 156.776 352.014 158.151 349.685C159.526 347.337 160.214 344.165 160.214 340.167H159.967C159.361 341.359 158.536 342.395 157.491 343.275C156.446 344.137 155.254 344.797 153.915 345.256C152.576 345.714 151.155 345.944 149.651 345.944C147.231 345.944 145.067 345.375 143.159 344.238C141.252 343.101 139.758 341.542 138.676 339.562C137.594 337.563 137.044 335.28 137.025 332.712C137.044 329.943 137.695 327.486 138.978 325.34C140.262 323.176 142.05 321.48 144.342 320.251C146.653 319.004 149.321 318.39 152.347 318.408ZM152.402 325.285C151.1 325.285 149.917 325.606 148.853 326.248C147.79 326.872 146.955 327.733 146.35 328.834C145.745 329.916 145.443 331.135 145.443 332.492C145.443 333.849 145.736 335.069 146.323 336.151C146.928 337.233 147.753 338.095 148.798 338.737C149.844 339.36 151.027 339.672 152.347 339.672C153.686 339.672 154.878 339.351 155.923 338.709C156.987 338.049 157.83 337.178 158.454 336.096C159.077 334.996 159.389 333.776 159.389 332.437C159.389 331.135 159.086 329.943 158.481 328.861C157.876 327.761 157.051 326.89 156.005 326.248C154.96 325.606 153.759 325.285 152.402 325.285ZM173.459 360V319.014H182.097V337.086H182.647L197.391 319.014H207.761L192.577 337.361L207.954 360H197.584L186.36 343.165L182.097 348.364V360H173.459Z" fill="white"/>
<path d="M218.266 351V333.539H224.969C226.227 333.539 227.273 333.738 228.109 334.137C228.945 334.527 229.57 335.066 229.984 335.754C230.398 336.434 230.605 337.203 230.605 338.062C230.605 338.773 230.469 339.383 230.195 339.891C229.93 340.391 229.566 340.797 229.105 341.109C228.645 341.422 228.129 341.648 227.559 341.789V341.965C228.184 341.988 228.777 342.176 229.34 342.527C229.91 342.871 230.375 343.355 230.734 343.98C231.102 344.605 231.285 345.359 231.285 346.242C231.285 347.148 231.066 347.961 230.629 348.68C230.199 349.391 229.543 349.957 228.66 350.379C227.785 350.793 226.68 351 225.344 351H218.266ZM221.43 348.363H224.828C225.977 348.363 226.805 348.141 227.312 347.695C227.828 347.25 228.086 346.684 228.086 345.996C228.086 345.473 227.957 345.004 227.699 344.59C227.441 344.176 227.074 343.848 226.598 343.605C226.129 343.363 225.574 343.242 224.934 343.242H221.43V348.363ZM221.43 340.969H224.57C225.109 340.969 225.598 340.867 226.035 340.664C226.473 340.461 226.816 340.176 227.066 339.809C227.324 339.434 227.453 338.992 227.453 338.484C227.453 337.812 227.215 337.258 226.738 336.82C226.262 336.375 225.562 336.152 224.641 336.152H221.43V340.969ZM238.382 351.258C237.101 351.258 235.992 350.977 235.054 350.414C234.117 349.852 233.39 349.062 232.875 348.047C232.367 347.031 232.113 345.852 232.113 344.508C232.113 343.156 232.367 341.973 232.875 340.957C233.39 339.934 234.117 339.141 235.054 338.578C235.992 338.016 237.101 337.734 238.382 337.734C239.664 337.734 240.773 338.016 241.711 338.578C242.648 339.141 243.375 339.934 243.89 340.957C244.406 341.973 244.664 343.156 244.664 344.508C244.664 345.852 244.406 347.031 243.89 348.047C243.375 349.062 242.648 349.852 241.711 350.414C240.773 350.977 239.664 351.258 238.382 351.258ZM238.382 348.773C239.093 348.773 239.679 348.586 240.14 348.211C240.601 347.828 240.945 347.312 241.172 346.664C241.406 346.016 241.523 345.297 241.523 344.508C241.523 343.703 241.406 342.977 241.172 342.328C240.945 341.68 240.601 341.168 240.14 340.793C239.679 340.41 239.093 340.219 238.382 340.219C237.687 340.219 237.105 340.41 236.636 340.793C236.168 341.168 235.816 341.68 235.582 342.328C235.355 342.977 235.242 343.703 235.242 344.508C235.242 345.297 235.355 346.016 235.582 346.664C235.816 347.312 236.168 347.828 236.636 348.211C237.105 348.586 237.687 348.773 238.382 348.773ZM254.363 345.504V337.898H257.445V351H254.456V348.668H254.316C254.019 349.402 253.534 350.004 252.863 350.473C252.191 350.941 251.363 351.172 250.378 351.164C249.519 351.164 248.761 350.977 248.105 350.602C247.456 350.219 246.945 349.66 246.57 348.926C246.202 348.184 246.019 347.289 246.019 346.242V337.898H249.101V345.773C249.101 346.594 249.327 347.25 249.781 347.742C250.241 348.234 250.843 348.477 251.585 348.469C252.038 348.469 252.476 348.359 252.898 348.141C253.327 347.922 253.679 347.594 253.952 347.156C254.226 346.719 254.363 346.168 254.363 345.504ZM262.468 343.336V351H259.386V337.898H262.409V340.137H262.561C262.858 339.402 263.323 338.82 263.956 338.391C264.597 337.953 265.409 337.734 266.393 337.734C267.3 337.734 268.089 337.926 268.761 338.309C269.433 338.691 269.952 339.254 270.319 339.996C270.694 340.73 270.882 341.621 270.882 342.668V351H267.8V343.148C267.8 342.273 267.573 341.59 267.12 341.098C266.667 340.598 266.042 340.348 265.245 340.348C264.706 340.348 264.226 340.465 263.804 340.699C263.39 340.934 263.061 341.273 262.819 341.719C262.585 342.156 262.468 342.695 262.468 343.336ZM279.35 337.898V340.289H271.838V337.898H279.35ZM273.678 334.781H276.76V347.062C276.76 347.578 276.874 347.961 277.1 348.211C277.327 348.453 277.686 348.574 278.178 348.574C278.311 348.574 278.46 348.562 278.624 348.539C278.788 348.516 278.936 348.488 279.069 348.457L279.596 350.871C279.268 350.973 278.936 351.047 278.6 351.094C278.264 351.148 277.928 351.176 277.592 351.176C276.374 351.176 275.417 350.855 274.721 350.215C274.026 349.566 273.678 348.684 273.678 347.566V334.781ZM280.705 351V337.898H283.787V351H280.705ZM282.252 336.059C281.76 336.059 281.338 335.895 280.987 335.566C280.635 335.238 280.459 334.844 280.459 334.383C280.459 333.914 280.635 333.516 280.987 333.188C281.338 332.859 281.76 332.695 282.252 332.695C282.737 332.695 283.154 332.859 283.506 333.188C283.858 333.516 284.033 333.91 284.033 334.371C284.033 334.84 283.858 335.238 283.506 335.566C283.154 335.895 282.737 336.059 282.252 336.059ZM291.529 351.258C290.217 351.258 289.084 350.984 288.131 350.438C287.178 349.883 286.443 349.102 285.928 348.094C285.42 347.086 285.166 345.898 285.166 344.531C285.166 343.18 285.42 341.996 285.928 340.98C286.435 339.957 287.15 339.16 288.072 338.59C288.994 338.02 290.08 337.734 291.33 337.734C292.135 337.734 292.896 337.863 293.615 338.121C294.342 338.379 294.982 338.777 295.537 339.316C296.099 339.855 296.541 340.543 296.861 341.379C297.181 342.207 297.342 343.195 297.342 344.344V345.305H286.607V343.23H295.806L294.365 343.84C294.365 343.098 294.252 342.453 294.025 341.906C293.799 341.352 293.463 340.918 293.017 340.605C292.572 340.293 292.017 340.137 291.353 340.137C290.689 340.137 290.123 340.293 289.654 340.605C289.185 340.918 288.83 341.34 288.588 341.871C288.346 342.395 288.224 342.98 288.224 343.629V345.07C288.224 345.867 288.361 346.551 288.635 347.121C288.916 347.684 289.306 348.113 289.806 348.41C290.314 348.707 290.904 348.855 291.576 348.855C292.014 348.855 292.412 348.793 292.771 348.668C293.139 348.543 293.451 348.355 293.709 348.105C293.974 347.848 294.178 347.531 294.318 347.156L297.201 347.496C297.014 348.254 296.666 348.918 296.158 349.488C295.658 350.051 295.014 350.488 294.224 350.801C293.443 351.105 292.545 351.258 291.529 351.258ZM309.009 341.379L306.208 341.672C306.091 341.242 305.837 340.863 305.447 340.535C305.056 340.199 304.505 340.031 303.794 340.031C303.154 340.031 302.615 340.172 302.177 340.453C301.748 340.734 301.533 341.094 301.533 341.531C301.533 341.914 301.673 342.23 301.955 342.48C302.244 342.723 302.72 342.918 303.384 343.066L305.623 343.535C306.849 343.793 307.767 344.215 308.376 344.801C308.986 345.387 309.291 346.145 309.291 347.074C309.291 347.895 309.052 348.621 308.576 349.254C308.099 349.887 307.439 350.379 306.595 350.73C305.759 351.082 304.794 351.258 303.701 351.258C302.099 351.258 300.81 350.922 299.833 350.25C298.865 349.57 298.283 348.629 298.087 347.426L301.099 347.145C301.232 347.73 301.521 348.176 301.966 348.48C302.419 348.777 302.998 348.926 303.701 348.926C304.435 348.926 305.025 348.777 305.47 348.48C305.916 348.176 306.138 347.805 306.138 347.367C306.138 346.633 305.552 346.133 304.38 345.867L302.142 345.398C300.884 345.125 299.955 344.684 299.353 344.074C298.751 343.457 298.451 342.672 298.451 341.719C298.451 340.906 298.673 340.203 299.119 339.609C299.564 339.016 300.185 338.555 300.982 338.227C301.779 337.898 302.701 337.734 303.748 337.734C305.287 337.734 306.494 338.066 307.369 338.73C308.251 339.387 308.798 340.27 309.009 341.379Z" fill="white"/>
<path d="M59.0425 32.6885V15.2275H70.4097V17.876H62.2065V22.5635H69.8003V25.1768H62.2065V30.04H70.4565V32.6885H59.0425ZM71.4777 17.876V15.2275L85.3996 15.2275V17.876H80.0089V32.6885H76.88V17.876H71.4777ZM86.6785 32.6885V15.2275H89.8426V22.6221H97.9285V15.2275H101.093V32.6885H97.9285V25.2822H89.8426V32.6885H86.6785ZM103.133 15.2275H107.012L112.192 27.8721H112.391L117.582 15.2275H121.508V32.6885H118.403V20.6885H118.262L113.411 32.6299H111.137L106.344 20.665H106.18V32.6885H103.133V15.2275ZM131.764 27.1924V19.5869H134.846V32.6885H131.858V30.3564H131.717C131.42 31.0908 130.936 31.6924 130.264 32.1611C129.592 32.6299 128.764 32.8604 127.779 32.8525C126.92 32.8525 126.162 32.665 125.506 32.29C124.858 31.9072 124.346 31.3486 123.971 30.6143C123.604 29.8721 123.42 28.9775 123.42 27.9307V19.5869L126.502 19.5869V27.4619C126.502 28.2822 126.729 28.9385 127.182 29.4307C127.643 29.9229 128.244 30.165 128.986 30.1572C129.44 30.1572 129.877 30.0479 130.299 29.8291C130.729 29.6104 131.08 29.2822 131.354 28.8447C131.627 28.4072 131.764 27.8564 131.764 27.1924ZM136.64 32.6885V19.5869H139.582V21.8252H139.746C140.019 21.0752 140.472 20.4893 141.105 20.0674C141.738 19.6377 142.488 19.4229 143.355 19.4229C144.246 19.4229 144.996 19.6377 145.605 20.0674C146.215 20.4971 146.64 21.083 146.883 21.8252H147.023C147.32 21.0986 147.812 20.5166 148.5 20.0791C149.187 19.6416 150.008 19.4229 150.961 19.4229C152.164 19.4229 153.144 19.8057 153.902 20.5713C154.668 21.3291 155.051 22.4385 155.051 23.8994V32.6885H151.957V24.3682C151.957 23.5635 151.738 22.9736 151.301 22.5986C150.871 22.2158 150.344 22.0244 149.719 22.0244C148.976 22.0244 148.398 22.2588 147.984 22.7275C147.57 23.1885 147.363 23.7822 147.363 24.5088V32.6885H144.316V24.251C144.316 23.5713 144.117 23.0322 143.719 22.6338C143.32 22.2275 142.793 22.0244 142.136 22.0244C141.691 22.0244 141.285 22.1377 140.918 22.3643C140.551 22.5908 140.258 22.9072 140.039 23.3135C139.828 23.7197 139.722 24.1885 139.722 24.7197V32.6885H136.64ZM163.794 32.9229C163.052 32.9229 162.431 32.7979 161.931 32.5479C161.439 32.29 161.04 31.9854 160.736 31.6338C160.439 31.2744 160.212 30.9346 160.056 30.6143H159.869V32.6885H156.845V15.2275H159.927V21.7549H160.056C160.212 21.4424 160.435 21.1064 160.724 20.7471C161.013 20.3799 161.404 20.0674 161.896 19.8096C162.396 19.5518 163.033 19.4229 163.806 19.4229C164.814 19.4229 165.724 19.6807 166.537 20.1963C167.349 20.7119 167.994 21.4697 168.47 22.4697C168.955 23.4697 169.197 24.7002 169.197 26.1611C169.197 27.5986 168.962 28.8213 168.494 29.8291C168.025 30.8369 167.38 31.6064 166.56 32.1377C165.747 32.6611 164.826 32.9229 163.794 32.9229ZM162.951 30.3916C163.63 30.3916 164.197 30.208 164.65 29.8408C165.111 29.4736 165.458 28.9697 165.693 28.3291C165.927 27.6885 166.044 26.9619 166.044 26.1494C166.044 25.3369 165.927 24.6143 165.693 23.9814C165.458 23.3486 165.115 22.8525 164.662 22.4932C164.208 22.1338 163.638 21.9541 162.951 21.9541C162.287 21.9541 161.724 22.126 161.263 22.4697C160.81 22.8135 160.462 23.3018 160.22 23.9346C159.986 24.5596 159.869 25.2979 159.869 26.1494C159.869 26.9932 159.986 27.7354 160.22 28.376C160.462 29.0088 160.814 29.5049 161.275 29.8643C161.736 30.2158 162.294 30.3916 162.951 30.3916ZM174.191 32.958C173.355 32.958 172.605 32.8096 171.941 32.5127C171.276 32.208 170.753 31.7627 170.37 31.1768C169.987 30.5908 169.796 29.8682 169.796 29.0088C169.796 28.2744 169.933 27.665 170.206 27.1807C170.48 26.6963 170.851 26.3096 171.319 26.0205C171.796 25.7314 172.331 25.5127 172.925 25.3643C173.519 25.208 174.132 25.0986 174.765 25.0361C175.538 24.9502 176.163 24.876 176.64 24.8135C177.116 24.751 177.46 24.6494 177.671 24.5088C177.89 24.3682 177.999 24.1494 177.999 23.8525V23.7939C177.999 23.1611 177.812 22.6689 177.437 22.3174C177.062 21.9658 176.515 21.79 175.796 21.79C175.038 21.79 174.437 21.9541 173.991 22.2822C173.554 22.6104 173.257 22.9971 173.101 23.4424L170.23 23.0322C170.456 22.2354 170.831 21.5713 171.355 21.04C171.878 20.501 172.515 20.0986 173.265 19.833C174.023 19.5596 174.858 19.4229 175.773 19.4229C176.398 19.4229 177.023 19.4971 177.648 19.6455C178.273 19.7861 178.847 20.0283 179.37 20.3721C179.894 20.7158 180.312 21.1768 180.624 21.7549C180.937 22.333 181.093 23.0557 181.093 23.9229V32.6885H178.128V30.8838H178.034C177.847 31.2432 177.581 31.583 177.237 31.9033C176.901 32.2158 176.48 32.4697 175.972 32.665C175.472 32.8604 174.878 32.958 174.191 32.958ZM174.976 30.6846C175.601 30.6846 176.14 30.5635 176.593 30.3213C177.046 30.0713 177.398 29.7432 177.648 29.3369C177.898 28.9229 178.023 28.4736 178.023 27.9893V26.4541C177.921 26.5322 177.757 26.6064 177.53 26.6768C177.304 26.7393 177.046 26.7979 176.757 26.8525C176.468 26.9072 176.183 26.9541 175.901 26.9932C175.628 27.0322 175.39 27.0635 175.187 27.0869C174.726 27.1494 174.312 27.2549 173.944 27.4033C173.585 27.5439 173.3 27.7393 173.089 27.9893C172.878 28.2393 172.773 28.5635 172.773 28.9619C172.773 29.5322 172.98 29.9619 173.394 30.251C173.808 30.54 174.335 30.6846 174.976 30.6846ZM182.887 32.6885V19.5869H185.969V32.6885H182.887ZM184.434 17.7471C183.942 17.7471 183.52 17.583 183.169 17.2549C182.817 16.9268 182.641 16.5322 182.641 16.0713C182.641 15.6025 182.817 15.2041 183.169 14.876C183.52 14.5479 183.942 14.3838 184.434 14.3838C184.919 14.3838 185.337 14.5479 185.688 14.876C186.04 15.2041 186.216 15.5986 186.216 16.0596C186.216 16.5283 186.04 16.9268 185.688 17.2549C185.337 17.583 184.919 17.7471 184.434 17.7471ZM192.289 32.6885V30.415L198.359 24.4619C198.93 23.876 199.406 23.3564 199.789 22.9033C200.18 22.4502 200.473 22.0127 200.668 21.5908C200.863 21.1611 200.961 20.7041 200.961 20.2197C200.961 19.6729 200.836 19.2002 200.586 18.8018C200.336 18.4033 199.992 18.0986 199.555 17.8877C199.125 17.6768 198.633 17.5713 198.078 17.5713C197.5 17.5713 196.996 17.6885 196.566 17.9229C196.137 18.1572 195.801 18.4893 195.559 18.9189C195.324 19.3486 195.207 19.8604 195.207 20.4541H192.207C192.207 19.3525 192.457 18.3955 192.957 17.583C193.465 16.7627 194.164 16.126 195.055 15.6729C195.945 15.2197 196.965 14.9932 198.113 14.9932C199.293 14.9932 200.324 15.2119 201.207 15.6494C202.09 16.0869 202.777 16.6885 203.27 17.4541C203.762 18.2119 204.008 19.0791 204.008 20.0557C204.008 20.7119 203.883 21.3564 203.633 21.9893C203.383 22.6143 202.941 23.3135 202.309 24.0869C201.684 24.8525 200.805 25.7783 199.672 26.8643L196.672 29.9229V30.0518H204.266V32.6885H192.289ZM212.306 32.9229C210.892 32.9229 209.681 32.5713 208.674 31.8682C207.674 31.1572 206.908 30.1377 206.377 28.8096C205.845 27.4736 205.58 25.8604 205.58 23.9697C205.58 22.0791 205.845 20.4658 206.377 19.1299C206.908 17.7861 207.674 16.7627 208.674 16.0596C209.681 15.3486 210.892 14.9932 212.306 14.9932C213.713 14.9932 214.92 15.3486 215.927 16.0596C216.935 16.7705 217.705 17.7939 218.236 19.1299C218.767 20.4658 219.033 22.0791 219.033 23.9697C219.033 25.8604 218.767 27.4736 218.236 28.8096C217.705 30.1377 216.939 31.1572 215.939 31.8682C214.939 32.5713 213.728 32.9229 212.306 32.9229ZM212.306 30.2744C213.064 30.2744 213.705 30.0283 214.228 29.5361C214.759 29.0439 215.162 28.3291 215.435 27.3916C215.717 26.4463 215.857 25.3057 215.857 23.9697C215.857 22.626 215.717 21.4814 215.435 20.5361C215.162 19.5908 214.759 18.8721 214.228 18.3799C213.705 17.8799 213.064 17.6299 212.306 17.6299C211.166 17.6299 210.287 18.1846 209.67 19.2939C209.06 20.3955 208.756 21.9541 208.756 23.9697C208.756 25.3057 208.892 26.4463 209.166 27.3916C209.439 28.3291 209.842 29.0439 210.373 29.5361C210.904 30.0283 211.549 30.2744 212.306 30.2744ZM220.464 32.6885V30.415L226.535 24.4619C227.105 23.876 227.581 23.3564 227.964 22.9033C228.355 22.4502 228.648 22.0127 228.843 21.5908C229.038 21.1611 229.136 20.7041 229.136 20.2197C229.136 19.6729 229.011 19.2002 228.761 18.8018C228.511 18.4033 228.167 18.0986 227.73 17.8877C227.3 17.6768 226.808 17.5713 226.253 17.5713C225.675 17.5713 225.171 17.6885 224.742 17.9229C224.312 18.1572 223.976 18.4893 223.734 18.9189C223.499 19.3486 223.382 19.8604 223.382 20.4541H220.382C220.382 19.3525 220.632 18.3955 221.132 17.583C221.64 16.7627 222.339 16.126 223.23 15.6729C224.12 15.2197 225.14 14.9932 226.288 14.9932C227.468 14.9932 228.499 15.2119 229.382 15.6494C230.265 16.0869 230.952 16.6885 231.445 17.4541C231.937 18.2119 232.183 19.0791 232.183 20.0557C232.183 20.7119 232.058 21.3564 231.808 21.9893C231.558 22.6143 231.117 23.3135 230.484 24.0869C229.859 24.8525 228.98 25.7783 227.847 26.8643L224.847 29.9229V30.0518H232.441V32.6885H220.464ZM233.333 29.4541V26.9346L240.751 15.2275H242.837V18.8135H241.56L236.567 26.7119V26.8525H246.915V29.4541L233.333 29.4541ZM241.653 32.6885V28.6924L241.7 27.5557V15.2275H244.677V32.6885H241.653ZM256.153 15.2275V32.6885H252.989V15.2275H256.153ZM258.064 32.6885V19.5869H261.006V21.8252H261.17C261.443 21.0752 261.896 20.4893 262.529 20.0674C263.162 19.6377 263.912 19.4229 264.779 19.4229C265.67 19.4229 266.42 19.6377 267.029 20.0674C267.639 20.4971 268.064 21.083 268.307 21.8252H268.447C268.744 21.0986 269.236 20.5166 269.924 20.0791C270.611 19.6416 271.432 19.4229 272.385 19.4229C273.588 19.4229 274.568 19.8057 275.326 20.5713C276.092 21.3291 276.475 22.4385 276.475 23.8994V32.6885H273.381V24.3682C273.381 23.5635 273.162 22.9736 272.725 22.5986C272.295 22.2158 271.768 22.0244 271.143 22.0244C270.4 22.0244 269.822 22.2588 269.408 22.7275C268.994 23.1885 268.787 23.7822 268.787 24.5088V32.6885H265.74V24.251C265.74 23.5713 265.541 23.0322 265.143 22.6338C264.744 22.2275 264.217 22.0244 263.561 22.0244C263.115 22.0244 262.709 22.1377 262.342 22.3643C261.975 22.5908 261.682 22.9072 261.463 23.3135C261.252 23.7197 261.146 24.1885 261.146 24.7197V32.6885H258.064ZM278.269 37.5869V19.5869H281.293V21.7549H281.48C281.636 21.4424 281.859 21.1064 282.148 20.7471C282.437 20.3799 282.828 20.0674 283.32 19.8096C283.82 19.5518 284.457 19.4229 285.23 19.4229C286.238 19.4229 287.148 19.6807 287.961 20.1963C288.773 20.7119 289.418 21.4697 289.894 22.4697C290.379 23.4697 290.621 24.7002 290.621 26.1611C290.621 27.5986 290.386 28.8213 289.918 29.8291C289.449 30.8369 288.804 31.6064 287.984 32.1377C287.172 32.6611 286.25 32.9229 285.218 32.9229C284.476 32.9229 283.855 32.7979 283.355 32.5479C282.863 32.29 282.464 31.9854 282.16 31.6338C281.863 31.2744 281.636 30.9346 281.48 30.6143H281.351V37.5869H278.269ZM284.375 30.3916C285.054 30.3916 285.621 30.208 286.074 29.8408C286.535 29.4736 286.882 28.9697 287.117 28.3291C287.351 27.6885 287.468 26.9619 287.468 26.1494C287.468 25.3369 287.351 24.6143 287.117 23.9814C286.882 23.3486 286.539 22.8525 286.086 22.4932C285.632 22.1338 285.062 21.9541 284.375 21.9541C283.711 21.9541 283.148 22.126 282.687 22.4697C282.234 22.8135 281.886 23.3018 281.644 23.9346C281.41 24.5596 281.293 25.2979 281.293 26.1494C281.293 26.9932 281.41 27.7354 281.644 28.376C281.886 29.0088 282.238 29.5049 282.699 29.8643C283.16 30.2158 283.718 30.3916 284.375 30.3916ZM295.615 32.958C294.779 32.958 294.029 32.8096 293.365 32.5127C292.7 32.208 292.177 31.7627 291.794 31.1768C291.411 30.5908 291.22 29.8682 291.22 29.0088C291.22 28.2744 291.357 27.665 291.63 27.1807C291.904 26.6963 292.275 26.3096 292.743 26.0205C293.22 25.7314 293.755 25.5127 294.349 25.3643C294.943 25.208 295.556 25.0986 296.189 25.0361C296.962 24.9502 297.587 24.876 298.064 24.8135C298.54 24.751 298.884 24.6494 299.095 24.5088C299.314 24.3682 299.423 24.1494 299.423 23.8525V23.7939C299.423 23.1611 299.236 22.6689 298.861 22.3174C298.486 21.9658 297.939 21.79 297.22 21.79C296.462 21.79 295.861 21.9541 295.415 22.2822C294.978 22.6104 294.681 22.9971 294.525 23.4424L291.654 23.0322C291.88 22.2354 292.255 21.5713 292.779 21.04C293.302 20.501 293.939 20.0986 294.689 19.833C295.447 19.5596 296.283 19.4229 297.197 19.4229C297.822 19.4229 298.447 19.4971 299.072 19.6455C299.697 19.7861 300.271 20.0283 300.794 20.3721C301.318 20.7158 301.736 21.1768 302.048 21.7549C302.361 22.333 302.517 23.0557 302.517 23.9229V32.6885H299.552V30.8838H299.458C299.271 31.2432 299.005 31.583 298.661 31.9033C298.325 32.2158 297.904 32.4697 297.396 32.665C296.896 32.8604 296.302 32.958 295.615 32.958ZM296.4 30.6846C297.025 30.6846 297.564 30.5635 298.017 30.3213C298.47 30.0713 298.822 29.7432 299.072 29.3369C299.322 28.9229 299.447 28.4736 299.447 27.9893V26.4541C299.345 26.5322 299.181 26.6064 298.954 26.6768C298.728 26.7393 298.47 26.7979 298.181 26.8525C297.892 26.9072 297.607 26.9541 297.325 26.9932C297.052 27.0322 296.814 27.0635 296.611 27.0869C296.15 27.1494 295.736 27.2549 295.368 27.4033C295.009 27.5439 294.724 27.7393 294.513 27.9893C294.302 28.2393 294.197 28.5635 294.197 28.9619C294.197 29.5322 294.404 29.9619 294.818 30.251C295.232 30.54 295.759 30.6846 296.4 30.6846ZM310.018 32.9463C308.714 32.9463 307.593 32.6611 306.655 32.0908C305.718 31.5127 304.999 30.7158 304.499 29.7002C303.999 28.6846 303.749 27.5166 303.749 26.1963C303.749 24.8604 304.003 23.6846 304.511 22.6689C305.018 21.6533 305.741 20.8604 306.679 20.29C307.616 19.7119 308.722 19.4229 309.995 19.4229C311.065 19.4229 312.011 19.6182 312.831 20.0088C313.651 20.3994 314.304 20.9502 314.788 21.6611C315.28 22.3643 315.561 23.1885 315.632 24.1338H312.679C312.601 23.7119 312.448 23.333 312.222 22.9971C311.995 22.6611 311.698 22.3955 311.331 22.2002C310.972 22.0049 310.542 21.9072 310.042 21.9072C309.409 21.9072 308.854 22.0791 308.378 22.4229C307.909 22.7588 307.542 23.2432 307.276 23.876C307.011 24.5088 306.878 25.2666 306.878 26.1494C306.878 27.04 307.007 27.8096 307.265 28.458C307.522 29.0986 307.89 29.5947 308.366 29.9463C308.843 30.29 309.401 30.4619 310.042 30.4619C310.722 30.4619 311.296 30.2627 311.765 29.8643C312.241 29.4658 312.546 28.915 312.679 28.2119H315.632C315.561 29.1416 315.288 29.9619 314.811 30.6729C314.335 31.3838 313.69 31.9424 312.878 32.3486C312.065 32.7471 311.112 32.9463 310.018 32.9463ZM323.333 19.5869V21.9775H315.821V19.5869H323.333ZM317.661 16.4697H320.743V28.751C320.743 29.2666 320.856 29.6494 321.083 29.8994C321.309 30.1416 321.669 30.2627 322.161 30.2627C322.294 30.2627 322.442 30.251 322.606 30.2275C322.77 30.2041 322.919 30.1768 323.051 30.1455L323.579 32.5596C323.251 32.6611 322.919 32.7354 322.583 32.7822C322.247 32.8369 321.911 32.8643 321.575 32.8643C320.356 32.8643 319.399 32.5439 318.704 31.9033C318.008 31.2549 317.661 30.3721 317.661 29.2549V16.4697Z" fill="white"/>
<path d="M53.859 54V42.3594H60.8434V43.6094H55.2652V47.6719H60.3121V48.9219H55.2652V54H53.859ZM62.1074 54V45.2656H63.4355V54H62.1074ZM62.7792 43.8125C62.5188 43.8125 62.2949 43.724 62.1074 43.5469C61.9199 43.3698 61.8261 43.1562 61.8261 42.9062C61.8261 42.6562 61.9199 42.4427 62.1074 42.2656C62.2949 42.0885 62.5188 42 62.7792 42C63.0396 42 63.2636 42.0885 63.4511 42.2656C63.6386 42.4427 63.7324 42.6562 63.7324 42.9062C63.7324 43.1562 63.6386 43.3698 63.4511 43.5469C63.2636 43.724 63.0396 43.8125 62.7792 43.8125ZM64.9339 54V45.2656H66.2151V46.5938H66.3089C66.4703 46.1615 66.7594 45.8125 67.176 45.5469C67.5979 45.276 68.0693 45.1406 68.5901 45.1406C68.6891 45.1406 68.8115 45.1432 68.9573 45.1484C69.1031 45.1484 69.2151 45.151 69.2932 45.1562V46.5156C69.2464 46.5052 69.1422 46.4896 68.9807 46.4688C68.8193 46.4479 68.6474 46.4375 68.4651 46.4375C68.0432 46.4375 67.6656 46.526 67.3323 46.7031C66.999 46.8802 66.7359 47.1224 66.5432 47.4297C66.3557 47.737 66.262 48.0885 66.262 48.4844V54H64.9339ZM76.0885 47.2344L74.8854 47.5625C74.7708 47.2656 74.5729 46.9844 74.2916 46.7188C74.0156 46.4479 73.5833 46.3125 72.9947 46.3125C72.4635 46.3125 72.0208 46.4375 71.6666 46.6875C71.3124 46.9323 71.1354 47.2396 71.1354 47.6094C71.1354 47.9427 71.2551 48.2083 71.4947 48.4062C71.7395 48.6042 72.1197 48.7656 72.6354 48.8906L73.9322 49.2031C74.7083 49.3906 75.2864 49.6797 75.6666 50.0703C76.052 50.4609 76.2447 50.9583 76.2447 51.5625C76.2447 52.0625 76.1015 52.5104 75.815 52.9062C75.5286 53.3021 75.1301 53.6146 74.6197 53.8438C74.1093 54.0729 73.5156 54.1875 72.8385 54.1875C71.9479 54.1875 71.2109 53.9922 70.6275 53.6016C70.0494 53.2109 69.6822 52.6458 69.526 51.9062L70.7916 51.5938C70.9114 52.0625 71.1406 52.4141 71.4791 52.6484C71.8229 52.8828 72.2708 53 72.8229 53C73.4426 53 73.9374 52.8672 74.3072 52.6016C74.6822 52.3307 74.8697 52.0104 74.8697 51.6406C74.8697 51.026 74.4374 50.6146 73.5729 50.4062L72.1197 50.0625C71.3176 49.8698 70.7291 49.5755 70.3541 49.1797C69.9791 48.7839 69.7916 48.2865 69.7916 47.6875C69.7916 47.1927 69.9296 46.7552 70.2057 46.375C70.4869 45.9948 70.8697 45.6979 71.3541 45.4844C71.8385 45.2656 72.3854 45.1562 72.9947 45.1562C73.8645 45.1562 74.5442 45.349 75.0338 45.7344C75.5286 46.1146 75.8801 46.6146 76.0885 47.2344ZM81.0869 45.2656V46.4062H76.5712V45.2656H81.0869ZM77.8837 43.1875H79.2119V51.5C79.2119 51.9531 79.3056 52.2865 79.4931 52.5C79.6806 52.7083 79.9775 52.8125 80.3837 52.8125C80.4723 52.8125 80.5634 52.8073 80.6572 52.7969C80.7561 52.7865 80.8629 52.7708 80.9775 52.75L81.2587 53.9531C81.1337 54 80.9801 54.0365 80.7978 54.0625C80.6207 54.0938 80.441 54.1094 80.2587 54.1094C79.5556 54.1094 78.9827 53.901 78.54 53.4844C78.1025 53.0677 77.8837 52.526 77.8837 51.8594V43.1875ZM89.3336 54.1875C88.4951 54.1875 87.7685 54 87.1539 53.625C86.5445 53.25 86.0758 52.7266 85.7477 52.0547C85.4195 51.3776 85.2555 50.5938 85.2555 49.7031C85.2555 48.8073 85.4169 48.0182 85.7399 47.3359C86.0628 46.6536 86.5159 46.1198 87.0992 45.7344C87.6878 45.349 88.3753 45.1562 89.1617 45.1562C89.6149 45.1562 90.0654 45.2318 90.5133 45.3828C90.9612 45.5339 91.3675 45.7786 91.732 46.1172C92.1018 46.4557 92.3961 46.9036 92.6149 47.4609C92.8336 48.0182 92.943 48.7031 92.943 49.5156V50.0938H86.2086V48.9375H92.2164L91.5992 49.375C91.5992 48.7917 91.5081 48.2734 91.3258 47.8203C91.1435 47.3672 90.8701 47.0104 90.5055 46.75C90.1461 46.4896 89.6982 46.3594 89.1617 46.3594C88.6253 46.3594 88.1643 46.4922 87.7789 46.7578C87.3987 47.0182 87.107 47.3594 86.9039 47.7812C86.7008 48.2031 86.5992 48.6562 86.5992 49.1406V49.9062C86.5992 50.5677 86.7138 51.1276 86.943 51.5859C87.1722 52.0443 87.4925 52.3932 87.9039 52.6328C88.3154 52.8672 88.7919 52.9844 89.3336 52.9844C89.6826 52.9844 90.0003 52.9349 90.2867 52.8359C90.5732 52.7318 90.8206 52.5781 91.0289 52.375C91.2373 52.1667 91.3961 51.9115 91.5055 51.6094L92.8024 51.9844C92.6669 52.4219 92.4378 52.8073 92.1149 53.1406C91.7972 53.4688 91.4013 53.7266 90.9274 53.9141C90.4534 54.0964 89.9222 54.1875 89.3336 54.1875ZM100.801 45.2656L97.582 54H96.207L92.9882 45.2656H94.4414L96.8476 52.2344H96.9414L99.3476 45.2656H100.801ZM104.955 54.1875C104.117 54.1875 103.39 54 102.776 53.625C102.166 53.25 101.698 52.7266 101.369 52.0547C101.041 51.3776 100.877 50.5938 100.877 49.7031C100.877 48.8073 101.039 48.0182 101.362 47.3359C101.685 46.6536 102.138 46.1198 102.721 45.7344C103.31 45.349 103.997 45.1562 104.783 45.1562C105.237 45.1562 105.687 45.2318 106.135 45.3828C106.583 45.5339 106.989 45.7786 107.354 46.1172C107.724 46.4557 108.018 46.9036 108.237 47.4609C108.455 48.0182 108.565 48.7031 108.565 49.5156V50.0938H101.83V48.9375H107.838L107.221 49.375C107.221 48.7917 107.13 48.2734 106.948 47.8203C106.765 47.3672 106.492 47.0104 106.127 46.75C105.768 46.4896 105.32 46.3594 104.783 46.3594C104.247 46.3594 103.786 46.4922 103.401 46.7578C103.02 47.0182 102.729 47.3594 102.526 47.7812C102.323 48.2031 102.221 48.6562 102.221 49.1406V49.9062C102.221 50.5677 102.336 51.1276 102.565 51.5859C102.794 52.0443 103.114 52.3932 103.526 52.6328C103.937 52.8672 104.414 52.9844 104.955 52.9844C105.304 52.9844 105.622 52.9349 105.908 52.8359C106.195 52.7318 106.442 52.5781 106.651 52.375C106.859 52.1667 107.018 51.9115 107.127 51.6094L108.424 51.9844C108.289 52.4219 108.06 52.8073 107.737 53.1406C107.419 53.4688 107.023 53.7266 106.549 53.9141C106.075 54.0964 105.544 54.1875 104.955 54.1875ZM109.61 54V45.2656H110.891V46.5938H110.985C111.146 46.1615 111.436 45.8125 111.852 45.5469C112.274 45.276 112.745 45.1406 113.266 45.1406C113.365 45.1406 113.488 45.1432 113.633 45.1484C113.779 45.1484 113.891 45.151 113.969 45.1562V46.5156C113.922 46.5052 113.818 46.4896 113.657 46.4688C113.495 46.4479 113.324 46.4375 113.141 46.4375C112.719 46.4375 112.342 46.526 112.008 46.7031C111.675 46.8802 111.412 47.1224 111.219 47.4297C111.032 47.737 110.938 48.0885 110.938 48.4844V54H109.61ZM118.294 54V42.3594H125.325V43.6094H119.7V47.5H124.95V48.75H119.7V52.75H125.404V54H118.294ZM130.496 45.2656V46.4062H125.98V45.2656H130.496ZM127.293 43.1875H128.621V51.5C128.621 51.9531 128.714 52.2865 128.902 52.5C129.089 52.7083 129.386 52.8125 129.793 52.8125C129.881 52.8125 129.972 52.8073 130.066 52.7969C130.165 52.7865 130.272 52.7708 130.386 52.75L130.668 53.9531C130.543 54 130.389 54.0365 130.207 54.0625C130.03 54.0938 129.85 54.1094 129.668 54.1094C128.964 54.1094 128.392 53.901 127.949 53.4844C127.511 53.0677 127.293 52.526 127.293 51.8594V43.1875ZM133.072 48.75V54H131.744V42.3594H133.072V46.6406H133.197C133.4 46.1875 133.705 45.8281 134.111 45.5625C134.523 45.2917 135.072 45.1562 135.76 45.1562C136.353 45.1562 136.874 45.276 137.322 45.5156C137.77 45.75 138.119 46.112 138.369 46.6016C138.619 47.0859 138.744 47.7031 138.744 48.4531V54H137.4V48.5469C137.4 47.849 137.221 47.3099 136.861 46.9297C136.502 46.5495 136.005 46.3594 135.369 46.3594C134.926 46.3594 134.533 46.4531 134.189 46.6406C133.846 46.8281 133.572 47.099 133.369 47.4531C133.171 47.8073 133.072 48.2396 133.072 48.75ZM143.899 54.1875C143.06 54.1875 142.334 54 141.719 53.625C141.11 53.25 140.641 52.7266 140.313 52.0547C139.985 51.3776 139.821 50.5938 139.821 49.7031C139.821 48.8073 139.982 48.0182 140.305 47.3359C140.628 46.6536 141.081 46.1198 141.664 45.7344C142.253 45.349 142.94 45.1562 143.727 45.1562C144.18 45.1562 144.631 45.2318 145.078 45.3828C145.526 45.5339 145.933 45.7786 146.297 46.1172C146.667 46.4557 146.961 46.9036 147.18 47.4609C147.399 48.0182 147.508 48.7031 147.508 49.5156V50.0938H140.774V48.9375H146.782L146.164 49.375C146.164 48.7917 146.073 48.2734 145.891 47.8203C145.709 47.3672 145.435 47.0104 145.071 46.75C144.711 46.4896 144.263 46.3594 143.727 46.3594C143.19 46.3594 142.729 46.4922 142.344 46.7578C141.964 47.0182 141.672 47.3594 141.469 47.7812C141.266 48.2031 141.164 48.6562 141.164 49.1406V49.9062C141.164 50.5677 141.279 51.1276 141.508 51.5859C141.737 52.0443 142.058 52.3932 142.469 52.6328C142.881 52.8672 143.357 52.9844 143.899 52.9844C144.248 52.9844 144.565 52.9349 144.852 52.8359C145.138 52.7318 145.386 52.5781 145.594 52.375C145.802 52.1667 145.961 51.9115 146.071 51.6094L147.368 51.9844C147.232 52.4219 147.003 52.8073 146.68 53.1406C146.362 53.4688 145.966 53.7266 145.493 53.9141C145.019 54.0964 144.487 54.1875 143.899 54.1875ZM148.553 54V45.2656H149.835V46.5938H149.928C150.09 46.1615 150.379 45.8125 150.796 45.5469C151.217 45.276 151.689 45.1406 152.21 45.1406C152.309 45.1406 152.431 45.1432 152.577 45.1484C152.723 45.1484 152.835 45.151 152.913 45.1562V46.5156C152.866 46.5052 152.762 46.4896 152.6 46.4688C152.439 46.4479 152.267 46.4375 152.085 46.4375C151.663 46.4375 151.285 46.526 150.952 46.7031C150.618 46.8802 150.355 47.1224 150.163 47.4297C149.975 47.737 149.882 48.0885 149.882 48.4844V54H148.553ZM156.927 54.1875C156.088 54.1875 155.362 54 154.747 53.625C154.138 53.25 153.669 52.7266 153.341 52.0547C153.013 51.3776 152.849 50.5938 152.849 49.7031C152.849 48.8073 153.01 48.0182 153.333 47.3359C153.656 46.6536 154.109 46.1198 154.692 45.7344C155.281 45.349 155.968 45.1562 156.755 45.1562C157.208 45.1562 157.659 45.2318 158.106 45.3828C158.554 45.5339 158.961 45.7786 159.325 46.1172C159.695 46.4557 159.989 46.9036 160.208 47.4609C160.427 48.0182 160.536 48.7031 160.536 49.5156V50.0938H153.802V48.9375H159.81L159.192 49.375C159.192 48.7917 159.101 48.2734 158.919 47.8203C158.737 47.3672 158.463 47.0104 158.099 46.75C157.739 46.4896 157.291 46.3594 156.755 46.3594C156.218 46.3594 155.757 46.4922 155.372 46.7578C154.992 47.0182 154.7 47.3594 154.497 47.7812C154.294 48.2031 154.192 48.6562 154.192 49.1406V49.9062C154.192 50.5677 154.307 51.1276 154.536 51.5859C154.765 52.0443 155.086 52.3932 155.497 52.6328C155.909 52.8672 156.385 52.9844 156.927 52.9844C157.276 52.9844 157.593 52.9349 157.88 52.8359C158.166 52.7318 158.414 52.5781 158.622 52.375C158.83 52.1667 158.989 51.9115 159.099 51.6094L160.396 51.9844C160.26 52.4219 160.031 52.8073 159.708 53.1406C159.39 53.4688 158.994 53.7266 158.521 53.9141C158.047 54.0964 157.515 54.1875 156.927 54.1875ZM167.081 50.4375V45.2656H168.41V54H167.081V52.5156H166.988C166.779 52.9583 166.459 53.3359 166.027 53.6484C165.6 53.9609 165.055 54.1146 164.394 54.1094C163.847 54.1094 163.363 53.9922 162.941 53.7578C162.519 53.5182 162.186 53.1536 161.941 52.6641C161.701 52.1745 161.581 51.5573 161.581 50.8125V45.2656H162.91V50.7344C162.91 51.3646 163.089 51.8698 163.449 52.25C163.813 52.6302 164.274 52.8177 164.831 52.8125C165.165 52.8125 165.503 52.7292 165.847 52.5625C166.196 52.3906 166.488 52.1302 166.722 51.7812C166.962 51.4271 167.081 50.9792 167.081 50.4375ZM169.908 54V45.2656H171.189V46.6406H171.314C171.496 46.1719 171.791 45.8073 172.197 45.5469C172.603 45.2865 173.09 45.1562 173.658 45.1562C174.231 45.1562 174.707 45.2865 175.088 45.5469C175.473 45.8073 175.772 46.1719 175.986 46.6406H176.08C176.309 46.1875 176.645 45.8281 177.088 45.5625C177.535 45.2917 178.069 45.1562 178.689 45.1562C179.47 45.1562 180.111 45.401 180.611 45.8906C181.111 46.375 181.361 47.1302 181.361 48.1562V54H180.017V48.1562C180.017 47.5104 179.84 47.0495 179.486 46.7734C179.132 46.4974 178.715 46.3594 178.236 46.3594C177.627 46.3594 177.153 46.5469 176.814 46.9219C176.481 47.2917 176.314 47.7552 176.314 48.3125V54H174.939V48.0156C174.939 47.5208 174.78 47.1224 174.463 46.8203C174.145 46.513 173.731 46.3594 173.22 46.3594C172.871 46.3594 172.546 46.4531 172.244 46.6406C171.942 46.8281 171.697 47.0859 171.509 47.4141C171.327 47.7422 171.236 48.1198 171.236 48.5469V54H169.908ZM187.717 48.75V54H186.389V42.3594H187.717V46.6406H187.842C188.045 46.1875 188.35 45.8281 188.756 45.5625C189.168 45.2917 189.717 45.1562 190.405 45.1562C190.998 45.1562 191.519 45.276 191.967 45.5156C192.415 45.75 192.764 46.112 193.014 46.6016C193.264 47.0859 193.389 47.7031 193.389 48.4531V54H192.045V48.5469C192.045 47.849 191.866 47.3099 191.506 46.9297C191.147 46.5495 190.649 46.3594 190.014 46.3594C189.571 46.3594 189.178 46.4531 188.834 46.6406C188.491 46.8281 188.217 47.099 188.014 47.4531C187.816 47.8073 187.717 48.2396 187.717 48.75ZM197.45 54.2031C196.898 54.2031 196.395 54.099 195.942 53.8906C195.489 53.6771 195.13 53.3698 194.864 52.9688C194.598 52.5677 194.465 52.0833 194.465 51.5156C194.465 51.0156 194.564 50.612 194.762 50.3047C194.96 49.9922 195.223 49.7474 195.551 49.5703C195.885 49.388 196.249 49.2526 196.645 49.1641C197.046 49.0755 197.45 49.0052 197.856 48.9531C198.387 48.8854 198.817 48.8333 199.145 48.7969C199.479 48.7604 199.721 48.6979 199.872 48.6094C200.028 48.5208 200.106 48.3698 200.106 48.1562V48.1094C200.106 47.5521 199.952 47.1198 199.645 46.8125C199.343 46.5 198.882 46.3438 198.262 46.3438C197.627 46.3438 197.127 46.4844 196.762 46.7656C196.398 47.0417 196.143 47.3385 195.997 47.6562L194.715 47.2031C194.945 46.6719 195.249 46.2578 195.63 45.9609C196.015 45.6641 196.432 45.4557 196.88 45.3359C197.333 45.2161 197.778 45.1562 198.215 45.1562C198.497 45.1562 198.82 45.1901 199.184 45.2578C199.549 45.3203 199.903 45.4557 200.247 45.6641C200.596 45.8672 200.882 46.1771 201.106 46.5938C201.335 47.0052 201.45 47.5573 201.45 48.25V54H200.106V52.8125H200.044C199.955 53 199.804 53.2031 199.59 53.4219C199.377 53.6354 199.093 53.8203 198.739 53.9766C198.39 54.1276 197.96 54.2031 197.45 54.2031ZM197.653 53C198.184 53 198.632 52.8958 198.997 52.6875C199.361 52.4792 199.637 52.2109 199.825 51.8828C200.012 51.5495 200.106 51.2031 200.106 50.8438V49.6094C200.049 49.6771 199.924 49.7396 199.731 49.7969C199.544 49.849 199.325 49.8958 199.075 49.9375C198.83 49.9792 198.59 50.0156 198.356 50.0469C198.122 50.0729 197.934 50.0938 197.794 50.1094C197.445 50.1562 197.119 50.2318 196.817 50.3359C196.515 50.4349 196.27 50.5833 196.083 50.7812C195.9 50.9792 195.809 51.25 195.809 51.5938C195.809 52.0573 195.981 52.4089 196.325 52.6484C196.674 52.8828 197.117 53 197.653 53ZM206.48 54.1875C205.667 54.1875 204.964 53.9948 204.37 53.6094C203.782 53.2188 203.326 52.6849 203.003 52.0078C202.685 51.3307 202.526 50.5573 202.526 49.6875C202.526 48.7969 202.69 48.013 203.019 47.3359C203.347 46.6536 203.805 46.1198 204.394 45.7344C204.987 45.349 205.677 45.1562 206.464 45.1562C207.078 45.1562 207.631 45.2708 208.12 45.5C208.615 45.724 209.019 46.0417 209.331 46.4531C209.649 46.8646 209.844 47.3438 209.917 47.8906H208.573C208.506 47.625 208.383 47.375 208.206 47.1406C208.029 46.9062 207.795 46.7188 207.503 46.5781C207.216 46.4323 206.875 46.3594 206.48 46.3594C205.959 46.3594 205.503 46.4948 205.112 46.7656C204.722 47.0365 204.417 47.4193 204.198 47.9141C203.98 48.4036 203.87 48.9792 203.87 49.6406C203.87 50.3125 203.977 50.901 204.19 51.4062C204.404 51.9062 204.706 52.2943 205.097 52.5703C205.493 52.8464 205.953 52.9844 206.48 52.9844C207.006 52.9844 207.456 52.849 207.831 52.5781C208.206 52.3021 208.453 51.9271 208.573 51.4531H209.917C209.844 51.9688 209.657 52.4323 209.355 52.8438C209.058 53.2552 208.664 53.5833 208.175 53.8281C207.69 54.0677 207.125 54.1875 206.48 54.1875ZM212.212 50.8125L212.181 49.1562H212.462L216.275 45.2656H217.931L213.869 49.3906H213.744L212.212 50.8125ZM210.962 54V42.3594H212.29V54H210.962ZM216.494 54L213.087 49.6875L214.04 48.75L218.212 54H216.494ZM221.258 54.2031C220.705 54.2031 220.203 54.099 219.75 53.8906C219.297 53.6771 218.937 53.3698 218.672 52.9688C218.406 52.5677 218.273 52.0833 218.273 51.5156C218.273 51.0156 218.372 50.612 218.57 50.3047C218.768 49.9922 219.031 49.7474 219.359 49.5703C219.692 49.388 220.057 49.2526 220.453 49.1641C220.854 49.0755 221.258 49.0052 221.664 48.9531C222.195 48.8854 222.625 48.8333 222.953 48.7969C223.286 48.7604 223.528 48.6979 223.679 48.6094C223.836 48.5208 223.914 48.3698 223.914 48.1562V48.1094C223.914 47.5521 223.76 47.1198 223.453 46.8125C223.151 46.5 222.69 46.3438 222.07 46.3438C221.435 46.3438 220.935 46.4844 220.57 46.7656C220.205 47.0417 219.95 47.3385 219.804 47.6562L218.523 47.2031C218.752 46.6719 219.057 46.2578 219.437 45.9609C219.823 45.6641 220.239 45.4557 220.687 45.3359C221.14 45.2161 221.586 45.1562 222.023 45.1562C222.304 45.1562 222.627 45.1901 222.992 45.2578C223.356 45.3203 223.711 45.4557 224.054 45.6641C224.403 45.8672 224.69 46.1771 224.914 46.5938C225.143 47.0052 225.258 47.5573 225.258 48.25V54H223.914V52.8125H223.851C223.763 53 223.612 53.2031 223.398 53.4219C223.185 53.6354 222.901 53.8203 222.547 53.9766C222.198 54.1276 221.768 54.2031 221.258 54.2031ZM221.461 53C221.992 53 222.44 52.8958 222.804 52.6875C223.169 52.4792 223.445 52.2109 223.633 51.8828C223.82 51.5495 223.914 51.2031 223.914 50.8438V49.6094C223.856 49.6771 223.731 49.7396 223.539 49.7969C223.351 49.849 223.133 49.8958 222.883 49.9375C222.638 49.9792 222.398 50.0156 222.164 50.0469C221.929 50.0729 221.742 50.0938 221.601 50.1094C221.252 50.1562 220.927 50.2318 220.625 50.3359C220.323 50.4349 220.078 50.5833 219.89 50.7812C219.708 50.9792 219.617 51.25 219.617 51.5938C219.617 52.0573 219.789 52.4089 220.133 52.6484C220.481 52.8828 220.924 53 221.461 53ZM230.537 45.2656V46.4062H226.022V45.2656H230.537ZM227.334 43.1875H228.662V51.5C228.662 51.9531 228.756 52.2865 228.943 52.5C229.131 52.7083 229.428 52.8125 229.834 52.8125C229.923 52.8125 230.014 52.8073 230.107 52.7969C230.206 52.7865 230.313 52.7708 230.428 52.75L230.709 53.9531C230.584 54 230.43 54.0365 230.248 54.0625C230.071 54.0938 229.891 54.1094 229.709 54.1094C229.006 54.1094 228.433 53.901 227.99 53.4844C227.553 53.0677 227.334 52.526 227.334 51.8594V43.1875ZM233.114 48.75V54H231.786V42.3594H233.114V46.6406H233.239C233.442 46.1875 233.746 45.8281 234.153 45.5625C234.564 45.2917 235.114 45.1562 235.801 45.1562C236.395 45.1562 236.916 45.276 237.364 45.5156C237.812 45.75 238.161 46.112 238.411 46.6016C238.661 47.0859 238.786 47.7031 238.786 48.4531V54H237.442V48.5469C237.442 47.849 237.262 47.3099 236.903 46.9297C236.543 46.5495 236.046 46.3594 235.411 46.3594C234.968 46.3594 234.575 46.4531 234.231 46.6406C233.887 46.8281 233.614 47.099 233.411 47.4531C233.213 47.8073 233.114 48.2396 233.114 48.75ZM243.815 54.1875C243.029 54.1875 242.339 54 241.745 53.625C241.151 53.25 240.688 52.724 240.354 52.0469C240.026 51.3698 239.862 50.5833 239.862 49.6875C239.862 48.776 240.026 47.9818 240.354 47.3047C240.688 46.6224 241.151 46.0938 241.745 45.7188C242.339 45.3438 243.029 45.1562 243.815 45.1562C244.607 45.1562 245.3 45.3438 245.893 45.7188C246.487 46.0938 246.951 46.6224 247.284 47.3047C247.617 47.9818 247.784 48.776 247.784 49.6875C247.784 50.5833 247.617 51.3698 247.284 52.0469C246.951 52.724 246.487 53.25 245.893 53.625C245.3 54 244.607 54.1875 243.815 54.1875ZM243.815 52.9844C244.419 52.9844 244.914 52.8307 245.3 52.5234C245.685 52.2161 245.971 51.8125 246.159 51.3125C246.346 50.8073 246.44 50.2656 246.44 49.6875C246.44 49.099 246.346 48.5521 246.159 48.0469C245.971 47.5417 245.685 47.1354 245.3 46.8281C244.914 46.5156 244.419 46.3594 243.815 46.3594C243.221 46.3594 242.732 46.5156 242.346 46.8281C241.961 47.1354 241.675 47.5417 241.487 48.0469C241.3 48.5521 241.206 49.099 241.206 49.6875C241.206 50.2656 241.3 50.8073 241.487 51.3125C241.675 51.8125 241.961 52.2161 242.346 52.5234C242.732 52.8307 243.221 52.9844 243.815 52.9844ZM250.189 48.75V54H248.86V45.2656H250.142V46.6406H250.267C250.47 46.1927 250.78 45.8333 251.196 45.5625C251.613 45.2917 252.152 45.1562 252.814 45.1562C253.402 45.1562 253.918 45.276 254.36 45.5156C254.803 45.7552 255.147 46.1198 255.392 46.6094C255.642 47.0938 255.767 47.7083 255.767 48.4531V54H254.439V48.5469C254.439 47.8646 254.259 47.3307 253.899 46.9453C253.54 46.5547 253.051 46.3594 252.431 46.3594C252.004 46.3594 251.621 46.4531 251.282 46.6406C250.944 46.8281 250.676 47.099 250.478 47.4531C250.285 47.8073 250.189 48.2396 250.189 48.75ZM260.795 54V45.2656H262.123V54H260.795ZM261.467 43.8125C261.206 43.8125 260.982 43.724 260.795 43.5469C260.607 43.3698 260.513 43.1562 260.513 42.9062C260.513 42.6562 260.607 42.4427 260.795 42.2656C260.982 42.0885 261.206 42 261.467 42C261.727 42 261.951 42.0885 262.138 42.2656C262.326 42.4427 262.42 42.6562 262.42 42.9062C262.42 43.1562 262.326 43.3698 262.138 43.5469C261.951 43.724 261.727 43.8125 261.467 43.8125ZM264.949 48.75V54H263.621V45.2656H264.902V46.6406H265.027C265.231 46.1927 265.54 45.8333 265.957 45.5625C266.374 45.2917 266.913 45.1562 267.574 45.1562C268.163 45.1562 268.678 45.276 269.121 45.5156C269.564 45.7552 269.908 46.1198 270.152 46.6094C270.402 47.0938 270.527 47.7083 270.527 48.4531V54H269.199V48.5469C269.199 47.8646 269.02 47.3307 268.66 46.9453C268.301 46.5547 267.811 46.3594 267.191 46.3594C266.764 46.3594 266.382 46.4531 266.043 46.6406C265.704 46.8281 265.436 47.099 265.238 47.4531C265.046 47.8073 264.949 48.2396 264.949 48.75ZM275.727 42.3594H277.415L281.368 52.0156H281.509L285.462 42.3594H287.204V54H285.821V45.1562H285.712L282.048 54H280.782L277.165 45.1562H277.055V54H275.727V42.3594ZM294.382 50.4375V45.2656H295.71V54H294.382V52.5156H294.288C294.08 52.9583 293.76 53.3359 293.327 53.6484C292.9 53.9609 292.356 54.1146 291.694 54.1094C291.148 54.1094 290.663 53.9922 290.241 53.7578C289.819 53.5182 289.486 53.1536 289.241 52.6641C289.002 52.1745 288.882 51.5573 288.882 50.8125V45.2656H290.21V50.7344C290.21 51.3646 290.39 51.8698 290.749 52.25C291.114 52.6302 291.575 52.8177 292.132 52.8125C292.465 52.8125 292.804 52.7292 293.148 52.5625C293.496 52.3906 293.788 52.1302 294.023 51.7812C294.262 51.4271 294.382 50.9792 294.382 50.4375ZM297.208 54V45.2656H298.49V46.6406H298.615C298.797 46.1719 299.091 45.8073 299.497 45.5469C299.904 45.2865 300.391 45.1562 300.958 45.1562C301.531 45.1562 302.008 45.2865 302.388 45.5469C302.774 45.8073 303.073 46.1719 303.287 46.6406H303.38C303.609 46.1875 303.945 45.8281 304.388 45.5625C304.836 45.2917 305.37 45.1562 305.99 45.1562C306.771 45.1562 307.412 45.401 307.912 45.8906C308.412 46.375 308.662 47.1302 308.662 48.1562V54H307.318V48.1562C307.318 47.5104 307.141 47.0495 306.787 46.7734C306.432 46.4974 306.016 46.3594 305.537 46.3594C304.927 46.3594 304.453 46.5469 304.115 46.9219C303.781 47.2917 303.615 47.7552 303.615 48.3125V54H302.24V48.0156C302.24 47.5208 302.081 47.1224 301.763 46.8203C301.445 46.513 301.031 46.3594 300.521 46.3594C300.172 46.3594 299.846 46.4531 299.544 46.6406C299.242 46.8281 298.997 47.0859 298.81 47.4141C298.628 47.7422 298.537 48.1198 298.537 48.5469V54H297.208ZM314.144 54.1875C313.587 54.1875 313.139 54.0938 312.801 53.9062C312.462 53.7135 312.202 53.4974 312.019 53.2578C311.837 53.013 311.696 52.8125 311.597 52.6562H311.441V54H310.16V42.3594H311.488V46.6562H311.597C311.696 46.5052 311.834 46.3125 312.011 46.0781C312.189 45.8385 312.444 45.625 312.777 45.4375C313.11 45.25 313.561 45.1562 314.129 45.1562C314.863 45.1562 315.509 45.3411 316.066 45.7109C316.623 46.0755 317.058 46.5964 317.371 47.2734C317.689 47.9453 317.847 48.7396 317.847 49.6562C317.847 50.5781 317.691 51.3802 317.379 52.0625C317.066 52.7396 316.631 53.263 316.074 53.6328C315.517 54.0026 314.873 54.1875 314.144 54.1875ZM313.972 52.9844C314.53 52.9844 314.996 52.8359 315.371 52.5391C315.746 52.237 316.027 51.8333 316.215 51.3281C316.407 50.8229 316.504 50.2604 316.504 49.6406C316.504 49.026 316.41 48.4714 316.222 47.9766C316.035 47.4818 315.754 47.0885 315.379 46.7969C315.009 46.5052 314.54 46.3594 313.972 46.3594C313.426 46.3594 312.967 46.4974 312.597 46.7734C312.228 47.0443 311.946 47.4271 311.754 47.9219C311.566 48.4115 311.472 48.9844 311.472 49.6406C311.472 50.2969 311.569 50.8776 311.761 51.3828C311.954 51.8828 312.235 52.276 312.605 52.5625C312.98 52.8438 313.436 52.9844 313.972 52.9844ZM321.486 54.2031C320.934 54.2031 320.432 54.099 319.979 53.8906C319.525 53.6771 319.166 53.3698 318.9 52.9688C318.635 52.5677 318.502 52.0833 318.502 51.5156C318.502 51.0156 318.601 50.612 318.799 50.3047C318.997 49.9922 319.26 49.7474 319.588 49.5703C319.921 49.388 320.286 49.2526 320.682 49.1641C321.083 49.0755 321.486 49.0052 321.893 48.9531C322.424 48.8854 322.854 48.8333 323.182 48.7969C323.515 48.7604 323.757 48.6979 323.908 48.6094C324.065 48.5208 324.143 48.3698 324.143 48.1562V48.1094C324.143 47.5521 323.989 47.1198 323.682 46.8125C323.38 46.5 322.919 46.3438 322.299 46.3438C321.663 46.3438 321.163 46.4844 320.799 46.7656C320.434 47.0417 320.179 47.3385 320.033 47.6562L318.752 47.2031C318.981 46.6719 319.286 46.2578 319.666 45.9609C320.051 45.6641 320.468 45.4557 320.916 45.3359C321.369 45.2161 321.815 45.1562 322.252 45.1562C322.533 45.1562 322.856 45.1901 323.221 45.2578C323.585 45.3203 323.94 45.4557 324.283 45.6641C324.632 45.8672 324.919 46.1771 325.143 46.5938C325.372 47.0052 325.486 47.5573 325.486 48.25V54H324.143V52.8125H324.08C323.992 53 323.841 53.2031 323.627 53.4219C323.413 53.6354 323.13 53.8203 322.775 53.9766C322.426 54.1276 321.997 54.2031 321.486 54.2031ZM321.69 53C322.221 53 322.669 52.8958 323.033 52.6875C323.398 52.4792 323.674 52.2109 323.861 51.8828C324.049 51.5495 324.143 51.2031 324.143 50.8438V49.6094C324.085 49.6771 323.96 49.7396 323.768 49.7969C323.58 49.849 323.361 49.8958 323.111 49.9375C322.867 49.9792 322.627 50.0156 322.393 50.0469C322.158 50.0729 321.971 50.0938 321.83 50.1094C321.481 50.1562 321.156 50.2318 320.854 50.3359C320.551 50.4349 320.307 50.5833 320.119 50.7812C319.937 50.9792 319.846 51.25 319.846 51.5938C319.846 52.0573 320.018 52.4089 320.361 52.6484C320.71 52.8828 321.153 53 321.69 53ZM326.985 54V45.2656H328.313V54H326.985ZM327.657 43.8125C327.396 43.8125 327.172 43.724 326.985 43.5469C326.797 43.3698 326.704 43.1562 326.704 42.9062C326.704 42.6562 326.797 42.4427 326.985 42.2656C327.172 42.0885 327.396 42 327.657 42C327.917 42 328.141 42.0885 328.329 42.2656C328.516 42.4427 328.61 42.6562 328.61 42.9062C328.61 43.1562 328.516 43.3698 328.329 43.5469C328.141 43.724 327.917 43.8125 327.657 43.8125Z" fill="#F3F3F3"/>
</svg>
