<svg width="383" height="465" viewBox="0 0 383 465" fill="none" xmlns="http://www.w3.org/2000/svg">
<rect x="1" width="382" height="65" fill="#E2231A"/>
<rect x="23" y="75.3115" width="339" height="330" fill="#E1E1E1"/>
<path d="M381.238 453.375L366.786 434.442H18.1699L0.5625 453.375H381.238Z" fill="#D9D9D9" stroke="black" stroke-width="0.490571"/>
<rect y="453.62" width="41.4603" height="10.832" fill="#FFD600"/>
<rect x="41.4609" y="453.62" width="41.4603" height="10.832" fill="#484848"/>
<rect x="82.9199" y="453.62" width="41.4603" height="10.832" fill="#FFD600"/>
<rect x="124.381" y="453.62" width="41.4603" height="10.832" fill="#484848"/>
<rect x="165.842" y="453.62" width="41.4603" height="10.832" fill="#FFD600"/>
<rect x="207.303" y="453.62" width="41.4603" height="10.832" fill="#484848"/>
<rect x="248.762" y="453.62" width="41.4603" height="10.832" fill="#FFD600"/>
<rect x="290.223" y="453.62" width="41.4603" height="10.832" fill="#484848"/>
<rect x="331.684" y="453.62" width="41.4603" height="10.832" fill="#FFD600"/>
<rect x="373.143" y="453.62" width="8.59088" height="10.832" fill="#484848"/>
<rect x="19.1476" y="70.4396" width="3.50943" height="371.509" fill="#868585" stroke="black" stroke-width="0.490571"/>
<rect x="371.148" y="64.4396" width="3.50943" height="382.509" fill="#C5C5C5" stroke="black" stroke-width="0.490571"/>
<rect x="10.1476" y="64.4396" width="3.50943" height="382.509" fill="#C5C5C5" stroke="black" stroke-width="0.490571"/>
<rect x="19.2941" y="71.5373" width="346.133" height="3.24459" fill="#868585" stroke="black" stroke-width="0.490571"/>
<rect x="362.148" y="70.4396" width="3.50943" height="369.509" fill="#868585" stroke="black" stroke-width="0.490571"/>
<path d="M371.394 64.3467L363.807 71.3262H21.6699L13.3721 64.3467H371.394Z" fill="#726E6E" stroke="black" stroke-width="0.490571"/>
<rect x="148.53" y="421.557" width="88.4064" height="4.36514" fill="#E6E6E6" stroke="black" stroke-width="0.490571"/>
<rect x="153.013" y="429.401" width="79.8155" height="1.37701" fill="#E6E6E6" stroke="black" stroke-width="0.490571"/>
<rect x="153.013" y="433.509" width="79.8155" height="1.37701" fill="#E6E6E6" stroke="black" stroke-width="0.490571"/>
<rect x="152.64" y="426.412" width="4.36514" height="20.7999" fill="#E6E6E6" stroke="black" stroke-width="0.490571"/>
<rect x="228.837" y="426.412" width="4.36514" height="20.7999" fill="#E6E6E6" stroke="black" stroke-width="0.490571"/>
<rect x="47" y="87.3115" width="297" height="88" rx="23.4906" fill="#3FA9F5"/>
<path d="M217.149 144.312V126.851H220.314V134.245H228.399V126.851H231.564V144.312H228.399V136.905H220.314V144.312H217.149ZM237.395 144.581C236.559 144.581 235.809 144.433 235.145 144.136C234.481 143.831 233.958 143.386 233.575 142.8C233.192 142.214 233.001 141.491 233.001 140.632C233.001 139.897 233.137 139.288 233.411 138.804C233.684 138.319 234.055 137.933 234.524 137.644C235.001 137.354 235.536 137.136 236.13 136.987C236.723 136.831 237.337 136.722 237.969 136.659C238.743 136.573 239.368 136.499 239.844 136.437C240.321 136.374 240.665 136.272 240.876 136.132C241.094 135.991 241.204 135.772 241.204 135.476V135.417C241.204 134.784 241.016 134.292 240.641 133.94C240.266 133.589 239.719 133.413 239.001 133.413C238.243 133.413 237.641 133.577 237.196 133.905C236.759 134.233 236.462 134.62 236.305 135.065L233.434 134.655C233.661 133.858 234.036 133.194 234.559 132.663C235.083 132.124 235.719 131.722 236.469 131.456C237.227 131.183 238.063 131.046 238.977 131.046C239.602 131.046 240.227 131.12 240.852 131.269C241.477 131.409 242.051 131.651 242.575 131.995C243.098 132.339 243.516 132.8 243.829 133.378C244.141 133.956 244.298 134.679 244.298 135.546V144.312H241.333V142.507H241.239C241.051 142.866 240.786 143.206 240.442 143.526C240.106 143.839 239.684 144.093 239.176 144.288C238.676 144.483 238.083 144.581 237.395 144.581ZM238.18 142.308C238.805 142.308 239.344 142.187 239.798 141.944C240.251 141.694 240.602 141.366 240.852 140.96C241.102 140.546 241.227 140.097 241.227 139.612V138.077C241.126 138.155 240.962 138.229 240.735 138.3C240.509 138.362 240.251 138.421 239.962 138.476C239.673 138.53 239.387 138.577 239.106 138.616C238.833 138.655 238.594 138.687 238.391 138.71C237.93 138.772 237.516 138.878 237.149 139.026C236.79 139.167 236.505 139.362 236.294 139.612C236.083 139.862 235.977 140.187 235.977 140.585C235.977 141.155 236.184 141.585 236.598 141.874C237.012 142.163 237.54 142.308 238.18 142.308ZM251.946 144.569C250.641 144.569 249.52 144.284 248.582 143.714C247.645 143.136 246.926 142.339 246.426 141.323C245.926 140.308 245.676 139.14 245.676 137.819C245.676 136.483 245.93 135.308 246.438 134.292C246.946 133.276 247.668 132.483 248.606 131.913C249.543 131.335 250.649 131.046 251.922 131.046C252.993 131.046 253.938 131.241 254.758 131.632C255.578 132.022 256.231 132.573 256.715 133.284C257.207 133.987 257.489 134.812 257.559 135.757H254.606C254.528 135.335 254.375 134.956 254.149 134.62C253.922 134.284 253.625 134.019 253.258 133.823C252.899 133.628 252.469 133.53 251.969 133.53C251.336 133.53 250.782 133.702 250.305 134.046C249.836 134.382 249.469 134.866 249.203 135.499C248.938 136.132 248.805 136.89 248.805 137.772C248.805 138.663 248.934 139.433 249.192 140.081C249.45 140.722 249.817 141.218 250.293 141.569C250.77 141.913 251.328 142.085 251.969 142.085C252.649 142.085 253.223 141.886 253.692 141.487C254.168 141.089 254.473 140.538 254.606 139.835H257.559C257.489 140.765 257.215 141.585 256.739 142.296C256.262 143.007 255.618 143.565 254.805 143.972C253.993 144.37 253.039 144.569 251.946 144.569ZM261.691 140.21L261.68 136.472H262.184L266.883 131.21H270.492L264.703 137.667H264.059L261.691 140.21ZM258.879 144.312V126.851H261.961V144.312H258.879ZM267.094 144.312L262.828 138.358L264.914 136.179L270.785 144.312H267.094ZM276.547 144.569C275.234 144.569 274.101 144.296 273.148 143.749C272.195 143.194 271.461 142.413 270.945 141.405C270.437 140.397 270.183 139.21 270.183 137.843C270.183 136.491 270.437 135.308 270.945 134.292C271.453 133.269 272.168 132.472 273.089 131.901C274.011 131.331 275.097 131.046 276.347 131.046C277.152 131.046 277.914 131.175 278.632 131.433C279.359 131.69 280 132.089 280.554 132.628C281.117 133.167 281.558 133.854 281.879 134.69C282.199 135.519 282.359 136.507 282.359 137.655V138.616H271.625V136.542H280.824L279.382 137.151C279.382 136.409 279.269 135.765 279.043 135.218C278.816 134.663 278.48 134.229 278.035 133.917C277.589 133.604 277.035 133.448 276.371 133.448C275.707 133.448 275.14 133.604 274.672 133.917C274.203 134.229 273.847 134.651 273.605 135.183C273.363 135.706 273.242 136.292 273.242 136.94V138.382C273.242 139.179 273.379 139.862 273.652 140.433C273.933 140.995 274.324 141.425 274.824 141.722C275.332 142.019 275.922 142.167 276.593 142.167C277.031 142.167 277.429 142.104 277.789 141.979C278.156 141.854 278.468 141.667 278.726 141.417C278.992 141.159 279.195 140.843 279.336 140.468L282.218 140.808C282.031 141.565 281.683 142.229 281.175 142.8C280.675 143.362 280.031 143.8 279.242 144.112C278.461 144.417 277.562 144.569 276.547 144.569ZM283.691 144.312V131.21H286.679V133.413H286.82C287.054 132.647 287.464 132.062 288.05 131.655C288.636 131.241 289.304 131.034 290.054 131.034C290.218 131.034 290.406 131.042 290.616 131.058C290.835 131.073 291.015 131.093 291.156 131.116V133.952C291.023 133.905 290.816 133.866 290.534 133.835C290.253 133.804 289.984 133.788 289.726 133.788C289.156 133.788 288.648 133.909 288.202 134.151C287.757 134.394 287.406 134.726 287.148 135.147C286.898 135.569 286.773 136.062 286.773 136.624V144.312H283.691ZM302.308 134.69L299.507 134.983C299.39 134.554 299.136 134.175 298.745 133.847C298.354 133.511 297.804 133.343 297.093 133.343C296.452 133.343 295.913 133.483 295.476 133.765C295.046 134.046 294.831 134.405 294.831 134.843C294.831 135.226 294.972 135.542 295.253 135.792C295.542 136.034 296.018 136.229 296.683 136.378L298.921 136.847C300.147 137.104 301.065 137.526 301.675 138.112C302.284 138.698 302.589 139.456 302.589 140.386C302.589 141.206 302.351 141.933 301.874 142.565C301.397 143.198 300.737 143.69 299.893 144.042C299.058 144.394 298.093 144.569 296.999 144.569C295.397 144.569 294.108 144.233 293.132 143.562C292.163 142.882 291.581 141.94 291.386 140.737L294.397 140.456C294.53 141.042 294.819 141.487 295.265 141.792C295.718 142.089 296.296 142.237 296.999 142.237C297.733 142.237 298.323 142.089 298.768 141.792C299.214 141.487 299.436 141.116 299.436 140.679C299.436 139.944 298.851 139.444 297.679 139.179L295.44 138.71C294.183 138.437 293.253 137.995 292.651 137.386C292.05 136.769 291.749 135.983 291.749 135.03C291.749 134.218 291.972 133.515 292.417 132.921C292.862 132.327 293.483 131.866 294.28 131.538C295.077 131.21 295.999 131.046 297.046 131.046C298.585 131.046 299.792 131.378 300.667 132.042C301.55 132.698 302.097 133.581 302.308 134.69Z" fill="white"/>
<rect x="50" y="191.051" width="297.098" height="87.5224" rx="23.4906" fill="#3FA9F5"/>
<path d="M218.266 243.312V225.851H224.816C226.16 225.851 227.285 226.101 228.191 226.601C229.105 227.101 229.797 227.788 230.266 228.663C230.734 229.538 230.969 230.53 230.969 231.64C230.969 232.757 230.73 233.753 230.254 234.628C229.785 235.495 229.09 236.179 228.168 236.679C227.246 237.171 226.113 237.417 224.77 237.417H220.434V234.815H224.336C225.125 234.815 225.77 234.683 226.27 234.417C226.777 234.144 227.148 233.769 227.383 233.292C227.625 232.808 227.746 232.257 227.746 231.64C227.746 231.015 227.625 230.468 227.383 229.999C227.148 229.522 226.777 229.155 226.27 228.897C225.77 228.632 225.121 228.499 224.324 228.499H221.43V243.312H218.266ZM232.347 243.312V230.21H235.336V232.413H235.476C235.711 231.647 236.121 231.062 236.707 230.655C237.293 230.241 237.961 230.034 238.711 230.034C238.875 230.034 239.062 230.042 239.273 230.058C239.492 230.073 239.672 230.093 239.812 230.116V232.952C239.679 232.905 239.472 232.866 239.191 232.835C238.91 232.804 238.64 232.788 238.382 232.788C237.812 232.788 237.304 232.909 236.859 233.151C236.414 233.394 236.062 233.726 235.804 234.147C235.554 234.569 235.429 235.062 235.429 235.624V243.312H232.347ZM245.796 243.569C244.515 243.569 243.406 243.288 242.468 242.726C241.531 242.163 240.804 241.374 240.288 240.358C239.781 239.343 239.527 238.163 239.527 236.819C239.527 235.468 239.781 234.284 240.288 233.269C240.804 232.245 241.531 231.452 242.468 230.89C243.406 230.327 244.515 230.046 245.796 230.046C247.077 230.046 248.187 230.327 249.124 230.89C250.062 231.452 250.788 232.245 251.304 233.269C251.82 234.284 252.077 235.468 252.077 236.819C252.077 238.163 251.82 239.343 251.304 240.358C250.788 241.374 250.062 242.163 249.124 242.726C248.187 243.288 247.077 243.569 245.796 243.569ZM245.796 241.085C246.507 241.085 247.093 240.897 247.554 240.522C248.015 240.14 248.359 239.624 248.585 238.976C248.82 238.327 248.937 237.608 248.937 236.819C248.937 236.015 248.82 235.288 248.585 234.64C248.359 233.991 248.015 233.479 247.554 233.104C247.093 232.722 246.507 232.53 245.796 232.53C245.101 232.53 244.519 232.722 244.05 233.104C243.581 233.479 243.23 233.991 242.995 234.64C242.769 235.288 242.656 236.015 242.656 236.819C242.656 237.608 242.769 238.327 242.995 238.976C243.23 239.624 243.581 240.14 244.05 240.522C244.519 240.897 245.101 241.085 245.796 241.085ZM253.433 230.21H256.515V244.062C256.522 245.007 256.347 245.784 255.987 246.394C255.628 247.011 255.108 247.468 254.429 247.765C253.749 248.062 252.925 248.21 251.956 248.21H251.335V245.702H251.78C252.374 245.702 252.796 245.558 253.046 245.269C253.304 244.987 253.433 244.573 253.433 244.026V230.21ZM254.968 228.37C254.476 228.37 254.054 228.206 253.702 227.878C253.351 227.55 253.175 227.155 253.175 226.694C253.175 226.226 253.351 225.827 253.702 225.499C254.054 225.171 254.476 225.007 254.968 225.007C255.452 225.007 255.87 225.171 256.222 225.499C256.573 225.827 256.749 226.222 256.749 226.683C256.749 227.151 256.573 227.55 256.222 227.878C255.87 228.206 255.452 228.37 254.968 228.37ZM264.256 243.569C262.944 243.569 261.811 243.296 260.858 242.749C259.905 242.194 259.17 241.413 258.655 240.405C258.147 239.397 257.893 238.21 257.893 236.843C257.893 235.491 258.147 234.308 258.655 233.292C259.163 232.269 259.878 231.472 260.799 230.901C261.721 230.331 262.807 230.046 264.057 230.046C264.862 230.046 265.624 230.175 266.342 230.433C267.069 230.69 267.71 231.089 268.264 231.628C268.827 232.167 269.268 232.854 269.588 233.69C269.909 234.519 270.069 235.507 270.069 236.655V237.616H259.335V235.542H268.534L267.092 236.151C267.092 235.409 266.979 234.765 266.753 234.218C266.526 233.663 266.19 233.229 265.745 232.917C265.299 232.604 264.745 232.448 264.081 232.448C263.417 232.448 262.85 232.604 262.381 232.917C261.913 233.229 261.557 233.651 261.315 234.183C261.073 234.706 260.952 235.292 260.952 235.94V237.382C260.952 238.179 261.088 238.862 261.362 239.433C261.643 239.995 262.034 240.425 262.534 240.722C263.042 241.019 263.631 241.167 264.303 241.167C264.741 241.167 265.139 241.104 265.499 240.979C265.866 240.854 266.178 240.667 266.436 240.417C266.702 240.159 266.905 239.843 267.045 239.468L269.928 239.808C269.741 240.565 269.393 241.229 268.885 241.8C268.385 242.362 267.741 242.8 266.952 243.112C266.17 243.417 265.272 243.569 264.256 243.569ZM277.108 243.569C275.803 243.569 274.682 243.284 273.744 242.714C272.807 242.136 272.088 241.339 271.588 240.323C271.088 239.308 270.838 238.14 270.838 236.819C270.838 235.483 271.092 234.308 271.6 233.292C272.108 232.276 272.83 231.483 273.768 230.913C274.705 230.335 275.811 230.046 277.084 230.046C278.154 230.046 279.1 230.241 279.92 230.632C280.74 231.022 281.393 231.573 281.877 232.284C282.369 232.987 282.651 233.812 282.721 234.757H279.768C279.69 234.335 279.537 233.956 279.311 233.62C279.084 233.284 278.787 233.019 278.42 232.823C278.061 232.628 277.631 232.53 277.131 232.53C276.498 232.53 275.944 232.702 275.467 233.046C274.998 233.382 274.631 233.866 274.365 234.499C274.1 235.132 273.967 235.89 273.967 236.772C273.967 237.663 274.096 238.433 274.354 239.081C274.612 239.722 274.979 240.218 275.455 240.569C275.932 240.913 276.49 241.085 277.131 241.085C277.811 241.085 278.385 240.886 278.854 240.487C279.33 240.089 279.635 239.538 279.768 238.835H282.721C282.651 239.765 282.377 240.585 281.901 241.296C281.424 242.007 280.779 242.565 279.967 242.972C279.154 243.37 278.201 243.569 277.108 243.569ZM290.568 230.21V232.601H283.056V230.21H290.568ZM284.896 227.093H287.978V239.374C287.978 239.89 288.092 240.272 288.318 240.522C288.545 240.765 288.904 240.886 289.396 240.886C289.529 240.886 289.678 240.874 289.842 240.851C290.006 240.827 290.154 240.8 290.287 240.769L290.814 243.183C290.486 243.284 290.154 243.358 289.818 243.405C289.482 243.46 289.146 243.487 288.81 243.487C287.592 243.487 286.635 243.167 285.939 242.526C285.244 241.878 284.896 240.995 284.896 239.878V227.093ZM302.072 233.69L299.271 233.983C299.154 233.554 298.9 233.175 298.509 232.847C298.119 232.511 297.568 232.343 296.857 232.343C296.216 232.343 295.677 232.483 295.24 232.765C294.81 233.046 294.595 233.405 294.595 233.843C294.595 234.226 294.736 234.542 295.017 234.792C295.306 235.034 295.783 235.229 296.447 235.378L298.685 235.847C299.912 236.104 300.83 236.526 301.439 237.112C302.048 237.698 302.353 238.456 302.353 239.386C302.353 240.206 302.115 240.933 301.638 241.565C301.162 242.198 300.501 242.69 299.658 243.042C298.822 243.394 297.857 243.569 296.763 243.569C295.162 243.569 293.873 243.233 292.896 242.562C291.927 241.882 291.345 240.94 291.15 239.737L294.162 239.456C294.294 240.042 294.583 240.487 295.029 240.792C295.482 241.089 296.06 241.237 296.763 241.237C297.498 241.237 298.087 241.089 298.533 240.792C298.978 240.487 299.201 240.116 299.201 239.679C299.201 238.944 298.615 238.444 297.443 238.179L295.205 237.71C293.947 237.437 293.017 236.995 292.416 236.386C291.814 235.769 291.513 234.983 291.513 234.03C291.513 233.218 291.736 232.515 292.181 231.921C292.626 231.327 293.248 230.866 294.044 230.538C294.841 230.21 295.763 230.046 296.81 230.046C298.349 230.046 299.556 230.378 300.431 231.042C301.314 231.698 301.861 232.581 302.072 233.69Z" fill="white"/>
<rect x="50" y="294.789" width="297.098" height="87.5224" rx="23.4906" fill="#3FA9F5"/>
<path d="M218.266 350.312V332.851H224.969C226.227 332.851 227.273 333.05 228.109 333.448C228.945 333.839 229.57 334.378 229.984 335.065C230.398 335.745 230.605 336.515 230.605 337.374C230.605 338.085 230.469 338.694 230.195 339.202C229.93 339.702 229.566 340.108 229.105 340.421C228.645 340.733 228.129 340.96 227.559 341.101V341.276C228.184 341.3 228.777 341.487 229.34 341.839C229.91 342.183 230.375 342.667 230.734 343.292C231.102 343.917 231.285 344.671 231.285 345.554C231.285 346.46 231.066 347.272 230.629 347.991C230.199 348.702 229.543 349.269 228.66 349.69C227.785 350.104 226.68 350.312 225.344 350.312H218.266ZM221.43 347.675H224.828C225.977 347.675 226.805 347.452 227.312 347.007C227.828 346.562 228.086 345.995 228.086 345.308C228.086 344.784 227.957 344.315 227.699 343.901C227.441 343.487 227.074 343.159 226.598 342.917C226.129 342.675 225.574 342.554 224.934 342.554H221.43V347.675ZM221.43 340.28H224.57C225.109 340.28 225.598 340.179 226.035 339.976C226.473 339.772 226.816 339.487 227.066 339.12C227.324 338.745 227.453 338.304 227.453 337.796C227.453 337.124 227.215 336.569 226.738 336.132C226.262 335.687 225.562 335.464 224.641 335.464H221.43V340.28ZM238.382 350.569C237.101 350.569 235.992 350.288 235.054 349.726C234.117 349.163 233.39 348.374 232.875 347.358C232.367 346.343 232.113 345.163 232.113 343.819C232.113 342.468 232.367 341.284 232.875 340.269C233.39 339.245 234.117 338.452 235.054 337.89C235.992 337.327 237.101 337.046 238.382 337.046C239.664 337.046 240.773 337.327 241.711 337.89C242.648 338.452 243.375 339.245 243.89 340.269C244.406 341.284 244.664 342.468 244.664 343.819C244.664 345.163 244.406 346.343 243.89 347.358C243.375 348.374 242.648 349.163 241.711 349.726C240.773 350.288 239.664 350.569 238.382 350.569ZM238.382 348.085C239.093 348.085 239.679 347.897 240.14 347.522C240.601 347.14 240.945 346.624 241.172 345.976C241.406 345.327 241.523 344.608 241.523 343.819C241.523 343.015 241.406 342.288 241.172 341.64C240.945 340.991 240.601 340.479 240.14 340.104C239.679 339.722 239.093 339.53 238.382 339.53C237.687 339.53 237.105 339.722 236.636 340.104C236.168 340.479 235.816 340.991 235.582 341.64C235.355 342.288 235.242 343.015 235.242 343.819C235.242 344.608 235.355 345.327 235.582 345.976C235.816 346.624 236.168 347.14 236.636 347.522C237.105 347.897 237.687 348.085 238.382 348.085ZM254.363 344.815V337.21H257.445V350.312H254.456V347.979H254.316C254.019 348.714 253.534 349.315 252.863 349.784C252.191 350.253 251.363 350.483 250.378 350.476C249.519 350.476 248.761 350.288 248.105 349.913C247.456 349.53 246.945 348.972 246.57 348.237C246.202 347.495 246.019 346.601 246.019 345.554V337.21H249.101V345.085C249.101 345.905 249.327 346.562 249.781 347.054C250.241 347.546 250.843 347.788 251.585 347.78C252.038 347.78 252.476 347.671 252.898 347.452C253.327 347.233 253.679 346.905 253.952 346.468C254.226 346.03 254.363 345.479 254.363 344.815ZM262.468 342.647V350.312H259.386V337.21H262.409V339.448H262.561C262.858 338.714 263.323 338.132 263.956 337.702C264.597 337.265 265.409 337.046 266.393 337.046C267.3 337.046 268.089 337.237 268.761 337.62C269.433 338.003 269.952 338.565 270.319 339.308C270.694 340.042 270.882 340.933 270.882 341.979V350.312H267.8V342.46C267.8 341.585 267.573 340.901 267.12 340.409C266.667 339.909 266.042 339.659 265.245 339.659C264.706 339.659 264.226 339.776 263.804 340.011C263.39 340.245 263.061 340.585 262.819 341.03C262.585 341.468 262.468 342.007 262.468 342.647ZM279.35 337.21V339.601H271.838V337.21H279.35ZM273.678 334.093H276.76V346.374C276.76 346.89 276.874 347.272 277.1 347.522C277.327 347.765 277.686 347.886 278.178 347.886C278.311 347.886 278.46 347.874 278.624 347.851C278.788 347.827 278.936 347.8 279.069 347.769L279.596 350.183C279.268 350.284 278.936 350.358 278.6 350.405C278.264 350.46 277.928 350.487 277.592 350.487C276.374 350.487 275.417 350.167 274.721 349.526C274.026 348.878 273.678 347.995 273.678 346.878V334.093ZM280.705 350.312V337.21H283.787V350.312H280.705ZM282.252 335.37C281.76 335.37 281.338 335.206 280.987 334.878C280.635 334.55 280.459 334.155 280.459 333.694C280.459 333.226 280.635 332.827 280.987 332.499C281.338 332.171 281.76 332.007 282.252 332.007C282.737 332.007 283.154 332.171 283.506 332.499C283.858 332.827 284.033 333.222 284.033 333.683C284.033 334.151 283.858 334.55 283.506 334.878C283.154 335.206 282.737 335.37 282.252 335.37ZM291.529 350.569C290.217 350.569 289.084 350.296 288.131 349.749C287.178 349.194 286.443 348.413 285.928 347.405C285.42 346.397 285.166 345.21 285.166 343.843C285.166 342.491 285.42 341.308 285.928 340.292C286.435 339.269 287.15 338.472 288.072 337.901C288.994 337.331 290.08 337.046 291.33 337.046C292.135 337.046 292.896 337.175 293.615 337.433C294.342 337.69 294.982 338.089 295.537 338.628C296.099 339.167 296.541 339.854 296.861 340.69C297.181 341.519 297.342 342.507 297.342 343.655V344.616H286.607V342.542H295.806L294.365 343.151C294.365 342.409 294.252 341.765 294.025 341.218C293.799 340.663 293.463 340.229 293.017 339.917C292.572 339.604 292.017 339.448 291.353 339.448C290.689 339.448 290.123 339.604 289.654 339.917C289.185 340.229 288.83 340.651 288.588 341.183C288.346 341.706 288.224 342.292 288.224 342.94V344.382C288.224 345.179 288.361 345.862 288.635 346.433C288.916 346.995 289.306 347.425 289.806 347.722C290.314 348.019 290.904 348.167 291.576 348.167C292.014 348.167 292.412 348.104 292.771 347.979C293.139 347.854 293.451 347.667 293.709 347.417C293.974 347.159 294.178 346.843 294.318 346.468L297.201 346.808C297.014 347.565 296.666 348.229 296.158 348.8C295.658 349.362 295.014 349.8 294.224 350.112C293.443 350.417 292.545 350.569 291.529 350.569ZM309.009 340.69L306.208 340.983C306.091 340.554 305.837 340.175 305.447 339.847C305.056 339.511 304.505 339.343 303.794 339.343C303.154 339.343 302.615 339.483 302.177 339.765C301.748 340.046 301.533 340.405 301.533 340.843C301.533 341.226 301.673 341.542 301.955 341.792C302.244 342.034 302.72 342.229 303.384 342.378L305.623 342.847C306.849 343.104 307.767 343.526 308.376 344.112C308.986 344.698 309.291 345.456 309.291 346.386C309.291 347.206 309.052 347.933 308.576 348.565C308.099 349.198 307.439 349.69 306.595 350.042C305.759 350.394 304.794 350.569 303.701 350.569C302.099 350.569 300.81 350.233 299.833 349.562C298.865 348.882 298.283 347.94 298.087 346.737L301.099 346.456C301.232 347.042 301.521 347.487 301.966 347.792C302.419 348.089 302.998 348.237 303.701 348.237C304.435 348.237 305.025 348.089 305.47 347.792C305.916 347.487 306.138 347.116 306.138 346.679C306.138 345.944 305.552 345.444 304.38 345.179L302.142 344.71C300.884 344.437 299.955 343.995 299.353 343.386C298.751 342.769 298.451 341.983 298.451 341.03C298.451 340.218 298.673 339.515 299.119 338.921C299.564 338.327 300.185 337.866 300.982 337.538C301.779 337.21 302.701 337.046 303.748 337.046C305.287 337.046 306.494 337.378 307.369 338.042C308.251 338.698 308.798 339.581 309.009 340.69Z" fill="white"/>
<path d="M59.0425 32V14.5391H70.4097V17.1875H62.2065V21.875H69.8003V24.4883H62.2065V29.3516H70.4565V32H59.0425ZM71.4777 17.1875V14.5391L85.3996 14.5391V17.1875H80.0089V32H76.88V17.1875H71.4777ZM86.6785 32V14.5391H89.8426V21.9336H97.9285V14.5391H101.093V32H97.9285V24.5938H89.8426V32H86.6785ZM103.133 14.5391H107.012L112.192 27.1836H112.391L117.582 14.5391H121.508V32H118.403V20H118.262L113.411 31.9414H111.137L106.344 19.9766H106.18V32H103.133V14.5391ZM131.764 26.5039V18.8984H134.846V32H131.858V29.668H131.717C131.42 30.4023 130.936 31.0039 130.264 31.4727C129.592 31.9414 128.764 32.1719 127.779 32.1641C126.92 32.1641 126.162 31.9766 125.506 31.6016C124.858 31.2187 124.346 30.6602 123.971 29.9258C123.604 29.1836 123.42 28.2891 123.42 27.2422V18.8984L126.502 18.8984V26.7734C126.502 27.5937 126.729 28.25 127.182 28.7422C127.643 29.2344 128.244 29.4766 128.986 29.4687C129.44 29.4687 129.877 29.3594 130.299 29.1406C130.729 28.9219 131.08 28.5937 131.354 28.1562C131.627 27.7187 131.764 27.168 131.764 26.5039ZM136.64 32V18.8984H139.582V21.1367H139.746C140.019 20.3867 140.472 19.8008 141.105 19.3789C141.738 18.9492 142.488 18.7344 143.355 18.7344C144.246 18.7344 144.996 18.9492 145.605 19.3789C146.215 19.8086 146.64 20.3945 146.883 21.1367H147.023C147.32 20.4102 147.812 19.8281 148.5 19.3906C149.187 18.9531 150.008 18.7344 150.961 18.7344C152.164 18.7344 153.144 19.1172 153.902 19.8828C154.668 20.6406 155.051 21.75 155.051 23.2109V32H151.957V23.6797C151.957 22.875 151.738 22.2852 151.301 21.9102C150.871 21.5273 150.344 21.3359 149.719 21.3359C148.976 21.3359 148.398 21.5703 147.984 22.0391C147.57 22.5 147.363 23.0937 147.363 23.8203V32H144.316V23.5625C144.316 22.8828 144.117 22.3437 143.719 21.9453C143.32 21.5391 142.793 21.3359 142.136 21.3359C141.691 21.3359 141.285 21.4492 140.918 21.6758C140.551 21.9023 140.258 22.2188 140.039 22.625C139.828 23.0312 139.722 23.5 139.722 24.0312V32H136.64ZM163.794 32.2344C163.052 32.2344 162.431 32.1094 161.931 31.8594C161.439 31.6016 161.04 31.2969 160.736 30.9453C160.439 30.5859 160.212 30.2461 160.056 29.9258H159.869V32H156.845V14.5391H159.927V21.0664H160.056C160.212 20.7539 160.435 20.418 160.724 20.0586C161.013 19.6914 161.404 19.3789 161.896 19.1211C162.396 18.8633 163.033 18.7344 163.806 18.7344C164.814 18.7344 165.724 18.9922 166.537 19.5078C167.349 20.0234 167.994 20.7812 168.47 21.7812C168.955 22.7812 169.197 24.0117 169.197 25.4727C169.197 26.9102 168.962 28.1328 168.494 29.1406C168.025 30.1484 167.38 30.918 166.56 31.4492C165.747 31.9727 164.826 32.2344 163.794 32.2344ZM162.951 29.7031C163.63 29.7031 164.197 29.5195 164.65 29.1523C165.111 28.7852 165.458 28.2812 165.693 27.6406C165.927 27 166.044 26.2734 166.044 25.4609C166.044 24.6484 165.927 23.9258 165.693 23.293C165.458 22.6602 165.115 22.1641 164.662 21.8047C164.208 21.4453 163.638 21.2656 162.951 21.2656C162.287 21.2656 161.724 21.4375 161.263 21.7812C160.81 22.125 160.462 22.6133 160.22 23.2461C159.986 23.8711 159.869 24.6094 159.869 25.4609C159.869 26.3047 159.986 27.0469 160.22 27.6875C160.462 28.3203 160.814 28.8164 161.275 29.1758C161.736 29.5273 162.294 29.7031 162.951 29.7031ZM174.191 32.2695C173.355 32.2695 172.605 32.1211 171.941 31.8242C171.276 31.5195 170.753 31.0742 170.37 30.4883C169.987 29.9023 169.796 29.1797 169.796 28.3203C169.796 27.5859 169.933 26.9766 170.206 26.4922C170.48 26.0078 170.851 25.6211 171.319 25.332C171.796 25.043 172.331 24.8242 172.925 24.6758C173.519 24.5195 174.132 24.4102 174.765 24.3477C175.538 24.2617 176.163 24.1875 176.64 24.125C177.116 24.0625 177.46 23.9609 177.671 23.8203C177.89 23.6797 177.999 23.4609 177.999 23.1641V23.1055C177.999 22.4727 177.812 21.9805 177.437 21.6289C177.062 21.2773 176.515 21.1016 175.796 21.1016C175.038 21.1016 174.437 21.2656 173.991 21.5937C173.554 21.9219 173.257 22.3086 173.101 22.7539L170.23 22.3437C170.456 21.5469 170.831 20.8828 171.355 20.3516C171.878 19.8125 172.515 19.4102 173.265 19.1445C174.023 18.8711 174.858 18.7344 175.773 18.7344C176.398 18.7344 177.023 18.8086 177.648 18.957C178.273 19.0977 178.847 19.3398 179.37 19.6836C179.894 20.0273 180.312 20.4883 180.624 21.0664C180.937 21.6445 181.093 22.3672 181.093 23.2344V32H178.128V30.1953H178.034C177.847 30.5547 177.581 30.8945 177.237 31.2148C176.901 31.5273 176.48 31.7812 175.972 31.9766C175.472 32.1719 174.878 32.2695 174.191 32.2695ZM174.976 29.9961C175.601 29.9961 176.14 29.875 176.593 29.6328C177.046 29.3828 177.398 29.0547 177.648 28.6484C177.898 28.2344 178.023 27.7852 178.023 27.3008V25.7656C177.921 25.8437 177.757 25.918 177.53 25.9883C177.304 26.0508 177.046 26.1094 176.757 26.1641C176.468 26.2187 176.183 26.2656 175.901 26.3047C175.628 26.3437 175.39 26.375 175.187 26.3984C174.726 26.4609 174.312 26.5664 173.944 26.7148C173.585 26.8555 173.3 27.0508 173.089 27.3008C172.878 27.5508 172.773 27.875 172.773 28.2734C172.773 28.8437 172.98 29.2734 173.394 29.5625C173.808 29.8516 174.335 29.9961 174.976 29.9961ZM182.887 32V18.8984H185.969V32H182.887ZM184.434 17.0586C183.942 17.0586 183.52 16.8945 183.169 16.5664C182.817 16.2383 182.641 15.8437 182.641 15.3828C182.641 14.9141 182.817 14.5156 183.169 14.1875C183.52 13.8594 183.942 13.6953 184.434 13.6953C184.919 13.6953 185.337 13.8594 185.688 14.1875C186.04 14.5156 186.216 14.9102 186.216 15.3711C186.216 15.8398 186.04 16.2383 185.688 16.5664C185.337 16.8945 184.919 17.0586 184.434 17.0586ZM192.289 32V29.7266L198.359 23.7734C198.93 23.1875 199.406 22.668 199.789 22.2148C200.18 21.7617 200.473 21.3242 200.668 20.9023C200.863 20.4727 200.961 20.0156 200.961 19.5312C200.961 18.9844 200.836 18.5117 200.586 18.1133C200.336 17.7148 199.992 17.4102 199.555 17.1992C199.125 16.9883 198.633 16.8828 198.078 16.8828C197.5 16.8828 196.996 17 196.566 17.2344C196.137 17.4687 195.801 17.8008 195.559 18.2305C195.324 18.6602 195.207 19.1719 195.207 19.7656H192.207C192.207 18.6641 192.457 17.707 192.957 16.8945C193.465 16.0742 194.164 15.4375 195.055 14.9844C195.945 14.5312 196.965 14.3047 198.113 14.3047C199.293 14.3047 200.324 14.5234 201.207 14.9609C202.09 15.3984 202.777 16 203.27 16.7656C203.762 17.5234 204.008 18.3906 204.008 19.3672C204.008 20.0234 203.883 20.668 203.633 21.3008C203.383 21.9258 202.941 22.625 202.309 23.3984C201.684 24.1641 200.805 25.0898 199.672 26.1758L196.672 29.2344V29.3633H204.266V32H192.289ZM212.306 32.2344C210.892 32.2344 209.681 31.8828 208.674 31.1797C207.674 30.4687 206.908 29.4492 206.377 28.1211C205.845 26.7852 205.58 25.1719 205.58 23.2812C205.58 21.3906 205.845 19.7773 206.377 18.4414C206.908 17.0977 207.674 16.0742 208.674 15.3711C209.681 14.6602 210.892 14.3047 212.306 14.3047C213.713 14.3047 214.92 14.6602 215.927 15.3711C216.935 16.082 217.705 17.1055 218.236 18.4414C218.767 19.7773 219.033 21.3906 219.033 23.2812C219.033 25.1719 218.767 26.7852 218.236 28.1211C217.705 29.4492 216.939 30.4687 215.939 31.1797C214.939 31.8828 213.728 32.2344 212.306 32.2344ZM212.306 29.5859C213.064 29.5859 213.705 29.3398 214.228 28.8477C214.759 28.3555 215.162 27.6406 215.435 26.7031C215.717 25.7578 215.857 24.6172 215.857 23.2812C215.857 21.9375 215.717 20.793 215.435 19.8477C215.162 18.9023 214.759 18.1836 214.228 17.6914C213.705 17.1914 213.064 16.9414 212.306 16.9414C211.166 16.9414 210.287 17.4961 209.67 18.6055C209.06 19.707 208.756 21.2656 208.756 23.2812C208.756 24.6172 208.892 25.7578 209.166 26.7031C209.439 27.6406 209.842 28.3555 210.373 28.8477C210.904 29.3398 211.549 29.5859 212.306 29.5859ZM220.464 32V29.7266L226.535 23.7734C227.105 23.1875 227.581 22.668 227.964 22.2148C228.355 21.7617 228.648 21.3242 228.843 20.9023C229.038 20.4727 229.136 20.0156 229.136 19.5312C229.136 18.9844 229.011 18.5117 228.761 18.1133C228.511 17.7148 228.167 17.4102 227.73 17.1992C227.3 16.9883 226.808 16.8828 226.253 16.8828C225.675 16.8828 225.171 17 224.742 17.2344C224.312 17.4687 223.976 17.8008 223.734 18.2305C223.499 18.6602 223.382 19.1719 223.382 19.7656H220.382C220.382 18.6641 220.632 17.707 221.132 16.8945C221.64 16.0742 222.339 15.4375 223.23 14.9844C224.12 14.5312 225.14 14.3047 226.288 14.3047C227.468 14.3047 228.499 14.5234 229.382 14.9609C230.265 15.3984 230.952 16 231.445 16.7656C231.937 17.5234 232.183 18.3906 232.183 19.3672C232.183 20.0234 232.058 20.668 231.808 21.3008C231.558 21.9258 231.117 22.625 230.484 23.3984C229.859 24.1641 228.98 25.0898 227.847 26.1758L224.847 29.2344V29.3633H232.441V32H220.464ZM233.333 28.7656V26.2461L240.751 14.5391H242.837V18.125H241.56L236.567 26.0234V26.1641H246.915V28.7656L233.333 28.7656ZM241.653 32V28.0039L241.7 26.8672V14.5391H244.677V32H241.653ZM256.153 14.5391V32H252.989V14.5391H256.153ZM258.064 32V18.8984H261.006V21.1367H261.17C261.443 20.3867 261.896 19.8008 262.529 19.3789C263.162 18.9492 263.912 18.7344 264.779 18.7344C265.67 18.7344 266.42 18.9492 267.029 19.3789C267.639 19.8086 268.064 20.3945 268.307 21.1367H268.447C268.744 20.4102 269.236 19.8281 269.924 19.3906C270.611 18.9531 271.432 18.7344 272.385 18.7344C273.588 18.7344 274.568 19.1172 275.326 19.8828C276.092 20.6406 276.475 21.75 276.475 23.2109V32H273.381V23.6797C273.381 22.875 273.162 22.2852 272.725 21.9102C272.295 21.5273 271.768 21.3359 271.143 21.3359C270.4 21.3359 269.822 21.5703 269.408 22.0391C268.994 22.5 268.787 23.0937 268.787 23.8203V32H265.74V23.5625C265.74 22.8828 265.541 22.3437 265.143 21.9453C264.744 21.5391 264.217 21.3359 263.561 21.3359C263.115 21.3359 262.709 21.4492 262.342 21.6758C261.975 21.9023 261.682 22.2187 261.463 22.625C261.252 23.0312 261.146 23.5 261.146 24.0312V32H258.064ZM278.269 36.8984V18.8984H281.293V21.0664H281.48C281.636 20.7539 281.859 20.418 282.148 20.0586C282.437 19.6914 282.828 19.3789 283.32 19.1211C283.82 18.8633 284.457 18.7344 285.23 18.7344C286.238 18.7344 287.148 18.9922 287.961 19.5078C288.773 20.0234 289.418 20.7812 289.894 21.7812C290.379 22.7812 290.621 24.0117 290.621 25.4727C290.621 26.9102 290.386 28.1328 289.918 29.1406C289.449 30.1484 288.804 30.918 287.984 31.4492C287.172 31.9727 286.25 32.2344 285.218 32.2344C284.476 32.2344 283.855 32.1094 283.355 31.8594C282.863 31.6016 282.464 31.2969 282.16 30.9453C281.863 30.5859 281.636 30.2461 281.48 29.9258H281.351V36.8984H278.269ZM284.375 29.7031C285.054 29.7031 285.621 29.5195 286.074 29.1523C286.535 28.7852 286.882 28.2812 287.117 27.6406C287.351 27 287.468 26.2734 287.468 25.4609C287.468 24.6484 287.351 23.9258 287.117 23.293C286.882 22.6602 286.539 22.1641 286.086 21.8047C285.632 21.4453 285.062 21.2656 284.375 21.2656C283.711 21.2656 283.148 21.4375 282.687 21.7812C282.234 22.125 281.886 22.6133 281.644 23.2461C281.41 23.8711 281.293 24.6094 281.293 25.4609C281.293 26.3047 281.41 27.0469 281.644 27.6875C281.886 28.3203 282.238 28.8164 282.699 29.1758C283.16 29.5273 283.718 29.7031 284.375 29.7031ZM295.615 32.2695C294.779 32.2695 294.029 32.1211 293.365 31.8242C292.7 31.5195 292.177 31.0742 291.794 30.4883C291.411 29.9023 291.22 29.1797 291.22 28.3203C291.22 27.5859 291.357 26.9766 291.63 26.4922C291.904 26.0078 292.275 25.6211 292.743 25.332C293.22 25.043 293.755 24.8242 294.349 24.6758C294.943 24.5195 295.556 24.4102 296.189 24.3477C296.962 24.2617 297.587 24.1875 298.064 24.125C298.54 24.0625 298.884 23.9609 299.095 23.8203C299.314 23.6797 299.423 23.4609 299.423 23.1641V23.1055C299.423 22.4727 299.236 21.9805 298.861 21.6289C298.486 21.2773 297.939 21.1016 297.22 21.1016C296.462 21.1016 295.861 21.2656 295.415 21.5937C294.978 21.9219 294.681 22.3086 294.525 22.7539L291.654 22.3437C291.88 21.5469 292.255 20.8828 292.779 20.3516C293.302 19.8125 293.939 19.4102 294.689 19.1445C295.447 18.8711 296.283 18.7344 297.197 18.7344C297.822 18.7344 298.447 18.8086 299.072 18.957C299.697 19.0977 300.271 19.3398 300.794 19.6836C301.318 20.0273 301.736 20.4883 302.048 21.0664C302.361 21.6445 302.517 22.3672 302.517 23.2344V32H299.552V30.1953H299.458C299.271 30.5547 299.005 30.8945 298.661 31.2148C298.325 31.5273 297.904 31.7812 297.396 31.9766C296.896 32.1719 296.302 32.2695 295.615 32.2695ZM296.4 29.9961C297.025 29.9961 297.564 29.875 298.017 29.6328C298.47 29.3828 298.822 29.0547 299.072 28.6484C299.322 28.2344 299.447 27.7852 299.447 27.3008V25.7656C299.345 25.8437 299.181 25.918 298.954 25.9883C298.728 26.0508 298.47 26.1094 298.181 26.1641C297.892 26.2187 297.607 26.2656 297.325 26.3047C297.052 26.3437 296.814 26.375 296.611 26.3984C296.15 26.4609 295.736 26.5664 295.368 26.7148C295.009 26.8555 294.724 27.0508 294.513 27.3008C294.302 27.5508 294.197 27.875 294.197 28.2734C294.197 28.8437 294.404 29.2734 294.818 29.5625C295.232 29.8516 295.759 29.9961 296.4 29.9961ZM310.018 32.2578C308.714 32.2578 307.593 31.9727 306.655 31.4023C305.718 30.8242 304.999 30.0273 304.499 29.0117C303.999 27.9961 303.749 26.8281 303.749 25.5078C303.749 24.1719 304.003 22.9961 304.511 21.9805C305.018 20.9648 305.741 20.1719 306.679 19.6016C307.616 19.0234 308.722 18.7344 309.995 18.7344C311.065 18.7344 312.011 18.9297 312.831 19.3203C313.651 19.7109 314.304 20.2617 314.788 20.9727C315.28 21.6758 315.561 22.5 315.632 23.4453H312.679C312.601 23.0234 312.448 22.6445 312.222 22.3086C311.995 21.9727 311.698 21.707 311.331 21.5117C310.972 21.3164 310.542 21.2187 310.042 21.2187C309.409 21.2187 308.854 21.3906 308.378 21.7344C307.909 22.0703 307.542 22.5547 307.276 23.1875C307.011 23.8203 306.878 24.5781 306.878 25.4609C306.878 26.3516 307.007 27.1211 307.265 27.7695C307.522 28.4102 307.89 28.9062 308.366 29.2578C308.843 29.6016 309.401 29.7734 310.042 29.7734C310.722 29.7734 311.296 29.5742 311.765 29.1758C312.241 28.7773 312.546 28.2266 312.679 27.5234H315.632C315.561 28.4531 315.288 29.2734 314.811 29.9844C314.335 30.6953 313.69 31.2539 312.878 31.6602C312.065 32.0586 311.112 32.2578 310.018 32.2578ZM323.333 18.8984V21.2891H315.821V18.8984H323.333ZM317.661 15.7812H320.743V28.0625C320.743 28.5781 320.856 28.9609 321.083 29.2109C321.309 29.4531 321.669 29.5742 322.161 29.5742C322.294 29.5742 322.442 29.5625 322.606 29.5391C322.77 29.5156 322.919 29.4883 323.051 29.457L323.579 31.8711C323.251 31.9727 322.919 32.0469 322.583 32.0937C322.247 32.1484 321.911 32.1758 321.575 32.1758C320.356 32.1758 319.399 31.8555 318.704 31.2148C318.008 30.5664 317.661 29.6836 317.661 28.5664V15.7812Z" fill="white"/>
<path d="M53.859 53.3115V41.6709H60.8434V42.9209H55.2652V46.9834H60.3121V48.2334H55.2652V53.3115H53.859ZM62.1074 53.3115V44.5771H63.4355V53.3115H62.1074ZM62.7792 43.124C62.5188 43.124 62.2949 43.0355 62.1074 42.8584C61.9199 42.6813 61.8261 42.4678 61.8261 42.2178C61.8261 41.9678 61.9199 41.7542 62.1074 41.5771C62.2949 41.4001 62.5188 41.3115 62.7792 41.3115C63.0396 41.3115 63.2636 41.4001 63.4511 41.5771C63.6386 41.7542 63.7324 41.9678 63.7324 42.2178C63.7324 42.4678 63.6386 42.6813 63.4511 42.8584C63.2636 43.0355 63.0396 43.124 62.7792 43.124ZM64.9339 53.3115V44.5771H66.2151V45.9053H66.3089C66.4703 45.473 66.7594 45.124 67.176 44.8584C67.5979 44.5876 68.0693 44.4521 68.5901 44.4521C68.6891 44.4521 68.8115 44.4548 68.9573 44.46C69.1031 44.46 69.2151 44.4626 69.2932 44.4678V45.8271C69.2464 45.8167 69.1422 45.8011 68.9807 45.7803C68.8193 45.7594 68.6474 45.749 68.4651 45.749C68.0432 45.749 67.6656 45.8376 67.3323 46.0146C66.999 46.1917 66.7359 46.4339 66.5432 46.7412C66.3557 47.0485 66.262 47.4001 66.262 47.7959V53.3115H64.9339ZM76.0885 46.5459L74.8854 46.874C74.7708 46.5771 74.5729 46.2959 74.2916 46.0303C74.0156 45.7594 73.5833 45.624 72.9947 45.624C72.4635 45.624 72.0208 45.749 71.6666 45.999C71.3124 46.2438 71.1354 46.5511 71.1354 46.9209C71.1354 47.2542 71.2551 47.5199 71.4947 47.7178C71.7395 47.9157 72.1197 48.0771 72.6354 48.2021L73.9322 48.5146C74.7083 48.7021 75.2864 48.9912 75.6666 49.3818C76.052 49.7725 76.2447 50.2699 76.2447 50.874C76.2447 51.374 76.1015 51.8219 75.815 52.2178C75.5286 52.6136 75.1301 52.9261 74.6197 53.1553C74.1093 53.3844 73.5156 53.499 72.8385 53.499C71.9479 53.499 71.2109 53.3037 70.6275 52.9131C70.0494 52.5225 69.6822 51.9574 69.526 51.2178L70.7916 50.9053C70.9114 51.374 71.1406 51.7256 71.4791 51.96C71.8229 52.1943 72.2708 52.3115 72.8229 52.3115C73.4426 52.3115 73.9374 52.1787 74.3072 51.9131C74.6822 51.6423 74.8697 51.3219 74.8697 50.9521C74.8697 50.3376 74.4374 49.9261 73.5729 49.7178L72.1197 49.374C71.3176 49.1813 70.7291 48.887 70.3541 48.4912C69.9791 48.0954 69.7916 47.598 69.7916 46.999C69.7916 46.5042 69.9296 46.0667 70.2057 45.6865C70.4869 45.3063 70.8697 45.0094 71.3541 44.7959C71.8385 44.5771 72.3854 44.4678 72.9947 44.4678C73.8645 44.4678 74.5442 44.6605 75.0338 45.0459C75.5286 45.4261 75.8801 45.9261 76.0885 46.5459ZM81.0869 44.5771V45.7178H76.5712V44.5771H81.0869ZM77.8837 42.499H79.2119V50.8115C79.2119 51.2646 79.3056 51.598 79.4931 51.8115C79.6806 52.0199 79.9775 52.124 80.3837 52.124C80.4723 52.124 80.5634 52.1188 80.6572 52.1084C80.7561 52.098 80.8629 52.0824 80.9775 52.0615L81.2587 53.2646C81.1337 53.3115 80.9801 53.348 80.7978 53.374C80.6207 53.4053 80.441 53.4209 80.2587 53.4209C79.5556 53.4209 78.9827 53.2126 78.54 52.7959C78.1025 52.3792 77.8837 51.8376 77.8837 51.1709V42.499ZM89.3336 53.499C88.4951 53.499 87.7685 53.3115 87.1539 52.9365C86.5445 52.5615 86.0758 52.0381 85.7477 51.3662C85.4195 50.6891 85.2555 49.9053 85.2555 49.0146C85.2555 48.1188 85.4169 47.3298 85.7399 46.6475C86.0628 45.9652 86.5159 45.4313 87.0992 45.0459C87.6878 44.6605 88.3753 44.4678 89.1617 44.4678C89.6149 44.4678 90.0654 44.5433 90.5133 44.6943C90.9612 44.8454 91.3675 45.0902 91.732 45.4287C92.1018 45.7673 92.3961 46.2152 92.6149 46.7725C92.8336 47.3298 92.943 48.0146 92.943 48.8271V49.4053H86.2086V48.249H92.2164L91.5992 48.6865C91.5992 48.1032 91.5081 47.585 91.3258 47.1318C91.1435 46.6787 90.8701 46.3219 90.5055 46.0615C90.1461 45.8011 89.6982 45.6709 89.1617 45.6709C88.6253 45.6709 88.1643 45.8037 87.7789 46.0693C87.3987 46.3298 87.107 46.6709 86.9039 47.0928C86.7008 47.5146 86.5992 47.9678 86.5992 48.4521V49.2178C86.5992 49.8792 86.7138 50.4391 86.943 50.8975C87.1722 51.3558 87.4925 51.7048 87.9039 51.9443C88.3154 52.1787 88.7919 52.2959 89.3336 52.2959C89.6826 52.2959 90.0003 52.2464 90.2867 52.1475C90.5732 52.0433 90.8206 51.8896 91.0289 51.6865C91.2373 51.4782 91.3961 51.223 91.5055 50.9209L92.8024 51.2959C92.6669 51.7334 92.4378 52.1188 92.1149 52.4521C91.7972 52.7803 91.4013 53.0381 90.9274 53.2256C90.4534 53.4079 89.9222 53.499 89.3336 53.499ZM100.801 44.5771L97.582 53.3115H96.207L92.9882 44.5771H94.4414L96.8476 51.5459H96.9414L99.3476 44.5771H100.801ZM104.955 53.499C104.117 53.499 103.39 53.3115 102.776 52.9365C102.166 52.5615 101.698 52.0381 101.369 51.3662C101.041 50.6891 100.877 49.9053 100.877 49.0146C100.877 48.1188 101.039 47.3298 101.362 46.6475C101.685 45.9652 102.138 45.4313 102.721 45.0459C103.31 44.6605 103.997 44.4678 104.783 44.4678C105.237 44.4678 105.687 44.5433 106.135 44.6943C106.583 44.8454 106.989 45.0902 107.354 45.4287C107.724 45.7673 108.018 46.2152 108.237 46.7725C108.455 47.3298 108.565 48.0146 108.565 48.8271V49.4053H101.83V48.249H107.838L107.221 48.6865C107.221 48.1032 107.13 47.585 106.948 47.1318C106.765 46.6787 106.492 46.3219 106.127 46.0615C105.768 45.8011 105.32 45.6709 104.783 45.6709C104.247 45.6709 103.786 45.8037 103.401 46.0693C103.02 46.3298 102.729 46.6709 102.526 47.0928C102.323 47.5146 102.221 47.9678 102.221 48.4521V49.2178C102.221 49.8792 102.336 50.4391 102.565 50.8975C102.794 51.3558 103.114 51.7048 103.526 51.9443C103.937 52.1787 104.414 52.2959 104.955 52.2959C105.304 52.2959 105.622 52.2464 105.908 52.1475C106.195 52.0433 106.442 51.8896 106.651 51.6865C106.859 51.4782 107.018 51.223 107.127 50.9209L108.424 51.2959C108.289 51.7334 108.06 52.1188 107.737 52.4521C107.419 52.7803 107.023 53.0381 106.549 53.2256C106.075 53.4079 105.544 53.499 104.955 53.499ZM109.61 53.3115V44.5771H110.891V45.9053H110.985C111.146 45.473 111.436 45.124 111.852 44.8584C112.274 44.5876 112.745 44.4521 113.266 44.4521C113.365 44.4521 113.488 44.4548 113.633 44.46C113.779 44.46 113.891 44.4626 113.969 44.4678V45.8271C113.922 45.8167 113.818 45.8011 113.657 45.7803C113.495 45.7594 113.324 45.749 113.141 45.749C112.719 45.749 112.342 45.8376 112.008 46.0146C111.675 46.1917 111.412 46.4339 111.219 46.7412C111.032 47.0485 110.938 47.4001 110.938 47.7959V53.3115H109.61ZM118.294 53.3115V41.6709H125.325V42.9209H119.7V46.8115H124.95V48.0615H119.7V52.0615H125.404V53.3115H118.294ZM130.496 44.5771V45.7178H125.98V44.5771H130.496ZM127.293 42.499H128.621V50.8115C128.621 51.2646 128.714 51.598 128.902 51.8115C129.089 52.0199 129.386 52.124 129.793 52.124C129.881 52.124 129.972 52.1188 130.066 52.1084C130.165 52.098 130.272 52.0824 130.386 52.0615L130.668 53.2646C130.543 53.3115 130.389 53.348 130.207 53.374C130.03 53.4053 129.85 53.4209 129.668 53.4209C128.964 53.4209 128.392 53.2126 127.949 52.7959C127.511 52.3792 127.293 51.8376 127.293 51.1709V42.499ZM133.072 48.0615V53.3115H131.744V41.6709H133.072V45.9521H133.197C133.4 45.499 133.705 45.1396 134.111 44.874C134.523 44.6032 135.072 44.4678 135.76 44.4678C136.353 44.4678 136.874 44.5876 137.322 44.8271C137.77 45.0615 138.119 45.4235 138.369 45.9131C138.619 46.3975 138.744 47.0146 138.744 47.7646V53.3115H137.4V47.8584C137.4 47.1605 137.221 46.6214 136.861 46.2412C136.502 45.861 136.005 45.6709 135.369 45.6709C134.926 45.6709 134.533 45.7646 134.189 45.9521C133.846 46.1396 133.572 46.4105 133.369 46.7646C133.171 47.1188 133.072 47.5511 133.072 48.0615ZM143.899 53.499C143.06 53.499 142.334 53.3115 141.719 52.9365C141.11 52.5615 140.641 52.0381 140.313 51.3662C139.985 50.6891 139.821 49.9053 139.821 49.0146C139.821 48.1188 139.982 47.3298 140.305 46.6475C140.628 45.9652 141.081 45.4313 141.664 45.0459C142.253 44.6605 142.94 44.4678 143.727 44.4678C144.18 44.4678 144.631 44.5433 145.078 44.6943C145.526 44.8454 145.933 45.0902 146.297 45.4287C146.667 45.7673 146.961 46.2152 147.18 46.7725C147.399 47.3298 147.508 48.0146 147.508 48.8271V49.4053H140.774V48.249H146.782L146.164 48.6865C146.164 48.1032 146.073 47.585 145.891 47.1318C145.709 46.6787 145.435 46.3219 145.071 46.0615C144.711 45.8011 144.263 45.6709 143.727 45.6709C143.19 45.6709 142.729 45.8037 142.344 46.0693C141.964 46.3298 141.672 46.6709 141.469 47.0928C141.266 47.5146 141.164 47.9678 141.164 48.4521V49.2178C141.164 49.8792 141.279 50.4391 141.508 50.8975C141.737 51.3558 142.058 51.7048 142.469 51.9443C142.881 52.1787 143.357 52.2959 143.899 52.2959C144.248 52.2959 144.565 52.2464 144.852 52.1475C145.138 52.0433 145.386 51.8896 145.594 51.6865C145.802 51.4782 145.961 51.223 146.071 50.9209L147.368 51.2959C147.232 51.7334 147.003 52.1188 146.68 52.4521C146.362 52.7803 145.966 53.0381 145.493 53.2256C145.019 53.4079 144.487 53.499 143.899 53.499ZM148.553 53.3115V44.5771H149.835V45.9053H149.928C150.09 45.473 150.379 45.124 150.796 44.8584C151.217 44.5876 151.689 44.4521 152.21 44.4521C152.309 44.4521 152.431 44.4548 152.577 44.46C152.723 44.46 152.835 44.4626 152.913 44.4678V45.8271C152.866 45.8167 152.762 45.8011 152.6 45.7803C152.439 45.7594 152.267 45.749 152.085 45.749C151.663 45.749 151.285 45.8376 150.952 46.0146C150.618 46.1917 150.355 46.4339 150.163 46.7412C149.975 47.0485 149.882 47.4001 149.882 47.7959V53.3115H148.553ZM156.927 53.499C156.088 53.499 155.362 53.3115 154.747 52.9365C154.138 52.5615 153.669 52.0381 153.341 51.3662C153.013 50.6891 152.849 49.9053 152.849 49.0146C152.849 48.1188 153.01 47.3298 153.333 46.6475C153.656 45.9652 154.109 45.4313 154.692 45.0459C155.281 44.6605 155.968 44.4678 156.755 44.4678C157.208 44.4678 157.659 44.5433 158.106 44.6943C158.554 44.8454 158.961 45.0902 159.325 45.4287C159.695 45.7673 159.989 46.2152 160.208 46.7725C160.427 47.3298 160.536 48.0146 160.536 48.8271V49.4053H153.802V48.249H159.81L159.192 48.6865C159.192 48.1032 159.101 47.585 158.919 47.1318C158.737 46.6787 158.463 46.3219 158.099 46.0615C157.739 45.8011 157.291 45.6709 156.755 45.6709C156.218 45.6709 155.757 45.8037 155.372 46.0693C154.992 46.3298 154.7 46.6709 154.497 47.0928C154.294 47.5146 154.192 47.9678 154.192 48.4521V49.2178C154.192 49.8792 154.307 50.4391 154.536 50.8975C154.765 51.3558 155.086 51.7048 155.497 51.9443C155.909 52.1787 156.385 52.2959 156.927 52.2959C157.276 52.2959 157.593 52.2464 157.88 52.1475C158.166 52.0433 158.414 51.8896 158.622 51.6865C158.83 51.4782 158.989 51.223 159.099 50.9209L160.396 51.2959C160.26 51.7334 160.031 52.1188 159.708 52.4521C159.39 52.7803 158.994 53.0381 158.521 53.2256C158.047 53.4079 157.515 53.499 156.927 53.499ZM167.081 49.749V44.5771H168.41V53.3115H167.081V51.8271H166.988C166.779 52.2699 166.459 52.6475 166.027 52.96C165.6 53.2725 165.055 53.4261 164.394 53.4209C163.847 53.4209 163.363 53.3037 162.941 53.0693C162.519 52.8298 162.186 52.4652 161.941 51.9756C161.701 51.486 161.581 50.8688 161.581 50.124V44.5771H162.91V50.0459C162.91 50.6761 163.089 51.1813 163.449 51.5615C163.813 51.9417 164.274 52.1292 164.831 52.124C165.165 52.124 165.503 52.0407 165.847 51.874C166.196 51.7021 166.488 51.4417 166.722 51.0928C166.962 50.7386 167.081 50.2907 167.081 49.749ZM169.908 53.3115V44.5771H171.189V45.9521H171.314C171.496 45.4834 171.791 45.1188 172.197 44.8584C172.603 44.598 173.09 44.4678 173.658 44.4678C174.231 44.4678 174.707 44.598 175.088 44.8584C175.473 45.1188 175.772 45.4834 175.986 45.9521H176.08C176.309 45.499 176.645 45.1396 177.088 44.874C177.535 44.6032 178.069 44.4678 178.689 44.4678C179.47 44.4678 180.111 44.7126 180.611 45.2021C181.111 45.6865 181.361 46.4417 181.361 47.4678V53.3115H180.017V47.4678C180.017 46.8219 179.84 46.361 179.486 46.085C179.132 45.8089 178.715 45.6709 178.236 45.6709C177.627 45.6709 177.153 45.8584 176.814 46.2334C176.481 46.6032 176.314 47.0667 176.314 47.624V53.3115H174.939V47.3271C174.939 46.8324 174.78 46.4339 174.463 46.1318C174.145 45.8245 173.731 45.6709 173.22 45.6709C172.871 45.6709 172.546 45.7646 172.244 45.9521C171.942 46.1396 171.697 46.3975 171.509 46.7256C171.327 47.0537 171.236 47.4313 171.236 47.8584V53.3115H169.908ZM187.717 48.0615V53.3115H186.389V41.6709H187.717V45.9521H187.842C188.045 45.499 188.35 45.1396 188.756 44.874C189.168 44.6032 189.717 44.4678 190.405 44.4678C190.998 44.4678 191.519 44.5876 191.967 44.8271C192.415 45.0615 192.764 45.4235 193.014 45.9131C193.264 46.3975 193.389 47.0146 193.389 47.7646V53.3115H192.045V47.8584C192.045 47.1605 191.866 46.6214 191.506 46.2412C191.147 45.861 190.649 45.6709 190.014 45.6709C189.571 45.6709 189.178 45.7646 188.834 45.9521C188.491 46.1396 188.217 46.4105 188.014 46.7646C187.816 47.1188 187.717 47.5511 187.717 48.0615ZM197.45 53.5146C196.898 53.5146 196.395 53.4105 195.942 53.2021C195.489 52.9886 195.13 52.6813 194.864 52.2803C194.598 51.8792 194.465 51.3949 194.465 50.8271C194.465 50.3271 194.564 49.9235 194.762 49.6162C194.96 49.3037 195.223 49.0589 195.551 48.8818C195.885 48.6995 196.249 48.5641 196.645 48.4756C197.046 48.387 197.45 48.3167 197.856 48.2646C198.387 48.1969 198.817 48.1449 199.145 48.1084C199.479 48.0719 199.721 48.0094 199.872 47.9209C200.028 47.8324 200.106 47.6813 200.106 47.4678V47.4209C200.106 46.8636 199.952 46.4313 199.645 46.124C199.343 45.8115 198.882 45.6553 198.262 45.6553C197.627 45.6553 197.127 45.7959 196.762 46.0771C196.398 46.3532 196.143 46.6501 195.997 46.9678L194.715 46.5146C194.945 45.9834 195.249 45.5693 195.63 45.2725C196.015 44.9756 196.432 44.7673 196.88 44.6475C197.333 44.5277 197.778 44.4678 198.215 44.4678C198.497 44.4678 198.82 44.5016 199.184 44.5693C199.549 44.6318 199.903 44.7673 200.247 44.9756C200.596 45.1787 200.882 45.4886 201.106 45.9053C201.335 46.3167 201.45 46.8688 201.45 47.5615V53.3115H200.106V52.124H200.044C199.955 52.3115 199.804 52.5146 199.59 52.7334C199.377 52.9469 199.093 53.1318 198.739 53.2881C198.39 53.4391 197.96 53.5146 197.45 53.5146ZM197.653 52.3115C198.184 52.3115 198.632 52.2074 198.997 51.999C199.361 51.7907 199.637 51.5225 199.825 51.1943C200.012 50.861 200.106 50.5146 200.106 50.1553V48.9209C200.049 48.9886 199.924 49.0511 199.731 49.1084C199.544 49.1605 199.325 49.2074 199.075 49.249C198.83 49.2907 198.59 49.3271 198.356 49.3584C198.122 49.3844 197.934 49.4053 197.794 49.4209C197.445 49.4678 197.119 49.5433 196.817 49.6475C196.515 49.7464 196.27 49.8949 196.083 50.0928C195.9 50.2907 195.809 50.5615 195.809 50.9053C195.809 51.3688 195.981 51.7204 196.325 51.96C196.674 52.1943 197.117 52.3115 197.653 52.3115ZM206.48 53.499C205.667 53.499 204.964 53.3063 204.37 52.9209C203.782 52.5303 203.326 51.9964 203.003 51.3193C202.685 50.6423 202.526 49.8688 202.526 48.999C202.526 48.1084 202.69 47.3245 203.019 46.6475C203.347 45.9652 203.805 45.4313 204.394 45.0459C204.987 44.6605 205.677 44.4678 206.464 44.4678C207.078 44.4678 207.631 44.5824 208.12 44.8115C208.615 45.0355 209.019 45.3532 209.331 45.7646C209.649 46.1761 209.844 46.6553 209.917 47.2021H208.573C208.506 46.9365 208.383 46.6865 208.206 46.4521C208.029 46.2178 207.795 46.0303 207.503 45.8896C207.216 45.7438 206.875 45.6709 206.48 45.6709C205.959 45.6709 205.503 45.8063 205.112 46.0771C204.722 46.348 204.417 46.7308 204.198 47.2256C203.98 47.7152 203.87 48.2907 203.87 48.9521C203.87 49.624 203.977 50.2126 204.19 50.7178C204.404 51.2178 204.706 51.6058 205.097 51.8818C205.493 52.1579 205.953 52.2959 206.48 52.2959C207.006 52.2959 207.456 52.1605 207.831 51.8896C208.206 51.6136 208.453 51.2386 208.573 50.7646H209.917C209.844 51.2803 209.657 51.7438 209.355 52.1553C209.058 52.5667 208.664 52.8949 208.175 53.1396C207.69 53.3792 207.125 53.499 206.48 53.499ZM212.212 50.124L212.181 48.4678H212.462L216.275 44.5771H217.931L213.869 48.7021H213.744L212.212 50.124ZM210.962 53.3115V41.6709H212.29V53.3115H210.962ZM216.494 53.3115L213.087 48.999L214.04 48.0615L218.212 53.3115H216.494ZM221.258 53.5146C220.705 53.5146 220.203 53.4105 219.75 53.2021C219.297 52.9886 218.937 52.6813 218.672 52.2803C218.406 51.8792 218.273 51.3949 218.273 50.8271C218.273 50.3271 218.372 49.9235 218.57 49.6162C218.768 49.3037 219.031 49.0589 219.359 48.8818C219.692 48.6995 220.057 48.5641 220.453 48.4756C220.854 48.387 221.258 48.3167 221.664 48.2646C222.195 48.1969 222.625 48.1449 222.953 48.1084C223.286 48.0719 223.528 48.0094 223.679 47.9209C223.836 47.8324 223.914 47.6813 223.914 47.4678V47.4209C223.914 46.8636 223.76 46.4313 223.453 46.124C223.151 45.8115 222.69 45.6553 222.07 45.6553C221.435 45.6553 220.935 45.7959 220.57 46.0771C220.205 46.3532 219.95 46.6501 219.804 46.9678L218.523 46.5146C218.752 45.9834 219.057 45.5693 219.437 45.2725C219.823 44.9756 220.239 44.7673 220.687 44.6475C221.14 44.5277 221.586 44.4678 222.023 44.4678C222.304 44.4678 222.627 44.5016 222.992 44.5693C223.356 44.6318 223.711 44.7673 224.054 44.9756C224.403 45.1787 224.69 45.4886 224.914 45.9053C225.143 46.3167 225.258 46.8688 225.258 47.5615V53.3115H223.914V52.124H223.851C223.763 52.3115 223.612 52.5146 223.398 52.7334C223.185 52.9469 222.901 53.1318 222.547 53.2881C222.198 53.4391 221.768 53.5146 221.258 53.5146ZM221.461 52.3115C221.992 52.3115 222.44 52.2074 222.804 51.999C223.169 51.7907 223.445 51.5225 223.633 51.1943C223.82 50.861 223.914 50.5146 223.914 50.1553V48.9209C223.856 48.9886 223.731 49.0511 223.539 49.1084C223.351 49.1605 223.133 49.2074 222.883 49.249C222.638 49.2907 222.398 49.3271 222.164 49.3584C221.929 49.3844 221.742 49.4053 221.601 49.4209C221.252 49.4678 220.927 49.5433 220.625 49.6475C220.323 49.7464 220.078 49.8949 219.89 50.0928C219.708 50.2907 219.617 50.5615 219.617 50.9053C219.617 51.3688 219.789 51.7204 220.133 51.96C220.481 52.1943 220.924 52.3115 221.461 52.3115ZM230.537 44.5771V45.7178H226.022V44.5771H230.537ZM227.334 42.499H228.662V50.8115C228.662 51.2646 228.756 51.598 228.943 51.8115C229.131 52.0199 229.428 52.124 229.834 52.124C229.923 52.124 230.014 52.1188 230.107 52.1084C230.206 52.098 230.313 52.0824 230.428 52.0615L230.709 53.2646C230.584 53.3115 230.43 53.348 230.248 53.374C230.071 53.4053 229.891 53.4209 229.709 53.4209C229.006 53.4209 228.433 53.2126 227.99 52.7959C227.553 52.3792 227.334 51.8376 227.334 51.1709V42.499ZM233.114 48.0615V53.3115H231.786V41.6709H233.114V45.9521H233.239C233.442 45.499 233.746 45.1396 234.153 44.874C234.564 44.6032 235.114 44.4678 235.801 44.4678C236.395 44.4678 236.916 44.5876 237.364 44.8271C237.812 45.0615 238.161 45.4235 238.411 45.9131C238.661 46.3975 238.786 47.0146 238.786 47.7646V53.3115H237.442V47.8584C237.442 47.1605 237.262 46.6214 236.903 46.2412C236.543 45.861 236.046 45.6709 235.411 45.6709C234.968 45.6709 234.575 45.7646 234.231 45.9521C233.887 46.1396 233.614 46.4105 233.411 46.7646C233.213 47.1188 233.114 47.5511 233.114 48.0615ZM243.815 53.499C243.029 53.499 242.339 53.3115 241.745 52.9365C241.151 52.5615 240.688 52.0355 240.354 51.3584C240.026 50.6813 239.862 49.8949 239.862 48.999C239.862 48.0876 240.026 47.2933 240.354 46.6162C240.688 45.9339 241.151 45.4053 241.745 45.0303C242.339 44.6553 243.029 44.4678 243.815 44.4678C244.607 44.4678 245.3 44.6553 245.893 45.0303C246.487 45.4053 246.951 45.9339 247.284 46.6162C247.617 47.2933 247.784 48.0876 247.784 48.999C247.784 49.8949 247.617 50.6813 247.284 51.3584C246.951 52.0355 246.487 52.5615 245.893 52.9365C245.3 53.3115 244.607 53.499 243.815 53.499ZM243.815 52.2959C244.419 52.2959 244.914 52.1423 245.3 51.835C245.685 51.5277 245.971 51.124 246.159 50.624C246.346 50.1188 246.44 49.5771 246.44 48.999C246.44 48.4105 246.346 47.8636 246.159 47.3584C245.971 46.8532 245.685 46.4469 245.3 46.1396C244.914 45.8271 244.419 45.6709 243.815 45.6709C243.221 45.6709 242.732 45.8271 242.346 46.1396C241.961 46.4469 241.675 46.8532 241.487 47.3584C241.3 47.8636 241.206 48.4105 241.206 48.999C241.206 49.5771 241.3 50.1188 241.487 50.624C241.675 51.124 241.961 51.5277 242.346 51.835C242.732 52.1423 243.221 52.2959 243.815 52.2959ZM250.189 48.0615V53.3115H248.86V44.5771H250.142V45.9521H250.267C250.47 45.5042 250.78 45.1449 251.196 44.874C251.613 44.6032 252.152 44.4678 252.814 44.4678C253.402 44.4678 253.918 44.5876 254.36 44.8271C254.803 45.0667 255.147 45.4313 255.392 45.9209C255.642 46.4053 255.767 47.0199 255.767 47.7646V53.3115H254.439V47.8584C254.439 47.1761 254.259 46.6423 253.899 46.2568C253.54 45.8662 253.051 45.6709 252.431 45.6709C252.004 45.6709 251.621 45.7646 251.282 45.9521C250.944 46.1396 250.676 46.4105 250.478 46.7646C250.285 47.1188 250.189 47.5511 250.189 48.0615ZM260.795 53.3115V44.5771H262.123V53.3115H260.795ZM261.467 43.124C261.206 43.124 260.982 43.0355 260.795 42.8584C260.607 42.6813 260.513 42.4678 260.513 42.2178C260.513 41.9678 260.607 41.7542 260.795 41.5771C260.982 41.4001 261.206 41.3115 261.467 41.3115C261.727 41.3115 261.951 41.4001 262.138 41.5771C262.326 41.7542 262.42 41.9678 262.42 42.2178C262.42 42.4678 262.326 42.6813 262.138 42.8584C261.951 43.0355 261.727 43.124 261.467 43.124ZM264.949 48.0615V53.3115H263.621V44.5771H264.902V45.9521H265.027C265.231 45.5042 265.54 45.1449 265.957 44.874C266.374 44.6032 266.913 44.4678 267.574 44.4678C268.163 44.4678 268.678 44.5876 269.121 44.8271C269.564 45.0667 269.908 45.4313 270.152 45.9209C270.402 46.4053 270.527 47.0199 270.527 47.7646V53.3115H269.199V47.8584C269.199 47.1761 269.02 46.6423 268.66 46.2568C268.301 45.8662 267.811 45.6709 267.191 45.6709C266.764 45.6709 266.382 45.7646 266.043 45.9521C265.704 46.1396 265.436 46.4105 265.238 46.7646C265.046 47.1188 264.949 47.5511 264.949 48.0615ZM275.727 41.6709H277.415L281.368 51.3271H281.509L285.462 41.6709H287.204V53.3115H285.821V44.4678H285.712L282.048 53.3115H280.782L277.165 44.4678H277.055V53.3115H275.727V41.6709ZM294.382 49.749V44.5771H295.71V53.3115H294.382V51.8271H294.288C294.08 52.2699 293.76 52.6475 293.327 52.96C292.9 53.2725 292.356 53.4261 291.694 53.4209C291.148 53.4209 290.663 53.3037 290.241 53.0693C289.819 52.8298 289.486 52.4652 289.241 51.9756C289.002 51.486 288.882 50.8688 288.882 50.124V44.5771H290.21V50.0459C290.21 50.6761 290.39 51.1813 290.749 51.5615C291.114 51.9417 291.575 52.1292 292.132 52.124C292.465 52.124 292.804 52.0407 293.148 51.874C293.496 51.7021 293.788 51.4417 294.023 51.0928C294.262 50.7386 294.382 50.2907 294.382 49.749ZM297.208 53.3115V44.5771H298.49V45.9521H298.615C298.797 45.4834 299.091 45.1188 299.497 44.8584C299.904 44.598 300.391 44.4678 300.958 44.4678C301.531 44.4678 302.008 44.598 302.388 44.8584C302.774 45.1188 303.073 45.4834 303.287 45.9521H303.38C303.609 45.499 303.945 45.1396 304.388 44.874C304.836 44.6032 305.37 44.4678 305.99 44.4678C306.771 44.4678 307.412 44.7126 307.912 45.2021C308.412 45.6865 308.662 46.4417 308.662 47.4678V53.3115H307.318V47.4678C307.318 46.8219 307.141 46.361 306.787 46.085C306.432 45.8089 306.016 45.6709 305.537 45.6709C304.927 45.6709 304.453 45.8584 304.115 46.2334C303.781 46.6032 303.615 47.0667 303.615 47.624V53.3115H302.24V47.3271C302.24 46.8324 302.081 46.4339 301.763 46.1318C301.445 45.8245 301.031 45.6709 300.521 45.6709C300.172 45.6709 299.846 45.7646 299.544 45.9521C299.242 46.1396 298.997 46.3975 298.81 46.7256C298.628 47.0537 298.537 47.4313 298.537 47.8584V53.3115H297.208ZM314.144 53.499C313.587 53.499 313.139 53.4053 312.801 53.2178C312.462 53.0251 312.202 52.8089 312.019 52.5693C311.837 52.3245 311.696 52.124 311.597 51.9678H311.441V53.3115H310.16V41.6709H311.488V45.9678H311.597C311.696 45.8167 311.834 45.624 312.011 45.3896C312.189 45.1501 312.444 44.9365 312.777 44.749C313.11 44.5615 313.561 44.4678 314.129 44.4678C314.863 44.4678 315.509 44.6527 316.066 45.0225C316.623 45.387 317.058 45.9079 317.371 46.585C317.689 47.2568 317.847 48.0511 317.847 48.9678C317.847 49.8896 317.691 50.6917 317.379 51.374C317.066 52.0511 316.631 52.5745 316.074 52.9443C315.517 53.3141 314.873 53.499 314.144 53.499ZM313.972 52.2959C314.53 52.2959 314.996 52.1475 315.371 51.8506C315.746 51.5485 316.027 51.1449 316.215 50.6396C316.407 50.1344 316.504 49.5719 316.504 48.9521C316.504 48.3376 316.41 47.7829 316.222 47.2881C316.035 46.7933 315.754 46.4001 315.379 46.1084C315.009 45.8167 314.54 45.6709 313.972 45.6709C313.426 45.6709 312.967 45.8089 312.597 46.085C312.228 46.3558 311.946 46.7386 311.754 47.2334C311.566 47.723 311.472 48.2959 311.472 48.9521C311.472 49.6084 311.569 50.1891 311.761 50.6943C311.954 51.1943 312.235 51.5876 312.605 51.874C312.98 52.1553 313.436 52.2959 313.972 52.2959ZM321.486 53.5146C320.934 53.5146 320.432 53.4105 319.979 53.2021C319.525 52.9886 319.166 52.6813 318.9 52.2803C318.635 51.8792 318.502 51.3949 318.502 50.8271C318.502 50.3271 318.601 49.9235 318.799 49.6162C318.997 49.3037 319.26 49.0589 319.588 48.8818C319.921 48.6995 320.286 48.5641 320.682 48.4756C321.083 48.387 321.486 48.3167 321.893 48.2646C322.424 48.1969 322.854 48.1449 323.182 48.1084C323.515 48.0719 323.757 48.0094 323.908 47.9209C324.065 47.8324 324.143 47.6813 324.143 47.4678V47.4209C324.143 46.8636 323.989 46.4313 323.682 46.124C323.38 45.8115 322.919 45.6553 322.299 45.6553C321.663 45.6553 321.163 45.7959 320.799 46.0771C320.434 46.3532 320.179 46.6501 320.033 46.9678L318.752 46.5146C318.981 45.9834 319.286 45.5693 319.666 45.2725C320.051 44.9756 320.468 44.7673 320.916 44.6475C321.369 44.5277 321.815 44.4678 322.252 44.4678C322.533 44.4678 322.856 44.5016 323.221 44.5693C323.585 44.6318 323.94 44.7673 324.283 44.9756C324.632 45.1787 324.919 45.4886 325.143 45.9053C325.372 46.3167 325.486 46.8688 325.486 47.5615V53.3115H324.143V52.124H324.08C323.992 52.3115 323.841 52.5146 323.627 52.7334C323.413 52.9469 323.13 53.1318 322.775 53.2881C322.426 53.4391 321.997 53.5146 321.486 53.5146ZM321.69 52.3115C322.221 52.3115 322.669 52.2074 323.033 51.999C323.398 51.7907 323.674 51.5225 323.861 51.1943C324.049 50.861 324.143 50.5146 324.143 50.1553V48.9209C324.085 48.9886 323.96 49.0511 323.768 49.1084C323.58 49.1605 323.361 49.2074 323.111 49.249C322.867 49.2907 322.627 49.3271 322.393 49.3584C322.158 49.3844 321.971 49.4053 321.83 49.4209C321.481 49.4678 321.156 49.5433 320.854 49.6475C320.551 49.7464 320.307 49.8949 320.119 50.0928C319.937 50.2907 319.846 50.5615 319.846 50.9053C319.846 51.3688 320.018 51.7204 320.361 51.96C320.71 52.1943 321.153 52.3115 321.69 52.3115ZM326.985 53.3115V44.5771H328.313V53.3115H326.985ZM327.657 43.124C327.396 43.124 327.172 43.0355 326.985 42.8584C326.797 42.6813 326.704 42.4678 326.704 42.2178C326.704 41.9678 326.797 41.7542 326.985 41.5771C327.172 41.4001 327.396 41.3115 327.657 41.3115C327.917 41.3115 328.141 41.4001 328.329 41.5771C328.516 41.7542 328.61 41.9678 328.61 42.2178C328.61 42.4678 328.516 42.6813 328.329 42.8584C328.141 43.0355 327.917 43.124 327.657 43.124Z" fill="#F3F3F3"/>
</svg>
