<svg width="118" height="141" viewBox="0 0 118 141" fill="none" xmlns="http://www.w3.org/2000/svg">
<path d="M118 50.287V140.903H80.0929V114.218C80.0929 102.493 70.5931 92.9874 58.9208 92.9874C47.2486 92.9874 37.7488 102.493 37.7488 114.218V140.903H0V50.287H22.0926V63.38C22.0926 68.9834 26.6399 73.5142 32.2183 73.5142C37.7967 73.5142 42.3441 68.9834 42.3441 63.38V50.287H75.4829V63.3245C75.4829 68.9279 80.0303 73.4588 85.6086 73.4588C91.187 73.4588 95.7344 68.9279 95.7344 63.3245V50.287H118Z" fill="#182232"/>
<path d="M53.772 2.5231V58.7511H63.623V33.5419C63.623 33.5419 66.1402 28.3641 75.3168 30.6482C87.4602 33.6708 102.421 31.6225 112.025 14.2398C82.9216 23.8255 82.1421 -9.11447 53.772 2.5231Z" fill="#182232"/>
</svg>
