<svg width="141" height="164" viewBox="0 0 141 164" fill="none" xmlns="http://www.w3.org/2000/svg">
<g filter="url(#filter0_d_1242_595)">
<path d="M54.1386 107.133L70.5236 79.9716L86.9085 107.133L70.5236 116.825L54.1386 107.133Z" fill="#F79D1E"/>
<path d="M87.4898 52.5001C87.4898 52.3746 87.4898 52.253 87.4898 52.1079C87.422 47.6509 85.6033 43.3994 82.4264 40.2715C79.2495 37.1436 74.9694 35.3904 70.5104 35.3904C66.0514 35.3904 61.7713 37.1436 58.5944 40.2715C55.4175 43.3994 53.5988 47.6509 53.531 52.1079C53.531 52.2334 53.531 52.355 53.531 52.5001C47.6609 55.2083 42.5245 59.2818 38.5513 64.3803C34.5781 69.4787 31.8836 75.4538 30.6929 81.8062C29.5022 88.1585 29.8499 94.7035 31.7071 100.894C33.5642 107.085 36.8768 112.741 41.3679 117.39L70.5006 69.103L99.6294 117.39C104.121 112.741 107.435 107.085 109.292 100.894C111.15 94.7037 111.498 88.1583 110.307 81.8056C109.116 75.453 106.422 69.4776 102.448 64.3792C98.4741 59.2808 93.337 55.2076 87.4662 52.5001H87.4898ZM41.4503 94.2956C40.7013 94.2956 39.9691 94.0735 39.3463 93.6574C38.7236 93.2414 38.2383 92.65 37.9518 91.9582C37.6654 91.2663 37.5906 90.5051 37.7371 89.7708C37.8835 89.0364 38.2445 88.362 38.7744 87.8329C39.3043 87.3037 39.9793 86.9435 40.714 86.7979C41.4487 86.6523 42.2102 86.7278 42.9019 87.0149C43.5937 87.302 44.1848 87.7877 44.6004 88.4107C45.0159 89.0336 45.2373 89.7658 45.2366 90.5145C45.2355 91.5177 44.8361 92.4794 44.1262 93.1884C43.4162 93.8973 42.4538 94.2956 41.4503 94.2956ZM50.7414 79.1478C49.9933 79.1478 49.262 78.9261 48.64 78.5106C48.018 78.0951 47.5332 77.5046 47.2469 76.8137C46.9606 76.1228 46.8858 75.3626 47.0317 74.6292C47.1776 73.8957 47.5379 73.222 48.0668 72.6932C48.5958 72.1644 49.2698 71.8043 50.0035 71.6584C50.7372 71.5125 51.4977 71.5874 52.1888 71.8736C52.8799 72.1598 53.4706 72.6443 53.8863 73.2661C54.3019 73.8879 54.5237 74.619 54.5237 75.3668C54.5237 75.8633 54.4259 76.355 54.2358 76.8137C54.0457 77.2725 53.7671 77.6893 53.4159 78.0404C53.0647 78.3915 52.6477 78.67 52.1888 78.86C51.7299 79.0501 51.2381 79.1478 50.7414 79.1478ZM90.3108 79.1478C89.5628 79.1478 88.8315 78.9261 88.2095 78.5106C87.5875 78.0951 87.1027 77.5046 86.8164 76.8137C86.5301 76.1228 86.4552 75.3626 86.6012 74.6292C86.7471 73.8957 87.1073 73.222 87.6363 72.6932C88.1653 72.1644 88.8392 71.8043 89.5729 71.6584C90.3066 71.5125 91.0671 71.5874 91.7583 71.8736C92.4494 72.1598 93.0401 72.6443 93.4557 73.2661C93.8714 73.8879 94.0932 74.619 94.0932 75.3668C94.0921 76.3693 93.6933 77.3304 92.9842 78.0392C92.2751 78.7481 91.3137 79.1468 90.3108 79.1478ZM99.598 94.2956C98.8488 94.2963 98.1162 94.075 97.493 93.6594C96.8697 93.2438 96.3838 92.6526 96.0967 91.9608C95.8097 91.2691 95.7344 90.5077 95.8804 89.7732C96.0263 89.0386 96.387 88.3638 96.9168 87.8342C97.4465 87.3047 98.1215 86.9441 98.8564 86.7982C99.5912 86.6523 100.353 86.7275 101.045 87.0145C101.737 87.3015 102.328 87.7872 102.744 88.4102C103.16 89.0333 103.381 89.7656 103.38 90.5145C103.38 91.5173 102.982 92.479 102.273 93.1881C101.563 93.8972 100.601 94.2956 99.598 94.2956Z" fill="#F79D1E"/>
<path d="M54.5093 37.5621C55.2574 37.5621 55.9886 37.3403 56.6106 36.9249C57.2326 36.5094 57.7174 35.9189 58.0037 35.228C58.29 34.5371 58.3649 33.7769 58.2189 33.0434C58.073 32.31 57.7128 31.6363 57.1838 31.1075C56.6548 30.5787 55.9809 30.2185 55.2472 30.0727C54.5135 29.9268 53.753 30.0016 53.0618 30.2878C52.3707 30.574 51.78 31.0586 51.3644 31.6804C50.9488 32.3022 50.7269 33.0333 50.7269 33.7811C50.7269 34.7839 51.1254 35.7456 51.8348 36.4546C52.5441 37.1637 53.5061 37.5621 54.5093 37.5621Z" fill="#F79D1E"/>
<path d="M86.5167 37.5621C87.2648 37.5621 87.9961 37.3403 88.6181 36.9249C89.2401 36.5094 89.7249 35.9189 90.0112 35.228C90.2974 34.5371 90.3723 33.7769 90.2264 33.0434C90.0804 32.31 89.7202 31.6363 89.1912 31.1075C88.6623 30.5787 87.9883 30.2185 87.2546 30.0727C86.5209 29.9268 85.7604 30.0016 85.0693 30.2878C84.3781 30.574 83.7874 31.0586 83.3718 31.6804C82.9562 32.3022 82.7344 33.0333 82.7344 33.7811C82.7344 34.7839 83.1329 35.7456 83.8422 36.4546C84.5515 37.1637 85.5136 37.5621 86.5167 37.5621Z" fill="#F79D1E"/>
<path d="M54.1569 113.041L70.5222 122.874V133.417L54.1569 113.041Z" fill="#F79D1E"/>
<path d="M86.8836 113.041L70.5183 122.874V133.417L86.8836 113.041Z" fill="#F79D1E"/>
</g>
<defs>
<filter id="filter0_d_1242_595" x="0" y="0" width="141" height="163.417" filterUnits="userSpaceOnUse" color-interpolation-filters="sRGB">
<feFlood flood-opacity="0" result="BackgroundImageFix"/>
<feColorMatrix in="SourceAlpha" type="matrix" values="0 0 0 0 0 0 0 0 0 0 0 0 0 0 0 0 0 0 127 0" result="hardAlpha"/>
<feOffset/>
<feGaussianBlur stdDeviation="15"/>
<feComposite in2="hardAlpha" operator="out"/>
<feColorMatrix type="matrix" values="0 0 0 0 1 0 0 0 0 1 0 0 0 0 1 0 0 0 0.2 0"/>
<feBlend mode="normal" in2="BackgroundImageFix" result="effect1_dropShadow_1242_595"/>
<feBlend mode="normal" in="SourceGraphic" in2="effect1_dropShadow_1242_595" result="shape"/>
</filter>
</defs>
</svg>
