<svg width="1537" height="1537" viewBox="0 0 1537 1537" fill="none" xmlns="http://www.w3.org/2000/svg">
<g clip-path="url(#clip0_332_14)">
<path d="M1527.1 718.7H1485.5C1484.3 718.7 1482.4 718.7 1480 718.7C1475.6 718.7 1468.4 718.5 1459.2 718.2C1443 717.7 1417.7 716.5 1389.1 714C1340 709.7 1271.9 700.8 1225.9 682.4C1155 654.1 1114.6 615.3 1071.9 574.3L1069.3 571.8C1023 527.3 970.5 476.9 879.5 434.1C833.8 412.6 781.5 401.7 723.9 401.7C666.3 401.7 653.2 405.6 616 413.2C585.4 419.5 554.8 428.2 525 439C515.6 442.4 506.6 445.9 498.3 449.4C473.2 460 448.4 472 424.3 483.6C413.5 488.8 402.4 494.2 391.5 499.4L367.3 510.8L393.1 517.9C393.8 518.1 462.8 537 496.6 547.5C497.7 547.8 499.6 548.4 502.1 549.3C506.7 550.8 514.1 553.5 523 557.1C539 563.6 563 574.5 586.8 589.8C622 612.4 646.1 637.4 658.6 664.1C595.8 674.4 529.1 700.1 459.9 740.8C424.9 761.4 396.2 781.9 378.2 795.5C370 801.7 362.2 807.9 355 813.7C350.4 817.5 282.2 877.6 279.3 880.2L262.5 895L284.8 897.4C285.7 897.4 376.4 907.2 420.7 916.1C447.7 921.5 489 931.2 532.3 946.3C579.7 962.8 619.6 982.3 650.9 1004.2C686.5 1029.1 710.5 1056.7 722.1 1086.4C739.1 1129.9 740.9 1175.1 727.1 1217C720.6 1236.7 710.9 1255.4 698.1 1272.4C685.4 1289.3 670 1304.2 652.3 1316.8C615.2 1343.2 571 1357.1 524.4 1357.1C477.8 1357.1 473.6 1353 448.3 1344.8C421.2 1336 394.3 1322.6 368.4 1304.8C327.7 1274.4 290.5 1239.3 257.7 1200.5C224.7 1161.5 196.2 1118.7 172.9 1073.3C149.2 1027.1 131 978.2 118.7 927.9C106.1 876.1 99.6 822.5 99.6 768.7C99.6 678.4 117.3 590.8 152.2 508.3C169 468.7 189.7 430.4 213.9 394.7C237.8 359.3 265.3 326 295.6 295.7C325.9 265.4 359.2 237.9 394.6 214C430.4 189.8 468.6 169.1 508.2 152.3C590.7 117.4 678.3 99.7 768.6 99.7C858.9 99.7 922 110.8 998.8 132.6C1075.4 154.4 1147.6 185.8 1213.3 226.1C1281 267.5 1338.8 316.5 1385.1 371.6C1434 429.9 1468.7 493.5 1488 560.6L1492.7 559.2L1497.4 557.8L1502.1 556.4L1506.8 555C1484 475.8 1448.6 401.1 1401.7 333C1355.5 265.9 1299.2 206.7 1234.3 157.2C1168.8 107.2 1096.2 68.2 1018.5 41.5C938.4 14 854.2 0 768.5 0C682.8 0 664.3 5.3 613.6 15.6C564.3 25.7 515.7 40.8 469.3 60.4C423.8 79.7 379.8 103.5 338.7 131.3C298 158.8 259.7 190.4 225 225.1C190.2 259.9 158.7 298.1 131.2 338.8C103.4 379.9 79.6 423.8 60.3 469.3C40.7 515.7 25.6 564.2 15.5 613.6C5.3 664.3 0 716.4 0 768.5C0 820.6 5.3 872.7 15.6 923.4C25.7 972.7 40.8 1021.3 60.4 1067.7C79.7 1113.2 103.5 1157.2 131.3 1198.3C158.8 1239 190.4 1277.3 225.1 1312C259.9 1346.8 298.1 1378.3 338.8 1405.8C379.9 1433.6 423.8 1457.4 469.4 1476.7C515.8 1496.3 564.3 1511.4 613.7 1521.5C664.3 1531.9 716.4 1537.1 768.6 1537.1C820.8 1537.1 872.8 1531.8 923.5 1521.5C972.8 1511.4 1021.4 1496.3 1067.8 1476.7C1113.3 1457.4 1157.3 1433.6 1198.3 1405.8C1239 1378.3 1277.3 1346.7 1312 1312C1346.8 1277.2 1378.3 1239 1405.8 1198.3C1433.5 1157.2 1457.4 1113.3 1476.6 1067.7C1496.2 1021.3 1511.3 972.8 1521.4 923.4C1531.8 872.8 1537 820.7 1537 768.5V718.7H1527.1ZM1214.1 1267.4C1154.1 1321 1085.8 1363 1011.1 1392C933.8 1422.1 852.2 1437.3 768.5 1437.3C684.8 1437.3 693.7 1434.2 657 1428C675.6 1419.6 693.4 1409.4 710 1397.6C736.1 1379.1 758.9 1356.9 777.9 1331.5C797.1 1305.8 811.9 1277.7 821.8 1247.8C843 1183.7 840.6 1115.2 815 1049.7C796.1 1001.4 760.1 958.5 708.1 922.2C669.3 895.1 621.3 871.5 565.3 852C544.7 844.8 523.1 838.2 500.8 832.3C504.1 830.3 507.4 828.3 510.7 826.4C563.4 795.4 642.3 758.4 718.8 758.4C795.3 758.4 816.7 765.4 865.5 779.8C907.3 792.1 945.3 808.2 989.4 828.7C996.4 831.9 1003.5 835.3 1010.4 838.5L1011.1 838.8C1046.8 855.5 1083.6 872.8 1122.5 885.9C1166.9 900.8 1207.8 908.1 1247.8 908.1C1287.8 908.1 1325.8 902.9 1362.4 892.8C1385.9 886.3 1408.6 877.7 1430.3 867.3C1407.5 1021.4 1331.2 1162.9 1214.2 1267.4H1214.1ZM645.5 508.9C672.8 503.8 699.2 501.2 724 501.2C766.8 501.2 804.9 508.9 837.2 524.1C913.3 559.9 956.1 601 1001.5 644.6L1003.1 646.1C1048.6 689.8 1100.1 739.3 1189.1 774.8C1219.4 786.9 1257.9 796.7 1303.9 803.9C1285.6 807 1266.9 808.5 1247.8 808.5C1181.9 808.5 1124.2 781.6 1051.2 747.6L1048 746.1C1042.5 743.5 1036.9 740.9 1031.2 738.3C993.8 721 953 703 908 688.7C859.2 673.2 811.6 663.9 762.8 660.4C754.9 628 738.9 597.4 715.1 569.3C696.5 547.4 673.1 527 645.6 508.8L645.5 508.9Z" fill="url(#paint0_linear_332_14)"/>
</g>
<defs>
<linearGradient id="paint0_linear_332_14" x1="-1.87016e-05" y1="206.234" x2="1304.27" y2="1438.31" gradientUnits="userSpaceOnUse">
<stop stop-color="#29CCB9"/>
<stop offset="0.515625" stop-color="#009AFF"/>
<stop offset="1" stop-color="#FF66B7"/>
</linearGradient>
<clipPath id="clip0_332_14">
<rect width="1537" height="1537" fill="white"/>
</clipPath>
</defs>
</svg>
