<svg width="2453" height="1390" viewBox="0 0 2453 1390" fill="none" xmlns="http://www.w3.org/2000/svg">
<path d="M2450.51 1318.88L2357.11 1196.52H116.601L2.81543 1318.88H2450.51Z" fill="#D9D9D9" stroke="black" stroke-width="2.45342"/>
<rect width="2452.99" height="391.231" fill="#E2231A"/>
<rect x="146.412" y="460.836" width="2179.37" height="602.448" fill="#E1E1E1"/>
<rect y="1320.1" width="266.421" height="69.6055" fill="#FFD600"/>
<rect x="266.42" y="1320.1" width="266.421" height="69.6055" fill="#484848"/>
<rect x="532.842" y="1320.1" width="266.421" height="69.6055" fill="#FFD600"/>
<rect x="799.262" y="1320.1" width="266.421" height="69.6055" fill="#484848"/>
<rect x="1065.68" y="1320.1" width="266.421" height="69.6055" fill="#FFD600"/>
<rect x="1332.11" y="1320.1" width="266.421" height="69.6055" fill="#484848"/>
<rect x="1598.53" y="1320.1" width="266.421" height="69.6055" fill="#FFD600"/>
<rect x="1864.95" y="1320.1" width="266.421" height="69.6055" fill="#484848"/>
<rect x="2131.37" y="1320.1" width="266.421" height="69.6055" fill="#FFD600"/>
<rect x="2397.79" y="1320.1" width="55.2044" height="69.6055" fill="#484848"/>
<rect x="123.639" y="462.063" width="21.5485" height="758.407" fill="#868585" stroke="black" stroke-width="2.45342"/>
<rect x="37.2267" y="392.457" width="21.5485" height="912.019" fill="#C5C5C5" stroke="black" stroke-width="2.45342"/>
<rect x="2387.02" y="392.457" width="21.5485" height="912.019" fill="#C5C5C5" stroke="black" stroke-width="2.45342"/>
<rect x="123.639" y="438.061" width="2224.92" height="21.5485" fill="#868585" stroke="black" stroke-width="2.45342"/>
<rect x="858.094" y="440.461" width="21.5485" height="780.009" fill="#868585" stroke="black" stroke-width="2.45342"/>
<rect x="2327.1" y="437.328" width="21.5485" height="780.009" fill="#868585" stroke="black" stroke-width="2.45342"/>
<rect x="1592.55" y="440.461" width="21.5485" height="780.009" fill="#868585" stroke="black" stroke-width="2.45342"/>
<path d="M2387.45 391.857L2337.93 437.408H139.129L84.9736 391.857H2387.45Z" fill="#726E6E" stroke="black" stroke-width="2.45342"/>
<rect x="171.535" y="495.859" width="657.851" height="529.022" rx="73.6026" fill="#3FA9F5"/>
<rect x="907.09" y="495.859" width="657.851" height="529.022" rx="73.6026" fill="#3FA9F5"/>
<rect x="1642.64" y="495.859" width="657.851" height="529.022" rx="73.6026" fill="#3FA9F5"/>
<rect x="954.104" y="1095.71" width="568.792" height="28.7491" fill="#E6E6E6" stroke="black" stroke-width="2.45342"/>
<rect x="982.904" y="1146.12" width="513.588" height="9.54753" fill="#E6E6E6" stroke="black" stroke-width="2.45342"/>
<rect x="982.904" y="1172.52" width="513.588" height="9.54753" fill="#E6E6E6" stroke="black" stroke-width="2.45342"/>
<rect x="980.506" y="1126.92" width="28.7491" height="134.357" fill="#E6E6E6" stroke="black" stroke-width="2.45342"/>
<rect x="1470.14" y="1126.92" width="28.7491" height="134.357" fill="#E6E6E6" stroke="black" stroke-width="2.45342"/>
<path d="M310.33 792.522V769.333L364.711 718.851C369.362 714.405 373.261 710.403 376.408 706.846C379.555 703.221 381.949 699.698 383.59 696.278C385.232 692.789 386.053 689.027 386.053 684.991C386.053 680.476 385.027 676.612 382.975 673.397C380.923 670.182 378.152 667.685 374.664 665.906C371.175 664.128 367.173 663.239 362.659 663.239C358.007 663.239 353.937 664.196 350.449 666.112C346.96 667.958 344.258 670.66 342.343 674.217C340.496 677.706 339.572 681.913 339.572 686.838H308.79C308.79 676.783 311.048 668.095 315.562 660.776C320.146 653.388 326.507 647.677 334.647 643.641C342.856 639.605 352.295 637.587 362.967 637.587C373.843 637.587 383.351 639.537 391.491 643.436C399.631 647.266 405.959 652.602 410.473 659.442C414.988 666.214 417.245 674.046 417.245 682.939C417.245 688.685 416.117 694.362 413.859 699.972C411.602 705.512 407.6 711.737 401.854 718.646C396.108 725.486 387.968 733.661 377.434 743.169L355.066 765.024V766.153H419.297V792.522H310.33ZM496.489 794.575C483.492 794.575 472.376 791.496 463.141 785.34C453.975 779.115 446.93 770.188 442.005 758.56C437.148 746.863 434.72 732.737 434.72 716.183C434.72 699.698 437.182 685.607 442.107 673.91C447.032 662.144 454.078 653.149 463.244 646.924C472.479 640.699 483.56 637.587 496.489 637.587C509.485 637.587 520.567 640.699 529.733 646.924C538.968 653.149 546.013 662.11 550.87 673.807C555.795 685.504 558.258 699.63 558.258 716.183C558.258 732.737 555.829 746.863 550.972 758.56C546.116 770.188 539.07 779.115 529.836 785.34C520.669 791.496 509.554 794.575 496.489 794.575ZM496.489 767.897C502.713 767.897 507.946 765.913 512.187 761.946C516.497 757.91 519.746 752.027 521.935 744.298C524.192 736.568 525.321 727.196 525.321 716.183C525.321 705.102 524.192 695.696 521.935 687.967C519.746 680.237 516.497 674.354 512.187 670.318C507.946 666.214 502.713 664.162 496.489 664.162C487.254 664.162 480.14 668.711 475.146 677.809C470.153 686.838 467.656 699.63 467.656 716.183C467.656 727.196 468.751 736.568 470.94 744.298C473.197 752.027 476.48 757.91 480.79 761.946C485.099 765.913 490.332 767.897 496.489 767.897ZM572.654 765.64V740.296L636.372 639.639H658.33V674.936H645.299L605.077 738.552V739.783H695.884V765.64H572.654ZM645.915 792.522V757.944L646.53 746.555V639.639H676.902V792.522H645.915Z" fill="white"/>
<path d="M1169.43 794.575C1161.63 794.575 1154.07 793.275 1146.75 790.676C1139.43 788.076 1132.9 783.869 1127.15 778.055C1121.41 772.241 1116.82 764.545 1113.4 754.969C1110.05 745.324 1108.38 733.524 1108.38 719.569C1108.38 706.709 1109.81 695.218 1112.69 685.094C1115.63 674.97 1119.8 666.385 1125.2 659.34C1130.68 652.225 1137.24 646.822 1144.9 643.128C1152.56 639.434 1161.12 637.587 1170.56 637.587C1180.75 637.587 1189.74 639.571 1197.54 643.538C1205.34 647.506 1211.6 652.875 1216.32 659.647C1221.11 666.419 1223.98 673.978 1224.94 682.323H1193.23C1192 676.988 1189.37 672.815 1185.33 669.805C1181.29 666.796 1176.37 665.291 1170.56 665.291C1160.57 665.291 1152.98 669.634 1147.78 678.322C1142.65 686.941 1140.08 698.672 1140.08 713.516H1141.11C1143.43 709.001 1146.51 705.136 1150.34 701.921C1154.24 698.706 1158.69 696.244 1163.68 694.533C1168.67 692.823 1173.94 691.968 1179.48 691.968C1188.58 691.968 1196.65 694.089 1203.7 698.33C1210.81 702.571 1216.39 708.42 1220.42 715.876C1224.53 723.263 1226.58 731.745 1226.58 741.322C1226.58 751.651 1224.15 760.851 1219.29 768.923C1214.5 776.926 1207.84 783.219 1199.28 787.803C1190.73 792.317 1180.78 794.575 1169.43 794.575ZM1169.22 769.128C1174.21 769.128 1178.66 767.965 1182.56 765.64C1186.46 763.245 1189.54 759.996 1191.79 755.892C1194.12 751.788 1195.28 747.205 1195.28 742.143C1195.28 737.081 1194.15 732.532 1191.9 728.496C1189.64 724.46 1186.56 721.28 1182.66 718.954C1178.83 716.56 1174.42 715.363 1169.43 715.363C1164.5 715.363 1160.06 716.594 1156.09 719.056C1152.12 721.451 1148.97 724.7 1146.65 728.804C1144.39 732.84 1143.26 737.32 1143.26 742.245C1143.26 747.17 1144.39 751.685 1146.65 755.789C1148.91 759.894 1151.98 763.143 1155.88 765.537C1159.85 767.931 1164.3 769.128 1169.22 769.128ZM1240.97 765.64V740.296L1304.69 639.639H1326.65V674.936H1313.62L1273.4 738.552V739.783H1364.2V765.64H1240.97ZM1314.24 792.522V757.944L1314.85 746.555V639.639H1345.22V792.522H1314.24Z" fill="white"/>
<path d="M1767.15 811.607V620.554H1779.36V811.607H1767.15ZM1773.3 794.677C1760.99 794.677 1750.25 792.796 1741.08 789.034C1731.99 785.272 1724.87 779.662 1719.74 772.206C1714.68 764.75 1712.01 755.516 1711.74 744.503H1742.93C1743.34 749.565 1744.85 753.84 1747.45 757.329C1750.05 760.749 1753.53 763.314 1757.91 765.024C1762.29 766.734 1767.32 767.589 1772.99 767.589C1778.47 767.589 1783.22 766.802 1787.26 765.229C1791.36 763.656 1794.51 761.467 1796.7 758.662C1798.95 755.789 1800.08 752.472 1800.08 748.71C1800.08 745.289 1799.06 742.416 1797 740.091C1795.02 737.765 1792.08 735.781 1788.18 734.139C1784.35 732.498 1779.66 731.027 1774.12 729.727L1757.4 725.623C1744.54 722.545 1734.38 717.654 1726.92 710.95C1719.47 704.178 1715.74 695.149 1715.74 683.862C1715.74 674.628 1718.24 666.556 1723.23 659.647C1728.29 652.67 1735.17 647.266 1743.85 643.436C1752.61 639.537 1762.56 637.587 1773.71 637.587C1785.07 637.587 1794.95 639.537 1803.37 643.436C1811.85 647.335 1818.45 652.739 1823.17 659.647C1827.96 666.556 1830.42 674.525 1830.56 683.555H1799.47C1798.92 677.603 1796.35 672.952 1791.77 669.6C1787.26 666.248 1781.13 664.572 1773.41 664.572C1768.21 664.572 1763.76 665.325 1760.07 666.83C1756.44 668.266 1753.67 670.284 1751.76 672.884C1749.84 675.483 1748.88 678.458 1748.88 681.81C1748.88 685.367 1749.98 688.377 1752.17 690.84C1754.35 693.234 1757.26 695.218 1760.89 696.791C1764.58 698.296 1768.62 699.561 1772.99 700.587L1786.64 703.973C1793.28 705.478 1799.4 707.496 1805.01 710.027C1810.62 712.49 1815.47 715.534 1819.58 719.159C1823.75 722.784 1826.97 727.06 1829.22 731.985C1831.48 736.841 1832.61 742.451 1832.61 748.812C1832.61 758.184 1830.25 766.324 1825.53 773.232C1820.88 780.073 1814.14 785.374 1805.32 789.136C1796.49 792.83 1785.82 794.677 1773.3 794.677ZM1847.11 792.522V769.333L1901.49 718.851C1906.14 714.405 1910.04 710.403 1913.19 706.846C1916.33 703.221 1918.73 699.698 1920.37 696.278C1922.01 692.789 1922.83 689.027 1922.83 684.991C1922.83 680.476 1921.81 676.612 1919.75 673.397C1917.7 670.182 1914.93 667.685 1911.44 665.906C1907.95 664.128 1903.95 663.239 1899.44 663.239C1894.79 663.239 1890.72 664.196 1887.23 666.112C1883.74 667.958 1881.04 670.66 1879.12 674.217C1877.27 677.706 1876.35 681.913 1876.35 686.838H1845.57C1845.57 676.783 1847.83 668.095 1852.34 660.776C1856.92 653.388 1863.29 647.677 1871.43 643.641C1879.63 639.605 1889.07 637.587 1899.74 637.587C1910.62 637.587 1920.13 639.537 1928.27 643.436C1936.41 647.266 1942.74 652.602 1947.25 659.442C1951.77 666.214 1954.02 674.046 1954.02 682.939C1954.02 688.685 1952.89 694.362 1950.64 699.972C1948.38 705.512 1944.38 711.737 1938.63 718.646C1932.89 725.486 1924.75 733.661 1914.21 743.169L1891.84 765.024V766.153H1956.08V792.522H1847.11ZM2028.65 637.382C2036.52 637.382 2044.07 638.716 2051.33 641.383C2058.64 643.983 2065.18 648.224 2070.92 654.107C2076.74 659.921 2081.32 667.651 2084.67 677.296C2088.02 686.872 2089.7 698.604 2089.7 712.49C2089.7 725.418 2088.23 736.944 2085.29 747.068C2082.42 757.192 2078.24 765.811 2072.77 772.925C2067.37 780.039 2060.83 785.477 2053.17 789.239C2045.58 792.933 2037.06 794.78 2027.62 794.78C2017.5 794.78 2008.5 792.796 2000.64 788.829C1992.77 784.793 1986.48 779.355 1981.76 772.514C1977.04 765.674 1974.17 758.047 1973.14 749.633H2004.95C2006.18 755.105 2008.78 759.381 2012.75 762.459C2016.78 765.537 2021.74 767.076 2027.62 767.076C2037.61 767.076 2045.17 762.732 2050.3 754.045C2055.43 745.289 2057.99 733.455 2057.99 718.543H2057.07C2054.81 722.99 2051.74 726.854 2047.84 730.138C2043.94 733.353 2039.49 735.815 2034.5 737.525C2029.5 739.236 2024.2 740.091 2018.59 740.091C2009.56 740.091 2001.49 737.97 1994.38 733.729C1987.26 729.488 1981.69 723.674 1977.65 716.286C1973.62 708.83 1971.57 700.314 1971.5 690.737C1971.57 680.408 1973.99 671.242 1978.78 663.239C1983.57 655.167 1990.24 648.839 1998.79 644.256C2007.41 639.605 2017.36 637.313 2028.65 637.382ZM2028.85 663.033C2024 663.033 2019.59 664.23 2015.62 666.625C2011.65 668.95 2008.54 672.165 2006.28 676.27C2004.02 680.305 2002.9 684.854 2002.9 689.916C2002.9 694.978 2003.99 699.527 2006.18 703.563C2008.44 707.599 2011.51 710.814 2015.41 713.208C2019.31 715.534 2023.72 716.696 2028.65 716.696C2033.64 716.696 2038.09 715.499 2041.99 713.105C2045.96 710.643 2049.1 707.393 2051.43 703.358C2053.75 699.253 2054.92 694.704 2054.92 689.711C2054.92 684.854 2053.79 680.408 2051.53 676.372C2049.27 672.268 2046.2 669.019 2042.3 666.625C2038.4 664.23 2033.92 663.033 2028.85 663.033ZM2107.28 792.522V639.639H2139.5V707.051H2141.55L2196.54 639.639H2235.23L2178.59 708.077L2235.95 792.522H2197.26L2155.4 729.727L2139.5 749.12V792.522H2107.28Z" fill="white"/>
<path d="M389.72 909.852V862.967H398.216V882.822H419.927V862.967H428.423V909.852H419.927V889.965H398.216V909.852H389.72ZM443.927 910.575C441.683 910.575 439.669 910.177 437.886 909.38C436.103 908.561 434.697 907.366 433.669 905.792C432.642 904.219 432.128 902.279 432.128 899.971C432.128 897.999 432.495 896.363 433.229 895.063C433.963 893.762 434.959 892.724 436.218 891.947C437.498 891.171 438.935 890.584 440.529 890.185C442.123 889.766 443.77 889.472 445.469 889.304C447.546 889.074 449.224 888.874 450.504 888.706C451.783 888.539 452.706 888.266 453.273 887.888C453.86 887.511 454.154 886.923 454.154 886.126V885.969C454.154 884.27 453.65 882.948 452.643 882.004C451.636 881.06 450.168 880.588 448.238 880.588C446.203 880.588 444.588 881.029 443.392 881.91C442.218 882.791 441.421 883.829 441.001 885.025L433.292 883.924C433.9 881.784 434.907 880.001 436.313 878.574C437.718 877.127 439.428 876.047 441.441 875.333C443.476 874.599 445.721 874.232 448.175 874.232C449.853 874.232 451.532 874.431 453.21 874.83C454.888 875.208 456.43 875.858 457.835 876.781C459.241 877.704 460.363 878.942 461.202 880.494C462.041 882.046 462.461 883.987 462.461 886.315V909.852H454.5V905.006H454.248C453.745 905.971 453.031 906.883 452.108 907.743C451.206 908.582 450.074 909.264 448.71 909.789C447.368 910.313 445.773 910.575 443.927 910.575ZM446.036 904.471C447.714 904.471 449.161 904.146 450.378 903.495C451.594 902.824 452.538 901.943 453.21 900.852C453.881 899.741 454.217 898.534 454.217 897.234V893.112C453.944 893.321 453.503 893.521 452.895 893.71C452.287 893.877 451.594 894.035 450.818 894.182C450.042 894.328 449.276 894.454 448.521 894.559C447.787 894.664 447.147 894.748 446.602 894.811C445.364 894.979 444.252 895.262 443.267 895.66C442.302 896.038 441.536 896.562 440.969 897.234C440.403 897.905 440.12 898.776 440.12 899.845C440.12 901.377 440.676 902.53 441.788 903.307C442.899 904.083 444.315 904.471 446.036 904.471ZM482.842 910.544C479.339 910.544 476.329 909.778 473.812 908.247C471.294 906.694 469.364 904.555 468.022 901.828C466.679 899.101 466.008 895.965 466.008 892.419C466.008 888.832 466.69 885.675 468.053 882.948C469.417 880.221 471.357 878.092 473.875 876.561C476.392 875.008 479.36 874.232 482.779 874.232C485.653 874.232 488.192 874.757 490.394 875.805C492.597 876.854 494.348 878.333 495.649 880.242C496.971 882.13 497.726 884.343 497.914 886.881H489.985C489.775 885.749 489.366 884.731 488.758 883.829C488.15 882.927 487.352 882.214 486.366 881.69C485.402 881.165 484.248 880.903 482.905 880.903C481.206 880.903 479.717 881.364 478.437 882.287C477.178 883.189 476.193 884.49 475.479 886.189C474.766 887.888 474.409 889.923 474.409 892.294C474.409 894.685 474.756 896.751 475.448 898.492C476.14 900.213 477.126 901.545 478.406 902.489C479.685 903.412 481.185 903.873 482.905 903.873C484.73 903.873 486.272 903.338 487.531 902.268C488.81 901.198 489.628 899.72 489.985 897.832H497.914C497.726 900.328 496.991 902.53 495.712 904.439C494.432 906.348 492.702 907.848 490.52 908.939C488.338 910.009 485.779 910.544 482.842 910.544ZM508.856 898.838L508.825 888.801H510.178L522.796 874.673H532.487L516.943 892.01H515.212L508.856 898.838ZM501.304 909.852V862.967H509.58V909.852H501.304ZM523.362 909.852L511.908 893.867L517.509 888.014L533.274 909.852H523.362ZM548.589 910.544C545.065 910.544 542.024 909.81 539.464 908.341C536.905 906.852 534.933 904.754 533.549 902.048C532.185 899.342 531.503 896.153 531.503 892.482C531.503 888.853 532.185 885.675 533.549 882.948C534.912 880.2 536.832 878.06 539.307 876.529C541.782 874.998 544.698 874.232 548.055 874.232C550.215 874.232 552.26 874.578 554.19 875.271C556.141 875.963 557.861 877.033 559.351 878.48C560.861 879.927 562.046 881.773 562.906 884.018C563.766 886.242 564.197 888.895 564.197 891.979V894.559H535.374V888.99H560.074L556.204 890.626C556.204 888.633 555.9 886.902 555.292 885.434C554.683 883.945 553.781 882.78 552.586 881.941C551.39 881.102 549.901 880.683 548.117 880.683C546.334 880.683 544.814 881.102 543.555 881.941C542.296 882.78 541.342 883.913 540.691 885.34C540.041 886.745 539.716 888.318 539.716 890.059V893.93C539.716 896.069 540.083 897.905 540.817 899.436C541.573 900.947 542.621 902.1 543.964 902.898C545.327 903.695 546.911 904.093 548.715 904.093C549.89 904.093 550.96 903.925 551.925 903.59C552.911 903.254 553.75 902.751 554.442 902.079C555.155 901.387 555.701 900.538 556.078 899.531L563.819 900.443C563.315 902.478 562.382 904.261 561.018 905.792C559.676 907.303 557.945 908.478 555.827 909.317C553.729 910.135 551.316 910.544 548.589 910.544ZM567.618 909.852V874.673H575.642V880.588H576.019C576.649 878.532 577.75 876.959 579.323 875.868C580.897 874.757 582.69 874.201 584.704 874.201C585.145 874.201 585.648 874.222 586.214 874.264C586.802 874.306 587.284 874.358 587.662 874.421V882.036C587.305 881.91 586.749 881.805 585.994 881.721C585.239 881.637 584.515 881.595 583.823 881.595C582.292 881.595 580.928 881.92 579.732 882.571C578.537 883.221 577.593 884.112 576.9 885.245C576.229 886.378 575.894 887.7 575.894 889.21V909.852H567.618ZM617.452 884.018L609.931 884.805C609.617 883.651 608.935 882.634 607.886 881.752C606.837 880.85 605.358 880.399 603.449 880.399C601.729 880.399 600.282 880.777 599.107 881.532C597.953 882.287 597.376 883.252 597.376 884.427C597.376 885.455 597.754 886.305 598.509 886.976C599.285 887.626 600.565 888.151 602.348 888.549L608.358 889.808C611.651 890.5 614.116 891.633 615.753 893.206C617.389 894.779 618.207 896.814 618.207 899.31C618.207 901.513 617.567 903.464 616.287 905.163C615.008 906.862 613.235 908.184 610.97 909.128C608.725 910.072 606.134 910.544 603.198 910.544C598.897 910.544 595.436 909.642 592.814 907.838C590.213 906.013 588.65 903.485 588.125 900.254L596.212 899.499C596.569 901.073 597.345 902.268 598.541 903.086C599.757 903.884 601.31 904.282 603.198 904.282C605.169 904.282 606.753 903.884 607.949 903.086C609.145 902.268 609.743 901.272 609.743 900.097C609.743 898.125 608.169 896.783 605.023 896.069L599.013 894.811C595.635 894.077 593.139 892.891 591.524 891.255C589.909 889.598 589.101 887.49 589.101 884.931C589.101 882.749 589.699 880.861 590.894 879.267C592.09 877.672 593.758 876.435 595.898 875.554C598.037 874.673 600.513 874.232 603.323 874.232C607.456 874.232 610.697 875.124 613.046 876.907C615.417 878.669 616.885 881.039 617.452 884.018Z" fill="white"/>
<path d="M1130.08 909.852V862.967H1147.67C1151.27 862.967 1154.29 863.639 1156.73 864.981C1159.18 866.324 1161.04 868.17 1162.3 870.519C1163.56 872.869 1164.18 875.533 1164.18 878.512C1164.18 881.511 1163.55 884.186 1162.27 886.535C1161.01 888.864 1159.14 890.699 1156.66 892.042C1154.19 893.363 1151.15 894.024 1147.54 894.024H1135.9V887.039H1146.38C1148.49 887.039 1150.22 886.682 1151.57 885.969C1152.93 885.235 1153.93 884.228 1154.56 882.948C1155.21 881.648 1155.53 880.169 1155.53 878.512C1155.53 876.833 1155.21 875.365 1154.56 874.106C1153.93 872.827 1152.93 871.841 1151.57 871.148C1150.22 870.435 1148.48 870.079 1146.34 870.079H1138.57V909.852H1130.08ZM1167.73 909.852V874.673H1175.76V880.588H1176.13C1176.76 878.532 1177.86 876.959 1179.44 875.868C1181.01 874.757 1182.8 874.201 1184.82 874.201C1185.26 874.201 1185.76 874.222 1186.33 874.264C1186.92 874.306 1187.4 874.358 1187.78 874.421V882.036C1187.42 881.91 1186.86 881.805 1186.11 881.721C1185.35 881.637 1184.63 881.595 1183.94 881.595C1182.41 881.595 1181.04 881.92 1179.85 882.571C1178.65 883.221 1177.71 884.112 1177.01 885.245C1176.34 886.378 1176.01 887.7 1176.01 889.21V909.852H1167.73ZM1203.69 910.544C1200.25 910.544 1197.27 909.789 1194.75 908.278C1192.24 906.768 1190.29 904.649 1188.9 901.922C1187.54 899.195 1186.86 896.028 1186.86 892.419C1186.86 888.79 1187.54 885.612 1188.9 882.885C1190.29 880.137 1192.24 878.008 1194.75 876.498C1197.27 874.987 1200.25 874.232 1203.69 874.232C1207.13 874.232 1210.11 874.987 1212.63 876.498C1215.14 878.008 1217.09 880.137 1218.48 882.885C1219.86 885.612 1220.56 888.79 1220.56 892.419C1220.56 896.028 1219.86 899.195 1218.48 901.922C1217.09 904.649 1215.14 906.768 1212.63 908.278C1210.11 909.789 1207.13 910.544 1203.69 910.544ZM1203.69 903.873C1205.6 903.873 1207.17 903.37 1208.41 902.363C1209.65 901.335 1210.57 899.95 1211.18 898.209C1211.81 896.468 1212.12 894.538 1212.12 892.419C1212.12 890.259 1211.81 888.308 1211.18 886.567C1210.57 884.826 1209.65 883.452 1208.41 882.445C1207.17 881.417 1205.6 880.903 1203.69 880.903C1201.82 880.903 1200.26 881.417 1199 882.445C1197.74 883.452 1196.8 884.826 1196.17 886.567C1195.56 888.308 1195.26 890.259 1195.26 892.419C1195.26 894.538 1195.56 896.468 1196.17 898.209C1196.8 899.95 1197.74 901.335 1199 902.363C1200.26 903.37 1201.82 903.873 1203.69 903.873ZM1224.04 874.673H1232.32V911.865C1232.34 914.404 1231.86 916.491 1230.9 918.127C1229.93 919.784 1228.54 921.011 1226.71 921.809C1224.89 922.606 1222.68 923.004 1220.07 923.004H1218.41V916.271H1219.6C1221.2 916.271 1222.33 915.883 1223 915.106C1223.69 914.351 1224.04 913.239 1224.04 911.771V874.673ZM1228.16 869.733C1226.84 869.733 1225.71 869.292 1224.76 868.411C1223.82 867.53 1223.35 866.471 1223.35 865.233C1223.35 863.974 1223.82 862.904 1224.76 862.023C1225.71 861.142 1226.84 860.702 1228.16 860.702C1229.46 860.702 1230.58 861.142 1231.53 862.023C1232.47 862.904 1232.94 863.964 1232.94 865.201C1232.94 866.46 1232.47 867.53 1231.53 868.411C1230.58 869.292 1229.46 869.733 1228.16 869.733ZM1252.95 910.544C1249.42 910.544 1246.38 909.81 1243.82 908.341C1241.26 906.852 1239.29 904.754 1237.91 902.048C1236.54 899.342 1235.86 896.153 1235.86 892.482C1235.86 888.853 1236.54 885.675 1237.91 882.948C1239.27 880.2 1241.19 878.06 1243.67 876.529C1246.14 874.998 1249.06 874.232 1252.41 874.232C1254.57 874.232 1256.62 874.578 1258.55 875.271C1260.5 875.963 1262.22 877.033 1263.71 878.48C1265.22 879.927 1266.41 881.773 1267.27 884.018C1268.13 886.242 1268.56 888.895 1268.56 891.979V894.559H1239.73V888.99H1264.43L1260.56 890.626C1260.56 888.633 1260.26 886.902 1259.65 885.434C1259.04 883.945 1258.14 882.78 1256.94 881.941C1255.75 881.102 1254.26 880.683 1252.48 880.683C1250.69 880.683 1249.17 881.102 1247.91 881.941C1246.66 882.78 1245.7 883.913 1245.05 885.34C1244.4 886.745 1244.08 888.318 1244.08 890.059V893.93C1244.08 896.069 1244.44 897.905 1245.18 899.436C1245.93 900.947 1246.98 902.1 1248.32 902.898C1249.69 903.695 1251.27 904.093 1253.07 904.093C1254.25 904.093 1255.32 903.925 1256.28 903.59C1257.27 903.254 1258.11 902.751 1258.8 902.079C1259.51 901.387 1260.06 900.538 1260.44 899.531L1268.18 900.443C1267.67 902.478 1266.74 904.261 1265.38 905.792C1264.04 907.303 1262.3 908.478 1260.19 909.317C1258.09 910.135 1255.68 910.544 1252.95 910.544ZM1287.3 910.544C1283.8 910.544 1280.79 909.778 1278.27 908.247C1275.75 906.694 1273.82 904.555 1272.48 901.828C1271.14 899.101 1270.47 895.965 1270.47 892.419C1270.47 888.832 1271.15 885.675 1272.51 882.948C1273.88 880.221 1275.82 878.092 1278.33 876.561C1280.85 875.008 1283.82 874.232 1287.24 874.232C1290.11 874.232 1292.65 874.757 1294.85 875.805C1297.06 876.854 1298.81 878.333 1300.11 880.242C1301.43 882.13 1302.18 884.343 1302.37 886.881H1294.44C1294.23 885.749 1293.82 884.731 1293.22 883.829C1292.61 882.927 1291.81 882.214 1290.83 881.69C1289.86 881.165 1288.71 880.903 1287.36 880.903C1285.66 880.903 1284.18 881.364 1282.9 882.287C1281.64 883.189 1280.65 884.49 1279.94 886.189C1279.22 887.888 1278.87 889.923 1278.87 892.294C1278.87 894.685 1279.21 896.751 1279.91 898.492C1280.6 900.213 1281.58 901.545 1282.86 902.489C1284.14 903.412 1285.64 903.873 1287.36 903.873C1289.19 903.873 1290.73 903.338 1291.99 902.268C1293.27 901.198 1294.09 899.72 1294.44 897.832H1302.37C1302.18 900.328 1301.45 902.53 1300.17 904.439C1298.89 906.348 1297.16 907.848 1294.98 908.939C1292.8 910.009 1290.24 910.544 1287.3 910.544ZM1323.29 874.673V881.092H1303.12V874.673H1323.29ZM1308.06 866.303H1316.34V899.279C1316.34 900.664 1316.64 901.691 1317.25 902.363C1317.86 903.013 1318.82 903.338 1320.14 903.338C1320.5 903.338 1320.9 903.307 1321.34 903.244C1321.78 903.181 1322.18 903.107 1322.53 903.023L1323.95 909.505C1323.07 909.778 1322.18 909.977 1321.28 910.103C1320.37 910.25 1319.47 910.324 1318.57 910.324C1315.3 910.324 1312.73 909.463 1310.86 907.743C1308.99 906.002 1308.06 903.632 1308.06 900.632V866.303ZM1354.02 884.018L1346.5 884.805C1346.19 883.651 1345.51 882.634 1344.46 881.752C1343.41 880.85 1341.93 880.399 1340.02 880.399C1338.3 880.399 1336.85 880.777 1335.68 881.532C1334.53 882.287 1333.95 883.252 1333.95 884.427C1333.95 885.455 1334.33 886.305 1335.08 886.976C1335.86 887.626 1337.14 888.151 1338.92 888.549L1344.93 889.808C1348.22 890.5 1350.69 891.633 1352.32 893.206C1353.96 894.779 1354.78 896.814 1354.78 899.31C1354.78 901.513 1354.14 903.464 1352.86 905.163C1351.58 906.862 1349.81 908.184 1347.54 909.128C1345.3 910.072 1342.71 910.544 1339.77 910.544C1335.47 910.544 1332.01 909.642 1329.39 907.838C1326.78 906.013 1325.22 903.485 1324.7 900.254L1332.78 899.499C1333.14 901.073 1333.92 902.268 1335.11 903.086C1336.33 903.884 1337.88 904.282 1339.77 904.282C1341.74 904.282 1343.33 903.884 1344.52 903.086C1345.72 902.268 1346.31 901.272 1346.31 900.097C1346.31 898.125 1344.74 896.783 1341.59 896.069L1335.58 894.811C1332.21 894.077 1329.71 892.891 1328.1 891.255C1326.48 889.598 1325.67 887.49 1325.67 884.931C1325.67 882.749 1326.27 880.861 1327.47 879.267C1328.66 877.672 1330.33 876.435 1332.47 875.554C1334.61 874.673 1337.08 874.232 1339.9 874.232C1344.03 874.232 1347.27 875.124 1349.62 876.907C1351.99 878.669 1353.46 881.039 1354.02 884.018Z" fill="white"/>
<path d="M1850.5 909.852V862.967H1868.5C1871.88 862.967 1874.69 863.502 1876.94 864.572C1879.18 865.621 1880.86 867.068 1881.97 868.914C1883.08 870.739 1883.64 872.806 1883.64 875.113C1883.64 877.022 1883.27 878.658 1882.54 880.022C1881.82 881.364 1880.85 882.455 1879.61 883.294C1878.37 884.133 1876.99 884.742 1875.46 885.119V885.591C1877.14 885.654 1878.73 886.158 1880.24 887.102C1881.77 888.025 1883.02 889.325 1883.98 891.003C1884.97 892.682 1885.46 894.706 1885.46 897.076C1885.46 899.51 1884.88 901.691 1883.7 903.621C1882.55 905.53 1880.79 907.051 1878.41 908.184C1876.07 909.296 1873.1 909.852 1869.51 909.852H1850.5ZM1859 902.772H1868.13C1871.21 902.772 1873.43 902.174 1874.8 900.978C1876.18 899.782 1876.87 898.262 1876.87 896.416C1876.87 895.01 1876.53 893.751 1875.83 892.64C1875.14 891.528 1874.16 890.647 1872.88 889.997C1871.62 889.346 1870.13 889.021 1868.41 889.021H1859V902.772ZM1859 882.917H1867.43C1868.88 882.917 1870.19 882.644 1871.37 882.099C1872.54 881.553 1873.46 880.788 1874.14 879.802C1874.83 878.795 1875.17 877.609 1875.17 876.246C1875.17 874.442 1874.53 872.953 1873.25 871.778C1871.97 870.582 1870.1 869.984 1867.62 869.984H1859V882.917ZM1904.37 910.544C1900.93 910.544 1897.95 909.789 1895.43 908.278C1892.91 906.768 1890.96 904.649 1889.58 901.922C1888.21 899.195 1887.53 896.028 1887.53 892.419C1887.53 888.79 1888.21 885.612 1889.58 882.885C1890.96 880.137 1892.91 878.008 1895.43 876.498C1897.95 874.987 1900.93 874.232 1904.37 874.232C1907.81 874.232 1910.79 874.987 1913.3 876.498C1915.82 878.008 1917.77 880.137 1919.15 882.885C1920.54 885.612 1921.23 888.79 1921.23 892.419C1921.23 896.028 1920.54 899.195 1919.15 901.922C1917.77 904.649 1915.82 906.768 1913.3 908.278C1910.79 909.789 1907.81 910.544 1904.37 910.544ZM1904.37 903.873C1906.27 903.873 1907.85 903.37 1909.09 902.363C1910.32 901.335 1911.25 899.95 1911.85 898.209C1912.48 896.468 1912.8 894.538 1912.8 892.419C1912.8 890.259 1912.48 888.308 1911.85 886.567C1911.25 884.826 1910.32 883.452 1909.09 882.445C1907.85 881.417 1906.27 880.903 1904.37 880.903C1902.5 880.903 1900.94 881.417 1899.68 882.445C1898.42 883.452 1897.47 884.826 1896.85 886.567C1896.24 888.308 1895.93 890.259 1895.93 892.419C1895.93 894.538 1896.24 896.468 1896.85 898.209C1897.47 899.95 1898.42 901.335 1899.68 902.363C1900.94 903.37 1902.5 903.873 1904.37 903.873ZM1947.12 895.094V874.673H1955.4V909.852H1947.37V903.59H1946.99C1946.2 905.562 1944.9 907.177 1943.09 908.436C1941.29 909.694 1939.06 910.313 1936.42 910.292C1934.11 910.292 1932.08 909.789 1930.32 908.782C1928.58 907.754 1927.2 906.254 1926.2 904.282C1925.21 902.289 1924.72 899.887 1924.72 897.076V874.673H1932.99V895.818C1932.99 898.02 1933.6 899.782 1934.82 901.104C1936.05 902.426 1937.67 903.076 1939.66 903.055C1940.88 903.055 1942.05 902.761 1943.19 902.174C1944.34 901.587 1945.28 900.705 1946.02 899.531C1946.75 898.356 1947.12 896.877 1947.12 895.094ZM1968.73 889.273V909.852H1960.45V874.673H1968.57V880.683H1968.98C1969.78 878.711 1971.03 877.148 1972.72 875.994C1974.44 874.82 1976.63 874.232 1979.27 874.232C1981.7 874.232 1983.82 874.746 1985.63 875.774C1987.43 876.802 1988.82 878.312 1989.81 880.305C1990.82 882.277 1991.32 884.668 1991.32 887.479V909.852H1983.05V888.769C1983.05 886.42 1982.44 884.584 1981.22 883.263C1980 881.92 1978.33 881.249 1976.19 881.249C1974.74 881.249 1973.45 881.564 1972.32 882.193C1971.2 882.822 1970.32 883.735 1969.67 884.931C1969.04 886.105 1968.73 887.553 1968.73 889.273ZM2013.91 874.673V881.092H1993.74V874.673H2013.91ZM1998.68 866.303H2006.95V899.279C2006.95 900.664 2007.26 901.691 2007.86 902.363C2008.47 903.013 2009.44 903.338 2010.76 903.338C2011.12 903.338 2011.51 903.307 2011.95 903.244C2012.4 903.181 2012.79 903.107 2013.15 903.023L2014.57 909.505C2013.69 909.778 2012.79 909.977 2011.89 910.103C2010.99 910.25 2010.09 910.324 2009.19 910.324C2005.91 910.324 2003.34 909.463 2001.48 907.743C1999.61 906.002 1998.68 903.632 1998.68 900.632V866.303ZM2017.39 909.852V874.673H2025.67V909.852H2017.39ZM2021.54 869.733C2020.22 869.733 2019.09 869.292 2018.14 868.411C2017.2 867.53 2016.73 866.471 2016.73 865.233C2016.73 863.974 2017.2 862.904 2018.14 862.023C2019.09 861.142 2020.22 860.702 2021.54 860.702C2022.84 860.702 2023.97 861.142 2024.91 862.023C2025.85 862.904 2026.33 863.964 2026.33 865.201C2026.33 866.46 2025.85 867.53 2024.91 868.411C2023.97 869.292 2022.84 869.733 2021.54 869.733ZM2046.3 910.544C2042.77 910.544 2039.73 909.81 2037.17 908.341C2034.61 906.852 2032.64 904.754 2031.26 902.048C2029.89 899.342 2029.21 896.153 2029.21 892.482C2029.21 888.853 2029.89 885.675 2031.26 882.948C2032.62 880.2 2034.54 878.06 2037.02 876.529C2039.49 874.998 2042.41 874.232 2045.76 874.232C2047.92 874.232 2049.97 874.578 2051.9 875.271C2053.85 875.963 2055.57 877.033 2057.06 878.48C2058.57 879.927 2059.76 881.773 2060.62 884.018C2061.48 886.242 2061.91 888.895 2061.91 891.979V894.559H2033.08V888.99H2057.78L2053.91 890.626C2053.91 888.633 2053.61 886.902 2053 885.434C2052.39 883.945 2051.49 882.78 2050.29 881.941C2049.1 881.102 2047.61 880.683 2045.83 880.683C2044.04 880.683 2042.52 881.102 2041.26 881.941C2040.01 882.78 2039.05 883.913 2038.4 885.34C2037.75 886.745 2037.43 888.318 2037.43 890.059V893.93C2037.43 896.069 2037.79 897.905 2038.53 899.436C2039.28 900.947 2040.33 902.1 2041.67 902.898C2043.04 903.695 2044.62 904.093 2046.42 904.093C2047.6 904.093 2048.67 903.925 2049.63 903.59C2050.62 903.254 2051.46 902.751 2052.15 902.079C2052.86 901.387 2053.41 900.538 2053.79 899.531L2061.53 900.443C2061.02 902.478 2060.09 904.261 2058.73 905.792C2057.39 907.303 2055.65 908.478 2053.54 909.317C2051.44 910.135 2049.03 910.544 2046.3 910.544ZM2093.08 884.018L2085.56 884.805C2085.25 883.651 2084.56 882.634 2083.51 881.752C2082.47 880.85 2080.99 880.399 2079.08 880.399C2077.36 880.399 2075.91 880.777 2074.74 881.532C2073.58 882.287 2073 883.252 2073 884.427C2073 885.455 2073.38 886.305 2074.14 886.976C2074.91 887.626 2076.19 888.151 2077.98 888.549L2083.99 889.808C2087.28 890.5 2089.74 891.633 2091.38 893.206C2093.02 894.779 2093.84 896.814 2093.84 899.31C2093.84 901.513 2093.2 903.464 2091.92 905.163C2090.64 906.862 2088.86 908.184 2086.6 909.128C2084.35 910.072 2081.76 910.544 2078.83 910.544C2074.53 910.544 2071.06 909.642 2068.44 907.838C2065.84 906.013 2064.28 903.485 2063.75 900.254L2071.84 899.499C2072.2 901.073 2072.97 902.268 2074.17 903.086C2075.39 903.884 2076.94 904.282 2078.83 904.282C2080.8 904.282 2082.38 903.884 2083.58 903.086C2084.77 902.268 2085.37 901.272 2085.37 900.097C2085.37 898.125 2083.8 896.783 2080.65 896.069L2074.64 894.811C2071.26 894.077 2068.77 892.891 2067.15 891.255C2065.54 889.598 2064.73 887.49 2064.73 884.931C2064.73 882.749 2065.33 880.861 2066.52 879.267C2067.72 877.672 2069.39 876.435 2071.53 875.554C2073.67 874.673 2076.14 874.232 2078.95 874.232C2083.08 874.232 2086.33 875.124 2088.67 876.907C2091.05 878.669 2092.51 881.039 2093.08 884.018Z" fill="white"/>
<path d="M484.819 194.313V96.4681H548.517V111.309H502.55V137.576H545.103V152.22H502.55V179.473H548.78V194.313H484.819ZM554.798 111.309V96.4681L632.811 96.4681V111.309L602.604 111.309V194.313H585.071V111.309H554.798ZM640.274 194.313V96.4681H658.004V137.905H703.315V96.4681H721.045V194.313H703.315V152.811H658.004V194.313H640.274ZM732.776 96.4681H754.512L783.538 167.324H784.654L813.745 96.4681H835.744V194.313H818.342V127.069H817.554L790.367 193.985H777.628L750.769 126.938H749.85V194.313H732.776V96.4681ZM893.508 163.515V120.897H910.779V194.313H894.033V181.246H893.245C891.582 185.361 888.867 188.732 885.102 191.358C881.337 193.985 876.697 195.277 871.181 195.233C866.365 195.233 862.119 194.182 858.441 192.081C854.808 189.936 851.94 186.805 849.839 182.69C847.781 178.531 846.752 173.519 846.752 167.652V120.897H864.023V165.026C864.023 169.622 865.293 173.3 867.832 176.058C870.415 178.816 873.786 180.173 877.945 180.129C880.484 180.129 882.935 179.516 885.299 178.29C887.707 177.065 889.677 175.226 891.209 172.774C892.742 170.323 893.508 167.236 893.508 163.515ZM921.13 194.313V120.897L937.613 120.897V133.439H938.532C940.065 129.236 942.604 125.953 946.15 123.589C949.696 121.181 953.899 119.977 958.758 119.977C963.749 119.977 967.952 121.181 971.366 123.589C974.781 125.997 977.167 129.28 978.524 133.439H979.312C980.976 129.368 983.734 126.106 987.586 123.655C991.439 121.203 996.036 119.977 1001.38 119.977C1008.12 119.977 1013.61 122.122 1017.86 126.413C1022.15 130.659 1024.29 136.876 1024.29 145.062V194.313H1006.96V147.689C1006.96 143.18 1005.73 139.875 1003.28 137.773C1000.87 135.628 997.918 134.556 994.416 134.556C990.257 134.556 987.017 135.869 984.697 138.496C982.377 141.079 981.217 144.406 981.217 148.477V194.313H964.143V147.033C964.143 143.224 963.027 140.203 960.794 137.97C958.561 135.694 955.606 134.556 951.929 134.556C949.433 134.556 947.157 135.19 945.099 136.46C943.042 137.73 941.4 139.503 940.174 141.779C938.992 144.056 938.401 146.682 938.401 149.659V194.313H921.13ZM1073.59 195.627C1069.43 195.627 1065.95 194.926 1063.15 193.525C1060.39 192.081 1058.16 190.373 1056.45 188.403C1054.78 186.39 1053.52 184.485 1052.64 182.69H1051.59V194.313H1034.65V96.4681H1051.92V133.045H1052.64C1053.52 131.294 1054.76 129.412 1056.38 127.398C1058 125.34 1060.19 123.589 1062.95 122.144C1065.75 120.7 1069.32 119.977 1073.65 119.977C1079.3 119.977 1084.4 121.422 1088.95 124.311C1093.51 127.201 1097.12 131.447 1099.79 137.051C1102.5 142.655 1103.86 149.55 1103.86 157.736C1103.86 165.792 1102.55 172.643 1099.92 178.29C1097.29 183.938 1093.68 188.25 1089.09 191.227C1084.53 194.16 1079.37 195.627 1073.59 195.627ZM1068.86 181.443C1072.67 181.443 1075.84 180.414 1078.38 178.356C1080.96 176.299 1082.91 173.475 1084.23 169.885C1085.54 166.295 1086.2 162.224 1086.2 157.671C1086.2 153.118 1085.54 149.068 1084.23 145.522C1082.91 141.976 1080.99 139.196 1078.45 137.182C1075.91 135.168 1072.71 134.162 1068.86 134.162C1065.14 134.162 1061.99 135.125 1059.4 137.051C1056.86 138.977 1054.92 141.713 1053.56 145.259C1052.25 148.762 1051.59 152.899 1051.59 157.671C1051.59 162.399 1052.25 166.558 1053.56 170.148C1054.92 173.694 1056.89 176.474 1059.47 178.487C1062.05 180.458 1065.18 181.443 1068.86 181.443ZM1132.14 195.824C1127.46 195.824 1123.25 194.992 1119.53 193.328C1115.81 191.621 1112.88 189.126 1110.73 185.842C1108.59 182.559 1107.51 178.509 1107.51 173.694C1107.51 169.579 1108.28 166.164 1109.81 163.45C1111.35 160.735 1113.42 158.568 1116.05 156.948C1118.72 155.329 1121.72 154.103 1125.05 153.271C1128.38 152.395 1131.81 151.782 1135.36 151.432C1139.69 150.951 1143.19 150.535 1145.86 150.185C1148.54 149.834 1150.46 149.265 1151.64 148.477C1152.87 147.689 1153.48 146.463 1153.48 144.8V144.471C1153.48 140.925 1152.43 138.167 1150.33 136.197C1148.23 134.227 1145.16 133.242 1141.14 133.242C1136.89 133.242 1133.52 134.162 1131.02 136C1128.57 137.839 1126.91 140.006 1126.03 142.501L1109.94 140.203C1111.21 135.738 1113.32 132.016 1116.25 129.039C1119.18 126.019 1122.75 123.764 1126.95 122.276C1131.2 120.743 1135.88 119.977 1141.01 119.977C1144.51 119.977 1148.01 120.393 1151.51 121.225C1155.01 122.013 1158.23 123.37 1161.17 125.296C1164.1 127.223 1166.44 129.806 1168.19 133.045C1169.94 136.285 1170.82 140.334 1170.82 145.194V194.313H1154.2V184.201H1153.68C1152.63 186.214 1151.14 188.119 1149.21 189.914C1147.33 191.665 1144.97 193.088 1142.12 194.182C1139.32 195.277 1135.99 195.824 1132.14 195.824ZM1136.54 183.084C1140.04 183.084 1143.06 182.406 1145.6 181.049C1148.14 179.648 1150.11 177.809 1151.51 175.532C1152.91 173.212 1153.61 170.695 1153.61 167.981V159.378C1153.04 159.816 1152.13 160.232 1150.86 160.626C1149.59 160.976 1148.14 161.304 1146.52 161.611C1144.9 161.917 1143.3 162.18 1141.73 162.399C1140.2 162.618 1138.86 162.793 1137.72 162.924C1135.14 163.274 1132.82 163.865 1130.76 164.697C1128.75 165.485 1127.15 166.58 1125.97 167.981C1124.79 169.382 1124.19 171.198 1124.19 173.431C1124.19 176.627 1125.35 179.035 1127.67 180.655C1129.99 182.274 1132.95 183.084 1136.54 183.084ZM1181.17 194.313V120.897H1198.44V194.313H1181.17ZM1189.84 110.587C1187.08 110.587 1184.72 109.667 1182.75 107.829C1180.78 105.99 1179.79 103.779 1179.79 101.196C1179.79 98.5695 1180.78 96.3368 1182.75 94.4981C1184.72 92.6594 1187.08 91.74 1189.84 91.74C1192.55 91.74 1194.89 92.6594 1196.86 94.4981C1198.83 96.3368 1199.82 98.5476 1199.82 101.131C1199.82 103.757 1198.83 105.99 1196.86 107.829C1194.89 109.667 1192.55 110.587 1189.84 110.587ZM1234.45 194.313V181.574L1268.46 148.215C1271.66 144.931 1274.33 142.02 1276.47 139.481C1278.66 136.942 1280.3 134.49 1281.4 132.126C1282.49 129.718 1283.04 127.157 1283.04 124.443C1283.04 121.378 1282.34 118.73 1280.94 116.497C1279.54 114.264 1277.61 112.557 1275.16 111.375C1272.75 110.193 1269.99 109.602 1266.89 109.602C1263.65 109.602 1260.82 110.258 1258.41 111.572C1256.01 112.885 1254.12 114.746 1252.77 117.154C1251.45 119.561 1250.8 122.429 1250.8 125.756H1233.99C1233.99 119.583 1235.39 114.22 1238.19 109.667C1241.03 105.071 1244.95 101.503 1249.94 98.9635C1254.93 96.4244 1260.65 95.1548 1267.08 95.1548C1273.69 95.1548 1279.47 96.3806 1284.42 98.8322C1289.37 101.284 1293.22 104.655 1295.98 108.945C1298.73 113.192 1300.11 118.051 1300.11 123.523C1300.11 127.201 1299.41 130.813 1298.01 134.359C1296.61 137.861 1294.14 141.779 1290.59 146.113C1287.09 150.403 1282.16 155.591 1275.82 161.676L1259.01 178.816V179.538H1301.56V194.313H1234.45ZM1346.91 195.627C1338.99 195.627 1332.2 193.657 1326.55 189.717C1320.95 185.733 1316.66 180.02 1313.68 172.577C1310.71 165.091 1309.22 156.051 1309.22 145.456C1309.22 134.862 1310.71 125.822 1313.68 118.336C1316.66 110.806 1320.95 105.071 1326.55 101.131C1332.2 97.1467 1338.99 95.1548 1346.91 95.1548C1354.79 95.1548 1361.55 97.1467 1367.2 101.131C1372.85 105.114 1377.16 110.849 1380.14 118.336C1383.12 125.822 1384.6 134.862 1384.6 145.456C1384.6 156.051 1383.12 165.091 1380.14 172.577C1377.16 180.02 1372.87 185.733 1367.27 189.717C1361.66 193.657 1354.88 195.627 1346.91 195.627ZM1346.91 180.786C1351.16 180.786 1354.75 179.407 1357.68 176.649C1360.66 173.891 1362.91 169.885 1364.44 164.632C1366.02 159.334 1366.81 152.943 1366.81 145.456C1366.81 137.927 1366.02 131.513 1364.44 126.216C1362.91 120.919 1360.66 116.891 1357.68 114.133C1354.75 111.331 1351.16 109.93 1346.91 109.93C1340.52 109.93 1335.59 113.038 1332.14 119.255C1328.72 125.428 1327.01 134.162 1327.01 145.456C1327.01 152.943 1327.78 159.334 1329.31 164.632C1330.84 169.885 1333.1 173.891 1336.08 176.649C1339.05 179.407 1342.66 180.786 1346.91 180.786ZM1392.92 194.313V181.574L1426.94 148.215C1430.13 144.931 1432.8 142.02 1434.95 139.481C1437.14 136.942 1438.78 134.49 1439.87 132.126C1440.97 129.718 1441.51 127.157 1441.51 124.443C1441.51 121.378 1440.81 118.73 1439.41 116.497C1438.01 114.264 1436.09 112.557 1433.63 111.375C1431.23 110.193 1428.47 109.602 1425.36 109.602C1422.12 109.602 1419.3 110.258 1416.89 111.572C1414.48 112.885 1412.6 114.746 1411.24 117.154C1409.93 119.561 1409.27 122.429 1409.27 125.756H1392.46C1392.46 119.583 1393.86 114.22 1396.66 109.667C1399.51 105.071 1403.43 101.503 1408.42 98.9635C1413.41 96.4244 1419.12 95.1548 1425.56 95.1548C1432.17 95.1548 1437.95 96.3806 1442.89 98.8322C1447.84 101.284 1451.69 104.655 1454.45 108.945C1457.21 113.192 1458.59 118.051 1458.59 123.523C1458.59 127.201 1457.89 130.813 1456.49 134.359C1455.09 137.861 1452.61 141.779 1449.07 146.113C1445.56 150.403 1440.64 155.591 1434.29 161.676L1417.48 178.816V179.538H1460.03V194.313H1392.92ZM1465.33 176.189V162.07L1506.9 96.4681H1518.59V116.563H1511.43L1483.45 160.823V161.611H1541.44V176.189H1465.33ZM1511.95 194.313V171.921L1512.22 165.551V96.4681H1528.9V194.313H1511.95ZM1593.79 96.4681V194.313H1576.06V96.4681H1593.79ZM1604.8 194.313V120.897H1621.28V133.439H1622.2C1623.74 129.236 1626.28 125.953 1629.82 123.589C1633.37 121.181 1637.57 119.977 1642.43 119.977C1647.42 119.977 1651.62 121.181 1655.04 123.589C1658.45 125.997 1660.84 129.28 1662.2 133.439H1662.98C1664.65 129.368 1667.41 126.106 1671.26 123.655C1675.11 121.203 1679.71 119.977 1685.05 119.977C1691.79 119.977 1697.28 122.122 1701.53 126.413C1705.82 130.659 1707.97 136.876 1707.97 145.062V194.313H1690.63V147.689C1690.63 143.18 1689.4 139.875 1686.95 137.773C1684.54 135.628 1681.59 134.556 1678.09 134.556C1673.93 134.556 1670.69 135.869 1668.37 138.496C1666.05 141.079 1664.89 144.406 1664.89 148.477V194.313H1647.81V147.033C1647.81 143.224 1646.7 140.203 1644.47 137.97C1642.23 135.694 1639.28 134.556 1635.6 134.556C1633.1 134.556 1630.83 135.19 1628.77 136.46C1626.71 137.73 1625.07 139.503 1623.85 141.779C1622.66 144.056 1622.07 146.682 1622.07 149.659V194.313H1604.8ZM1718.32 221.763V120.897H1735.26V133.045H1736.31C1737.19 131.294 1738.43 129.412 1740.05 127.398C1741.67 125.34 1743.86 123.589 1746.62 122.144C1749.42 120.7 1752.99 119.977 1757.33 119.977C1762.97 119.977 1768.07 121.422 1772.63 124.311C1777.18 127.201 1780.79 131.447 1783.46 137.051C1786.18 142.655 1787.53 149.55 1787.53 157.736C1787.53 165.792 1786.22 172.643 1783.59 178.29C1780.97 183.938 1777.35 188.25 1772.76 191.227C1768.2 194.16 1763.04 195.627 1757.26 195.627C1753.1 195.627 1749.62 194.926 1746.82 193.525C1744.06 192.081 1741.83 190.373 1740.12 188.403C1738.46 186.39 1737.19 184.485 1736.31 182.69H1735.59V221.763H1718.32ZM1752.53 181.443C1756.34 181.443 1759.51 180.414 1762.05 178.356C1764.64 176.299 1766.58 173.475 1767.9 169.885C1769.21 166.295 1769.87 162.224 1769.87 157.671C1769.87 153.118 1769.21 149.068 1767.9 145.522C1766.58 141.976 1764.66 139.196 1762.12 137.182C1759.58 135.168 1756.38 134.162 1752.53 134.162C1748.81 134.162 1745.66 135.125 1743.08 137.051C1740.54 138.977 1738.59 141.713 1737.23 145.259C1735.92 148.762 1735.26 152.899 1735.26 157.671C1735.26 162.399 1735.92 166.558 1737.23 170.148C1738.59 173.694 1740.56 176.474 1743.14 178.487C1745.72 180.458 1748.85 181.443 1752.53 181.443ZM1815.81 195.824C1811.13 195.824 1806.92 194.992 1803.2 193.328C1799.48 191.621 1796.55 189.126 1794.4 185.842C1792.26 182.559 1791.19 178.509 1791.19 173.694C1791.19 169.579 1791.95 166.164 1793.48 163.45C1795.02 160.735 1797.1 158.568 1799.72 156.948C1802.39 155.329 1805.39 154.103 1808.72 153.271C1812.05 152.395 1815.48 151.782 1819.03 151.432C1823.36 150.951 1826.87 150.535 1829.54 150.185C1832.21 149.834 1834.13 149.265 1835.32 148.477C1836.54 147.689 1837.15 146.463 1837.15 144.8V144.471C1837.15 140.925 1836.1 138.167 1834 136.197C1831.9 134.227 1828.84 133.242 1824.81 133.242C1820.56 133.242 1817.19 134.162 1814.7 136C1812.24 137.839 1810.58 140.006 1809.7 142.501L1793.62 140.203C1794.89 135.738 1796.99 132.016 1799.92 129.039C1802.85 126.019 1806.42 123.764 1810.62 122.276C1814.87 120.743 1819.55 119.977 1824.68 119.977C1828.18 119.977 1831.68 120.393 1835.18 121.225C1838.69 122.013 1841.9 123.37 1844.84 125.296C1847.77 127.223 1850.11 129.806 1851.86 133.045C1853.61 136.285 1854.49 140.334 1854.49 145.194V194.313H1837.88V184.201H1837.35C1836.3 186.214 1834.81 188.119 1832.89 189.914C1831 191.665 1828.64 193.088 1825.79 194.182C1822.99 195.277 1819.66 195.824 1815.81 195.824ZM1820.21 183.084C1823.71 183.084 1826.73 182.406 1829.27 181.049C1831.81 179.648 1833.78 177.809 1835.18 175.532C1836.58 173.212 1837.29 170.695 1837.29 167.981V159.378C1836.72 159.816 1835.8 160.232 1834.53 160.626C1833.26 160.976 1831.81 161.304 1830.19 161.611C1828.57 161.917 1826.98 162.18 1825.4 162.399C1823.87 162.618 1822.53 162.793 1821.39 162.924C1818.81 163.274 1816.49 163.865 1814.43 164.697C1812.42 165.485 1810.82 166.58 1809.64 167.981C1808.46 169.382 1807.87 171.198 1807.87 173.431C1807.87 176.627 1809.03 179.035 1811.35 180.655C1813.67 182.274 1816.62 183.084 1820.21 183.084ZM1896.82 195.758C1889.51 195.758 1883.23 194.16 1877.98 190.964C1872.72 187.725 1868.69 183.259 1865.89 177.568C1863.09 171.877 1861.69 165.332 1861.69 157.933C1861.69 150.447 1863.11 143.859 1865.96 138.167C1868.8 132.476 1872.85 128.033 1878.11 124.837C1883.36 121.597 1889.56 119.977 1896.69 119.977C1902.69 119.977 1907.99 121.072 1912.58 123.261C1917.18 125.45 1920.83 128.536 1923.55 132.52C1926.31 136.46 1927.88 141.079 1928.28 146.376H1911.73C1911.29 144.012 1910.44 141.889 1909.17 140.006C1907.9 138.124 1906.23 136.635 1904.18 135.541C1902.16 134.446 1899.76 133.899 1896.95 133.899C1893.41 133.899 1890.3 134.862 1887.63 136.788C1885 138.671 1882.94 141.385 1881.46 144.931C1879.97 148.477 1879.22 152.724 1879.22 157.671C1879.22 162.661 1879.95 166.974 1881.39 170.607C1882.83 174.197 1884.89 176.977 1887.56 178.947C1890.23 180.873 1893.36 181.837 1896.95 181.837C1900.76 181.837 1903.98 180.72 1906.61 178.487C1909.28 176.255 1910.98 173.168 1911.73 169.228H1928.28C1927.88 174.438 1926.35 179.035 1923.68 183.019C1921.01 187.002 1917.4 190.133 1912.85 192.409C1908.29 194.642 1902.95 195.758 1896.82 195.758ZM1971.73 120.897V134.293H1929.63V120.897L1971.73 120.897ZM1939.94 103.429H1957.21V172.249C1957.21 175.138 1957.85 177.284 1959.12 178.684C1960.39 180.042 1962.4 180.72 1965.16 180.72C1965.9 180.72 1966.74 180.655 1967.65 180.523C1968.57 180.392 1969.41 180.239 1970.15 180.064L1973.1 193.591C1971.27 194.16 1969.41 194.576 1967.52 194.839C1965.64 195.145 1963.76 195.298 1961.88 195.298C1955.05 195.298 1949.68 193.504 1945.79 189.914C1941.89 186.28 1939.94 181.333 1939.94 175.073V103.429Z" fill="white"/>
<path d="M653.87 314.884V265.961H683.224V271.215H659.78V288.288H680.991V293.542H659.78V314.884H653.87ZM688.36 314.884V278.175H693.942V314.884H688.36ZM691.184 272.068C690.089 272.068 689.148 271.696 688.36 270.952C687.572 270.208 687.178 269.31 687.178 268.26C687.178 267.209 687.572 266.311 688.36 265.567C689.148 264.823 690.089 264.451 691.184 264.451C692.278 264.451 693.219 264.823 694.007 265.567C694.795 266.311 695.189 267.209 695.189 268.26C695.189 269.31 694.795 270.208 694.007 270.952C693.219 271.696 692.278 272.068 691.184 272.068ZM700.063 314.884V278.175H705.448V283.757H705.842C706.52 281.94 707.735 280.474 709.486 279.357C711.259 278.219 713.24 277.65 715.429 277.65C715.845 277.65 716.36 277.661 716.972 277.683C717.585 277.683 718.056 277.694 718.384 277.716V283.429C718.187 283.385 717.75 283.319 717.071 283.232C716.392 283.144 715.67 283.1 714.904 283.1C713.131 283.1 711.544 283.473 710.143 284.217C708.742 284.961 707.637 285.979 706.827 287.27C706.039 288.562 705.645 290.039 705.645 291.703V314.884H700.063ZM746.767 286.45L741.711 287.829C741.229 286.581 740.397 285.399 739.215 284.282C738.055 283.144 736.238 282.575 733.765 282.575C731.532 282.575 729.672 283.1 728.183 284.151C726.695 285.18 725.95 286.471 725.95 288.026C725.95 289.426 726.454 290.543 727.461 291.375C728.49 292.206 730.087 292.885 732.255 293.41L737.705 294.724C740.966 295.512 743.396 296.727 744.994 298.368C746.614 300.01 747.424 302.1 747.424 304.64C747.424 306.741 746.822 308.623 745.618 310.287C744.414 311.951 742.74 313.264 740.594 314.227C738.449 315.19 735.954 315.672 733.108 315.672C729.365 315.672 726.268 314.851 723.816 313.209C721.386 311.568 719.843 309.193 719.187 306.084L724.506 304.771C725.009 306.741 725.972 308.218 727.395 309.204C728.84 310.189 730.722 310.681 733.043 310.681C735.647 310.681 737.727 310.123 739.281 309.007C740.857 307.868 741.645 306.522 741.645 304.968C741.645 302.385 739.828 300.656 736.195 299.78L730.087 298.335C726.717 297.526 724.243 296.289 722.667 294.625C721.091 292.962 720.303 290.871 720.303 288.354C720.303 286.274 720.883 284.436 722.043 282.838C723.225 281.24 724.834 279.992 726.87 279.095C728.905 278.175 731.204 277.716 733.765 277.716C737.42 277.716 740.277 278.526 742.335 280.145C744.414 281.743 745.892 283.845 746.767 286.45ZM767.598 278.175V282.969H748.62V278.175H767.598ZM754.136 269.442H759.718V304.377C759.718 306.281 760.112 307.682 760.9 308.58C761.688 309.455 762.936 309.893 764.643 309.893C765.015 309.893 765.398 309.871 765.792 309.827C766.208 309.784 766.657 309.718 767.138 309.63L768.321 314.687C767.795 314.884 767.149 315.037 766.383 315.146C765.639 315.278 764.884 315.343 764.118 315.343C761.163 315.343 758.755 314.468 756.894 312.717C755.056 310.966 754.136 308.689 754.136 305.887V269.442ZM801.905 315.672C798.381 315.672 795.328 314.884 792.745 313.308C790.184 311.732 788.214 309.532 786.835 306.708C785.455 303.863 784.766 300.568 784.766 296.825C784.766 293.06 785.445 289.744 786.802 286.876C788.159 284.009 790.063 281.765 792.515 280.145C794.988 278.526 797.878 277.716 801.183 277.716C803.087 277.716 804.981 278.033 806.863 278.668C808.746 279.303 810.453 280.331 811.985 281.754C813.54 283.177 814.776 285.06 815.696 287.402C816.615 289.744 817.075 292.622 817.075 296.037V298.467H788.772V293.607H814.021L811.427 295.446C811.427 292.994 811.044 290.816 810.278 288.912C809.512 287.008 808.363 285.508 806.83 284.414C805.32 283.319 803.438 282.772 801.183 282.772C798.928 282.772 796.991 283.33 795.371 284.447C793.773 285.541 792.548 286.975 791.694 288.748C790.84 290.521 790.413 292.425 790.413 294.461V297.679C790.413 300.459 790.895 302.812 791.858 304.738C792.821 306.664 794.167 308.131 795.897 309.138C797.626 310.123 799.629 310.615 801.905 310.615C803.372 310.615 804.707 310.407 805.911 309.992C807.115 309.554 808.155 308.908 809.03 308.054C809.906 307.179 810.574 306.106 811.033 304.837L816.484 306.413C815.915 308.251 814.951 309.871 813.594 311.272C812.259 312.651 810.595 313.735 808.603 314.523C806.612 315.289 804.379 315.672 801.905 315.672ZM849.923 278.175L836.395 314.884H830.616L817.089 278.175H823.196L833.309 307.463H833.703L843.816 278.175H849.923ZM867.208 315.672C863.684 315.672 860.63 314.884 858.047 313.308C855.486 311.732 853.516 309.532 852.137 306.708C850.758 303.863 850.068 300.568 850.068 296.825C850.068 293.06 850.747 289.744 852.104 286.876C853.461 284.009 855.366 281.765 857.817 280.145C860.291 278.526 863.18 277.716 866.485 277.716C868.39 277.716 870.283 278.033 872.166 278.668C874.048 279.303 875.756 280.331 877.288 281.754C878.842 283.177 880.079 285.06 880.998 287.402C881.917 289.744 882.377 292.622 882.377 296.037V298.467H854.074V293.607H879.324L876.73 295.446C876.73 292.994 876.347 290.816 875.58 288.912C874.814 287.008 873.665 285.508 872.133 284.414C870.623 283.319 868.74 282.772 866.485 282.772C864.231 282.772 862.294 283.33 860.674 284.447C859.076 285.541 857.85 286.975 856.996 288.748C856.143 290.521 855.716 292.425 855.716 294.461V297.679C855.716 300.459 856.197 302.812 857.161 304.738C858.124 306.664 859.47 308.131 861.199 309.138C862.928 310.123 864.931 310.615 867.208 310.615C868.674 310.615 870.01 310.407 871.214 309.992C872.417 309.554 873.457 308.908 874.333 308.054C875.208 307.179 875.876 306.106 876.336 304.837L881.786 306.413C881.217 308.251 880.254 309.871 878.897 311.272C877.561 312.651 875.898 313.735 873.906 314.523C871.914 315.289 869.681 315.672 867.208 315.672ZM886.594 314.884V278.175H891.979V283.757H892.373C893.051 281.94 894.266 280.474 896.017 279.357C897.79 278.219 899.771 277.65 901.96 277.65C902.376 277.65 902.891 277.661 903.504 277.683C904.117 277.683 904.587 277.694 904.915 277.716V283.429C904.718 283.385 904.281 283.319 903.602 283.232C902.924 283.144 902.201 283.1 901.435 283.1C899.662 283.1 898.075 283.473 896.674 284.217C895.273 284.961 894.168 285.979 893.358 287.27C892.57 288.562 892.176 290.039 892.176 291.703V314.884H886.594ZM922.74 314.884V265.961H952.291V271.215H928.65V287.566H950.715V292.819H928.65V309.63H952.619V314.884H922.74ZM973.844 278.175V282.969H954.866V278.175H973.844ZM960.382 269.442H965.964V304.377C965.964 306.281 966.358 307.682 967.146 308.58C967.934 309.455 969.181 309.893 970.889 309.893C971.261 309.893 971.644 309.871 972.038 309.827C972.454 309.784 972.903 309.718 973.384 309.63L974.566 314.687C974.041 314.884 973.395 315.037 972.629 315.146C971.885 315.278 971.13 315.343 970.364 315.343C967.408 315.343 965.001 314.468 963.14 312.717C961.301 310.966 960.382 308.689 960.382 305.887V269.442ZM984.496 292.819V314.884H978.915V265.961H984.496V283.954H985.022C985.875 282.05 987.156 280.539 988.863 279.423C990.593 278.285 992.902 277.716 995.791 277.716C998.287 277.716 1000.48 278.219 1002.36 279.226C1004.24 280.211 1005.71 281.732 1006.76 283.79C1007.81 285.826 1008.33 288.42 1008.33 291.572V314.884H1002.69V291.966C1002.69 289.032 1001.93 286.767 1000.42 285.169C998.911 283.571 996.82 282.772 994.15 282.772C992.289 282.772 990.636 283.166 989.192 283.954C987.747 284.742 986.598 285.88 985.744 287.369C984.912 288.857 984.496 290.674 984.496 292.819ZM1029.82 315.672C1026.3 315.672 1023.24 314.884 1020.66 313.308C1018.1 311.732 1016.13 309.532 1014.75 306.708C1013.37 303.863 1012.68 300.568 1012.68 296.825C1012.68 293.06 1013.36 289.744 1014.72 286.876C1016.08 284.009 1017.98 281.765 1020.43 280.145C1022.9 278.526 1025.79 277.716 1029.1 277.716C1031 277.716 1032.9 278.033 1034.78 278.668C1036.66 279.303 1038.37 280.331 1039.9 281.754C1041.46 283.177 1042.69 285.06 1043.61 287.402C1044.53 289.744 1044.99 292.622 1044.99 296.037V298.467H1016.69V293.607H1041.94L1039.34 295.446C1039.34 292.994 1038.96 290.816 1038.19 288.912C1037.43 287.008 1036.28 285.508 1034.75 284.414C1033.24 283.319 1031.35 282.772 1029.1 282.772C1026.84 282.772 1024.91 283.33 1023.29 284.447C1021.69 285.541 1020.46 286.975 1019.61 288.748C1018.76 290.521 1018.33 292.425 1018.33 294.461V297.679C1018.33 300.459 1018.81 302.812 1019.77 304.738C1020.74 306.664 1022.08 308.131 1023.81 309.138C1025.54 310.123 1027.55 310.615 1029.82 310.615C1031.29 310.615 1032.62 310.407 1033.83 309.992C1035.03 309.554 1036.07 308.908 1036.95 308.054C1037.82 307.179 1038.49 306.106 1038.95 304.837L1044.4 306.413C1043.83 308.251 1042.87 309.871 1041.51 311.272C1040.18 312.651 1038.51 313.735 1036.52 314.523C1034.53 315.289 1032.3 315.672 1029.82 315.672ZM1049.21 314.884V278.175H1054.59V283.757H1054.99C1055.67 281.94 1056.88 280.474 1058.63 279.357C1060.4 278.219 1062.39 277.65 1064.57 277.65C1064.99 277.65 1065.5 277.661 1066.12 277.683C1066.73 277.683 1067.2 277.694 1067.53 277.716V283.429C1067.33 283.385 1066.89 283.319 1066.22 283.232C1065.54 283.144 1064.81 283.1 1064.05 283.1C1062.28 283.1 1060.69 283.473 1059.29 284.217C1057.89 284.961 1056.78 285.979 1055.97 287.27C1055.18 288.562 1054.79 290.039 1054.79 291.703V314.884H1049.21ZM1084.22 315.672C1080.7 315.672 1077.65 314.884 1075.06 313.308C1072.5 311.732 1070.53 309.532 1069.15 306.708C1067.77 303.863 1067.08 300.568 1067.08 296.825C1067.08 293.06 1067.76 289.744 1069.12 286.876C1070.48 284.009 1072.38 281.765 1074.83 280.145C1077.31 278.526 1080.2 277.716 1083.5 277.716C1085.41 277.716 1087.3 278.033 1089.18 278.668C1091.06 279.303 1092.77 280.331 1094.3 281.754C1095.86 283.177 1097.09 285.06 1098.01 287.402C1098.93 289.744 1099.39 292.622 1099.39 296.037V298.467H1071.09V293.607H1096.34L1093.74 295.446C1093.74 292.994 1093.36 290.816 1092.6 288.912C1091.83 287.008 1090.68 285.508 1089.15 284.414C1087.64 283.319 1085.76 282.772 1083.5 282.772C1081.25 282.772 1079.31 283.33 1077.69 284.447C1076.09 285.541 1074.87 286.975 1074.01 288.748C1073.16 290.521 1072.73 292.425 1072.73 294.461V297.679C1072.73 300.459 1073.21 302.812 1074.18 304.738C1075.14 306.664 1076.49 308.131 1078.21 309.138C1079.94 310.123 1081.95 310.615 1084.22 310.615C1085.69 310.615 1087.02 310.407 1088.23 309.992C1089.43 309.554 1090.47 308.908 1091.35 308.054C1092.22 307.179 1092.89 306.106 1093.35 304.837L1098.8 306.413C1098.23 308.251 1097.27 309.871 1095.91 311.272C1094.58 312.651 1092.91 313.735 1090.92 314.523C1088.93 315.289 1086.7 315.672 1084.22 315.672ZM1126.72 299.911V278.175H1132.31V314.884H1126.72V308.645H1126.33C1125.45 310.506 1124.11 312.093 1122.29 313.406C1120.5 314.72 1118.21 315.365 1115.43 315.343C1113.13 315.343 1111.1 314.851 1109.32 313.866C1107.55 312.859 1106.15 311.327 1105.12 309.269C1104.11 307.212 1103.61 304.618 1103.61 301.488V278.175H1109.19V301.159C1109.19 303.808 1109.95 305.931 1111.46 307.529C1112.99 309.127 1114.93 309.915 1117.27 309.893C1118.67 309.893 1120.09 309.543 1121.54 308.842C1123 308.12 1124.23 307.026 1125.21 305.559C1126.22 304.07 1126.72 302.188 1126.72 299.911ZM1138.43 314.884V278.175H1143.81V283.954H1144.34C1145.1 281.984 1146.34 280.452 1148.05 279.357C1149.76 278.263 1151.8 277.716 1154.19 277.716C1156.6 277.716 1158.6 278.263 1160.2 279.357C1161.82 280.452 1163.08 281.984 1163.97 283.954H1164.37C1165.33 282.05 1166.74 280.539 1168.6 279.423C1170.48 278.285 1172.73 277.716 1175.33 277.716C1178.62 277.716 1181.31 278.744 1183.41 280.802C1185.51 282.838 1186.56 286.012 1186.56 290.324V314.884H1180.91V290.324C1180.91 287.61 1180.17 285.672 1178.68 284.512C1177.19 283.352 1175.44 282.772 1173.43 282.772C1170.87 282.772 1168.88 283.56 1167.45 285.136C1166.05 286.69 1165.35 288.638 1165.35 290.981V314.884H1159.57V289.733C1159.57 287.653 1158.91 285.979 1157.57 284.709C1156.23 283.418 1154.49 282.772 1152.35 282.772C1150.88 282.772 1149.51 283.166 1148.25 283.954C1146.98 284.742 1145.95 285.826 1145.16 287.205C1144.39 288.584 1144.01 290.171 1144.01 291.966V314.884H1138.43ZM1212.92 292.819V314.884H1207.34V265.961H1212.92V283.954H1213.45C1214.3 282.05 1215.58 280.539 1217.29 279.423C1219.02 278.285 1221.33 277.716 1224.22 277.716C1226.71 277.716 1228.9 278.219 1230.79 279.226C1232.67 280.211 1234.13 281.732 1235.19 283.79C1236.24 285.826 1236.76 288.42 1236.76 291.572V314.884H1231.11V291.966C1231.11 289.032 1230.36 286.767 1228.85 285.169C1227.34 283.571 1225.25 282.772 1222.58 282.772C1220.72 282.772 1219.06 283.166 1217.62 283.954C1216.17 284.742 1215.03 285.88 1214.17 287.369C1213.34 288.857 1212.92 290.674 1212.92 292.819ZM1253.65 315.737C1251.33 315.737 1249.22 315.3 1247.32 314.424C1245.41 313.527 1243.9 312.235 1242.78 310.55C1241.67 308.864 1241.11 306.829 1241.11 304.443C1241.11 302.341 1241.53 300.645 1242.36 299.353C1243.19 298.04 1244.29 297.011 1245.67 296.267C1247.07 295.501 1248.61 294.932 1250.27 294.56C1251.96 294.187 1253.65 293.892 1255.36 293.673C1257.59 293.388 1259.4 293.17 1260.78 293.016C1262.18 292.863 1263.2 292.6 1263.83 292.228C1264.49 291.856 1264.82 291.221 1264.82 290.324V290.127C1264.82 287.785 1264.17 285.968 1262.88 284.677C1261.61 283.363 1259.67 282.706 1257.07 282.706C1254.4 282.706 1252.29 283.297 1250.76 284.48C1249.23 285.64 1248.16 286.887 1247.54 288.223L1242.16 286.318C1243.12 284.085 1244.4 282.345 1246 281.098C1247.62 279.85 1249.37 278.974 1251.26 278.471C1253.16 277.967 1255.03 277.716 1256.87 277.716C1258.05 277.716 1259.41 277.858 1260.94 278.143C1262.47 278.405 1263.96 278.974 1265.41 279.85C1266.87 280.704 1268.08 282.006 1269.02 283.757C1269.98 285.486 1270.46 287.807 1270.46 290.718V314.884H1264.82V309.893H1264.55C1264.18 310.681 1263.55 311.535 1262.65 312.454C1261.75 313.352 1260.56 314.129 1259.07 314.785C1257.6 315.42 1255.8 315.737 1253.65 315.737ZM1254.51 310.681C1256.74 310.681 1258.62 310.243 1260.15 309.368C1261.69 308.492 1262.85 307.365 1263.63 305.986C1264.42 304.585 1264.82 303.129 1264.82 301.619V296.431C1264.57 296.716 1264.05 296.978 1263.24 297.219C1262.45 297.438 1261.53 297.635 1260.48 297.81C1259.45 297.985 1258.45 298.138 1257.46 298.27C1256.48 298.379 1255.69 298.467 1255.1 298.532C1253.63 298.729 1252.26 299.047 1250.99 299.485C1249.72 299.901 1248.69 300.524 1247.91 301.356C1247.14 302.188 1246.76 303.326 1246.76 304.771C1246.76 306.719 1247.48 308.197 1248.92 309.204C1250.39 310.189 1252.25 310.681 1254.51 310.681ZM1291.43 315.672C1288.01 315.672 1285.06 314.862 1282.56 313.242C1280.09 311.6 1278.17 309.357 1276.81 306.511C1275.48 303.666 1274.81 300.415 1274.81 296.759C1274.81 293.016 1275.5 289.722 1276.88 286.876C1278.26 284.009 1280.19 281.765 1282.66 280.145C1285.15 278.526 1288.05 277.716 1291.36 277.716C1293.94 277.716 1296.26 278.197 1298.32 279.16C1300.4 280.102 1302.1 281.437 1303.41 283.166C1304.75 284.895 1305.57 286.909 1305.87 289.208H1300.23C1299.94 288.091 1299.43 287.041 1298.68 286.056C1297.94 285.071 1296.95 284.282 1295.73 283.691C1294.52 283.079 1293.09 282.772 1291.43 282.772C1289.24 282.772 1287.32 283.341 1285.68 284.48C1284.04 285.618 1282.76 287.227 1281.84 289.306C1280.92 291.364 1280.46 293.782 1280.46 296.562C1280.46 299.386 1280.91 301.86 1281.81 303.983C1282.7 306.084 1283.97 307.715 1285.61 308.875C1287.28 310.035 1289.21 310.615 1291.43 310.615C1293.64 310.615 1295.53 310.046 1297.11 308.908C1298.68 307.748 1299.72 306.172 1300.23 304.18H1305.87C1305.57 306.347 1304.78 308.295 1303.51 310.024C1302.26 311.754 1300.61 313.133 1298.55 314.161C1296.51 315.168 1294.14 315.672 1291.43 315.672ZM1315.34 301.488L1315.21 294.527H1316.39L1332.42 278.175H1339.38L1322.3 295.512H1321.78L1315.34 301.488ZM1310.09 314.884V265.961H1315.67V314.884H1310.09ZM1333.34 314.884L1319.02 296.759L1323.03 292.819L1340.56 314.884H1333.34ZM1353.18 315.737C1350.86 315.737 1348.75 315.3 1346.84 314.424C1344.94 313.527 1343.43 312.235 1342.31 310.55C1341.2 308.864 1340.64 306.829 1340.64 304.443C1340.64 302.341 1341.06 300.645 1341.89 299.353C1342.72 298.04 1343.82 297.011 1345.2 296.267C1346.6 295.501 1348.14 294.932 1349.8 294.56C1351.49 294.187 1353.18 293.892 1354.89 293.673C1357.12 293.388 1358.93 293.17 1360.31 293.016C1361.71 292.863 1362.73 292.6 1363.36 292.228C1364.02 291.856 1364.35 291.221 1364.35 290.324V290.127C1364.35 287.785 1363.7 285.968 1362.41 284.677C1361.14 283.363 1359.2 282.706 1356.6 282.706C1353.93 282.706 1351.82 283.297 1350.29 284.48C1348.76 285.64 1347.69 286.887 1347.07 288.223L1341.69 286.318C1342.65 284.085 1343.93 282.345 1345.53 281.098C1347.15 279.85 1348.9 278.974 1350.78 278.471C1352.69 277.967 1354.56 277.716 1356.4 277.716C1357.58 277.716 1358.94 277.858 1360.47 278.143C1362 278.405 1363.49 278.974 1364.94 279.85C1366.4 280.704 1367.61 282.006 1368.55 283.757C1369.51 285.486 1369.99 287.807 1369.99 290.718V314.884H1364.35V309.893H1364.08C1363.71 310.681 1363.08 311.535 1362.18 312.454C1361.28 313.352 1360.09 314.129 1358.6 314.785C1357.13 315.42 1355.33 315.737 1353.18 315.737ZM1354.04 310.681C1356.27 310.681 1358.15 310.243 1359.68 309.368C1361.22 308.492 1362.38 307.365 1363.16 305.986C1363.95 304.585 1364.35 303.129 1364.35 301.619V296.431C1364.1 296.716 1363.58 296.978 1362.77 297.219C1361.98 297.438 1361.06 297.635 1360.01 297.81C1358.98 297.985 1357.98 298.138 1356.99 298.27C1356.01 298.379 1355.22 298.467 1354.63 298.532C1353.16 298.729 1351.79 299.047 1350.52 299.485C1349.25 299.901 1348.22 300.524 1347.44 301.356C1346.67 302.188 1346.29 303.326 1346.29 304.771C1346.29 306.719 1347.01 308.197 1348.45 309.204C1349.92 310.189 1351.78 310.681 1354.04 310.681ZM1392.01 278.175V282.969H1373.03V278.175H1392.01ZM1378.54 269.442H1384.13V304.377C1384.13 306.281 1384.52 307.682 1385.31 308.58C1386.1 309.455 1387.34 309.893 1389.05 309.893C1389.42 309.893 1389.81 309.871 1390.2 309.827C1390.62 309.784 1391.06 309.718 1391.55 309.63L1392.73 314.687C1392.2 314.884 1391.56 315.037 1390.79 315.146C1390.05 315.278 1389.29 315.343 1388.53 315.343C1385.57 315.343 1383.16 314.468 1381.3 312.717C1379.46 310.966 1378.54 308.689 1378.54 305.887V269.442ZM1402.66 292.819V314.884H1397.08V265.961H1402.66V283.954H1403.18C1404.04 282.05 1405.32 280.539 1407.03 279.423C1408.75 278.285 1411.06 277.716 1413.95 277.716C1416.45 277.716 1418.64 278.219 1420.52 279.226C1422.4 280.211 1423.87 281.732 1424.92 283.79C1425.97 285.826 1426.5 288.42 1426.5 291.572V314.884H1420.85V291.966C1420.85 289.032 1420.09 286.767 1418.58 285.169C1417.07 283.571 1414.98 282.772 1412.31 282.772C1410.45 282.772 1408.8 283.166 1407.35 283.954C1405.91 284.742 1404.76 285.88 1403.91 287.369C1403.07 288.857 1402.66 290.674 1402.66 292.819ZM1447.46 315.672C1444.15 315.672 1441.25 314.884 1438.76 313.308C1436.26 311.732 1434.31 309.521 1432.91 306.675C1431.53 303.83 1430.84 300.524 1430.84 296.759C1430.84 292.929 1431.53 289.591 1432.91 286.745C1434.31 283.878 1436.26 281.656 1438.76 280.08C1441.25 278.504 1444.15 277.716 1447.46 277.716C1450.79 277.716 1453.7 278.504 1456.19 280.08C1458.69 281.656 1460.64 283.878 1462.04 286.745C1463.44 289.591 1464.14 292.929 1464.14 296.759C1464.14 300.524 1463.44 303.83 1462.04 306.675C1460.64 309.521 1458.69 311.732 1456.19 313.308C1453.7 314.884 1450.79 315.672 1447.46 315.672ZM1447.46 310.615C1450 310.615 1452.08 309.97 1453.7 308.678C1455.32 307.387 1456.52 305.69 1457.31 303.589C1458.1 301.466 1458.49 299.189 1458.49 296.759C1458.49 294.286 1458.1 291.988 1457.31 289.864C1456.52 287.741 1455.32 286.034 1453.7 284.742C1452.08 283.429 1450 282.772 1447.46 282.772C1444.96 282.772 1442.91 283.429 1441.29 284.742C1439.67 286.034 1438.46 287.741 1437.67 289.864C1436.89 291.988 1436.49 294.286 1436.49 296.759C1436.49 299.189 1436.89 301.466 1437.67 303.589C1438.46 305.69 1439.67 307.387 1441.29 308.678C1442.91 309.97 1444.96 310.615 1447.46 310.615ZM1474.07 292.819V314.884H1468.49V278.175H1473.87V283.954H1474.4C1475.25 282.072 1476.55 280.561 1478.3 279.423C1480.05 278.285 1482.32 277.716 1485.1 277.716C1487.57 277.716 1489.74 278.219 1491.6 279.226C1493.46 280.233 1494.91 281.765 1495.94 283.823C1496.99 285.859 1497.51 288.441 1497.51 291.572V314.884H1491.93V291.966C1491.93 289.098 1491.17 286.854 1489.66 285.235C1488.15 283.593 1486.1 282.772 1483.49 282.772C1481.7 282.772 1480.09 283.166 1478.66 283.954C1477.24 284.742 1476.11 285.88 1475.28 287.369C1474.47 288.857 1474.07 290.674 1474.07 292.819ZM1518.29 314.884V278.175H1523.87V314.884H1518.29ZM1521.11 272.068C1520.02 272.068 1519.08 271.696 1518.29 270.952C1517.5 270.208 1517.11 269.31 1517.11 268.26C1517.11 267.209 1517.5 266.311 1518.29 265.567C1519.08 264.823 1520.02 264.451 1521.11 264.451C1522.21 264.451 1523.15 264.823 1523.94 265.567C1524.73 266.311 1525.12 267.209 1525.12 268.26C1525.12 269.31 1524.73 270.208 1523.94 270.952C1523.15 271.696 1522.21 272.068 1521.11 272.068ZM1535.58 292.819V314.884H1529.99V278.175H1535.38V283.954H1535.9C1536.76 282.072 1538.06 280.561 1539.81 279.423C1541.56 278.285 1543.83 277.716 1546.61 277.716C1549.08 277.716 1551.25 278.219 1553.11 279.226C1554.97 280.233 1556.41 281.765 1557.44 283.823C1558.49 285.859 1559.02 288.441 1559.02 291.572V314.884H1553.44V291.966C1553.44 289.098 1552.68 286.854 1551.17 285.235C1549.66 283.593 1547.6 282.772 1545 282.772C1543.2 282.772 1541.6 283.166 1540.17 283.954C1538.75 284.742 1537.62 285.88 1536.79 287.369C1535.98 288.857 1535.58 290.674 1535.58 292.819ZM1580.52 265.961H1587.61L1604.23 306.544H1604.82L1621.43 265.961H1628.75V314.884H1622.94V277.716H1622.48L1607.08 314.884H1601.76L1586.56 277.716H1586.1V314.884H1580.52V265.961ZM1658.75 299.911V278.175H1664.33V314.884H1658.75V308.645H1658.35C1657.48 310.506 1656.13 312.093 1654.31 313.406C1652.52 314.72 1650.23 315.365 1647.45 315.343C1645.15 315.343 1643.12 314.851 1641.34 313.866C1639.57 312.859 1638.17 311.327 1637.14 309.269C1636.13 307.212 1635.63 304.618 1635.63 301.488V278.175H1641.21V301.159C1641.21 303.808 1641.97 305.931 1643.48 307.529C1645.01 309.127 1646.95 309.915 1649.29 309.893C1650.69 309.893 1652.11 309.543 1653.56 308.842C1655.02 308.12 1656.25 307.026 1657.24 305.559C1658.24 304.07 1658.75 302.188 1658.75 299.911ZM1670.45 314.884V278.175H1675.83V283.954H1676.36C1677.13 281.984 1678.36 280.452 1680.07 279.357C1681.78 278.263 1683.82 277.716 1686.21 277.716C1688.62 277.716 1690.62 278.263 1692.22 279.357C1693.84 280.452 1695.1 281.984 1695.99 283.954H1696.39C1697.35 282.05 1698.76 280.539 1700.62 279.423C1702.51 278.285 1704.75 277.716 1707.35 277.716C1710.64 277.716 1713.33 278.744 1715.43 280.802C1717.53 282.838 1718.58 286.012 1718.58 290.324V314.884H1712.94V290.324C1712.94 287.61 1712.19 285.672 1710.7 284.512C1709.22 283.352 1707.46 282.772 1705.45 282.772C1702.89 282.772 1700.9 283.56 1699.47 285.136C1698.07 286.69 1697.37 288.638 1697.37 290.981V314.884H1691.59V289.733C1691.59 287.653 1690.93 285.979 1689.59 284.709C1688.26 283.418 1686.52 282.772 1684.37 282.772C1682.9 282.772 1681.54 283.166 1680.27 283.954C1679 284.742 1677.97 285.826 1677.18 287.205C1676.41 288.584 1676.03 290.171 1676.03 291.966V314.884H1670.45ZM1741.45 315.672C1739.11 315.672 1737.23 315.278 1735.8 314.49C1734.38 313.68 1733.29 312.771 1732.52 311.765C1731.75 310.736 1731.16 309.893 1730.75 309.236H1730.09V314.884H1724.71V265.961H1730.29V284.02H1730.75C1731.16 283.385 1731.74 282.575 1732.49 281.59C1733.23 280.583 1734.3 279.686 1735.7 278.898C1737.11 278.11 1739 277.716 1741.38 277.716C1744.47 277.716 1747.19 278.493 1749.53 280.047C1751.87 281.579 1753.7 283.768 1755.01 286.614C1756.35 289.437 1757.01 292.776 1757.01 296.628C1757.01 300.502 1756.36 303.873 1755.04 306.741C1753.73 309.587 1751.9 311.786 1749.56 313.341C1747.22 314.895 1744.52 315.672 1741.45 315.672ZM1740.73 310.615C1743.07 310.615 1745.03 309.992 1746.61 308.744C1748.18 307.474 1749.36 305.778 1750.15 303.655C1750.96 301.531 1751.37 299.167 1751.37 296.562C1751.37 293.979 1750.97 291.648 1750.18 289.569C1749.4 287.489 1748.21 285.837 1746.64 284.611C1745.08 283.385 1743.11 282.772 1740.73 282.772C1738.43 282.772 1736.5 283.352 1734.95 284.512C1733.4 285.651 1732.21 287.259 1731.4 289.339C1730.62 291.397 1730.22 293.804 1730.22 296.562C1730.22 299.32 1730.63 301.761 1731.44 303.884C1732.25 305.986 1733.43 307.638 1734.98 308.842C1736.56 310.024 1738.47 310.615 1740.73 310.615ZM1772.13 315.737C1769.81 315.737 1767.7 315.3 1765.79 314.424C1763.89 313.527 1762.38 312.235 1761.26 310.55C1760.15 308.864 1759.59 306.829 1759.59 304.443C1759.59 302.341 1760.01 300.645 1760.84 299.353C1761.67 298.04 1762.77 297.011 1764.15 296.267C1765.55 295.501 1767.09 294.932 1768.75 294.56C1770.44 294.187 1772.13 293.892 1773.84 293.673C1776.07 293.388 1777.88 293.17 1779.26 293.016C1780.66 292.863 1781.68 292.6 1782.31 292.228C1782.97 291.856 1783.3 291.221 1783.3 290.324V290.127C1783.3 287.785 1782.65 285.968 1781.36 284.677C1780.09 283.363 1778.15 282.706 1775.55 282.706C1772.88 282.706 1770.77 283.297 1769.24 284.48C1767.71 285.64 1766.64 286.887 1766.02 288.223L1760.64 286.318C1761.6 284.085 1762.88 282.345 1764.48 281.098C1766.1 279.85 1767.85 278.974 1769.73 278.471C1771.64 277.967 1773.51 277.716 1775.35 277.716C1776.53 277.716 1777.89 277.858 1779.42 278.143C1780.95 278.405 1782.44 278.974 1783.89 279.85C1785.35 280.704 1786.56 282.006 1787.5 283.757C1788.46 285.486 1788.94 287.807 1788.94 290.718V314.884H1783.3V309.893H1783.03C1782.66 310.681 1782.03 311.535 1781.13 312.454C1780.23 313.352 1779.04 314.129 1777.55 314.785C1776.08 315.42 1774.28 315.737 1772.13 315.737ZM1772.99 310.681C1775.22 310.681 1777.1 310.243 1778.63 309.368C1780.17 308.492 1781.33 307.365 1782.11 305.986C1782.9 304.585 1783.3 303.129 1783.3 301.619V296.431C1783.05 296.716 1782.53 296.978 1781.72 297.219C1780.93 297.438 1780.01 297.635 1778.96 297.81C1777.93 297.985 1776.93 298.138 1775.94 298.27C1774.96 298.379 1774.17 298.467 1773.58 298.532C1772.11 298.729 1770.74 299.047 1769.47 299.485C1768.2 299.901 1767.17 300.524 1766.39 301.356C1765.62 302.188 1765.24 303.326 1765.24 304.771C1765.24 306.719 1765.96 308.197 1767.4 309.204C1768.87 310.189 1770.73 310.681 1772.99 310.681ZM1795.06 314.884V278.175H1800.65V314.884H1795.06ZM1797.89 272.068C1796.79 272.068 1795.85 271.696 1795.06 270.952C1794.28 270.208 1793.88 269.31 1793.88 268.26C1793.88 267.209 1794.28 266.311 1795.06 265.567C1795.85 264.823 1796.79 264.451 1797.89 264.451C1798.98 264.451 1799.92 264.823 1800.71 265.567C1801.5 266.311 1801.89 267.209 1801.89 268.26C1801.89 269.31 1801.5 270.208 1800.71 270.952C1799.92 271.696 1798.98 272.068 1797.89 272.068Z" fill="#F3F3F3"/>
<path d="M174.066 48V154.713L85 195.006L174.066 48Z" fill="#62D0FC"/>
<path d="M263.097 195.006L174.066 154.713V48L263.097 195.006Z" fill="#1EABE4"/>
<path d="M174.066 247.352V154.713L85 195.006L174.066 247.352Z" fill="#1EABE4"/>
<path d="M263.097 195.006L174.066 154.713V247.352L263.097 195.006Z" fill="#0075A5"/>
<path d="M229.051 229.603H119.064L174.083 262.149L229.051 229.603Z" fill="#E91F25"/>
<path d="M263.168 211.795L174.066 264.141V336.616L263.168 211.795Z" fill="#1EABE4"/>
<path d="M85 211.795L174.066 264.141V336.616L85 211.795Z" fill="#62D0FC"/>
<path d="M229.02 146.182H119.141V206.826H229.02V146.182Z" fill="#E91F25"/>
<path d="M229.014 146.182H174.092V206.826H229.014V146.182Z" fill="#BF0613"/>
<path d="M125.897 152.701H169.639C170.37 152.701 170.96 153.291 170.96 154.015V180.699H125.897C125.166 180.699 124.576 180.109 124.576 179.385V154.018C124.576 153.291 125.169 152.704 125.897 152.704V152.701Z" fill="black"/>
<path d="M178.661 152.701H222.403C223.134 152.701 223.724 153.291 223.724 154.015V179.382C223.724 180.109 223.131 180.696 222.403 180.696H177.34V154.012C177.34 153.285 177.933 152.698 178.661 152.698V152.701Z" fill="black"/>
<path d="M125.938 183.771H170.957V194.937C170.957 195.687 170.343 196.297 169.589 196.297H125.938C125.184 196.297 124.57 195.687 124.57 194.937V185.129C124.57 184.379 125.184 183.769 125.938 183.769V183.771Z" fill="black"/>
<path d="M177.34 183.771H222.356C223.11 183.771 223.724 184.382 223.724 185.132V194.934C223.724 195.684 223.11 196.294 222.356 196.294H178.708C177.953 196.294 177.34 195.684 177.34 194.934V183.769V183.771Z" fill="black"/>
<path fill-rule="evenodd" clip-rule="evenodd" d="M119.106 146.353L229.03 146.324C228.748 141.01 229.526 136.277 224.912 133.1C220.926 130.359 216.118 129.389 210.43 128.464C191.381 125.366 157.219 125.363 138.135 128.452C133.063 129.272 126.97 130.484 123.568 133.013C120.187 135.527 118.807 139.918 119.104 146.35L119.106 146.353Z" fill="white"/>
<path fill-rule="evenodd" clip-rule="evenodd" d="M174.076 146.339L229.03 146.324C228.749 141.01 229.526 136.277 224.912 133.1C220.927 130.359 216.119 129.389 210.431 128.464C200.906 126.913 187.372 126.14 174.064 126.137L174.073 146.336L174.076 146.339Z" fill="#E3E6E8"/>
<path d="M179.561 132.59H145.657C145.007 132.59 144.48 133.114 144.48 133.761V140.432C144.48 141.079 145.007 141.603 145.657 141.603H179.561C180.211 141.603 180.738 141.079 180.738 140.432V133.761C180.738 133.114 180.211 132.59 179.561 132.59Z" fill="#020100"/>
<path d="M204.076 131.294H195.056C194.406 131.294 193.879 131.818 193.879 132.465V141.726C193.879 142.373 194.406 142.897 195.056 142.897H204.076C204.726 142.897 205.252 142.373 205.252 141.726V132.465C205.252 131.818 204.726 131.294 204.076 131.294Z" fill="#020100"/>
<path fill-rule="evenodd" clip-rule="evenodd" d="M229.035 214.958L216.743 215.495C203.198 216.088 190.72 218.047 183.057 228.999L174.067 241.843L165.082 228.988C157.395 217.989 144.859 216.015 131.258 215.457L119.133 214.958V206.596H229.035V214.958Z" fill="#FBCE01"/>
<path fill-rule="evenodd" clip-rule="evenodd" d="M174.087 206.596H229.035V214.958L216.743 215.495C203.197 216.088 190.72 218.047 183.057 228.999L174.066 241.843L174.087 206.596Z" fill="#F9BE03"/>
<path d="M183.801 213.915H164.365C163.878 213.915 163.484 213.524 163.484 213.039C163.484 212.554 163.878 212.163 164.365 212.163H183.801C184.288 212.163 184.682 212.554 184.682 213.039C184.682 213.524 184.288 213.915 183.801 213.915Z" fill="black"/>
<path d="M183.801 218.493H164.365C163.878 218.493 163.484 218.102 163.484 217.617C163.484 217.132 163.878 216.741 164.365 216.741H183.801C184.288 216.741 184.682 217.132 184.682 217.617C184.682 218.102 184.288 218.493 183.801 218.493Z" fill="black"/>
<path d="M183.801 223.072H164.365C163.878 223.072 163.484 222.681 163.484 222.196C163.484 221.712 163.878 221.32 164.365 221.32H183.801C184.288 221.32 184.682 221.712 184.682 222.196C184.682 222.681 184.288 223.072 183.801 223.072Z" fill="black"/>
<path d="M229.02 203.104H119.141V208.015H229.02V203.104Z" fill="#029D3D"/>
<path d="M229.035 203.104H174.078V208.015H229.035V203.104Z" fill="#07702C"/>
<path d="M150.359 229.05C152.564 229.05 154.351 227.272 154.351 225.079C154.351 222.886 152.564 221.108 150.359 221.108C148.154 221.108 146.367 222.886 146.367 225.079C146.367 227.272 148.154 229.05 150.359 229.05Z" fill="white"/>
<path d="M197.802 229.05C200.007 229.05 201.794 227.272 201.794 225.079C201.794 222.886 200.007 221.108 197.802 221.108C195.598 221.108 193.811 222.886 193.811 225.079C193.811 227.272 195.598 229.05 197.802 229.05Z" fill="white"/>
<path d="M117.352 168.686H110.895C109.879 168.686 109.055 169.505 109.055 170.516V181.594C109.055 182.605 109.879 183.425 110.895 183.425H117.352C118.369 183.425 119.193 182.605 119.193 181.594V170.516C119.193 169.505 118.369 168.686 117.352 168.686Z" fill="#020100"/>
<path d="M237.259 168.686H230.801C229.785 168.686 228.961 169.505 228.961 170.516V181.594C228.961 182.605 229.785 183.425 230.801 183.425H237.259C238.275 183.425 239.099 182.605 239.099 181.594V170.516C239.099 169.505 238.275 168.686 237.259 168.686Z" fill="#020100"/>
<path d="M2305.15 48V154.713L2216.08 195.006L2305.15 48Z" fill="#62D0FC"/>
<path d="M2394.18 195.006L2305.15 154.713V48L2394.18 195.006Z" fill="#1EABE4"/>
<path d="M2305.15 247.352V154.713L2216.08 195.006L2305.15 247.352Z" fill="#1EABE4"/>
<path d="M2394.18 195.006L2305.15 154.713V247.352L2394.18 195.006Z" fill="#0075A5"/>
<path d="M2360.13 229.603H2250.15L2305.17 262.149L2360.13 229.603Z" fill="#E91F25"/>
<path d="M2394.25 211.795L2305.15 264.141V336.616L2394.25 211.795Z" fill="#1EABE4"/>
<path d="M2216.08 211.795L2305.15 264.141V336.616L2216.08 211.795Z" fill="#62D0FC"/>
<path d="M2360.1 146.182H2250.22V206.826H2360.1V146.182Z" fill="#E91F25"/>
<path d="M2360.09 146.182H2305.17V206.826H2360.09V146.182Z" fill="#BF0613"/>
<path d="M2256.98 152.701H2300.72C2301.45 152.701 2302.04 153.291 2302.04 154.015V180.699H2256.98C2256.25 180.699 2255.66 180.109 2255.66 179.385V154.018C2255.66 153.291 2256.25 152.704 2256.98 152.704V152.701Z" fill="black"/>
<path d="M2309.74 152.701H2353.48C2354.22 152.701 2354.81 153.291 2354.81 154.015V179.382C2354.81 180.109 2354.21 180.696 2353.48 180.696H2308.42V154.012C2308.42 153.285 2309.01 152.698 2309.74 152.698V152.701Z" fill="black"/>
<path d="M2257.02 183.771H2302.04V194.937C2302.04 195.687 2301.42 196.297 2300.67 196.297H2257.02C2256.26 196.297 2255.65 195.687 2255.65 194.937V185.129C2255.65 184.379 2256.26 183.769 2257.02 183.769V183.771Z" fill="black"/>
<path d="M2308.42 183.771H2353.44C2354.19 183.771 2354.81 184.382 2354.81 185.132V194.934C2354.81 195.684 2354.19 196.294 2353.44 196.294H2309.79C2309.04 196.294 2308.42 195.684 2308.42 194.934V183.769V183.771Z" fill="black"/>
<path fill-rule="evenodd" clip-rule="evenodd" d="M2250.19 146.353L2360.11 146.324C2359.83 141.01 2360.61 136.277 2355.99 133.1C2352.01 130.359 2347.2 129.389 2341.51 128.464C2322.46 125.366 2288.3 125.363 2269.22 128.452C2264.15 129.272 2258.05 130.484 2254.65 133.013C2251.27 135.527 2249.89 139.918 2250.19 146.35L2250.19 146.353Z" fill="white"/>
<path fill-rule="evenodd" clip-rule="evenodd" d="M2305.15 146.339L2360.11 146.324C2359.83 141.01 2360.6 136.277 2355.99 133.1C2352 130.359 2347.2 129.389 2341.51 128.464C2331.98 126.913 2318.45 126.14 2305.14 126.137L2305.15 146.336L2305.15 146.339Z" fill="#E3E6E8"/>
<path d="M2310.64 132.59H2276.74C2276.09 132.59 2275.56 133.114 2275.56 133.761V140.432C2275.56 141.079 2276.09 141.603 2276.74 141.603H2310.64C2311.29 141.603 2311.82 141.079 2311.82 140.432V133.761C2311.82 133.114 2311.29 132.59 2310.64 132.59Z" fill="#020100"/>
<path d="M2335.15 131.294H2326.13C2325.48 131.294 2324.96 131.818 2324.96 132.465V141.726C2324.96 142.373 2325.48 142.897 2326.13 142.897H2335.15C2335.8 142.897 2336.33 142.373 2336.33 141.726V132.465C2336.33 131.818 2335.8 131.294 2335.15 131.294Z" fill="#020100"/>
<path fill-rule="evenodd" clip-rule="evenodd" d="M2360.11 214.958L2347.82 215.495C2334.28 216.088 2321.8 218.047 2314.13 228.999L2305.14 241.843L2296.16 228.988C2288.47 217.989 2275.94 216.015 2262.34 215.457L2250.21 214.958V206.596H2360.11V214.958Z" fill="#FBCE01"/>
<path fill-rule="evenodd" clip-rule="evenodd" d="M2305.17 206.596H2360.12V214.958L2347.83 215.495C2334.28 216.088 2321.8 218.047 2314.14 228.999L2305.15 241.843L2305.17 206.596Z" fill="#F9BE03"/>
<path d="M2314.88 213.915H2295.44C2294.96 213.915 2294.56 213.524 2294.56 213.039C2294.56 212.554 2294.96 212.163 2295.44 212.163H2314.88C2315.37 212.163 2315.76 212.554 2315.76 213.039C2315.76 213.524 2315.37 213.915 2314.88 213.915Z" fill="black"/>
<path d="M2314.88 218.493H2295.44C2294.96 218.493 2294.56 218.102 2294.56 217.617C2294.56 217.132 2294.96 216.741 2295.44 216.741H2314.88C2315.37 216.741 2315.76 217.132 2315.76 217.617C2315.76 218.102 2315.37 218.493 2314.88 218.493Z" fill="black"/>
<path d="M2314.88 223.072H2295.44C2294.96 223.072 2294.56 222.681 2294.56 222.196C2294.56 221.712 2294.96 221.32 2295.44 221.32H2314.88C2315.37 221.32 2315.76 221.712 2315.76 222.196C2315.76 222.681 2315.37 223.072 2314.88 223.072Z" fill="black"/>
<path d="M2360.1 203.104H2250.22V208.015H2360.1V203.104Z" fill="#029D3D"/>
<path d="M2360.12 203.104H2305.16V208.015H2360.12V203.104Z" fill="#07702C"/>
<path d="M2281.44 229.05C2283.65 229.05 2285.43 227.272 2285.43 225.079C2285.43 222.886 2283.65 221.108 2281.44 221.108C2279.24 221.108 2277.45 222.886 2277.45 225.079C2277.45 227.272 2279.24 229.05 2281.44 229.05Z" fill="white"/>
<path d="M2328.88 229.05C2331.09 229.05 2332.88 227.272 2332.88 225.079C2332.88 222.886 2331.09 221.108 2328.88 221.108C2326.68 221.108 2324.89 222.886 2324.89 225.079C2324.89 227.272 2326.68 229.05 2328.88 229.05Z" fill="white"/>
<path d="M2248.43 168.686H2241.98C2240.96 168.686 2240.14 169.505 2240.14 170.516V181.594C2240.14 182.605 2240.96 183.425 2241.98 183.425H2248.43C2249.45 183.425 2250.27 182.605 2250.27 181.594V170.516C2250.27 169.505 2249.45 168.686 2248.43 168.686Z" fill="#020100"/>
<path d="M2368.34 168.686H2361.88C2360.86 168.686 2360.04 169.505 2360.04 170.516V181.594C2360.04 182.605 2360.86 183.425 2361.88 183.425H2368.34C2369.35 183.425 2370.18 182.605 2370.18 181.594V170.516C2370.18 169.505 2369.35 168.686 2368.34 168.686Z" fill="#020100"/>
</svg>
