<svg width="876" height="496" viewBox="0 0 876 496" fill="none" xmlns="http://www.w3.org/2000/svg">
<path d="M874.61 470.72L841.272 427.049H41.6162L1.00391 470.72H874.61Z" fill="#D9D9D9" stroke="black" stroke-width="0.875648"/>
<rect width="875.496" height="139.634" fill="#E2231A"/>
<rect x="52.2556" y="164.477" width="777.838" height="215.019" fill="#E1E1E1"/>
<rect y="471.157" width="95.0881" height="24.8428" fill="#FFD600"/>
<rect x="95.0881" y="471.157" width="95.0881" height="24.8428" fill="#484848"/>
<rect x="190.176" y="471.157" width="95.0881" height="24.8428" fill="#FFD600"/>
<rect x="285.264" y="471.157" width="95.0881" height="24.8428" fill="#484848"/>
<rect x="380.352" y="471.157" width="95.0881" height="24.8428" fill="#FFD600"/>
<rect x="475.44" y="471.157" width="95.0881" height="24.8428" fill="#484848"/>
<rect x="570.529" y="471.157" width="95.0881" height="24.8428" fill="#FFD600"/>
<rect x="665.616" y="471.157" width="95.0881" height="24.8428" fill="#484848"/>
<rect x="760.705" y="471.157" width="95.0881" height="24.8428" fill="#FFD600"/>
<rect x="855.793" y="471.157" width="19.7029" height="24.8428" fill="#484848"/>
<rect x="44.127" y="164.915" width="7.69085" height="270.682" fill="#868585" stroke="black" stroke-width="0.875648"/>
<rect x="13.2876" y="140.072" width="7.69085" height="325.508" fill="#C5C5C5" stroke="black" stroke-width="0.875648"/>
<rect x="851.947" y="140.072" width="7.69085" height="325.508" fill="#C5C5C5" stroke="black" stroke-width="0.875648"/>
<rect x="44.127" y="156.348" width="794.095" height="7.69085" fill="#868585" stroke="black" stroke-width="0.875648"/>
<rect x="306.262" y="157.205" width="7.69085" height="278.392" fill="#868585" stroke="black" stroke-width="0.875648"/>
<rect x="830.563" y="156.086" width="7.69085" height="278.392" fill="#868585" stroke="black" stroke-width="0.875648"/>
<rect x="568.396" y="157.205" width="7.69085" height="278.392" fill="#868585" stroke="black" stroke-width="0.875648"/>
<path d="M852.101 139.857L834.428 156.115H49.6554L30.3263 139.857H852.101Z" fill="#726E6E" stroke="black" stroke-width="0.875648"/>
<rect x="61.2217" y="176.977" width="234.793" height="188.813" rx="26.2694" fill="#3FA9F5"/>
<rect x="323.749" y="176.977" width="234.793" height="188.813" rx="26.2694" fill="#3FA9F5"/>
<rect x="586.276" y="176.977" width="234.793" height="188.813" rx="26.2694" fill="#3FA9F5"/>
<rect x="340.528" y="391.07" width="203.007" height="10.2608" fill="#E6E6E6" stroke="black" stroke-width="0.875648"/>
<rect x="350.807" y="409.06" width="183.304" height="3.4076" fill="#E6E6E6" stroke="black" stroke-width="0.875648"/>
<rect x="350.807" y="418.483" width="183.304" height="3.4076" fill="#E6E6E6" stroke="black" stroke-width="0.875648"/>
<rect x="349.951" y="402.206" width="10.2608" height="47.9534" fill="#E6E6E6" stroke="black" stroke-width="0.875648"/>
<rect x="524.707" y="402.206" width="10.2608" height="47.9534" fill="#E6E6E6" stroke="black" stroke-width="0.875648"/>
<path d="M110.76 283.322V275.046L130.169 257.028C131.829 255.441 133.221 254.013 134.344 252.744C135.467 251.45 136.321 250.192 136.907 248.972C137.493 247.726 137.786 246.384 137.786 244.943C137.786 243.332 137.42 241.953 136.687 240.805C135.955 239.658 134.966 238.766 133.721 238.132C132.476 237.497 131.048 237.18 129.436 237.18C127.776 237.18 126.324 237.521 125.078 238.205C123.833 238.864 122.869 239.828 122.185 241.098C121.526 242.343 121.197 243.845 121.197 245.602H110.21C110.21 242.014 111.016 238.913 112.627 236.301C114.263 233.664 116.534 231.625 119.439 230.185C122.368 228.745 125.738 228.024 129.546 228.024C133.428 228.024 136.822 228.72 139.727 230.112C142.632 231.479 144.89 233.383 146.502 235.825C148.113 238.242 148.919 241.037 148.919 244.211C148.919 246.262 148.516 248.288 147.71 250.29C146.905 252.267 145.476 254.489 143.426 256.955C141.375 259.396 138.47 262.314 134.71 265.707L126.726 273.508V273.911H149.651V283.322H110.76ZM177.201 284.055C172.563 284.055 168.595 282.956 165.3 280.759C162.028 278.537 159.513 275.351 157.756 271.201C156.022 267.026 155.156 261.984 155.156 256.076C155.156 250.192 156.034 245.163 157.792 240.988C159.55 236.789 162.065 233.578 165.336 231.357C168.632 229.135 172.587 228.024 177.201 228.024C181.84 228.024 185.795 229.135 189.067 231.357C192.363 233.578 194.877 236.777 196.611 240.952C198.368 245.126 199.247 250.168 199.247 256.076C199.247 261.984 198.381 267.026 196.647 271.201C194.914 275.351 192.399 278.537 189.103 280.759C185.832 282.956 181.865 284.055 177.201 284.055ZM177.201 274.533C179.423 274.533 181.291 273.825 182.804 272.409C184.343 270.969 185.502 268.869 186.283 266.11C187.089 263.351 187.492 260.007 187.492 256.076C187.492 252.121 187.089 248.764 186.283 246.005C185.502 243.246 184.343 241.147 182.804 239.706C181.291 238.242 179.423 237.509 177.201 237.509C173.906 237.509 171.366 239.133 169.584 242.38C167.802 245.602 166.911 250.168 166.911 256.076C166.911 260.007 167.302 263.351 168.083 266.11C168.888 268.869 170.06 270.969 171.598 272.409C173.136 273.825 175.004 274.533 177.201 274.533ZM204.385 273.727V264.682L227.127 228.757H234.964V241.354H230.313L215.958 264.059V264.499H248.367V273.727H204.385ZM230.533 283.322V270.981L230.753 266.916V228.757H241.592V283.322H230.533Z" fill="white"/>
<path d="M417.378 284.055C414.595 284.055 411.897 283.591 409.285 282.663C406.672 281.735 404.341 280.234 402.29 278.159C400.239 276.083 398.604 273.337 397.383 269.919C396.187 266.476 395.588 262.265 395.588 257.285C395.588 252.695 396.101 248.593 397.127 244.98C398.176 241.367 399.666 238.303 401.594 235.788C403.547 233.249 405.891 231.32 408.626 230.002C411.36 228.683 414.412 228.024 417.781 228.024C421.419 228.024 424.629 228.732 427.412 230.148C430.195 231.564 432.429 233.481 434.114 235.898C435.823 238.315 436.848 241.013 437.19 243.991H425.874C425.435 242.087 424.495 240.598 423.054 239.523C421.614 238.449 419.856 237.912 417.781 237.912C414.216 237.912 411.506 239.462 409.651 242.563C407.82 245.639 406.904 249.826 406.904 255.124H407.271C408.101 253.513 409.199 252.133 410.567 250.986C411.958 249.838 413.545 248.959 415.327 248.349C417.109 247.739 418.989 247.433 420.967 247.433C424.214 247.433 427.095 248.19 429.609 249.704C432.149 251.218 434.138 253.305 435.579 255.966C437.044 258.603 437.776 261.63 437.776 265.048C437.776 268.735 436.909 272.018 435.176 274.899C433.467 277.756 431.087 280.002 428.035 281.638C424.983 283.249 421.431 284.055 417.378 284.055ZM417.305 274.973C419.087 274.973 420.674 274.557 422.066 273.727C423.457 272.873 424.556 271.713 425.361 270.248C426.192 268.784 426.607 267.148 426.607 265.341C426.607 263.535 426.204 261.911 425.398 260.471C424.592 259.03 423.494 257.895 422.102 257.065C420.735 256.21 419.16 255.783 417.378 255.783C415.62 255.783 414.033 256.223 412.617 257.101C411.201 257.956 410.078 259.116 409.248 260.58C408.442 262.021 408.04 263.62 408.04 265.378C408.04 267.136 408.442 268.747 409.248 270.212C410.054 271.677 411.152 272.836 412.544 273.691C413.96 274.545 415.547 274.973 417.305 274.973ZM442.914 273.727V264.682L465.656 228.757H473.493V241.354H468.842L454.486 264.059V264.499H486.896V273.727H442.914ZM469.062 283.322V270.981L469.281 266.916V228.757H480.121V283.322H469.062Z" fill="white"/>
<path d="M630.712 290.134V221.945H635.07V290.134H630.712ZM632.909 284.091C628.515 284.091 624.682 283.42 621.41 282.077C618.163 280.734 615.624 278.732 613.793 276.071C611.986 273.41 611.034 270.114 610.936 266.183H622.069C622.216 267.99 622.753 269.516 623.681 270.761C624.608 271.982 625.853 272.897 627.416 273.508C628.978 274.118 630.773 274.423 632.799 274.423C634.752 274.423 636.449 274.142 637.89 273.581C639.354 273.019 640.478 272.238 641.259 271.237C642.064 270.212 642.467 269.028 642.467 267.685C642.467 266.464 642.101 265.439 641.369 264.609C640.661 263.779 639.611 263.071 638.219 262.485C636.852 261.899 635.18 261.374 633.202 260.91L627.233 259.445C622.643 258.347 619.018 256.601 616.356 254.208C613.695 251.791 612.365 248.569 612.365 244.54C612.365 241.245 613.256 238.364 615.038 235.898C616.845 233.408 619.298 231.479 622.399 230.112C625.524 228.72 629.076 228.024 633.056 228.024C637.108 228.024 640.636 228.72 643.639 230.112C646.666 231.503 649.022 233.432 650.707 235.898C652.416 238.364 653.295 241.208 653.344 244.431H642.248C642.052 242.307 641.137 240.646 639.501 239.45C637.89 238.254 635.705 237.656 632.946 237.656C631.09 237.656 629.503 237.924 628.185 238.461C626.891 238.974 625.902 239.694 625.219 240.622C624.535 241.55 624.193 242.612 624.193 243.808C624.193 245.078 624.584 246.152 625.365 247.031C626.146 247.885 627.184 248.593 628.478 249.155C629.796 249.692 631.237 250.143 632.799 250.51L637.67 251.718C640.038 252.255 642.223 252.975 644.225 253.879C646.227 254.758 647.96 255.844 649.425 257.138C650.915 258.432 652.062 259.958 652.868 261.716C653.673 263.449 654.076 265.451 654.076 267.722C654.076 271.066 653.234 273.972 651.549 276.437C649.889 278.879 647.484 280.771 644.335 282.114C641.186 283.432 637.377 284.091 632.909 284.091ZM659.251 283.322V275.046L678.66 257.028C680.32 255.441 681.712 254.013 682.835 252.744C683.958 251.45 684.812 250.192 685.398 248.972C685.984 247.726 686.277 246.384 686.277 244.943C686.277 243.332 685.911 241.953 685.179 240.805C684.446 239.658 683.457 238.766 682.212 238.132C680.967 237.497 679.539 237.18 677.928 237.18C676.267 237.18 674.815 237.521 673.57 238.205C672.325 238.864 671.36 239.828 670.677 241.098C670.017 242.343 669.688 243.845 669.688 245.602H658.702C658.702 242.014 659.507 238.913 661.119 236.301C662.754 233.664 665.025 231.625 667.93 230.185C670.86 228.745 674.229 228.024 678.037 228.024C681.919 228.024 685.313 228.72 688.218 230.112C691.123 231.479 693.382 233.383 694.993 235.825C696.604 238.242 697.41 241.037 697.41 244.211C697.41 246.262 697.007 248.288 696.202 250.29C695.396 252.267 693.968 254.489 691.917 256.955C689.866 259.396 686.961 262.314 683.201 265.707L675.218 273.508V273.911H698.142V283.322H659.251ZM724.045 227.951C726.852 227.951 729.55 228.427 732.138 229.379C734.75 230.307 737.082 231.821 739.133 233.92C741.208 235.995 742.844 238.754 744.04 242.197C745.236 245.615 745.834 249.802 745.834 254.758C745.834 259.372 745.309 263.486 744.26 267.099C743.234 270.712 741.745 273.788 739.792 276.328C737.863 278.867 735.532 280.807 732.797 282.15C730.087 283.469 727.048 284.128 723.679 284.128C720.065 284.128 716.855 283.42 714.047 282.004C711.24 280.563 708.993 278.622 707.309 276.181C705.624 273.74 704.599 271.017 704.233 268.015H715.585C716.025 269.968 716.952 271.494 718.368 272.592C719.809 273.691 721.579 274.24 723.679 274.24C727.243 274.24 729.941 272.69 731.772 269.589C733.603 266.464 734.518 262.241 734.518 256.918H734.189C733.383 258.505 732.284 259.885 730.893 261.057C729.501 262.204 727.914 263.083 726.132 263.693C724.35 264.304 722.458 264.609 720.456 264.609C717.233 264.609 714.352 263.852 711.813 262.338C709.274 260.825 707.284 258.749 705.844 256.113C704.404 253.452 703.671 250.412 703.647 246.994C703.671 243.307 704.538 240.036 706.247 237.18C707.956 234.299 710.336 232.04 713.388 230.405C716.464 228.745 720.016 227.927 724.045 227.951ZM724.118 237.106C722.385 237.106 720.81 237.534 719.394 238.388C717.978 239.218 716.867 240.366 716.061 241.83C715.256 243.271 714.853 244.894 714.853 246.701C714.853 248.508 715.243 250.131 716.025 251.572C716.83 253.012 717.929 254.16 719.321 255.014C720.712 255.844 722.287 256.259 724.045 256.259C725.827 256.259 727.414 255.832 728.805 254.977C730.222 254.099 731.345 252.939 732.175 251.498C733.005 250.034 733.42 248.41 733.42 246.628C733.42 244.894 733.017 243.307 732.211 241.867C731.406 240.402 730.307 239.243 728.915 238.388C727.524 237.534 725.925 237.106 724.118 237.106ZM752.108 283.322V228.757H763.607V252.817H764.339L783.968 228.757H797.774L777.559 253.183L798.031 283.322H784.224L769.283 260.91L763.607 267.831V283.322H752.108Z" fill="white"/>
<path d="M139.094 325.033V308.3H142.126V315.386H149.875V308.3H152.907V325.033H149.875V317.936H142.126V325.033H139.094ZM158.441 325.292C157.64 325.292 156.921 325.149 156.285 324.865C155.648 324.573 155.147 324.146 154.78 323.585C154.413 323.023 154.23 322.331 154.23 321.507C154.23 320.803 154.361 320.219 154.623 319.755C154.885 319.291 155.24 318.92 155.69 318.643C156.146 318.366 156.659 318.157 157.228 318.014C157.797 317.865 158.385 317.76 158.991 317.7C159.733 317.618 160.332 317.546 160.788 317.487C161.245 317.427 161.574 317.329 161.776 317.195C161.986 317.06 162.091 316.85 162.091 316.566V316.51C162.091 315.903 161.911 315.431 161.552 315.094C161.193 314.758 160.668 314.589 159.98 314.589C159.253 314.589 158.677 314.746 158.25 315.061C157.831 315.375 157.546 315.746 157.397 316.173L154.645 315.78C154.862 315.016 155.222 314.379 155.723 313.87C156.225 313.354 156.835 312.968 157.554 312.714C158.28 312.452 159.081 312.321 159.957 312.321C160.556 312.321 161.155 312.392 161.754 312.534C162.353 312.669 162.903 312.901 163.405 313.23C163.907 313.56 164.307 314.001 164.607 314.555C164.906 315.109 165.056 315.802 165.056 316.633V325.033H162.214V323.304H162.125C161.945 323.648 161.69 323.974 161.361 324.281C161.039 324.58 160.635 324.824 160.148 325.011C159.669 325.198 159.1 325.292 158.441 325.292ZM159.193 323.113C159.792 323.113 160.309 322.997 160.743 322.765C161.178 322.525 161.514 322.211 161.754 321.822C161.994 321.425 162.113 320.994 162.113 320.53V319.059C162.016 319.134 161.859 319.205 161.642 319.272C161.425 319.332 161.178 319.388 160.901 319.441C160.623 319.493 160.35 319.538 160.081 319.575C159.819 319.613 159.59 319.643 159.396 319.665C158.954 319.725 158.557 319.826 158.205 319.969C157.861 320.103 157.588 320.29 157.385 320.53C157.183 320.77 157.082 321.08 157.082 321.462C157.082 322.009 157.281 322.42 157.677 322.698C158.074 322.975 158.58 323.113 159.193 323.113ZM172.33 325.281C171.08 325.281 170.005 325.007 169.107 324.461C168.209 323.907 167.52 323.143 167.041 322.17C166.561 321.196 166.322 320.077 166.322 318.812C166.322 317.531 166.565 316.405 167.052 315.431C167.538 314.458 168.231 313.698 169.129 313.152C170.028 312.598 171.087 312.321 172.308 312.321C173.333 312.321 174.239 312.508 175.025 312.882C175.812 313.256 176.437 313.784 176.901 314.466C177.373 315.139 177.642 315.929 177.71 316.835H174.879C174.805 316.431 174.659 316.068 174.441 315.746C174.224 315.424 173.94 315.169 173.588 314.982C173.244 314.795 172.832 314.701 172.353 314.701C171.746 314.701 171.215 314.866 170.758 315.196C170.309 315.517 169.957 315.982 169.702 316.588C169.448 317.195 169.32 317.921 169.32 318.767C169.32 319.62 169.444 320.358 169.691 320.979C169.938 321.593 170.29 322.069 170.747 322.406C171.203 322.735 171.739 322.9 172.353 322.9C173.004 322.9 173.554 322.709 174.003 322.327C174.46 321.945 174.752 321.417 174.879 320.743H177.71C177.642 321.634 177.38 322.42 176.923 323.102C176.467 323.783 175.849 324.318 175.07 324.708C174.292 325.09 173.378 325.281 172.33 325.281ZM181.615 321.103L181.604 317.52H182.086L186.59 312.478H190.049L184.501 318.666H183.883L181.615 321.103ZM178.919 325.033V308.3H181.873V325.033H178.919ZM186.792 325.033L182.704 319.328L184.703 317.24L190.33 325.033H186.792ZM195.796 325.281C194.538 325.281 193.452 325.018 192.539 324.494C191.626 323.963 190.922 323.214 190.428 322.248C189.941 321.282 189.698 320.144 189.698 318.834C189.698 317.539 189.941 316.405 190.428 315.431C190.914 314.451 191.599 313.687 192.483 313.14C193.366 312.594 194.407 312.321 195.605 312.321C196.376 312.321 197.106 312.444 197.795 312.691C198.491 312.938 199.105 313.32 199.637 313.837C200.176 314.353 200.599 315.012 200.906 315.813C201.213 316.607 201.366 317.554 201.366 318.655V319.575H191.079V317.588H199.895L198.514 318.172C198.514 317.46 198.405 316.843 198.188 316.319C197.971 315.787 197.649 315.372 197.222 315.072C196.795 314.773 196.264 314.623 195.627 314.623C194.991 314.623 194.448 314.773 193.999 315.072C193.55 315.372 193.209 315.776 192.977 316.285C192.745 316.787 192.629 317.348 192.629 317.969V319.351C192.629 320.115 192.76 320.77 193.022 321.316C193.292 321.855 193.666 322.267 194.145 322.552C194.632 322.836 195.197 322.978 195.841 322.978C196.26 322.978 196.642 322.918 196.986 322.799C197.338 322.679 197.638 322.499 197.885 322.26C198.139 322.012 198.334 321.709 198.469 321.35L201.231 321.676C201.052 322.402 200.719 323.038 200.232 323.585C199.753 324.124 199.135 324.543 198.379 324.843C197.63 325.135 196.769 325.281 195.796 325.281ZM202.587 325.033V312.478H205.451V314.589H205.586C205.811 313.855 206.204 313.294 206.765 312.905C207.327 312.508 207.967 312.309 208.686 312.309C208.843 312.309 209.022 312.317 209.225 312.332C209.434 312.347 209.606 312.365 209.741 312.388V315.106C209.614 315.061 209.415 315.023 209.146 314.993C208.876 314.963 208.618 314.948 208.371 314.948C207.824 314.948 207.338 315.065 206.911 315.297C206.484 315.529 206.147 315.847 205.9 316.251C205.661 316.656 205.541 317.127 205.541 317.666V325.033H202.587ZM220.373 315.813L217.689 316.094C217.577 315.682 217.334 315.319 216.959 315.005C216.585 314.683 216.057 314.522 215.376 314.522C214.762 314.522 214.245 314.656 213.826 314.926C213.414 315.196 213.208 315.54 213.208 315.959C213.208 316.326 213.343 316.629 213.613 316.869C213.89 317.101 214.346 317.288 214.983 317.43L217.128 317.88C218.303 318.127 219.183 318.531 219.767 319.093C220.351 319.654 220.643 320.38 220.643 321.271C220.643 322.057 220.415 322.754 219.958 323.36C219.501 323.967 218.869 324.438 218.06 324.775C217.259 325.112 216.334 325.281 215.286 325.281C213.751 325.281 212.516 324.959 211.58 324.315C210.652 323.663 210.094 322.761 209.907 321.608L212.793 321.339C212.92 321.9 213.197 322.327 213.624 322.619C214.058 322.903 214.612 323.046 215.286 323.046C215.99 323.046 216.555 322.903 216.982 322.619C217.409 322.327 217.622 321.971 217.622 321.552C217.622 320.848 217.06 320.369 215.937 320.115L213.792 319.665C212.587 319.403 211.696 318.98 211.12 318.396C210.543 317.805 210.255 317.052 210.255 316.139C210.255 315.36 210.468 314.686 210.895 314.117C211.322 313.548 211.917 313.107 212.681 312.792C213.444 312.478 214.328 312.321 215.331 312.321C216.806 312.321 217.963 312.639 218.801 313.275C219.647 313.904 220.171 314.75 220.373 315.813Z" fill="white"/>
<path d="M403.334 325.033V308.3H409.612C410.9 308.3 411.978 308.54 412.846 309.019C413.722 309.498 414.385 310.157 414.834 310.995C415.283 311.834 415.508 312.785 415.508 313.848C415.508 314.919 415.28 315.873 414.823 316.712C414.374 317.543 413.707 318.198 412.824 318.677C411.94 319.149 410.855 319.385 409.567 319.385H405.412V316.891H409.151C409.908 316.891 410.525 316.764 411.004 316.51C411.491 316.247 411.847 315.888 412.071 315.431C412.303 314.967 412.419 314.439 412.419 313.848C412.419 313.249 412.303 312.725 412.071 312.276C411.847 311.819 411.491 311.467 411.004 311.22C410.525 310.965 409.904 310.838 409.14 310.838H406.366V325.033H403.334ZM416.774 325.033V312.478H419.638V314.589H419.772C419.997 313.855 420.39 313.294 420.952 312.905C421.513 312.508 422.153 312.309 422.872 312.309C423.029 312.309 423.209 312.317 423.411 312.332C423.621 312.347 423.793 312.365 423.928 312.388V315.106C423.8 315.061 423.602 315.023 423.333 314.993C423.063 314.963 422.805 314.948 422.558 314.948C422.011 314.948 421.524 315.065 421.098 315.297C420.671 315.529 420.334 315.847 420.087 316.251C419.847 316.656 419.728 317.127 419.728 317.666V325.033H416.774ZM429.607 325.281C428.38 325.281 427.316 325.011 426.418 324.472C425.52 323.933 424.823 323.177 424.329 322.203C423.842 321.23 423.599 320.1 423.599 318.812C423.599 317.517 423.842 316.382 424.329 315.409C424.823 314.428 425.52 313.668 426.418 313.129C427.316 312.59 428.38 312.321 429.607 312.321C430.835 312.321 431.898 312.59 432.797 313.129C433.695 313.668 434.392 314.428 434.886 315.409C435.38 316.382 435.627 317.517 435.627 318.812C435.627 320.1 435.38 321.23 434.886 322.203C434.392 323.177 433.695 323.933 432.797 324.472C431.898 325.011 430.835 325.281 429.607 325.281ZM429.607 322.9C430.289 322.9 430.85 322.72 431.292 322.361C431.734 321.994 432.063 321.5 432.28 320.878C432.505 320.257 432.617 319.568 432.617 318.812C432.617 318.041 432.505 317.344 432.28 316.723C432.063 316.101 431.734 315.611 431.292 315.252C430.85 314.885 430.289 314.701 429.607 314.701C428.941 314.701 428.383 314.885 427.934 315.252C427.485 315.611 427.148 316.101 426.923 316.723C426.706 317.344 426.598 318.041 426.598 318.812C426.598 319.568 426.706 320.257 426.923 320.878C427.148 321.5 427.485 321.994 427.934 322.361C428.383 322.72 428.941 322.9 429.607 322.9ZM436.871 312.478H439.824V325.752C439.832 326.658 439.663 327.403 439.319 327.987C438.974 328.579 438.476 329.017 437.825 329.301C437.174 329.586 436.384 329.728 435.456 329.728H434.86V327.324H435.287C435.856 327.324 436.26 327.186 436.5 326.909C436.747 326.639 436.871 326.243 436.871 325.719V312.478ZM438.342 310.715C437.87 310.715 437.466 310.557 437.129 310.243C436.792 309.928 436.623 309.55 436.623 309.109C436.623 308.659 436.792 308.278 437.129 307.963C437.466 307.649 437.87 307.491 438.342 307.491C438.806 307.491 439.206 307.649 439.543 307.963C439.88 308.278 440.049 308.656 440.049 309.097C440.049 309.547 439.88 309.928 439.543 310.243C439.206 310.557 438.806 310.715 438.342 310.715ZM447.188 325.281C445.931 325.281 444.845 325.018 443.932 324.494C443.018 323.963 442.314 323.214 441.82 322.248C441.334 321.282 441.09 320.144 441.09 318.834C441.09 317.539 441.334 316.405 441.82 315.431C442.307 314.451 442.992 313.687 443.875 313.14C444.759 312.594 445.8 312.321 446.997 312.321C447.769 312.321 448.499 312.444 449.187 312.691C449.884 312.938 450.498 313.32 451.029 313.837C451.568 314.353 451.991 315.012 452.298 315.813C452.605 316.607 452.759 317.554 452.759 318.655V319.575H442.472V317.588H451.287L449.906 318.172C449.906 317.46 449.798 316.843 449.58 316.319C449.363 315.787 449.041 315.372 448.615 315.072C448.188 314.773 447.656 314.623 447.02 314.623C446.384 314.623 445.841 314.773 445.391 315.072C444.942 315.372 444.602 315.776 444.37 316.285C444.137 316.787 444.021 317.348 444.021 317.969V319.351C444.021 320.115 444.152 320.77 444.414 321.316C444.684 321.855 445.058 322.267 445.537 322.552C446.024 322.836 446.589 322.978 447.233 322.978C447.653 322.978 448.034 322.918 448.379 322.799C448.731 322.679 449.03 322.499 449.277 322.26C449.532 322.012 449.726 321.709 449.861 321.35L452.624 321.676C452.444 322.402 452.111 323.038 451.624 323.585C451.145 324.124 450.528 324.543 449.771 324.843C449.023 325.135 448.162 325.281 447.188 325.281ZM459.449 325.281C458.199 325.281 457.124 325.007 456.226 324.461C455.327 323.907 454.639 323.143 454.16 322.17C453.68 321.196 453.441 320.077 453.441 318.812C453.441 317.531 453.684 316.405 454.171 315.431C454.657 314.458 455.35 313.698 456.248 313.152C457.147 312.598 458.206 312.321 459.427 312.321C460.452 312.321 461.358 312.508 462.144 312.882C462.931 313.256 463.556 313.784 464.02 314.466C464.492 315.139 464.761 315.929 464.828 316.835H461.998C461.924 316.431 461.778 316.068 461.56 315.746C461.343 315.424 461.059 315.169 460.707 314.982C460.362 314.795 459.951 314.701 459.472 314.701C458.865 314.701 458.334 314.866 457.877 315.196C457.428 315.517 457.076 315.982 456.821 316.588C456.567 317.195 456.439 317.921 456.439 318.767C456.439 319.62 456.563 320.358 456.81 320.979C457.057 321.593 457.409 322.069 457.866 322.406C458.322 322.735 458.858 322.9 459.472 322.9C460.123 322.9 460.673 322.709 461.122 322.327C461.579 321.945 461.871 321.417 461.998 320.743H464.828C464.761 321.634 464.499 322.42 464.042 323.102C463.586 323.783 462.968 324.318 462.189 324.708C461.411 325.09 460.497 325.281 459.449 325.281ZM472.294 312.478V314.769H465.095V312.478H472.294ZM466.858 309.49H469.812V321.26C469.812 321.754 469.92 322.121 470.138 322.361C470.355 322.593 470.699 322.709 471.171 322.709C471.298 322.709 471.44 322.698 471.597 322.675C471.755 322.653 471.897 322.626 472.024 322.596L472.53 324.91C472.215 325.007 471.897 325.078 471.575 325.123C471.253 325.176 470.931 325.202 470.609 325.202C469.441 325.202 468.524 324.895 467.858 324.281C467.191 323.66 466.858 322.814 466.858 321.743V309.49ZM483.263 315.813L480.579 316.094C480.467 315.682 480.223 315.319 479.849 315.005C479.475 314.683 478.947 314.522 478.265 314.522C477.651 314.522 477.135 314.656 476.716 314.926C476.304 315.196 476.098 315.54 476.098 315.959C476.098 316.326 476.233 316.629 476.502 316.869C476.779 317.101 477.236 317.288 477.872 317.43L480.017 317.88C481.193 318.127 482.073 318.531 482.657 319.093C483.24 319.654 483.532 320.38 483.532 321.271C483.532 322.057 483.304 322.754 482.847 323.36C482.391 323.967 481.758 324.438 480.949 324.775C480.148 325.112 479.224 325.281 478.176 325.281C476.641 325.281 475.405 324.959 474.469 324.315C473.541 323.663 472.983 322.761 472.796 321.608L475.682 321.339C475.81 321.9 476.087 322.327 476.513 322.619C476.948 322.903 477.502 323.046 478.176 323.046C478.879 323.046 479.445 322.903 479.871 322.619C480.298 322.327 480.511 321.971 480.511 321.552C480.511 320.848 479.95 320.369 478.827 320.115L476.682 319.665C475.476 319.403 474.586 318.98 474.009 318.396C473.433 317.805 473.144 317.052 473.144 316.139C473.144 315.36 473.358 314.686 473.784 314.117C474.211 313.548 474.806 313.107 475.57 312.792C476.334 312.478 477.217 312.321 478.22 312.321C479.695 312.321 480.852 312.639 481.691 313.275C482.537 313.904 483.061 314.75 483.263 315.813Z" fill="white"/>
<path d="M660.462 325.033V308.3H666.885C668.091 308.3 669.094 308.491 669.895 308.873C670.696 309.247 671.295 309.764 671.692 310.423C672.089 311.074 672.287 311.811 672.287 312.635C672.287 313.316 672.156 313.9 671.894 314.387C671.64 314.866 671.292 315.255 670.85 315.555C670.408 315.854 669.914 316.072 669.367 316.206V316.375C669.966 316.397 670.535 316.577 671.074 316.914C671.621 317.243 672.066 317.707 672.411 318.306C672.763 318.905 672.939 319.628 672.939 320.474C672.939 321.342 672.729 322.121 672.31 322.81C671.898 323.491 671.269 324.034 670.423 324.438C669.585 324.835 668.525 325.033 667.245 325.033H660.462ZM663.494 322.507H666.751C667.851 322.507 668.645 322.293 669.132 321.866C669.626 321.44 669.873 320.897 669.873 320.238C669.873 319.736 669.749 319.287 669.502 318.89C669.255 318.494 668.903 318.179 668.447 317.947C667.997 317.715 667.466 317.599 666.852 317.599H663.494V322.507ZM663.494 315.42H666.504C667.02 315.42 667.488 315.323 667.907 315.128C668.327 314.934 668.656 314.66 668.896 314.308C669.143 313.949 669.266 313.526 669.266 313.039C669.266 312.395 669.038 311.864 668.581 311.445C668.125 311.018 667.454 310.804 666.571 310.804H663.494V315.42ZM679.685 325.281C678.457 325.281 677.394 325.011 676.496 324.472C675.597 323.933 674.901 323.177 674.407 322.203C673.92 321.23 673.677 320.1 673.677 318.812C673.677 317.517 673.92 316.382 674.407 315.409C674.901 314.428 675.597 313.668 676.496 313.129C677.394 312.59 678.457 312.321 679.685 312.321C680.913 312.321 681.976 312.59 682.875 313.129C683.773 313.668 684.469 314.428 684.964 315.409C685.458 316.382 685.705 317.517 685.705 318.812C685.705 320.1 685.458 321.23 684.964 322.203C684.469 323.177 683.773 323.933 682.875 324.472C681.976 325.011 680.913 325.281 679.685 325.281ZM679.685 322.9C680.367 322.9 680.928 322.72 681.37 322.361C681.812 321.994 682.141 321.5 682.358 320.878C682.583 320.257 682.695 319.568 682.695 318.812C682.695 318.041 682.583 317.344 682.358 316.723C682.141 316.101 681.812 315.611 681.37 315.252C680.928 314.885 680.367 314.701 679.685 314.701C679.019 314.701 678.461 314.885 678.012 315.252C677.563 315.611 677.226 316.101 677.001 316.723C676.784 317.344 676.675 318.041 676.675 318.812C676.675 319.568 676.784 320.257 677.001 320.878C677.226 321.5 677.563 321.994 678.012 322.361C678.461 322.72 679.019 322.9 679.685 322.9ZM694.944 319.766V312.478H697.898V325.033H695.034V322.799H694.9C694.615 323.502 694.151 324.079 693.507 324.528C692.863 324.977 692.069 325.198 691.126 325.191C690.303 325.191 689.576 325.011 688.947 324.652C688.326 324.285 687.836 323.749 687.476 323.046C687.124 322.334 686.948 321.477 686.948 320.474V312.478H689.902V320.025C689.902 320.811 690.119 321.44 690.553 321.911C690.995 322.383 691.572 322.615 692.283 322.608C692.717 322.608 693.136 322.503 693.541 322.293C693.952 322.084 694.289 321.769 694.551 321.35C694.813 320.931 694.944 320.403 694.944 319.766ZM702.657 317.689V325.033H699.703V312.478H702.601V314.623H702.747C703.031 313.919 703.477 313.361 704.083 312.949C704.697 312.53 705.476 312.321 706.419 312.321C707.288 312.321 708.044 312.504 708.688 312.871C709.331 313.238 709.829 313.777 710.181 314.488C710.541 315.192 710.72 316.045 710.72 317.049V325.033H707.767V317.509C707.767 316.67 707.55 316.015 707.115 315.544C706.681 315.065 706.082 314.825 705.318 314.825C704.802 314.825 704.341 314.937 703.937 315.162C703.54 315.386 703.226 315.712 702.994 316.139C702.769 316.558 702.657 317.075 702.657 317.689ZM718.781 312.478V314.769H711.582V312.478H718.781ZM713.345 309.49H716.299V321.26C716.299 321.754 716.407 322.121 716.625 322.361C716.842 322.593 717.186 322.709 717.658 322.709C717.785 322.709 717.927 322.698 718.085 322.675C718.242 322.653 718.384 322.626 718.511 322.596L719.017 324.91C718.702 325.007 718.384 325.078 718.062 325.123C717.74 325.176 717.418 325.202 717.096 325.202C715.928 325.202 715.011 324.895 714.345 324.281C713.678 323.66 713.345 322.814 713.345 321.743V309.49ZM720.024 325.033V312.478H722.978V325.033H720.024ZM721.507 310.715C721.035 310.715 720.631 310.557 720.294 310.243C719.957 309.928 719.789 309.55 719.789 309.109C719.789 308.659 719.957 308.278 720.294 307.963C720.631 307.649 721.035 307.491 721.507 307.491C721.971 307.491 722.372 307.649 722.709 307.963C723.045 308.278 723.214 308.656 723.214 309.097C723.214 309.547 723.045 309.928 722.709 310.243C722.372 310.557 721.971 310.715 721.507 310.715ZM730.342 325.281C729.084 325.281 727.999 325.018 727.085 324.494C726.172 323.963 725.468 323.214 724.974 322.248C724.487 321.282 724.244 320.144 724.244 318.834C724.244 317.539 724.487 316.405 724.974 315.431C725.461 314.451 726.146 313.687 727.029 313.14C727.913 312.594 728.953 312.321 730.151 312.321C730.923 312.321 731.652 312.444 732.341 312.691C733.038 312.938 733.652 313.32 734.183 313.837C734.722 314.353 735.145 315.012 735.452 315.813C735.759 316.607 735.913 317.554 735.913 318.655V319.575H725.625V317.588H734.441L733.06 318.172C733.06 317.46 732.951 316.843 732.734 316.319C732.517 315.787 732.195 315.372 731.769 315.072C731.342 314.773 730.81 314.623 730.174 314.623C729.537 314.623 728.995 314.773 728.545 315.072C728.096 315.372 727.756 315.776 727.523 316.285C727.291 316.787 727.175 317.348 727.175 317.969V319.351C727.175 320.115 727.306 320.77 727.568 321.316C727.838 321.855 728.212 322.267 728.691 322.552C729.178 322.836 729.743 322.978 730.387 322.978C730.806 322.978 731.188 322.918 731.533 322.799C731.885 322.679 732.184 322.499 732.431 322.26C732.686 322.012 732.88 321.709 733.015 321.35L735.778 321.676C735.598 322.402 735.265 323.038 734.778 323.585C734.299 324.124 733.681 324.543 732.925 324.843C732.177 325.135 731.316 325.281 730.342 325.281ZM747.039 315.813L744.355 316.094C744.243 315.682 743.999 315.319 743.625 315.005C743.251 314.683 742.723 314.522 742.041 314.522C741.428 314.522 740.911 314.656 740.492 314.926C740.08 315.196 739.874 315.54 739.874 315.959C739.874 316.326 740.009 316.629 740.278 316.869C740.555 317.101 741.012 317.288 741.648 317.43L743.793 317.88C744.969 318.127 745.849 318.531 746.433 319.093C747.017 319.654 747.309 320.38 747.309 321.271C747.309 322.057 747.08 322.754 746.623 323.36C746.167 323.967 745.534 324.438 744.726 324.775C743.924 325.112 743 325.281 741.952 325.281C740.417 325.281 739.181 324.959 738.246 324.315C737.317 323.663 736.759 322.761 736.572 321.608L739.458 321.339C739.586 321.9 739.863 322.327 740.29 322.619C740.724 322.903 741.278 323.046 741.952 323.046C742.655 323.046 743.221 322.903 743.647 322.619C744.074 322.327 744.288 321.971 744.288 321.552C744.288 320.848 743.726 320.369 742.603 320.115L740.458 319.665C739.253 319.403 738.362 318.98 737.785 318.396C737.209 317.805 736.92 317.052 736.92 316.139C736.92 315.36 737.134 314.686 737.561 314.117C737.987 313.548 738.582 313.107 739.346 312.792C740.11 312.478 740.993 312.321 741.997 312.321C743.471 312.321 744.628 312.639 745.467 313.275C746.313 313.904 746.837 314.75 747.039 315.813Z" fill="white"/>
<g clip-path="url(#clip0_1_167)">
<path d="M253.308 65V30.0781L276.042 30.0781V35.375H259.636V44.75H274.824V49.9766H259.636V59.7031H276.136V65H253.308ZM278.284 35.375V30.0781H306.128V35.375H295.346V65H289.089V35.375H278.284ZM308.791 65V30.0781H315.119V44.8672H331.291V30.0781H337.619V65H331.291V50.1875H315.119V65H308.791ZM341.806 30.0781H349.564L359.923 55.3672H360.322L370.704 30.0781H378.556V65H372.345V41H372.064L362.361 64.8828H357.814L348.228 40.9531H347.9V65H341.806V30.0781ZM399.173 54.0078V38.7969H405.337V65H399.36V60.3359H399.079C398.485 61.8047 397.516 63.0078 396.173 63.9453C394.829 64.8828 393.173 65.3438 391.204 65.3281C389.485 65.3281 387.969 64.9531 386.657 64.2031C385.36 63.4375 384.337 62.3203 383.587 60.8516C382.852 59.3672 382.485 57.5781 382.485 55.4844V38.7969H388.649V54.5469C388.649 56.1875 389.102 57.5 390.008 58.4844C390.93 59.4687 392.133 59.9531 393.618 59.9375C394.524 59.9375 395.399 59.7187 396.243 59.2812C397.102 58.8437 397.805 58.1875 398.352 57.3125C398.899 56.4375 399.173 55.3359 399.173 54.0078ZM409.031 65V38.7969H414.914V43.2734H415.242C415.789 41.7734 416.695 40.6016 417.961 39.7578C419.227 38.8984 420.727 38.4687 422.461 38.4687C424.242 38.4687 425.742 38.8984 426.961 39.7578C428.18 40.6172 429.031 41.7891 429.516 43.2734H429.797C430.391 41.8203 431.375 40.6562 432.75 39.7812C434.125 38.9062 435.766 38.4687 437.672 38.4687C440.078 38.4687 442.039 39.2344 443.555 40.7656C445.086 42.2812 445.852 44.5 445.852 47.4219V65H439.664V48.3594C439.664 46.75 439.227 45.5703 438.352 44.8203C437.492 44.0547 436.438 43.6719 435.188 43.6719C433.703 43.6719 432.547 44.1406 431.719 45.0781C430.891 46 430.477 47.1875 430.477 48.6406V65H424.383V48.125C424.383 46.7656 423.984 45.6875 423.188 44.8906C422.391 44.0781 421.336 43.6719 420.023 43.6719C419.133 43.6719 418.32 43.8984 417.586 44.3516C416.852 44.8047 416.266 45.4375 415.828 46.25C415.406 47.0625 415.195 48 415.195 49.0625V65H409.031ZM463.445 65.4688C461.96 65.4688 460.718 65.2188 459.718 64.7188C458.734 64.2031 457.937 63.5937 457.327 62.8906C456.734 62.1719 456.281 61.4922 455.968 60.8516H455.593V65H449.546V30.0781H455.71V43.1328H455.968C456.281 42.5078 456.726 41.8359 457.304 41.1172C457.882 40.3828 458.663 39.7578 459.648 39.2422C460.648 38.7266 461.921 38.4687 463.468 38.4687C465.484 38.4687 467.304 38.9844 468.929 40.0156C470.554 41.0469 471.843 42.5625 472.796 44.5625C473.765 46.5625 474.249 49.0234 474.249 51.9453C474.249 54.8203 473.781 57.2656 472.843 59.2812C471.906 61.2969 470.617 62.8359 468.976 63.8984C467.351 64.9453 465.507 65.4688 463.445 65.4688ZM461.757 60.4062C463.117 60.4062 464.249 60.0391 465.156 59.3047C466.077 58.5703 466.773 57.5625 467.242 56.2812C467.71 55 467.945 53.5469 467.945 51.9219C467.945 50.2969 467.71 48.8516 467.242 47.5859C466.773 46.3203 466.085 45.3281 465.179 44.6094C464.273 43.8906 463.132 43.5312 461.757 43.5312C460.429 43.5312 459.304 43.875 458.382 44.5625C457.476 45.25 456.781 46.2266 456.296 47.4922C455.827 48.7422 455.593 50.2187 455.593 51.9219C455.593 53.6094 455.827 55.0937 456.296 56.375C456.781 57.6406 457.484 58.6328 458.406 59.3516C459.327 60.0547 460.445 60.4062 461.757 60.4062ZM484.342 65.5391C482.671 65.5391 481.171 65.2422 479.842 64.6484C478.514 64.0391 477.467 63.1484 476.702 61.9766C475.936 60.8047 475.553 59.3594 475.553 57.6406C475.553 56.1719 475.827 54.9531 476.374 53.9844C476.921 53.0156 477.663 52.2422 478.6 51.6641C479.553 51.0859 480.624 50.6484 481.811 50.3516C482.999 50.0391 484.225 49.8203 485.491 49.6953C487.038 49.5234 488.288 49.375 489.241 49.25C490.194 49.125 490.882 48.9219 491.303 48.6406C491.741 48.3594 491.96 47.9219 491.96 47.3281V47.2109C491.96 45.9453 491.585 44.9609 490.835 44.2578C490.085 43.5547 488.991 43.2031 487.553 43.2031C486.038 43.2031 484.835 43.5312 483.944 44.1875C483.069 44.8437 482.475 45.6172 482.163 46.5078L476.421 45.6875C476.874 44.0937 477.624 42.7656 478.671 41.7031C479.717 40.625 480.991 39.8203 482.491 39.2891C484.007 38.7422 485.678 38.4687 487.507 38.4687C488.757 38.4687 490.007 38.6172 491.257 38.9141C492.507 39.1953 493.655 39.6797 494.702 40.3672C495.749 41.0547 496.585 41.9766 497.21 43.1328C497.835 44.2891 498.147 45.7344 498.147 47.4687V65H492.217V61.3906H492.03C491.655 62.1094 491.124 62.7891 490.436 63.4297C489.764 64.0547 488.921 64.5625 487.905 64.9531C486.905 65.3438 485.717 65.5391 484.342 65.5391ZM485.913 60.9922C487.163 60.9922 488.241 60.75 489.147 60.2656C490.053 59.7656 490.757 59.1094 491.257 58.2969C491.757 57.4687 492.007 56.5703 492.007 55.6016V52.5312C491.803 52.6875 491.475 52.8359 491.022 52.9766C490.569 53.1016 490.053 53.2187 489.475 53.3281C488.897 53.4375 488.327 53.5312 487.764 53.6094C487.217 53.6875 486.741 53.75 486.335 53.7969C485.413 53.9219 484.585 54.1328 483.85 54.4297C483.132 54.7109 482.561 55.1016 482.139 55.6016C481.717 56.1016 481.507 56.75 481.507 57.5469C481.507 58.6875 481.921 59.5469 482.749 60.125C483.577 60.7031 484.632 60.9922 485.913 60.9922ZM501.842 65V38.7969H508.006V65H501.842ZM504.936 35.1172C503.951 35.1172 503.107 34.7891 502.404 34.1328C501.701 33.4766 501.35 32.6875 501.35 31.7656C501.35 30.8281 501.701 30.0312 502.404 29.375C503.107 28.7187 503.951 28.3906 504.936 28.3906C505.904 28.3906 506.74 28.7187 507.443 29.375C508.146 30.0312 508.498 30.8203 508.498 31.7422C508.498 32.6797 508.146 33.4766 507.443 34.1328C506.74 34.7891 505.904 35.1172 504.936 35.1172ZM520.856 65V60.4531L532.997 48.5469C534.137 47.375 535.091 46.3359 535.856 45.4297C536.637 44.5234 537.223 43.6484 537.614 42.8047C538.005 41.9453 538.2 41.0312 538.2 40.0625C538.2 38.9687 537.95 38.0234 537.45 37.2266C536.95 36.4297 536.262 35.8203 535.387 35.3984C534.528 34.9766 533.544 34.7656 532.434 34.7656C531.278 34.7656 530.27 35 529.411 35.4687C528.551 35.9375 527.88 36.6016 527.395 37.4609C526.926 38.3203 526.692 39.3437 526.692 40.5312H520.692C520.692 38.3281 521.192 36.4141 522.192 34.7891C523.208 33.1484 524.606 31.875 526.387 30.9687C528.169 30.0625 530.208 29.6094 532.505 29.6094C534.864 29.6094 536.926 30.0469 538.692 30.9219C540.458 31.7969 541.833 33 542.817 34.5312C543.801 36.0469 544.294 37.7812 544.294 39.7344C544.294 41.0469 544.044 42.3359 543.544 43.6016C543.044 44.8516 542.161 46.25 540.895 47.7969C539.645 49.3281 537.887 51.1797 535.622 53.3516L529.622 59.4687V59.7266H544.809V65H520.856ZM560.996 65.4688C558.168 65.4688 555.746 64.7656 553.73 63.3594C551.73 61.9375 550.199 59.8984 549.137 57.2422C548.074 54.5703 547.543 51.3437 547.543 47.5625C547.543 43.7812 548.074 40.5547 549.137 37.8828C550.199 35.1953 551.73 33.1484 553.73 31.7422C555.746 30.3203 558.168 29.6094 560.996 29.6094C563.809 29.6094 566.223 30.3203 568.238 31.7422C570.254 33.1641 571.793 35.2109 572.855 37.8828C573.918 40.5547 574.449 43.7812 574.449 47.5625C574.449 51.3437 573.918 54.5703 572.855 57.2422C571.793 59.8984 570.262 61.9375 568.262 63.3594C566.262 64.7656 563.84 65.4688 560.996 65.4688ZM560.996 60.1719C562.512 60.1719 563.793 59.6797 564.84 58.6953C565.902 57.7109 566.707 56.2812 567.254 54.4062C567.816 52.5156 568.098 50.2344 568.098 47.5625C568.098 44.875 567.816 42.5859 567.254 40.6953C566.707 38.8047 565.902 37.3672 564.84 36.3828C563.793 35.3828 562.512 34.8828 560.996 34.8828C558.715 34.8828 556.957 35.9922 555.723 38.2109C554.504 40.4141 553.895 43.5312 553.895 47.5625C553.895 50.2344 554.168 52.5156 554.715 54.4062C555.262 56.2812 556.066 57.7109 557.129 58.6953C558.191 59.6797 559.48 60.1719 560.996 60.1719ZM577.417 65V60.4531L589.558 48.5469C590.699 47.375 591.652 46.3359 592.417 45.4297C593.199 44.5234 593.785 43.6484 594.175 42.8047C594.566 41.9453 594.761 41.0312 594.761 40.0625C594.761 38.9687 594.511 38.0234 594.011 37.2266C593.511 36.4297 592.824 35.8203 591.949 35.3984C591.089 34.9766 590.105 34.7656 588.995 34.7656C587.839 34.7656 586.831 35 585.972 35.4687C585.113 35.9375 584.441 36.6016 583.956 37.4609C583.488 38.3203 583.253 39.3437 583.253 40.5312H577.253C577.253 38.3281 577.753 36.4141 578.753 34.7891C579.769 33.1484 581.167 31.875 582.949 30.9687C584.73 30.0625 586.769 29.6094 589.066 29.6094C591.425 29.6094 593.488 30.0469 595.253 30.9219C597.019 31.7969 598.394 33 599.378 34.5312C600.363 36.0469 600.855 37.7812 600.855 39.7344C600.855 41.0469 600.605 42.3359 600.105 43.6016C599.605 44.8516 598.722 46.25 597.456 47.7969C596.206 49.3281 594.449 51.1797 592.183 53.3516L586.183 59.4687V59.7266H601.37V65H577.417ZM603.26 58.5312V53.4922L618.096 30.0781H622.268V37.25H619.714L609.729 53.0469V53.3281H630.424V58.5312H603.26ZM619.901 65V57.0078L619.995 54.7344V30.0781L625.948 30.0781V65H619.901ZM649.111 30.0781V65H642.783V30.0781H649.111ZM653.04 65V38.7969H658.923V43.2734H659.251C659.798 41.7734 660.704 40.6016 661.969 39.7578C663.235 38.8984 664.735 38.4687 666.469 38.4687C668.251 38.4687 669.751 38.8984 670.969 39.7578C672.188 40.6172 673.04 41.7891 673.524 43.2734H673.805C674.399 41.8203 675.383 40.6562 676.758 39.7812C678.133 38.9062 679.774 38.4687 681.68 38.4687C684.087 38.4687 686.048 39.2344 687.563 40.7656C689.094 42.2812 689.86 44.5 689.86 47.4219V65H683.673V48.3594C683.673 46.75 683.235 45.5703 682.36 44.8203C681.501 44.0547 680.446 43.6719 679.196 43.6719C677.712 43.6719 676.555 44.1406 675.727 45.0781C674.899 46 674.485 47.1875 674.485 48.6406V65H668.391V48.125C668.391 46.7656 667.993 45.6875 667.196 44.8906C666.399 44.0781 665.344 43.6719 664.032 43.6719C663.141 43.6719 662.329 43.8984 661.594 44.3516C660.86 44.8047 660.274 45.4375 659.837 46.25C659.415 47.0625 659.204 48 659.204 49.0625V65H653.04ZM693.555 74.7969V38.7969H699.602V43.1328H699.977C700.289 42.5078 700.734 41.8359 701.313 41.1172C701.891 40.3828 702.672 39.7578 703.656 39.2422C704.656 38.7266 705.93 38.4687 707.477 38.4687C709.492 38.4687 711.313 38.9844 712.938 40.0156C714.563 41.0469 715.852 42.5625 716.805 44.5625C717.773 46.5625 718.258 49.0234 718.258 51.9453C718.258 54.8203 717.789 57.2656 716.852 59.2812C715.914 61.2969 714.625 62.8359 712.984 63.8984C711.359 64.9453 709.516 65.4687 707.453 65.4687C705.969 65.4687 704.727 65.2187 703.727 64.7187C702.742 64.2031 701.945 63.5937 701.336 62.8906C700.742 62.1719 700.289 61.4922 699.977 60.8516H699.719V74.7969H693.555ZM705.766 60.4062C707.125 60.4062 708.258 60.0391 709.164 59.3047C710.086 58.5703 710.781 57.5625 711.25 56.2812C711.719 55 711.953 53.5469 711.953 51.9219C711.953 50.2969 711.719 48.8516 711.25 47.5859C710.781 46.3203 710.094 45.3281 709.188 44.6094C708.281 43.8906 707.141 43.5312 705.766 43.5312C704.438 43.5312 703.313 43.875 702.391 44.5625C701.484 45.25 700.789 46.2266 700.305 47.4922C699.836 48.7422 699.602 50.2187 699.602 51.9219C699.602 53.6094 699.836 55.0937 700.305 56.375C700.789 57.6406 701.492 58.6328 702.414 59.3516C703.336 60.0547 704.453 60.4062 705.766 60.4062ZM728.351 65.5391C726.679 65.5391 725.179 65.2422 723.851 64.6484C722.523 64.0391 721.476 63.1484 720.71 61.9766C719.945 60.8047 719.562 59.3594 719.562 57.6406C719.562 56.1719 719.835 54.9531 720.382 53.9844C720.929 53.0156 721.671 52.2422 722.609 51.6641C723.562 51.0859 724.632 50.6484 725.82 50.3516C727.007 50.0391 728.234 49.8203 729.499 49.6953C731.046 49.5234 732.296 49.375 733.249 49.25C734.203 49.125 734.89 48.9219 735.312 48.6406C735.749 48.3594 735.968 47.9219 735.968 47.3281V47.2109C735.968 45.9453 735.593 44.9609 734.843 44.2578C734.093 43.5547 732.999 43.2031 731.562 43.2031C730.046 43.2031 728.843 43.5312 727.953 44.1875C727.078 44.8437 726.484 45.6172 726.171 46.5078L720.429 45.6875C720.882 44.0937 721.632 42.7656 722.679 41.7031C723.726 40.625 724.999 39.8203 726.499 39.2891C728.015 38.7422 729.687 38.4687 731.515 38.4687C732.765 38.4687 734.015 38.6172 735.265 38.9141C736.515 39.1953 737.663 39.6797 738.71 40.3672C739.757 41.0547 740.593 41.9766 741.218 43.1328C741.843 44.2891 742.156 45.7344 742.156 47.4687V65H736.226V61.3906H736.038C735.663 62.1094 735.132 62.7891 734.445 63.4297C733.773 64.0547 732.929 64.5625 731.913 64.9531C730.913 65.3437 729.726 65.5391 728.351 65.5391ZM729.921 60.9922C731.171 60.9922 732.249 60.75 733.156 60.2656C734.062 59.7656 734.765 59.1094 735.265 58.2969C735.765 57.4687 736.015 56.5703 736.015 55.6016V52.5312C735.812 52.6875 735.484 52.8359 735.031 52.9766C734.578 53.1016 734.062 53.2187 733.484 53.3281C732.906 53.4375 732.335 53.5312 731.773 53.6094C731.226 53.6875 730.749 53.75 730.343 53.7969C729.421 53.9219 728.593 54.1328 727.859 54.4297C727.14 54.7109 726.57 55.1016 726.148 55.6016C725.726 56.1016 725.515 56.75 725.515 57.5469C725.515 58.6875 725.929 59.5469 726.757 60.125C727.585 60.7031 728.64 60.9922 729.921 60.9922ZM757.264 65.5156C754.655 65.5156 752.413 64.9453 750.538 63.8047C748.663 62.6484 747.225 61.0547 746.225 59.0234C745.225 56.9922 744.725 54.6562 744.725 52.0156C744.725 49.3437 745.233 46.9922 746.249 44.9609C747.264 42.9297 748.71 41.3437 750.585 40.2031C752.46 39.0469 754.671 38.4687 757.218 38.4687C759.358 38.4687 761.249 38.8594 762.889 39.6406C764.53 40.4219 765.835 41.5234 766.803 42.9453C767.788 44.3516 768.35 46 768.491 47.8906H762.585C762.428 47.0469 762.124 46.2891 761.671 45.6172C761.218 44.9453 760.624 44.4141 759.889 44.0234C759.171 43.6328 758.311 43.4375 757.311 43.4375C756.046 43.4375 754.936 43.7812 753.983 44.4687C753.046 45.1406 752.311 46.1094 751.78 47.375C751.249 48.6406 750.983 50.1562 750.983 51.9219C750.983 53.7031 751.241 55.2422 751.757 56.5391C752.272 57.8203 753.007 58.8125 753.96 59.5156C754.913 60.2031 756.03 60.5469 757.311 60.5469C758.671 60.5469 759.819 60.1484 760.757 59.3516C761.71 58.5547 762.319 57.4531 762.585 56.0469H768.491C768.35 57.9062 767.803 59.5469 766.85 60.9687C765.897 62.3906 764.608 63.5078 762.983 64.3203C761.358 65.1172 759.452 65.5156 757.264 65.5156ZM783.998 38.7969V43.5781H768.975V38.7969H783.998ZM772.654 32.5625H778.818V57.125C778.818 58.1562 779.045 58.9219 779.498 59.4219C779.951 59.9062 780.67 60.1484 781.654 60.1484C781.92 60.1484 782.217 60.125 782.545 60.0781C782.873 60.0312 783.17 59.9766 783.436 59.9141L784.49 64.7422C783.834 64.9453 783.17 65.0937 782.498 65.1875C781.826 65.2969 781.154 65.3516 780.482 65.3516C778.045 65.3516 776.131 64.7109 774.74 63.4297C773.35 62.1328 772.654 60.3672 772.654 58.1328V32.5625Z" fill="white"/>
</g>
<path d="M236.369 106V88.5391H246.845V90.4141H238.478V96.5078H246.048V98.3828H238.478V106H236.369ZM248.678 106V92.8984H250.671V106H248.678ZM249.686 90.7188C249.296 90.7188 248.96 90.5859 248.678 90.3203C248.397 90.0547 248.257 89.7344 248.257 89.3594C248.257 88.9844 248.397 88.6641 248.678 88.3984C248.96 88.1328 249.296 88 249.686 88C250.077 88 250.413 88.1328 250.694 88.3984C250.975 88.6641 251.116 88.9844 251.116 89.3594C251.116 89.7344 250.975 90.0547 250.694 90.3203C250.413 90.5859 250.077 90.7188 249.686 90.7188ZM252.855 106V92.8984H254.777V94.8906H254.918C255.16 94.2422 255.594 93.7188 256.219 93.3203C256.851 92.9141 257.558 92.7109 258.34 92.7109C258.488 92.7109 258.672 92.7148 258.891 92.7227C259.109 92.7227 259.277 92.7266 259.394 92.7344V94.7734C259.324 94.7578 259.168 94.7344 258.926 94.7031C258.683 94.6719 258.426 94.6562 258.152 94.6562C257.519 94.6562 256.953 94.7891 256.453 95.0547C255.953 95.3203 255.558 95.6836 255.269 96.1445C254.988 96.6055 254.848 97.1328 254.848 97.7266V106H252.855ZM269.524 95.8516L267.72 96.3438C267.548 95.8984 267.251 95.4766 266.829 95.0781C266.415 94.6719 265.767 94.4688 264.884 94.4688C264.087 94.4688 263.423 94.6562 262.892 95.0312C262.36 95.3984 262.095 95.8594 262.095 96.4141C262.095 96.9141 262.274 97.3125 262.634 97.6094C263.001 97.9062 263.571 98.1484 264.345 98.3359L266.29 98.8047C267.454 99.0859 268.321 99.5195 268.892 100.105C269.47 100.691 269.759 101.438 269.759 102.344C269.759 103.094 269.544 103.766 269.114 104.359C268.685 104.953 268.087 105.422 267.321 105.766C266.556 106.109 265.665 106.281 264.649 106.281C263.314 106.281 262.208 105.988 261.333 105.402C260.466 104.816 259.915 103.969 259.681 102.859L261.579 102.391C261.759 103.094 262.103 103.621 262.61 103.973C263.126 104.324 263.798 104.5 264.626 104.5C265.556 104.5 266.298 104.301 266.853 103.902C267.415 103.496 267.696 103.016 267.696 102.461C267.696 101.539 267.048 100.922 265.751 100.609L263.571 100.094C262.368 99.8047 261.485 99.3633 260.923 98.7695C260.36 98.1758 260.079 97.4297 260.079 96.5312C260.079 95.7891 260.286 95.1328 260.7 94.5625C261.122 93.9922 261.696 93.5469 262.423 93.2266C263.149 92.8984 263.97 92.7344 264.884 92.7344C266.189 92.7344 267.208 93.0234 267.942 93.6016C268.685 94.1719 269.212 94.9219 269.524 95.8516ZM276.959 92.8984V94.6094H270.186V92.8984H276.959ZM272.155 89.7812H274.147V102.25C274.147 102.93 274.287 103.43 274.569 103.75C274.85 104.062 275.295 104.219 275.905 104.219C276.037 104.219 276.174 104.211 276.315 104.195C276.463 104.18 276.623 104.156 276.795 104.125L277.217 105.93C277.03 106 276.799 106.055 276.526 106.094C276.26 106.141 275.991 106.164 275.717 106.164C274.662 106.164 273.803 105.852 273.139 105.227C272.483 104.602 272.155 103.789 272.155 102.789V89.7812ZM289.204 106.281C287.946 106.281 286.856 106 285.934 105.438C285.02 104.875 284.317 104.09 283.825 103.082C283.333 102.066 283.087 100.891 283.087 99.5547C283.087 98.2109 283.329 97.0273 283.813 96.0039C284.298 94.9805 284.977 94.1797 285.852 93.6016C286.735 93.0234 287.766 92.7344 288.946 92.7344C289.626 92.7344 290.301 92.8477 290.973 93.0742C291.645 93.3008 292.255 93.668 292.801 94.1758C293.356 94.6836 293.798 95.3555 294.126 96.1914C294.454 97.0273 294.618 98.0547 294.618 99.2734V100.141H284.516V98.4062H293.528L292.602 99.0625C292.602 98.1875 292.466 97.4102 292.192 96.7305C291.919 96.0508 291.508 95.5156 290.962 95.125C290.423 94.7344 289.751 94.5391 288.946 94.5391C288.141 94.5391 287.45 94.7383 286.872 95.1367C286.301 95.5273 285.864 96.0391 285.559 96.6719C285.255 97.3047 285.102 97.9844 285.102 98.7109V99.8594C285.102 100.852 285.274 101.691 285.618 102.379C285.962 103.066 286.442 103.59 287.059 103.949C287.676 104.301 288.391 104.477 289.204 104.477C289.727 104.477 290.204 104.402 290.633 104.254C291.063 104.098 291.434 103.867 291.747 103.562C292.059 103.25 292.298 102.867 292.462 102.414L294.407 102.977C294.204 103.633 293.86 104.211 293.376 104.711C292.899 105.203 292.305 105.59 291.594 105.871C290.883 106.145 290.087 106.281 289.204 106.281ZM306.342 92.8984L301.514 106H299.451L294.623 92.8984H296.803L300.412 103.352H300.553L304.162 92.8984H306.342ZM312.511 106.281C311.253 106.281 310.163 106 309.241 105.438C308.327 104.875 307.624 104.09 307.132 103.082C306.64 102.066 306.394 100.891 306.394 99.5547C306.394 98.2109 306.636 97.0273 307.12 96.0039C307.605 94.9805 308.284 94.1797 309.159 93.6016C310.042 93.0234 311.073 92.7344 312.253 92.7344C312.933 92.7344 313.608 92.8477 314.28 93.0742C314.952 93.3008 315.562 93.668 316.108 94.1758C316.663 94.6836 317.105 95.3555 317.433 96.1914C317.761 97.0273 317.925 98.0547 317.925 99.2734V100.141H307.823V98.4062H316.835L315.909 99.0625C315.909 98.1875 315.773 97.4102 315.499 96.7305C315.226 96.0508 314.816 95.5156 314.269 95.125C313.73 94.7344 313.058 94.5391 312.253 94.5391C311.448 94.5391 310.757 94.7383 310.179 95.1367C309.608 95.5273 309.171 96.0391 308.866 96.6719C308.562 97.3047 308.409 97.9844 308.409 98.7109V99.8594C308.409 100.852 308.581 101.691 308.925 102.379C309.269 103.066 309.749 103.59 310.366 103.949C310.983 104.301 311.698 104.477 312.511 104.477C313.034 104.477 313.511 104.402 313.941 104.254C314.37 104.098 314.741 103.867 315.054 103.562C315.366 103.25 315.605 102.867 315.769 102.414L317.714 102.977C317.511 103.633 317.167 104.211 316.683 104.711C316.206 105.203 315.612 105.59 314.901 105.871C314.191 106.145 313.394 106.281 312.511 106.281ZM319.43 106V92.8984H321.352V94.8906H321.492C321.735 94.2422 322.168 93.7188 322.793 93.3203C323.426 92.9141 324.133 92.7109 324.914 92.7109C325.063 92.7109 325.246 92.7148 325.465 92.7227C325.684 92.7227 325.852 92.7266 325.969 92.7344V94.7734C325.899 94.7578 325.742 94.7344 325.5 94.7031C325.258 94.6719 325 94.6562 324.727 94.6562C324.094 94.6562 323.528 94.7891 323.028 95.0547C322.528 95.3203 322.133 95.6836 321.844 96.1445C321.563 96.6055 321.422 97.1328 321.422 97.7266V106H319.43ZM332.331 106V88.5391H342.878V90.4141H334.44V96.25H342.315V98.125H334.44V104.125H342.995V106H332.331ZM350.57 92.8984V94.6094H343.797V92.8984H350.57ZM345.766 89.7812H347.758V102.25C347.758 102.93 347.898 103.43 348.18 103.75C348.461 104.062 348.906 104.219 349.516 104.219C349.648 104.219 349.785 104.211 349.926 104.195C350.074 104.18 350.234 104.156 350.406 104.125L350.828 105.93C350.641 106 350.41 106.055 350.137 106.094C349.871 106.141 349.601 106.164 349.328 106.164C348.273 106.164 347.414 105.852 346.75 105.227C346.094 104.602 345.766 103.789 345.766 102.789V89.7812ZM354.372 98.125V106H352.38V88.5391H354.372V94.9609H354.56C354.864 94.2812 355.321 93.7422 355.931 93.3438C356.548 92.9375 357.372 92.7344 358.403 92.7344C359.294 92.7344 360.075 92.9141 360.747 93.2734C361.419 93.625 361.942 94.168 362.317 94.9023C362.692 95.6289 362.88 96.5547 362.88 97.6797V106H360.864V97.8203C360.864 96.7734 360.595 95.9648 360.056 95.3945C359.517 94.8242 358.771 94.5391 357.817 94.5391C357.153 94.5391 356.564 94.6797 356.048 94.9609C355.532 95.2422 355.122 95.6484 354.817 96.1797C354.521 96.7109 354.372 97.3594 354.372 98.125ZM370.549 106.281C369.291 106.281 368.201 106 367.28 105.438C366.366 104.875 365.662 104.09 365.17 103.082C364.678 102.066 364.432 100.891 364.432 99.5547C364.432 98.2109 364.674 97.0273 365.158 96.0039C365.643 94.9805 366.323 94.1797 367.198 93.6016C368.08 93.0234 369.112 92.7344 370.291 92.7344C370.971 92.7344 371.647 92.8477 372.319 93.0742C372.991 93.3008 373.6 93.668 374.147 94.1758C374.701 94.6836 375.143 95.3555 375.471 96.1914C375.799 97.0273 375.963 98.0547 375.963 99.2734V100.141H365.862V98.4062H374.873L373.948 99.0625C373.948 98.1875 373.811 97.4102 373.537 96.7305C373.264 96.0508 372.854 95.5156 372.307 95.125C371.768 94.7344 371.096 94.5391 370.291 94.5391C369.487 94.5391 368.795 94.7383 368.217 95.1367C367.647 95.5273 367.209 96.0391 366.905 96.6719C366.6 97.3047 366.448 97.9844 366.448 98.7109V99.8594C366.448 100.852 366.619 101.691 366.963 102.379C367.307 103.066 367.787 103.59 368.405 103.949C369.022 104.301 369.737 104.477 370.549 104.477C371.073 104.477 371.549 104.402 371.979 104.254C372.408 104.098 372.78 103.867 373.092 103.562C373.405 103.25 373.643 102.867 373.807 102.414L375.752 102.977C375.549 103.633 375.205 104.211 374.721 104.711C374.244 105.203 373.651 105.59 372.94 105.871C372.229 106.145 371.432 106.281 370.549 106.281ZM377.468 106V92.8984H379.39V94.8906H379.531C379.773 94.2422 380.207 93.7188 380.832 93.3203C381.464 92.9141 382.171 92.7109 382.953 92.7109C383.101 92.7109 383.285 92.7148 383.503 92.7227C383.722 92.7227 383.89 92.7266 384.007 92.7344V94.7734C383.937 94.7578 383.781 94.7344 383.539 94.7031C383.296 94.6719 383.039 94.6562 382.765 94.6562C382.132 94.6562 381.566 94.7891 381.066 95.0547C380.566 95.3203 380.171 95.6836 379.882 96.1445C379.601 96.6055 379.46 97.1328 379.46 97.7266V106H377.468ZM389.966 106.281C388.708 106.281 387.618 106 386.696 105.438C385.782 104.875 385.079 104.09 384.587 103.082C384.094 102.066 383.848 100.891 383.848 99.5547C383.848 98.2109 384.091 97.0273 384.575 96.0039C385.059 94.9805 385.739 94.1797 386.614 93.6016C387.497 93.0234 388.528 92.7344 389.708 92.7344C390.387 92.7344 391.063 92.8477 391.735 93.0742C392.407 93.3008 393.016 93.668 393.563 94.1758C394.118 94.6836 394.559 95.3555 394.887 96.1914C395.216 97.0273 395.38 98.0547 395.38 99.2734V100.141H385.278V98.4062H394.29L393.364 99.0625C393.364 98.1875 393.227 97.4102 392.954 96.7305C392.68 96.0508 392.27 95.5156 391.723 95.125C391.184 94.7344 390.512 94.5391 389.708 94.5391C388.903 94.5391 388.212 94.7383 387.633 95.1367C387.063 95.5273 386.626 96.0391 386.321 96.6719C386.016 97.3047 385.864 97.9844 385.864 98.7109V99.8594C385.864 100.852 386.036 101.691 386.38 102.379C386.723 103.066 387.204 103.59 387.821 103.949C388.438 104.301 389.153 104.477 389.966 104.477C390.489 104.477 390.966 104.402 391.395 104.254C391.825 104.098 392.196 103.867 392.508 103.562C392.821 103.25 393.059 102.867 393.223 102.414L395.169 102.977C394.966 103.633 394.622 104.211 394.137 104.711C393.661 105.203 393.067 105.59 392.356 105.871C391.645 106.145 390.848 106.281 389.966 106.281ZM405.135 100.656V92.8984H407.127V106H405.135V103.773H404.994C404.682 104.438 404.201 105.004 403.553 105.473C402.912 105.941 402.096 106.172 401.103 106.164C400.283 106.164 399.557 105.988 398.924 105.637C398.291 105.277 397.791 104.73 397.424 103.996C397.064 103.262 396.885 102.336 396.885 101.219V92.8984H398.877V101.102C398.877 102.047 399.146 102.805 399.685 103.375C400.232 103.945 400.924 104.227 401.76 104.219C402.26 104.219 402.767 104.094 403.283 103.844C403.807 103.586 404.244 103.195 404.596 102.672C404.955 102.141 405.135 101.469 405.135 100.656ZM409.312 106V92.8984H411.234V94.9609H411.421C411.694 94.2578 412.136 93.7109 412.745 93.3203C413.355 92.9297 414.085 92.7344 414.937 92.7344C415.796 92.7344 416.511 92.9297 417.081 93.3203C417.659 93.7109 418.109 94.2578 418.429 94.9609H418.569C418.913 94.2812 419.417 93.7422 420.081 93.3438C420.753 92.9375 421.554 92.7344 422.484 92.7344C423.655 92.7344 424.616 93.1016 425.366 93.8359C426.116 94.5625 426.491 95.6953 426.491 97.2344V106H424.476V97.2344C424.476 96.2656 424.21 95.5742 423.679 95.1602C423.148 94.7461 422.523 94.5391 421.804 94.5391C420.89 94.5391 420.179 94.8203 419.671 95.3828C419.171 95.9375 418.921 96.6328 418.921 97.4688V106H416.859V97.0234C416.859 96.2812 416.62 95.6836 416.144 95.2305C415.667 94.7695 415.046 94.5391 414.28 94.5391C413.757 94.5391 413.269 94.6797 412.816 94.9609C412.362 95.2422 411.995 95.6289 411.714 96.1211C411.441 96.6133 411.304 97.1797 411.304 97.8203V106H409.312ZM435.9 98.125V106H433.908V88.5391H435.9V94.9609H436.087C436.392 94.2812 436.849 93.7422 437.459 93.3438C438.076 92.9375 438.9 92.7344 439.931 92.7344C440.822 92.7344 441.603 92.9141 442.275 93.2734C442.947 93.625 443.47 94.168 443.845 94.9023C444.22 95.6289 444.408 96.5547 444.408 97.6797V106H442.392V97.8203C442.392 96.7734 442.123 95.9648 441.584 95.3945C441.044 94.8242 440.298 94.5391 439.345 94.5391C438.681 94.5391 438.091 94.6797 437.576 94.9609C437.06 95.2422 436.65 95.6484 436.345 96.1797C436.048 96.7109 435.9 97.3594 435.9 98.125ZM450.436 106.305C449.608 106.305 448.854 106.148 448.175 105.836C447.495 105.516 446.956 105.055 446.557 104.453C446.159 103.852 445.96 103.125 445.96 102.273C445.96 101.523 446.108 100.918 446.405 100.457C446.702 99.9883 447.096 99.6211 447.589 99.3555C448.089 99.082 448.635 98.8789 449.229 98.7461C449.831 98.6133 450.436 98.5078 451.046 98.4297C451.842 98.3281 452.487 98.25 452.979 98.1953C453.479 98.1406 453.842 98.0469 454.069 97.9141C454.303 97.7812 454.421 97.5547 454.421 97.2344V97.1641C454.421 96.3281 454.19 95.6797 453.729 95.2188C453.276 94.75 452.585 94.5156 451.655 94.5156C450.702 94.5156 449.952 94.7266 449.405 95.1484C448.858 95.5625 448.475 96.0078 448.257 96.4844L446.335 95.8047C446.678 95.0078 447.135 94.3867 447.706 93.9414C448.284 93.4961 448.909 93.1836 449.581 93.0039C450.26 92.8242 450.928 92.7344 451.585 92.7344C452.007 92.7344 452.491 92.7852 453.038 92.8867C453.585 92.9805 454.116 93.1836 454.632 93.4961C455.155 93.8008 455.585 94.2656 455.921 94.8906C456.264 95.5078 456.436 96.3359 456.436 97.375V106H454.421V104.219H454.327C454.194 104.5 453.967 104.805 453.647 105.133C453.327 105.453 452.901 105.73 452.37 105.965C451.846 106.191 451.202 106.305 450.436 106.305ZM450.741 104.5C451.538 104.5 452.21 104.344 452.757 104.031C453.303 103.719 453.717 103.316 453.999 102.824C454.28 102.324 454.421 101.805 454.421 101.266V99.4141C454.335 99.5156 454.147 99.6094 453.858 99.6953C453.577 99.7734 453.249 99.8438 452.874 99.9062C452.507 99.9688 452.147 100.023 451.796 100.07C451.444 100.109 451.163 100.141 450.952 100.164C450.428 100.234 449.94 100.348 449.487 100.504C449.034 100.652 448.667 100.875 448.385 101.172C448.112 101.469 447.975 101.875 447.975 102.391C447.975 103.086 448.233 103.613 448.749 103.973C449.272 104.324 449.936 104.5 450.741 104.5ZM463.918 106.281C462.699 106.281 461.644 105.992 460.754 105.414C459.871 104.828 459.187 104.027 458.703 103.012C458.227 101.996 457.988 100.836 457.988 99.5312C457.988 98.1953 458.234 97.0195 458.727 96.0039C459.219 94.9805 459.906 94.1797 460.789 93.6016C461.68 93.0234 462.715 92.7344 463.894 92.7344C464.816 92.7344 465.644 92.9062 466.379 93.25C467.121 93.5859 467.727 94.0625 468.195 94.6797C468.672 95.2969 468.965 96.0156 469.074 96.8359H467.059C466.957 96.4375 466.773 96.0625 466.508 95.7109C466.242 95.3594 465.891 95.0781 465.453 94.8672C465.023 94.6484 464.512 94.5391 463.918 94.5391C463.137 94.5391 462.453 94.7422 461.867 95.1484C461.281 95.5547 460.824 96.1289 460.496 96.8711C460.168 97.6055 460.004 98.4688 460.004 99.4609C460.004 100.469 460.164 101.352 460.484 102.109C460.805 102.859 461.258 103.441 461.844 103.855C462.437 104.27 463.129 104.477 463.918 104.477C464.707 104.477 465.383 104.273 465.945 103.867C466.508 103.453 466.879 102.891 467.059 102.18H469.074C468.965 102.953 468.684 103.648 468.23 104.266C467.785 104.883 467.195 105.375 466.461 105.742C465.734 106.102 464.887 106.281 463.918 106.281ZM472.454 101.219L472.407 98.7344H472.829L478.548 92.8984H481.032L474.939 99.0859H474.751L472.454 101.219ZM470.579 106V88.5391H472.571V106H470.579ZM478.876 106L473.767 99.5312L475.196 98.125L481.454 106H478.876ZM485.959 106.305C485.131 106.305 484.377 106.148 483.698 105.836C483.018 105.516 482.479 105.055 482.08 104.453C481.682 103.852 481.483 103.125 481.483 102.273C481.483 101.523 481.631 100.918 481.928 100.457C482.225 99.9883 482.619 99.6211 483.112 99.3555C483.612 99.082 484.159 98.8789 484.752 98.7461C485.354 98.6133 485.959 98.5078 486.569 98.4297C487.366 98.3281 488.01 98.25 488.502 98.1953C489.002 98.1406 489.366 98.0469 489.592 97.9141C489.826 97.7812 489.944 97.5547 489.944 97.2344V97.1641C489.944 96.3281 489.713 95.6797 489.252 95.2188C488.799 94.75 488.108 94.5156 487.178 94.5156C486.225 94.5156 485.475 94.7266 484.928 95.1484C484.381 95.5625 483.998 96.0078 483.78 96.4844L481.858 95.8047C482.201 95.0078 482.659 94.3867 483.229 93.9414C483.807 93.4961 484.432 93.1836 485.104 93.0039C485.784 92.8242 486.451 92.7344 487.108 92.7344C487.53 92.7344 488.014 92.7852 488.561 92.8867C489.108 92.9805 489.639 93.1836 490.155 93.4961C490.678 93.8008 491.108 94.2656 491.444 94.8906C491.787 95.5078 491.959 96.3359 491.959 97.375V106H489.944V104.219H489.85C489.717 104.5 489.491 104.805 489.17 105.133C488.85 105.453 488.424 105.73 487.893 105.965C487.369 106.191 486.725 106.305 485.959 106.305ZM486.264 104.5C487.061 104.5 487.733 104.344 488.28 104.031C488.826 103.719 489.241 103.316 489.522 102.824C489.803 102.324 489.944 101.805 489.944 101.266V99.4141C489.858 99.5156 489.67 99.6094 489.381 99.6953C489.1 99.7734 488.772 99.8438 488.397 99.9062C488.03 99.9688 487.67 100.023 487.319 100.07C486.967 100.109 486.686 100.141 486.475 100.164C485.951 100.234 485.463 100.348 485.01 100.504C484.557 100.652 484.19 100.875 483.909 101.172C483.635 101.469 483.498 101.875 483.498 102.391C483.498 103.086 483.756 103.613 484.272 103.973C484.795 104.324 485.459 104.5 486.264 104.5ZM499.816 92.8984V94.6094H493.043V92.8984H499.816ZM495.011 89.7812H497.003V102.25C497.003 102.93 497.144 103.43 497.425 103.75C497.707 104.062 498.152 104.219 498.761 104.219C498.894 104.219 499.031 104.211 499.171 104.195C499.32 104.18 499.48 104.156 499.652 104.125L500.074 105.93C499.886 106 499.656 106.055 499.382 106.094C499.117 106.141 498.847 106.164 498.574 106.164C497.519 106.164 496.66 105.852 495.996 105.227C495.339 104.602 495.011 103.789 495.011 102.789V89.7812ZM503.618 98.125V106H501.626V88.5391H503.618V94.9609H503.805C504.11 94.2812 504.567 93.7422 505.176 93.3438C505.794 92.9375 506.618 92.7344 507.649 92.7344C508.54 92.7344 509.321 92.9141 509.993 93.2734C510.665 93.625 511.188 94.168 511.563 94.9023C511.938 95.6289 512.126 96.5547 512.126 97.6797V106H510.11V97.8203C510.11 96.7734 509.841 95.9648 509.301 95.3945C508.762 94.8242 508.016 94.5391 507.063 94.5391C506.399 94.5391 505.809 94.6797 505.294 94.9609C504.778 95.2422 504.368 95.6484 504.063 96.1797C503.766 96.7109 503.618 97.3594 503.618 98.125ZM519.607 106.281C518.428 106.281 517.393 106 516.502 105.438C515.611 104.875 514.916 104.086 514.416 103.07C513.924 102.055 513.678 100.875 513.678 99.5312C513.678 98.1641 513.924 96.9727 514.416 95.957C514.916 94.9336 515.611 94.1406 516.502 93.5781C517.393 93.0156 518.428 92.7344 519.607 92.7344C520.795 92.7344 521.834 93.0156 522.725 93.5781C523.615 94.1406 524.31 94.9336 524.81 95.957C525.31 96.9727 525.56 98.1641 525.56 99.5312C525.56 100.875 525.31 102.055 524.81 103.07C524.31 104.086 523.615 104.875 522.725 105.438C521.834 106 520.795 106.281 519.607 106.281ZM519.607 104.477C520.514 104.477 521.256 104.246 521.834 103.785C522.412 103.324 522.842 102.719 523.123 101.969C523.404 101.211 523.545 100.398 523.545 99.5312C523.545 98.6484 523.404 97.8281 523.123 97.0703C522.842 96.3125 522.412 95.7031 521.834 95.2422C521.256 94.7734 520.514 94.5391 519.607 94.5391C518.717 94.5391 517.982 94.7734 517.404 95.2422C516.826 95.7031 516.396 96.3125 516.115 97.0703C515.834 97.8281 515.693 98.6484 515.693 99.5312C515.693 100.398 515.834 101.211 516.115 101.969C516.396 102.719 516.826 103.324 517.404 103.785C517.982 104.246 518.717 104.477 519.607 104.477ZM529.105 98.125V106H527.112V92.8984H529.034V94.9609H529.222C529.526 94.2891 529.991 93.75 530.616 93.3438C531.241 92.9375 532.05 92.7344 533.042 92.7344C533.925 92.7344 534.698 92.9141 535.362 93.2734C536.026 93.6328 536.542 94.1797 536.909 94.9141C537.284 95.6406 537.472 96.5625 537.472 97.6797V106H535.48V97.8203C535.48 96.7969 535.21 95.9961 534.671 95.418C534.132 94.832 533.398 94.5391 532.468 94.5391C531.827 94.5391 531.253 94.6797 530.745 94.9609C530.237 95.2422 529.835 95.6484 529.538 96.1797C529.249 96.7109 529.105 97.3594 529.105 98.125ZM544.888 106V92.8984H546.88V106H544.888ZM545.896 90.7188C545.505 90.7188 545.169 90.5859 544.888 90.3203C544.607 90.0547 544.466 89.7344 544.466 89.3594C544.466 88.9844 544.607 88.6641 544.888 88.3984C545.169 88.1328 545.505 88 545.896 88C546.287 88 546.623 88.1328 546.904 88.3984C547.185 88.6641 547.326 88.9844 547.326 89.3594C547.326 89.7344 547.185 90.0547 546.904 90.3203C546.623 90.5859 546.287 90.7188 545.896 90.7188ZM551.057 98.125V106H549.065V92.8984H550.987V94.9609H551.175C551.479 94.2891 551.944 93.75 552.569 93.3438C553.194 92.9375 554.003 92.7344 554.995 92.7344C555.878 92.7344 556.651 92.9141 557.315 93.2734C557.979 93.6328 558.495 94.1797 558.862 94.9141C559.237 95.6406 559.425 96.5625 559.425 97.6797V106H557.432V97.8203C557.432 96.7969 557.163 95.9961 556.624 95.418C556.085 94.832 555.35 94.5391 554.421 94.5391C553.78 94.5391 553.206 94.6797 552.698 94.9609C552.19 95.2422 551.788 95.6484 551.491 96.1797C551.202 96.7109 551.057 97.3594 551.057 98.125ZM567.099 88.5391H569.63L575.56 103.023H575.771L581.7 88.5391H584.314V106H582.239V92.7344H582.075L576.579 106H574.681L569.255 92.7344H569.091V106H567.099V88.5391ZM595.018 100.656V92.8984H597.01V106H595.018V103.773H594.877C594.565 104.438 594.084 105.004 593.436 105.473C592.795 105.941 591.979 106.172 590.987 106.164C590.166 106.164 589.44 105.988 588.807 105.637C588.174 105.277 587.674 104.73 587.307 103.996C586.948 103.262 586.768 102.336 586.768 101.219V92.8984H588.76V101.102C588.76 102.047 589.03 102.805 589.569 103.375C590.116 103.945 590.807 104.227 591.643 104.219C592.143 104.219 592.651 104.094 593.166 103.844C593.69 103.586 594.127 103.195 594.479 102.672C594.838 102.141 595.018 101.469 595.018 100.656ZM599.195 106V92.8984H601.117V94.9609H601.304C601.578 94.2578 602.019 93.7109 602.628 93.3203C603.238 92.9297 603.968 92.7344 604.82 92.7344C605.679 92.7344 606.394 92.9297 606.964 93.3203C607.543 93.7109 607.992 94.2578 608.312 94.9609H608.453C608.796 94.2812 609.3 93.7422 609.964 93.3438C610.636 92.9375 611.437 92.7344 612.367 92.7344C613.539 92.7344 614.5 93.1016 615.25 93.8359C616 94.5625 616.375 95.6953 616.375 97.2344V106H614.359V97.2344C614.359 96.2656 614.093 95.5742 613.562 95.1602C613.031 94.7461 612.406 94.5391 611.687 94.5391C610.773 94.5391 610.062 94.8203 609.554 95.3828C609.054 95.9375 608.804 96.6328 608.804 97.4688V106H606.742V97.0234C606.742 96.2812 606.503 95.6836 606.027 95.2305C605.55 94.7695 604.929 94.5391 604.164 94.5391C603.64 94.5391 603.152 94.6797 602.699 94.9609C602.246 95.2422 601.878 95.6289 601.597 96.1211C601.324 96.6133 601.187 97.1797 601.187 97.8203V106H599.195ZM624.536 106.281C623.7 106.281 623.028 106.141 622.52 105.859C622.012 105.57 621.622 105.246 621.348 104.887C621.075 104.52 620.864 104.219 620.716 103.984H620.481V106H618.559V88.5391H620.552V94.9844H620.716C620.864 94.7578 621.071 94.4688 621.337 94.1172C621.602 93.7578 621.985 93.4375 622.485 93.1562C622.985 92.875 623.661 92.7344 624.512 92.7344C625.614 92.7344 626.583 93.0117 627.419 93.5664C628.255 94.1133 628.907 94.8945 629.376 95.9102C629.852 96.918 630.091 98.1094 630.091 99.4844C630.091 100.867 629.856 102.07 629.387 103.094C628.919 104.109 628.266 104.895 627.43 105.449C626.594 106.004 625.63 106.281 624.536 106.281ZM624.278 104.477C625.114 104.477 625.813 104.254 626.376 103.809C626.938 103.355 627.36 102.75 627.641 101.992C627.93 101.234 628.075 100.391 628.075 99.4609C628.075 98.5391 627.934 97.707 627.653 96.9648C627.372 96.2227 626.95 95.6328 626.387 95.1953C625.833 94.7578 625.13 94.5391 624.278 94.5391C623.458 94.5391 622.77 94.7461 622.216 95.1602C621.661 95.5664 621.239 96.1406 620.95 96.8828C620.669 97.6172 620.528 98.4766 620.528 99.4609C620.528 100.445 620.673 101.316 620.962 102.074C621.251 102.824 621.673 103.414 622.227 103.844C622.79 104.266 623.473 104.477 624.278 104.477ZM635.486 106.305C634.658 106.305 633.904 106.148 633.225 105.836C632.545 105.516 632.006 105.055 631.607 104.453C631.209 103.852 631.01 103.125 631.01 102.273C631.01 101.523 631.158 100.918 631.455 100.457C631.752 99.9883 632.146 99.6211 632.639 99.3555C633.139 99.082 633.685 98.8789 634.279 98.7461C634.881 98.6133 635.486 98.5078 636.096 98.4297C636.893 98.3281 637.537 98.25 638.029 98.1953C638.529 98.1406 638.893 98.0469 639.119 97.9141C639.353 97.7812 639.471 97.5547 639.471 97.2344V97.1641C639.471 96.3281 639.24 95.6797 638.779 95.2188C638.326 94.75 637.635 94.5156 636.705 94.5156C635.752 94.5156 635.002 94.7266 634.455 95.1484C633.908 95.5625 633.525 96.0078 633.307 96.4844L631.385 95.8047C631.728 95.0078 632.185 94.3867 632.756 93.9414C633.334 93.4961 633.959 93.1836 634.631 93.0039C635.31 92.8242 635.978 92.7344 636.635 92.7344C637.057 92.7344 637.541 92.7852 638.088 92.8867C638.635 92.9805 639.166 93.1836 639.682 93.4961C640.205 93.8008 640.635 94.2656 640.971 94.8906C641.314 95.5078 641.486 96.3359 641.486 97.375V106H639.471V104.219H639.377C639.244 104.5 639.018 104.805 638.697 105.133C638.377 105.453 637.951 105.73 637.42 105.965C636.896 106.191 636.252 106.305 635.486 106.305ZM635.791 104.5C636.588 104.5 637.26 104.344 637.807 104.031C638.353 103.719 638.768 103.316 639.049 102.824C639.33 102.324 639.471 101.805 639.471 101.266V99.4141C639.385 99.5156 639.197 99.6094 638.908 99.6953C638.627 99.7734 638.299 99.8438 637.924 99.9062C637.557 99.9688 637.197 100.023 636.846 100.07C636.494 100.109 636.213 100.141 636.002 100.164C635.478 100.234 634.99 100.348 634.537 100.504C634.084 100.652 633.717 100.875 633.435 101.172C633.162 101.469 633.025 101.875 633.025 102.391C633.025 103.086 633.283 103.613 633.799 103.973C634.322 104.324 634.986 104.5 635.791 104.5ZM643.671 106V92.8984H645.663V106H643.671ZM644.679 90.7188C644.288 90.7188 643.952 90.5859 643.671 90.3203C643.39 90.0547 643.249 89.7344 643.249 89.3594C643.249 88.9844 643.39 88.6641 643.671 88.3984C643.952 88.1328 644.288 88 644.679 88C645.069 88 645.405 88.1328 645.687 88.3984C645.968 88.6641 646.109 88.9844 646.109 89.3594C646.109 89.7344 645.968 90.0547 645.687 90.3203C645.405 90.5859 645.069 90.7188 644.679 90.7188Z" fill="#F3F3F3"/>
<path d="M57.6746 16V54.0867L25.8861 68.4677L57.6746 16Z" fill="#62D0FC"/>
<path d="M89.4506 68.4677L57.6747 54.0867V16L89.4506 68.4677Z" fill="#1EABE4"/>
<path d="M57.6746 87.1507V54.0869L25.886 68.4679L57.6746 87.1507Z" fill="#1EABE4"/>
<path d="M89.4506 68.4679L57.6747 54.0869V87.1507L89.4506 68.4679Z" fill="#0075A5"/>
<path d="M77.2993 80.8156H38.0441L57.6808 92.4316L77.2993 80.8156Z" fill="#E91F25"/>
<path d="M89.4758 74.4598L57.6747 93.1426V119.01L89.4758 74.4598Z" fill="#1EABE4"/>
<path d="M25.886 74.4598L57.6746 93.1426V119.01L25.886 74.4598Z" fill="#62D0FC"/>
<path d="M77.2882 51.042H38.0714V72.6864H77.2882V51.042Z" fill="#E91F25"/>
<path d="M77.285 51.042H57.6829V72.6864H77.285V51.042Z" fill="#BF0613"/>
<path d="M40.4821 53.3688H56.094C56.3549 53.3688 56.5654 53.5793 56.5654 53.8377V63.3615H40.4821C40.2212 63.3615 40.0107 63.151 40.0107 62.8925V53.8388C40.0107 53.5793 40.2223 53.3698 40.4821 53.3698V53.3688Z" fill="black"/>
<path d="M59.315 53.3689H74.9269C75.1878 53.3689 75.3983 53.5794 75.3983 53.8378V62.8916C75.3983 63.1511 75.1867 63.3606 74.9269 63.3606H58.8436V53.8368C58.8436 53.5773 59.0552 53.3679 59.315 53.3679V53.3689Z" fill="black"/>
<path d="M40.4976 64.458H56.5653V68.443C56.5653 68.7108 56.3463 68.9286 56.0771 68.9286H40.4976C40.2284 68.9286 40.0095 68.7108 40.0095 68.443V64.9426C40.0095 64.6748 40.2284 64.457 40.4976 64.457V64.458Z" fill="black"/>
<path d="M58.8427 64.458H74.9092C75.1785 64.458 75.3974 64.6758 75.3974 64.9436V68.442C75.3974 68.7098 75.1785 68.9276 74.9092 68.9276H59.3308C59.0616 68.9276 58.8427 68.7098 58.8427 68.442V64.457V64.458Z" fill="black"/>
<path fill-rule="evenodd" clip-rule="evenodd" d="M38.0596 51.1031L77.2922 51.0927C77.1916 49.1961 77.4692 47.5068 75.8224 46.373C74.3998 45.3945 72.6839 45.0485 70.6537 44.7182C63.855 43.6125 51.6623 43.6115 44.851 44.714C43.0408 45.0068 40.8661 45.4393 39.6519 46.3418C38.4451 47.239 37.9528 48.8063 38.0586 51.1021L38.0596 51.1031Z" fill="white"/>
<path fill-rule="evenodd" clip-rule="evenodd" d="M57.6776 51.098L77.2913 51.0928C77.1907 49.1962 77.4683 47.5069 75.8216 46.3731C74.399 45.3946 72.683 45.0486 70.6529 44.7183C67.2535 44.1649 62.4231 43.8887 57.6735 43.8877L57.6766 51.097L57.6776 51.098Z" fill="#E3E6E8"/>
<path d="M59.6346 46.1909H47.5341C47.3021 46.1909 47.114 46.378 47.114 46.6088V48.99C47.114 49.2208 47.3021 49.4079 47.5341 49.4079H59.6346C59.8666 49.4079 60.0546 49.2208 60.0546 48.99V46.6088C60.0546 46.378 59.8666 46.1909 59.6346 46.1909Z" fill="#020100"/>
<path d="M68.3838 45.7284H65.1646C64.9326 45.7284 64.7445 45.9155 64.7445 46.1463V49.4518C64.7445 49.6826 64.9326 49.8697 65.1646 49.8697H68.3838C68.6158 49.8697 68.8038 49.6826 68.8038 49.4518V46.1463C68.8038 45.9155 68.6158 45.7284 68.3838 45.7284Z" fill="#020100"/>
<path fill-rule="evenodd" clip-rule="evenodd" d="M77.2923 75.5886L72.9051 75.7804C68.0705 75.9919 63.6173 76.6912 60.8821 80.6001L57.6734 85.1843L54.4668 80.5959C51.7232 76.6703 47.249 75.9659 42.3946 75.7668L38.0671 75.5886V72.6041H77.2923V75.5886Z" fill="#FBCE01"/>
<path fill-rule="evenodd" clip-rule="evenodd" d="M57.6818 72.6041H77.2934V75.5886L72.9062 75.7804C68.0716 75.9919 63.6184 76.6912 60.8832 80.6001L57.6745 85.1843L57.6818 72.6041Z" fill="#F9BE03"/>
<path d="M61.1494 75.2164H54.2123C54.0384 75.2164 53.8981 75.0767 53.8981 74.9038C53.8981 74.7308 54.0384 74.5911 54.2123 74.5911H61.1494C61.3232 74.5911 61.4636 74.7308 61.4636 74.9038C61.4636 75.0767 61.3232 75.2164 61.1494 75.2164Z" fill="black"/>
<path d="M61.1494 76.8505H54.2123C54.0384 76.8505 53.8981 76.7108 53.8981 76.5379C53.8981 76.3649 54.0384 76.2252 54.2123 76.2252H61.1494C61.3232 76.2252 61.4636 76.3649 61.4636 76.5379C61.4636 76.7108 61.3232 76.8505 61.1494 76.8505Z" fill="black"/>
<path d="M61.1494 78.4848H54.2123C54.0384 78.4848 53.8981 78.3452 53.8981 78.1722C53.8981 77.9992 54.0384 77.8596 54.2123 77.8596H61.1494C61.3232 77.8596 61.4636 77.9992 61.4636 78.1722C61.4636 78.3452 61.3232 78.4848 61.1494 78.4848Z" fill="black"/>
<path d="M77.2882 71.3578H38.0714V73.1106H77.2882V71.3578Z" fill="#029D3D"/>
<path d="M77.2944 71.3578H57.6797V73.1106H77.2944V71.3578Z" fill="#07702C"/>
<path d="M49.2132 80.6186C50 80.6186 50.6379 79.984 50.6379 79.2013C50.6379 78.4186 50 77.7841 49.2132 77.7841C48.4264 77.7841 47.7885 78.4186 47.7885 79.2013C47.7885 79.984 48.4264 80.6186 49.2132 80.6186Z" fill="white"/>
<path d="M66.1474 80.6185C66.9342 80.6185 67.572 79.984 67.572 79.2013C67.572 78.4185 66.9342 77.784 66.1474 77.784C65.3605 77.784 64.7227 78.4185 64.7227 79.2013C64.7227 79.984 65.3605 80.6185 66.1474 80.6185Z" fill="white"/>
<path d="M37.4343 59.0736H35.1297C34.7669 59.0736 34.4728 59.3661 34.4728 59.727V63.6807C34.4728 64.0416 34.7669 64.3341 35.1297 64.3341H37.4343C37.7971 64.3341 38.0911 64.0416 38.0911 63.6807V59.727C38.0911 59.3661 37.7971 59.0736 37.4343 59.0736Z" fill="#020100"/>
<path d="M80.2288 59.0736H77.9241C77.5613 59.0736 77.2673 59.3661 77.2673 59.727V63.6807C77.2673 64.0416 77.5613 64.3341 77.9241 64.3341H80.2288C80.5915 64.3341 80.8856 64.0416 80.8856 63.6807V59.727C80.8856 59.3661 80.5915 59.0736 80.2288 59.0736Z" fill="#020100"/>
<path d="M818.277 16V54.0867L786.489 68.4677L818.277 16Z" fill="#62D0FC"/>
<path d="M850.053 68.4677L818.277 54.0867V16L850.053 68.4677Z" fill="#1EABE4"/>
<path d="M818.277 87.1507V54.0869L786.489 68.4679L818.277 87.1507Z" fill="#1EABE4"/>
<path d="M850.053 68.4679L818.277 54.0869V87.1507L850.053 68.4679Z" fill="#0075A5"/>
<path d="M837.902 80.8156H798.647L818.283 92.4316L837.902 80.8156Z" fill="#E91F25"/>
<path d="M850.078 74.4598L818.277 93.1426V119.01L850.078 74.4598Z" fill="#1EABE4"/>
<path d="M786.489 74.4598L818.277 93.1426V119.01L786.489 74.4598Z" fill="#62D0FC"/>
<path d="M837.891 51.042H798.674V72.6864H837.891V51.042Z" fill="#E91F25"/>
<path d="M837.887 51.042H818.285V72.6864H837.887V51.042Z" fill="#BF0613"/>
<path d="M801.085 53.3688H816.696C816.957 53.3688 817.168 53.5793 817.168 53.8377V63.3615H801.085C800.824 63.3615 800.613 63.151 800.613 62.8925V53.8388C800.613 53.5793 800.825 53.3698 801.085 53.3698V53.3688Z" fill="black"/>
<path d="M819.917 53.3689H835.529C835.79 53.3689 836.001 53.5794 836.001 53.8378V62.8916C836.001 63.1511 835.789 63.3606 835.529 63.3606H819.446V53.8368C819.446 53.5773 819.658 53.3679 819.917 53.3679V53.3689Z" fill="black"/>
<path d="M801.1 64.458H817.168V68.443C817.168 68.7108 816.949 68.9286 816.68 68.9286H801.1C800.831 68.9286 800.612 68.7108 800.612 68.443V64.9426C800.612 64.6748 800.831 64.457 801.1 64.457V64.458Z" fill="black"/>
<path d="M819.445 64.458H835.512C835.781 64.458 836 64.6758 836 64.9436V68.442C836 68.7098 835.781 68.9276 835.512 68.9276H819.933C819.664 68.9276 819.445 68.7098 819.445 68.442V64.457V64.458Z" fill="black"/>
<path fill-rule="evenodd" clip-rule="evenodd" d="M798.662 51.1031L837.895 51.0927C837.794 49.1961 838.072 47.5068 836.425 46.373C835.002 45.3945 833.286 45.0485 831.256 44.7182C824.457 43.6125 812.265 43.6115 805.454 44.714C803.643 45.0068 801.469 45.4393 800.254 46.3418C799.048 47.239 798.555 48.8063 798.661 51.1021L798.662 51.1031Z" fill="white"/>
<path fill-rule="evenodd" clip-rule="evenodd" d="M818.28 51.098L837.894 51.0928C837.793 49.1962 838.071 47.5069 836.424 46.3731C835.001 45.3946 833.286 45.0486 831.255 44.7183C827.856 44.1649 823.026 43.8887 818.276 43.8877L818.279 51.097L818.28 51.098Z" fill="#E3E6E8"/>
<path d="M820.237 46.1909H808.137C807.905 46.1909 807.716 46.378 807.716 46.6088V48.99C807.716 49.2208 807.905 49.4079 808.137 49.4079H820.237C820.469 49.4079 820.657 49.2208 820.657 48.99V46.6088C820.657 46.378 820.469 46.1909 820.237 46.1909Z" fill="#020100"/>
<path d="M828.986 45.7284H825.767C825.535 45.7284 825.347 45.9155 825.347 46.1463V49.4518C825.347 49.6826 825.535 49.8697 825.767 49.8697H828.986C829.218 49.8697 829.406 49.6826 829.406 49.4518V46.1463C829.406 45.9155 829.218 45.7284 828.986 45.7284Z" fill="#020100"/>
<path fill-rule="evenodd" clip-rule="evenodd" d="M837.895 75.5886L833.508 75.7804C828.673 75.9919 824.22 76.6912 821.485 80.6001L818.276 85.1843L815.069 80.5959C812.326 76.6703 807.852 75.9659 802.997 75.7668L798.67 75.5886V72.6041H837.895V75.5886Z" fill="#FBCE01"/>
<path fill-rule="evenodd" clip-rule="evenodd" d="M818.284 72.6041H837.896V75.5886L833.509 75.7804C828.674 75.9919 824.221 76.6912 821.486 80.6001L818.277 85.1843L818.284 72.6041Z" fill="#F9BE03"/>
<path d="M821.752 75.2164H814.815C814.641 75.2164 814.501 75.0767 814.501 74.9038C814.501 74.7308 814.641 74.5911 814.815 74.5911H821.752C821.926 74.5911 822.066 74.7308 822.066 74.9038C822.066 75.0767 821.926 75.2164 821.752 75.2164Z" fill="black"/>
<path d="M821.752 76.8505H814.815C814.641 76.8505 814.501 76.7108 814.501 76.5379C814.501 76.3649 814.641 76.2252 814.815 76.2252H821.752C821.926 76.2252 822.066 76.3649 822.066 76.5379C822.066 76.7108 821.926 76.8505 821.752 76.8505Z" fill="black"/>
<path d="M821.752 78.4848H814.815C814.641 78.4848 814.501 78.3452 814.501 78.1722C814.501 77.9992 814.641 77.8596 814.815 77.8596H821.752C821.926 77.8596 822.066 77.9992 822.066 78.1722C822.066 78.3452 821.926 78.4848 821.752 78.4848Z" fill="black"/>
<path d="M837.891 71.3578H798.674V73.1106H837.891V71.3578Z" fill="#029D3D"/>
<path d="M837.897 71.3578H818.282V73.1106H837.897V71.3578Z" fill="#07702C"/>
<path d="M809.816 80.6186C810.603 80.6186 811.24 79.984 811.24 79.2013C811.24 78.4186 810.603 77.7841 809.816 77.7841C809.029 77.7841 808.391 78.4186 808.391 79.2013C808.391 79.984 809.029 80.6186 809.816 80.6186Z" fill="white"/>
<path d="M826.75 80.6185C827.537 80.6185 828.175 79.984 828.175 79.2013C828.175 78.4185 827.537 77.784 826.75 77.784C825.963 77.784 825.325 78.4185 825.325 79.2013C825.325 79.984 825.963 80.6185 826.75 80.6185Z" fill="white"/>
<path d="M798.037 59.0736H795.732C795.369 59.0736 795.075 59.3661 795.075 59.727V63.6807C795.075 64.0416 795.369 64.3341 795.732 64.3341H798.037C798.4 64.3341 798.694 64.0416 798.694 63.6807V59.727C798.694 59.3661 798.4 59.0736 798.037 59.0736Z" fill="#020100"/>
<path d="M840.831 59.0736H838.527C838.164 59.0736 837.87 59.3661 837.87 59.727V63.6807C837.87 64.0416 838.164 64.3341 838.527 64.3341H840.831C841.194 64.3341 841.488 64.0416 841.488 63.6807V59.727C841.488 59.3661 841.194 59.0736 840.831 59.0736Z" fill="#020100"/>
<line x1="277" y1="99.5" x2="281" y2="99.5" stroke="white"/>
<defs>
<clipPath id="clip0_1_167">
<rect width="456" height="38" fill="white" transform="translate(183 27)"/>
</clipPath>
</defs>
</svg>
