<svg width="2453" height="1390" viewBox="0 0 2453 1390" fill="none" xmlns="http://www.w3.org/2000/svg">
<path d="M2450.51 1318.88L2357.11 1196.52H116.601L2.81543 1318.88H2450.51Z" fill="#D9D9D9" stroke="black" stroke-width="2.45342"/>
<rect width="2452.99" height="391.231" fill="#E2231A"/>
<rect x="146.412" y="460.836" width="2179.37" height="602.448" fill="#E1E1E1"/>
<rect y="1320.1" width="266.421" height="69.6055" fill="#FFD600"/>
<rect x="266.42" y="1320.1" width="266.421" height="69.6055" fill="#484848"/>
<rect x="532.842" y="1320.1" width="266.421" height="69.6055" fill="#FFD600"/>
<rect x="799.262" y="1320.1" width="266.421" height="69.6055" fill="#484848"/>
<rect x="1065.68" y="1320.1" width="266.421" height="69.6055" fill="#FFD600"/>
<rect x="1332.11" y="1320.1" width="266.421" height="69.6055" fill="#484848"/>
<rect x="1598.53" y="1320.1" width="266.421" height="69.6055" fill="#FFD600"/>
<rect x="1864.95" y="1320.1" width="266.421" height="69.6055" fill="#484848"/>
<rect x="2131.37" y="1320.1" width="266.421" height="69.6055" fill="#FFD600"/>
<rect x="2397.79" y="1320.1" width="55.2044" height="69.6055" fill="#484848"/>
<rect x="123.639" y="462.063" width="21.5485" height="758.407" fill="#868585" stroke="black" stroke-width="2.45342"/>
<rect x="37.2267" y="392.458" width="21.5485" height="912.019" fill="#C5C5C5" stroke="black" stroke-width="2.45342"/>
<rect x="2387.02" y="392.458" width="21.5485" height="912.019" fill="#C5C5C5" stroke="black" stroke-width="2.45342"/>
<rect x="123.639" y="438.061" width="2224.92" height="21.5485" fill="#868585" stroke="black" stroke-width="2.45342"/>
<rect x="858.094" y="440.462" width="21.5485" height="780.009" fill="#868585" stroke="black" stroke-width="2.45342"/>
<rect x="2327.1" y="437.328" width="21.5485" height="780.009" fill="#868585" stroke="black" stroke-width="2.45342"/>
<rect x="1592.55" y="440.462" width="21.5485" height="780.009" fill="#868585" stroke="black" stroke-width="2.45342"/>
<path d="M2387.45 391.857L2337.93 437.408H139.129L84.9736 391.857H2387.45Z" fill="#726E6E" stroke="black" stroke-width="2.45342"/>
<rect x="171.535" y="495.86" width="657.851" height="529.022" rx="73.6026" fill="#3FA9F5"/>
<rect x="907.09" y="495.86" width="657.851" height="529.022" rx="73.6026" fill="#3FA9F5"/>
<rect x="1642.64" y="495.86" width="657.851" height="529.022" rx="73.6026" fill="#3FA9F5"/>
<rect x="954.104" y="1095.71" width="568.792" height="28.7491" fill="#E6E6E6" stroke="black" stroke-width="2.45342"/>
<rect x="982.904" y="1146.12" width="513.588" height="9.54753" fill="#E6E6E6" stroke="black" stroke-width="2.45342"/>
<rect x="982.904" y="1172.52" width="513.588" height="9.54753" fill="#E6E6E6" stroke="black" stroke-width="2.45342"/>
<rect x="980.506" y="1126.92" width="28.7491" height="134.357" fill="#E6E6E6" stroke="black" stroke-width="2.45342"/>
<rect x="1470.14" y="1126.92" width="28.7491" height="134.357" fill="#E6E6E6" stroke="black" stroke-width="2.45342"/>
<path d="M389.72 909.852V862.967H398.216V882.822H419.927V862.967H428.423V909.852H419.927V889.965H398.216V909.852H389.72ZM443.927 910.575C441.683 910.575 439.669 910.177 437.886 909.38C436.103 908.561 434.697 907.366 433.669 905.792C432.642 904.219 432.128 902.279 432.128 899.971C432.128 897.999 432.495 896.363 433.229 895.063C433.963 893.762 434.959 892.724 436.218 891.947C437.498 891.171 438.935 890.584 440.529 890.185C442.123 889.766 443.77 889.472 445.469 889.304C447.546 889.074 449.224 888.874 450.504 888.706C451.783 888.539 452.706 888.266 453.273 887.888C453.86 887.511 454.154 886.923 454.154 886.126V885.969C454.154 884.27 453.65 882.948 452.643 882.004C451.636 881.06 450.168 880.588 448.238 880.588C446.203 880.588 444.588 881.029 443.392 881.91C442.218 882.791 441.421 883.829 441.001 885.025L433.292 883.924C433.9 881.784 434.907 880.001 436.313 878.574C437.718 877.127 439.428 876.047 441.441 875.333C443.476 874.599 445.721 874.232 448.175 874.232C449.853 874.232 451.532 874.431 453.21 874.83C454.888 875.208 456.43 875.858 457.835 876.781C459.241 877.704 460.363 878.942 461.202 880.494C462.041 882.046 462.461 883.987 462.461 886.315V909.852H454.5V905.006H454.248C453.745 905.971 453.031 906.883 452.108 907.743C451.206 908.582 450.074 909.264 448.71 909.789C447.368 910.313 445.773 910.575 443.927 910.575ZM446.036 904.471C447.714 904.471 449.161 904.146 450.378 903.495C451.594 902.824 452.538 901.943 453.21 900.852C453.881 899.741 454.217 898.534 454.217 897.234V893.112C453.944 893.321 453.503 893.521 452.895 893.71C452.287 893.877 451.594 894.035 450.818 894.182C450.042 894.328 449.276 894.454 448.521 894.559C447.787 894.664 447.147 894.748 446.602 894.811C445.364 894.979 444.252 895.262 443.267 895.66C442.302 896.038 441.536 896.562 440.969 897.234C440.403 897.905 440.12 898.776 440.12 899.845C440.12 901.377 440.676 902.53 441.788 903.307C442.899 904.083 444.315 904.471 446.036 904.471ZM482.842 910.544C479.339 910.544 476.329 909.778 473.812 908.247C471.294 906.694 469.364 904.555 468.022 901.828C466.679 899.101 466.008 895.965 466.008 892.419C466.008 888.832 466.69 885.675 468.053 882.948C469.417 880.221 471.357 878.092 473.875 876.561C476.392 875.008 479.36 874.232 482.779 874.232C485.653 874.232 488.192 874.757 490.394 875.805C492.597 876.854 494.348 878.333 495.649 880.242C496.971 882.13 497.726 884.343 497.914 886.881H489.985C489.775 885.749 489.366 884.731 488.758 883.829C488.15 882.927 487.352 882.214 486.366 881.69C485.402 881.165 484.248 880.903 482.905 880.903C481.206 880.903 479.717 881.364 478.437 882.287C477.178 883.189 476.193 884.49 475.479 886.189C474.766 887.888 474.409 889.923 474.409 892.294C474.409 894.685 474.756 896.751 475.448 898.492C476.14 900.213 477.126 901.545 478.406 902.489C479.685 903.412 481.185 903.873 482.905 903.873C484.73 903.873 486.272 903.338 487.531 902.268C488.81 901.198 489.628 899.72 489.985 897.832H497.914C497.726 900.328 496.991 902.53 495.712 904.439C494.432 906.348 492.702 907.848 490.52 908.939C488.338 910.009 485.779 910.544 482.842 910.544ZM508.856 898.838L508.825 888.801H510.178L522.796 874.673H532.487L516.943 892.01H515.212L508.856 898.838ZM501.304 909.852V862.967H509.58V909.852H501.304ZM523.362 909.852L511.908 893.867L517.509 888.014L533.274 909.852H523.362ZM548.589 910.544C545.065 910.544 542.024 909.81 539.464 908.341C536.905 906.852 534.933 904.754 533.549 902.048C532.185 899.342 531.503 896.153 531.503 892.482C531.503 888.853 532.185 885.675 533.549 882.948C534.912 880.2 536.832 878.06 539.307 876.529C541.782 874.998 544.698 874.232 548.055 874.232C550.215 874.232 552.26 874.578 554.19 875.271C556.141 875.963 557.861 877.033 559.351 878.48C560.861 879.927 562.046 881.773 562.906 884.018C563.766 886.242 564.197 888.895 564.197 891.979V894.559H535.374V888.99H560.074L556.204 890.626C556.204 888.633 555.9 886.902 555.292 885.434C554.683 883.945 553.781 882.78 552.586 881.941C551.39 881.102 549.901 880.683 548.117 880.683C546.334 880.683 544.814 881.102 543.555 881.941C542.296 882.78 541.342 883.913 540.691 885.34C540.041 886.745 539.716 888.318 539.716 890.059V893.93C539.716 896.069 540.083 897.905 540.817 899.436C541.573 900.947 542.621 902.1 543.964 902.898C545.327 903.695 546.911 904.093 548.715 904.093C549.89 904.093 550.96 903.925 551.925 903.59C552.911 903.254 553.75 902.751 554.442 902.079C555.155 901.387 555.701 900.538 556.078 899.531L563.819 900.443C563.315 902.478 562.382 904.261 561.018 905.792C559.676 907.303 557.945 908.478 555.827 909.317C553.729 910.135 551.316 910.544 548.589 910.544ZM567.618 909.852V874.673H575.642V880.588H576.019C576.649 878.532 577.75 876.959 579.323 875.868C580.897 874.757 582.69 874.201 584.704 874.201C585.145 874.201 585.648 874.222 586.214 874.264C586.802 874.306 587.284 874.358 587.662 874.421V882.036C587.305 881.91 586.749 881.805 585.994 881.721C585.239 881.637 584.515 881.595 583.823 881.595C582.292 881.595 580.928 881.92 579.732 882.571C578.537 883.221 577.593 884.112 576.9 885.245C576.229 886.378 575.894 887.7 575.894 889.21V909.852H567.618ZM617.452 884.018L609.931 884.805C609.617 883.651 608.935 882.634 607.886 881.752C606.837 880.85 605.358 880.399 603.449 880.399C601.729 880.399 600.282 880.777 599.107 881.532C597.953 882.287 597.376 883.252 597.376 884.427C597.376 885.455 597.754 886.305 598.509 886.976C599.285 887.626 600.565 888.151 602.348 888.549L608.358 889.808C611.651 890.5 614.116 891.633 615.753 893.206C617.389 894.779 618.207 896.814 618.207 899.31C618.207 901.513 617.567 903.464 616.287 905.163C615.008 906.862 613.235 908.184 610.97 909.128C608.725 910.072 606.134 910.544 603.198 910.544C598.897 910.544 595.436 909.642 592.814 907.838C590.213 906.013 588.65 903.485 588.125 900.254L596.212 899.499C596.569 901.073 597.345 902.268 598.541 903.086C599.757 903.884 601.31 904.282 603.198 904.282C605.169 904.282 606.753 903.884 607.949 903.086C609.145 902.268 609.743 901.272 609.743 900.097C609.743 898.125 608.169 896.783 605.023 896.069L599.013 894.811C595.635 894.077 593.139 892.891 591.524 891.255C589.909 889.598 589.101 887.49 589.101 884.931C589.101 882.749 589.699 880.861 590.894 879.267C592.09 877.672 593.758 876.435 595.898 875.554C598.037 874.673 600.513 874.232 603.323 874.232C607.456 874.232 610.697 875.124 613.046 876.907C615.417 878.669 616.885 881.039 617.452 884.018Z" fill="white"/>
<path d="M1130.08 909.852V862.967H1147.67C1151.27 862.967 1154.29 863.639 1156.73 864.981C1159.18 866.324 1161.04 868.17 1162.3 870.519C1163.56 872.869 1164.18 875.533 1164.18 878.512C1164.18 881.511 1163.55 884.186 1162.27 886.535C1161.01 888.864 1159.14 890.699 1156.66 892.042C1154.19 893.363 1151.15 894.024 1147.54 894.024H1135.9V887.039H1146.38C1148.49 887.039 1150.22 886.682 1151.57 885.969C1152.93 885.235 1153.93 884.228 1154.56 882.948C1155.21 881.648 1155.53 880.169 1155.53 878.512C1155.53 876.833 1155.21 875.365 1154.56 874.106C1153.93 872.827 1152.93 871.841 1151.57 871.148C1150.22 870.435 1148.48 870.079 1146.34 870.079H1138.57V909.852H1130.08ZM1167.73 909.852V874.673H1175.76V880.588H1176.13C1176.76 878.532 1177.86 876.959 1179.44 875.868C1181.01 874.757 1182.8 874.201 1184.82 874.201C1185.26 874.201 1185.76 874.222 1186.33 874.264C1186.92 874.306 1187.4 874.358 1187.78 874.421V882.036C1187.42 881.91 1186.86 881.805 1186.11 881.721C1185.35 881.637 1184.63 881.595 1183.94 881.595C1182.41 881.595 1181.04 881.92 1179.85 882.571C1178.65 883.221 1177.71 884.112 1177.01 885.245C1176.34 886.378 1176.01 887.7 1176.01 889.21V909.852H1167.73ZM1203.69 910.544C1200.25 910.544 1197.27 909.789 1194.75 908.278C1192.24 906.768 1190.29 904.649 1188.9 901.922C1187.54 899.195 1186.86 896.028 1186.86 892.419C1186.86 888.79 1187.54 885.612 1188.9 882.885C1190.29 880.137 1192.24 878.008 1194.75 876.498C1197.27 874.987 1200.25 874.232 1203.69 874.232C1207.13 874.232 1210.11 874.987 1212.63 876.498C1215.14 878.008 1217.09 880.137 1218.48 882.885C1219.86 885.612 1220.56 888.79 1220.56 892.419C1220.56 896.028 1219.86 899.195 1218.48 901.922C1217.09 904.649 1215.14 906.768 1212.63 908.278C1210.11 909.789 1207.13 910.544 1203.69 910.544ZM1203.69 903.873C1205.6 903.873 1207.17 903.37 1208.41 902.363C1209.65 901.335 1210.57 899.95 1211.18 898.209C1211.81 896.468 1212.12 894.538 1212.12 892.419C1212.12 890.259 1211.81 888.308 1211.18 886.567C1210.57 884.826 1209.65 883.452 1208.41 882.445C1207.17 881.417 1205.6 880.903 1203.69 880.903C1201.82 880.903 1200.26 881.417 1199 882.445C1197.74 883.452 1196.8 884.826 1196.17 886.567C1195.56 888.308 1195.26 890.259 1195.26 892.419C1195.26 894.538 1195.56 896.468 1196.17 898.209C1196.8 899.95 1197.74 901.335 1199 902.363C1200.26 903.37 1201.82 903.873 1203.69 903.873ZM1224.04 874.673H1232.32V911.865C1232.34 914.404 1231.86 916.491 1230.9 918.127C1229.93 919.784 1228.54 921.011 1226.71 921.809C1224.89 922.606 1222.68 923.004 1220.07 923.004H1218.41V916.271H1219.6C1221.2 916.271 1222.33 915.883 1223 915.106C1223.69 914.351 1224.04 913.239 1224.04 911.771V874.673ZM1228.16 869.733C1226.84 869.733 1225.71 869.292 1224.76 868.411C1223.82 867.53 1223.35 866.471 1223.35 865.233C1223.35 863.974 1223.82 862.904 1224.76 862.023C1225.71 861.142 1226.84 860.702 1228.16 860.702C1229.46 860.702 1230.58 861.142 1231.53 862.023C1232.47 862.904 1232.94 863.964 1232.94 865.201C1232.94 866.46 1232.47 867.53 1231.53 868.411C1230.58 869.292 1229.46 869.733 1228.16 869.733ZM1252.95 910.544C1249.42 910.544 1246.38 909.81 1243.82 908.341C1241.26 906.852 1239.29 904.754 1237.91 902.048C1236.54 899.342 1235.86 896.153 1235.86 892.482C1235.86 888.853 1236.54 885.675 1237.91 882.948C1239.27 880.2 1241.19 878.06 1243.67 876.529C1246.14 874.998 1249.06 874.232 1252.41 874.232C1254.57 874.232 1256.62 874.578 1258.55 875.271C1260.5 875.963 1262.22 877.033 1263.71 878.48C1265.22 879.927 1266.41 881.773 1267.27 884.018C1268.13 886.242 1268.56 888.895 1268.56 891.979V894.559H1239.73V888.99H1264.43L1260.56 890.626C1260.56 888.633 1260.26 886.902 1259.65 885.434C1259.04 883.945 1258.14 882.78 1256.94 881.941C1255.75 881.102 1254.26 880.683 1252.48 880.683C1250.69 880.683 1249.17 881.102 1247.91 881.941C1246.66 882.78 1245.7 883.913 1245.05 885.34C1244.4 886.745 1244.08 888.318 1244.08 890.059V893.93C1244.08 896.069 1244.44 897.905 1245.18 899.436C1245.93 900.947 1246.98 902.1 1248.32 902.898C1249.69 903.695 1251.27 904.093 1253.07 904.093C1254.25 904.093 1255.32 903.925 1256.28 903.59C1257.27 903.254 1258.11 902.751 1258.8 902.079C1259.51 901.387 1260.06 900.538 1260.44 899.531L1268.18 900.443C1267.67 902.478 1266.74 904.261 1265.38 905.792C1264.04 907.303 1262.3 908.478 1260.19 909.317C1258.09 910.135 1255.68 910.544 1252.95 910.544ZM1287.3 910.544C1283.8 910.544 1280.79 909.778 1278.27 908.247C1275.75 906.694 1273.82 904.555 1272.48 901.828C1271.14 899.101 1270.47 895.965 1270.47 892.419C1270.47 888.832 1271.15 885.675 1272.51 882.948C1273.88 880.221 1275.82 878.092 1278.33 876.561C1280.85 875.008 1283.82 874.232 1287.24 874.232C1290.11 874.232 1292.65 874.757 1294.85 875.805C1297.06 876.854 1298.81 878.333 1300.11 880.242C1301.43 882.13 1302.18 884.343 1302.37 886.881H1294.44C1294.23 885.749 1293.82 884.731 1293.22 883.829C1292.61 882.927 1291.81 882.214 1290.83 881.69C1289.86 881.165 1288.71 880.903 1287.36 880.903C1285.66 880.903 1284.18 881.364 1282.9 882.287C1281.64 883.189 1280.65 884.49 1279.94 886.189C1279.22 887.888 1278.87 889.923 1278.87 892.294C1278.87 894.685 1279.21 896.751 1279.91 898.492C1280.6 900.213 1281.58 901.545 1282.86 902.489C1284.14 903.412 1285.64 903.873 1287.36 903.873C1289.19 903.873 1290.73 903.338 1291.99 902.268C1293.27 901.198 1294.09 899.72 1294.44 897.832H1302.37C1302.18 900.328 1301.45 902.53 1300.17 904.439C1298.89 906.348 1297.16 907.848 1294.98 908.939C1292.8 910.009 1290.24 910.544 1287.3 910.544ZM1323.29 874.673V881.092H1303.12V874.673H1323.29ZM1308.06 866.303H1316.34V899.279C1316.34 900.664 1316.64 901.691 1317.25 902.363C1317.86 903.013 1318.82 903.338 1320.14 903.338C1320.5 903.338 1320.9 903.307 1321.34 903.244C1321.78 903.181 1322.18 903.107 1322.53 903.023L1323.95 909.505C1323.07 909.778 1322.18 909.977 1321.28 910.103C1320.37 910.25 1319.47 910.324 1318.57 910.324C1315.3 910.324 1312.73 909.463 1310.86 907.743C1308.99 906.002 1308.06 903.632 1308.06 900.632V866.303ZM1354.02 884.018L1346.5 884.805C1346.19 883.651 1345.51 882.634 1344.46 881.752C1343.41 880.85 1341.93 880.399 1340.02 880.399C1338.3 880.399 1336.85 880.777 1335.68 881.532C1334.53 882.287 1333.95 883.252 1333.95 884.427C1333.95 885.455 1334.33 886.305 1335.08 886.976C1335.86 887.626 1337.14 888.151 1338.92 888.549L1344.93 889.808C1348.22 890.5 1350.69 891.633 1352.32 893.206C1353.96 894.779 1354.78 896.814 1354.78 899.31C1354.78 901.513 1354.14 903.464 1352.86 905.163C1351.58 906.862 1349.81 908.184 1347.54 909.128C1345.3 910.072 1342.71 910.544 1339.77 910.544C1335.47 910.544 1332.01 909.642 1329.39 907.838C1326.78 906.013 1325.22 903.485 1324.7 900.254L1332.78 899.499C1333.14 901.073 1333.92 902.268 1335.11 903.086C1336.33 903.884 1337.88 904.282 1339.77 904.282C1341.74 904.282 1343.33 903.884 1344.52 903.086C1345.72 902.268 1346.31 901.272 1346.31 900.097C1346.31 898.125 1344.74 896.783 1341.59 896.069L1335.58 894.811C1332.21 894.077 1329.71 892.891 1328.1 891.255C1326.48 889.598 1325.67 887.49 1325.67 884.931C1325.67 882.749 1326.27 880.861 1327.47 879.267C1328.66 877.672 1330.33 876.435 1332.47 875.554C1334.61 874.673 1337.08 874.232 1339.9 874.232C1344.03 874.232 1347.27 875.124 1349.62 876.907C1351.99 878.669 1353.46 881.039 1354.02 884.018Z" fill="white"/>
<path d="M1850.5 909.852V862.967H1868.5C1871.88 862.967 1874.69 863.502 1876.94 864.572C1879.18 865.621 1880.86 867.068 1881.97 868.914C1883.08 870.739 1883.64 872.806 1883.64 875.113C1883.64 877.022 1883.27 878.658 1882.54 880.022C1881.82 881.364 1880.85 882.455 1879.61 883.294C1878.37 884.133 1876.99 884.742 1875.46 885.119V885.591C1877.14 885.654 1878.73 886.158 1880.24 887.102C1881.77 888.025 1883.02 889.325 1883.98 891.003C1884.97 892.682 1885.46 894.706 1885.46 897.076C1885.46 899.51 1884.88 901.691 1883.7 903.621C1882.55 905.53 1880.79 907.051 1878.41 908.184C1876.07 909.296 1873.1 909.852 1869.51 909.852H1850.5ZM1859 902.772H1868.13C1871.21 902.772 1873.43 902.174 1874.8 900.978C1876.18 899.782 1876.87 898.262 1876.87 896.416C1876.87 895.01 1876.53 893.751 1875.83 892.64C1875.14 891.528 1874.16 890.647 1872.88 889.997C1871.62 889.346 1870.13 889.021 1868.41 889.021H1859V902.772ZM1859 882.917H1867.43C1868.88 882.917 1870.19 882.644 1871.37 882.099C1872.54 881.553 1873.46 880.788 1874.14 879.802C1874.83 878.795 1875.17 877.609 1875.17 876.246C1875.17 874.442 1874.53 872.953 1873.25 871.778C1871.97 870.582 1870.1 869.984 1867.62 869.984H1859V882.917ZM1904.37 910.544C1900.93 910.544 1897.95 909.789 1895.43 908.278C1892.91 906.768 1890.96 904.649 1889.58 901.922C1888.21 899.195 1887.53 896.028 1887.53 892.419C1887.53 888.79 1888.21 885.612 1889.58 882.885C1890.96 880.137 1892.91 878.008 1895.43 876.498C1897.95 874.987 1900.93 874.232 1904.37 874.232C1907.81 874.232 1910.79 874.987 1913.3 876.498C1915.82 878.008 1917.77 880.137 1919.15 882.885C1920.54 885.612 1921.23 888.79 1921.23 892.419C1921.23 896.028 1920.54 899.195 1919.15 901.922C1917.77 904.649 1915.82 906.768 1913.3 908.278C1910.79 909.789 1907.81 910.544 1904.37 910.544ZM1904.37 903.873C1906.27 903.873 1907.85 903.37 1909.09 902.363C1910.32 901.335 1911.25 899.95 1911.85 898.209C1912.48 896.468 1912.8 894.538 1912.8 892.419C1912.8 890.259 1912.48 888.308 1911.85 886.567C1911.25 884.826 1910.32 883.452 1909.09 882.445C1907.85 881.417 1906.27 880.903 1904.37 880.903C1902.5 880.903 1900.94 881.417 1899.68 882.445C1898.42 883.452 1897.47 884.826 1896.85 886.567C1896.24 888.308 1895.93 890.259 1895.93 892.419C1895.93 894.538 1896.24 896.468 1896.85 898.209C1897.47 899.95 1898.42 901.335 1899.68 902.363C1900.94 903.37 1902.5 903.873 1904.37 903.873ZM1947.12 895.094V874.673H1955.4V909.852H1947.37V903.59H1946.99C1946.2 905.562 1944.9 907.177 1943.09 908.436C1941.29 909.694 1939.06 910.313 1936.42 910.292C1934.11 910.292 1932.08 909.789 1930.32 908.782C1928.58 907.754 1927.2 906.254 1926.2 904.282C1925.21 902.289 1924.72 899.887 1924.72 897.076V874.673H1932.99V895.818C1932.99 898.02 1933.6 899.782 1934.82 901.104C1936.05 902.426 1937.67 903.076 1939.66 903.055C1940.88 903.055 1942.05 902.761 1943.19 902.174C1944.34 901.587 1945.28 900.705 1946.02 899.531C1946.75 898.356 1947.12 896.877 1947.12 895.094ZM1968.73 889.273V909.852H1960.45V874.673H1968.57V880.683H1968.98C1969.78 878.711 1971.03 877.148 1972.72 875.994C1974.44 874.82 1976.63 874.232 1979.27 874.232C1981.7 874.232 1983.82 874.746 1985.63 875.774C1987.43 876.802 1988.82 878.312 1989.81 880.305C1990.82 882.277 1991.32 884.668 1991.32 887.479V909.852H1983.05V888.769C1983.05 886.42 1982.44 884.584 1981.22 883.263C1980 881.92 1978.33 881.249 1976.19 881.249C1974.74 881.249 1973.45 881.564 1972.32 882.193C1971.2 882.822 1970.32 883.735 1969.67 884.931C1969.04 886.105 1968.73 887.553 1968.73 889.273ZM2013.91 874.673V881.092H1993.74V874.673H2013.91ZM1998.68 866.303H2006.95V899.279C2006.95 900.664 2007.26 901.691 2007.86 902.363C2008.47 903.013 2009.44 903.338 2010.76 903.338C2011.12 903.338 2011.51 903.307 2011.95 903.244C2012.4 903.181 2012.79 903.107 2013.15 903.023L2014.57 909.505C2013.69 909.778 2012.79 909.977 2011.89 910.103C2010.99 910.25 2010.09 910.324 2009.19 910.324C2005.91 910.324 2003.34 909.463 2001.48 907.743C1999.61 906.002 1998.68 903.632 1998.68 900.632V866.303ZM2017.39 909.852V874.673H2025.67V909.852H2017.39ZM2021.54 869.733C2020.22 869.733 2019.09 869.292 2018.14 868.411C2017.2 867.53 2016.73 866.471 2016.73 865.233C2016.73 863.974 2017.2 862.904 2018.14 862.023C2019.09 861.142 2020.22 860.702 2021.54 860.702C2022.84 860.702 2023.97 861.142 2024.91 862.023C2025.85 862.904 2026.33 863.964 2026.33 865.201C2026.33 866.46 2025.85 867.53 2024.91 868.411C2023.97 869.292 2022.84 869.733 2021.54 869.733ZM2046.3 910.544C2042.77 910.544 2039.73 909.81 2037.17 908.341C2034.61 906.852 2032.64 904.754 2031.26 902.048C2029.89 899.342 2029.21 896.153 2029.21 892.482C2029.21 888.853 2029.89 885.675 2031.26 882.948C2032.62 880.2 2034.54 878.06 2037.02 876.529C2039.49 874.998 2042.41 874.232 2045.76 874.232C2047.92 874.232 2049.97 874.578 2051.9 875.271C2053.85 875.963 2055.57 877.033 2057.06 878.48C2058.57 879.927 2059.76 881.773 2060.62 884.018C2061.48 886.242 2061.91 888.895 2061.91 891.979V894.559H2033.08V888.99H2057.78L2053.91 890.626C2053.91 888.633 2053.61 886.902 2053 885.434C2052.39 883.945 2051.49 882.78 2050.29 881.941C2049.1 881.102 2047.61 880.683 2045.83 880.683C2044.04 880.683 2042.52 881.102 2041.26 881.941C2040.01 882.78 2039.05 883.913 2038.4 885.34C2037.75 886.745 2037.43 888.318 2037.43 890.059V893.93C2037.43 896.069 2037.79 897.905 2038.53 899.436C2039.28 900.947 2040.33 902.1 2041.67 902.898C2043.04 903.695 2044.62 904.093 2046.42 904.093C2047.6 904.093 2048.67 903.925 2049.63 903.59C2050.62 903.254 2051.46 902.751 2052.15 902.079C2052.86 901.387 2053.41 900.538 2053.79 899.531L2061.53 900.443C2061.02 902.478 2060.09 904.261 2058.73 905.792C2057.39 907.303 2055.65 908.478 2053.54 909.317C2051.44 910.135 2049.03 910.544 2046.3 910.544ZM2093.08 884.018L2085.56 884.805C2085.25 883.651 2084.56 882.634 2083.51 881.752C2082.47 880.85 2080.99 880.399 2079.08 880.399C2077.36 880.399 2075.91 880.777 2074.74 881.532C2073.58 882.287 2073 883.252 2073 884.427C2073 885.455 2073.38 886.305 2074.14 886.976C2074.91 887.626 2076.19 888.151 2077.98 888.549L2083.99 889.808C2087.28 890.5 2089.74 891.633 2091.38 893.206C2093.02 894.779 2093.84 896.814 2093.84 899.31C2093.84 901.513 2093.2 903.464 2091.92 905.163C2090.64 906.862 2088.86 908.184 2086.6 909.128C2084.35 910.072 2081.76 910.544 2078.83 910.544C2074.53 910.544 2071.06 909.642 2068.44 907.838C2065.84 906.013 2064.28 903.485 2063.75 900.254L2071.84 899.499C2072.2 901.073 2072.97 902.268 2074.17 903.086C2075.39 903.884 2076.94 904.282 2078.83 904.282C2080.8 904.282 2082.38 903.884 2083.58 903.086C2084.77 902.268 2085.37 901.272 2085.37 900.097C2085.37 898.125 2083.8 896.783 2080.65 896.069L2074.64 894.811C2071.26 894.077 2068.77 892.891 2067.15 891.255C2065.54 889.598 2064.73 887.49 2064.73 884.931C2064.73 882.749 2065.33 880.861 2066.52 879.267C2067.72 877.672 2069.39 876.435 2071.53 875.554C2073.67 874.673 2076.14 874.232 2078.95 874.232C2083.08 874.232 2086.33 875.124 2088.67 876.907C2091.05 878.669 2092.51 881.039 2093.08 884.018Z" fill="white"/>
<path d="M484.819 194.314V96.4686H548.517V111.31H502.55V137.577H545.103V152.221H502.55V179.473H548.78V194.314H484.819ZM554.798 111.31V96.4686L632.811 96.4686V111.31L602.604 111.31V194.314H585.071V111.31H554.798ZM640.274 194.314V96.4686H658.004V137.905H703.315V96.4686H721.045V194.314H703.315V152.812H658.004V194.314H640.274ZM732.776 96.4686H754.512L783.538 167.324H784.654L813.745 96.4686H835.744V194.314H818.342V127.07H817.554L790.367 193.986H777.628L750.769 126.939H749.85V194.314H732.776V96.4686ZM893.508 163.516V120.897H910.779V194.314H894.033V181.246H893.245C891.582 185.361 888.867 188.732 885.102 191.359C881.337 193.986 876.697 195.277 871.181 195.233C866.365 195.233 862.119 194.183 858.441 192.081C854.808 189.936 851.94 186.806 849.839 182.691C847.781 178.532 846.752 173.519 846.752 167.653V120.897H864.023V165.026C864.023 169.623 865.293 173.3 867.832 176.058C870.415 178.816 873.786 180.173 877.945 180.13C880.484 180.13 882.935 179.517 885.299 178.291C887.707 177.065 889.677 175.226 891.209 172.775C892.742 170.323 893.508 167.237 893.508 163.516ZM921.13 194.314V120.897L937.613 120.897V133.44H938.532C940.065 129.237 942.604 125.954 946.15 123.59C949.696 121.182 953.899 119.978 958.758 119.978C963.749 119.978 967.952 121.182 971.366 123.59C974.781 125.997 977.167 129.281 978.524 133.44H979.312C980.976 129.368 983.734 126.107 987.586 123.655C991.439 121.204 996.036 119.978 1001.38 119.978C1008.12 119.978 1013.61 122.123 1017.86 126.413C1022.15 130.66 1024.29 136.876 1024.29 145.063V194.314H1006.96V147.69C1006.96 143.18 1005.73 139.875 1003.28 137.774C1000.87 135.629 997.918 134.556 994.416 134.556C990.257 134.556 987.017 135.869 984.697 138.496C982.377 141.079 981.217 144.406 981.217 148.478V194.314H964.143V147.033C964.143 143.224 963.027 140.204 960.794 137.971C958.561 135.694 955.606 134.556 951.929 134.556C949.433 134.556 947.157 135.191 945.099 136.46C943.042 137.73 941.4 139.503 940.174 141.78C938.992 144.056 938.401 146.683 938.401 149.66V194.314H921.13ZM1073.59 195.627C1069.43 195.627 1065.95 194.927 1063.15 193.526C1060.39 192.081 1058.16 190.374 1056.45 188.404C1054.78 186.39 1053.52 184.486 1052.64 182.691H1051.59V194.314H1034.65V96.4686H1051.92V133.046H1052.64C1053.52 131.295 1054.76 129.412 1056.38 127.398C1058 125.341 1060.19 123.59 1062.95 122.145C1065.75 120.7 1069.32 119.978 1073.65 119.978C1079.3 119.978 1084.4 121.422 1088.95 124.312C1093.51 127.201 1097.12 131.448 1099.79 137.051C1102.5 142.655 1103.86 149.55 1103.86 157.737C1103.86 165.792 1102.55 172.644 1099.92 178.291C1097.29 183.938 1093.68 188.251 1089.09 191.228C1084.53 194.161 1079.37 195.627 1073.59 195.627ZM1068.86 181.443C1072.67 181.443 1075.84 180.414 1078.38 178.357C1080.96 176.299 1082.91 173.475 1084.23 169.885C1085.54 166.296 1086.2 162.224 1086.2 157.671C1086.2 153.118 1085.54 149.069 1084.23 145.523C1082.91 141.977 1080.99 139.197 1078.45 137.183C1075.91 135.169 1072.71 134.162 1068.86 134.162C1065.14 134.162 1061.99 135.125 1059.4 137.051C1056.86 138.978 1054.92 141.714 1053.56 145.26C1052.25 148.762 1051.59 152.899 1051.59 157.671C1051.59 162.399 1052.25 166.558 1053.56 170.148C1054.92 173.694 1056.89 176.474 1059.47 178.488C1062.05 180.458 1065.18 181.443 1068.86 181.443ZM1132.14 195.824C1127.46 195.824 1123.25 194.993 1119.53 193.329C1115.81 191.622 1112.88 189.126 1110.73 185.843C1108.59 182.559 1107.51 178.51 1107.51 173.694C1107.51 169.579 1108.28 166.164 1109.81 163.45C1111.35 160.736 1113.42 158.569 1116.05 156.949C1118.72 155.329 1121.72 154.103 1125.05 153.271C1128.38 152.396 1131.81 151.783 1135.36 151.433C1139.69 150.951 1143.19 150.535 1145.86 150.185C1148.54 149.835 1150.46 149.266 1151.64 148.478C1152.87 147.69 1153.48 146.464 1153.48 144.8V144.472C1153.48 140.926 1152.43 138.168 1150.33 136.198C1148.23 134.228 1145.16 133.243 1141.14 133.243C1136.89 133.243 1133.52 134.162 1131.02 136.001C1128.57 137.839 1126.91 140.007 1126.03 142.502L1109.94 140.204C1111.21 135.738 1113.32 132.017 1116.25 129.04C1119.18 126.019 1122.75 123.765 1126.95 122.276C1131.2 120.744 1135.88 119.978 1141.01 119.978C1144.51 119.978 1148.01 120.394 1151.51 121.225C1155.01 122.013 1158.23 123.371 1161.17 125.297C1164.1 127.223 1166.44 129.806 1168.19 133.046C1169.94 136.285 1170.82 140.335 1170.82 145.194V194.314H1154.2V184.201H1153.68C1152.63 186.215 1151.14 188.119 1149.21 189.914C1147.33 191.665 1144.97 193.088 1142.12 194.183C1139.32 195.277 1135.99 195.824 1132.14 195.824ZM1136.54 183.085C1140.04 183.085 1143.06 182.406 1145.6 181.049C1148.14 179.648 1150.11 177.809 1151.51 175.533C1152.91 173.213 1153.61 170.695 1153.61 167.981V159.379C1153.04 159.816 1152.13 160.232 1150.86 160.626C1149.59 160.977 1148.14 161.305 1146.52 161.611C1144.9 161.918 1143.3 162.18 1141.73 162.399C1140.2 162.618 1138.86 162.793 1137.72 162.925C1135.14 163.275 1132.82 163.866 1130.76 164.698C1128.75 165.486 1127.15 166.58 1125.97 167.981C1124.79 169.382 1124.19 171.199 1124.19 173.432C1124.19 176.627 1125.35 179.035 1127.67 180.655C1129.99 182.275 1132.95 183.085 1136.54 183.085ZM1181.17 194.314V120.897H1198.44V194.314H1181.17ZM1189.84 110.587C1187.08 110.587 1184.72 109.668 1182.75 107.829C1180.78 105.99 1179.79 103.78 1179.79 101.197C1179.79 98.57 1180.78 96.3373 1182.75 94.4986C1184.72 92.6599 1187.08 91.7405 1189.84 91.7405C1192.55 91.7405 1194.89 92.6599 1196.86 94.4986C1198.83 96.3373 1199.82 98.5481 1199.82 101.131C1199.82 103.758 1198.83 105.99 1196.86 107.829C1194.89 109.668 1192.55 110.587 1189.84 110.587ZM1234.45 194.314V181.574L1268.46 148.215C1271.66 144.932 1274.33 142.02 1276.47 139.481C1278.66 136.942 1280.3 134.49 1281.4 132.126C1282.49 129.719 1283.04 127.157 1283.04 124.443C1283.04 121.379 1282.34 118.73 1280.94 116.497C1279.54 114.265 1277.61 112.557 1275.16 111.375C1272.75 110.193 1269.99 109.602 1266.89 109.602C1263.65 109.602 1260.82 110.259 1258.41 111.572C1256.01 112.886 1254.12 114.746 1252.77 117.154C1251.45 119.562 1250.8 122.429 1250.8 125.757H1233.99C1233.99 119.584 1235.39 114.221 1238.19 109.668C1241.03 105.071 1244.95 101.503 1249.94 98.964C1254.93 96.4249 1260.65 95.1553 1267.08 95.1553C1273.69 95.1553 1279.47 96.3811 1284.42 98.8327C1289.37 101.284 1293.22 104.655 1295.98 108.946C1298.73 113.192 1300.11 118.052 1300.11 123.524C1300.11 127.201 1299.41 130.813 1298.01 134.359C1296.61 137.861 1294.14 141.78 1290.59 146.114C1287.09 150.404 1282.16 155.592 1275.82 161.677L1259.01 178.816V179.539H1301.56V194.314H1234.45ZM1346.91 195.627C1338.99 195.627 1332.2 193.657 1326.55 189.717C1320.95 185.733 1316.66 180.02 1313.68 172.578C1310.71 165.092 1309.22 156.051 1309.22 145.457C1309.22 134.863 1310.71 125.822 1313.68 118.336C1316.66 110.806 1320.95 105.071 1326.55 101.131C1332.2 97.1472 1338.99 95.1553 1346.91 95.1553C1354.79 95.1553 1361.55 97.1472 1367.2 101.131C1372.85 105.115 1377.16 110.85 1380.14 118.336C1383.12 125.822 1384.6 134.863 1384.6 145.457C1384.6 156.051 1383.12 165.092 1380.14 172.578C1377.16 180.02 1372.87 185.733 1367.27 189.717C1361.66 193.657 1354.88 195.627 1346.91 195.627ZM1346.91 180.786C1351.16 180.786 1354.75 179.407 1357.68 176.649C1360.66 173.891 1362.91 169.885 1364.44 164.632C1366.02 159.335 1366.81 152.943 1366.81 145.457C1366.81 137.927 1366.02 131.513 1364.44 126.216C1362.91 120.919 1360.66 116.891 1357.68 114.133C1354.75 111.331 1351.16 109.931 1346.91 109.931C1340.52 109.931 1335.59 113.039 1332.14 119.255C1328.72 125.428 1327.01 134.162 1327.01 145.457C1327.01 152.943 1327.78 159.335 1329.31 164.632C1330.84 169.885 1333.1 173.891 1336.08 176.649C1339.05 179.407 1342.66 180.786 1346.91 180.786ZM1392.92 194.314V181.574L1426.94 148.215C1430.13 144.932 1432.8 142.02 1434.95 139.481C1437.14 136.942 1438.78 134.49 1439.87 132.126C1440.97 129.719 1441.51 127.157 1441.51 124.443C1441.51 121.379 1440.81 118.73 1439.41 116.497C1438.01 114.265 1436.09 112.557 1433.63 111.375C1431.23 110.193 1428.47 109.602 1425.36 109.602C1422.12 109.602 1419.3 110.259 1416.89 111.572C1414.48 112.886 1412.6 114.746 1411.24 117.154C1409.93 119.562 1409.27 122.429 1409.27 125.757H1392.46C1392.46 119.584 1393.86 114.221 1396.66 109.668C1399.51 105.071 1403.43 101.503 1408.42 98.964C1413.41 96.4249 1419.12 95.1553 1425.56 95.1553C1432.17 95.1553 1437.95 96.3811 1442.89 98.8327C1447.84 101.284 1451.69 104.655 1454.45 108.946C1457.21 113.192 1458.59 118.052 1458.59 123.524C1458.59 127.201 1457.89 130.813 1456.49 134.359C1455.09 137.861 1452.61 141.78 1449.07 146.114C1445.56 150.404 1440.64 155.592 1434.29 161.677L1417.48 178.816V179.539H1460.03V194.314H1392.92ZM1465.33 176.19V162.071L1506.9 96.4686H1518.59V116.563H1511.43L1483.45 160.823V161.611H1541.44V176.19H1465.33ZM1511.95 194.314V171.921L1512.22 165.551V96.4686H1528.9V194.314H1511.95ZM1593.79 96.4686V194.314H1576.06V96.4686H1593.79ZM1604.8 194.314V120.897H1621.28V133.44H1622.2C1623.74 129.237 1626.28 125.954 1629.82 123.59C1633.37 121.182 1637.57 119.978 1642.43 119.978C1647.42 119.978 1651.62 121.182 1655.04 123.59C1658.45 125.997 1660.84 129.281 1662.2 133.44H1662.98C1664.65 129.368 1667.41 126.107 1671.26 123.655C1675.11 121.204 1679.71 119.978 1685.05 119.978C1691.79 119.978 1697.28 122.123 1701.53 126.413C1705.82 130.66 1707.97 136.876 1707.97 145.063V194.314H1690.63V147.69C1690.63 143.18 1689.4 139.875 1686.95 137.774C1684.54 135.629 1681.59 134.556 1678.09 134.556C1673.93 134.556 1670.69 135.869 1668.37 138.496C1666.05 141.079 1664.89 144.406 1664.89 148.478V194.314H1647.81V147.033C1647.81 143.224 1646.7 140.204 1644.47 137.971C1642.23 135.694 1639.28 134.556 1635.6 134.556C1633.1 134.556 1630.83 135.191 1628.77 136.46C1626.71 137.73 1625.07 139.503 1623.85 141.78C1622.66 144.056 1622.07 146.683 1622.07 149.66V194.314H1604.8ZM1718.32 221.763V120.897H1735.26V133.046H1736.31C1737.19 131.295 1738.43 129.412 1740.05 127.398C1741.67 125.341 1743.86 123.59 1746.62 122.145C1749.42 120.7 1752.99 119.978 1757.33 119.978C1762.97 119.978 1768.07 121.422 1772.63 124.312C1777.18 127.201 1780.79 131.448 1783.46 137.051C1786.18 142.655 1787.53 149.55 1787.53 157.737C1787.53 165.792 1786.22 172.644 1783.59 178.291C1780.97 183.938 1777.35 188.251 1772.76 191.228C1768.2 194.161 1763.04 195.627 1757.26 195.627C1753.1 195.627 1749.62 194.927 1746.82 193.526C1744.06 192.081 1741.83 190.374 1740.12 188.404C1738.46 186.39 1737.19 184.486 1736.31 182.691H1735.59V221.763H1718.32ZM1752.53 181.443C1756.34 181.443 1759.51 180.414 1762.05 178.357C1764.64 176.299 1766.58 173.475 1767.9 169.885C1769.21 166.296 1769.87 162.224 1769.87 157.671C1769.87 153.118 1769.21 149.069 1767.9 145.523C1766.58 141.977 1764.66 139.197 1762.12 137.183C1759.58 135.169 1756.38 134.162 1752.53 134.162C1748.81 134.162 1745.66 135.125 1743.08 137.051C1740.54 138.978 1738.59 141.714 1737.23 145.26C1735.92 148.762 1735.26 152.899 1735.26 157.671C1735.26 162.399 1735.92 166.558 1737.23 170.148C1738.59 173.694 1740.56 176.474 1743.14 178.488C1745.72 180.458 1748.85 181.443 1752.53 181.443ZM1815.81 195.824C1811.13 195.824 1806.92 194.993 1803.2 193.329C1799.48 191.622 1796.55 189.126 1794.4 185.843C1792.26 182.559 1791.19 178.51 1791.19 173.694C1791.19 169.579 1791.95 166.164 1793.48 163.45C1795.02 160.736 1797.1 158.569 1799.72 156.949C1802.39 155.329 1805.39 154.103 1808.72 153.271C1812.05 152.396 1815.48 151.783 1819.03 151.433C1823.36 150.951 1826.87 150.535 1829.54 150.185C1832.21 149.835 1834.13 149.266 1835.32 148.478C1836.54 147.69 1837.15 146.464 1837.15 144.8V144.472C1837.15 140.926 1836.1 138.168 1834 136.198C1831.9 134.228 1828.84 133.243 1824.81 133.243C1820.56 133.243 1817.19 134.162 1814.7 136.001C1812.24 137.839 1810.58 140.007 1809.7 142.502L1793.62 140.204C1794.89 135.738 1796.99 132.017 1799.92 129.04C1802.85 126.019 1806.42 123.765 1810.62 122.276C1814.87 120.744 1819.55 119.978 1824.68 119.978C1828.18 119.978 1831.68 120.394 1835.18 121.225C1838.69 122.013 1841.9 123.371 1844.84 125.297C1847.77 127.223 1850.11 129.806 1851.86 133.046C1853.61 136.285 1854.49 140.335 1854.49 145.194V194.314H1837.88V184.201H1837.35C1836.3 186.215 1834.81 188.119 1832.89 189.914C1831 191.665 1828.64 193.088 1825.79 194.183C1822.99 195.277 1819.66 195.824 1815.81 195.824ZM1820.21 183.085C1823.71 183.085 1826.73 182.406 1829.27 181.049C1831.81 179.648 1833.78 177.809 1835.18 175.533C1836.58 173.213 1837.29 170.695 1837.29 167.981V159.379C1836.72 159.816 1835.8 160.232 1834.53 160.626C1833.26 160.977 1831.81 161.305 1830.19 161.611C1828.57 161.918 1826.98 162.18 1825.4 162.399C1823.87 162.618 1822.53 162.793 1821.39 162.925C1818.81 163.275 1816.49 163.866 1814.43 164.698C1812.42 165.486 1810.82 166.58 1809.64 167.981C1808.46 169.382 1807.87 171.199 1807.87 173.432C1807.87 176.627 1809.03 179.035 1811.35 180.655C1813.67 182.275 1816.62 183.085 1820.21 183.085ZM1896.82 195.759C1889.51 195.759 1883.23 194.161 1877.98 190.965C1872.72 187.725 1868.69 183.26 1865.89 177.569C1863.09 171.877 1861.69 165.332 1861.69 157.934C1861.69 150.448 1863.11 143.859 1865.96 138.168C1868.8 132.477 1872.85 128.033 1878.11 124.837C1883.36 121.598 1889.56 119.978 1896.69 119.978C1902.69 119.978 1907.99 121.072 1912.58 123.261C1917.18 125.45 1920.83 128.537 1923.55 132.52C1926.31 136.46 1927.88 141.079 1928.28 146.376H1911.73C1911.29 144.012 1910.44 141.889 1909.17 140.007C1907.9 138.124 1906.23 136.636 1904.18 135.541C1902.16 134.447 1899.76 133.899 1896.95 133.899C1893.41 133.899 1890.3 134.863 1887.63 136.789C1885 138.671 1882.94 141.386 1881.46 144.932C1879.97 148.478 1879.22 152.724 1879.22 157.671C1879.22 162.662 1879.95 166.974 1881.39 170.608C1882.83 174.198 1884.89 176.978 1887.56 178.948C1890.23 180.874 1893.36 181.837 1896.95 181.837C1900.76 181.837 1903.98 180.721 1906.61 178.488C1909.28 176.255 1910.98 173.169 1911.73 169.229H1928.28C1927.88 174.438 1926.35 179.035 1923.68 183.019C1921.01 187.003 1917.4 190.133 1912.85 192.41C1908.29 194.642 1902.95 195.759 1896.82 195.759ZM1971.73 120.897V134.293H1929.63V120.897L1971.73 120.897ZM1939.94 103.429H1957.21V172.25C1957.21 175.139 1957.85 177.284 1959.12 178.685C1960.39 180.042 1962.4 180.721 1965.16 180.721C1965.9 180.721 1966.74 180.655 1967.65 180.524C1968.57 180.392 1969.41 180.239 1970.15 180.064L1973.1 193.592C1971.27 194.161 1969.41 194.577 1967.52 194.839C1965.64 195.146 1963.76 195.299 1961.88 195.299C1955.05 195.299 1949.68 193.504 1945.79 189.914C1941.89 186.281 1939.94 181.334 1939.94 175.073V103.429Z" fill="white"/>
<path d="M653.87 314.883V265.961H683.224V271.214H659.78V288.288H680.991V293.541H659.78V314.883H653.87ZM688.36 314.883V278.175H693.942V314.883H688.36ZM691.184 272.068C690.089 272.068 689.148 271.696 688.36 270.951C687.572 270.207 687.178 269.31 687.178 268.259C687.178 267.208 687.572 266.311 688.36 265.567C689.148 264.822 690.089 264.45 691.184 264.45C692.278 264.45 693.219 264.822 694.007 265.567C694.795 266.311 695.189 267.208 695.189 268.259C695.189 269.31 694.795 270.207 694.007 270.951C693.219 271.696 692.278 272.068 691.184 272.068ZM700.063 314.883V278.175H705.448V283.757H705.842C706.52 281.94 707.735 280.473 709.486 279.357C711.259 278.219 713.24 277.65 715.429 277.65C715.845 277.65 716.36 277.66 716.972 277.682C717.585 277.682 718.056 277.693 718.384 277.715V283.428C718.187 283.385 717.75 283.319 717.071 283.231C716.392 283.144 715.67 283.1 714.904 283.1C713.131 283.1 711.544 283.472 710.143 284.216C708.742 284.961 707.637 285.978 706.827 287.27C706.039 288.561 705.645 290.039 705.645 291.702V314.883H700.063ZM746.767 286.449L741.711 287.828C741.229 286.58 740.397 285.398 739.215 284.282C738.055 283.144 736.238 282.575 733.765 282.575C731.532 282.575 729.672 283.1 728.183 284.151C726.695 285.179 725.95 286.471 725.95 288.025C725.95 289.426 726.454 290.542 727.461 291.374C728.49 292.206 730.087 292.885 732.255 293.41L737.705 294.723C740.966 295.511 743.396 296.726 744.994 298.368C746.614 300.009 747.424 302.1 747.424 304.639C747.424 306.74 746.822 308.623 745.618 310.287C744.414 311.95 742.74 313.263 740.594 314.227C738.449 315.19 735.954 315.671 733.108 315.671C729.365 315.671 726.268 314.85 723.816 313.209C721.386 311.567 719.843 309.192 719.187 306.084L724.506 304.77C725.009 306.74 725.972 308.218 727.395 309.203C728.84 310.188 730.722 310.681 733.043 310.681C735.647 310.681 737.727 310.122 739.281 309.006C740.857 307.868 741.645 306.522 741.645 304.967C741.645 302.384 739.828 300.655 736.195 299.78L730.087 298.335C726.717 297.525 724.243 296.288 722.667 294.625C721.091 292.961 720.303 290.871 720.303 288.353C720.303 286.274 720.883 284.435 722.043 282.837C723.225 281.239 724.834 279.992 726.87 279.094C728.905 278.175 731.204 277.715 733.765 277.715C737.42 277.715 740.277 278.525 742.335 280.145C744.414 281.743 745.892 283.844 746.767 286.449ZM767.598 278.175V282.969H748.62V278.175H767.598ZM754.136 269.441H759.718V304.376C759.718 306.281 760.112 307.682 760.9 308.579C761.688 309.455 762.936 309.893 764.643 309.893C765.015 309.893 765.398 309.871 765.792 309.827C766.208 309.783 766.657 309.717 767.138 309.63L768.321 314.686C767.795 314.883 767.149 315.037 766.383 315.146C765.639 315.277 764.884 315.343 764.118 315.343C761.163 315.343 758.755 314.467 756.894 312.716C755.056 310.965 754.136 308.689 754.136 305.887V269.441ZM801.905 315.671C798.381 315.671 795.328 314.883 792.745 313.307C790.184 311.731 788.214 309.531 786.835 306.708C785.455 303.862 784.766 300.568 784.766 296.825C784.766 293.06 785.445 289.743 786.802 286.876C788.159 284.008 790.063 281.765 792.515 280.145C794.988 278.525 797.878 277.715 801.183 277.715C803.087 277.715 804.981 278.033 806.863 278.667C808.746 279.302 810.453 280.331 811.985 281.754C813.54 283.177 814.776 285.059 815.696 287.401C816.615 289.743 817.075 292.622 817.075 296.037V298.466H788.772V293.607H814.021L811.427 295.446C811.427 292.994 811.044 290.816 810.278 288.912C809.512 287.007 808.363 285.508 806.83 284.413C805.32 283.319 803.438 282.772 801.183 282.772C798.928 282.772 796.991 283.33 795.371 284.446C793.773 285.541 792.548 286.974 791.694 288.747C790.84 290.52 790.413 292.425 790.413 294.461V297.678C790.413 300.458 790.895 302.811 791.858 304.738C792.821 306.664 794.167 308.13 795.897 309.137C797.626 310.122 799.629 310.615 801.905 310.615C803.372 310.615 804.707 310.407 805.911 309.991C807.115 309.553 808.155 308.908 809.03 308.054C809.906 307.178 810.574 306.106 811.033 304.836L816.484 306.412C815.915 308.251 814.951 309.871 813.594 311.272C812.259 312.651 810.595 313.734 808.603 314.522C806.612 315.288 804.379 315.671 801.905 315.671ZM849.923 278.175L836.395 314.883H830.616L817.089 278.175H823.196L833.309 307.463H833.703L843.816 278.175H849.923ZM867.208 315.671C863.684 315.671 860.63 314.883 858.047 313.307C855.486 311.731 853.516 309.531 852.137 306.708C850.758 303.862 850.068 300.568 850.068 296.825C850.068 293.06 850.747 289.743 852.104 286.876C853.461 284.008 855.366 281.765 857.817 280.145C860.291 278.525 863.18 277.715 866.485 277.715C868.39 277.715 870.283 278.033 872.166 278.667C874.048 279.302 875.756 280.331 877.288 281.754C878.842 283.177 880.079 285.059 880.998 287.401C881.917 289.743 882.377 292.622 882.377 296.037V298.466H854.074V293.607H879.324L876.73 295.446C876.73 292.994 876.347 290.816 875.58 288.912C874.814 287.007 873.665 285.508 872.133 284.413C870.623 283.319 868.74 282.772 866.485 282.772C864.231 282.772 862.294 283.33 860.674 284.446C859.076 285.541 857.85 286.974 856.996 288.747C856.143 290.52 855.716 292.425 855.716 294.461V297.678C855.716 300.458 856.197 302.811 857.161 304.738C858.124 306.664 859.47 308.13 861.199 309.137C862.928 310.122 864.931 310.615 867.208 310.615C868.674 310.615 870.01 310.407 871.214 309.991C872.417 309.553 873.457 308.908 874.333 308.054C875.208 307.178 875.876 306.106 876.336 304.836L881.786 306.412C881.217 308.251 880.254 309.871 878.897 311.272C877.561 312.651 875.898 313.734 873.906 314.522C871.914 315.288 869.681 315.671 867.208 315.671ZM886.594 314.883V278.175H891.979V283.757H892.373C893.051 281.94 894.266 280.473 896.017 279.357C897.79 278.219 899.771 277.65 901.96 277.65C902.376 277.65 902.891 277.66 903.504 277.682C904.117 277.682 904.587 277.693 904.915 277.715V283.428C904.718 283.385 904.281 283.319 903.602 283.231C902.924 283.144 902.201 283.1 901.435 283.1C899.662 283.1 898.075 283.472 896.674 284.216C895.273 284.961 894.168 285.978 893.358 287.27C892.57 288.561 892.176 290.039 892.176 291.702V314.883H886.594ZM922.74 314.883V265.961H952.291V271.214H928.65V287.565H950.715V292.819H928.65V309.63H952.619V314.883H922.74ZM973.844 278.175V282.969H954.866V278.175H973.844ZM960.382 269.441H965.964V304.376C965.964 306.281 966.358 307.682 967.146 308.579C967.934 309.455 969.181 309.893 970.889 309.893C971.261 309.893 971.644 309.871 972.038 309.827C972.454 309.783 972.903 309.717 973.384 309.63L974.566 314.686C974.041 314.883 973.395 315.037 972.629 315.146C971.885 315.277 971.13 315.343 970.364 315.343C967.408 315.343 965.001 314.467 963.14 312.716C961.301 310.965 960.382 308.689 960.382 305.887V269.441ZM984.496 292.819V314.883H978.915V265.961H984.496V283.954H985.022C985.875 282.049 987.156 280.539 988.863 279.423C990.593 278.284 992.902 277.715 995.791 277.715C998.287 277.715 1000.48 278.219 1002.36 279.226C1004.24 280.211 1005.71 281.732 1006.76 283.789C1007.81 285.825 1008.33 288.419 1008.33 291.571V314.883H1002.69V291.965C1002.69 289.032 1001.93 286.766 1000.42 285.169C998.911 283.571 996.82 282.772 994.15 282.772C992.289 282.772 990.636 283.166 989.192 283.954C987.747 284.742 986.598 285.88 985.744 287.368C984.912 288.857 984.496 290.674 984.496 292.819ZM1029.82 315.671C1026.3 315.671 1023.24 314.883 1020.66 313.307C1018.1 311.731 1016.13 309.531 1014.75 306.708C1013.37 303.862 1012.68 300.568 1012.68 296.825C1012.68 293.06 1013.36 289.743 1014.72 286.876C1016.08 284.008 1017.98 281.765 1020.43 280.145C1022.9 278.525 1025.79 277.715 1029.1 277.715C1031 277.715 1032.9 278.033 1034.78 278.667C1036.66 279.302 1038.37 280.331 1039.9 281.754C1041.46 283.177 1042.69 285.059 1043.61 287.401C1044.53 289.743 1044.99 292.622 1044.99 296.037V298.466H1016.69V293.607H1041.94L1039.34 295.446C1039.34 292.994 1038.96 290.816 1038.19 288.912C1037.43 287.007 1036.28 285.508 1034.75 284.413C1033.24 283.319 1031.35 282.772 1029.1 282.772C1026.84 282.772 1024.91 283.33 1023.29 284.446C1021.69 285.541 1020.46 286.974 1019.61 288.747C1018.76 290.52 1018.33 292.425 1018.33 294.461V297.678C1018.33 300.458 1018.81 302.811 1019.77 304.738C1020.74 306.664 1022.08 308.13 1023.81 309.137C1025.54 310.122 1027.55 310.615 1029.82 310.615C1031.29 310.615 1032.62 310.407 1033.83 309.991C1035.03 309.553 1036.07 308.908 1036.95 308.054C1037.82 307.178 1038.49 306.106 1038.95 304.836L1044.4 306.412C1043.83 308.251 1042.87 309.871 1041.51 311.272C1040.18 312.651 1038.51 313.734 1036.52 314.522C1034.53 315.288 1032.3 315.671 1029.82 315.671ZM1049.21 314.883V278.175H1054.59V283.757H1054.99C1055.67 281.94 1056.88 280.473 1058.63 279.357C1060.4 278.219 1062.39 277.65 1064.57 277.65C1064.99 277.65 1065.5 277.66 1066.12 277.682C1066.73 277.682 1067.2 277.693 1067.53 277.715V283.428C1067.33 283.385 1066.89 283.319 1066.22 283.231C1065.54 283.144 1064.81 283.1 1064.05 283.1C1062.28 283.1 1060.69 283.472 1059.29 284.216C1057.89 284.961 1056.78 285.978 1055.97 287.27C1055.18 288.561 1054.79 290.039 1054.79 291.702V314.883H1049.21ZM1084.22 315.671C1080.7 315.671 1077.65 314.883 1075.06 313.307C1072.5 311.731 1070.53 309.531 1069.15 306.708C1067.77 303.862 1067.08 300.568 1067.08 296.825C1067.08 293.06 1067.76 289.743 1069.12 286.876C1070.48 284.008 1072.38 281.765 1074.83 280.145C1077.31 278.525 1080.2 277.715 1083.5 277.715C1085.41 277.715 1087.3 278.033 1089.18 278.667C1091.06 279.302 1092.77 280.331 1094.3 281.754C1095.86 283.177 1097.09 285.059 1098.01 287.401C1098.93 289.743 1099.39 292.622 1099.39 296.037V298.466H1071.09V293.607H1096.34L1093.74 295.446C1093.74 292.994 1093.36 290.816 1092.6 288.912C1091.83 287.007 1090.68 285.508 1089.15 284.413C1087.64 283.319 1085.76 282.772 1083.5 282.772C1081.25 282.772 1079.31 283.33 1077.69 284.446C1076.09 285.541 1074.87 286.974 1074.01 288.747C1073.16 290.52 1072.73 292.425 1072.73 294.461V297.678C1072.73 300.458 1073.21 302.811 1074.18 304.738C1075.14 306.664 1076.49 308.13 1078.21 309.137C1079.94 310.122 1081.95 310.615 1084.22 310.615C1085.69 310.615 1087.02 310.407 1088.23 309.991C1089.43 309.553 1090.47 308.908 1091.35 308.054C1092.22 307.178 1092.89 306.106 1093.35 304.836L1098.8 306.412C1098.23 308.251 1097.27 309.871 1095.91 311.272C1094.58 312.651 1092.91 313.734 1090.92 314.522C1088.93 315.288 1086.7 315.671 1084.22 315.671ZM1126.72 299.911V278.175H1132.31V314.883H1126.72V308.645H1126.33C1125.45 310.505 1124.11 312.092 1122.29 313.406C1120.5 314.719 1118.21 315.365 1115.43 315.343C1113.13 315.343 1111.1 314.85 1109.32 313.865C1107.55 312.859 1106.15 311.326 1105.12 309.269C1104.11 307.211 1103.61 304.617 1103.61 301.487V278.175H1109.19V301.159C1109.19 303.807 1109.95 305.931 1111.46 307.528C1112.99 309.126 1114.93 309.914 1117.27 309.893C1118.67 309.893 1120.09 309.542 1121.54 308.842C1123 308.119 1124.23 307.025 1125.21 305.558C1126.22 304.07 1126.72 302.187 1126.72 299.911ZM1138.43 314.883V278.175H1143.81V283.954H1144.34C1145.1 281.984 1146.34 280.451 1148.05 279.357C1149.76 278.262 1151.8 277.715 1154.19 277.715C1156.6 277.715 1158.6 278.262 1160.2 279.357C1161.82 280.451 1163.08 281.984 1163.97 283.954H1164.37C1165.33 282.049 1166.74 280.539 1168.6 279.423C1170.48 278.284 1172.73 277.715 1175.33 277.715C1178.62 277.715 1181.31 278.744 1183.41 280.802C1185.51 282.837 1186.56 286.011 1186.56 290.323V314.883H1180.91V290.323C1180.91 287.609 1180.17 285.672 1178.68 284.512C1177.19 283.352 1175.44 282.772 1173.43 282.772C1170.87 282.772 1168.88 283.56 1167.45 285.136C1166.05 286.69 1165.35 288.638 1165.35 290.98V314.883H1159.57V289.732C1159.57 287.653 1158.91 285.978 1157.57 284.709C1156.23 283.417 1154.49 282.772 1152.35 282.772C1150.88 282.772 1149.51 283.166 1148.25 283.954C1146.98 284.742 1145.95 285.825 1145.16 287.204C1144.39 288.583 1144.01 290.17 1144.01 291.965V314.883H1138.43ZM1212.92 292.819V314.883H1207.34V265.961H1212.92V283.954H1213.45C1214.3 282.049 1215.58 280.539 1217.29 279.423C1219.02 278.284 1221.33 277.715 1224.22 277.715C1226.71 277.715 1228.9 278.219 1230.79 279.226C1232.67 280.211 1234.13 281.732 1235.19 283.789C1236.24 285.825 1236.76 288.419 1236.76 291.571V314.883H1231.11V291.965C1231.11 289.032 1230.36 286.766 1228.85 285.169C1227.34 283.571 1225.25 282.772 1222.58 282.772C1220.72 282.772 1219.06 283.166 1217.62 283.954C1216.17 284.742 1215.03 285.88 1214.17 287.368C1213.34 288.857 1212.92 290.674 1212.92 292.819ZM1253.65 315.737C1251.33 315.737 1249.22 315.299 1247.32 314.424C1245.41 313.526 1243.9 312.235 1242.78 310.549C1241.67 308.864 1241.11 306.828 1241.11 304.442C1241.11 302.341 1241.53 300.644 1242.36 299.353C1243.19 298.039 1244.29 297.011 1245.67 296.266C1247.07 295.5 1248.61 294.931 1250.27 294.559C1251.96 294.187 1253.65 293.891 1255.36 293.673C1257.59 293.388 1259.4 293.169 1260.78 293.016C1262.18 292.863 1263.2 292.6 1263.83 292.228C1264.49 291.856 1264.82 291.221 1264.82 290.323V290.126C1264.82 287.784 1264.17 285.967 1262.88 284.676C1261.61 283.363 1259.67 282.706 1257.07 282.706C1254.4 282.706 1252.29 283.297 1250.76 284.479C1249.23 285.639 1248.16 286.887 1247.54 288.222L1242.16 286.318C1243.12 284.085 1244.4 282.345 1246 281.097C1247.62 279.849 1249.37 278.974 1251.26 278.47C1253.16 277.967 1255.03 277.715 1256.87 277.715C1258.05 277.715 1259.41 277.857 1260.94 278.142C1262.47 278.405 1263.96 278.974 1265.41 279.849C1266.87 280.703 1268.08 282.006 1269.02 283.757C1269.98 285.486 1270.46 287.806 1270.46 290.717V314.883H1264.82V309.893H1264.55C1264.18 310.681 1263.55 311.534 1262.65 312.454C1261.75 313.351 1260.56 314.128 1259.07 314.785C1257.6 315.42 1255.8 315.737 1253.65 315.737ZM1254.51 310.681C1256.74 310.681 1258.62 310.243 1260.15 309.367C1261.69 308.492 1262.85 307.364 1263.63 305.985C1264.42 304.584 1264.82 303.129 1264.82 301.618V296.431C1264.57 296.715 1264.05 296.978 1263.24 297.219C1262.45 297.437 1261.53 297.635 1260.48 297.81C1259.45 297.985 1258.45 298.138 1257.46 298.269C1256.48 298.379 1255.69 298.466 1255.1 298.532C1253.63 298.729 1252.26 299.046 1250.99 299.484C1249.72 299.9 1248.69 300.524 1247.91 301.356C1247.14 302.187 1246.76 303.326 1246.76 304.77C1246.76 306.719 1247.48 308.196 1248.92 309.203C1250.39 310.188 1252.25 310.681 1254.51 310.681ZM1291.43 315.671C1288.01 315.671 1285.06 314.861 1282.56 313.242C1280.09 311.6 1278.17 309.356 1276.81 306.511C1275.48 303.665 1274.81 300.414 1274.81 296.759C1274.81 293.016 1275.5 289.722 1276.88 286.876C1278.26 284.008 1280.19 281.765 1282.66 280.145C1285.15 278.525 1288.05 277.715 1291.36 277.715C1293.94 277.715 1296.26 278.197 1298.32 279.16C1300.4 280.101 1302.1 281.436 1303.41 283.166C1304.75 284.895 1305.57 286.909 1305.87 289.207H1300.23C1299.94 288.091 1299.43 287.04 1298.68 286.055C1297.94 285.07 1296.95 284.282 1295.73 283.691C1294.52 283.078 1293.09 282.772 1291.43 282.772C1289.24 282.772 1287.32 283.341 1285.68 284.479C1284.04 285.617 1282.76 287.226 1281.84 289.306C1280.92 291.363 1280.46 293.782 1280.46 296.562C1280.46 299.386 1280.91 301.859 1281.81 303.982C1282.7 306.084 1283.97 307.715 1285.61 308.875C1287.28 310.035 1289.21 310.615 1291.43 310.615C1293.64 310.615 1295.53 310.046 1297.11 308.908C1298.68 307.747 1299.72 306.171 1300.23 304.179H1305.87C1305.57 306.346 1304.78 308.295 1303.51 310.024C1302.26 311.753 1300.61 313.132 1298.55 314.161C1296.51 315.168 1294.14 315.671 1291.43 315.671ZM1315.34 301.487L1315.21 294.526H1316.39L1332.42 278.175H1339.38L1322.3 295.511H1321.78L1315.34 301.487ZM1310.09 314.883V265.961H1315.67V314.883H1310.09ZM1333.34 314.883L1319.02 296.759L1323.03 292.819L1340.56 314.883H1333.34ZM1353.18 315.737C1350.86 315.737 1348.75 315.299 1346.84 314.424C1344.94 313.526 1343.43 312.235 1342.31 310.549C1341.2 308.864 1340.64 306.828 1340.64 304.442C1340.64 302.341 1341.06 300.644 1341.89 299.353C1342.72 298.039 1343.82 297.011 1345.2 296.266C1346.6 295.5 1348.14 294.931 1349.8 294.559C1351.49 294.187 1353.18 293.891 1354.89 293.673C1357.12 293.388 1358.93 293.169 1360.31 293.016C1361.71 292.863 1362.73 292.6 1363.36 292.228C1364.02 291.856 1364.35 291.221 1364.35 290.323V290.126C1364.35 287.784 1363.7 285.967 1362.41 284.676C1361.14 283.363 1359.2 282.706 1356.6 282.706C1353.93 282.706 1351.82 283.297 1350.29 284.479C1348.76 285.639 1347.69 286.887 1347.07 288.222L1341.69 286.318C1342.65 284.085 1343.93 282.345 1345.53 281.097C1347.15 279.849 1348.9 278.974 1350.78 278.47C1352.69 277.967 1354.56 277.715 1356.4 277.715C1357.58 277.715 1358.94 277.857 1360.47 278.142C1362 278.405 1363.49 278.974 1364.94 279.849C1366.4 280.703 1367.61 282.006 1368.55 283.757C1369.51 285.486 1369.99 287.806 1369.99 290.717V314.883H1364.35V309.893H1364.08C1363.71 310.681 1363.08 311.534 1362.18 312.454C1361.28 313.351 1360.09 314.128 1358.6 314.785C1357.13 315.42 1355.33 315.737 1353.18 315.737ZM1354.04 310.681C1356.27 310.681 1358.15 310.243 1359.68 309.367C1361.22 308.492 1362.38 307.364 1363.16 305.985C1363.95 304.584 1364.35 303.129 1364.35 301.618V296.431C1364.1 296.715 1363.58 296.978 1362.77 297.219C1361.98 297.437 1361.06 297.635 1360.01 297.81C1358.98 297.985 1357.98 298.138 1356.99 298.269C1356.01 298.379 1355.22 298.466 1354.63 298.532C1353.16 298.729 1351.79 299.046 1350.52 299.484C1349.25 299.9 1348.22 300.524 1347.44 301.356C1346.67 302.187 1346.29 303.326 1346.29 304.77C1346.29 306.719 1347.01 308.196 1348.45 309.203C1349.92 310.188 1351.78 310.681 1354.04 310.681ZM1392.01 278.175V282.969H1373.03V278.175H1392.01ZM1378.54 269.441H1384.13V304.376C1384.13 306.281 1384.52 307.682 1385.31 308.579C1386.1 309.455 1387.34 309.893 1389.05 309.893C1389.42 309.893 1389.81 309.871 1390.2 309.827C1390.62 309.783 1391.06 309.717 1391.55 309.63L1392.73 314.686C1392.2 314.883 1391.56 315.037 1390.79 315.146C1390.05 315.277 1389.29 315.343 1388.53 315.343C1385.57 315.343 1383.16 314.467 1381.3 312.716C1379.46 310.965 1378.54 308.689 1378.54 305.887V269.441ZM1402.66 292.819V314.883H1397.08V265.961H1402.66V283.954H1403.18C1404.04 282.049 1405.32 280.539 1407.03 279.423C1408.75 278.284 1411.06 277.715 1413.95 277.715C1416.45 277.715 1418.64 278.219 1420.52 279.226C1422.4 280.211 1423.87 281.732 1424.92 283.789C1425.97 285.825 1426.5 288.419 1426.5 291.571V314.883H1420.85V291.965C1420.85 289.032 1420.09 286.766 1418.58 285.169C1417.07 283.571 1414.98 282.772 1412.31 282.772C1410.45 282.772 1408.8 283.166 1407.35 283.954C1405.91 284.742 1404.76 285.88 1403.91 287.368C1403.07 288.857 1402.66 290.674 1402.66 292.819ZM1447.46 315.671C1444.15 315.671 1441.25 314.883 1438.76 313.307C1436.26 311.731 1434.31 309.52 1432.91 306.675C1431.53 303.829 1430.84 300.524 1430.84 296.759C1430.84 292.928 1431.53 289.59 1432.91 286.745C1434.31 283.877 1436.26 281.655 1438.76 280.079C1441.25 278.503 1444.15 277.715 1447.46 277.715C1450.79 277.715 1453.7 278.503 1456.19 280.079C1458.69 281.655 1460.64 283.877 1462.04 286.745C1463.44 289.59 1464.14 292.928 1464.14 296.759C1464.14 300.524 1463.44 303.829 1462.04 306.675C1460.64 309.52 1458.69 311.731 1456.19 313.307C1453.7 314.883 1450.79 315.671 1447.46 315.671ZM1447.46 310.615C1450 310.615 1452.08 309.969 1453.7 308.678C1455.32 307.386 1456.52 305.69 1457.31 303.588C1458.1 301.465 1458.49 299.189 1458.49 296.759C1458.49 294.285 1458.1 291.987 1457.31 289.864C1456.52 287.741 1455.32 286.033 1453.7 284.742C1452.08 283.428 1450 282.772 1447.46 282.772C1444.96 282.772 1442.91 283.428 1441.29 284.742C1439.67 286.033 1438.46 287.741 1437.67 289.864C1436.89 291.987 1436.49 294.285 1436.49 296.759C1436.49 299.189 1436.89 301.465 1437.67 303.588C1438.46 305.69 1439.67 307.386 1441.29 308.678C1442.91 309.969 1444.96 310.615 1447.46 310.615ZM1474.07 292.819V314.883H1468.49V278.175H1473.87V283.954H1474.4C1475.25 282.071 1476.55 280.561 1478.3 279.423C1480.05 278.284 1482.32 277.715 1485.1 277.715C1487.57 277.715 1489.74 278.219 1491.6 279.226C1493.46 280.232 1494.91 281.765 1495.94 283.822C1496.99 285.858 1497.51 288.441 1497.51 291.571V314.883H1491.93V291.965C1491.93 289.098 1491.17 286.854 1489.66 285.234C1488.15 283.592 1486.1 282.772 1483.49 282.772C1481.7 282.772 1480.09 283.166 1478.66 283.954C1477.24 284.742 1476.11 285.88 1475.28 287.368C1474.47 288.857 1474.07 290.674 1474.07 292.819ZM1518.29 314.883V278.175H1523.87V314.883H1518.29ZM1521.11 272.068C1520.02 272.068 1519.08 271.696 1518.29 270.951C1517.5 270.207 1517.11 269.31 1517.11 268.259C1517.11 267.208 1517.5 266.311 1518.29 265.567C1519.08 264.822 1520.02 264.45 1521.11 264.45C1522.21 264.45 1523.15 264.822 1523.94 265.567C1524.73 266.311 1525.12 267.208 1525.12 268.259C1525.12 269.31 1524.73 270.207 1523.94 270.951C1523.15 271.696 1522.21 272.068 1521.11 272.068ZM1535.58 292.819V314.883H1529.99V278.175H1535.38V283.954H1535.9C1536.76 282.071 1538.06 280.561 1539.81 279.423C1541.56 278.284 1543.83 277.715 1546.61 277.715C1549.08 277.715 1551.25 278.219 1553.11 279.226C1554.97 280.232 1556.41 281.765 1557.44 283.822C1558.49 285.858 1559.02 288.441 1559.02 291.571V314.883H1553.44V291.965C1553.44 289.098 1552.68 286.854 1551.17 285.234C1549.66 283.592 1547.6 282.772 1545 282.772C1543.2 282.772 1541.6 283.166 1540.17 283.954C1538.75 284.742 1537.62 285.88 1536.79 287.368C1535.98 288.857 1535.58 290.674 1535.58 292.819ZM1580.52 265.961H1587.61L1604.23 306.543H1604.82L1621.43 265.961H1628.75V314.883H1622.94V277.715H1622.48L1607.08 314.883H1601.76L1586.56 277.715H1586.1V314.883H1580.52V265.961ZM1658.75 299.911V278.175H1664.33V314.883H1658.75V308.645H1658.35C1657.48 310.505 1656.13 312.092 1654.31 313.406C1652.52 314.719 1650.23 315.365 1647.45 315.343C1645.15 315.343 1643.12 314.85 1641.34 313.865C1639.57 312.859 1638.17 311.326 1637.14 309.269C1636.13 307.211 1635.63 304.617 1635.63 301.487V278.175H1641.21V301.159C1641.21 303.807 1641.97 305.931 1643.48 307.528C1645.01 309.126 1646.95 309.914 1649.29 309.893C1650.69 309.893 1652.11 309.542 1653.56 308.842C1655.02 308.119 1656.25 307.025 1657.24 305.558C1658.24 304.07 1658.75 302.187 1658.75 299.911ZM1670.45 314.883V278.175H1675.83V283.954H1676.36C1677.13 281.984 1678.36 280.451 1680.07 279.357C1681.78 278.262 1683.82 277.715 1686.21 277.715C1688.62 277.715 1690.62 278.262 1692.22 279.357C1693.84 280.451 1695.1 281.984 1695.99 283.954H1696.39C1697.35 282.049 1698.76 280.539 1700.62 279.423C1702.51 278.284 1704.75 277.715 1707.35 277.715C1710.64 277.715 1713.33 278.744 1715.43 280.802C1717.53 282.837 1718.58 286.011 1718.58 290.323V314.883H1712.94V290.323C1712.94 287.609 1712.19 285.672 1710.7 284.512C1709.22 283.352 1707.46 282.772 1705.45 282.772C1702.89 282.772 1700.9 283.56 1699.47 285.136C1698.07 286.69 1697.37 288.638 1697.37 290.98V314.883H1691.59V289.732C1691.59 287.653 1690.93 285.978 1689.59 284.709C1688.26 283.417 1686.52 282.772 1684.37 282.772C1682.9 282.772 1681.54 283.166 1680.27 283.954C1679 284.742 1677.97 285.825 1677.18 287.204C1676.41 288.583 1676.03 290.17 1676.03 291.965V314.883H1670.45ZM1741.45 315.671C1739.11 315.671 1737.23 315.277 1735.8 314.489C1734.38 313.679 1733.29 312.771 1732.52 311.764C1731.75 310.735 1731.16 309.893 1730.75 309.236H1730.09V314.883H1724.71V265.961H1730.29V284.019H1730.75C1731.16 283.385 1731.74 282.575 1732.49 281.59C1733.23 280.583 1734.3 279.685 1735.7 278.897C1737.11 278.109 1739 277.715 1741.38 277.715C1744.47 277.715 1747.19 278.492 1749.53 280.046C1751.87 281.579 1753.7 283.768 1755.01 286.613C1756.35 289.437 1757.01 292.775 1757.01 296.628C1757.01 300.502 1756.36 303.873 1755.04 306.74C1753.73 309.586 1751.9 311.786 1749.56 313.34C1747.22 314.894 1744.52 315.671 1741.45 315.671ZM1740.73 310.615C1743.07 310.615 1745.03 309.991 1746.61 308.743C1748.18 307.474 1749.36 305.777 1750.15 303.654C1750.96 301.531 1751.37 299.167 1751.37 296.562C1751.37 293.979 1750.97 291.648 1750.18 289.568C1749.4 287.489 1748.21 285.836 1746.64 284.61C1745.08 283.385 1743.11 282.772 1740.73 282.772C1738.43 282.772 1736.5 283.352 1734.95 284.512C1733.4 285.65 1732.21 287.259 1731.4 289.338C1730.62 291.396 1730.22 293.804 1730.22 296.562C1730.22 299.32 1730.63 301.761 1731.44 303.884C1732.25 305.985 1733.43 307.638 1734.98 308.842C1736.56 310.024 1738.47 310.615 1740.73 310.615ZM1772.13 315.737C1769.81 315.737 1767.7 315.299 1765.79 314.424C1763.89 313.526 1762.38 312.235 1761.26 310.549C1760.15 308.864 1759.59 306.828 1759.59 304.442C1759.59 302.341 1760.01 300.644 1760.84 299.353C1761.67 298.039 1762.77 297.011 1764.15 296.266C1765.55 295.5 1767.09 294.931 1768.75 294.559C1770.44 294.187 1772.13 293.891 1773.84 293.673C1776.07 293.388 1777.88 293.169 1779.26 293.016C1780.66 292.863 1781.68 292.6 1782.31 292.228C1782.97 291.856 1783.3 291.221 1783.3 290.323V290.126C1783.3 287.784 1782.65 285.967 1781.36 284.676C1780.09 283.363 1778.15 282.706 1775.55 282.706C1772.88 282.706 1770.77 283.297 1769.24 284.479C1767.71 285.639 1766.64 286.887 1766.02 288.222L1760.64 286.318C1761.6 284.085 1762.88 282.345 1764.48 281.097C1766.1 279.849 1767.85 278.974 1769.73 278.47C1771.64 277.967 1773.51 277.715 1775.35 277.715C1776.53 277.715 1777.89 277.857 1779.42 278.142C1780.95 278.405 1782.44 278.974 1783.89 279.849C1785.35 280.703 1786.56 282.006 1787.5 283.757C1788.46 285.486 1788.94 287.806 1788.94 290.717V314.883H1783.3V309.893H1783.03C1782.66 310.681 1782.03 311.534 1781.13 312.454C1780.23 313.351 1779.04 314.128 1777.55 314.785C1776.08 315.42 1774.28 315.737 1772.13 315.737ZM1772.99 310.681C1775.22 310.681 1777.1 310.243 1778.63 309.367C1780.17 308.492 1781.33 307.364 1782.11 305.985C1782.9 304.584 1783.3 303.129 1783.3 301.618V296.431C1783.05 296.715 1782.53 296.978 1781.72 297.219C1780.93 297.437 1780.01 297.635 1778.96 297.81C1777.93 297.985 1776.93 298.138 1775.94 298.269C1774.96 298.379 1774.17 298.466 1773.58 298.532C1772.11 298.729 1770.74 299.046 1769.47 299.484C1768.2 299.9 1767.17 300.524 1766.39 301.356C1765.62 302.187 1765.24 303.326 1765.24 304.77C1765.24 306.719 1765.96 308.196 1767.4 309.203C1768.87 310.188 1770.73 310.681 1772.99 310.681ZM1795.06 314.883V278.175H1800.65V314.883H1795.06ZM1797.89 272.068C1796.79 272.068 1795.85 271.696 1795.06 270.951C1794.28 270.207 1793.88 269.31 1793.88 268.259C1793.88 267.208 1794.28 266.311 1795.06 265.567C1795.85 264.822 1796.79 264.45 1797.89 264.45C1798.98 264.45 1799.92 264.822 1800.71 265.567C1801.5 266.311 1801.89 267.208 1801.89 268.259C1801.89 269.31 1801.5 270.207 1800.71 270.951C1799.92 271.696 1798.98 272.068 1797.89 272.068Z" fill="#F3F3F3"/>
<path d="M149.066 31V137.713L60 178.006L149.066 31Z" fill="#62D0FC"/>
<path d="M238.097 178.006L149.066 137.713V31L238.097 178.006Z" fill="#1EABE4"/>
<path d="M149.066 230.352V137.713L60 178.006L149.066 230.352Z" fill="#1EABE4"/>
<path d="M238.097 178.006L149.066 137.713V230.352L238.097 178.006Z" fill="#0075A5"/>
<path d="M204.051 212.603H94.0645L149.083 245.149L204.051 212.603Z" fill="#E91F25"/>
<path d="M238.168 194.795L149.066 247.141V319.616L238.168 194.795Z" fill="#1EABE4"/>
<path d="M60 194.795L149.066 247.141V319.616L60 194.795Z" fill="#62D0FC"/>
<path d="M204.02 129.182H94.1406V189.826H204.02V129.182Z" fill="#E91F25"/>
<path d="M204.014 129.182H149.092V189.826H204.014V129.182Z" fill="#BF0613"/>
<path d="M100.897 135.702H144.639C145.37 135.702 145.96 136.291 145.96 137.016V163.7H100.897C100.166 163.7 99.5762 163.11 99.5762 162.386V137.018C99.5762 136.291 100.169 135.705 100.897 135.705V135.702Z" fill="black"/>
<path d="M153.661 135.702H197.403C198.134 135.702 198.724 136.292 198.724 137.016V162.383C198.724 163.11 198.131 163.697 197.403 163.697H152.34V137.013C152.34 136.286 152.933 135.699 153.661 135.699V135.702Z" fill="black"/>
<path d="M100.938 166.772H145.957V177.937C145.957 178.688 145.343 179.298 144.589 179.298H100.938C100.184 179.298 99.5703 178.688 99.5703 177.937V168.13C99.5703 167.379 100.184 166.769 100.938 166.769V166.772Z" fill="black"/>
<path d="M152.34 166.772H197.356C198.11 166.772 198.724 167.382 198.724 168.133V177.934C198.724 178.685 198.11 179.295 197.356 179.295H153.708C152.953 179.295 152.34 178.685 152.34 177.934V166.769V166.772Z" fill="black"/>
<path fill-rule="evenodd" clip-rule="evenodd" d="M94.1065 129.353L204.03 129.324C203.748 124.01 204.526 119.277 199.912 116.1C195.926 113.359 191.118 112.389 185.43 111.464C166.381 108.366 132.219 108.363 113.135 111.452C108.063 112.272 101.97 113.484 98.5679 116.013C95.1866 118.527 93.8071 122.918 94.1036 129.35L94.1065 129.353Z" fill="white"/>
<path fill-rule="evenodd" clip-rule="evenodd" d="M149.076 129.339L204.03 129.324C203.749 124.01 204.526 119.277 199.912 116.1C195.927 113.359 191.119 112.389 185.431 111.464C175.906 109.913 162.372 109.14 149.064 109.137L149.073 129.336L149.076 129.339Z" fill="#E3E6E8"/>
<path d="M154.561 115.59H120.657C120.007 115.59 119.48 116.115 119.48 116.761V123.433C119.48 124.08 120.007 124.604 120.657 124.604H154.561C155.211 124.604 155.738 124.08 155.738 123.433V116.761C155.738 116.115 155.211 115.59 154.561 115.59Z" fill="#020100"/>
<path d="M179.076 114.294H170.056C169.406 114.294 168.879 114.818 168.879 115.465V124.726C168.879 125.373 169.406 125.897 170.056 125.897H179.076C179.726 125.897 180.252 125.373 180.252 124.726V115.465C180.252 114.818 179.726 114.294 179.076 114.294Z" fill="#020100"/>
<path fill-rule="evenodd" clip-rule="evenodd" d="M204.035 197.958L191.743 198.495C178.198 199.087 165.72 201.047 158.057 211.999L149.067 224.843L140.082 211.987C132.395 200.988 119.859 199.014 106.258 198.457L94.1328 197.958V189.595H204.035V197.958Z" fill="#FBCE01"/>
<path fill-rule="evenodd" clip-rule="evenodd" d="M149.087 189.595H204.035V197.958L191.743 198.495C178.197 199.087 165.72 201.047 158.057 211.999L149.066 224.843L149.087 189.595Z" fill="#F9BE03"/>
<path d="M158.801 196.914H139.365C138.878 196.914 138.484 196.523 138.484 196.039C138.484 195.554 138.878 195.163 139.365 195.163H158.801C159.288 195.163 159.682 195.554 159.682 196.039C159.682 196.523 159.288 196.914 158.801 196.914Z" fill="black"/>
<path d="M158.801 201.493H139.365C138.878 201.493 138.484 201.102 138.484 200.617C138.484 200.132 138.878 199.741 139.365 199.741H158.801C159.288 199.741 159.682 200.132 159.682 200.617C159.682 201.102 159.288 201.493 158.801 201.493Z" fill="black"/>
<path d="M158.801 206.072H139.365C138.878 206.072 138.484 205.681 138.484 205.196C138.484 204.712 138.878 204.32 139.365 204.32H158.801C159.288 204.32 159.682 204.712 159.682 205.196C159.682 205.681 159.288 206.072 158.801 206.072Z" fill="black"/>
<path d="M204.02 186.104H94.1406V191.015H204.02V186.104Z" fill="#029D3D"/>
<path d="M204.035 186.104H149.078V191.015H204.035V186.104Z" fill="#07702C"/>
<path d="M125.359 212.051C127.564 212.051 129.351 210.273 129.351 208.08C129.351 205.887 127.564 204.109 125.359 204.109C123.154 204.109 121.367 205.887 121.367 208.08C121.367 210.273 123.154 212.051 125.359 212.051Z" fill="white"/>
<path d="M172.802 212.051C175.007 212.051 176.794 210.273 176.794 208.08C176.794 205.887 175.007 204.109 172.802 204.109C170.598 204.109 168.811 205.887 168.811 208.08C168.811 210.273 170.598 212.051 172.802 212.051Z" fill="white"/>
<path d="M92.3523 151.685H85.895C84.8786 151.685 84.0547 152.505 84.0547 153.516V164.593C84.0547 165.605 84.8786 166.424 85.895 166.424H92.3523C93.3687 166.424 94.1926 165.605 94.1926 164.593V153.516C94.1926 152.505 93.3687 151.685 92.3523 151.685Z" fill="#020100"/>
<path d="M212.259 151.685H205.801C204.785 151.685 203.961 152.505 203.961 153.516V164.593C203.961 165.605 204.785 166.424 205.801 166.424H212.259C213.275 166.424 214.099 165.605 214.099 164.593V153.516C214.099 152.505 213.275 151.685 212.259 151.685Z" fill="#020100"/>
<path d="M2280.15 31V137.713L2191.08 178.006L2280.15 31Z" fill="#62D0FC"/>
<path d="M2369.18 178.006L2280.15 137.713V31L2369.18 178.006Z" fill="#1EABE4"/>
<path d="M2280.15 230.352V137.713L2191.08 178.006L2280.15 230.352Z" fill="#1EABE4"/>
<path d="M2369.18 178.006L2280.15 137.713V230.352L2369.18 178.006Z" fill="#0075A5"/>
<path d="M2335.13 212.603H2225.15L2280.17 245.149L2335.13 212.603Z" fill="#E91F25"/>
<path d="M2369.25 194.795L2280.15 247.141V319.616L2369.25 194.795Z" fill="#1EABE4"/>
<path d="M2191.08 194.795L2280.15 247.141V319.616L2191.08 194.795Z" fill="#62D0FC"/>
<path d="M2335.1 129.182H2225.22V189.826H2335.1V129.182Z" fill="#E91F25"/>
<path d="M2335.09 129.182H2280.17V189.826H2335.09V129.182Z" fill="#BF0613"/>
<path d="M2231.98 135.702H2275.72C2276.45 135.702 2277.04 136.291 2277.04 137.016V163.7H2231.98C2231.25 163.7 2230.66 163.11 2230.66 162.386V137.018C2230.66 136.291 2231.25 135.705 2231.98 135.705V135.702Z" fill="black"/>
<path d="M2284.74 135.702H2328.48C2329.22 135.702 2329.81 136.292 2329.81 137.016V162.383C2329.81 163.11 2329.21 163.697 2328.48 163.697H2283.42V137.013C2283.42 136.286 2284.01 135.699 2284.74 135.699V135.702Z" fill="black"/>
<path d="M2232.02 166.772H2277.04V177.937C2277.04 178.688 2276.42 179.298 2275.67 179.298H2232.02C2231.26 179.298 2230.65 178.688 2230.65 177.937V168.13C2230.65 167.379 2231.26 166.769 2232.02 166.769V166.772Z" fill="black"/>
<path d="M2283.42 166.772H2328.44C2329.19 166.772 2329.81 167.382 2329.81 168.133V177.934C2329.81 178.685 2329.19 179.295 2328.44 179.295H2284.79C2284.04 179.295 2283.42 178.685 2283.42 177.934V166.769V166.772Z" fill="black"/>
<path fill-rule="evenodd" clip-rule="evenodd" d="M2225.19 129.353L2335.11 129.324C2334.83 124.01 2335.61 119.277 2330.99 116.1C2327.01 113.359 2322.2 112.389 2316.51 111.464C2297.46 108.366 2263.3 108.363 2244.22 111.452C2239.15 112.272 2233.05 113.484 2229.65 116.013C2226.27 118.527 2224.89 122.918 2225.19 129.35L2225.19 129.353Z" fill="white"/>
<path fill-rule="evenodd" clip-rule="evenodd" d="M2280.15 129.339L2335.11 129.324C2334.83 124.01 2335.6 119.277 2330.99 116.1C2327 113.359 2322.2 112.389 2316.51 111.464C2306.98 109.913 2293.45 109.14 2280.14 109.137L2280.15 129.336L2280.15 129.339Z" fill="#E3E6E8"/>
<path d="M2285.64 115.59H2251.74C2251.09 115.59 2250.56 116.115 2250.56 116.761V123.433C2250.56 124.08 2251.09 124.604 2251.74 124.604H2285.64C2286.29 124.604 2286.82 124.08 2286.82 123.433V116.761C2286.82 116.115 2286.29 115.59 2285.64 115.59Z" fill="#020100"/>
<path d="M2310.15 114.294H2301.13C2300.48 114.294 2299.96 114.818 2299.96 115.465V124.726C2299.96 125.373 2300.48 125.897 2301.13 125.897H2310.15C2310.8 125.897 2311.33 125.373 2311.33 124.726V115.465C2311.33 114.818 2310.8 114.294 2310.15 114.294Z" fill="#020100"/>
<path fill-rule="evenodd" clip-rule="evenodd" d="M2335.11 197.958L2322.82 198.495C2309.28 199.087 2296.8 201.047 2289.13 211.999L2280.14 224.843L2271.16 211.987C2263.47 200.988 2250.94 199.014 2237.34 198.457L2225.21 197.958V189.595H2335.11V197.958Z" fill="#FBCE01"/>
<path fill-rule="evenodd" clip-rule="evenodd" d="M2280.17 189.595H2335.12V197.958L2322.83 198.495C2309.28 199.087 2296.8 201.047 2289.14 211.999L2280.15 224.843L2280.17 189.595Z" fill="#F9BE03"/>
<path d="M2289.88 196.914H2270.44C2269.96 196.914 2269.56 196.523 2269.56 196.039C2269.56 195.554 2269.96 195.163 2270.44 195.163H2289.88C2290.37 195.163 2290.76 195.554 2290.76 196.039C2290.76 196.523 2290.37 196.914 2289.88 196.914Z" fill="black"/>
<path d="M2289.88 201.493H2270.44C2269.96 201.493 2269.56 201.102 2269.56 200.617C2269.56 200.132 2269.96 199.741 2270.44 199.741H2289.88C2290.37 199.741 2290.76 200.132 2290.76 200.617C2290.76 201.102 2290.37 201.493 2289.88 201.493Z" fill="black"/>
<path d="M2289.88 206.072H2270.44C2269.96 206.072 2269.56 205.681 2269.56 205.196C2269.56 204.712 2269.96 204.32 2270.44 204.32H2289.88C2290.37 204.32 2290.76 204.712 2290.76 205.196C2290.76 205.681 2290.37 206.072 2289.88 206.072Z" fill="black"/>
<path d="M2335.1 186.104H2225.22V191.015H2335.1V186.104Z" fill="#029D3D"/>
<path d="M2335.12 186.104H2280.16V191.015H2335.12V186.104Z" fill="#07702C"/>
<path d="M2256.44 212.051C2258.65 212.051 2260.43 210.273 2260.43 208.08C2260.43 205.887 2258.65 204.109 2256.44 204.109C2254.24 204.109 2252.45 205.887 2252.45 208.08C2252.45 210.273 2254.24 212.051 2256.44 212.051Z" fill="white"/>
<path d="M2303.88 212.051C2306.09 212.051 2307.88 210.273 2307.88 208.08C2307.88 205.887 2306.09 204.109 2303.88 204.109C2301.68 204.109 2299.89 205.887 2299.89 208.08C2299.89 210.273 2301.68 212.051 2303.88 212.051Z" fill="white"/>
<path d="M2223.43 151.685H2216.98C2215.96 151.685 2215.14 152.505 2215.14 153.516V164.593C2215.14 165.605 2215.96 166.424 2216.98 166.424H2223.43C2224.45 166.424 2225.27 165.605 2225.27 164.593V153.516C2225.27 152.505 2224.45 151.685 2223.43 151.685Z" fill="#020100"/>
<path d="M2343.34 151.685H2336.88C2335.86 151.685 2335.04 152.505 2335.04 153.516V164.593C2335.04 165.605 2335.86 166.424 2336.88 166.424H2343.34C2344.35 166.424 2345.18 165.605 2345.18 164.593V153.516C2345.18 152.505 2344.35 151.685 2343.34 151.685Z" fill="#020100"/>
</svg>
