<svg width="1000" height="308" viewBox="0 0 1000 308" fill="none" xmlns="http://www.w3.org/2000/svg">
<g clip-path="url(#clip0_394_24)">
<path fill-rule="evenodd" clip-rule="evenodd" d="M162.32 301.063C160.6 304.035 157.446 305.861 154.035 305.86C150.623 305.86 147.469 304.032 145.751 301.059L3.67643 55.281C2.39245 53.0599 2.0381 50.4145 2.69164 47.9293C3.34519 45.4441 4.95285 43.3236 7.15953 42.0362C50.3976 16.8097 100.599 2.37109 154.116 2.37109C207.632 2.37109 257.834 16.8097 301.072 42.0362C303.28 43.324 304.887 45.4455 305.54 47.9316C306.194 50.4177 305.838 53.0638 304.553 55.2851L162.32 301.063ZM157.509 270.939C157.925 270.279 158.397 269.464 158.969 268.475L265.18 84.9421C260.576 85.446 255.88 85.3505 251.206 84.8698C235.838 83.2889 218.304 77.1871 201.212 71.2395L201.189 71.2312C199.334 70.5862 197.486 69.9431 195.646 69.3077C176.166 62.5799 156.927 56.4211 138.726 55.2683C123.696 54.3164 109.821 56.8066 97.3798 65.1797C96.1291 66.0215 95.6152 67.594 96.0545 69.0368L157.509 270.939ZM122.875 223.074L75.0823 66.0564C73.9792 62.4329 75.0763 58.4936 77.889 55.9792C96.7527 39.1156 118.427 34.5986 139.929 35.9604C161.045 37.2978 182.573 44.344 201.86 51.0048C203.618 51.6121 205.354 52.2144 207.068 52.8089L207.092 52.8172C224.814 58.9669 240.14 64.2847 253.152 65.6237C260.086 66.3368 265.583 65.8057 269.946 64.1027C270.664 63.8218 271.391 63.5704 272.117 63.3185C275.22 62.2433 278.331 61.1656 280.853 57.8402C281.383 56.8785 281.653 56.2438 281.677 55.6104C281.705 54.8444 281.473 54.0608 281.033 53.4335C280.525 52.7101 279.631 52.2546 277.844 51.3436C240.668 32.3953 198.64 21.7171 154.116 21.7171C109.589 21.7171 67.5585 32.3966 30.3808 51.3471C28.5942 52.2577 27.7009 52.7131 27.193 53.4362C26.7525 54.0632 26.5208 54.8465 26.5492 55.6122C26.582 56.4953 27.0939 57.3808 28.1177 59.152L122.875 223.074Z" fill="url(#paint0_linear_394_24)"/>
<mask id="mask0_394_24" style="mask-type:luminance" maskUnits="userSpaceOnUse" x="0" y="0" width="309" height="309">
<path d="M308.231 0H0V308.231H308.231V0Z" fill="white"/>
<path fill-rule="evenodd" clip-rule="evenodd" d="M162.32 301.063C160.6 304.035 157.446 305.861 154.035 305.86C150.623 305.86 147.469 304.032 145.751 301.059L3.67643 55.281C2.39245 53.0599 2.0381 50.4145 2.69164 47.9293C3.34519 45.4441 4.95285 43.3236 7.15953 42.0362C50.3976 16.8097 100.599 2.37109 154.116 2.37109C207.632 2.37109 257.834 16.8097 301.072 42.0362C303.28 43.324 304.887 45.4455 305.54 47.9316C306.194 50.4177 305.838 53.0638 304.553 55.2851L162.32 301.063ZM157.509 270.939C157.925 270.279 158.397 269.464 158.969 268.475L265.18 84.9421C260.576 85.446 255.88 85.3505 251.206 84.8698C235.838 83.2889 218.304 77.1871 201.212 71.2395L201.189 71.2312C199.334 70.5862 197.486 69.9431 195.646 69.3077C176.166 62.5799 156.927 56.4211 138.726 55.2683C123.696 54.3164 109.821 56.8066 97.3798 65.1797C96.1291 66.0215 95.6152 67.594 96.0545 69.0368L157.509 270.939ZM122.875 223.074L75.0823 66.0564C73.9792 62.4329 75.0763 58.4936 77.889 55.9792C96.7527 39.1156 118.427 34.5986 139.929 35.9604C161.045 37.2978 182.573 44.344 201.86 51.0048C203.618 51.6121 205.354 52.2144 207.068 52.8089L207.092 52.8172C224.814 58.9669 240.14 64.2847 253.152 65.6237C260.086 66.3368 265.583 65.8057 269.946 64.1027C270.664 63.8218 271.391 63.5704 272.117 63.3185C275.22 62.2433 278.331 61.1656 280.853 57.8402C281.383 56.8785 281.653 56.2438 281.677 55.6104C281.705 54.8444 281.473 54.0608 281.033 53.4335C280.525 52.7101 279.631 52.2546 277.844 51.3436C240.668 32.3953 198.64 21.7171 154.116 21.7171C109.589 21.7171 67.5585 32.3966 30.3808 51.3471C28.5942 52.2577 27.7009 52.7131 27.193 53.4362C26.7525 54.0632 26.5208 54.8465 26.5492 55.6122C26.582 56.4953 27.0939 57.3808 28.1177 59.152L122.875 223.074Z" fill="black"/>
</mask>
<g mask="url(#mask0_394_24)">
<path d="M157.509 270.939L155.24 271.629C155.51 272.516 156.273 273.165 157.192 273.289C158.111 273.412 159.018 272.989 159.513 272.204L157.509 270.939ZM265.18 84.942L267.232 86.1293C267.68 85.3558 267.654 84.3961 267.167 83.6475C266.679 82.8982 265.811 82.4874 264.922 82.5847L265.18 84.942ZM201.212 71.2394L200.433 73.4788H200.433L201.212 71.2394ZM201.189 71.2311L201.968 68.9922L201.967 68.9916L201.189 71.2311ZM122.875 223.074L120.822 224.26C121.425 225.303 122.714 225.728 123.819 225.248C124.924 224.768 125.493 223.536 125.143 222.383L122.875 223.074ZM207.067 52.8088L207.845 50.5689L207.845 50.5688L207.067 52.8088ZM280.853 57.8401L282.742 59.2731C282.812 59.1811 282.875 59.0841 282.931 58.983L280.853 57.8401ZM154.034 308.231C158.298 308.232 162.232 305.949 164.372 302.251L160.268 299.876C158.969 302.12 156.593 303.49 154.035 303.489L154.034 308.231ZM143.699 302.246C145.837 305.945 149.77 308.23 154.034 308.231L154.035 303.489C151.477 303.489 149.102 302.118 147.804 299.873L143.699 302.246ZM1.62363 56.4676L143.699 302.246L147.804 299.873L5.72907 54.0944L1.62363 56.4676ZM0.398515 47.3262C-0.413816 50.4152 0.0260703 53.7039 1.62363 56.4676L5.72907 54.0944C4.75867 52.4156 4.48985 50.4136 4.98461 48.5323L0.398515 47.3262ZM5.96457 39.9882C3.21116 41.5946 1.21096 44.2368 0.398515 47.3262L4.98461 48.5323C5.47925 46.6513 6.69437 45.0524 8.35426 44.084L5.96457 39.9882ZM154.116 0C100.167 0 49.5546 14.5563 5.96457 39.9882L8.35426 44.084C51.2404 19.0629 101.031 4.74202 154.116 4.74202V0ZM302.267 39.9882C258.677 14.5563 208.064 0 154.116 0V4.74202C207.2 4.74202 256.991 19.0628 299.877 44.084L302.267 39.9882ZM307.834 47.329C307.022 44.2384 305.021 41.5951 302.267 39.9882L299.877 44.084C301.537 45.0527 302.753 46.6523 303.247 48.5339L307.834 47.329ZM306.605 56.4725C308.204 53.7088 308.646 50.4192 307.834 47.329L303.247 48.5339C303.742 50.416 303.472 52.4186 302.501 54.0974L306.605 56.4725ZM164.372 302.251L306.605 56.4725L302.501 54.0974L160.268 299.876L164.372 302.251ZM156.917 267.287C156.336 268.29 155.891 269.06 155.504 269.673L159.513 272.204C159.96 271.497 160.457 270.638 161.021 269.662L156.917 267.287ZM263.128 83.7542L156.917 267.287L161.021 269.662L267.232 86.1293L263.128 83.7542ZM250.963 87.2283C255.763 87.722 260.631 87.8246 265.438 87.2988L264.922 82.5847C260.521 83.0666 255.997 82.9788 251.448 82.5111L250.963 87.2283ZM200.433 73.4788C217.445 79.3986 235.263 85.613 250.963 87.2283L251.448 82.5111C236.412 80.9641 219.161 74.9749 201.992 69.0005L200.433 73.4788ZM200.409 73.4705L200.433 73.4788L201.992 69.0005L201.968 68.9922L200.409 73.4705ZM194.872 71.5488C196.709 72.183 198.555 72.825 200.409 73.4705L201.967 68.9916C200.114 68.3467 198.263 67.703 196.42 67.0664L194.872 71.5488ZM138.577 57.6345C156.414 58.7642 175.367 64.8127 194.872 71.5488L196.42 67.0664C176.966 60.3475 157.441 54.0778 138.876 52.902L138.577 57.6345ZM98.7034 67.1464C110.598 59.1416 123.914 56.7058 138.577 57.6345L138.876 52.902C123.479 51.9268 109.043 54.4715 96.0556 63.2129L98.7034 67.1464ZM98.3228 68.3461C98.1693 67.8441 98.3655 67.374 98.7034 67.1464L96.0556 63.2129C93.892 64.6687 93.0604 67.3438 93.7859 69.7273L98.3228 68.3461ZM159.777 270.248L98.3228 68.3461L93.7859 69.7273L155.24 271.629L159.777 270.248ZM72.8137 66.7469L120.606 223.764L125.143 222.383L77.3501 65.3664L72.8137 66.7469ZM76.3086 54.2115C72.8042 57.3445 71.4433 62.2444 72.8137 66.7469L77.3501 65.3664C76.5149 62.6213 77.3483 59.6428 79.4691 57.7468L76.3086 54.2115ZM140.078 33.5941C118.116 32.2031 95.7615 36.8215 76.3086 54.2115L79.4691 57.7468C97.7443 41.4096 118.737 36.9939 139.779 38.3266L140.078 33.5941ZM202.634 48.7636C183.37 42.1108 161.558 34.9544 140.078 33.5941L139.779 38.3266C160.532 39.641 181.776 46.577 201.086 53.2459L202.634 48.7636ZM207.845 50.5688C206.131 49.9744 204.394 49.3715 202.634 48.7636L201.086 53.2459C202.842 53.8524 204.577 54.4542 206.29 55.0487L207.845 50.5688ZM207.869 50.5773L207.845 50.5689L206.29 55.0486L206.314 55.057L207.869 50.5773ZM253.395 63.2651C240.718 61.961 225.686 56.7598 207.869 50.5772L206.314 55.057C223.942 61.1737 239.562 66.6088 252.909 67.9822L253.395 63.2651ZM269.083 61.8934C265.19 63.4133 260.106 63.955 253.395 63.2651L252.909 67.9822C260.067 68.7184 265.975 68.1974 270.808 66.3112L269.083 61.8934ZM271.341 61.0778C270.621 61.3274 269.851 61.5941 269.083 61.8934L270.808 66.3112C271.477 66.0498 272.159 65.8127 272.894 65.5584L271.341 61.0778ZM278.964 56.4071C276.919 59.1034 274.459 59.9978 271.341 61.0778L272.894 65.5584C275.982 64.4885 279.742 63.2277 282.742 59.2731L278.964 56.4071ZM279.307 55.5216C279.306 55.5406 279.304 55.7374 278.776 56.6972L282.931 58.983C283.461 58.0194 283.999 56.9469 284.046 55.699L279.307 55.5216ZM279.093 54.796C279.236 54.9994 279.316 55.2732 279.307 55.5216L284.046 55.699C284.094 54.4154 283.712 53.122 282.974 52.0709L279.093 54.796ZM276.767 53.456C277.697 53.9301 278.261 54.2193 278.664 54.4708C278.851 54.5874 278.957 54.6683 279.019 54.7218C279.075 54.7701 279.09 54.7929 279.093 54.796L282.974 52.0709C282.464 51.3451 281.819 50.8498 281.173 50.4468C280.555 50.062 279.777 49.6679 278.92 49.2311L276.767 53.456ZM154.116 24.088C198.256 24.088 239.916 34.6734 276.767 53.456L278.92 49.2311C241.419 30.117 199.023 19.346 154.116 19.346V24.088ZM31.4574 53.4594C68.31 34.6747 109.973 24.088 154.116 24.088V19.346C109.206 19.346 66.8074 30.1183 29.304 49.2346L31.4574 53.4594ZM29.1331 54.7989C29.1353 54.7958 29.1508 54.773 29.2065 54.7248C29.2683 54.6712 29.3749 54.5904 29.5617 54.4739C29.9649 54.2225 30.5275 53.9334 31.4574 53.4594L29.304 49.2346C28.4473 49.6712 27.6699 50.0652 27.0529 50.4499C26.4068 50.8527 25.7623 51.3478 25.2527 52.0733L29.1331 54.7989ZM28.9185 55.5243C28.9093 55.276 28.9903 55.0022 29.1331 54.7989L25.2527 52.0733C24.5146 53.1241 24.1321 54.4169 24.1797 55.7001L28.9185 55.5243ZM30.1703 57.9653C29.6381 57.0446 29.3148 56.4813 29.1075 56.0402C29.011 55.8352 28.9637 55.7053 28.94 55.624C28.9287 55.5854 28.9236 55.5605 28.9212 55.5465C28.9189 55.5332 28.9186 55.5266 28.9185 55.5243L24.1797 55.7001C24.2128 56.5917 24.4902 57.3648 24.816 58.0577C25.1288 58.7231 25.5734 59.488 26.0649 60.3386L30.1703 57.9653ZM124.927 221.887L30.1703 57.9653L26.0649 60.3386L120.822 224.26L124.927 221.887Z" fill="#F5F5F5"/>
</g>
</g>
<path d="M401.978 180.414H373.388V87.7708H403.244C412.231 87.7708 419.921 89.6255 426.314 93.3349C432.708 97.0141 437.608 102.307 441.016 109.213C444.424 116.089 446.128 124.321 446.128 133.912C446.128 143.562 444.409 151.87 440.971 158.837C437.533 165.773 432.527 171.111 425.953 174.85C419.378 178.559 411.387 180.414 401.978 180.414ZM384.607 170.462H401.254C408.914 170.462 415.262 168.984 420.298 166.029C425.334 163.074 429.089 158.867 431.562 153.408C434.035 147.95 435.271 141.451 435.271 133.912C435.271 126.433 434.05 119.994 431.607 114.596C429.164 109.167 425.515 105.006 420.66 102.111C415.805 99.1854 409.758 97.7228 402.52 97.7228H384.607V170.462ZM483.945 182.043C479.542 182.043 475.546 181.213 471.958 179.555C468.369 177.866 465.519 175.438 463.408 172.272C461.297 169.075 460.241 165.215 460.241 160.691C460.241 156.71 461.026 153.484 462.594 151.011C464.162 148.508 466.258 146.547 468.882 145.13C471.505 143.713 474.4 142.657 477.567 141.964C480.763 141.24 483.975 140.667 487.202 140.245C491.424 139.702 494.847 139.295 497.471 139.023C500.124 138.722 502.055 138.224 503.261 137.53C504.497 136.837 505.116 135.63 505.116 133.912V133.55C505.116 129.086 503.894 125.618 501.451 123.145C499.039 120.672 495.375 119.436 490.459 119.436C485.362 119.436 481.367 120.552 478.472 122.783C475.576 125.015 473.541 127.398 472.365 129.931L462.232 126.312C464.041 122.09 466.454 118.803 469.47 116.45C472.515 114.068 475.833 112.409 479.421 111.474C483.04 110.509 486.599 110.027 490.097 110.027C492.329 110.027 494.892 110.298 497.787 110.841C500.713 111.354 503.532 112.424 506.246 114.053C508.991 115.681 511.268 118.139 513.077 121.426C514.886 124.714 515.791 129.117 515.791 134.635V180.414H505.116V171.005H504.573C503.849 172.513 502.643 174.126 500.954 175.845C499.265 177.564 497.018 179.027 494.214 180.233C491.409 181.439 487.986 182.043 483.945 182.043ZM485.574 172.453C489.796 172.453 493.354 171.623 496.249 169.965C499.175 168.306 501.376 166.165 502.854 163.541C504.362 160.917 505.116 158.158 505.116 155.263V145.492C504.663 146.035 503.668 146.532 502.13 146.985C500.622 147.407 498.873 147.784 496.883 148.116C494.922 148.417 493.007 148.689 491.138 148.93C489.298 149.141 487.805 149.322 486.659 149.473C483.885 149.835 481.291 150.423 478.879 151.237C476.496 152.021 474.566 153.212 473.088 154.811C471.641 156.379 470.917 158.52 470.917 161.234C470.917 164.943 472.289 167.748 475.034 169.648C477.808 171.518 481.321 172.453 485.574 172.453ZM535.277 180.414V110.932H545.952V180.414H535.277ZM540.705 99.3513C538.624 99.3513 536.83 98.6426 535.322 97.2252C533.844 95.8078 533.105 94.1039 533.105 92.1135C533.105 90.1231 533.844 88.4192 535.322 87.0018C536.83 85.5844 538.624 84.8758 540.705 84.8758C542.786 84.8758 544.565 85.5844 546.043 87.0018C547.551 88.4192 548.305 90.1231 548.305 92.1135C548.305 94.1039 547.551 95.8078 546.043 97.2252C544.565 98.6426 542.786 99.3513 540.705 99.3513ZM565.505 180.414V110.932H575.819V121.788H576.724C578.172 118.079 580.509 115.199 583.736 113.148C586.962 111.067 590.838 110.027 595.361 110.027C599.945 110.027 603.76 111.067 606.806 113.148C609.882 115.199 612.279 118.079 613.998 121.788H614.722C616.501 118.2 619.17 115.35 622.729 113.239C626.288 111.098 630.555 110.027 635.531 110.027C641.743 110.027 646.825 111.972 650.775 115.862C654.726 119.723 656.701 125.739 656.701 133.912V180.414H646.025V133.912C646.025 128.785 644.623 125.121 641.819 122.919C639.014 120.718 635.712 119.617 631.912 119.617C627.026 119.617 623.242 121.095 620.558 124.05C617.874 126.975 616.532 130.685 616.532 135.178V180.414H605.675V132.826C605.675 128.875 604.393 125.694 601.83 123.281C599.267 120.838 595.964 119.617 591.923 119.617C589.149 119.617 586.555 120.356 584.143 121.834C581.76 123.311 579.83 125.362 578.352 127.986C576.905 130.579 576.181 133.58 576.181 136.988V180.414H565.505ZM704.448 181.862C698.175 181.862 692.671 180.369 687.937 177.383C683.232 174.398 679.553 170.221 676.899 164.853C674.275 159.485 672.963 153.212 672.963 146.035C672.963 138.797 674.275 132.479 676.899 127.081C679.553 121.683 683.232 117.491 687.937 114.505C692.671 111.52 698.175 110.027 704.448 110.027C710.72 110.027 716.209 111.52 720.914 114.505C725.648 117.491 729.327 121.683 731.951 127.081C734.605 132.479 735.932 138.797 735.932 146.035C735.932 153.212 734.605 159.485 731.951 164.853C729.327 170.221 725.648 174.398 720.914 177.383C716.209 180.369 710.72 181.862 704.448 181.862ZM704.448 172.272C709.213 172.272 713.133 171.05 716.209 168.607C719.285 166.165 721.562 162.953 723.04 158.972C724.517 154.991 725.256 150.679 725.256 146.035C725.256 141.391 724.517 137.063 723.04 133.052C721.562 129.041 719.285 125.799 716.209 123.326C713.133 120.853 709.213 119.617 704.448 119.617C699.683 119.617 695.762 120.853 692.686 123.326C689.61 125.799 687.333 129.041 685.856 133.052C684.378 137.063 683.639 141.391 683.639 146.035C683.639 150.679 684.378 154.991 685.856 158.972C687.333 162.953 689.61 166.165 692.686 168.607C695.762 171.05 699.683 172.272 704.448 172.272ZM789.503 180.414V87.7708H820.806C828.074 87.7708 834.015 89.0827 838.629 91.7064C843.273 94.2999 846.711 97.8132 848.943 102.246C851.174 106.679 852.29 111.625 852.29 117.084C852.29 122.542 851.174 127.503 848.943 131.966C846.741 136.43 843.333 139.988 838.719 142.642C834.105 145.266 828.194 146.578 820.987 146.578H798.55V136.626H820.625C825.601 136.626 829.597 135.766 832.612 134.047C835.628 132.328 837.815 130.006 839.172 127.081C840.559 124.125 841.252 120.793 841.252 117.084C841.252 113.374 840.559 110.057 839.172 107.132C837.815 104.207 835.613 101.915 832.567 100.256C829.521 98.5672 825.48 97.7228 820.444 97.7228H800.721V180.414H789.503ZM889.361 182.043C884.958 182.043 880.962 181.213 877.373 179.555C873.785 177.866 870.935 175.438 868.824 172.272C866.713 169.075 865.657 165.215 865.657 160.691C865.657 156.71 866.441 153.484 868.01 151.011C869.578 148.508 871.674 146.547 874.297 145.13C876.921 143.713 879.816 142.657 882.983 141.964C886.179 141.24 889.391 140.667 892.618 140.245C896.84 139.702 900.263 139.295 902.886 139.023C905.54 138.722 907.47 138.224 908.677 137.53C909.913 136.837 910.531 135.63 910.531 133.912V133.55C910.531 129.086 909.31 125.618 906.867 123.145C904.455 120.672 900.791 119.436 895.875 119.436C890.778 119.436 886.782 120.552 883.887 122.783C880.992 125.015 878.957 127.398 877.78 129.931L867.648 126.312C869.457 122.09 871.87 118.803 874.885 116.45C877.931 114.068 881.249 112.409 884.837 111.474C888.456 110.509 892.015 110.027 895.513 110.027C897.745 110.027 900.308 110.298 903.203 110.841C906.128 111.354 908.948 112.424 911.662 114.053C914.407 115.681 916.683 118.139 918.493 121.426C920.302 124.714 921.207 129.117 921.207 134.635V180.414H910.531V171.005H909.988C909.265 172.513 908.058 174.126 906.37 175.845C904.681 177.564 902.434 179.027 899.629 180.233C896.825 181.439 893.402 182.043 889.361 182.043ZM890.989 172.453C895.211 172.453 898.77 171.623 901.665 169.965C904.59 168.306 906.792 166.165 908.27 163.541C909.777 160.917 910.531 158.158 910.531 155.263V145.492C910.079 146.035 909.084 146.532 907.546 146.985C906.038 147.407 904.289 147.784 902.298 148.116C900.338 148.417 898.423 148.689 896.553 148.93C894.714 149.141 893.221 149.322 892.075 149.473C889.301 149.835 886.707 150.423 884.294 151.237C881.912 152.021 879.982 153.212 878.504 154.811C877.057 156.379 876.333 158.52 876.333 161.234C876.333 164.943 877.705 167.748 880.449 169.648C883.224 171.518 886.737 172.453 890.989 172.453ZM945.08 206.47C943.271 206.47 941.657 206.319 940.24 206.018C938.823 205.746 937.843 205.475 937.3 205.203L940.014 195.794C942.607 196.458 944.899 196.699 946.89 196.518C948.88 196.337 950.644 195.447 952.182 193.849C953.751 192.281 955.183 189.733 956.48 186.204L958.47 180.776L932.776 110.932H944.357L963.537 166.3H964.26L983.44 110.932H995.021L965.527 190.547C964.2 194.136 962.556 197.106 960.596 199.458C958.636 201.841 956.359 203.605 953.766 204.751C951.202 205.897 948.307 206.47 945.08 206.47Z" fill="#14AC2B"/>
<defs>
<linearGradient id="paint0_linear_394_24" x1="154.116" y1="2.37109" x2="154.116" y2="305.86" gradientUnits="userSpaceOnUse">
<stop stop-color="#66B95F"/>
<stop offset="1" stop-color="#95CE96"/>
</linearGradient>
<clipPath id="clip0_394_24">
<rect width="308.231" height="307.789" fill="white"/>
</clipPath>
</defs>
</svg>
