<svg width="917" height="191" viewBox="0 0 917 191" fill="none" xmlns="http://www.w3.org/2000/svg">
<g clip-path="url(#clip0_387_16)">
<path d="M231.064 35.5345H281.128C293.262 35.2063 305.306 37.7053 316.307 42.8339C325.827 47.4192 333.714 54.8079 338.909 64.0068C344.35 74.0912 347.056 85.423 346.76 96.8766C347.071 108.389 344.392 119.785 338.983 129.954C333.831 139.16 325.964 146.553 316.455 151.126C305.408 156.259 293.32 158.758 281.143 158.426H231.064V35.5345ZM277.973 131.775C282.804 132.149 287.661 131.556 292.259 130.03C296.857 128.505 301.105 126.078 304.753 122.891C307.954 119.252 310.39 115.007 311.917 110.409C313.444 105.81 314.03 100.951 313.64 96.1214C314.05 91.2904 313.473 86.4265 311.945 81.8249C310.417 77.2233 307.971 72.9799 304.753 69.3518C301.081 66.2162 296.824 63.8379 292.228 62.3538C287.632 60.8698 282.787 60.3095 277.973 60.705H262.169V131.775H277.973Z" fill="#273339"/>
<path d="M441.394 121.411H388.072C388.64 126.067 390.934 130.341 394.5 133.389C398.457 136.067 403.197 137.344 407.964 137.017C416.596 136.904 424.991 134.184 432.048 129.214L439.913 149.395C435.215 152.73 429.98 155.234 424.435 156.798C418.589 158.565 412.516 159.473 406.409 159.493C397.604 159.717 388.868 157.876 380.903 154.118C373.955 150.738 368.185 145.347 364.343 138.646C360.306 131.435 358.271 123.276 358.448 115.015C358.304 107.009 360.179 99.0967 363.899 92.006C367.39 85.3957 372.692 79.9159 379.185 76.2078C385.954 72.377 393.625 70.4291 401.402 70.5666C406.791 70.3568 412.162 71.3056 417.153 73.3491C422.143 75.3925 426.637 78.483 430.33 82.4116C437.733 91.2518 441.666 102.482 441.394 114.008V121.411ZM388.072 106.605H415.029C414.358 96.4281 409.87 91.3397 401.565 91.3397C393.261 91.3397 388.763 96.4281 388.072 106.605Z" fill="#273339"/>
<path d="M511.868 72.5508H542.306L503.928 158.427H478.245L440.475 72.5508H473.061L491.975 120.952L511.868 72.5508Z" fill="#273339"/>
<path d="M596.917 74.0314H616.173V96.2407H595.436V158.427H564.331V96.2407H549.52V74.0314H565.383C565.327 69.0291 566.357 64.0742 568.403 59.5087C570.448 54.9432 573.461 50.8758 577.232 47.5875C586.908 40.8474 598.456 37.3106 610.248 37.4749L620.942 36.8086L622.72 58.8254L614.484 59.1512C609.767 59.0029 605.087 60.0201 600.857 62.1124C599.486 63.1416 598.404 64.5065 597.714 66.0754C597.024 67.6443 596.749 69.3645 596.917 71.0701V74.0314Z" fill="#273339"/>
<path d="M643.472 153.985C636.568 150.541 630.834 145.138 626.987 138.453C622.988 131.237 620.989 123.084 621.195 114.837C620.98 106.613 622.981 98.4819 626.987 91.2953C630.831 84.6819 636.539 79.3469 643.398 75.9561C651.196 72.4094 659.663 70.5742 668.23 70.5742C676.797 70.5742 685.265 72.4094 693.062 75.9561C699.927 79.3446 705.64 84.6798 709.489 91.2953C713.495 98.4819 715.495 106.613 715.28 114.837C715.487 123.084 713.487 131.237 709.489 138.453C705.559 145.174 699.724 150.579 692.722 153.985C684.963 157.579 676.515 159.441 667.964 159.441C659.413 159.441 650.964 157.579 643.206 153.985H643.472ZM684.723 115.104C684.723 100.752 679.228 93.5754 668.238 93.5754C657.247 93.5754 651.742 100.752 651.723 115.104C651.723 129.456 657.218 136.632 668.208 136.632C679.198 136.632 684.699 129.456 684.708 115.104H684.723Z" fill="#273339"/>
<path d="M728.742 158.427V35.5352H759.847V158.427H728.742Z" fill="#273339"/>
<path d="M777.621 29.6123H810.207V57.7441H777.621V29.6123ZM777.621 158.219V72.5503H808.726V158.426L777.621 158.219Z" fill="#273339"/>
<path d="M845.193 153.985C838.289 150.541 832.555 145.138 828.707 138.453C824.709 131.237 822.709 123.084 822.916 114.837C822.701 106.613 824.701 98.4819 828.707 91.2953C832.552 84.6819 838.26 79.3469 845.119 75.9561C852.917 72.4094 861.384 70.5742 869.951 70.5742C878.518 70.5742 886.985 72.4094 894.783 75.9561C901.642 79.3469 907.35 84.6819 911.195 91.2953C915.201 98.4819 917.201 106.613 916.986 114.837C917.193 123.084 915.193 131.237 911.195 138.453C907.32 145.144 901.561 150.546 894.635 153.985C886.877 157.579 878.428 159.441 869.877 159.441C861.326 159.441 852.877 157.579 845.119 153.985H845.193ZM886.444 115.489C886.444 101.136 880.949 93.9604 869.958 93.9604C858.968 93.9604 853.473 101.136 853.473 115.489C853.473 129.841 858.968 137.017 869.958 137.017C880.949 137.017 886.419 129.841 886.37 115.489H886.444Z" fill="#273339"/>
<path d="M174.781 104.68C175.166 148.403 142.625 185.921 99.315 190.852C98.4003 190.954 97.4804 191.003 96.56 191C87.9395 191 41.3415 191 24.1302 190.304C20.7786 189.903 17.593 188.622 14.8976 186.591C12.2022 184.56 10.0932 181.851 8.78516 178.74C11.3611 179.876 14.1207 180.538 16.9317 180.695C22.8564 181.228 33.3135 180.695 47.5773 180.695C62.7594 180.695 79.1709 180.828 87.036 180.902C91.2335 180.961 95.4277 180.639 99.5668 179.94C119.464 176.474 137.612 166.407 151.082 151.364C164.165 136.923 172.445 118.781 174.781 99.4385V104.68Z" fill="#3770FF"/>
<path d="M167.878 85.876C167.98 107.271 160.089 127.934 145.749 143.819C131.41 159.703 111.655 169.664 90.3532 171.752H17.7753C12.8036 171.035 8.26124 168.538 4.99219 164.726C1.72314 160.913 -0.0503931 156.044 0.00109018 151.023V20.7287C0.00109018 10.3643 7.407 0 17.7753 0H91.8344C113.001 2.10601 132.592 12.121 146.691 28.0425C160.789 43.9639 168.356 64.6184 167.878 85.876Z" fill="#3770FF"/>
</g>
<defs>
<clipPath id="clip0_387_16">
<rect width="917" height="191" fill="white"/>
</clipPath>
</defs>
</svg>
