<svg width="917" height="274" viewBox="0 0 917 274" fill="none" xmlns="http://www.w3.org/2000/svg">
<mask id="mask0_390_469" style="mask-type:luminance" maskUnits="userSpaceOnUse" x="0" y="0" width="917" height="274">
<path d="M917 0H0V273.248H917V0Z" fill="white"/>
</mask>
<g mask="url(#mask0_390_469)">
<path d="M263.24 157.654H311.84C328.219 157.654 333.38 164.146 333.38 173.52C333.38 181.275 329.005 186.132 322.523 188.479C330.406 190.551 336.967 195.052 336.967 204.523C336.967 215.062 330.83 222.364 315.428 222.364H263.24V157.67V157.654ZM305.343 183.509C309.638 183.509 312.784 183.152 312.784 178.101C312.784 173.05 309.811 172.969 305.343 172.969H283.803V183.509H305.343ZM308.851 207.032C312.612 207.032 315.6 206.757 315.6 201.722C315.6 196.687 312.454 196.412 308.851 196.412H283.803V207.048H308.851V207.032Z" fill="#0078FF"/>
<path d="M423.146 157.654H443.726V204.507H485.671V222.348H423.146V157.654Z" fill="#0078FF"/>
<path d="M490.77 190.358C490.77 169.538 507.667 156.116 533.675 156.116C557.497 156.116 573.682 166.478 574.736 181.615H552.682C551.546 177.648 544.276 174.038 533.848 174.038C520.363 174.038 512.401 180.886 512.401 190.341C512.401 200.524 521.341 206.207 536.304 206.207C543.477 206.207 551.455 205.22 558.184 202.516V199.359H532.101V186.197H574.736V214.124C565.108 220.615 549.61 224.129 535.076 224.129C508.186 224.129 490.77 210.886 490.77 190.341V190.358Z" fill="#0078FF"/>
<path d="M586.08 157.655H637.31C654.555 157.655 663.144 164.406 663.144 177.471C663.144 186.391 658.406 192.252 649.929 194.858C657.983 195.393 663.067 200.169 663.067 208.101V222.332H642.486V211.518C642.486 205.754 640.912 204.038 635.313 204.038H606.677V222.332H586.1V157.639L586.08 157.655ZM632.399 187.12C637.921 187.12 641.686 186.035 641.686 180.806C641.686 175.577 637.921 174.589 632.399 174.589H606.662V187.12H632.399Z" fill="#0078FF"/>
<path d="M703.216 157.654H729.489L761.619 222.348H739.637L734.114 210.368H698.479L692.88 222.348H670.994L703.216 157.654ZM727.038 195.133L716.258 171.982L705.484 195.133H727.018H727.038Z" fill="#0078FF"/>
<path d="M769.211 157.655H811.378C829.595 157.655 842.81 171.173 842.81 189.904C842.81 208.636 829.595 222.332 811.378 222.332H769.211V157.639V157.655ZM803.053 204.508C815.484 204.508 821.526 199.634 821.526 189.904C821.526 180.174 815.484 175.496 803.053 175.496H789.793V204.508H803.053Z" fill="#0078FF"/>
<path d="M263.24 55.5957H327.511V71.5423H283.819V80.641H327.511V95.1464H283.819V104.342H327.511V120.289H263.24V55.5957Z" fill="#0078FF"/>
<path d="M335.039 55.5957H409.819V71.5423H382.758V120.289H362.179V71.5423H335.039V55.5957Z" fill="#0078FF"/>
<path d="M417.357 55.5957H437.937V80.641H468.507V55.5957H489.086V120.289H468.507V95.1464H437.937V120.289H417.357V55.5957Z" fill="#0078FF"/>
<path d="M347.059 157.654H411.329V173.601H367.638V182.699H411.329V197.205H367.638V206.401H411.329V222.348H347.059V157.654Z" fill="#0078FF"/>
<path d="M852.732 157.654H917.004V173.601H873.314V182.699H917.004V197.205H873.314V206.401H917.004V222.348H852.732V157.654Z" fill="#0078FF"/>
<path d="M103.651 185.988L0 122.979L103.651 273.25L207.349 122.979L103.651 185.988Z" fill="#0078FF"/>
<path d="M103.682 165.474L0.109375 102.723V69.016L11.2643 56.8576L22.1832 69.2427V85.6754H36.2803V100.829H60.3523V86.1283H68.2976V38.5151L59.2193 29.5298V0H77.3759V12.4498H92.4952V0H114.837V12.4498H129.956V0H148.113V29.546L139.034 38.5314V86.1283H146.76V100.845H171.288V85.6912H185.196V69.259L196.084 56.8739L207.238 69.0323V102.674L103.682 165.474Z" fill="#0078FF"/>
</g>
</svg>
