<svg width="917" height="376" viewBox="0 0 917 376" fill="none" xmlns="http://www.w3.org/2000/svg">
<path d="M111.645 376.009L7.57617 225.908L29.1691 210.938L111.674 329.948L194.326 210.938L215.89 225.908L111.645 376.009Z" fill="#FE304C"/>
<path d="M98.4579 255.907V157.761H124.72V211.437L185.895 177.72L80.9355 14.196L103.039 0L223.157 187.159L98.4579 255.907Z" fill="#FE304C"/>
<path d="M76.5382 229.354L0 187.16L84.4896 55.5303L106.593 69.7117L37.277 177.721L89.2021 206.346L76.5382 229.354Z" fill="#FE304C"/>
<path d="M299.842 224.963H363.803V246.789H272.807V129.268H361.615V151.094H299.827V224.963H299.842ZM297.814 176.437H354.393V197.753H297.814V176.437Z" fill="#FE304C"/>
<path d="M409.804 246.789V151.43H372.191V129.268H474.612V151.43H436.999V246.789H409.804Z" fill="#FE304C"/>
<path d="M516.605 246.789H489.234V129.268H516.605V246.789ZM571.842 198.599H514.416V175.591H571.842V198.599ZM569.829 129.268H597.024V246.789H569.829V129.268Z" fill="#FE304C"/>
<path d="M681.13 247.619C672.405 247.619 664.308 246.131 656.867 243.17C649.426 240.208 642.963 236.035 637.477 230.666C631.992 225.297 627.746 218.994 624.711 211.772C621.691 204.55 620.174 196.642 620.174 188.02C620.174 179.397 621.691 171.489 624.711 164.267C627.731 157.045 632.021 150.757 637.55 145.388C643.094 140.019 649.558 135.846 656.94 132.884C664.323 129.923 672.391 128.435 681.116 128.435C689.84 128.435 697.15 129.777 704.372 132.461C711.594 135.146 717.78 139.231 722.93 144.717L717.561 150.261C712.527 145.344 706.954 141.784 700.855 139.596C694.757 137.407 688.294 136.328 681.466 136.328C673.966 136.328 666.993 137.612 660.558 140.194C654.124 142.776 648.522 146.409 643.766 151.107C639.009 155.805 635.318 161.291 632.692 167.565C630.066 173.838 628.753 180.666 628.753 188.049C628.753 195.431 630.066 202.259 632.692 208.533C635.318 214.807 639.009 220.278 643.766 224.991C648.522 229.688 654.124 233.336 660.558 235.904C666.993 238.486 673.966 239.77 681.466 239.77C688.294 239.77 694.757 238.676 700.855 236.502C706.954 234.313 712.527 230.71 717.561 225.676L722.93 231.22C717.78 236.706 711.594 240.821 704.372 243.563C697.15 246.306 689.403 247.678 681.116 247.678L681.13 247.619Z" fill="#FE304C"/>
<path d="M748.951 246.785V122.202H757.34V246.785H748.951Z" fill="#FE304C"/>
<path d="M828.362 247.46C820.863 247.46 814.37 246.089 808.884 243.346C803.399 240.603 799.168 236.459 796.206 230.915C793.244 225.371 791.756 218.514 791.756 210.343V159.133H800.145V209.672C800.145 219.52 802.669 227.02 807.703 232.17C812.736 237.32 819.841 239.888 829.018 239.888C835.627 239.888 841.332 238.487 846.147 235.686C850.961 232.885 854.653 228.945 857.235 223.854C859.803 218.762 861.101 212.751 861.101 205.806V159.133H869.49V246.774H861.437V222.424L862.619 225.283C860.036 232.111 855.761 237.51 849.78 241.493C843.798 245.461 836.649 247.445 828.376 247.445L828.362 247.46Z" fill="#FE304C"/>
<path d="M890.652 280.022C887.179 280.022 883.824 279.541 880.585 278.593C877.346 277.644 874.647 276.156 872.531 274.143L875.887 267.927C879.578 271.166 884.334 272.8 890.156 272.8C895.189 272.8 899.085 271.283 901.828 268.263C904.57 265.243 905.942 260.88 905.942 255.161V159.13H914.331V255.497C914.331 262.879 912.288 268.817 908.203 273.296C904.118 277.775 898.268 280.008 890.652 280.008V280.022ZM910.129 137.815C908.218 137.815 906.598 137.143 905.256 135.801C903.914 134.459 903.243 132.898 903.243 131.103C903.243 129.207 903.914 127.572 905.256 126.23C906.598 124.888 908.218 124.217 910.129 124.217C912.143 124.217 913.791 124.859 915.075 126.143C916.359 127.427 917.001 129.031 917.001 130.928C917.001 132.825 916.359 134.459 915.075 135.801C913.791 137.143 912.143 137.815 910.129 137.815Z" fill="#FE304C"/>
</svg>
