<svg width="917" height="216" viewBox="0 0 917 216" fill="none" xmlns="http://www.w3.org/2000/svg">
<path d="M49.4657 139.703C49.4814 139.37 49.4993 137.525 48.2015 136.154C47.34 135.246 46.1352 134.786 44.6249 134.786C40.6481 134.786 39.4152 138.971 39.3168 141.187L38.8652 152.691L49.3776 149.833L49.463 139.7L49.4657 139.703Z" fill="black"/>
<path d="M21.4481 149.938C21.4663 149.665 21.4897 148.595 20.711 147.685C20.0828 146.95 19.1484 146.543 17.931 146.472C16.9525 146.418 16.0829 146.706 15.421 147.313C14.1621 148.463 14.0583 150.345 14.0505 150.615L13.5781 160.907L21.1912 157.511L21.4481 149.935V149.938Z" fill="black"/>
<path d="M34.5545 153.443V152.711L35.0218 144.538C35.0969 144.068 35.3408 141.975 34.077 140.473C33.5368 139.832 32.5088 139.068 30.6584 139.068C26.6221 139.068 25.3708 143.048 25.2697 145.148L24.7246 156.76L33.8278 153.687L34.5545 153.441V153.443Z" fill="black"/>
<path d="M133.691 159.839H144.98V149.758L133.691 148.867V159.839Z" fill="black"/>
<path d="M64.4508 136.004C64.487 135.635 64.5806 133.857 63.332 132.443C62.3326 131.308 60.7909 130.735 58.7506 130.732C54.1174 130.732 52.8926 135.202 52.8926 137.564V149.361L64.0279 147.342L64.4508 136.004Z" fill="black"/>
<path d="M116.139 162.635C116.139 160.509 114.732 156.491 109.408 156.491C104.084 156.491 102.678 160.509 102.678 162.635V175.631H116.141V162.635H116.139Z" fill="black"/>
<path d="M166.856 153.173L155.896 150.99V160.612L166.856 161.921V153.173Z" fill="black"/>
<path d="M125.392 180.731H115.082V193.886H125.392V180.731Z" fill="black"/>
<path d="M99.3407 0L0 159.422L99.3407 215.958L198.681 159.422L99.3407 0ZM182.365 147.098L179.393 146.22L114.795 99.2888L116.002 97.5989L180.888 144.741L182.365 147.098ZM99.3407 108.443L86.3311 90.3598L99.3407 97.4637L112.35 90.3598L99.3407 108.443ZM100.379 115.343V146.851H98.3024V115.343C98.6447 115.389 98.9903 115.415 99.3434 115.415C99.696 115.415 100.039 115.389 100.379 115.343ZM82.6815 97.5962L83.8885 99.2861L68.3795 110.554L67.4402 108.669L82.6815 97.5962ZM62.9676 99.6857L62.031 97.8066L78.913 92.3217L80.0837 93.9596L80.1329 94.1078L62.9676 99.6857ZM86.4063 102.811L87.6781 104.591L75.7073 121.068L74.9881 118.527L86.4063 102.811ZM90.9643 109.193L92.4649 111.296L83.7382 138.15L81.5448 138.182L90.9643 109.193ZM85.2983 86.8659L99.3407 65.2518L113.383 86.8659L99.3407 94.5361L85.2983 86.8659ZM107.717 109.196L116.106 135.018H113.923L106.216 111.299L107.717 109.196ZM111.003 104.597L112.275 102.816L136.191 135.734L133.416 135.448L111.003 104.597ZM156.977 106.598L118.504 94.0975L119.771 92.3244L155.258 103.854L156.977 106.596V106.598ZM145.206 87.8182H121.484C121.518 87.1228 121.456 86.4247 121.297 85.7417H143.903L145.206 87.8182ZM137.473 75.4813L119.081 81.4567L117.915 79.6528L136.336 73.6671L137.473 75.4813ZM130.961 65.0912L115.683 76.1897L114.556 74.4431L129.857 63.3262L130.963 65.0912H130.961ZM124.21 54.3193L112.22 70.8222L111.013 68.9506L123.021 52.4217L124.21 54.3193ZM114.061 38.1273L115.499 40.4218L107.831 64.0189L106.378 61.7688L114.058 38.1273H114.061ZM98.3073 16.337L99.3456 14.6498L100.384 16.3058V57.387C100.042 57.3405 99.696 57.3145 99.3456 57.3145C98.9952 57.3145 98.6502 57.3405 98.3073 57.387V16.3344V16.337ZM84.7191 38.4053L92.3092 61.7661L90.8578 64.0162L83.2893 40.7257L84.7191 38.4053ZM75.8966 52.7359L87.676 68.9479L86.469 70.8195L74.7183 54.6459L75.8966 52.7332V52.7359ZM69.2079 63.5987L84.1329 74.4404L83.006 76.1876L68.1178 65.3713L69.2101 63.5987H69.2079ZM62.9005 73.8434L80.7716 79.6501L79.6057 81.454L61.779 75.6603L62.9005 73.8407V73.8434ZM55.5754 85.7395H77.3891C77.2307 86.422 77.1685 87.1201 77.2025 87.8161H54.2981L55.5781 85.7395H55.5754ZM32.2589 113.718C36.4325 110.416 46.1272 103.195 53.5454 101.152C58.6848 109.583 61.1533 116.075 62.1191 118.99C51.5002 120.809 34.7426 126.426 17.7542 136.995L32.2562 113.718H32.2589ZM4.48528 158.288L13.7206 143.469C33.1285 130.052 53.0522 123.462 64.307 121.881L67.7414 121.281C68.1513 121.209 68.572 121.365 68.8364 121.687C69.0236 121.915 69.1144 122.206 69.0911 122.501L68.6315 128.139C68.3536 131.537 68.7456 134.901 69.7968 138.133L72.3876 146.125L81.3085 145.478C82.5674 145.385 83.7668 145.989 84.439 147.056C84.9295 147.835 85.1863 148.733 85.1863 149.655V153.483C72.6082 153.241 37.7487 156.806 17.4687 165.683L4.48009 158.288H4.48528ZM57.958 188.729L50.5685 184.522L61.4859 183.447L61.4026 170.124C61.4286 169.698 61.5221 167.284 60.0269 165.659C59.139 164.691 57.9088 164.2 56.3698 164.2C54.1116 164.2 52.3103 164.875 51.0173 166.207C49.0241 168.257 49.0111 171.134 49.0187 171.505L48.7953 183.517L42.5712 179.977L42.7475 172.042C42.7994 171.595 42.9476 169.483 41.6757 168.045C41.1723 167.476 40.2378 166.799 38.6464 166.799H38.6204C34.0185 166.916 32.8013 171.232 32.8013 173.498V174.412L20.9884 167.686C32.0821 163.256 46.1586 160.58 56.4087 159.079C68.4552 157.317 79.5046 156.577 85.1917 156.686V160.634L90.2532 178.899L95.6598 179.367C99.8517 179.728 103.307 182.853 104.059 186.962L104.176 187.608C97.0668 187.489 72.4395 187.198 57.9634 188.729V188.735L57.958 188.729ZM99.338 212.275L97.739 211.363L97.6741 202.938C97.7341 202.367 97.9726 199.112 95.9534 196.828C94.6734 195.382 92.8072 194.65 90.4014 194.65C87.995 194.65 86.1235 195.382 84.831 196.828C82.7805 199.122 82.9984 202.398 83.0503 202.938V203.005L62.8405 191.504C77.8201 190.406 99.2785 190.71 104.755 190.811L107.803 207.451H107.805L99.3353 212.275H99.338ZM107.216 186.383C106.203 180.859 101.565 176.662 95.9301 176.177L92.7553 175.901L88.4028 160.198V154.827L122.216 153.6L124.505 168.899L137.001 190.832L110.762 205.764L107.213 186.383H107.216ZM151.578 167.764C145.694 167.764 144.139 172.839 144.139 175.525V186.78L139.799 189.248L127.605 167.847L124.978 150.306L119.527 150.503V143.111C128.183 143.173 170.082 144.263 192.69 159.142L159.012 178.308V175.523H159.015C159.015 172.841 157.46 167.764 151.575 167.764H151.578Z" fill="black"/>
<path d="M79.7275 163.15C78.4686 162.002 76.8333 161.507 74.866 161.676C69.5033 162.13 67.9665 167.017 67.9043 169.541V182.853L82.1571 182.155V169.265C82.1571 169.107 82.1311 165.338 79.7275 163.15Z" fill="black"/>
<path d="M250.512 160.46V53.9893H274.194V160.46H250.512ZM268.613 160.46V139.95H326.99V160.46H268.613ZM268.613 115.971V96.2156H321.71V115.971H268.613ZM268.613 74.3484V53.9893H326.235V74.3484H268.613Z" fill="black"/>
<path d="M366.171 160.46V55.4973H389.853V160.46H366.171ZM332.834 74.65V53.9893H423.19V74.65H332.834Z" fill="black"/>
<path d="M436.416 160.46V53.9893H460.098V160.46H436.416ZM502.335 160.46V53.9893H526.168V160.46H502.335ZM450.595 115.971V95.4615H510.178V115.971H450.595Z" fill="black"/>
<path d="M557.464 114.464V103.907H586.728C593.165 103.907 598.092 102.248 601.511 98.9307C605.031 95.6128 606.79 91.1892 606.79 85.6595C606.79 80.3309 605.081 75.9576 601.662 72.5392C598.243 69.0204 593.315 67.261 586.879 67.261H557.464V56.252H587.029C593.667 56.252 599.399 57.5087 604.226 60.0222C609.154 62.5356 612.924 66.0042 615.539 70.4279C618.255 74.7511 619.612 79.7277 619.612 85.3579C619.612 91.1892 618.255 96.3167 615.539 100.74C612.924 105.063 609.154 108.432 604.226 110.845C599.399 113.257 593.667 114.464 587.029 114.464H557.464ZM549.168 160.46V56.252H561.839V160.46H549.168ZM610.713 160.46L572.248 112.956L584.315 109.035L626.702 160.46H610.713Z" fill="black"/>
<path d="M669.775 161.968C662.836 161.968 656.552 160.31 650.92 156.992C645.389 153.674 640.964 149.2 637.646 143.57C634.427 137.94 632.818 131.606 632.818 124.568C632.818 117.631 634.427 111.397 637.646 105.868C640.964 100.338 645.389 95.9144 650.92 92.5968C656.552 89.279 662.836 87.6201 669.775 87.6201C676.715 87.6201 682.999 89.279 688.631 92.5968C694.263 95.8139 698.687 100.238 701.905 105.868C705.224 111.397 706.883 117.631 706.883 124.568C706.883 131.606 705.224 137.94 701.905 143.57C698.687 149.2 694.263 153.674 688.631 156.992C682.999 160.31 676.715 161.968 669.775 161.968ZM669.775 150.356C674.602 150.356 678.876 149.25 682.598 147.038C686.318 144.827 689.235 141.76 691.346 137.839C693.458 133.918 694.514 129.495 694.514 124.568C694.514 119.742 693.408 115.419 691.195 111.599C689.084 107.778 686.167 104.812 682.447 102.701C678.826 100.489 674.602 99.3831 669.775 99.3831C665.15 99.3831 660.926 100.489 657.104 102.701C653.384 104.812 650.467 107.778 648.356 111.599C646.243 115.419 645.188 119.742 645.188 124.568C645.188 129.495 646.243 133.918 648.356 137.839C650.467 141.76 653.384 144.827 657.104 147.038C660.926 149.25 665.15 150.356 669.775 150.356Z" fill="black"/>
<path d="M722.932 160.46V89.1281H735.149V160.46H722.932ZM771.654 160.46V117.028C771.654 111.498 769.944 107.125 766.525 103.907C763.106 100.59 758.833 98.9307 753.704 98.9307C750.183 98.9307 747.017 99.6847 744.2 101.193C741.485 102.701 739.272 104.812 737.563 107.527C735.954 110.141 735.149 113.308 735.149 117.028L729.87 114.615C729.87 109.186 731.026 104.46 733.339 100.439C735.753 96.4173 739.021 93.3005 743.144 91.0887C747.268 88.7763 751.893 87.6201 757.023 87.6201C762.051 87.6201 766.575 88.726 770.598 90.9378C774.621 93.1498 777.788 96.2664 780.101 100.288C782.515 104.309 783.721 109.135 783.721 114.766V160.46H771.654ZM820.225 160.46V117.028C820.225 111.498 818.516 107.125 815.097 103.907C811.678 100.59 807.404 98.9307 802.276 98.9307C798.857 98.9307 795.739 99.6847 792.924 101.193C790.107 102.701 787.844 104.812 786.134 107.527C784.525 110.141 783.721 113.308 783.721 117.028L776.632 114.615C776.933 109.186 778.391 104.46 781.006 100.439C783.62 96.4173 787.039 93.3005 791.264 91.0887C795.488 88.7763 800.113 87.6201 805.141 87.6201C810.27 87.6201 814.846 88.726 818.869 90.9378C822.992 93.1498 826.259 96.3167 828.672 100.439C831.086 104.46 832.294 109.236 832.294 114.766V160.46H820.225Z" fill="black"/>
<path d="M884.418 161.968C877.277 161.968 870.842 160.36 865.11 157.143C859.478 153.925 855.003 149.502 851.685 143.871C848.467 138.241 846.857 131.857 846.857 124.719C846.857 117.681 848.467 111.397 851.685 105.868C854.903 100.238 859.277 95.8139 864.809 92.5968C870.339 89.279 876.574 87.6201 883.513 87.6201C890.05 87.6201 895.832 89.1281 900.86 92.1443C905.888 95.1605 909.809 99.2826 912.626 104.511C915.541 109.739 917 115.721 917 122.457C917 123.362 916.95 124.367 916.849 125.473C916.749 126.579 916.548 127.836 916.246 129.243H855.305V119.139H909.759L905.385 122.909C905.385 117.983 904.48 113.76 902.67 110.241C900.961 106.622 898.447 103.807 895.128 101.796C891.809 99.7853 887.837 98.7798 883.212 98.7798C878.284 98.7798 873.96 99.8858 870.238 102.098C866.619 104.209 863.802 107.175 861.791 110.995C859.781 114.715 858.774 119.189 858.774 124.417C858.774 129.645 859.831 134.22 861.942 138.141C864.054 142.062 867.07 145.128 870.993 147.34C874.915 149.552 879.44 150.658 884.568 150.658C888.691 150.658 892.463 149.904 895.882 148.396C899.402 146.888 902.419 144.676 904.933 141.76L912.626 149.602C909.307 153.624 905.184 156.69 900.256 158.801C895.329 160.913 890.05 161.968 884.418 161.968Z" fill="black"/>
</svg>
