<svg width="1000" height="187" viewBox="0 0 1000 187" fill="none" xmlns="http://www.w3.org/2000/svg">
<path d="M1000 111.177V87.4965H988.16V75.6562H929.059V87.4965H917.219V122.917H929.059V134.757H988.16V122.917H940.899V111.077H1000V111.177ZM941 87.4965H976.42V99.3367H941V87.4965Z" fill="black"/>
<path d="M541.04 75.6562H482.039V87.4965H470.199V122.917H482.039V134.757H541.14V122.917H493.88V111.077H552.981V87.3961H541.14V75.6562H541.04ZM529.3 99.3367H493.88V87.4965H529.3V99.3367Z" fill="black"/>
<path d="M434.779 52.0762H399.258V63.9164H411.098V122.917H387.418V134.757H458.359V122.917H434.779V52.0762Z" fill="black"/>
<path d="M351.897 75.6562H316.477V87.4965H328.217V122.917H304.637V134.757H375.477V122.917H351.897V75.6562Z" fill="black"/>
<path d="M351.897 52.0762H328.217V63.9164H351.897V52.0762Z" fill="black"/>
<path d="M717.34 75.6562H658.239V87.4965H646.398V122.917H658.239V134.757H717.34V122.917H670.079V111.077H729.18V87.3961H717.34V75.6562ZM705.499 99.3367H670.079V87.4965H705.499V99.3367Z" fill="black"/>
<path d="M764.299 75.6562H740.719V134.757H764.299V99.3367H776.139V87.4965H764.299V75.6562Z" fill="black"/>
<path d="M611.278 111.177H587.598V75.6562H564.018V111.177H575.858V122.917H587.598V134.757H611.278V122.917H623.118V111.177H634.858V75.6562H611.278V111.177Z" fill="black"/>
<path d="M893.738 99.3367H846.477V87.4965H893.738V75.6562H834.637V87.4965H822.797V99.3367H834.637V111.177H881.898V122.917H822.797V134.757H893.738V122.917H905.478V111.177H893.738V99.3367Z" fill="black"/>
<path d="M811.557 75.6562H776.137V87.4965H811.557V75.6562Z" fill="black"/>
<path d="M246.337 87.4966V63.9164H305.238H305.438V52.0762H305.238H222.757H222.557V134.757H222.757H246.137H246.337V99.3368H293.397H293.598V87.4966H293.397H246.337Z" fill="black"/>
<path d="M163.757 2.00684H78.4668V108.368H163.757V2.00684Z" fill="#FFDF0A"/>
<path d="M165.762 110.375H76.459V0H165.762V110.375ZM80.4726 106.361H161.749V4.01364H80.4726V106.361Z" fill="black"/>
<path d="M148.505 17.3584H63.2148V123.72H148.505V17.3584Z" fill="#FFDF0A"/>
<path d="M150.512 125.727H61.209V15.3516H150.512V125.727ZM65.2226 121.713H146.499V19.3652H65.2226V121.713Z" fill="black"/>
<path d="M133.151 32.6104H47.8613V138.972H133.151V32.6104Z" fill="#FFDF0A"/>
<path d="M135.159 140.98H45.8555V30.6045H135.159V140.98ZM49.8691 136.966H131.145V34.6181H49.8691V136.966Z" fill="black"/>
<path d="M117.901 47.9629H32.6113V154.324H117.901V47.9629Z" fill="#FFDF0A"/>
<path d="M119.907 156.331H30.6035V45.9561H119.907V156.331ZM34.6172 152.318H115.893V49.9697H34.6172V152.318Z" fill="black"/>
<path d="M102.548 63.2148H17.2578V169.576H102.548V63.2148Z" fill="#FFDF0A"/>
<path d="M104.555 171.583H15.252V61.208H104.555V171.583ZM19.2656 167.569H100.542V65.2216H19.2656V167.569Z" fill="black"/>
<path d="M87.2957 78.4668H2.00586V184.828H87.2957V78.4668Z" fill="#FFDF0A"/>
<path d="M89.3035 186.835H0V76.46H89.3035V186.835ZM4.01364 182.821H85.2899V80.4736H4.01364V182.821Z" fill="black"/>
<path d="M26.9914 119.908C30.0393 119.908 32.5102 117.437 32.5102 114.389C32.5102 111.341 30.0393 108.87 26.9914 108.87C23.9435 108.87 21.4727 111.341 21.4727 114.389C21.4727 117.437 23.9435 119.908 26.9914 119.908Z" fill="black"/>
<path d="M51.675 119.908C54.7229 119.908 57.1938 117.437 57.1938 114.389C57.1938 111.341 54.7229 108.87 51.675 108.87C48.6271 108.87 46.1562 111.341 46.1562 114.389C46.1562 117.437 48.6271 119.908 51.675 119.908Z" fill="black"/>
<path d="M61.2082 131.547C61.2082 136.062 59.3017 140.377 55.8901 143.487C52.4785 146.698 47.8629 148.404 43.0465 148.404C38.2301 148.404 33.6144 146.598 30.2028 143.487C26.7912 140.277 24.8848 135.962 24.8848 131.547H43.0465H61.2082Z" fill="black"/>
</svg>
