<svg width="761" height="400" viewBox="0 0 761 400" fill="none" xmlns="http://www.w3.org/2000/svg">
<path d="M0 115.402V0H78.8056V22.6974H27.8122V51.5866H73.7621V73.7344H27.8122V115.402H0Z" fill="black"/>
<path d="M159.751 0H187.572V74.3527C187.572 82.9748 185.527 90.4719 181.455 96.8526C177.373 103.233 171.66 108.171 164.331 111.684C156.993 115.196 148.47 116.948 138.761 116.948C129.052 116.948 120.46 115.196 113.148 111.684C105.837 108.171 100.14 103.233 96.0589 96.8526C91.9777 90.4719 89.9414 82.9748 89.9414 74.3527V0H117.762V72.034C117.762 76.0617 118.656 79.6256 120.434 82.7257C122.213 85.8259 124.679 88.2477 127.832 90.0082C130.985 91.7601 134.628 92.6446 138.761 92.6446C142.894 92.6446 146.537 91.7686 149.69 90.0082C152.843 88.2563 155.309 85.8259 157.088 82.7257C158.866 79.6256 159.76 76.0617 159.76 72.034V0H159.751Z" fill="black"/>
<path d="M198.448 22.6974V0H295.933V22.6974H260.903V115.411H233.469V22.6974H198.439H198.448Z" fill="black"/>
<path d="M376.638 0H404.459V74.3527C404.459 82.9748 402.414 90.4719 398.341 96.8526C394.26 103.233 388.555 108.171 381.217 111.684C373.88 115.196 365.357 116.948 355.648 116.948C345.939 116.948 337.347 115.196 330.035 111.684C322.723 108.171 317.027 103.233 312.946 96.8526C308.864 90.4719 306.828 82.9748 306.828 74.3527V0H334.649V72.034C334.649 76.0617 335.543 79.6256 337.321 82.7257C339.1 85.8259 341.565 88.2477 344.719 90.0082C347.872 91.7601 351.515 92.6446 355.648 92.6446C359.78 92.6446 363.423 91.7686 366.577 90.0082C369.73 88.2563 372.196 85.8259 373.974 82.7257C375.753 79.6256 376.647 76.0617 376.647 72.034V0H376.638Z" fill="black"/>
<path d="M419.064 115.402V0H466.647C475.325 0 482.817 1.56297 489.123 4.68891C495.421 7.81485 500.293 12.2547 503.73 18.0085C507.167 23.7709 508.885 30.5724 508.885 38.4216C508.885 46.2708 507.141 53.2183 503.652 58.7917C500.164 64.3651 495.189 68.6161 488.737 71.5359C482.276 74.4558 474.663 75.9157 465.874 75.9157H435.733V53.9225H460.684C464.868 53.9225 468.391 53.3814 471.261 52.2994C474.13 51.2173 476.296 49.5255 477.773 47.224C479.243 44.9311 479.982 41.9941 479.982 38.4302C479.982 34.8662 479.243 31.9121 477.773 29.559C476.304 27.206 474.13 25.4541 471.261 24.2947C468.391 23.1354 464.843 22.5514 460.607 22.5514H446.894V115.419H419.073L419.064 115.402ZM482.301 115.402L454.171 62.6562H484.003L512.829 115.402H482.293H482.301Z" fill="black"/>
<path d="M518.139 115.402V0H598.654V22.6974H545.959V46.0131H594.47V68.1609H545.959V92.7133H598.577V115.411H518.139V115.402Z" fill="black"/>
<path d="M56.6465 259.246C46.2073 259.246 36.8764 256.954 28.6367 252.35C20.397 247.756 13.8843 241.058 9.10712 232.247C4.32998 223.444 1.94141 212.718 1.94141 200.068C1.94141 187.419 4.35575 176.589 9.18444 167.735C14.0131 158.881 20.5774 152.166 28.8687 147.597C37.1599 143.028 46.4221 140.744 56.6465 140.744C63.6232 140.744 70.0758 141.715 76.0214 143.647C81.9585 145.579 87.191 148.413 91.7104 152.131C96.2298 155.85 99.8899 160.393 102.674 165.76C105.466 171.128 107.219 177.276 107.941 184.198H79.7332C79.3723 181.304 78.6076 178.685 77.4477 176.34C76.2878 173.987 74.7326 171.995 72.7994 170.338C70.8662 168.689 68.598 167.409 66.0204 166.507C63.4342 165.606 60.5473 165.151 57.3425 165.151C51.7663 165.151 46.9548 166.533 42.9251 169.298C38.8955 172.064 35.7938 176.04 33.6286 181.227C31.4548 186.414 30.3723 192.7 30.3723 200.085C30.3723 207.471 31.472 214.066 33.663 219.253C35.8539 224.44 38.9556 228.339 42.9595 230.95C46.9634 233.56 51.7319 234.857 57.2566 234.857C60.3067 234.857 63.0905 234.462 65.6251 233.655C68.1598 232.856 70.3937 231.697 72.3269 230.168C74.2601 228.648 75.8668 226.785 77.1298 224.595C78.3928 222.405 79.2606 219.906 79.7246 217.124H107.932C107.417 222.233 105.947 227.3 103.516 232.307C101.084 237.313 97.7162 241.848 93.403 245.901C89.0898 249.954 83.8573 253.192 77.714 255.622C71.5622 258.053 64.5425 259.264 56.6379 259.264L56.6465 259.246Z" fill="black"/>
<path d="M121 257.701V142.299H168.582C177.26 142.299 184.752 143.862 191.05 146.988C197.357 150.114 202.22 154.554 205.657 160.307C209.094 166.07 210.812 172.871 210.812 180.72C210.812 188.57 209.068 195.517 205.579 201.091C202.091 206.664 197.116 210.915 190.664 213.835C184.203 216.755 176.581 218.215 167.8 218.215H137.66V196.221H162.611C166.795 196.221 170.318 195.68 173.188 194.598C176.057 193.516 178.223 191.824 179.7 189.523C181.17 187.23 181.909 184.293 181.909 180.729C181.909 177.165 181.17 174.211 179.7 171.858C178.231 169.505 176.057 167.753 173.188 166.594C170.318 165.434 166.769 164.85 162.534 164.85H148.821V257.718H121V257.701ZM184.228 257.701L156.098 204.955H185.93L214.756 257.701H184.22H184.228Z" fill="black"/>
<path d="M220.074 257.701V142.299H300.59V164.996H247.895V188.312H296.405V210.46H247.895V235.012H300.512V257.71H220.074V257.701Z" fill="black"/>
<path d="M339.994 257.701H310.008L349.067 142.299H386.107L425.089 257.701H395.18L368.055 171.343H367.127L340.002 257.701H339.994ZM336.119 212.237H398.806V233.458H336.119V212.237Z" fill="black"/>
<path d="M416.512 164.987V142.29H513.997V164.987H478.968V257.701H451.533V164.987H416.504H416.512Z" fill="black"/>
<path d="M552.696 142.299V257.701H524.875V142.299H552.696Z" fill="black"/>
<path d="M593.577 142.299L619.224 226.802H620.306L646.108 142.299H677.263L638.281 257.701H601.241L562.182 142.299H593.568H593.577Z" fill="black"/>
<path d="M680.484 257.701V142.299H761V164.996H708.305V188.312H756.816V210.46H708.305V235.012H760.922V257.71H680.484V257.701Z" fill="black"/>
<path d="M3.16992 400V284.598H30.9907V377.311H79.1144V400.008H3.16992V400Z" fill="black"/>
<path d="M117.048 400H87.0625L126.122 284.598H163.162L202.143 400H172.235L145.11 313.641H144.182L117.057 400H117.048ZM113.174 354.528H175.861V375.748H113.174V354.528Z" fill="black"/>
<path d="M211.698 400V284.598H259.822C268.448 284.598 275.682 285.826 281.516 288.273C287.35 290.729 291.749 294.147 294.688 298.536C297.635 302.924 299.104 308.008 299.104 313.796C299.104 318.184 298.185 322.1 296.355 325.527C294.525 328.962 291.99 331.813 288.759 334.089C285.529 336.365 281.8 337.936 277.564 338.812V340.049C282.212 340.203 286.517 341.431 290.469 343.724C294.422 346.026 297.601 349.212 299.998 353.291C302.404 357.37 303.598 362.171 303.598 367.701C303.598 373.893 302.034 379.432 298.907 384.319C295.779 389.196 291.234 393.035 285.271 395.818C279.308 398.609 272.057 400 263.533 400H211.689H211.698ZM239.519 332.071H255.019C258.069 332.071 260.767 331.555 263.121 330.525C265.475 329.494 267.314 328.034 268.663 326.145C270.003 324.264 270.682 321.954 270.682 319.215C270.682 315.393 269.316 312.362 266.575 310.112C263.834 307.862 260.14 306.745 255.491 306.745H239.527V332.071H239.519ZM239.519 377.534H256.875C262.863 377.534 267.305 376.375 270.201 374.048C273.096 371.72 274.54 368.551 274.54 364.524C274.54 361.527 273.844 358.95 272.443 356.778C271.043 354.605 269.075 352.93 266.515 351.745C263.954 350.56 260.921 349.968 257.407 349.968H239.51V377.543L239.519 377.534Z" fill="black"/>
</svg>
