<svg width="917" height="285" viewBox="0 0 917 285" fill="none" xmlns="http://www.w3.org/2000/svg">
<path d="M2.89453 142.392L84.798 98.4844L84.393 198.165L2.89453 142.392Z" fill="#9ECC51"/>
<path d="M165.885 142.392L83.9883 98.4844L84.3933 198.165L165.885 142.392Z" fill="#CA75AA"/>
<path d="M22.2216 110.211V100.737H19.7598V96.7564H24.1644V79.6568H22.5127V76.0559H25.8098V61.0256C25.8098 58.412 27.9299 56.2919 30.5435 56.2919V47.3687L32.9927 39.3252L35.4798 47.3687V56.4185H35.6063C38.22 56.4185 40.34 58.5385 40.34 61.1522V75.7394H43.4663V100.75" fill="#EEDA55"/>
<path d="M84.1465 98.5413L84.2604 0.0507812L165.885 142.392L84.1465 98.5413Z" fill="#E38B84"/>
<path d="M3.05859 142.341L84.7975 98.4842L84.6836 0" fill="#EEDA55"/>
<path d="M84.1074 215.865L84.2213 284.036L168.7 160.561L84.1074 215.865Z" fill="#548DCA"/>
<path d="M0.767578 161.573L84.7594 215.91L84.6835 284.036" fill="#70C9F2"/>
<path d="M44.8648 198.823H37.7579C37.6313 198.823 37.5111 198.747 37.4605 198.633C37.4035 198.519 37.4225 198.38 37.5048 198.279L44.5357 189.799V180.274C44.5357 180.091 44.6813 179.945 44.8648 179.945C45.0483 179.945 45.1939 180.091 45.1939 180.274V189.919C45.1939 189.995 45.1686 190.071 45.118 190.128L38.4604 198.159H44.8648C45.0483 198.159 45.1939 198.304 45.1939 198.488C45.1939 198.678 45.0483 198.823 44.8648 198.823Z" fill="black"/>
<path d="M41.9984 221.169C42.1124 221.334 42.2199 221.498 42.3339 221.663L45.0488 219.853C45.2007 219.751 45.245 219.543 45.1437 219.391C45.0424 219.239 44.8399 219.194 44.6817 219.296L41.9668 221.106C41.9731 221.137 41.9858 221.156 41.9984 221.169Z" fill="black"/>
<path d="M38.6075 216.31H44.8664C45.0499 216.31 45.1955 216.164 45.1955 215.98C45.1955 215.797 45.0499 215.651 44.8664 215.651H38.1582C38.3038 215.867 38.4556 216.088 38.6075 216.31Z" fill="black"/>
<path d="M36.5758 213.315H44.8661C45.0497 213.315 45.1952 213.17 45.1952 212.986C45.1952 212.803 45.0497 212.657 44.8661 212.657H36.1328C36.2784 212.879 36.4239 213.1 36.5758 213.315Z" fill="black"/>
<path d="M33.0692 208.068C35.1069 205.651 37.7396 203.885 40.5558 203.094C42.1379 202.645 43.5808 202.468 44.8402 202.55C45.0237 202.563 45.1819 202.423 45.1946 202.24C45.2072 202.056 45.068 201.898 44.8845 201.885C43.5555 201.797 42.0367 201.987 40.3786 202.455C37.4865 203.265 34.7905 205.056 32.6895 207.499C32.816 207.689 32.9426 207.878 33.0692 208.068Z" fill="black"/>
<path d="M37.7588 204.082C37.5752 204.082 37.4297 203.937 37.4297 203.753V198.494C37.4297 198.311 37.5752 198.165 37.7588 198.165C37.9423 198.165 38.0878 198.311 38.0878 198.494V203.753C38.0878 203.937 37.9423 204.082 37.7588 204.082Z" fill="black"/>
<path d="M34.5832 210.348H44.867C45.0505 210.348 45.196 210.202 45.196 210.019C45.196 209.835 45.0505 209.689 44.867 209.689H34.1465C34.292 209.905 34.4376 210.126 34.5832 210.348Z" fill="black"/>
<path d="M51.9653 198.823H44.8647C44.6812 198.823 44.5356 198.677 44.5356 198.494C44.5356 198.31 44.6812 198.165 44.8647 198.165H51.2628L44.6052 190.134C44.5546 190.077 44.5293 190.001 44.5293 189.925V180.28C44.5293 180.097 44.6749 179.951 44.8584 179.951C45.0419 179.951 45.1875 180.097 45.1875 180.28V189.805L52.2184 198.285C52.3007 198.386 52.3197 198.519 52.2627 198.639C52.2121 198.753 52.0982 198.823 51.9653 198.823Z" fill="black"/>
<path d="M63.9449 253.729H65.7865V256.001H65.6409C65.7991 256.216 65.9573 256.438 66.1092 256.665H66.1156C66.2991 256.665 66.4446 256.52 66.4446 256.336V253.406C66.4446 253.223 66.2991 253.077 66.1156 253.077H63.4766C63.6348 253.286 63.793 253.507 63.9449 253.729Z" fill="black"/>
<path d="M61.921 250.755H62.402V251.483C62.6235 251.812 62.8387 252.141 63.0665 252.47V250.426C63.0665 250.242 62.9209 250.097 62.7374 250.097H61.4844C61.6299 250.318 61.7755 250.54 61.921 250.755Z" fill="black"/>
<path d="M65.1784 232.732L45.0475 219.309C44.8956 219.208 44.6931 219.246 44.5855 219.404C44.4842 219.556 44.5222 219.765 44.6804 219.866L63.9001 232.681H49.6926C49.8761 232.903 50.0596 233.124 50.2432 233.346H64.9949C65.1404 233.346 65.267 233.251 65.3113 233.112C65.3493 232.96 65.2987 232.808 65.1784 232.732Z" fill="black"/>
<path d="M66.516 224.201C66.3325 224.201 66.1869 224.056 66.1869 223.872V216.31H44.8662C44.6827 216.31 44.5371 216.164 44.5371 215.98C44.5371 215.797 44.6827 215.651 44.8662 215.651H66.516C66.6995 215.651 66.8451 215.797 66.8451 215.98V223.872C66.8451 224.056 66.6995 224.201 66.516 224.201Z" fill="black"/>
<path d="M63.9213 216.309C63.7378 216.309 63.5922 216.164 63.5922 215.98V213.322H44.8662C44.6827 213.322 44.5371 213.177 44.5371 212.993C44.5371 212.81 44.6827 212.664 44.8662 212.664H63.9276C64.1112 212.664 64.2567 212.81 64.2567 212.993V215.98C64.2567 216.157 64.1048 216.309 63.9213 216.309Z" fill="black"/>
<path d="M63.1047 213.365C61.9719 213.365 60.9467 213.093 60.1177 212.568C59.3076 212.055 58.833 211.258 58.3647 210.486L58.1432 210.125C56.0041 206.663 52.7323 204.1 49.163 203.094C47.5809 202.645 46.138 202.461 44.8786 202.55C44.7014 202.563 44.5369 202.423 44.5242 202.24C44.5116 202.056 44.6508 201.898 44.8343 201.885C46.1633 201.797 47.6822 201.987 49.3402 202.455C53.0677 203.505 56.4788 206.17 58.7064 209.777L58.9279 210.144C59.3519 210.847 59.7886 211.581 60.4657 212.005C61.6049 212.726 62.9528 212.758 63.8768 212.657C64.0603 212.638 64.2249 212.764 64.2438 212.948C64.2628 213.131 64.1363 213.296 63.9527 213.315C63.668 213.346 63.3832 213.365 63.1047 213.365Z" fill="black"/>
<path d="M51.9658 204.082C51.7823 204.082 51.6367 203.937 51.6367 203.753V198.494C51.6367 198.311 51.7823 198.165 51.9658 198.165C52.1493 198.165 52.2949 198.311 52.2949 198.494V203.753C52.3012 203.937 52.1493 204.082 51.9658 204.082Z" fill="black"/>
<path d="M62.7373 251.097C62.5538 251.097 62.4082 250.952 62.4082 250.768V233.004C62.4082 232.82 62.5538 232.675 62.7373 232.675C62.9208 232.675 63.0664 232.82 63.0664 233.004V250.768C63.0664 250.952 62.9208 251.097 62.7373 251.097Z" fill="black"/>
<path d="M60.2109 248.205V233.004C60.2109 232.82 60.0653 232.675 59.8818 232.675C59.6983 232.675 59.5527 232.82 59.5527 233.004V247.256C59.7742 247.572 59.9957 247.882 60.2109 248.205Z" fill="black"/>
<path d="M52.1746 236.871C52.2126 236.953 52.2569 237.035 52.2949 237.117V233.004C52.2949 232.82 52.1493 232.675 51.9658 232.675C51.7823 232.675 51.6367 232.82 51.6367 233.004V235.13C52.0481 235.731 52.2063 236.32 52.1746 236.871Z" fill="black"/>
<path d="M80.332 232.599C80.1485 232.599 80.0029 232.453 80.0029 232.27V228.124L71.5417 220.043L63.0742 228.498V231.067C63.0742 231.251 62.9286 231.396 62.7451 231.396C62.5616 231.396 62.416 231.251 62.416 231.067V228.359C62.416 228.27 62.454 228.188 62.5109 228.124L71.3076 219.347C71.4341 219.22 71.643 219.22 71.7695 219.34L80.5662 227.745C80.6294 227.808 80.6674 227.897 80.6674 227.985V232.27C80.6611 232.453 80.5155 232.599 80.332 232.599Z" fill="black"/>
<path d="M62.7378 228.694C62.6175 228.694 62.5036 228.624 62.4466 228.517C62.3897 228.409 62.396 228.27 62.4656 228.168C62.6049 227.972 65.8577 223.441 70.9332 223.08C74.1987 222.846 77.4452 224.422 80.5715 227.757C80.6601 227.852 80.6854 227.991 80.6348 228.112C80.5841 228.232 80.4702 228.314 80.3373 228.314L62.7441 228.687C62.7441 228.694 62.7378 228.694 62.7378 228.694ZM71.5534 223.726C71.3635 223.726 71.1737 223.732 70.9775 223.745C67.2183 224.011 64.4528 226.814 63.4339 228.017L79.5589 227.675C76.9326 225.049 74.243 223.726 71.5534 223.726Z" fill="black"/>
<path d="M84.8174 237.801H62.7373C62.5538 237.801 62.4082 237.946 62.4082 238.13C62.4082 238.313 62.5538 238.459 62.7373 238.459H84.8111V237.801H84.8174Z" fill="black"/>
<path d="M84.8174 242.091H62.7373C62.5538 242.091 62.4082 242.236 62.4082 242.42C62.4082 242.603 62.5538 242.749 62.7373 242.749H84.8111V242.091H84.8174Z" fill="black"/>
<path d="M83.9949 238.465C83.8114 238.465 83.6658 238.319 83.6658 238.136V233.06H64.5791C64.3956 233.06 64.25 232.915 64.25 232.731C64.25 232.548 64.3956 232.402 64.5791 232.402H83.9949C84.1784 232.402 84.324 232.548 84.324 232.731V238.142C84.324 238.319 84.1784 238.465 83.9949 238.465Z" fill="black"/>
<path d="M71.5322 219.916C71.3487 219.916 71.2031 219.771 71.2031 219.587V213.328C71.2031 213.145 71.3487 212.999 71.5322 212.999C71.7157 212.999 71.8613 213.145 71.8613 213.328V219.587C71.8613 219.764 71.7157 219.916 71.5322 219.916Z" fill="black"/>
<path d="M82.1341 256.659H79.6533C79.4698 256.659 79.3242 256.513 79.3242 256.33V242.42C79.3242 242.236 79.4698 242.091 79.6533 242.091H82.1341C82.3176 242.091 82.4632 242.236 82.4632 242.42V256.33C82.4632 256.513 82.3176 256.659 82.1341 256.659ZM79.9824 255.995H81.7987V242.749H79.9824V255.995Z" fill="black"/>
<path d="M75.4251 256.659H72.9443C72.7608 256.659 72.6152 256.513 72.6152 256.33V242.42C72.6152 242.236 72.7608 242.091 72.9443 242.091H75.4251C75.6086 242.091 75.7542 242.236 75.7542 242.42V256.33C75.7542 256.513 75.6086 256.659 75.4251 256.659ZM73.2734 255.995H75.0897V242.749H73.2734V255.995Z" fill="black"/>
<path d="M68.7181 242.091H66.2373C66.0538 242.091 65.9082 242.236 65.9082 242.42V256.33C65.9082 256.336 65.9145 256.349 65.9145 256.355C65.9778 256.444 66.0348 256.532 66.0917 256.621C66.136 256.646 66.1867 256.659 66.2373 256.659H68.7181C68.9016 256.659 69.0471 256.513 69.0471 256.33V242.42C69.0471 242.236 68.8953 242.091 68.7181 242.091ZM68.3826 255.995H66.5664V242.749H68.3826V255.995Z" fill="black"/>
<path d="M65.6484 255.995C65.8067 256.21 65.9649 256.432 66.1168 256.66H82.4696C82.4696 256.438 82.4886 256.217 82.5139 255.995H65.6484Z" fill="black"/>
<path d="M84.456 246.508C84.2725 246.508 84.127 246.363 84.127 246.179V244.262C84.127 244.078 84.2725 243.933 84.456 243.933C84.6396 243.933 84.7851 244.078 84.7851 244.262V246.179C84.7851 246.363 84.6396 246.508 84.456 246.508Z" fill="black"/>
<path d="M77.8506 246.508C77.667 246.508 77.5215 246.363 77.5215 246.179V244.262C77.5215 244.078 77.667 243.933 77.8506 243.933C78.0341 243.933 78.1796 244.078 78.1796 244.262V246.179C78.1796 246.363 78.0341 246.508 77.8506 246.508Z" fill="black"/>
<path d="M71.2431 246.508C71.0596 246.508 70.9141 246.363 70.9141 246.179V244.262C70.9141 244.078 71.0596 243.933 71.2431 243.933C71.4267 243.933 71.5722 244.078 71.5722 244.262V246.179C71.5722 246.363 71.4267 246.508 71.2431 246.508Z" fill="black"/>
<path d="M58.3775 210.348H44.8662C44.6827 210.348 44.5371 210.202 44.5371 210.019C44.5371 209.835 44.6827 209.689 44.8662 209.689H58.3775C58.5611 209.689 58.7066 209.835 58.7066 210.019C58.7066 210.202 58.5611 210.348 58.3775 210.348Z" fill="black"/>
<path d="M76.6096 75.1827C79.7232 77.8407 82.6596 80.3467 87.2414 76.7079C88.5768 75.6447 89.8235 74.5435 91.0322 73.474C99.0504 66.3987 105.385 60.8106 125.421 77.3534C127.257 78.8722 129.117 80.2328 130.984 81.4669C130.857 81.1694 130.769 80.8594 130.725 80.5366C129.079 79.4165 127.44 78.1951 125.826 76.8597C105.373 59.9689 98.8606 65.7152 90.6145 72.993C89.4121 74.0562 88.1717 75.151 86.8427 76.2016C82.6723 79.5177 80.1788 77.385 77.0146 74.6891C72.8694 71.1514 67.7054 66.7405 56.8963 74.8916C51.0361 79.3089 45.9859 82.5744 41.8281 84.9792V85.707C46.0745 83.2705 51.2513 79.9354 57.276 75.3915C67.6927 67.5632 72.4328 71.6134 76.6096 75.1827Z" fill="black"/>
<path d="M41.6758 85.9922V84.8973L41.7581 84.853C46.5487 82.0875 51.6115 78.6954 56.8136 74.778C67.7239 66.5573 72.9386 71.0062 77.128 74.5819C80.2353 77.2335 82.6845 79.3282 86.7537 76.0944C88.07 75.0438 89.3104 73.9553 90.5128 72.8921C98.8221 65.5574 105.378 59.7731 125.94 76.7525C127.497 78.0372 129.142 79.2713 130.832 80.4167L130.889 80.4547L130.901 80.5243C130.946 80.8344 131.034 81.1319 131.154 81.4103L131.363 81.8976L130.92 81.6002C128.958 80.2965 127.079 78.9106 125.339 77.474C105.404 61.0135 99.1196 66.5636 91.152 73.5883C89.9433 74.6578 88.6965 75.759 87.3549 76.8221C82.6718 80.5433 79.6848 77.9929 76.5268 75.2906C72.388 71.7593 67.6986 67.7534 57.3958 75.5185C52.0419 79.5497 46.8398 83.0241 41.9289 85.8403L41.6758 85.9922ZM41.9922 85.0809V85.4479C46.8209 82.6634 51.9343 79.2396 57.1869 75.2843C67.6923 67.3674 72.4829 71.4556 76.7104 75.0628C79.7734 77.6765 82.6655 80.1446 87.1397 76.588C88.475 75.5248 89.7218 74.4236 90.9242 73.3605C98.9993 66.2346 105.378 60.6022 125.522 77.2398C127.136 78.5751 128.87 79.8662 130.68 81.0812C130.642 80.9357 130.604 80.7901 130.579 80.6446C128.902 79.4991 127.269 78.2777 125.725 76.9993C105.372 60.1908 98.9044 65.8991 90.7153 73.1263C89.5066 74.1895 88.2662 75.2906 86.9435 76.3412C82.6718 79.7333 80.1341 77.5689 76.9192 74.8223C72.812 71.3163 67.7049 66.956 56.9971 75.0312C51.814 78.9359 46.7639 82.3153 41.9922 85.0809Z" fill="black"/>
<path d="M135.753 91.6997L41.832 91.3643V91.9971L136.272 92.3325C136.095 92.13 135.918 91.9148 135.753 91.6997Z" fill="black"/>
<path d="M136.616 92.4917L41.6758 92.1563V91.207H41.834L135.831 91.5424L135.882 91.6057C136.046 91.8209 136.224 92.0297 136.394 92.2323L136.616 92.4917ZM41.9922 91.8399L135.932 92.1753C135.85 92.074 135.762 91.9665 135.679 91.8589L41.9985 91.5298V91.8399H41.9922Z" fill="black"/>
<path d="M84.5266 0.0509589C84.2987 -0.0123261 84.0646 0.08893 83.9443 0.291442L40.5815 76.0563C40.9232 75.9741 41.2713 75.9298 41.6257 75.9298C41.6953 75.9298 41.7649 75.9361 41.8345 75.9424L83.8747 2.49376V197.475L4.03436 141.993L22.368 109.958C22.2225 109.503 22.1275 109.022 22.1086 108.522C22.1086 108.458 22.1086 108.401 22.1086 108.338L2.90156 141.892C2.76866 142.126 2.83828 142.417 3.05345 142.569L84.0962 198.88C84.1848 198.943 84.2861 198.975 84.3937 198.975C84.4759 198.975 84.5582 198.956 84.6342 198.918C84.805 198.829 84.9126 198.652 84.9126 198.462V0.550911C84.9063 0.316756 84.7544 0.114244 84.5266 0.0509589Z" fill="black"/>
<path d="M22.191 132.101C22.1784 131.835 22.1847 131.576 22.191 131.316L3.10426 141.695C2.85112 141.834 2.76252 142.144 2.89542 142.398C2.99035 142.568 3.16755 142.67 3.35108 142.67C3.43335 142.67 3.52194 142.651 3.59789 142.606L22.2227 132.481C22.2163 132.348 22.1974 132.228 22.191 132.101Z" fill="black"/>
<path d="M84.8473 97.8386C84.7081 97.5855 84.398 97.4969 84.1448 97.6298L43.75 119.59C43.7627 119.754 43.788 119.912 43.7943 120.077C43.807 120.299 43.807 120.52 43.8006 120.742L84.6384 98.5411C84.8853 98.4019 84.9802 98.0918 84.8473 97.8386Z" fill="black"/>
<path d="M83.874 242.653V282.067L2.42623 162.167L83.874 216.567V248.057C84.2158 247.918 84.5575 247.791 84.9056 247.684V216.288C84.9056 216.117 84.817 215.953 84.6778 215.858L0.799809 159.844C0.597297 159.705 0.318843 159.737 0.147973 159.907C-0.0228963 160.085 -0.0482103 160.357 0.0846883 160.559L83.9626 284.035C84.0576 284.18 84.2221 284.263 84.3867 284.263C84.4373 284.263 84.4879 284.256 84.5385 284.237C84.7537 284.168 84.9056 283.972 84.9056 283.744V243.013C84.5575 242.906 84.2094 242.786 83.874 242.653Z" fill="black"/>
<path d="M84.392 198.975C84.3097 198.975 84.2274 198.956 84.1515 198.918C83.9806 198.829 83.873 198.652 83.873 198.462V0.550911C83.873 0.316756 84.0313 0.114244 84.2591 0.0509589C84.4869 -0.0123261 84.7211 0.08893 84.8413 0.291442L165.884 141.885C166.017 142.12 165.947 142.411 165.732 142.563L84.6894 198.874C84.5945 198.943 84.4932 198.975 84.392 198.975ZM84.9046 2.49376V197.475L164.745 141.993L84.9046 2.49376Z" fill="black"/>
<path d="M165.437 142.663C165.355 142.663 165.272 142.644 165.19 142.6L84.1472 98.5411C83.8941 98.4019 83.8055 98.0918 83.9384 97.8386C84.0776 97.5855 84.3877 97.4969 84.6409 97.6298L165.684 141.689C165.937 141.828 166.025 142.138 165.892 142.391C165.798 142.569 165.62 142.663 165.437 142.663Z" fill="black"/>
<path d="M168.638 159.908C168.461 159.731 168.189 159.706 167.987 159.845L84.1087 215.865C83.9631 215.96 83.8809 216.125 83.8809 216.295V248.065C84.2226 247.944 84.5643 247.843 84.9124 247.754V216.574L166.36 162.174L84.9124 282.068V243.419C84.5643 243.337 84.2163 243.242 83.8809 243.128V283.745C83.8809 283.973 84.0264 284.169 84.2479 284.238C84.2985 284.251 84.3492 284.264 84.3998 284.264C84.5707 284.264 84.7289 284.181 84.8238 284.036L168.702 160.56C168.841 160.358 168.816 160.086 168.638 159.908Z" fill="black"/>
<path d="M53.0472 176.16H51.9144C51.8638 176.16 51.8132 176.141 51.7689 176.116L30.8722 161.592C30.4418 161.383 30.0495 161.111 29.7014 160.782L12.7916 149.03C12.722 148.979 12.6777 148.903 12.6777 148.821V145.321C12.6777 145.175 12.7916 145.062 12.9372 145.062H53.0536C53.1991 145.062 53.313 145.175 53.313 145.321V175.907C53.3067 176.046 53.1928 176.16 53.0472 176.16ZM51.9967 175.647H52.7878V145.574H13.1967V148.681L30.0178 160.364C30.0305 160.37 30.0368 160.383 30.0495 160.389C30.3659 160.693 30.7266 160.946 31.119 161.13C31.1316 161.136 31.1443 161.142 31.157 161.149L51.9967 175.647Z" fill="black"/>
<path d="M54.8513 145.573H11.1403C10.9948 145.573 10.8809 145.46 10.8809 145.314V141.219C10.8809 141.074 10.9948 140.96 11.1403 140.96H54.8513C54.9968 140.96 55.1107 141.074 55.1107 141.219V145.314C55.1107 145.46 54.9968 145.573 54.8513 145.573ZM11.3998 145.061H54.5981V141.485H11.3998V145.061Z" fill="black"/>
<path d="M43.8078 141.479H22.1833C22.0377 141.479 21.9238 141.365 21.9238 141.22V100.717C21.9238 100.572 22.0377 100.458 22.1833 100.458H43.8078C43.9533 100.458 44.0673 100.572 44.0673 100.717V141.22C44.0673 141.365 43.9533 141.479 43.8078 141.479ZM22.4364 140.967H43.5483V100.983H22.4364V140.967Z" fill="black"/>
<path d="M46.2757 100.984H19.7087C19.5631 100.984 19.4492 100.87 19.4492 100.724V96.7878C19.4492 96.6422 19.5631 96.5283 19.7087 96.5283H46.2757C46.4213 96.5283 46.5352 96.6422 46.5352 96.7878V100.724C46.5352 100.863 46.4213 100.984 46.2757 100.984ZM19.9682 100.465H46.0163V97.0473H19.9682V100.465Z" fill="black"/>
<path d="M41.8334 97.0467H24.1579C24.0124 97.0467 23.8984 96.9327 23.8984 96.7872V79.6433C23.8984 79.4977 24.0124 79.3838 24.1579 79.3838H41.8334C41.979 79.3838 42.0929 79.4977 42.0929 79.6433V96.7872C42.0929 96.9327 41.9726 97.0467 41.8334 97.0467ZM24.4174 96.5277H41.5739V79.8964H24.4174V96.5277Z" fill="black"/>
<path d="M38.1807 97.0467H27.8083C27.6627 97.0467 27.5488 96.9327 27.5488 96.7872V79.6433C27.5488 79.4977 27.6627 79.3838 27.8083 79.3838H38.1807C38.3263 79.3838 38.4402 79.4977 38.4402 79.6433V96.7872C38.4402 96.9327 38.3199 97.0467 38.1807 97.0467ZM28.0678 96.5277H37.9212V79.8964H28.0678V96.5277Z" fill="black"/>
<path d="M43.4729 79.9039H22.5192C22.3737 79.9039 22.2598 79.79 22.2598 79.6444V75.9929C22.2598 75.8473 22.3737 75.7334 22.5192 75.7334H43.4729C43.6185 75.7334 43.7324 75.8473 43.7324 75.9929V79.6444C43.7324 79.7836 43.6185 79.9039 43.4729 79.9039ZM22.7724 79.3849H43.2134V76.2523H22.7724V79.3849Z" fill="black"/>
<path d="M40.0881 76.2519H25.906C25.7604 76.2519 25.6465 76.138 25.6465 75.9924V61.8102C25.6465 61.6647 25.7604 61.5508 25.906 61.5508H40.0881C40.2337 61.5508 40.3476 61.6647 40.3476 61.8102V75.9924C40.3476 76.1317 40.2274 76.2519 40.0881 76.2519ZM26.1654 75.733H39.835V62.0634H26.1654V75.733Z" fill="black"/>
<path d="M35.4798 76.2519H30.5056C30.36 76.2519 30.2461 76.138 30.2461 75.9924V61.8102C30.2461 61.6647 30.36 61.5508 30.5056 61.5508H35.4798C35.6253 61.5508 35.7392 61.6647 35.7392 61.8102V75.9924C35.7392 76.1317 35.6253 76.2519 35.4798 76.2519ZM30.765 75.733H35.2266V62.0634H30.765V75.733Z" fill="black"/>
<path d="M40.0881 62.0639H25.906C25.7604 62.0639 25.6465 61.95 25.6465 61.8045C25.6465 59.0516 27.5704 56.7227 30.2536 56.1974V47.6286C30.2536 47.4831 30.3675 47.3691 30.5131 47.3691H35.4873C35.6329 47.3691 35.7468 47.4831 35.7468 47.6286V56.1974C38.4301 56.729 40.3539 59.0516 40.3539 61.8045C40.3476 61.95 40.2274 62.0639 40.0881 62.0639ZM26.1718 61.5513H39.8287C39.7084 59.0959 37.9048 57.0644 35.4493 56.672C35.3228 56.6531 35.2342 56.5455 35.2342 56.4189V47.8818H30.7726V56.4126C30.7726 56.5391 30.6776 56.6467 30.5574 56.6657C28.0956 57.0581 26.2857 59.0895 26.1718 61.5513Z" fill="black"/>
<path d="M39.1504 141.479H26.8415C26.6959 141.479 26.582 141.365 26.582 141.22V100.717C26.582 100.572 26.6959 100.458 26.8415 100.458H39.1568C39.3023 100.458 39.4162 100.572 39.4162 100.717V141.22C39.4099 141.365 39.296 141.479 39.1504 141.479ZM27.0946 140.967H38.891V100.983H27.0946V140.967Z" fill="black"/>
<path d="M41.7625 169.104C41.7119 169.104 41.6613 169.091 41.617 169.059L30.8712 161.592C30.4409 161.383 30.0485 161.111 29.7004 160.782L24.0807 156.877C24.0111 156.826 23.9668 156.75 23.9668 156.668V145.321C23.9668 145.175 24.0807 145.062 24.2263 145.062H41.7625C41.9081 145.062 42.022 145.175 42.022 145.321V168.85C42.022 168.945 41.9714 169.034 41.8828 169.078C41.8448 169.097 41.8005 169.104 41.7625 169.104ZM24.4857 156.529L30.0105 160.37C30.0232 160.377 30.0295 160.389 30.0422 160.395C30.3586 160.699 30.7193 160.952 31.1117 161.136C31.1243 161.142 31.137 161.149 31.1496 161.155L41.5031 168.35V145.574H24.4857V156.529Z" fill="black"/>
<path d="M35.4798 47.8818H30.5056C30.4233 47.8818 30.3474 47.8438 30.2967 47.7742C30.2461 47.7109 30.2334 47.6223 30.2588 47.5464L32.7459 39.5029C32.7775 39.3953 32.8787 39.3193 32.9927 39.3193C33.1066 39.3193 33.2078 39.3953 33.2395 39.5029L35.7266 47.5464C35.7519 47.6223 35.7392 47.7109 35.6886 47.7742C35.6443 47.8438 35.562 47.8818 35.4798 47.8818ZM30.86 47.3692H35.1317L32.9927 40.4585L30.86 47.3692Z" fill="black"/>
<path d="M32.9919 39.8379C32.8463 39.8379 32.7324 39.724 32.7324 39.5785V30.2692C32.7324 30.1237 32.8463 30.0098 32.9919 30.0098C33.1374 30.0098 33.2514 30.1237 33.2514 30.2692V39.5848C33.2514 39.724 33.1374 39.8379 32.9919 39.8379Z" fill="black"/>
<path d="M32.9933 162.086C32.2528 162.086 31.544 161.922 30.8859 161.599C30.4429 161.39 30.0442 161.105 29.6834 160.763C28.7278 159.865 28.1836 158.593 28.1836 157.276C28.1836 154.625 30.3416 152.467 32.9933 152.467C35.6449 152.467 37.8029 154.625 37.8029 157.276C37.8029 159.928 35.6449 162.086 32.9933 162.086ZM32.9933 152.986C30.6264 152.986 28.7025 154.91 28.7025 157.276C28.7025 158.454 29.1898 159.586 30.0442 160.39C30.3606 160.694 30.7213 160.947 31.1137 161.137C31.7022 161.428 32.3351 161.574 32.9933 161.574C35.3601 161.574 37.284 159.65 37.284 157.283C37.2903 154.91 35.3601 152.986 32.9933 152.986Z" fill="black"/>
<path d="M32.9929 125.095C30.721 125.095 28.873 123.247 28.873 120.975C28.873 118.703 30.721 116.855 32.9929 116.855C35.2648 116.855 37.1128 118.703 37.1128 120.975C37.1191 123.247 35.2648 125.095 32.9929 125.095ZM32.9929 117.368C31.0058 117.368 29.3857 118.988 29.3857 120.975C29.3857 122.962 31.0058 124.583 32.9929 124.583C34.98 124.583 36.6001 122.962 36.6001 120.975C36.6001 118.988 34.9864 117.368 32.9929 117.368Z" fill="black"/>
<path d="M32.9929 125.095C30.721 125.095 28.873 123.247 28.873 120.975C28.873 118.703 30.721 116.855 32.9929 116.855C35.2648 116.855 37.1128 118.703 37.1128 120.975C37.1191 123.247 35.2648 125.095 32.9929 125.095ZM32.9929 117.368C31.0058 117.368 29.3857 118.988 29.3857 120.975C29.3857 122.962 31.0058 124.583 32.9929 124.583C34.98 124.583 36.6001 122.962 36.6001 120.975C36.6001 118.988 34.9864 117.368 32.9929 117.368Z" fill="black"/>
<path d="M22.1835 141.48H15.6271C15.5575 141.48 15.4879 141.448 15.4436 141.397C15.393 141.347 15.3677 141.277 15.374 141.207C15.5259 137.55 18.5129 134.588 22.1771 134.468C22.2468 134.461 22.3164 134.493 22.367 134.537C22.4176 134.588 22.4429 134.651 22.4429 134.721V141.214C22.4366 141.366 22.3227 141.48 22.1835 141.48ZM15.9056 140.967H21.924V135.006C18.7408 135.24 16.1714 137.79 15.9056 140.967Z" fill="black"/>
<path d="M50.1493 141.48H43.5993C43.4538 141.48 43.3398 141.366 43.3398 141.22V134.734C43.3398 134.664 43.3652 134.594 43.4158 134.55C43.4664 134.499 43.5297 134.474 43.6056 134.48C47.2635 134.601 50.2569 137.562 50.4088 141.22C50.4088 141.29 50.3835 141.36 50.3392 141.41C50.2885 141.454 50.2189 141.48 50.1493 141.48ZM43.8525 140.967H49.8709C49.6051 137.79 47.0294 135.24 43.8525 135.006V140.967Z" fill="black"/>
<path d="M32.9927 91.5987C31.1258 91.5987 29.6133 90.0798 29.6133 88.2193C29.6133 86.3587 31.1321 84.8398 32.9927 84.8398C34.8596 84.8398 36.3721 86.3587 36.3721 88.2193C36.3721 90.0798 34.8596 91.5987 32.9927 91.5987ZM32.9927 85.3525C31.4106 85.3525 30.1259 86.6371 30.1259 88.2193C30.1259 89.8014 31.4106 91.0861 32.9927 91.0861C34.5748 91.0861 35.8595 89.8014 35.8595 88.2193C35.8595 86.6371 34.5748 85.3525 32.9927 85.3525Z" fill="black"/>
<path d="M63.9025 150.283C63.5038 150.283 63.1114 150.416 62.795 150.65C62.2698 149.79 61.3268 149.252 60.3142 149.252C59.713 149.252 59.1245 149.442 58.6372 149.79C57.8651 148.91 56.764 148.41 55.5869 148.41C54.7452 148.41 53.9604 148.67 53.3149 149.106V149.752C53.9288 149.233 54.7262 148.923 55.5869 148.923C56.688 148.923 57.7132 149.429 58.3904 150.302C58.4347 150.359 58.498 150.391 58.5676 150.404C58.6372 150.41 58.7068 150.391 58.7638 150.34C59.1941 149.973 59.7447 149.764 60.3142 149.764C61.2445 149.764 62.0989 150.315 62.4912 151.163C62.5292 151.239 62.5988 151.296 62.6874 151.309C62.7697 151.321 62.8583 151.296 62.9153 151.233C63.1747 150.954 63.5291 150.802 63.9088 150.802C64.6619 150.802 65.2695 151.416 65.2695 152.163C65.2695 152.916 64.6556 153.524 63.9088 153.524C63.5291 153.524 63.1747 153.372 62.9153 153.093C62.8583 153.03 62.7697 152.998 62.6874 153.017C62.6052 153.03 62.5292 153.087 62.4912 153.163C62.0989 154.011 61.2509 154.561 60.3142 154.561C59.8523 154.561 59.4029 154.429 59.0106 154.175C58.9536 154.137 58.8777 154.125 58.8081 154.144C58.7384 154.163 58.6815 154.201 58.6435 154.264C58.0107 155.353 56.8336 156.03 55.5805 156.03C54.7135 156.03 53.9225 155.72 53.3086 155.201V155.846C53.9604 156.289 54.7388 156.542 55.5805 156.542C56.9285 156.542 58.2005 155.859 58.9536 154.745C59.3713 154.966 59.8333 155.08 60.3079 155.08C61.3268 155.08 62.2634 154.542 62.7887 153.682C63.1114 153.916 63.4975 154.049 63.8962 154.049C64.9341 154.049 65.7757 153.207 65.7757 152.169C65.7821 151.125 64.9404 150.283 63.9025 150.283Z" fill="black"/>
<path d="M95.258 106.971C94.8593 106.971 94.4669 107.104 94.1505 107.338C93.6252 106.477 92.6823 105.939 91.6697 105.939C91.0685 105.939 90.48 106.129 89.9927 106.477C89.2206 105.598 88.1194 105.098 86.9423 105.098C86.1006 105.098 85.3159 105.357 84.6704 105.794V106.439C85.2843 105.92 86.0817 105.61 86.9423 105.61C88.0435 105.61 89.0687 106.117 89.7459 106.99C89.7902 107.047 89.8534 107.078 89.9231 107.091C89.9927 107.097 90.0623 107.078 90.1192 107.028C90.5496 106.661 91.1002 106.452 91.6697 106.452C92.6 106.452 93.4544 107.003 93.8467 107.851C93.8847 107.926 93.9543 107.983 94.0429 107.996C94.1252 108.009 94.2138 107.983 94.2707 107.92C94.5302 107.642 94.8846 107.49 95.2643 107.49C96.0174 107.49 96.6249 108.104 96.6249 108.85C96.6249 109.604 96.0111 110.211 95.2643 110.211C94.8846 110.211 94.5302 110.059 94.2707 109.781C94.2138 109.717 94.1252 109.686 94.0429 109.705C93.9606 109.717 93.8847 109.774 93.8467 109.85C93.4544 110.698 92.6063 111.249 91.6697 111.249C91.2077 111.249 90.7584 111.116 90.366 110.863C90.3091 110.825 90.2331 110.812 90.1635 110.831C90.0939 110.85 90.037 110.888 89.999 110.952C89.3661 112.04 88.189 112.717 86.936 112.717C86.069 112.717 85.2779 112.407 84.6641 111.888V112.534C85.3159 112.977 86.0943 113.23 86.936 113.23C88.284 113.23 89.556 112.546 90.3091 111.432C90.7268 111.654 91.1888 111.768 91.6634 111.768C92.6823 111.768 93.6189 111.23 94.1442 110.369C94.4669 110.603 94.853 110.736 95.2517 110.736C96.2895 110.736 97.1312 109.895 97.1312 108.857C97.1375 107.813 96.2959 106.971 95.258 106.971Z" fill="black"/>
<path d="M73.9514 180.571C74.3501 180.571 74.7424 180.438 75.0588 180.204C75.5841 181.065 76.5271 181.603 77.5396 181.603C78.1408 181.603 78.7294 181.413 79.2167 181.065C79.9887 181.945 81.0899 182.445 82.267 182.445C83.1087 182.445 83.8934 182.185 84.5389 181.748V181.103C83.9251 181.622 83.1277 181.932 82.267 181.932C81.1659 181.932 80.1406 181.426 79.4635 180.552C79.4192 180.495 79.3559 180.464 79.2863 180.451C79.2167 180.445 79.1471 180.464 79.0901 180.514C78.6598 180.881 78.1092 181.09 77.5396 181.09C76.6093 181.09 75.755 180.54 75.3626 179.692C75.3246 179.616 75.255 179.559 75.1664 179.546C75.0842 179.534 74.9956 179.559 74.9386 179.622C74.6791 179.901 74.3247 180.052 73.945 180.052C73.1919 180.052 72.5844 179.439 72.5844 178.692C72.5844 177.939 73.1983 177.331 73.945 177.331C74.3247 177.331 74.6791 177.483 74.9386 177.762C74.9956 177.825 75.0842 177.856 75.1664 177.837C75.2487 177.825 75.3246 177.768 75.3626 177.692C75.755 176.844 76.603 176.293 77.5396 176.293C78.0016 176.293 78.4509 176.426 78.8433 176.679C78.9002 176.717 78.9762 176.73 79.0458 176.711C79.1154 176.692 79.1724 176.654 79.2103 176.591C79.8432 175.502 81.0203 174.825 82.2733 174.825C83.1403 174.825 83.9314 175.135 84.5453 175.654V175.009C83.8934 174.566 83.115 174.312 82.2733 174.312C80.9254 174.312 79.6533 174.996 78.9002 176.11C78.4826 175.888 78.0206 175.774 77.5459 175.774C76.5271 175.774 75.5904 176.312 75.0652 177.173C74.7424 176.939 74.3564 176.806 73.9577 176.806C72.9198 176.806 72.0781 177.648 72.0781 178.686C72.0781 179.73 72.9198 180.571 73.9514 180.571Z" fill="black"/>
<path d="M69.1151 167.56C69.1025 167.56 69.0898 167.56 69.0772 167.554C68.9632 167.535 68.8746 167.447 68.862 167.333C68.7987 166.82 68.6025 166.491 68.2671 166.314C67.3685 165.833 65.761 166.624 65.7484 166.63C65.6218 166.693 65.4636 166.643 65.4003 166.516C65.337 166.39 65.3876 166.231 65.5142 166.168C65.5901 166.13 67.3685 165.257 68.5076 165.858C68.8367 166.029 69.0708 166.307 69.2227 166.674C69.4822 166.358 69.8999 165.972 70.5074 165.788C71.3554 165.529 72.3237 165.731 73.3805 166.383C73.5008 166.459 73.5387 166.617 73.4628 166.738C73.3869 166.858 73.2286 166.896 73.1084 166.82C72.1844 166.25 71.3617 166.067 70.6593 166.276C69.7543 166.548 69.3493 167.396 69.3493 167.409C69.3113 167.503 69.2164 167.56 69.1151 167.56Z" fill="black"/>
<path d="M73.6865 143.259C73.6739 143.259 73.6612 143.259 73.6485 143.259C73.5346 143.24 73.446 143.152 73.4334 143.038C73.4017 142.785 73.3068 142.62 73.1486 142.538C72.7626 142.335 72.0348 142.607 71.807 142.721C71.6804 142.785 71.5222 142.734 71.4589 142.607C71.3956 142.481 71.4462 142.323 71.5728 142.259C71.6867 142.202 72.6993 141.715 73.3891 142.082C73.5157 142.152 73.6612 142.259 73.7751 142.449C73.9333 142.285 74.1548 142.12 74.4523 142.031C74.9712 141.873 75.5534 141.993 76.1863 142.386C76.3065 142.462 76.3445 142.62 76.2685 142.74C76.1926 142.86 76.0344 142.898 75.9142 142.822C75.4142 142.512 74.9712 142.411 74.5978 142.525C74.1358 142.664 73.9207 143.107 73.9207 143.114C73.8764 143.202 73.7878 143.259 73.6865 143.259Z" fill="black"/>
<path d="M121.409 125.925C121.397 125.925 121.384 125.925 121.371 125.925C121.257 125.906 121.169 125.818 121.156 125.704C121.124 125.451 121.029 125.286 120.871 125.204C120.485 125.001 119.757 125.273 119.53 125.387C119.403 125.451 119.245 125.4 119.182 125.273C119.118 125.147 119.169 124.989 119.295 124.925C119.409 124.868 120.422 124.381 121.112 124.748C121.238 124.818 121.384 124.925 121.498 125.115C121.656 124.951 121.877 124.786 122.175 124.697C122.694 124.539 123.276 124.659 123.909 125.052C124.029 125.128 124.067 125.286 123.991 125.406C123.915 125.526 123.757 125.564 123.637 125.488C123.137 125.178 122.694 125.077 122.32 125.191C121.858 125.33 121.643 125.773 121.643 125.78C121.599 125.862 121.51 125.925 121.409 125.925Z" fill="black"/>
<path d="M91.278 176.198H86.8544C86.6708 176.198 86.5253 176.344 86.5253 176.527V178.938H84.3926V179.603H86.8544C87.0379 179.603 87.1834 179.457 87.1834 179.274V176.863H90.9426V185.406H84.3926V186.071H91.278C91.4615 186.071 91.6071 185.925 91.6071 185.742V176.54C91.6071 176.344 91.4552 176.198 91.278 176.198Z" fill="black"/>
<path d="M91.8033 129.178H87.0695C86.886 129.178 86.7405 129.323 86.7405 129.507V131.962H84.3926V132.627H87.0695C87.2531 132.627 87.3986 132.481 87.3986 132.298V129.842H91.4742V135.563L88.4428 144.404C88.4302 144.436 88.4238 144.474 88.4238 144.512V176.205H87.0695C86.886 176.205 86.7405 176.35 86.7405 176.534V178.945H84.3926V179.61H87.0695C87.2531 179.61 87.3986 179.464 87.3986 179.281V176.869H88.7529C88.9364 176.869 89.082 176.724 89.082 176.54V144.569L92.1133 135.728C92.126 135.696 92.1323 135.658 92.1323 135.62V129.513C92.1387 129.323 91.9868 129.178 91.8033 129.178Z" fill="black"/>
<path d="M88.7529 143.639C87.329 143.658 85.8671 143.67 84.3926 143.677V144.341C85.8671 144.335 87.3353 144.322 88.7592 144.303C88.9428 144.303 89.0883 144.151 89.0883 143.968C89.082 143.784 88.9364 143.639 88.7529 143.639Z" fill="black"/>
<path d="M91.8033 135.678C89.3794 135.709 86.8923 135.728 84.3926 135.728V136.393C86.8923 136.387 89.3858 136.374 91.8096 136.342C91.9931 136.342 92.1387 136.19 92.1387 136.007C92.1323 135.823 91.9868 135.684 91.8033 135.678Z" fill="black"/>
<path d="M89.2412 129.836C89.0577 129.836 88.9121 129.69 88.9121 129.507V127.077C88.9121 126.944 88.9944 126.823 89.1146 126.773L102.715 121.109V113.015C102.715 112.831 102.86 112.686 103.044 112.686C103.227 112.686 103.373 112.831 103.373 113.015V121.33C103.373 121.463 103.29 121.583 103.17 121.634L89.5703 127.298V129.513C89.5703 129.69 89.4247 129.836 89.2412 129.836Z" fill="black"/>
<path d="M134.427 132.291V129.836H137.838V135.956L135.199 143.866C135.186 143.898 135.18 143.936 135.18 143.974V162.744C135.395 162.624 135.617 162.529 135.844 162.434V144.031L138.483 136.12C138.496 136.088 138.502 136.05 138.502 136.013V129.507C138.502 129.323 138.357 129.178 138.173 129.178H134.104C133.921 129.178 133.775 129.323 133.775 129.507V131.962H128.864V129.507C128.864 129.323 128.719 129.178 128.535 129.178H124.599C124.415 129.178 124.27 129.323 124.27 129.507V131.962H119.359V129.507C119.359 129.323 119.213 129.178 119.03 129.178H114.296C114.112 129.178 113.967 129.323 113.967 129.507V135.614C113.967 135.652 113.973 135.683 113.986 135.721L117.017 144.562V175.642C117.232 175.635 117.454 175.635 117.682 175.635V144.505C117.682 144.467 117.675 144.436 117.663 144.398L114.631 135.557V129.836H118.707V132.291C118.707 132.475 118.852 132.62 119.036 132.62H124.605C124.789 132.62 124.934 132.475 124.934 132.291V129.836H128.206V132.291C128.206 132.475 128.351 132.62 128.535 132.62H134.11C134.281 132.627 134.427 132.475 134.427 132.291Z" fill="black"/>
<path d="M135.515 144.303H117.333C117.149 144.303 117.004 144.157 117.004 143.974C117.004 143.79 117.149 143.645 117.333 143.645H135.515C135.698 143.645 135.844 143.79 135.844 143.974C135.844 144.157 135.698 144.303 135.515 144.303Z" fill="black"/>
<path d="M138.164 136.341H114.274C114.091 136.341 113.945 136.195 113.945 136.012C113.945 135.828 114.091 135.683 114.274 135.683H138.164C138.348 135.683 138.494 135.828 138.494 136.012C138.494 136.195 138.348 136.341 138.164 136.341Z" fill="black"/>
<path d="M116.844 129.836C116.661 129.836 116.515 129.691 116.515 129.507V127.292L102.915 121.628C102.795 121.578 102.713 121.457 102.713 121.324V113.009C102.713 112.825 102.858 112.68 103.042 112.68C103.226 112.68 103.371 112.825 103.371 113.009V121.103L116.971 126.767C117.091 126.818 117.174 126.938 117.174 127.071V129.501C117.174 129.691 117.028 129.836 116.844 129.836Z" fill="black"/>
<path d="M126.755 152.929C126.571 152.929 126.426 152.784 126.426 152.6V149.639C126.426 149.455 126.571 149.31 126.755 149.31C126.938 149.31 127.084 149.455 127.084 149.639V152.6C127.084 152.784 126.938 152.929 126.755 152.929Z" fill="black"/>
<path d="M126.755 162.884C126.571 162.884 126.426 162.738 126.426 162.554V159.593C126.426 159.409 126.571 159.264 126.755 159.264C126.938 159.264 127.084 159.409 127.084 159.593V162.554C127.084 162.738 126.938 162.884 126.755 162.884Z" fill="black"/>
<path d="M115.428 136.341H91.8037C91.6202 136.341 91.4746 136.195 91.4746 136.012C91.4746 135.828 91.6202 135.683 91.8037 135.683H115.428C115.612 135.683 115.757 135.828 115.757 136.012C115.757 136.195 115.612 136.341 115.428 136.341Z" fill="black"/>
<path d="M117.687 144.303H87.6963C87.5127 144.303 87.3672 144.157 87.3672 143.974C87.3672 143.79 87.5127 143.645 87.6963 143.645H117.687C117.871 143.645 118.016 143.79 118.016 143.974C118.016 144.157 117.871 144.303 117.687 144.303Z" fill="black"/>
<path d="M107.865 163.548H98.708C98.5245 163.548 98.3789 163.402 98.3789 163.219V154.53C98.3789 152.771 99.8091 151.347 101.562 151.347H105.011C106.77 151.347 108.194 152.777 108.194 154.53V163.219C108.194 163.396 108.049 163.548 107.865 163.548ZM99.0371 162.884H107.53V154.524C107.53 153.131 106.397 151.999 105.005 151.999H101.556C100.164 151.999 99.0307 153.131 99.0307 154.524V162.884H99.0371Z" fill="black"/>
<path d="M103.669 185.406H99.4292V177.047C99.4292 175.654 100.562 174.521 101.954 174.521H105.403C106.796 174.521 107.928 175.654 107.928 177.047V182.173C108.144 182.033 108.365 181.9 108.593 181.768V177.047C108.593 175.287 107.163 173.863 105.41 173.863H101.961C100.201 173.863 98.7773 175.294 98.7773 177.047V185.736C98.7773 185.919 98.9229 186.065 99.1064 186.065H102.929C103.163 185.843 103.416 185.628 103.669 185.406Z" fill="black"/>
<path d="M152.634 150.675C152.849 150.549 153.071 150.454 153.298 150.391V140.202C153.298 140.113 153.26 140.024 153.197 139.961C153.134 139.898 153.045 139.86 152.957 139.873L146.85 140.138C146.672 140.145 146.533 140.29 146.533 140.467V143.638H142.021V140.467C142.021 140.284 141.875 140.138 141.692 140.138H136.692C136.509 140.138 136.363 140.284 136.363 140.467C136.363 140.651 136.509 140.796 136.692 140.796H141.363V143.967C141.363 144.151 141.508 144.296 141.692 144.296H146.869C147.052 144.296 147.198 144.151 147.198 143.967V140.784L152.64 140.55V150.675H152.634Z" fill="black"/>
<path d="M152.962 149.233H135.515C135.331 149.233 135.186 149.088 135.186 148.904C135.186 148.721 135.331 148.575 135.515 148.575H152.962C153.146 148.575 153.291 148.721 153.291 148.904C153.291 149.088 153.146 149.233 152.962 149.233Z" fill="black"/>
<path d="M141.538 156.669C141.355 156.669 141.209 156.523 141.209 156.34V153.378C141.209 153.194 141.355 153.049 141.538 153.049C141.722 153.049 141.867 153.194 141.867 153.378V156.34C141.867 156.517 141.722 156.669 141.538 156.669Z" fill="black"/>
<path d="M103.676 185.407H87.6963C87.5127 185.407 87.3672 185.553 87.3672 185.736C87.3672 185.92 87.5127 186.065 87.6963 186.065H102.929C103.169 185.838 103.423 185.622 103.676 185.407Z" fill="black"/>
<path d="M84.2857 131.577H44.0681C43.9225 131.577 43.8086 131.463 43.8086 131.317C43.8086 131.172 43.9225 131.058 44.0681 131.058H84.292C84.4376 131.058 84.5515 131.172 84.5515 131.317C84.5451 131.463 84.4312 131.577 84.2857 131.577Z" fill="black"/>
<path d="M84.2857 127.614H44.0681C43.9225 127.614 43.8086 127.5 43.8086 127.354C43.8086 127.209 43.9225 127.095 44.0681 127.095H84.292C84.4376 127.095 84.5515 127.209 84.5515 127.354C84.5515 127.5 84.4312 127.614 84.2857 127.614Z" fill="black"/>
<path d="M84.2857 123.654H44.0681C43.9225 123.654 43.8086 123.54 43.8086 123.394C43.8086 123.249 43.9225 123.135 44.0681 123.135H84.292C84.4376 123.135 84.5515 123.249 84.5515 123.394C84.5451 123.54 84.4312 123.654 84.2857 123.654Z" fill="black"/>
<path d="M86.7411 196.766H84.8552C84.7096 196.766 84.5957 196.88 84.5957 197.025C84.5957 197.171 84.7096 197.285 84.8552 197.285H86.393C86.5006 197.095 86.6145 196.924 86.7411 196.766Z" fill="black"/>
<path d="M84.2852 119.173H45.3522C45.1117 119.369 44.8649 119.54 44.6055 119.692H84.2915C84.4371 119.692 84.551 119.578 84.551 119.432C84.5446 119.293 84.4307 119.173 84.2852 119.173Z" fill="black"/>
<path d="M84.2837 115.211H53.9512C53.4196 115.388 52.8817 115.559 52.3438 115.73H84.2837C84.4292 115.73 84.5432 115.616 84.5432 115.47C84.5432 115.331 84.4292 115.211 84.2837 115.211Z" fill="black"/>
<path d="M84.2839 111.249H60.5393C60.3558 111.426 60.1659 111.597 59.9824 111.768H84.2902C84.4357 111.768 84.5497 111.654 84.5497 111.508C84.5433 111.369 84.4294 111.249 84.2839 111.249Z" fill="black"/>
<path d="M84.2866 107.287H66.9338C66.725 107.401 66.5225 107.515 66.3199 107.635C66.225 107.692 66.1301 107.749 66.0352 107.8H84.2929C84.4384 107.8 84.5524 107.686 84.5524 107.54C84.546 107.407 84.4321 107.287 84.2866 107.287Z" fill="black"/>
<path d="M84.2853 103.325H75.2862C75.0837 103.509 74.8749 103.68 74.666 103.844H84.2853C84.4309 103.844 84.5448 103.73 84.5448 103.585C84.5448 103.439 84.4309 103.325 84.2853 103.325Z" fill="black"/>
<path d="M220.194 94.3252L284.636 184.629V94.3252H290.125V191.277H281.708L218.761 103.108V191.277H213.271V94.3252H220.194Z" fill="black"/>
<path d="M390.886 191.276H385.397V179.138C384.329 180.541 383.201 181.914 381.981 183.195C375.485 189.721 367.617 192.984 358.406 192.984C349.257 192.984 341.45 189.721 334.923 183.225C328.397 176.699 325.164 168.891 325.164 159.742C325.164 150.501 328.427 142.663 334.923 136.167C341.45 129.671 349.257 126.438 358.406 126.438C367.647 126.438 375.485 129.671 381.981 136.167C383.201 137.448 384.36 138.79 385.397 140.223V131.806H390.886V191.276ZM385.397 165.079V154.313C384.39 148.976 381.89 144.28 377.864 140.254C372.466 134.856 365.97 132.172 358.406 132.172C350.813 132.172 344.347 134.856 338.979 140.254C333.612 145.652 330.928 152.148 330.928 159.711C330.928 167.305 333.612 173.771 338.979 179.108C344.347 184.445 350.813 187.129 358.406 187.129C366 187.129 372.496 184.445 377.864 179.047C381.89 175.052 384.39 170.386 385.397 165.079Z" fill="black"/>
<path d="M425.748 131.745H431.238V140.101C432.244 138.729 433.372 137.417 434.653 136.137C441.149 129.702 448.987 126.469 458.167 126.469C467.347 126.469 475.185 129.702 481.681 136.167C488.177 142.633 491.409 150.501 491.409 159.711C491.409 168.861 488.177 176.668 481.681 183.194C475.185 189.721 467.347 192.954 458.167 192.954C448.987 192.954 441.149 189.69 434.653 183.164C433.372 181.883 432.244 180.572 431.238 179.199V213.966H425.748V131.745ZM431.238 154.039V165.414C432.244 170.629 434.745 175.204 438.71 179.138C444.108 184.536 450.604 187.22 458.167 187.22C465.73 187.22 472.226 184.536 477.594 179.169C482.962 173.801 485.645 167.305 485.645 159.742C485.645 152.148 482.962 145.652 477.594 140.284C472.226 134.886 465.73 132.202 458.167 132.202C450.604 132.202 444.077 134.886 438.71 140.284C434.745 144.218 432.244 148.824 431.238 154.039Z" fill="black"/>
<path d="M548.532 192.099C541.09 192.099 535.174 189.904 530.782 185.512C526.391 181.12 524.134 175.57 524.012 168.86V131.684H529.501V168.372C529.501 173.404 531.331 177.704 534.991 181.273C538.59 184.871 543.103 186.701 548.501 186.701C553.533 186.701 557.864 184.902 561.493 181.334C565.122 177.735 566.952 173.435 566.952 168.403V131.684H572.442V168.83C572.32 175.539 570.033 181.09 565.671 185.481C561.219 189.904 555.516 192.099 548.532 192.099Z" fill="black"/>
<path d="M613.859 94.3252V191.277H608.369V94.3252H613.859Z" fill="black"/>
<path d="M654.446 182.829C655.514 183.866 656.063 185.147 656.063 186.672C656.063 188.166 655.514 189.447 654.446 190.514C653.379 191.551 652.098 192.1 650.634 192.1C649.14 192.1 647.828 191.582 646.761 190.514C645.693 189.477 645.145 188.197 645.145 186.672C645.145 185.177 645.693 183.896 646.761 182.829C647.828 181.792 649.14 181.243 650.634 181.243C652.098 181.243 653.379 181.792 654.446 182.829Z" fill="black"/>
<path d="M738.441 94.3252V99.8147H695.47V140.072H738.441V145.561H695.47V185.818H738.441V191.308H689.98V94.3556H738.441V94.3252Z" fill="black"/>
<path d="M800.749 99.8147V191.277H795.32V99.8147H770.77V94.3252H825.269V99.8147H800.749Z" fill="black"/>
<path d="M861.861 145.53V191.246H856.371V94.2939H861.861V140.01H911.511V94.2939H917V191.246H911.511V145.53H861.861Z" fill="black"/>
<path d="M95.258 51.3811C94.8593 51.3811 94.4669 51.5139 94.1505 51.7481C93.6252 50.8874 92.6823 50.3495 91.6697 50.3495C91.0685 50.3495 90.48 50.5394 89.9927 50.8874C89.2206 50.0078 88.1194 49.5078 86.9423 49.5078C86.1006 49.5078 85.3159 49.7673 84.6704 50.2039V50.8495C85.2843 50.3305 86.0817 50.0204 86.9423 50.0204C88.0435 50.0204 89.0687 50.5267 89.7459 51.4C89.7902 51.457 89.8534 51.4886 89.9231 51.5013C89.9927 51.5076 90.0623 51.4886 90.1192 51.438C90.5496 51.071 91.1002 50.8621 91.6697 50.8621C92.6 50.8621 93.4544 51.4127 93.8467 52.2607C93.8847 52.3367 93.9543 52.3936 94.0429 52.4063C94.1252 52.4189 94.2138 52.3936 94.2707 52.3303C94.5302 52.0519 94.8846 51.9 95.2643 51.9C96.0174 51.9 96.6249 52.5139 96.6249 53.2606C96.6249 54.0137 96.0111 54.6212 95.2643 54.6212C94.8846 54.6212 94.5302 54.4694 94.2707 54.1909C94.2138 54.1276 94.1252 54.096 94.0429 54.115C93.9606 54.1276 93.8847 54.1846 93.8467 54.2605C93.4544 55.1085 92.6063 55.6591 91.6697 55.6591C91.2077 55.6591 90.7584 55.5262 90.366 55.2731C90.3091 55.2351 90.2331 55.2225 90.1635 55.2414C90.0939 55.2604 90.037 55.2984 89.999 55.3617C89.3661 56.4502 88.189 57.1273 86.936 57.1273C86.069 57.1273 85.2779 56.8172 84.6641 56.2983V56.9438C85.3159 57.3868 86.0943 57.6399 86.936 57.6399C88.284 57.6399 89.556 56.9565 90.3091 55.8426C90.7268 56.0641 91.1888 56.1781 91.6634 56.1781C92.6823 56.1781 93.6189 55.6401 94.1442 54.7795C94.4669 55.0136 94.853 55.1465 95.2517 55.1465C96.2895 55.1465 97.1312 54.3048 97.1312 53.2669C97.1375 52.2227 96.2959 51.3811 95.258 51.3811Z" fill="black"/>
<path d="M73.7991 32.1925C74.1977 32.1925 74.5901 32.0596 74.9065 31.8255C75.4318 32.6862 76.3748 33.2241 77.3873 33.2241C77.9885 33.2241 78.5771 33.0342 79.0644 32.6862C79.8364 33.5658 80.9376 34.0658 82.1147 34.0658C82.9564 34.0658 83.7411 33.8063 84.3866 33.3696V32.7241C83.7728 33.2431 82.9754 33.5532 82.1147 33.5532C81.0135 33.5532 79.9883 33.0469 79.3112 32.1735C79.2669 32.1166 79.2036 32.0849 79.134 32.0723C79.0644 32.066 78.9947 32.0849 78.9378 32.1356C78.5075 32.5026 77.9569 32.7115 77.3873 32.7115C76.457 32.7115 75.6027 32.1609 75.2103 31.3129C75.1723 31.2369 75.1027 31.18 75.0141 31.1673C74.9319 31.1547 74.8433 31.18 74.7863 31.2432C74.5268 31.5217 74.1724 31.6736 73.7927 31.6736C73.0396 31.6736 72.4321 31.0597 72.4321 30.313C72.4321 29.5599 73.046 28.9523 73.7927 28.9523C74.1724 28.9523 74.5268 29.1042 74.7863 29.3827C74.8433 29.446 74.9319 29.4776 75.0141 29.4586C75.0964 29.446 75.1723 29.389 75.2103 29.3131C75.6027 28.465 76.4507 27.9145 77.3873 27.9145C77.8493 27.9145 78.2986 28.0474 78.691 28.3005C78.7479 28.3385 78.8239 28.3511 78.8935 28.3321C78.9631 28.3132 79.0201 28.2752 79.058 28.2119C79.6909 27.1234 80.868 26.4462 82.121 26.4462C82.988 26.4462 83.7791 26.7563 84.393 27.2753V26.6424C83.7411 26.1994 82.9627 25.9463 82.121 25.9463C80.7731 25.9463 79.501 26.6298 78.7479 27.7436C78.3303 27.5221 77.8683 27.4082 77.3936 27.4082C76.3748 27.4082 75.4381 27.9461 74.9129 28.8068C74.5901 28.5726 74.2041 28.4397 73.8054 28.4397C72.7675 28.4397 71.9258 29.2814 71.9258 30.3193C71.9195 31.3508 72.7675 32.1925 73.7991 32.1925Z" fill="black"/>
<path d="M64.6874 61.5516C64.6747 61.5516 64.6621 61.5516 64.6494 61.5453C64.5355 61.5263 64.4469 61.4377 64.4342 61.3238C64.371 60.8112 64.1748 60.4821 63.8394 60.3049C62.9407 59.8239 61.3333 60.615 61.3206 60.6213C61.1941 60.6846 61.0358 60.634 60.9726 60.5074C60.9093 60.3808 60.9599 60.2226 61.0865 60.1593C61.1624 60.1214 62.9407 59.248 64.0799 59.8493C64.4089 60.0201 64.6431 60.2986 64.795 60.6656C65.0544 60.3492 65.4721 59.9632 66.0797 59.7796C66.9277 59.5202 67.8959 59.7227 68.9528 60.3745C69.073 60.4505 69.111 60.6087 69.0351 60.7289C68.9591 60.8492 68.8009 60.8871 68.6807 60.8112C67.7567 60.2416 66.934 60.0581 66.2315 60.2669C65.3266 60.5391 64.9215 61.3871 64.9215 61.3934C64.8836 61.4947 64.7886 61.5516 64.6874 61.5516Z" fill="black"/>
<path d="M95.7331 37.598C95.7267 37.598 95.7141 37.598 95.7078 37.598C95.6318 37.5853 95.5749 37.5284 95.5685 37.4524C95.5242 37.1233 95.3977 36.9018 95.1825 36.7879C94.6003 36.4778 93.5561 36.9904 93.5434 36.9904C93.4611 37.0347 93.3599 36.9968 93.3156 36.9145C93.2713 36.8322 93.3093 36.731 93.3915 36.6867C93.4422 36.6614 94.6003 36.0918 95.3344 36.4842C95.5495 36.5981 95.7014 36.7753 95.7964 37.0158C95.9672 36.8069 96.2393 36.5601 96.6317 36.4399C97.1823 36.2753 97.8088 36.4019 98.4986 36.8259C98.5746 36.8765 98.5999 36.9778 98.5556 37.0537C98.505 37.1297 98.4037 37.155 98.3278 37.1107C97.7265 36.7436 97.1949 36.6234 96.7393 36.7563C96.1507 36.9335 95.8913 37.4841 95.885 37.4904C95.8533 37.56 95.7964 37.598 95.7331 37.598Z" fill="black"/>
<path d="M72.4753 45.9896C72.4689 45.9896 72.4563 45.9896 72.4499 45.9896C72.374 45.9769 72.317 45.92 72.3107 45.844C72.2664 45.5149 72.1399 45.2934 71.9247 45.1795C71.3425 44.8694 70.2983 45.382 70.2856 45.382C70.2033 45.4263 70.1021 45.3884 70.0578 45.3061C70.0135 45.2238 70.0514 45.1226 70.1337 45.0783C70.1843 45.053 71.3425 44.4834 72.0766 44.8758C72.2917 44.9897 72.4436 45.1669 72.5385 45.4074C72.7094 45.1985 72.9815 44.9517 73.3739 44.8315C73.9245 44.6669 74.551 44.7935 75.2408 45.2175C75.3168 45.2681 75.3421 45.3694 75.2978 45.4453C75.2471 45.5213 75.1459 45.5466 75.0699 45.5023C74.4687 45.1352 73.9371 45.015 73.4815 45.1479C72.8929 45.3251 72.6335 45.8757 72.6271 45.882C72.6018 45.9516 72.5449 45.9896 72.4753 45.9896Z" fill="black"/>
<path d="M136.818 91.8018H85.1836V92.3207H137.09C136.982 92.1498 136.894 91.9726 136.818 91.8018Z" fill="black"/>
<path d="M93.8472 270.74H84.5V271.259H93.4612C93.5877 271.088 93.7143 270.917 93.8472 270.74Z" fill="black"/>
<path d="M96.1259 266.778H84.4941V267.297H95.6893C95.8348 267.12 95.9804 266.949 96.1259 266.778Z" fill="black"/>
<path d="M99.1066 262.816H84.4941V263.335H98.8155C98.9168 263.164 99.018 262.994 99.1066 262.816Z" fill="black"/>
<path d="M101.119 258.854H84.4941V259.373H100.803C100.904 259.196 101.018 259.025 101.119 258.854Z" fill="black"/>
<path d="M93.8472 270.74H84.5V271.259H93.4612C93.5877 271.088 93.7143 270.917 93.8472 270.74Z" fill="black"/>
<path d="M87.563 278.67H84.5V279.189H87.2086C87.3225 279.012 87.4428 278.841 87.563 278.67Z" fill="black"/>
<path d="M90.6897 274.702H84.4941V275.221H90.2531C90.405 275.05 90.5505 274.879 90.6897 274.702Z" fill="black"/>
<path d="M93.8472 270.74H84.5V271.259H93.4612C93.5877 271.088 93.7143 270.917 93.8472 270.74Z" fill="black"/>
<path d="M69.5141 261.722V256.33H68.6914V260.652C69.0142 260.95 69.2926 261.311 69.5141 261.722Z" fill="black"/>
<path d="M75.8422 270.518V256.323H75.0195V269.803C75.3296 269.974 75.6144 270.208 75.8422 270.518Z" fill="black"/>
<path d="M81.4046 279.537C81.6641 279.821 81.9236 280.119 82.1704 280.429V256.33H81.3477V279.48C81.3666 279.499 81.392 279.511 81.4046 279.537Z" fill="black"/>
<path d="M82.431 280.739V256.33H81.9121V280.106C82.0893 280.309 82.2602 280.518 82.431 280.739Z" fill="black"/>
<path d="M146.533 176.85C146.135 176.85 145.742 176.983 145.426 177.217C145.16 176.787 144.793 176.439 144.363 176.198C144.236 176.331 144.103 176.458 143.958 176.572C144.458 176.806 144.875 177.217 145.116 177.736C145.154 177.812 145.223 177.869 145.312 177.882C145.394 177.894 145.483 177.869 145.54 177.806C145.799 177.527 146.154 177.375 146.533 177.375C147.286 177.375 147.894 177.989 147.894 178.736C147.894 179.489 147.28 180.097 146.533 180.097C146.154 180.097 145.799 179.945 145.54 179.666C145.483 179.603 145.394 179.571 145.312 179.59C145.23 179.603 145.154 179.66 145.116 179.736C144.723 180.584 143.875 181.134 142.939 181.134C142.369 181.134 141.819 180.932 141.388 180.559C141.338 180.514 141.268 180.495 141.192 180.495C141.122 180.502 141.059 180.54 141.015 180.597C140.338 181.476 139.313 181.976 138.211 181.976C137.344 181.976 136.553 181.666 135.939 181.147V181.793C136.591 182.236 137.37 182.489 138.211 182.489C139.388 182.489 140.483 181.989 141.262 181.109C141.749 181.457 142.338 181.647 142.939 181.647C143.958 181.647 144.894 181.109 145.42 180.248C145.742 180.483 146.128 180.616 146.527 180.616C147.565 180.616 148.407 179.774 148.407 178.736C148.413 177.692 147.571 176.85 146.533 176.85Z" fill="black"/>
<path d="M132.54 213.404C131.939 213.1 131.42 212.632 131.072 212.031C131.034 211.967 130.977 211.923 130.908 211.91C130.838 211.891 130.768 211.904 130.705 211.942C130.319 212.195 129.863 212.328 129.401 212.328C128.471 212.328 127.617 211.777 127.224 210.929C127.186 210.854 127.117 210.797 127.028 210.784C126.946 210.771 126.857 210.797 126.8 210.86C126.541 211.138 126.187 211.29 125.807 211.29C125.054 211.29 124.446 210.676 124.446 209.93C124.446 209.176 125.06 208.569 125.807 208.569C126.187 208.569 126.541 208.721 126.8 208.999C126.857 209.063 126.946 209.094 127.028 209.075C127.111 209.063 127.186 209.006 127.224 208.93C127.617 208.082 128.465 207.531 129.401 207.531C129.971 207.531 130.522 207.734 130.952 208.107C131.003 208.151 131.072 208.17 131.148 208.17C131.218 208.164 131.281 208.126 131.325 208.069C132.002 207.189 133.028 206.689 134.129 206.689C134.996 206.689 135.787 206.999 136.401 207.518V206.873C135.749 206.43 134.971 206.177 134.129 206.177C132.952 206.177 131.857 206.677 131.078 207.556C130.591 207.208 130.003 207.018 129.401 207.018C128.383 207.018 127.446 207.556 126.921 208.417C126.598 208.183 126.212 208.05 125.813 208.05C124.775 208.05 123.934 208.892 123.934 209.93C123.934 210.967 124.775 211.809 125.813 211.809C126.212 211.809 126.604 211.676 126.921 211.442C127.446 212.303 128.389 212.841 129.401 212.841C129.876 212.841 130.338 212.727 130.756 212.505C131.142 213.075 131.661 213.53 132.262 213.841C132.344 213.695 132.433 213.549 132.54 213.404Z" fill="black"/>
<path d="M21.5075 177.18C21.1088 177.18 20.7164 177.313 20.4 177.547C19.8748 176.686 18.9318 176.148 17.9192 176.148C17.4446 176.148 16.9826 176.262 16.5649 176.484C15.8119 175.37 14.5462 174.687 13.1919 174.687C12.3502 174.687 11.5654 174.946 10.9199 175.383V176.028C11.5338 175.509 12.3312 175.199 13.1919 175.199C14.4449 175.199 15.6157 175.876 16.2548 176.965C16.2928 177.028 16.3498 177.072 16.4194 177.085C16.489 177.104 16.5586 177.091 16.6219 177.053C17.0079 176.8 17.4636 176.667 17.9256 176.667C18.8559 176.667 19.7102 177.218 20.1026 178.066C20.1405 178.142 20.2102 178.199 20.2988 178.212C20.381 178.224 20.4696 178.199 20.5266 178.136C20.7861 177.857 21.1404 177.705 21.5202 177.705C22.2733 177.705 22.8808 178.319 22.8808 179.066C22.8808 179.819 22.2669 180.426 21.5202 180.426C21.1404 180.426 20.7861 180.275 20.5266 179.996C20.4696 179.933 20.381 179.901 20.2988 179.92C20.2165 179.933 20.1405 179.99 20.1026 180.066C19.7102 180.914 18.8622 181.464 17.9256 181.464C17.356 181.464 16.8054 181.262 16.3751 180.888C16.3245 180.844 16.2548 180.825 16.1789 180.825C16.1093 180.832 16.046 180.869 16.0017 180.926C15.7676 181.23 15.4891 181.483 15.179 181.692C15.2929 181.819 15.3942 181.952 15.4954 182.104C15.7676 181.914 16.0207 181.699 16.2422 181.439C16.7295 181.787 17.318 181.977 17.9192 181.977C18.9381 181.977 19.8748 181.439 20.4 180.578C20.7228 180.813 21.1088 180.945 21.5075 180.945C22.5454 180.945 23.3871 180.104 23.3871 179.066C23.3871 178.022 22.5454 177.18 21.5075 177.18Z" fill="black"/>
<path d="M72.7041 208.607C72.1535 208.961 71.508 209.17 70.8055 209.17C69.5525 209.17 68.3817 208.493 67.7425 207.404C67.7046 207.341 67.6476 207.297 67.578 207.284C67.5084 207.265 67.4388 207.278 67.3755 207.316C66.9894 207.569 66.5338 207.702 66.0718 207.702C65.1415 207.702 64.2872 207.151 63.8948 206.303C63.8568 206.227 63.7872 206.17 63.6986 206.158C63.6164 206.145 63.5278 206.17 63.4708 206.234C63.2113 206.512 62.8569 206.664 62.4772 206.664C61.7241 206.664 61.1166 206.05 61.1166 205.303C61.1166 204.55 61.7305 203.943 62.4772 203.943C62.8569 203.943 63.2113 204.095 63.4708 204.373C63.5278 204.436 63.6164 204.468 63.6986 204.449C63.7809 204.436 63.8568 204.379 63.8948 204.304C64.091 203.873 64.4137 203.519 64.7998 203.272C64.6416 203.177 64.4897 203.069 64.3568 202.949C64.053 203.171 63.7872 203.456 63.5847 203.785C63.262 203.55 62.8759 203.418 62.4772 203.418C61.4393 203.418 60.5977 204.259 60.5977 205.297C60.5977 206.335 61.4393 207.177 62.4772 207.177C62.8759 207.177 63.2683 207.044 63.5847 206.81C64.11 207.67 65.0466 208.208 66.0655 208.208C66.5401 208.208 67.0021 208.094 67.4198 207.873C68.1729 208.987 69.4386 209.67 70.7929 209.67C71.6346 209.67 72.4193 209.411 73.0648 208.974C72.9446 208.873 72.818 208.74 72.7041 208.607Z" fill="black"/>
<path d="M113.08 206.386C113.067 206.386 113.055 206.386 113.042 206.379C112.928 206.36 112.839 206.272 112.827 206.158C112.764 205.645 112.567 205.316 112.232 205.139C111.333 204.658 109.726 205.449 109.713 205.455C109.587 205.519 109.428 205.468 109.365 205.341C109.302 205.215 109.352 205.057 109.479 204.993C109.555 204.955 111.333 204.082 112.472 204.683C112.802 204.854 113.036 205.133 113.188 205.5C113.447 205.183 113.865 204.797 114.472 204.614C115.32 204.354 116.289 204.557 117.345 205.209C117.466 205.284 117.504 205.443 117.428 205.563C117.352 205.683 117.193 205.721 117.073 205.645C116.149 205.076 115.327 204.892 114.624 205.101C113.719 205.373 113.314 206.221 113.314 206.234C113.27 206.329 113.175 206.386 113.08 206.386Z" fill="black"/>
<path d="M133.547 195.248C133.534 195.248 133.521 195.248 133.509 195.242C133.395 195.223 133.306 195.134 133.294 195.02C133.23 194.507 133.034 194.178 132.699 194.001C131.8 193.52 130.193 194.311 130.18 194.318C130.053 194.381 129.895 194.33 129.832 194.204C129.769 194.077 129.819 193.919 129.946 193.856C130.022 193.818 131.8 192.944 132.939 193.546C133.268 193.716 133.502 193.995 133.654 194.362C133.914 194.045 134.331 193.659 134.939 193.476C135.787 193.216 136.755 193.419 137.812 194.071C137.932 194.147 137.97 194.305 137.894 194.425C137.818 194.545 137.66 194.583 137.54 194.507C136.616 193.938 135.793 193.754 135.091 193.963C134.186 194.235 133.781 195.083 133.781 195.096C133.737 195.191 133.648 195.248 133.547 195.248Z" fill="black"/>
<path d="M30.0175 191.811C30.0048 191.811 29.9922 191.811 29.9795 191.805C29.8656 191.786 29.777 191.697 29.7643 191.584C29.701 191.071 29.5049 190.742 29.1694 190.565C28.2708 190.084 26.6634 190.875 26.6507 190.881C26.5241 190.944 26.3659 190.894 26.3026 190.767C26.2394 190.641 26.29 190.482 26.4165 190.419C26.4925 190.381 28.2708 189.508 29.4099 190.109C29.739 190.28 29.9732 190.558 30.1251 190.925C30.3845 190.609 30.8022 190.223 31.4097 190.039C32.2578 189.78 33.226 189.982 34.2829 190.634C34.4031 190.71 34.4411 190.868 34.3651 190.989C34.2892 191.109 34.131 191.147 34.0107 191.071C33.0868 190.501 32.2641 190.318 31.5616 190.527C30.6566 190.799 30.2516 191.647 30.2516 191.653C30.2073 191.748 30.1124 191.811 30.0175 191.811Z" fill="black"/>
<path d="M99.9481 237.135C99.8912 237.135 99.8532 237.135 99.8405 237.135C99.6633 237.135 99.5241 236.99 99.5304 236.813C99.5368 236.636 99.6633 236.503 99.8532 236.503C99.9165 236.503 105.96 236.56 109.39 234.129C110.903 233.06 111.827 229.288 111.637 224.966C111.453 220.795 110.156 215.701 107.068 213.904C101.53 210.676 97.9357 214.334 97.904 214.372C97.8787 214.397 97.8534 214.416 97.8217 214.435C94.936 215.973 94.5499 219.878 94.2904 222.466C94.2018 223.327 94.1386 224.01 93.993 224.459C93.4551 226.13 93.4234 228.826 93.9044 231.668C94.398 234.566 92.9488 235.015 91.9932 235.307C91.8856 235.338 91.778 235.37 91.6768 235.408C91.5186 235.465 91.4236 235.547 91.3667 235.674C91.2211 236.003 91.3793 236.522 91.4553 236.699C91.5249 236.857 91.4489 237.047 91.2907 237.116C91.1325 237.186 90.9427 237.11 90.8731 236.952C90.8351 236.863 90.506 236.06 90.7908 235.427C90.9174 235.136 91.1578 234.927 91.4743 234.813C91.5818 234.775 91.6958 234.743 91.8097 234.705C92.7716 234.408 93.6829 234.129 93.2842 231.775C92.7779 228.794 92.8159 226.054 93.3918 224.263C93.512 223.884 93.5816 223.194 93.6639 222.403C93.936 219.694 94.3474 215.606 97.4863 213.897C97.9103 213.486 101.739 210.075 107.39 213.359C110.694 215.283 112.08 220.605 112.27 224.94C112.441 228.769 111.725 233.256 109.757 234.648C106.365 237.034 100.821 237.135 99.9481 237.135Z" fill="black"/>
<path d="M97.7197 229.706C97.2957 229.706 96.8274 229.618 96.397 229.358C95.5806 228.852 95.125 227.846 95.049 226.365C95.0427 226.188 95.1756 226.042 95.3465 226.036C95.5363 226.023 95.6692 226.162 95.6756 226.333C95.7389 227.593 96.0932 228.428 96.7198 228.814C97.3653 229.213 98.188 229.061 98.6057 228.934C98.2386 227.934 97.5741 226.681 97.0362 226.574C96.5426 226.472 96.1375 226.08 95.9287 225.491C95.5174 224.378 95.8654 222.954 96.8527 221.682C98.3905 219.701 97.6311 216.556 97.6184 216.524C97.5741 216.353 97.6817 216.182 97.8462 216.138C98.0108 216.094 98.188 216.201 98.2323 216.366C98.2703 216.505 99.074 219.84 97.3526 222.061C96.3464 223.359 96.2641 224.568 96.5236 225.264C96.6628 225.637 96.897 225.884 97.1691 225.941C98.3335 226.181 99.1626 228.548 99.3145 229.016C99.3651 229.168 99.2891 229.339 99.1436 229.402C99.0993 229.44 98.4791 229.706 97.7197 229.706Z" fill="black"/>
<path d="M101.732 229.694C100.517 229.694 99.4795 229.277 99.4163 229.251C99.3213 229.213 99.2517 229.131 99.2264 229.036C98.6252 226.638 99.7453 225.859 100.644 225.233C101.435 224.688 101.954 224.321 101.498 223.024C100.328 219.695 102.859 215.949 102.967 215.79C103.068 215.645 103.264 215.607 103.403 215.708C103.549 215.809 103.587 216.006 103.485 216.145C103.46 216.183 101.03 219.79 102.087 222.809C102.701 224.562 101.796 225.188 100.998 225.745C100.169 226.321 99.3846 226.865 99.796 228.713C100.277 228.878 101.853 229.34 103.099 228.796C103.758 228.511 104.239 227.986 104.53 227.232C104.593 227.068 104.776 226.992 104.941 227.049C105.106 227.112 105.188 227.296 105.125 227.46C104.77 228.378 104.175 229.03 103.353 229.378C102.827 229.612 102.264 229.694 101.732 229.694Z" fill="black"/>
<path d="M100.827 233.668C100.694 233.668 100.561 233.668 100.416 233.662C98.7071 233.617 97.4225 233.118 96.6124 232.181C95.5366 230.94 95.6948 229.403 95.7011 229.339C95.7138 229.225 95.7834 229.131 95.891 229.086C95.9922 229.042 96.1125 229.055 96.2074 229.124C96.3529 229.232 99.8716 231.77 104.643 228.226C104.782 228.124 104.985 228.15 105.086 228.289C105.194 228.428 105.162 228.631 105.023 228.732C100.928 231.763 97.5807 230.573 96.3403 229.934C96.3846 230.415 96.5491 231.149 97.0934 231.77C97.7832 232.561 98.9097 232.985 100.435 233.023C103.295 233.105 103.745 232.396 104.365 231.421C104.77 230.789 105.225 230.073 106.32 229.422C109.061 227.795 109.807 225.96 109.636 221.239C109.63 221.062 109.769 220.916 109.94 220.91C110.105 220.891 110.263 221.043 110.269 221.214C110.447 226.162 109.598 228.213 106.643 229.966C105.675 230.542 105.276 231.162 104.896 231.763C104.251 232.782 103.688 233.668 100.827 233.668Z" fill="black"/>
<path d="M96.6515 219.942C96.2655 219.942 95.7972 219.86 95.2466 219.632C95.1643 219.6 95.1074 219.537 95.0757 219.455C95.0441 219.372 95.0441 219.284 95.0821 219.208C95.1327 219.088 95.639 218.037 96.5186 217.968C97.0755 217.917 97.6135 218.284 98.1197 219.037C98.202 219.157 98.1893 219.315 98.0881 219.423C98.0628 219.455 97.6008 219.942 96.6515 219.942ZM95.8288 219.17C96.6389 219.429 97.1515 219.277 97.4173 219.138C97.1831 218.841 96.8983 218.562 96.5756 218.594C96.2718 218.619 95.9997 218.917 95.8288 219.17Z" fill="black"/>
<path d="M104.244 219.942C103.301 219.942 102.839 219.448 102.808 219.423C102.713 219.315 102.7 219.157 102.776 219.037C103.276 218.284 103.82 217.917 104.377 217.968C105.263 218.037 105.763 219.094 105.814 219.208C105.852 219.284 105.852 219.372 105.82 219.455C105.788 219.537 105.725 219.6 105.649 219.632C105.098 219.86 104.63 219.942 104.244 219.942ZM103.485 219.138C103.744 219.277 104.257 219.429 105.073 219.17C104.902 218.91 104.63 218.619 104.333 218.594C104.01 218.569 103.719 218.841 103.485 219.138Z" fill="black"/>
<path d="M84.2856 239.261C84.5198 239.021 84.7729 238.787 85.0387 238.552C88.3928 235.705 97.335 237.793 104.518 239.47C106.284 239.881 107.954 240.274 109.454 240.571C109.619 240.603 109.789 240.495 109.827 240.324C109.859 240.154 109.752 239.989 109.581 239.951C108.087 239.654 106.423 239.261 104.663 238.85C96.9616 237.053 88.2283 235.015 84.6274 238.065C84.5071 238.166 84.3932 238.274 84.2793 238.375V239.261H84.2856Z" fill="black"/>
<path d="M108.599 247.995C105.238 247.983 101.353 246.901 98.3972 245.394C97.7771 245.078 97.2075 244.78 96.6759 244.508C91.3346 241.755 89.8981 241.009 84.5252 241.977C84.4113 241.996 84.329 242.078 84.291 242.173V242.509C84.3227 242.762 84.3543 243.281 84.291 243.85V245.736C85.0378 244.698 84.9935 243.192 84.9302 242.54C89.8474 241.692 91.1638 242.369 96.3848 245.065C96.9164 245.337 97.4923 245.635 98.1125 245.951C101.1 247.476 105.023 248.571 108.472 248.609C108.498 248.4 108.542 248.198 108.599 247.995Z" fill="black"/>
<path d="M118.162 234.003C119.447 230.016 120.921 226.846 120.946 226.789C121.022 226.631 120.953 226.441 120.795 226.365C120.636 226.289 120.447 226.358 120.371 226.517C120.339 226.58 118.51 230.51 117.137 235.161C117.415 234.636 117.763 234.25 118.162 234.003Z" fill="black"/>
<path d="M110.435 240.718C110.296 240.718 110.169 240.623 110.132 240.484C110.087 240.313 110.188 240.142 110.353 240.097C110.366 240.091 111.815 239.686 112.359 238.528C112.688 237.832 112.638 236.984 112.195 236.003C111.182 233.756 112.789 232.535 114.074 231.56C114.992 230.864 115.789 230.257 115.593 229.453C114.992 226.922 116.276 225.738 118.599 223.871C118.915 223.618 119.055 223.333 119.029 223.004C118.928 221.65 116.264 219.821 115.251 219.232C115.099 219.144 115.049 218.954 115.137 218.802C115.226 218.65 115.422 218.6 115.568 218.688C115.973 218.922 119.517 221.03 119.662 222.96C119.707 223.51 119.479 223.985 118.998 224.371C116.58 226.308 115.713 227.238 116.207 229.314C116.492 230.522 115.454 231.307 114.454 232.073C113.176 233.048 111.967 233.965 112.77 235.756C113.289 236.908 113.34 237.939 112.929 238.813C112.252 240.237 110.587 240.699 110.511 240.718C110.492 240.711 110.461 240.718 110.435 240.718Z" fill="black"/>
<path d="M111.745 222.992C111.586 222.992 111.454 222.879 111.435 222.72C111.409 222.549 111.529 222.385 111.7 222.366C112.972 222.189 114.485 220.607 115.149 218.771C115.485 217.835 115.877 216.075 114.681 214.759C112.447 212.297 108.188 214.443 108.144 214.468C107.992 214.55 107.796 214.487 107.72 214.329C107.637 214.171 107.701 213.981 107.859 213.905C108.049 213.803 112.593 211.519 115.156 214.335C116.187 215.474 116.409 217.17 115.751 218.987C115.004 221.056 113.301 222.784 111.795 222.992C111.77 222.992 111.757 222.992 111.745 222.992Z" fill="black"/>
<path d="M94.0191 222.269C93.9179 222.269 93.8166 222.219 93.7533 222.13C93.6458 221.972 91.184 218.194 93.1332 215.447C95.0823 212.694 98.1137 213.492 98.1453 213.504C98.3162 213.549 98.4111 213.726 98.3668 213.891C98.3225 214.061 98.1517 214.156 97.9808 214.112C97.8732 214.08 95.3418 213.429 93.6521 215.814C91.9561 218.213 94.2596 221.751 94.2849 221.782C94.3799 221.928 94.3419 222.124 94.1963 222.219C94.1394 222.25 94.0824 222.269 94.0191 222.269Z" fill="black"/>
<path d="M111.246 220.41C111.139 220.41 111.031 220.353 110.974 220.252C110.885 220.1 110.936 219.91 111.088 219.821C111.759 219.429 113.455 218.182 113.214 217.087C113.17 216.898 113.069 216.765 112.898 216.663C112.164 216.233 110.506 216.588 109.924 216.758C109.759 216.809 109.582 216.714 109.531 216.543C109.481 216.379 109.575 216.201 109.746 216.151C109.987 216.081 112.12 215.467 113.221 216.113C113.55 216.303 113.752 216.588 113.835 216.948C114.227 218.72 111.525 220.302 111.411 220.366C111.354 220.397 111.297 220.41 111.246 220.41Z" fill="black"/>
<path d="M124.743 224.416C120.529 222.061 116.7 219.41 116.637 219.365C116.491 219.264 116.295 219.302 116.194 219.448C116.092 219.593 116.13 219.789 116.276 219.891C116.529 220.068 120.244 222.637 124.376 224.947C124.484 224.757 124.61 224.58 124.743 224.416Z" fill="black"/>
<path d="M93.5116 242.946C93.3534 242.939 93.1826 243.059 93.1699 243.237C93.0243 245.097 92.556 246.274 91.8156 246.635C91.0752 246.996 90.2335 246.439 90.2272 246.433C90.1132 246.357 89.955 246.363 89.8538 246.452C88.4045 247.629 87.5945 246.857 87.5692 246.825C87.4743 246.724 87.3287 246.698 87.2021 246.755C86.4364 247.116 85.8415 247.167 85.4365 246.907C84.6644 246.407 84.6897 244.926 84.6897 244.907C84.696 244.73 84.5568 244.585 84.3796 244.585C84.348 244.585 84.3163 244.591 84.291 244.604V246.344C84.4429 246.762 84.6897 247.173 85.0884 247.439C85.658 247.806 86.3984 247.8 87.2971 247.413C87.4996 247.553 87.8666 247.736 88.3666 247.736C88.8286 247.736 89.4108 247.578 90.0816 247.084C90.455 247.281 91.2777 247.603 92.0941 247.217C93.0686 246.749 93.6445 245.433 93.8091 243.3C93.8154 243.11 93.6888 242.958 93.5116 242.946Z" fill="black"/>
<path d="M108.789 247.439L84.2852 247.211V247.844L108.574 248.072C108.631 247.85 108.707 247.641 108.789 247.439Z" fill="black"/>
<path d="M138.133 95.3206C137.867 95.4915 137.62 95.6687 137.38 95.8522C136.608 96.4281 135.886 96.9723 134.412 96.9723C132.937 96.9723 132.209 96.4281 131.437 95.8522C130.621 95.2383 129.773 94.6055 128.09 94.6055C126.4 94.6055 125.558 95.2383 124.735 95.8522C123.963 96.4281 123.242 96.9723 121.761 96.9723C120.28 96.9723 119.559 96.4281 118.787 95.8522C117.97 95.2383 117.122 94.6055 115.439 94.6055C113.749 94.6055 112.907 95.2383 112.085 95.8522C111.313 96.4281 110.585 96.9723 109.11 96.9723C107.636 96.9723 106.908 96.4281 106.136 95.8522C105.32 95.2383 104.472 94.6055 102.788 94.6055C101.105 94.6055 100.257 95.2383 99.4404 95.8522C98.6683 96.4281 97.9469 96.9723 96.466 96.9723C94.9852 96.9723 94.2637 96.4281 93.4916 95.8522C92.6753 95.2383 91.8272 94.6055 90.1438 94.6055C88.4605 94.6055 87.6125 95.2383 86.7961 95.8522C86.024 96.4281 85.2962 96.9723 83.8217 96.9723C82.3471 96.9723 81.6194 96.4281 80.8536 95.8522C80.0372 95.2383 79.1892 94.6055 77.4995 94.6055C75.8161 94.6055 74.9681 95.2383 74.1517 95.8522C73.3797 96.4281 72.6582 96.9723 71.1837 96.9723C69.7091 96.9723 68.9813 96.4281 68.2156 95.8522C67.3992 95.2383 66.5512 94.6055 64.8678 94.6055C63.1844 94.6055 62.3364 95.2383 61.52 95.8522C60.748 96.4281 60.0265 96.9723 58.552 96.9723C57.0774 96.9723 56.3497 96.4281 55.5839 95.8522C54.7675 95.2383 53.9195 94.6055 52.2361 94.6055C50.5528 94.6055 49.7047 95.2383 48.8884 95.8522C48.1985 96.3711 47.5467 96.8584 46.3633 96.9533V97.5862C47.7556 97.4849 48.5276 96.9154 49.2681 96.3585C50.0401 95.7826 50.7616 95.2383 52.2361 95.2383C53.7107 95.2383 54.4384 95.7826 55.2042 96.3585C56.0206 96.9723 56.8686 97.6052 58.552 97.6052C60.2354 97.6052 61.0834 96.9723 61.8998 96.3585C62.6718 95.7826 63.3933 95.2383 64.8678 95.2383C66.3424 95.2383 67.0701 95.7826 67.8359 96.3585C68.6523 96.9723 69.5003 97.6052 71.1837 97.6052C72.867 97.6052 73.7151 96.9723 74.5314 96.3585C75.3035 95.7826 76.025 95.2383 77.4995 95.2383C78.974 95.2383 79.7018 95.7826 80.4676 96.3585C81.284 96.9723 82.132 97.6052 83.8153 97.6052C85.5051 97.6052 86.3467 96.9723 87.1695 96.3585C87.9415 95.7826 88.663 95.2383 90.1438 95.2383C91.6247 95.2383 92.3462 95.7826 93.1182 96.3585C93.9346 96.9723 94.7826 97.6052 96.466 97.6052C98.1494 97.6052 98.9974 96.9723 99.8138 96.3585C100.586 95.7826 101.307 95.2383 102.788 95.2383C104.269 95.2383 104.991 95.7826 105.763 96.3585C106.579 96.9723 107.427 97.6052 109.117 97.6052C110.806 97.6052 111.648 96.9723 112.471 96.3585C113.243 95.7826 113.971 95.2383 115.445 95.2383C116.92 95.2383 117.648 95.7826 118.42 96.3585C119.236 96.9723 120.084 97.6052 121.774 97.6052C123.457 97.6052 124.305 96.9723 125.121 96.3585C125.894 95.7826 126.621 95.2383 128.096 95.2383C129.57 95.2383 130.298 95.7826 131.07 96.3585C131.887 96.9723 132.735 97.6052 134.418 97.6052C136.101 97.6052 136.949 96.9723 137.766 96.3585C138.006 96.1813 138.24 96.0041 138.494 95.8522C138.367 95.675 138.253 95.4978 138.133 95.3206Z" fill="black"/>
<path d="M77.4997 100.972C75.8163 100.972 74.9682 101.605 74.1519 102.218C73.3798 102.794 72.6583 103.339 71.1838 103.339C69.7093 103.339 68.9815 102.794 68.2157 102.218C67.3994 101.605 66.5513 100.972 64.868 100.972C63.1846 100.972 62.3366 101.605 61.5202 102.218C60.7481 102.794 60.0267 103.339 58.5521 103.339C57.0776 103.339 56.3498 102.794 55.584 102.218C54.7677 101.605 53.9197 100.972 52.2363 100.972C50.5529 100.972 49.7049 101.605 48.8885 102.218C48.1164 102.794 47.395 103.339 45.9204 103.339C45.0851 103.339 44.4902 103.161 43.9902 102.902V103.604C44.5028 103.826 45.1167 103.971 45.9204 103.971C47.6038 103.971 48.4518 103.339 49.2682 102.725C50.0403 102.149 50.7617 101.605 52.2363 101.605C53.7108 101.605 54.4386 102.149 55.2043 102.725C56.0207 103.339 56.8687 103.971 58.5521 103.971C60.2355 103.971 61.0835 103.339 61.8999 102.725C62.672 102.149 63.3934 101.605 64.868 101.605C66.3425 101.605 67.0703 102.149 67.836 102.725C68.6524 103.339 69.5004 103.971 71.1838 103.971C72.8672 103.971 73.7152 103.339 74.5316 102.725C75.3037 102.149 76.0251 101.605 77.4997 101.605C77.5882 101.605 77.6705 101.611 77.7528 101.617C77.9363 101.408 78.1262 101.212 78.3413 101.041C78.0819 100.997 77.8097 100.972 77.4997 100.972Z" fill="black"/>
<path d="M141.919 101.098C141.571 101.022 141.185 100.972 140.729 100.972C139.045 100.972 138.197 101.605 137.381 102.218C136.609 102.794 135.888 103.339 134.413 103.339C132.938 103.339 132.211 102.794 131.439 102.218C130.622 101.605 129.774 100.972 128.091 100.972C126.401 100.972 125.559 101.605 124.737 102.218C123.965 102.794 123.243 103.339 121.762 103.339C120.281 103.339 119.56 102.794 118.788 102.218C117.972 101.605 117.124 100.972 115.44 100.972C113.75 100.972 112.909 101.605 112.086 102.218C111.314 102.794 110.586 103.339 109.112 103.339C107.637 103.339 106.909 102.794 106.137 102.218C105.321 101.605 104.473 100.972 102.789 100.972C101.106 100.972 100.258 101.605 99.4417 102.218C98.6696 102.794 97.9482 103.339 96.4673 103.339C94.9864 103.339 94.265 102.794 93.4929 102.218C92.7082 101.63 91.8918 101.029 90.3477 100.978C90.6957 101.231 91.0375 101.497 91.3792 101.763C92.0943 101.965 92.5943 102.332 93.1132 102.725C93.9296 103.339 94.7776 103.971 96.461 103.971C98.1444 103.971 98.9924 103.339 99.8088 102.725C100.581 102.149 101.302 101.605 102.783 101.605C104.264 101.605 104.985 102.149 105.758 102.725C106.574 103.339 107.422 103.971 109.112 103.971C110.801 103.971 111.643 103.339 112.466 102.725C113.238 102.149 113.966 101.605 115.44 101.605C116.915 101.605 117.642 102.149 118.415 102.725C119.231 103.339 120.079 103.971 121.769 103.971C123.452 103.971 124.3 103.339 125.116 102.725C125.889 102.149 126.616 101.605 128.091 101.605C129.565 101.605 130.293 102.149 131.065 102.725C131.882 103.339 132.73 103.971 134.413 103.971C136.096 103.971 136.944 103.339 137.761 102.725C138.533 102.149 139.254 101.605 140.735 101.605C141.457 101.605 141.995 101.737 142.457 101.94C142.273 101.655 142.096 101.377 141.919 101.098Z" fill="black"/>
<path d="M147.198 109.705C147.147 109.705 147.103 109.712 147.052 109.712C145.578 109.712 144.85 109.167 144.078 108.591C143.262 107.978 142.414 107.345 140.724 107.345C139.041 107.345 138.193 107.978 137.376 108.591C136.604 109.167 135.883 109.712 134.408 109.712C132.934 109.712 132.206 109.167 131.434 108.591C130.617 107.978 129.769 107.345 128.086 107.345C126.396 107.345 125.555 107.978 124.732 108.591C123.96 109.167 123.238 109.712 121.757 109.712C120.277 109.712 119.555 109.167 118.783 108.591C117.967 107.978 117.119 107.345 115.435 107.345C113.746 107.345 112.904 107.978 112.081 108.591C111.309 109.167 110.581 109.712 109.107 109.712C107.632 109.712 106.904 109.167 106.132 108.591C105.316 107.978 104.468 107.345 102.785 107.345C102.133 107.345 101.608 107.44 101.158 107.592C101.506 107.731 101.861 107.87 102.209 108.009C102.386 107.99 102.576 107.978 102.785 107.978C104.259 107.978 104.987 108.522 105.759 109.098C106.575 109.712 107.423 110.344 109.113 110.344C110.803 110.344 111.645 109.712 112.467 109.098C113.239 108.522 113.967 107.978 115.442 107.978C116.916 107.978 117.644 108.522 118.416 109.098C119.232 109.712 120.08 110.344 121.77 110.344C123.454 110.344 124.302 109.712 125.118 109.098C125.89 108.522 126.618 107.978 128.092 107.978C129.567 107.978 130.295 108.522 131.067 109.098C131.883 109.712 132.731 110.344 134.414 110.344C136.098 110.344 136.946 109.712 137.762 109.098C138.534 108.522 139.256 107.978 140.737 107.978C142.218 107.978 142.939 108.522 143.711 109.098C144.527 109.712 145.375 110.344 147.065 110.344C147.242 110.344 147.407 110.332 147.571 110.319C147.439 110.117 147.318 109.914 147.198 109.705Z" fill="black"/>
<path d="M64.8623 107.339C63.179 107.339 62.3309 107.972 61.5146 108.586C60.7425 109.161 60.021 109.706 58.5465 109.706C57.072 109.706 56.3442 109.161 55.5784 108.586C54.7621 107.972 53.914 107.339 52.2307 107.339C50.5473 107.339 49.6993 107.972 48.8829 108.586C48.1108 109.161 47.3893 109.706 45.9148 109.706C45.0351 109.706 44.4213 109.51 43.9023 109.231V109.94C44.4276 110.18 45.0668 110.339 45.9148 110.339C47.5982 110.339 48.4462 109.706 49.2626 109.092C50.0347 108.516 50.7561 107.972 52.2307 107.972C53.7052 107.972 54.433 108.516 55.1987 109.092C56.0151 109.706 56.8631 110.339 58.5465 110.339C60.2299 110.339 61.0779 109.706 61.8943 109.092C62.6663 108.516 63.3878 107.972 64.8623 107.972C65.1851 107.972 65.4699 108.003 65.7357 108.048C65.9698 107.883 66.204 107.719 66.4445 107.567C66.0015 107.434 65.4889 107.339 64.8623 107.339Z" fill="black"/>
<path d="M150.192 114.837C150.135 114.881 150.078 114.919 150.027 114.964C149.255 115.539 148.527 116.084 147.053 116.084C145.578 116.084 144.85 115.539 144.078 114.964C143.262 114.35 142.414 113.717 140.724 113.717C139.041 113.717 138.193 114.35 137.376 114.964C136.604 115.539 135.883 116.084 134.408 116.084C132.934 116.084 132.206 115.539 131.434 114.964C130.617 114.35 129.769 113.717 128.086 113.717C126.396 113.717 125.555 114.35 124.732 114.964C123.96 115.539 123.238 116.084 121.758 116.084C120.277 116.084 119.555 115.539 118.783 114.964C117.967 114.35 117.119 113.717 115.435 113.717C114.91 113.717 114.48 113.78 114.094 113.888C114.379 114.04 114.651 114.204 114.91 114.375C115.075 114.356 115.252 114.35 115.435 114.35C116.91 114.35 117.638 114.894 118.41 115.47C119.226 116.084 120.074 116.717 121.764 116.717C123.447 116.717 124.295 116.084 125.112 115.47C125.884 114.894 126.612 114.35 128.086 114.35C129.561 114.35 130.288 114.894 131.06 115.47C131.877 116.084 132.725 116.717 134.408 116.717C136.092 116.717 136.94 116.084 137.756 115.47C138.528 114.894 139.25 114.35 140.73 114.35C142.211 114.35 142.933 114.894 143.705 115.47C144.521 116.084 145.369 116.717 147.059 116.717C148.749 116.717 149.59 116.084 150.413 115.47C150.445 115.444 150.483 115.419 150.514 115.394C150.407 115.204 150.299 115.02 150.192 114.837Z" fill="black"/>
<path d="M22.2148 115.793C21.7845 115.964 21.2719 116.078 20.6137 116.078C19.6012 116.078 18.943 115.819 18.3798 115.471C18.3228 115.692 18.2532 115.895 18.1836 116.091C18.7911 116.445 19.5252 116.711 20.6137 116.711C21.2529 116.711 21.7719 116.616 22.2148 116.471V115.793Z" fill="black"/>
<path d="M52.2189 113.711C50.5355 113.711 49.6875 114.344 48.8712 114.958C48.0991 115.534 47.3776 116.078 45.9031 116.078C45.0234 116.078 44.4096 115.882 43.8906 115.603V116.312C44.4159 116.552 45.0551 116.711 45.9031 116.711C47.5865 116.711 48.4345 116.078 49.2509 115.464C50.0229 114.888 50.7444 114.344 52.2189 114.344C52.9847 114.344 53.5416 114.489 54.0162 114.711C54.1744 114.553 54.3327 114.394 54.4972 114.243C53.9213 113.939 53.2188 113.711 52.2189 113.711Z" fill="black"/>
<path d="M22.2148 122.166C21.7845 122.337 21.2718 122.451 20.6137 122.451C19.1391 122.451 18.4114 121.907 17.6456 121.331C17.0697 120.9 16.4685 120.464 15.5762 120.242C15.4749 120.438 15.3674 120.635 15.2598 120.831C16.1141 121.014 16.6837 121.413 17.2596 121.843C18.0759 122.457 18.924 123.09 20.6073 123.09C21.2465 123.09 21.7655 122.995 22.2085 122.85V122.166H22.2148Z" fill="black"/>
<path d="M152.663 120.127C151.436 120.279 150.714 120.804 150.018 121.33C149.246 121.906 148.518 122.45 147.044 122.45C145.569 122.45 144.841 121.906 144.069 121.33C143.253 120.716 142.405 120.083 140.715 120.083C139.032 120.083 138.184 120.716 137.367 121.33C136.595 121.906 135.874 122.45 134.399 122.45C132.925 122.45 132.197 121.906 131.425 121.33C130.609 120.716 129.761 120.083 128.077 120.083C127.28 120.083 126.679 120.229 126.166 120.444C126.375 120.589 126.571 120.741 126.767 120.906C127.134 120.792 127.558 120.722 128.077 120.722C129.552 120.722 130.28 121.266 131.052 121.842C131.868 122.456 132.716 123.089 134.399 123.089C136.083 123.089 136.931 122.456 137.747 121.842C138.519 121.266 139.241 120.722 140.722 120.722C142.202 120.722 142.924 121.266 143.696 121.842C144.512 122.456 145.36 123.089 147.05 123.089C148.74 123.089 149.581 122.456 150.404 121.842C151.107 121.317 151.777 120.823 152.999 120.735C152.872 120.532 152.765 120.336 152.663 120.127Z" fill="black"/>
<path d="M22.2168 128.532C21.7865 128.703 21.2739 128.817 20.6157 128.817C19.1412 128.817 18.4134 128.273 17.6477 127.697C16.8313 127.083 15.9833 126.45 14.2999 126.45C13.1038 126.45 12.3317 126.773 11.6925 127.178C11.5596 127.437 11.4267 127.697 11.3002 127.956C11.2306 128.096 11.1673 128.241 11.0977 128.38C11.1736 128.323 11.2559 128.266 11.3318 128.21C12.1039 127.634 12.8253 127.089 14.2999 127.089C15.7744 127.089 16.5022 127.634 17.2679 128.21C18.0843 128.823 18.9323 129.456 20.6157 129.456C21.2549 129.456 21.7738 129.361 22.2168 129.216V128.532Z" fill="black"/>
<path d="M157.823 128.412C157.418 128.21 157.077 127.963 156.735 127.697C155.918 127.083 155.07 126.45 153.381 126.45C151.691 126.45 150.849 127.083 150.027 127.697C149.255 128.273 148.527 128.817 147.052 128.817C145.578 128.817 144.85 128.273 144.078 127.697C143.261 127.083 142.413 126.45 140.724 126.45C139.35 126.45 138.534 126.874 137.838 127.362C138.028 127.494 138.218 127.621 138.407 127.741C138.99 127.368 139.66 127.083 140.724 127.083C142.198 127.083 142.926 127.627 143.698 128.203C144.514 128.817 145.362 129.45 147.052 129.45C148.742 129.45 149.584 128.817 150.406 128.203C151.178 127.627 151.906 127.083 153.381 127.083C154.855 127.083 155.583 127.627 156.355 128.203C156.855 128.577 157.368 128.956 158.07 129.197C157.969 128.944 157.887 128.684 157.823 128.412Z" fill="black"/>
<path d="M14.2919 132.816C12.6086 132.816 11.7605 133.449 10.9442 134.063C10.1721 134.639 9.45063 135.183 7.97609 135.183C7.74194 135.183 7.5331 135.164 7.33691 135.139C7.1344 135.322 6.91923 135.5 6.69141 135.664C7.06479 135.759 7.48247 135.816 7.97609 135.816C9.65947 135.816 10.5075 135.183 11.3302 134.569C12.1023 133.994 12.8237 133.449 14.2983 133.449C15.7728 133.449 16.5006 133.994 17.2663 134.569C17.298 134.588 17.3233 134.614 17.3549 134.633C17.4942 134.481 17.6524 134.335 17.8359 134.202C17.7726 134.158 17.7093 134.107 17.646 134.063C16.8233 133.456 15.9753 132.816 14.2919 132.816Z" fill="black"/>
<path d="M161.328 134.899C160.892 135.076 160.379 135.196 159.702 135.196C158.227 135.196 157.5 134.652 156.728 134.076C155.911 133.462 155.063 132.829 153.374 132.829C152.089 132.829 151.291 133.196 150.627 133.645C150.817 133.772 151.007 133.905 151.184 134.044C151.741 133.709 152.386 133.462 153.374 133.462C154.848 133.462 155.576 134.006 156.348 134.582C157.164 135.196 158.012 135.829 159.702 135.829C160.525 135.829 161.151 135.677 161.664 135.449C161.563 135.259 161.455 135.076 161.328 134.899Z" fill="black"/>
</svg>
