<svg width="321" height="400" viewBox="0 0 321 400" fill="none" xmlns="http://www.w3.org/2000/svg">
<path d="M91.1824 346.231C93.5945 345.093 96.2342 344.593 98.9194 344.729C104.927 345.048 110.297 348.825 113.028 354.651L126.545 383.642L149.938 319.379C146.343 318.469 142.929 317.058 139.698 315.192L129.503 309.321C124.361 306.363 118.535 304.77 112.573 304.77H100.831C94.7323 304.77 88.6792 303.404 83.1723 300.765L61.5996 360.021L91.1824 346.231Z" fill="#EAC9F8"/>
<path d="M128.504 386.919C128.231 387.693 127.549 388.194 126.729 388.194H126.638C125.865 388.194 125.182 387.739 124.863 387.056L110.3 355.88C108.07 351.102 103.655 347.961 98.7396 347.688C96.555 347.552 94.3705 348.007 92.4134 348.917L60.6461 363.708C59.6448 364.163 58.4615 363.754 58.0064 362.753C57.7789 362.297 57.7789 361.751 57.9609 361.251L80.4893 299.354C78.3503 298.171 76.3477 296.76 74.4817 295.213L48.9496 365.392C47.7662 368.578 49.4502 372.128 52.636 373.311C54.1834 373.857 55.8674 373.812 57.3693 373.129L95.4627 355.38C98.5575 353.969 102.198 355.289 103.655 358.383L121.405 396.431C122.861 399.526 126.502 400.846 129.597 399.435C131.099 398.752 132.236 397.478 132.783 395.931L160.135 320.654C157.678 320.654 155.265 320.426 152.853 319.971L128.504 386.919Z" fill="#EAC9F8"/>
<path d="M58.5065 363.389C59.0982 363.936 59.9629 364.072 60.6911 363.708L92.4584 348.917C94.4154 348.006 96.6 347.551 98.7846 347.688C103.654 347.961 108.114 351.101 110.345 355.88L124.908 387.056C125.227 387.738 125.91 388.193 126.683 388.193H126.774C127.594 388.148 128.276 387.647 128.549 386.919L152.853 319.971C151.851 319.789 150.896 319.561 149.894 319.334L126.501 383.597L112.984 354.606C110.299 348.826 104.883 345.048 98.8756 344.684C96.1904 344.547 93.5507 345.048 91.1385 346.186L61.6013 359.93L83.174 300.674C82.2637 300.219 81.3535 299.764 80.4888 299.309L57.9603 361.205C57.6873 362.024 57.9148 362.843 58.5065 363.389Z" fill="white"/>
<path d="M208.376 354.06C209.378 351.921 210.834 350.01 212.655 348.508C212.882 348.326 213.11 348.144 213.337 347.961C218.116 344.366 224.715 343.774 230.495 346.46L259.486 359.931L237.823 300.538C232.225 303.269 226.035 304.68 219.8 304.68H208.058C202.096 304.68 196.27 306.273 191.127 309.231L180.933 315.102C177.838 316.877 174.516 318.288 171.057 319.198L194.541 383.597L208.376 354.06Z" fill="#EAC9F8"/>
<path d="M263.173 361.205C263.538 362.252 263.037 363.344 261.99 363.753C261.49 363.935 260.943 363.89 260.488 363.708L229.267 349.19C224.488 346.96 219.072 347.415 215.158 350.327C214.976 350.464 214.749 350.646 214.567 350.783C213.065 352.011 211.882 353.559 211.062 355.334L196.271 387.101C195.952 387.784 195.27 388.239 194.496 388.239H194.405C193.586 388.193 192.903 387.693 192.63 386.965L168.19 319.925C165.778 320.381 163.366 320.654 160.908 320.654L188.352 395.93C189.535 399.116 193.085 400.755 196.271 399.571C197.773 399.025 199.047 397.887 199.73 396.385L217.48 358.292C218.936 355.197 222.577 353.877 225.672 355.288L263.72 372.992C266.814 374.449 270.501 373.083 271.912 369.989C272.594 368.487 272.685 366.803 272.094 365.255L246.516 294.939C244.65 296.532 242.648 297.943 240.509 299.172L263.173 361.205Z" fill="#EAC9F8"/>
<path d="M194.404 388.239H194.495C195.269 388.239 195.952 387.784 196.27 387.101L211.062 355.334C211.881 353.559 213.064 352.011 214.566 350.782C214.748 350.646 214.93 350.464 215.158 350.327C219.072 347.369 224.488 346.959 229.266 349.189L260.488 363.708C261.489 364.163 262.672 363.753 263.127 362.752C263.355 362.297 263.355 361.751 263.173 361.25L240.553 299.172C239.689 299.673 238.778 300.128 237.868 300.583L259.532 359.976L230.541 346.504C224.761 343.819 218.162 344.365 213.383 348.006C213.155 348.188 212.928 348.37 212.7 348.552C210.88 350.054 209.423 351.966 208.422 354.105L194.632 383.642L171.148 319.243C170.192 319.516 169.191 319.743 168.189 319.925L192.629 386.964C192.902 387.693 193.631 388.193 194.404 388.239Z" fill="white"/>
<path d="M308.684 177.291C314.692 166.823 314.692 153.944 308.684 143.43L302.813 133.236C299.172 126.955 297.261 119.855 297.261 112.573V100.831C297.261 88.725 290.798 77.5746 280.33 71.5216L270.136 65.6505C263.855 62.0096 258.667 56.8212 255.026 50.5406L249.155 40.3459C243.102 29.8782 231.951 23.461 219.845 23.4155H208.103C200.866 23.4155 193.721 21.504 187.44 17.863L177.246 11.992C166.778 5.98444 153.898 5.98444 143.385 11.992L133.236 17.863C126.955 21.504 119.81 23.4155 112.573 23.4155H100.831C88.7251 23.4155 77.5747 29.8782 71.5216 40.3459L65.6506 50.5406C62.0096 56.8212 56.8213 62.0551 50.5406 65.6505L40.3459 71.5216C29.8782 77.5746 23.461 88.725 23.4155 100.831V112.573C23.4155 119.81 21.504 126.955 17.863 133.236L11.992 143.43C5.98443 153.898 5.98443 166.778 11.992 177.291L17.863 187.486C21.504 193.767 23.4155 200.866 23.4155 208.148V219.845C23.4155 231.951 29.8782 243.101 40.3459 249.154L50.5406 255.025C56.8213 258.666 62.0551 263.855 65.6506 270.135L71.5216 280.33C77.5747 290.798 88.7251 297.215 100.831 297.261H112.573C119.81 297.261 126.955 299.172 133.236 302.813L143.43 308.684C153.898 314.692 166.778 314.692 177.291 308.684L187.44 302.813C193.721 299.172 200.821 297.261 208.103 297.261H219.845C231.951 297.261 243.102 290.798 249.155 280.33L255.026 270.135C258.667 263.855 263.855 258.621 270.136 255.025L280.33 249.154C290.798 243.101 297.261 231.905 297.261 219.845V208.103C297.261 200.866 299.172 193.721 302.813 187.44L308.684 177.291ZM165.959 193.539L184.118 134.282C184.3 133.736 184.573 133.19 184.937 132.781C185.392 132.371 185.984 132.143 186.576 132.189H191.582C192.174 132.143 192.765 132.371 193.22 132.781C193.585 133.236 193.903 133.736 194.04 134.282L212.153 193.539C212.244 193.858 212.29 194.222 212.29 194.586C212.29 195.086 212.153 195.541 211.835 195.951C211.562 196.315 211.152 196.543 210.697 196.543H207.011C206.464 196.588 205.964 196.361 205.645 195.951C205.418 195.632 205.236 195.268 205.099 194.904L201.504 183.344C201.231 182.525 200.502 181.979 199.638 181.979H178.611C177.746 181.979 177.018 182.525 176.745 183.344L173.15 194.904C173.059 195.314 172.877 195.632 172.604 195.951C172.239 196.361 171.739 196.588 171.193 196.543H167.461C167.006 196.543 166.596 196.315 166.323 195.951C166.004 195.541 165.868 195.086 165.868 194.586C165.913 194.176 165.959 193.858 165.959 193.539ZM114.303 158.586L130.004 133.008C131.233 131.006 133.827 130.414 135.83 131.643C136.376 132.007 136.877 132.462 137.195 133.008L152.942 158.631C154.49 161.18 154.535 164.366 153.079 166.914L137.468 194.222C136.74 195.541 135.329 196.361 133.827 196.361C132.326 196.361 130.96 195.587 130.186 194.267L114.212 166.96C112.664 164.366 112.71 161.134 114.303 158.586ZM70.8844 171.466C69.9742 171.466 69.2005 172.194 69.2005 173.15V194.267C69.2005 194.859 69.064 195.405 68.6999 195.86C68.3813 196.27 67.8806 196.497 67.3345 196.497H63.466C62.9199 196.497 62.4192 196.27 62.1462 195.86C61.8276 195.405 61.691 194.859 61.691 194.267V138.151C61.691 134.829 64.3762 132.143 67.6986 132.143H82.1259C85.7668 132.143 88.9527 132.872 91.5924 134.373C94.2776 135.875 96.4621 138.196 97.8275 140.973C99.2839 143.885 100.058 147.526 100.058 151.896C100.058 156.265 99.3294 159.906 97.8275 162.773C96.4621 165.549 94.2776 167.825 91.5924 169.327C88.9072 170.783 85.7213 171.557 82.1259 171.557L70.8844 171.466ZM263.354 162.727C261.989 165.504 259.804 167.779 257.119 169.281C254.434 170.737 251.248 171.511 247.653 171.511H236.457C235.547 171.511 234.773 172.239 234.773 173.195V194.313C234.773 194.904 234.636 195.45 234.272 195.906C233.954 196.315 233.453 196.543 232.907 196.543H229.038C228.492 196.543 227.992 196.315 227.673 195.906C227.354 195.45 227.172 194.904 227.218 194.313V138.151C227.218 134.829 229.903 132.189 233.18 132.143H247.607C251.248 132.143 254.434 132.872 257.074 134.373C259.759 135.875 261.944 138.196 263.309 140.973C264.765 143.885 265.493 147.526 265.493 151.896C265.493 156.265 264.811 159.86 263.354 162.727Z" fill="white"/>
<path d="M236.456 163.547H247.288C250.838 163.547 253.569 162.546 255.344 160.543C257.119 158.541 258.029 155.628 258.029 151.805C258.029 147.982 257.164 145.115 255.435 143.112C253.705 141.11 250.975 140.018 247.334 140.018H236.547C235.592 140.018 234.818 140.791 234.818 141.747V161.727C234.727 162.774 235.501 163.547 236.456 163.547Z" fill="white"/>
<path d="M81.6707 140.062H70.8388C69.8831 140.062 69.1094 140.836 69.1094 141.792V161.772C69.1094 162.727 69.8831 163.501 70.8388 163.501H81.6707C85.2206 163.501 87.9513 162.5 89.7263 160.497C91.5012 158.495 92.4115 155.582 92.4115 151.805C92.4115 148.027 91.5468 145.114 89.8173 143.112C88.0878 141.109 85.3571 140.062 81.6707 140.062Z" fill="white"/>
<path d="M180.341 173.833H197.864C198.091 173.833 198.319 173.742 198.455 173.56C198.592 173.377 198.637 173.15 198.546 172.922L189.808 144.113C189.671 143.749 189.262 143.522 188.898 143.658C188.67 143.749 188.534 143.886 188.443 144.113L179.659 172.922C179.568 173.286 179.795 173.696 180.159 173.787C180.205 173.787 180.296 173.787 180.341 173.833Z" fill="white"/>
<path d="M315.147 139.699L309.276 129.504C306.318 124.361 304.725 118.536 304.725 112.574V100.832C304.68 86.0857 296.851 72.4322 284.063 65.0592L273.913 59.1882C268.771 56.2299 264.493 51.9518 261.534 46.809L255.663 36.6143C248.245 23.871 234.637 15.9974 219.891 15.9519H208.103C202.141 15.9519 196.316 14.359 191.173 11.4007L180.978 5.5297C168.189 -1.84323 152.442 -1.84323 139.653 5.5297L129.504 11.4007C124.361 14.359 118.536 15.9519 112.574 15.9519H100.832C86.0858 15.9519 72.4322 23.8255 65.0593 36.6143L59.1883 46.809C56.23 51.9518 51.9519 56.2299 46.809 59.1882L36.6143 65.0592C23.871 72.4322 15.9974 86.0857 15.9519 100.832V112.574C15.9519 118.536 14.359 124.361 11.4007 129.504L5.5297 139.699C-1.84323 152.488 -1.84323 168.235 5.5297 181.024L11.4007 191.173C14.359 196.316 15.9519 202.141 15.9519 208.103V219.845C15.9974 234.591 23.8255 248.245 36.6143 255.618L46.7635 261.534C51.9063 264.492 56.1845 268.77 59.1427 273.913L65.0138 284.108C68.7002 290.48 74.0251 295.759 80.4423 299.4C81.307 299.901 82.2173 300.356 83.1275 300.765C88.6345 303.405 94.6876 304.77 100.786 304.77H112.528C118.49 304.77 124.316 306.363 129.459 309.322L139.653 315.193C142.839 317.059 146.298 318.469 149.894 319.38C150.849 319.653 151.851 319.835 152.852 320.017C155.264 320.472 157.676 320.7 160.134 320.7H160.316H160.907C163.365 320.654 165.777 320.426 168.189 319.971C169.191 319.789 170.146 319.562 171.148 319.289C174.606 318.378 177.929 316.968 181.024 315.193L191.218 309.322C196.361 306.363 202.187 304.77 208.149 304.77H219.891C226.126 304.77 232.27 303.36 237.914 300.629C238.824 300.174 239.734 299.719 240.599 299.218C246.879 295.577 252.068 290.389 255.709 284.108L261.58 273.913C264.538 268.77 268.862 264.492 274.005 261.534L284.199 255.663C296.988 248.245 304.816 234.637 304.862 219.845V208.103C304.862 202.141 306.455 196.316 309.413 191.173L315.284 180.978C322.52 168.235 322.52 152.488 315.147 139.699ZM297.261 219.845C297.261 231.951 290.798 243.102 280.331 249.155L270.136 255.026C263.855 258.667 258.667 263.855 255.026 270.136L249.155 280.331C243.102 290.798 231.952 297.215 219.845 297.261H208.103C200.867 297.261 193.721 299.172 187.441 302.813L177.246 308.684C166.778 314.692 153.899 314.692 143.385 308.684L133.191 302.813C126.91 299.172 119.765 297.261 112.528 297.261H100.786C88.68 297.261 77.5296 290.798 71.4765 280.331L65.6054 270.136C61.9645 263.855 56.7761 258.621 50.4955 255.026L40.3008 249.155C29.8331 243.102 23.4159 231.906 23.3704 219.845V208.103C23.3704 200.867 21.4589 193.721 17.8179 187.441L11.9469 177.246C5.9393 166.778 5.9393 153.898 11.9469 143.385L17.8179 133.191C21.4589 126.91 23.3704 119.81 23.3704 112.528V100.786C23.3704 88.6799 29.8331 77.5295 40.3008 71.4764L50.4955 65.6054C56.7761 61.9644 62.01 56.7761 65.6054 50.4954L71.4765 40.3008C77.5296 29.833 88.68 23.4159 100.786 23.3704H112.528C119.765 23.3704 126.91 21.4589 133.191 17.8179L143.385 11.9469C153.853 5.9393 166.733 5.9393 177.246 11.9469L187.395 17.8179C193.676 21.4589 200.821 23.3704 208.058 23.3704H219.8C231.906 23.3704 243.056 29.833 249.109 40.3008L254.981 50.4954C258.621 56.7761 263.81 62.01 270.09 65.6054L280.285 71.4764C290.753 77.5295 297.17 88.6799 297.216 100.786V112.528C297.216 119.765 299.127 126.91 302.768 133.191L308.639 143.385C314.647 153.853 314.647 166.733 308.639 177.246L302.768 187.441C299.127 193.721 297.216 200.821 297.216 208.103V219.845H297.261Z" fill="#5E58A5"/>
<path d="M91.5459 169.282C94.2311 167.78 96.4156 165.504 97.781 162.728C99.2374 159.861 100.011 156.22 100.011 151.851C100.011 147.482 99.2829 143.841 97.781 140.928C96.4156 138.152 94.2311 135.831 91.5459 134.329C88.8607 132.872 85.6748 132.099 82.0794 132.099H67.6521C64.3297 132.099 61.6445 134.784 61.6445 138.106V194.268C61.6445 194.814 61.7811 195.406 62.0997 195.861C62.4182 196.27 62.9189 196.543 63.4195 196.498H67.288C67.8341 196.498 68.3348 196.27 68.6534 195.861C69.0175 195.406 69.154 194.86 69.154 194.268V173.15C69.154 172.24 69.8822 171.466 70.8379 171.466H82.0339C85.6748 171.466 88.8607 170.738 91.5459 169.282ZM92.4561 151.851C92.4561 155.628 91.5459 158.587 89.7709 160.589C87.9959 162.592 85.2652 163.593 81.7153 163.593H70.8834C69.9277 163.593 69.154 162.819 69.154 161.863V141.884C69.154 140.928 69.9277 140.154 70.8834 140.154H81.7153C85.3562 140.154 88.087 141.201 89.8164 143.249C91.5459 145.297 92.4106 148.119 92.4561 151.851Z" fill="#5E58A5"/>
<path d="M167.508 196.497H171.24C171.786 196.543 172.287 196.315 172.651 195.906C172.924 195.633 173.106 195.268 173.197 194.859L176.793 183.299C177.02 182.48 177.794 181.933 178.659 181.933H199.64C200.504 181.933 201.233 182.48 201.506 183.299L205.101 194.859C205.238 195.223 205.42 195.587 205.647 195.906C205.966 196.315 206.467 196.543 207.013 196.497H210.745C211.2 196.497 211.609 196.27 211.882 195.906C212.201 195.496 212.338 195.041 212.338 194.54C212.338 194.176 212.292 193.858 212.201 193.493L194.133 134.237C193.951 133.691 193.678 133.19 193.314 132.735C192.859 132.325 192.267 132.098 191.675 132.143H186.669C186.077 132.098 185.486 132.325 185.03 132.735C184.666 133.19 184.348 133.691 184.211 134.237L166.052 193.493C166.006 193.812 166.006 194.176 165.961 194.495C165.961 194.995 166.097 195.45 166.416 195.86C166.644 196.27 167.053 196.497 167.508 196.497ZM179.66 172.877L188.444 144.068C188.58 143.703 188.99 143.476 189.354 143.612C189.582 143.703 189.718 143.84 189.809 144.068L198.547 172.877C198.593 173.104 198.547 173.332 198.456 173.514C198.32 173.696 198.092 173.787 197.865 173.787H180.343C179.933 173.787 179.615 173.468 179.615 173.059C179.615 173.013 179.66 172.968 179.66 172.877Z" fill="#5E58A5"/>
<path d="M130.143 194.267C130.916 195.587 132.282 196.361 133.784 196.361C135.286 196.361 136.696 195.541 137.425 194.222L153.035 166.914C154.492 164.32 154.446 161.134 152.899 158.631L137.152 133.008C135.923 131.006 133.329 130.414 131.326 131.643C130.78 132.007 130.279 132.462 129.961 133.008L114.259 158.586C112.666 161.134 112.666 164.366 114.168 166.96L130.143 194.267ZM134.694 144.022L146.072 162.5C146.299 162.909 146.299 163.41 146.072 163.82L134.83 183.481C134.466 184.118 133.693 184.3 133.055 183.936C132.873 183.845 132.691 183.663 132.6 183.481L121.086 163.82C120.858 163.41 120.858 162.909 121.086 162.5L132.464 144.022C132.828 143.43 133.647 143.248 134.239 143.612C134.466 143.703 134.603 143.84 134.694 144.022Z" fill="#5E58A5"/>
<path d="M132.508 144.023L121.13 162.5C120.902 162.91 120.902 163.411 121.13 163.82L132.644 183.481C133.008 184.118 133.782 184.301 134.419 183.936C134.601 183.845 134.783 183.663 134.874 183.481L146.116 163.82C146.343 163.411 146.343 162.91 146.116 162.5L134.738 144.023C134.374 143.431 133.554 143.203 132.963 143.613C132.735 143.704 132.599 143.84 132.508 144.023Z" fill="white"/>
<path d="M257.119 134.374C254.434 132.917 251.248 132.144 247.653 132.144H233.225C229.903 132.144 227.218 134.829 227.218 138.151V194.267C227.172 194.813 227.354 195.405 227.673 195.86C227.992 196.27 228.492 196.543 229.038 196.497H232.907C233.453 196.497 233.954 196.27 234.272 195.86C234.636 195.405 234.773 194.859 234.773 194.267V173.15C234.773 172.24 235.501 171.466 236.457 171.466H247.653C251.294 171.466 254.479 170.738 257.119 169.236C259.804 167.734 261.989 165.458 263.354 162.682C264.811 159.815 265.539 156.174 265.539 151.805C265.539 147.436 264.811 143.795 263.354 140.882C261.989 138.151 259.804 135.876 257.119 134.374ZM234.727 141.838C234.727 140.882 235.501 140.108 236.457 140.108H247.289C250.93 140.108 253.66 141.155 255.39 143.203C257.119 145.251 257.984 148.164 257.984 151.896C257.984 155.628 257.074 158.631 255.299 160.634C253.524 162.637 250.839 163.638 247.243 163.638H236.457C235.501 163.638 234.727 162.864 234.727 161.908V141.838Z" fill="#5E58A5"/>
</svg>
