<svg width="1000" height="195" viewBox="0 0 1000 195" fill="none" xmlns="http://www.w3.org/2000/svg">
<g clip-path="url(#clip0_407_12)">
<path d="M155.545 0L94.6571 34.9421V143.998L61.0619 163.457L27.2615 143.983V105.047L61.0619 85.7612L82.7954 98.3556V66.854L60.8725 54.4175L0 89.7543V159.654L61.0778 194.801L121.95 159.654V50.614L155.75 31.1386L189.536 50.614V89.3754L155.75 109.024L133.828 96.3197V127.663L155.545 140.178L217.018 105.237V34.9421L155.545 0Z" fill="#6C00F6"/>
<path fill-rule="evenodd" clip-rule="evenodd" d="M512.772 151.399H540.065V1.90918H512.772V151.399ZM337.309 45.137C350.245 45.137 360.97 50.3294 369.452 60.6985C377.949 71.0674 382.182 83.9301 382.182 99.2863C382.182 114.642 377.933 127.505 369.452 137.874C360.954 148.243 350.245 153.435 337.309 153.435C328.149 153.435 320.188 150.611 313.459 144.945C306.857 139.152 302.008 131.34 298.897 121.508V191.802H271.604V47.1572H298.897V77.0489C301.993 67.2165 306.857 59.4674 313.459 53.8174C320.204 48.0252 328.149 45.137 337.309 45.137ZM327.39 128.578C334.797 128.578 341.069 125.817 346.187 120.293C351.303 114.642 353.862 107.635 353.862 99.2863C353.862 90.9374 351.303 84.1984 346.187 78.6745C341.069 73.0244 334.797 70.1836 327.39 70.1836C319.161 70.1836 312.37 72.9455 306.968 78.4694C301.582 83.9932 298.881 90.9216 298.881 99.2705C298.881 107.619 301.582 114.627 306.968 120.277C312.354 125.801 319.161 128.563 327.39 128.563V128.578ZM389.431 99.2863C389.431 114.642 394.754 127.505 405.4 137.874C416.046 148.243 429.328 153.435 445.234 153.435C461.139 153.435 474.423 148.243 485.068 137.874C495.714 127.505 501.036 114.642 501.036 99.2863C501.036 83.9301 495.714 71.0674 485.068 60.6985C474.423 50.3294 461.139 45.137 445.234 45.137C429.328 45.137 416.046 50.3294 405.4 60.6985C394.754 71.0674 389.431 83.9301 389.431 99.2863ZM425.617 120.293C420.357 114.642 417.736 107.635 417.736 99.2863C417.736 90.9374 420.357 84.1984 425.617 78.6745C430.876 73.0244 437.416 70.1836 445.234 70.1836C453.052 70.1836 459.591 72.9455 464.851 78.4694C470.11 83.9932 472.732 90.9216 472.732 99.2705C472.732 107.619 470.11 114.627 464.851 120.277C459.591 125.801 453.052 128.563 445.234 128.563C437.416 128.563 430.876 125.801 425.617 120.277V120.293ZM792.21 137.874C781.565 127.505 776.241 114.642 776.241 99.2863C776.241 83.9301 781.565 71.0674 792.21 60.6985C802.856 50.3294 816.139 45.137 832.044 45.137C847.949 45.137 861.233 50.3294 871.877 60.6985C882.524 71.0674 887.846 83.9301 887.846 99.2863C887.846 114.642 882.524 127.505 871.877 137.874C861.233 148.243 847.949 153.435 832.044 153.435C816.139 153.435 802.871 148.243 792.21 137.874ZM804.53 99.2863C804.53 107.635 807.151 114.642 812.411 120.293C817.671 125.817 824.21 128.578 832.028 128.578C839.846 128.578 846.385 125.817 851.645 120.293C856.904 114.642 859.527 107.635 859.527 99.2863C859.527 90.9374 856.904 83.9932 851.645 78.4851C846.385 72.9613 839.846 70.1994 832.028 70.1994C824.21 70.1994 817.671 73.0244 812.411 78.6903C807.151 84.2141 804.53 91.0795 804.53 99.302V99.2863ZM960.486 45.137C972.079 45.137 981.382 49.1773 988.379 57.2579C995.519 65.3385 999.087 75.6443 999.087 88.1597V151.384H971.795V93.0049C971.795 86.2659 969.647 80.742 965.319 76.4334C961.007 72.1248 955.62 69.9627 949.145 69.9627C941.864 69.9627 935.941 72.1248 931.36 76.4334C926.781 80.742 924.49 86.2659 924.49 93.0049V151.384H897.196V47.1572H924.49V73.8293C927.19 64.9439 931.708 57.9365 938.041 52.823C944.517 47.7095 951.988 45.1528 960.486 45.1528V45.137ZM605.628 123.607L633.521 47.2518H661.225L603.812 191.897H576.108L590.67 155.124L548.01 47.2518H577.53L605.628 123.607ZM738.84 47.1572V73.2769C733.154 56.232 719.113 47.1572 700.428 47.1572C672.218 47.1572 655.539 71.7776 655.539 97.6606C655.539 123.544 672.092 150.185 700.428 150.185C719.113 150.185 733.154 136.722 738.84 119.677V139.673C738.84 148.164 736.076 155.155 730.548 160.68C725.019 166.204 718.291 168.965 710.331 168.965C699.543 168.965 691.536 163.584 686.275 152.804L661.81 165.73C666.39 174.221 672.93 181.007 681.427 186.136C689.924 191.25 699.559 193.807 710.331 193.807C726.236 193.807 739.519 188.63 750.165 178.245C760.811 167.876 766.133 155.014 766.133 139.657V47.1572H738.84ZM730.959 117.468C725.699 122.724 719.097 125.343 711.153 125.343C703.207 125.343 697 122.724 691.74 117.468C686.481 112.086 683.859 105.489 683.859 97.6765C683.859 89.8642 686.481 83.3303 691.74 78.0748C697 72.8192 703.46 70.1994 711.153 70.1994C718.844 70.1994 725.715 72.8192 730.959 78.0748C736.218 83.1883 738.84 89.7222 738.84 97.6765C738.84 105.631 736.218 112.228 730.959 117.468Z" fill="black"/>
</g>
<defs>
<clipPath id="clip0_407_12">
<rect width="1000" height="195" fill="white"/>
</clipPath>
</defs>
</svg>
