<svg width="603" height="400" viewBox="0 0 603 400" fill="none" xmlns="http://www.w3.org/2000/svg">
<path d="M376.363 397.009C350.73 402.254 326.17 400.755 302.35 391.294C273.831 379.968 251.502 361.231 236.751 334.176C227.578 317.352 215.289 304.889 196.027 300.415C185.369 297.94 175.014 298.964 164.633 301.915C90.9119 322.875 16.7854 277.435 2.27949 202.445C-11.8173 129.569 41.1341 58.9442 115.088 51.7009C141.141 49.1492 165.791 53.4256 188.602 66.2476C212.368 79.6066 234.898 79.1524 259.399 66.3019C306.432 41.6349 352.652 45.8141 396.091 76.2613C418.103 91.6904 428.143 91.9978 451.437 78.3381C461.709 72.3148 473.031 66.9247 484.559 64.5318C495.745 62.2096 507.911 63.1441 519.448 64.4301C528.93 65.4871 538.931 67.594 547.302 71.9355C585.177 91.5793 605.585 127.28 601.719 166.966C597.266 212.687 567.98 244.548 524.538 253.956C497.746 259.758 480.632 275.49 473.244 302.245C459.447 352.213 426.968 383.528 376.363 397.009ZM390.327 315.772C390.327 315.772 390.184 315.764 390.874 315.376C391.177 314.95 391.481 314.525 391.792 314.239C391.792 314.239 391.652 314.228 392.681 314.179C399.234 311.25 397.089 306.901 394.002 301.775C393.744 300.253 393.487 298.732 392.92 296.412C392.535 295.997 392.15 295.581 391.92 295.181C391.92 295.181 391.902 295.337 391.509 294.668C391.114 294.341 390.719 294.014 390.424 293.685C390.424 293.685 390.4 293.783 390.388 292.718C387.133 287.424 378.474 287.372 374.343 292.421C374.343 292.421 374.55 292.56 373.65 292.405C372.946 293.426 372.242 294.446 371.516 295.348C371.516 295.348 371.636 295.357 370.842 295.828C370.505 296.656 370.169 297.484 369.792 298.209C369.792 298.209 369.898 298.179 369.114 298.998C369.149 303.127 364.907 307.532 369.795 311.343C369.795 311.343 369.838 311.238 369.962 312.159C370.593 312.769 371.223 313.378 371.636 314.006C371.636 314.006 371.664 313.789 371.839 314.778C373.143 315.629 374.447 316.48 375.668 317.383C375.668 317.383 375.657 317.286 376.204 318.224C380.858 322.015 384.879 320.36 388.677 317.027C388.677 317.027 388.427 316.993 389.202 316.762C389.575 316.385 389.947 316.007 390.327 315.772ZM322.65 173.826C322.65 173.826 322.789 173.821 321.903 174.397C321.653 175.735 321.402 177.073 320.999 178.186C320.999 178.186 321.214 178.353 320.065 177.858C319.312 174.692 318.413 171.553 317.839 168.356C316.732 162.203 315.809 156.018 314.227 149.003C312.027 143.11 308.488 138.742 301.539 140.829C294.65 142.898 295.556 148.939 295.875 154.384C295.932 155.359 296.229 156.325 296.457 157.285C299.359 169.483 297.92 181.046 292.948 192.657C289.696 200.252 287.697 208.542 286.287 216.72C285.107 223.567 287.912 229.455 295.044 232.057C303.15 235.014 310.97 235.507 318.447 228.468C320.304 229.389 322.16 230.311 323.902 231.207C323.902 231.207 323.944 231.098 323.953 232.016C324.449 232.743 324.944 233.469 326.088 234.48C326.47 234.803 326.679 235.214 327.089 236.376C327.495 236.671 327.9 236.967 329.266 237.582C329.492 237.833 329.718 238.083 330.048 238.503C330.048 238.503 330.401 238.634 331.196 238.681C331.666 238.913 332.136 239.146 333.188 240.331C335.962 240.472 338.736 240.612 342.501 240.583C343.166 240.65 343.831 240.718 345.207 241.238C346.437 240.908 347.668 240.579 348.925 240.274C348.925 240.274 348.914 240.244 350.074 240.286C354.29 240.341 356.616 238.536 356.268 233.23C356.675 232.558 357.081 231.887 358.411 230.569C359.552 225.616 360.694 220.663 361.887 215.484C362.891 216.701 364.031 218.084 365.72 220.389C373.226 240.67 382.03 245.741 402.888 242.074C410.789 240.685 415.754 235.997 418.158 228.704C422.862 214.431 415.831 204.346 400.76 203.089C398.617 202.91 395.833 202.556 394.592 201.169C392.478 198.805 390.691 195.662 390.208 192.618C390.058 191.676 394.475 189.682 397.015 188.753C398.785 188.105 401.281 189.087 402.813 188.216C405.698 186.576 410.001 184.31 410.235 181.958C410.495 179.34 407.384 175.66 404.788 173.713C402.683 172.136 399.133 172.581 396.289 171.869C393.807 171.247 391.417 170.261 388.986 169.436C389.152 168.756 389.318 168.076 389.484 167.396C391.903 167.396 394.322 167.427 396.74 167.387C399.204 167.346 401.72 167.531 404.121 167.1C410.655 165.928 412.534 160.655 407.923 155.928C405.952 153.907 403.179 152.265 400.469 151.438C388.884 147.903 378.51 149.801 371.61 158.275C368.534 155.643 365.662 151.29 363.093 151.461C359.773 151.683 355.44 154.842 353.768 157.938C349.938 165.026 347.553 172.884 344.385 180.347C343.17 183.209 341.421 185.845 339.915 188.585C339.321 188.348 338.727 188.111 338.133 187.875C338.133 185.745 338.096 183.614 338.14 181.485C338.241 176.553 338.914 171.553 338.298 166.716C337.949 163.979 335.508 161.509 334.01 158.919C331.595 160.615 328.83 161.988 326.878 164.109C325.303 165.821 324.709 168.436 323.069 171.322C322.944 172.2 322.818 173.079 322.65 173.826ZM497.873 223.326C498.653 220.222 499.292 217.072 500.282 214.037C500.694 212.772 501.853 211.751 503.158 211.142C503.158 211.142 503.35 211.829 503.571 212.488C503.811 212.889 504.103 213.247 504.909 214.546C515.034 220.764 522.86 214.335 530.814 209.6C538.059 205.288 537.636 198.539 536.197 190.779C536.699 190.35 537.2 189.92 538.682 189.784C550.292 199.277 555.226 199.837 565.173 192.785C571.729 188.137 572.576 184.01 568.239 177.076C563.058 168.792 554.796 166.092 545.756 164.766C542.951 164.355 540.198 163.593 537.375 162.982C541.43 148.762 536.709 134.105 525.403 125.614C515.546 118.212 505.31 119.084 494.935 124.736C489.855 127.504 484.376 129.598 479.526 132.698C477.383 134.067 475.1 137.174 475.094 139.499C475.083 143.503 475.868 148.101 477.956 151.42C487.747 166.978 496.173 182.996 498.696 202.566C497.613 203.834 496.529 205.103 494.562 205.764C493.068 202.784 491.946 199.534 490.015 196.872C482.528 186.55 474.708 176.47 467.162 166.19C462.654 160.049 458.874 153.323 453.962 147.543C447.461 139.895 437.613 141.593 434.037 151.021C431.979 156.448 431.112 162.465 430.563 168.297C429.269 182.036 428.496 195.823 427.496 209.589C426.997 216.463 425.907 223.349 426.092 230.202C426.306 238.138 430.76 241.089 438.374 239.424C442.221 238.583 446.065 237.719 449.888 236.774C460.386 234.181 462.54 230.938 459.012 220.446C456.088 211.752 452.025 203.44 447.966 193.768C451.861 192.794 455.555 191.87 458.859 191.043C461.516 201.901 463.356 211.693 466.482 221.055C467.701 224.705 472.116 230.239 474.557 229.983C482.152 229.185 489.5 226.025 497.873 223.326ZM259.573 218.028C260.687 217.949 261.8 217.87 264.009 217.903C266.046 215.958 269.705 214.133 269.86 212.048C271.003 196.713 270.211 181.611 259.712 167.854C257.83 166.721 255.949 165.589 253.365 163.723C251.232 162.964 249.1 162.204 246.175 161.162C249.078 158.872 251.115 157.143 253.274 155.585C258.612 151.734 264.309 148.315 269.299 144.063C274.851 139.331 275.021 133.543 270.235 126.45C268.288 125.804 266.342 125.159 263.286 124.174C252.775 126.223 248.247 135.236 241.357 142.386C241.108 142.396 240.858 142.406 239.977 141.477C240.455 138.052 240.897 134.621 241.419 131.203C242.278 125.567 243.552 119.803 235.615 116.675C234.828 116.602 234.041 116.529 232.351 116.107C231.162 116.512 229.974 116.917 227.931 117.296C227.548 117.693 227.166 118.09 225.996 118.797C225.434 119.736 224.871 120.674 223.459 122.182C222.844 124.457 222.23 126.733 221.263 130.225C221.707 145.301 217.802 158.962 207.257 171.266C205.523 174.489 203.79 177.712 201.244 181.557C200.502 181.386 199.177 181.346 199.104 181.024C196.72 170.498 192.729 167.048 181.974 166.12C178.302 165.803 174.289 165.929 171.108 164.424C167.826 162.872 164.066 160.112 162.775 156.956C157.061 142.991 167.244 128.967 182.394 129.149C189.671 129.236 193.376 126.278 193.072 120.187C192.726 113.23 187.505 111.839 182.069 111.994C171.736 112.287 162.893 116.307 156.174 124.351C141.839 141.514 139.164 170.221 150.017 189.875C155.532 199.86 164.059 204.689 175.443 204.683C186.055 204.677 193.979 200.439 198.255 190.11C202.931 202.967 213.144 209.706 223.808 207.244C233.362 205.039 238.609 194.147 236.696 180.618C236.342 178.113 236.213 175.575 235.953 172.761C245.833 175.296 247.239 177.456 244.932 185.812C243.821 189.839 241.988 193.726 241.365 197.812C240.726 202.011 241.164 206.374 241.133 211.243C241.338 211.635 241.66 211.805 242.628 212.72C247.914 214.39 253.201 216.059 259.573 218.028ZM53.8543 195.319C50.5286 198.238 45.5996 200.552 44.2207 204.206C41.5849 211.19 45.7536 217.052 51.1274 221.557C62.3747 230.985 78.7683 231.279 93.301 222.438C101.755 217.295 106.479 209.941 105.967 199.81C105.446 189.491 100.299 181.892 90.944 177.907C84.6686 175.233 77.8354 173.816 71.1864 172.089C65.9515 170.729 60.4427 170.231 55.4031 168.396C53.0468 167.538 50.0425 164.443 50.0176 162.33C49.9928 160.216 52.9694 157.5 55.2671 156.074C57.9086 154.435 61.2587 153.952 64.2833 152.915C68.2925 151.54 72.8686 150.359 71.7613 144.665C70.644 138.92 65.7456 136.649 61.1198 138.116C53.3355 140.586 45.0019 143.344 38.7892 148.334C25.0441 159.374 28.0727 177.649 44.1938 184.756C50.4584 187.518 57.3121 188.916 63.7898 191.236C66.2214 192.106 68.3476 193.83 70.6131 195.164C70.3395 195.871 70.066 196.578 69.7924 197.285C64.8516 196.566 59.9108 195.848 53.8543 195.319ZM144.64 197.821C141.421 189.43 138.474 180.921 134.911 172.679C130.841 163.265 125.972 154.194 121.939 144.765C119.663 139.444 116.505 136.453 110.679 138.145C105.024 139.787 104.743 143.993 105.261 149.305C106.491 161.942 106.902 174.657 107.712 187.337C108.009 191.999 108.076 196.732 108.982 201.287C110.896 210.9 115.938 213.9 125.546 211.675C129.135 210.845 132.723 209.986 136.256 208.95C141.155 207.513 144.522 204.648 144.64 197.821ZM304.371 311.814C305.322 312.943 306.138 314.229 307.246 315.173C312.498 319.651 321.533 318.542 325.575 313.008C330.198 306.678 328.433 296.692 321.981 292.677C315.827 288.847 307.102 290.951 304.458 297.87C303.006 301.669 303.986 306.396 304.371 311.814ZM102.596 131.537C104.648 132.146 107.032 133.717 108.678 133.148C111.424 132.2 114.482 130.352 115.901 127.981C116.88 126.343 116.159 122.076 114.695 120.968C112.505 119.31 108.846 118.48 106.078 118.932C100.526 119.838 99.0287 124.708 102.596 131.537Z" fill="#BFFC73"/>
<path d="M233.137 18.151C239.905 32.5219 237.11 45.6789 225.777 54.3668C215.91 61.9307 202.433 61.4764 192.297 53.2383C180.094 43.3196 178.61 25.2047 189.061 13.7428C199.782 1.98552 217.493 1.39411 228.701 12.4879C230.27 14.0402 231.517 15.9169 233.137 18.151Z" fill="#BFFA74"/>
<path d="M520.855 293.273C535.491 287.411 547.842 290.739 555.183 302.09C561.612 312.03 559.795 326.192 551.014 334.57C540.02 345.062 522.687 343.862 512.962 331.935C503.151 319.902 506.372 303.274 520.855 293.273Z" fill="#BFFA74"/>
<path d="M392.693 18.6644C390.23 28.7892 384.44 33.3622 375.367 32.7792C367.214 32.2553 360.889 26.1431 360.333 18.251C359.735 9.76199 364.769 2.58286 372.792 0.484148C382.681 -2.10303 391.82 5.92591 392.693 18.6644Z" fill="#BEF775"/>
<path d="M317.419 228.279C310.971 235.507 303.151 235.014 295.045 232.056C287.913 229.454 285.108 223.567 286.288 216.719C287.698 208.542 289.697 200.251 292.95 192.656C297.922 181.045 299.36 169.482 296.458 157.285C296.23 156.324 295.933 155.359 295.876 154.383C295.558 148.938 294.651 142.898 301.54 140.829C308.489 138.741 312.028 143.11 314.475 150.058C315.529 161.634 316.335 172.155 317.142 182.676C317.776 182.791 318.411 182.906 319.045 183.02C319.769 181.464 320.492 179.908 321.216 178.352C321.216 178.352 321 178.185 321.451 177.96C322.198 176.43 322.494 175.125 322.79 173.82C322.79 173.82 322.651 173.825 323.001 173.575C323.461 172.434 323.571 171.542 323.681 170.65C324.71 168.436 325.304 165.821 326.879 164.109C328.831 161.987 331.597 160.615 334.011 158.918C335.509 161.509 337.95 163.979 338.299 166.716C338.915 171.553 338.242 176.552 338.141 181.484C338.098 183.613 338.134 185.744 338.134 187.874C338.728 188.111 339.322 188.348 339.916 188.584C341.422 185.845 343.171 183.209 344.386 180.346C347.554 172.884 349.939 165.026 353.769 157.937C355.441 154.841 359.775 151.682 363.094 151.461C365.663 151.289 368.535 155.642 371.611 158.274C378.512 149.801 388.885 147.903 400.47 151.437C403.18 152.264 405.953 153.907 407.925 155.928C412.535 160.654 410.657 165.927 404.122 167.099C401.721 167.53 399.205 167.346 396.741 167.386C394.323 167.426 391.904 167.395 389.485 167.395C389.319 168.075 389.153 168.755 388.987 169.436C391.418 170.261 393.808 171.246 396.29 171.868C399.134 172.58 402.685 172.135 404.789 173.713C407.385 175.659 410.496 179.339 410.236 181.957C410.002 184.309 405.7 186.575 402.814 188.216C401.282 189.087 398.786 188.105 397.016 188.752C394.476 189.682 390.059 191.675 390.209 192.617C390.692 195.661 392.479 198.805 394.593 201.168C395.835 202.556 398.618 202.91 400.761 203.089C415.833 204.345 422.863 214.431 418.159 228.703C415.755 235.997 410.79 240.684 402.89 242.073C382.031 245.741 373.228 240.669 365.497 219.312C363.982 207.747 362.691 197.258 361.401 186.77C361.026 186.74 360.652 186.71 360.277 186.681C359.348 201.525 358.418 216.37 357.489 231.215C357.082 231.886 356.676 232.558 355.824 233.892C353.225 236.451 351.07 238.347 348.915 240.244C348.915 240.244 348.926 240.273 348.354 240.232C346.687 240.389 345.593 240.587 344.498 240.785C343.833 240.717 343.167 240.65 341.387 240.485C337.717 240.052 335.162 239.715 332.607 239.378C332.137 239.145 331.667 238.913 330.83 238.507C330.463 238.333 329.945 238.333 329.945 238.333C329.719 238.083 329.493 237.832 328.643 237.056C327.584 236.258 327.149 235.986 326.715 235.714C326.68 235.214 326.471 234.803 325.703 233.893C324.859 232.571 324.402 231.834 323.945 231.097C323.945 231.097 323.903 231.207 323.93 230.642C323.447 227.95 322.936 225.822 322.007 221.954C319.75 225.065 318.584 226.672 317.419 228.279Z" fill="#030603"/>
<path d="M208.084 170.731C217.803 158.962 221.708 145.301 221.819 129.351C223.019 126.19 223.664 123.901 224.309 121.613C224.871 120.674 225.434 119.736 226.762 118.518C227.947 117.933 228.366 117.627 228.786 117.321C229.974 116.917 231.163 116.512 232.922 116.605C234.391 117.156 235.29 117.211 236.188 117.265C243.553 119.803 242.279 125.567 241.419 131.203C240.898 134.621 240.455 138.052 240.141 142.233C241.017 143.519 241.73 144.049 242.443 144.579C242.331 143.843 242.219 143.108 242.107 142.372C248.247 135.236 252.775 126.223 263.928 124.831C266.623 126.121 268.678 126.754 270.733 127.387C275.022 133.543 274.851 139.331 269.299 144.062C264.309 148.315 258.613 151.734 253.275 155.585C251.115 157.143 249.078 158.872 246.175 161.162C249.1 162.204 251.233 162.964 253.822 164.453C255.225 168.174 256.173 171.165 257.121 174.157C257.853 173.965 258.585 173.774 259.317 173.582C259.568 171.971 259.819 170.359 260.07 168.747C270.211 181.611 271.003 196.713 269.861 212.048C269.705 214.133 266.046 215.958 263.519 217.41C261.255 215.243 259.481 213.569 257.707 211.895C257.4 212.31 257.093 212.726 256.786 213.141C257.353 214.67 257.92 216.199 258.488 217.728C253.201 216.059 247.915 214.39 242.23 212.031C241.632 211.082 241.398 210.856 241.131 210.665C241.165 206.374 240.726 202.011 241.366 197.812C241.988 193.726 243.821 189.839 244.933 185.812C247.239 177.456 245.834 175.296 235.953 172.761C236.213 175.575 236.343 178.113 236.697 180.618C238.61 194.147 233.362 205.039 223.808 207.244C213.145 209.706 202.932 202.967 198.256 190.11C193.979 200.439 186.056 204.677 175.443 204.683C164.06 204.689 155.532 199.86 150.018 189.875C139.164 170.221 141.84 141.514 156.174 124.351C162.893 116.307 171.736 112.287 182.069 111.994C187.506 111.839 192.726 113.23 193.073 120.187C193.376 126.278 189.672 129.236 182.395 129.149C167.245 128.967 157.062 142.991 162.776 156.956C164.067 160.112 167.827 162.872 171.108 164.424C174.289 165.929 178.303 165.803 181.974 166.12C192.729 167.048 196.721 170.498 199.104 181.024C199.178 181.346 200.503 181.386 202.245 181.238C210.827 180.356 207.04 174.396 208.084 170.731ZM251.079 140.056C252.501 138.548 253.923 137.041 255.346 135.533C254.448 135.043 253.551 134.553 252.653 134.063C251.911 135.853 251.169 137.643 251.079 140.056ZM213.523 198.389C212.999 196.764 212.475 195.14 211.951 193.515C211.233 193.902 210.515 194.288 209.797 194.674C210.852 196.124 211.907 197.574 213.523 198.389ZM242.879 167.695C244.018 167.271 245.157 166.847 246.296 166.422C245.893 165.681 245.49 164.939 245.088 164.197C244.258 165.074 243.429 165.951 242.879 167.695ZM229.804 194.027C229.804 195.21 229.804 196.392 229.804 197.575C230.398 197.46 230.991 197.346 231.584 197.232C231.152 195.957 230.72 194.681 229.804 194.027ZM232.641 166.889C232.148 167.558 231.655 168.226 231.162 168.895C231.685 169.139 232.207 169.384 232.73 169.628C232.952 168.74 233.173 167.852 232.641 166.889ZM204.453 189.829C204.288 189.205 204.124 188.582 203.959 187.958C203.546 188.111 203.134 188.264 202.721 188.417C203.121 189.047 203.521 189.676 204.453 189.829ZM263.108 143.027C263.14 142.642 263.172 142.257 263.204 141.872C262.986 141.867 262.768 141.862 262.55 141.856C262.565 142.242 262.58 142.629 263.108 143.027ZM209.326 183.284C209.294 183.668 209.262 184.053 209.23 184.438C209.448 184.443 209.666 184.449 209.884 184.454C209.869 184.068 209.854 183.682 209.326 183.284ZM243.313 153.354C243.611 153.108 243.908 152.862 244.206 152.616C244.058 152.456 243.91 152.297 243.762 152.137C243.497 152.419 243.232 152.7 243.313 153.354Z" fill="#040703"/>
<path d="M503.35 211.83C503.35 211.83 503.158 211.142 502.81 210.388C501.264 206.914 500.064 204.194 498.865 201.473C496.172 182.996 487.747 166.978 477.956 151.42C475.868 148.102 475.083 143.504 475.094 139.499C475.1 137.175 477.382 134.068 479.526 132.698C484.376 129.599 489.855 127.504 494.935 124.737C505.31 119.084 515.546 118.213 525.403 125.615C536.709 134.105 541.43 148.763 537.375 162.982C540.197 163.593 542.951 164.356 545.756 164.767C554.796 166.092 563.058 168.793 568.239 177.077C572.575 184.01 571.729 188.138 565.173 192.786C555.226 199.837 550.292 199.278 538.209 189.118C532.166 183.928 526.597 179.405 521.028 174.881C520.439 175.603 519.849 176.324 519.259 177.046C524.699 181.882 530.138 186.718 535.578 191.555C537.636 198.539 538.059 205.288 530.814 209.601C522.86 214.335 515.033 220.764 504.75 213.657C504.177 212.455 503.763 212.143 503.35 211.83ZM507.068 148.348C510.109 151.209 514.457 154.262 516.368 149.02C517.464 146.011 514.246 140.686 511.697 137.386C510.279 135.549 506.25 135.728 503.398 134.999C503.814 138.364 504.142 141.743 504.708 145.083C504.857 145.965 505.741 146.723 507.068 148.348Z" fill="#040703"/>
<path d="M496.943 223.781C489.499 226.025 482.152 229.185 474.556 229.983C472.115 230.239 467.7 224.705 466.481 221.055C463.355 211.693 461.515 201.901 458.858 191.043C455.555 191.87 451.86 192.794 447.966 193.768C452.024 203.441 456.087 211.752 459.011 220.446C462.54 230.938 460.385 234.181 449.888 236.775C446.064 237.719 442.22 238.583 438.373 239.424C430.759 241.089 426.305 238.138 426.091 230.202C425.907 223.349 426.996 216.463 427.495 209.589C428.495 195.823 429.268 182.036 430.562 168.297C431.111 162.465 431.979 156.448 434.037 151.021C437.612 141.594 447.46 139.895 453.961 147.544C458.873 153.323 462.653 160.049 467.161 166.19C474.707 176.47 482.527 186.55 490.014 196.872C491.946 199.534 493.067 202.784 495.117 206.666C496.096 212.972 496.519 218.377 496.943 223.781ZM442.572 163.252C443.009 167.378 442.813 171.729 444.161 175.533C444.796 177.327 448.727 179.403 450.556 178.941C452.625 178.419 455.82 174.604 455.378 173.242C453.511 167.492 450.473 162.123 447.863 156.615C447.042 156.809 446.221 157.003 445.4 157.198C444.525 158.822 443.649 160.447 442.572 163.252Z" fill="#040703"/>
<path d="M54.4128 195.223C59.9114 195.847 64.8522 196.565 69.793 197.284C70.0666 196.577 70.3401 195.87 70.6137 195.163C68.3482 193.829 66.222 192.105 63.7904 191.235C57.3127 188.915 50.459 187.517 44.1944 184.755C28.0733 177.649 25.0447 159.374 38.7898 148.334C45.0025 143.344 53.3361 140.585 61.1204 138.116C65.7462 136.648 70.6446 138.919 71.7619 144.664C72.8692 150.358 68.2931 151.539 64.2839 152.914C61.2593 153.951 57.9092 154.435 55.2677 156.073C52.97 157.499 49.9934 160.215 50.0182 162.329C50.0431 164.442 53.0474 167.537 55.4037 168.395C60.4433 170.23 65.9521 170.728 71.187 172.088C77.836 173.816 84.6692 175.233 90.9446 177.906C100.3 181.891 105.447 189.49 105.968 199.809C106.48 209.941 101.756 217.294 93.3016 222.437C78.7689 231.278 62.3753 230.985 51.128 221.556C45.7542 217.051 41.5855 211.189 44.2213 204.205C45.6002 200.551 50.5292 198.237 54.4128 195.223Z" fill="#040703"/>
<path d="M144.63 198.451C144.521 204.649 141.154 207.514 136.255 208.951C132.723 209.987 129.134 210.845 125.546 211.676C115.938 213.9 110.896 210.901 108.982 201.287C108.075 196.733 108.009 191.999 107.711 187.338C106.902 174.658 106.49 161.942 105.26 149.305C104.743 143.993 105.024 139.788 110.679 138.145C116.505 136.453 119.663 139.444 121.939 144.766C125.972 154.195 130.84 163.265 134.91 172.68C138.474 180.922 141.42 189.43 144.63 198.451Z" fill="#040703"/>
<path d="M304.12 311.26C303.985 306.397 303.005 301.669 304.457 297.871C307.101 290.951 315.826 288.848 321.98 292.677C328.432 296.692 330.197 306.679 325.574 313.009C321.532 318.542 312.497 319.651 307.245 315.174C306.138 314.229 305.321 312.943 304.12 311.26Z" fill="#050A03"/>
<path d="M393.23 297.211C393.487 298.733 393.745 300.254 394.194 302.691C393.475 307.147 392.564 310.688 391.653 314.229C391.653 314.229 391.792 314.239 391.408 314.321C390.744 314.857 390.464 315.311 390.184 315.764C390.184 315.764 390.327 315.772 389.934 315.822C389.17 316.246 388.799 316.62 388.427 316.994C388.427 316.994 388.677 317.027 388.044 317.077C383.492 317.179 379.575 317.233 375.657 317.287C375.657 317.287 375.668 317.384 375.448 316.986C374.04 315.655 372.852 314.723 371.664 313.79C371.664 313.79 371.636 314.006 371.585 313.588C370.969 312.526 370.404 311.882 369.838 311.239C369.838 311.239 369.795 311.344 369.801 310.687C369.838 306.08 369.868 302.13 369.898 298.18C369.898 298.18 369.793 298.21 370.171 297.998C370.912 296.976 371.274 296.167 371.637 295.358C371.637 295.358 371.516 295.349 371.919 295.231C373.064 294.263 373.807 293.412 374.55 292.56C374.55 292.56 374.343 292.422 374.962 292.385C380.521 292.827 385.461 293.305 390.4 293.784C390.4 293.784 390.424 293.686 390.5 294.074C391.018 294.753 391.46 295.045 391.902 295.337C391.902 295.337 391.921 295.182 391.947 295.606C392.392 296.424 392.811 296.818 393.23 297.211Z" fill="#060B04"/>
<path d="M102.185 131.135C99.0278 124.709 100.525 119.839 106.077 118.933C108.845 118.481 112.504 119.31 114.694 120.968C116.158 122.077 116.88 126.344 115.9 127.981C114.482 130.353 111.424 132.2 108.677 133.149C107.032 133.717 104.647 132.147 102.185 131.135Z" fill="#0A1206"/>
<path d="M357.947 230.893C358.415 216.371 359.345 201.526 360.274 186.682C360.649 186.711 361.023 186.741 361.398 186.771C362.688 197.259 363.979 207.748 365.219 218.852C364.029 218.085 362.889 216.702 361.885 215.484C360.692 220.663 359.55 225.616 357.947 230.893Z" fill="#B9E581"/>
<path d="M535.886 191.167C530.137 186.718 524.697 181.882 519.258 177.046C519.848 176.324 520.437 175.603 521.027 174.881C526.596 179.405 532.165 183.928 537.717 188.971C537.199 189.92 536.697 190.35 535.886 191.167Z" fill="#B3D580"/>
<path d="M497.407 223.553C496.519 218.377 496.096 212.972 495.559 206.97C496.528 205.103 497.612 203.834 498.78 202.02C500.064 204.193 501.263 206.914 502.567 210.126C501.852 211.751 500.693 212.772 500.281 214.037C499.292 217.072 498.653 220.222 497.407 223.553Z" fill="#B3E076"/>
<path d="M320.637 178.105C320.489 179.908 319.765 181.464 319.042 183.021C318.407 182.906 317.773 182.791 317.139 182.676C316.332 172.155 315.525 161.634 314.764 150.479C315.807 156.018 316.73 162.203 317.836 168.355C318.411 171.553 319.31 174.692 320.637 178.105Z" fill="#C3EA8D"/>
<path d="M390.394 293.251C385.461 293.305 380.521 292.826 375.035 292.485C378.475 287.372 387.134 287.424 390.394 293.251Z" fill="#C2EF86"/>
<path d="M259.89 168.3C259.818 170.359 259.567 171.97 259.316 173.582C258.584 173.774 257.853 173.965 257.121 174.157C256.173 171.165 255.225 168.174 254.172 164.819C255.948 165.589 257.83 166.721 259.89 168.3Z" fill="#040703"/>
<path d="M207.667 170.998C207.036 174.396 210.823 180.356 202.648 180.926C203.787 177.712 205.52 174.489 207.667 170.998Z" fill="#040703"/>
<path d="M392.166 314.204C392.563 310.687 393.474 307.147 394.487 303.05C397.088 306.901 399.234 311.251 392.166 314.204Z" fill="#C2EF86"/>
<path d="M317.93 228.373C318.581 226.672 319.746 225.065 322.003 221.954C322.932 225.822 323.443 227.95 323.984 230.655C322.158 230.31 320.301 229.389 317.93 228.373Z" fill="#B9E581"/>
<path d="M375.93 317.755C379.574 317.232 383.491 317.178 388.042 316.949C384.878 320.36 380.857 322.015 375.93 317.755Z" fill="#C2EF86"/>
<path d="M259.03 217.879C257.919 216.2 257.352 214.671 256.785 213.142C257.092 212.726 257.399 212.311 257.706 211.896C259.48 213.569 261.254 215.243 262.97 217.354C261.799 217.87 260.686 217.949 259.03 217.879Z" fill="#040703"/>
<path d="M369.505 298.588C369.867 302.129 369.837 306.079 369.858 310.685C364.907 307.532 369.149 303.127 369.505 298.588Z" fill="#C2EF86"/>
<path d="M349.492 240.265C351.067 238.348 353.221 236.451 355.793 234.301C356.614 238.536 354.288 240.341 349.492 240.265Z" fill="#B9E581"/>
<path d="M223.883 121.896C223.663 123.901 223.018 126.189 221.994 128.743C222.229 126.733 222.844 124.457 223.883 121.896Z" fill="#040703"/>
<path d="M270.483 126.918C268.677 126.753 266.622 126.12 264.48 125C266.341 125.158 268.288 125.803 270.483 126.918Z" fill="#040703"/>
<path d="M332.896 239.855C335.16 239.715 337.716 240.052 340.89 240.571C338.736 240.612 335.962 240.472 332.896 239.855Z" fill="#B9E581"/>
<path d="M241.733 142.379C242.219 143.108 242.331 143.843 242.443 144.579C241.73 144.049 241.017 143.519 240.457 142.702C240.859 142.406 241.109 142.396 241.733 142.379Z" fill="#040703"/>
<path d="M374.101 292.481C373.807 293.41 373.064 294.261 371.93 295.289C372.242 294.445 372.946 293.425 374.101 292.481Z" fill="#C2EF86"/>
<path d="M371.75 314.283C372.85 314.722 374.038 315.654 375.487 316.959C374.446 316.48 373.142 315.629 371.75 314.283Z" fill="#C2EF86"/>
<path d="M235.899 116.97C235.287 117.211 234.389 117.156 233.371 116.779C234.039 116.529 234.826 116.602 235.899 116.97Z" fill="#040703"/>
<path d="M344.852 241.011C345.591 240.587 346.686 240.39 348.34 240.221C347.668 240.579 346.437 240.908 344.852 241.011Z" fill="#B9E581"/>
<path d="M322.346 174.108C322.493 175.125 322.197 176.43 321.527 178.073C321.403 177.073 321.653 175.735 322.346 174.108Z" fill="#C3EA8D"/>
<path d="M323.947 231.557C324.4 231.834 324.857 232.571 325.376 233.752C324.943 233.469 324.447 232.743 323.947 231.557Z" fill="#B9E581"/>
<path d="M371.239 295.593C371.274 296.167 370.911 296.976 370.19 298.048C370.169 297.484 370.505 296.656 371.239 295.593Z" fill="#C2EF86"/>
<path d="M369.898 311.698C370.402 311.881 370.967 312.525 371.692 313.577C371.221 313.377 370.591 312.768 369.898 311.698Z" fill="#C2EF86"/>
<path d="M323.375 170.986C323.571 171.543 323.461 172.434 323.023 173.642C322.82 173.079 322.945 172.2 323.375 170.986Z" fill="#C3EA8D"/>
<path d="M503.461 212.158C503.764 212.141 504.178 212.454 504.52 213.164C504.104 213.247 503.811 212.888 503.461 212.158Z" fill="#B3E076"/>
<path d="M391.704 295.002C391.458 295.044 391.015 294.752 390.447 294.073C390.717 294.014 391.112 294.341 391.704 295.002Z" fill="#C2EF86"/>
<path d="M393.073 296.811C392.809 296.817 392.39 296.423 391.867 295.597C392.148 295.581 392.533 295.996 393.073 296.811Z" fill="#C2EF86"/>
<path d="M241.131 210.953C241.397 210.855 241.63 211.081 241.964 211.546C241.659 211.804 241.337 211.634 241.131 210.953Z" fill="#040703"/>
<path d="M326.9 236.045C327.147 235.986 327.581 236.259 328.161 236.896C327.9 236.966 327.494 236.671 326.9 236.045Z" fill="#B9E581"/>
<path d="M228.357 117.309C228.365 117.627 227.945 117.933 227.154 118.363C227.165 118.09 227.547 117.693 228.357 117.309Z" fill="#040703"/>
<path d="M390.529 315.57C390.464 315.31 390.743 314.857 391.403 314.251C391.48 314.525 391.177 314.95 390.529 315.57Z" fill="#C2EF86"/>
<path d="M388.815 316.877C388.799 316.619 389.17 316.245 389.931 315.75C389.948 316.007 389.575 316.384 388.815 316.877Z" fill="#C2EF86"/>
<path d="M329.996 238.417C329.944 238.333 330.462 238.333 330.432 238.483C330.401 238.633 330.048 238.502 329.996 238.417Z" fill="#B9E581"/>
<path d="M250.752 139.744C251.168 137.643 251.91 135.853 252.652 134.062C253.55 134.553 254.447 135.043 255.345 135.533C253.922 137.04 252.5 138.548 250.752 139.744Z" fill="#040703"/>
<path d="M213.24 198.706C211.905 197.573 210.85 196.124 209.795 194.674C210.513 194.288 211.23 193.901 211.948 193.515C212.472 195.139 212.997 196.764 213.24 198.706Z" fill="#040703"/>
<path d="M242.738 167.261C243.428 165.951 244.258 165.073 245.087 164.196C245.49 164.938 245.893 165.68 246.295 166.422C245.156 166.846 244.017 167.27 242.738 167.261Z" fill="#040703"/>
<path d="M230.045 193.716C230.718 194.68 231.15 195.956 231.582 197.231C230.989 197.345 230.396 197.46 229.803 197.574C229.803 196.391 229.803 195.209 230.045 193.716Z" fill="#040703"/>
<path d="M233.016 166.927C233.171 167.852 232.949 168.74 232.727 169.628C232.205 169.384 231.683 169.139 231.16 168.895C231.653 168.226 232.146 167.558 233.016 166.927Z" fill="#040703"/>
<path d="M204.185 190.067C203.519 189.676 203.119 189.047 202.719 188.417C203.131 188.264 203.544 188.111 203.957 187.958C204.121 188.582 204.286 189.205 204.185 190.067Z" fill="#040703"/>
<path d="M262.851 143.021C262.579 142.629 262.564 142.243 262.549 141.856C262.767 141.862 262.985 141.867 263.203 141.873C263.171 142.257 263.139 142.642 262.851 143.021Z" fill="#040703"/>
<path d="M209.583 183.29C209.854 183.682 209.869 184.068 209.884 184.455C209.666 184.449 209.448 184.444 209.23 184.438C209.262 184.054 209.294 183.669 209.583 183.29Z" fill="#040703"/>
<path d="M243.139 153.168C243.23 152.701 243.496 152.419 243.761 152.138C243.909 152.297 244.057 152.457 244.205 152.616C243.907 152.862 243.61 153.108 243.139 153.168Z" fill="#040703"/>
<path d="M259.216 147.599C259.248 147.587 259.184 147.612 259.216 147.599Z" fill="#040703"/>
<path d="M506.676 147.942C505.74 146.722 504.856 145.964 504.706 145.082C504.141 141.742 503.813 138.363 503.396 134.998C506.249 135.727 510.278 135.548 511.696 137.384C514.244 140.684 517.463 146.01 516.367 149.019C514.456 154.261 510.108 151.208 506.676 147.942Z" fill="#B7EA75"/>
<path d="M442.672 162.661C443.648 160.446 444.524 158.822 445.4 157.197C446.221 157.003 447.042 156.809 447.863 156.614C450.473 162.123 453.511 167.492 455.377 173.242C455.819 174.603 452.624 178.418 450.556 178.941C448.727 179.403 444.796 177.327 444.16 175.533C442.813 171.728 443.008 167.378 442.672 162.661Z" fill="#BAEB77"/>
</svg>
