<svg width="99" height="108" viewBox="0 0 99 108" fill="none" xmlns="http://www.w3.org/2000/svg">
<path fill-rule="evenodd" clip-rule="evenodd" d="M70.3926 100.543L64.4366 92.7363C64.2725 92.5067 64.1787 92.2516 64.1787 91.9455V89.5218C64.9291 89.6239 65.6794 89.5984 66.4298 89.4453V91.5118L72.1278 98.9612C71.4478 99.3694 70.8615 99.9051 70.3926 100.543Z" fill="#00BD64"/>
<path fill-rule="evenodd" clip-rule="evenodd" d="M26.4971 98.9846L32.1951 91.5352V89.4688C32.9454 89.6473 33.6958 89.6728 34.4461 89.5453V91.9689C34.4461 92.2495 34.3523 92.5302 34.1882 92.7598L28.2323 100.566C27.7633 99.9031 27.1536 99.3673 26.4971 98.9846Z" fill="#00BD64"/>
<path fill-rule="evenodd" clip-rule="evenodd" d="M48.1865 98.4755V87.9647C48.5851 87.6075 48.9603 87.2248 49.3121 86.7656C49.6638 87.1993 50.039 87.6075 50.4376 87.9647V98.4755C49.7107 98.3224 48.89 98.3224 48.1865 98.4755Z" fill="#00BD64"/>
<path fill-rule="evenodd" clip-rule="evenodd" d="M90.9802 78.4727L84.1332 72.2733H77.4035C77.38 71.457 77.2628 70.6151 77.0283 69.8242H84.5319C84.7898 69.8242 85.0477 69.9263 85.2588 70.1048L92.434 76.5848C91.8243 77.0951 91.3319 77.7329 90.9802 78.4727Z" fill="#00BD64"/>
<path fill-rule="evenodd" clip-rule="evenodd" d="M6.19043 76.5848L13.3657 70.1048C13.5767 69.9263 13.8112 69.8242 14.0926 69.8242H21.5961C21.3616 70.6151 21.2444 71.457 21.2209 72.2733H14.4912L7.62079 78.4727C7.26906 77.7329 6.77664 77.0951 6.19043 76.5848Z" fill="#00BD64"/>
<path fill-rule="evenodd" clip-rule="evenodd" d="M90.511 54.8749H83.6875C83.8751 54.084 83.9923 53.2422 84.0392 52.4258H90.5345C90.3703 53.2166 90.3703 54.084 90.511 54.8749Z" fill="#00BD64"/>
<path fill-rule="evenodd" clip-rule="evenodd" d="M14.9134 54.8749H8.08984C8.25398 54.084 8.25398 53.2166 8.08984 52.4258H14.5851C14.6085 53.2422 14.7258 54.084 14.9134 54.8749Z" fill="#00BD64"/>
<path fill-rule="evenodd" clip-rule="evenodd" d="M84.5324 37.4532H80.8978C80.7337 36.5858 80.4523 35.7694 80.0771 35.004H84.1103L90.9573 28.8047C91.309 29.5445 91.8014 30.1823 92.3876 30.6926L85.2124 37.1725C85.0482 37.3511 84.7903 37.4532 84.5324 37.4532Z" fill="#00BD64"/>
<path fill-rule="evenodd" clip-rule="evenodd" d="M17.6802 37.4532H14.0691C13.8112 37.4532 13.5533 37.3511 13.3422 37.1725L6.19043 30.6926C6.77664 30.1823 7.26906 29.5445 7.62079 28.8047L14.4678 35.004H18.5009C18.1257 35.7694 17.8444 36.5858 17.6802 37.4532Z" fill="#00BD64"/>
<path fill-rule="evenodd" clip-rule="evenodd" d="M32.1716 20.1025V15.74L26.4971 8.29059C27.1771 7.90792 27.7633 7.37217 28.2323 6.73438L34.1882 14.541C34.3523 14.7706 34.4461 15.0257 34.4461 15.3318V18.8014C33.6254 19.0565 32.8516 19.5158 32.1716 20.1025Z" fill="#00BD64"/>
<path fill-rule="evenodd" clip-rule="evenodd" d="M64.1787 18.778V15.3084C64.1787 15.0278 64.2725 14.7471 64.4366 14.5175L70.3926 6.71094C70.8615 7.34873 71.4478 7.88448 72.1278 8.26715L66.4298 15.7166V20.0791C65.7498 19.5178 64.976 19.0586 64.1787 18.778Z" fill="#00BD64"/>
<path fill-rule="evenodd" clip-rule="evenodd" d="M48.1865 16.1482V8.80078C48.9134 8.97936 49.7107 8.97936 50.4376 8.80078V16.1482C50.039 16.5308 49.6403 16.939 49.3121 17.3982C48.9603 16.939 48.5851 16.5308 48.1865 16.1482Z" fill="#00BD64"/>
<path fill-rule="evenodd" clip-rule="evenodd" d="M2.97796 77.8359C1.33657 77.8359 0 79.2901 0 81.0759C0 82.8617 1.33657 84.3159 2.97796 84.3159C5.53385 84.3159 6.82352 81.0504 5.27592 79.0095C4.71316 78.2952 3.89246 77.8359 2.97796 77.8359Z" fill="#FFD600"/>
<path fill-rule="evenodd" clip-rule="evenodd" d="M2.97796 56.8901C4.61936 56.8901 5.95593 55.436 5.95593 53.6501C5.95593 51.8643 4.61936 50.4102 2.97796 50.4102C1.33657 50.4102 0 51.8643 0 53.6501C0 55.436 1.33657 56.8901 2.97796 56.8901Z" fill="#FFD600"/>
<path fill-rule="evenodd" clip-rule="evenodd" d="M2.97796 29.4409C4.61936 29.4409 5.95593 27.9868 5.95593 26.2009C5.95593 24.4151 4.61936 22.9609 2.97796 22.9609C1.33657 22.9609 0 24.4151 0 26.2009C0 27.9868 1.33657 29.4409 2.97796 29.4409Z" fill="#FFD600"/>
<path fill-rule="evenodd" clip-rule="evenodd" d="M21.1035 3.23999C21.1035 5.02581 22.4401 6.47998 24.0815 6.47998C25.7229 6.47998 27.0594 5.02581 27.0594 3.23999C27.0594 1.45417 25.7229 0 24.0815 0C22.4401 0 21.1035 1.45417 21.1035 3.23999Z" fill="#FFD600"/>
<path fill-rule="evenodd" clip-rule="evenodd" d="M46.334 3.23999C46.334 5.02581 47.6706 6.47998 49.3119 6.47998C50.9533 6.47998 52.2899 5.02581 52.2899 3.23999C52.2899 1.45417 50.9533 0 49.3119 0C47.6706 0 46.334 1.45417 46.334 3.23999Z" fill="#FFD600"/>
<path fill-rule="evenodd" clip-rule="evenodd" d="M74.519 0C72.8776 0 71.541 1.45417 71.541 3.23999C71.541 5.02581 72.8776 6.47998 74.519 6.47998C76.1604 6.47998 77.4969 5.02581 77.4969 3.23999C77.4969 1.45417 76.1604 0 74.519 0Z" fill="#FFD600"/>
<path fill-rule="evenodd" clip-rule="evenodd" d="M95.6235 22.9609C93.9821 22.9609 92.6455 24.4151 92.6455 26.2009C92.6455 27.9868 93.9821 29.4409 95.6235 29.4409C97.2649 29.4409 98.6014 27.9868 98.6014 26.2009C98.6014 24.4151 97.2649 22.9609 95.6235 22.9609Z" fill="#FFD600"/>
<path fill-rule="evenodd" clip-rule="evenodd" d="M95.6235 50.4102C93.9821 50.4102 92.6455 51.8643 92.6455 53.6501C92.6455 55.436 93.9821 56.8901 95.6235 56.8901C97.2649 56.8901 98.6014 55.436 98.6014 53.6501C98.6014 51.8643 97.2649 50.4102 95.6235 50.4102Z" fill="#FFD600"/>
<path fill-rule="evenodd" clip-rule="evenodd" d="M98.6014 81.0759C98.6014 79.2901 97.2649 77.8359 95.6235 77.8359C93.9821 77.8359 92.6455 79.2901 92.6455 81.0759C92.6455 82.8617 93.9821 84.3159 95.6235 84.3159C97.2649 84.3159 98.6014 82.8617 98.6014 81.0759Z" fill="#FFD600"/>
<path fill-rule="evenodd" clip-rule="evenodd" d="M77.4969 104.037C77.4969 102.251 76.1604 100.797 74.519 100.797C72.8776 100.797 71.541 102.251 71.541 104.037C71.541 105.823 72.8776 107.277 74.519 107.277C76.1604 107.277 77.4969 105.823 77.4969 104.037Z" fill="#FFD600"/>
<path fill-rule="evenodd" clip-rule="evenodd" d="M49.3119 107.277C50.9533 107.277 52.2899 105.823 52.2899 104.037C52.2899 102.251 50.9533 100.797 49.3119 100.797C47.6706 100.797 46.334 102.251 46.334 104.037C46.334 105.823 47.6706 107.277 49.3119 107.277Z" fill="#FFD600"/>
<path fill-rule="evenodd" clip-rule="evenodd" d="M24.0815 107.277C25.7229 107.277 27.0594 105.823 27.0594 104.037C27.0594 102.251 25.7229 100.797 24.0815 100.797C22.4401 100.797 21.1035 102.251 21.1035 104.037C21.1035 105.823 22.4401 107.277 24.0815 107.277Z" fill="#FFD600"/>
<path fill-rule="evenodd" clip-rule="evenodd" d="M44.4823 48.1914L42.6768 53.2938H46.3113L44.4823 48.1914Z" fill="white"/>
<path d="M46.0977 57.2422L47.0781 59.9961L47.0791 59.998C47.3431 60.7349 47.8639 61.3147 48.5752 61.5947C49.2543 61.862 49.9611 61.7985 50.5352 61.5557C50.759 61.461 50.9719 61.334 51.166 61.1797C51.6034 61.5414 52.1667 61.7578 52.8057 61.7578H59.1836C59.9986 61.7578 60.69 61.4058 61.1543 60.8486V64.1094C61.1543 64.7144 60.738 64.9823 60.4736 64.9824H38.1035C37.8426 64.9824 37.4229 64.7182 37.4229 64.1094V60.8291C37.6775 61.1313 38.0023 61.3851 38.3965 61.5566C39.8347 62.1822 41.3773 61.3927 41.8594 59.9951L41.8613 59.9961L42.8428 57.2422H46.0977ZM61.1543 57.2158C60.69 56.659 59.9982 56.3086 59.1836 56.3086H58.6201V47.5215H59.1836C59.9985 47.5215 60.69 47.1704 61.1543 46.6133V57.2158ZM38.0713 38.8984H60.4502C60.7345 38.8986 61.1543 39.1882 61.1543 39.7715V42.9805C60.69 42.4236 59.9983 42.0723 59.1836 42.0723H52.8057C51.974 42.0723 51.2699 42.4384 50.8057 43.0156C50.372 43.555 50.1983 44.2094 50.1982 44.7969C50.1982 45.3845 50.3718 46.0395 50.8057 46.5791C51.2699 47.1564 51.974 47.5214 52.8057 47.5215H53.3691V56.3086H52.8057C52.3196 56.3086 51.8774 56.4334 51.501 56.6523L46.9502 43.8604L46.9473 43.8535L46.9443 43.8457C46.0874 41.5158 42.8754 41.5157 42.0186 43.8457L42.0156 43.8535L42.0127 43.8604L37.4229 56.7617V39.7715C37.4229 39.1314 37.863 38.8942 38.0713 38.8984Z" fill="#4FB6FF" stroke="white" stroke-width="3"/>
<path fill-rule="evenodd" clip-rule="evenodd" d="M64.9287 39.7711V64.1093C64.9287 66.788 62.9356 68.931 60.497 68.931H50.4375V84.2891C51.5396 86.3811 53.65 87.6056 55.8776 87.4015C58.2225 87.1974 60.1687 85.4627 60.8721 83.0901C61.3177 81.5594 63.4749 82.3247 63.006 83.8554C62.7949 84.5953 62.4901 85.2841 62.0915 85.9219C63.4749 87.3505 65.6087 87.6311 67.2736 86.5086C68.9853 85.3861 69.7122 83.1156 69.1026 81.1001C68.1412 81.0491 67.1798 80.8195 66.2419 80.3858C64.8818 79.748 65.7729 77.503 67.1329 78.1408C71.5412 80.2327 76.4889 75.6151 74.7771 70.3852C74.0033 70.972 72.1978 71.9159 71.1895 71.9159C69.8529 71.9159 69.6419 69.7474 70.9785 69.4923C73.6047 68.9821 75.6213 66.7881 76.1371 63.9562C76.5123 61.9153 76.0199 59.8233 74.824 58.1906C73.8861 56.9405 75.6447 55.4098 76.5827 56.6344C77.1689 57.4252 77.6378 58.3182 77.9661 59.2366C82.6324 56.1752 83.031 48.9298 78.693 45.3327C77.7316 46.3786 76.5123 47.195 75.1289 47.6032C73.7454 48.0369 73.0888 45.6898 74.5192 45.2306C79.631 43.6744 80.2172 36.1229 75.5744 33.5718C75.1992 34.9494 74.4957 36.1995 73.464 37.1944C72.3854 38.2404 70.8378 36.4546 71.9633 35.3576C75.2461 32.1941 73.3468 26.3264 69.0557 25.9437C69.0791 27.0663 68.8915 28.2398 68.446 29.3113C67.8598 30.791 65.7963 29.8215 66.3826 28.3418C67.2501 26.1989 66.7343 23.7242 65.1163 22.168C63.4984 20.6373 61.177 20.3822 59.348 21.5812C58.0818 22.3976 56.9328 20.3056 58.199 19.4893C58.879 19.0301 59.6294 18.7239 60.3797 18.5453C59.2073 17.1932 57.5894 16.4023 55.8307 16.4023C53.5328 16.4023 51.4458 17.7545 50.3438 19.923V34.8984H60.4032C62.9356 34.9239 64.9287 37.0924 64.9287 39.7711ZM69.6653 58.7774C68.704 58.7774 68.1646 57.4252 68.8915 56.6599C71.7288 53.726 71.3536 48.6492 68.1646 46.2001C66.9453 45.2816 68.2584 43.2662 69.4543 44.2101C73.8157 47.5522 74.2847 54.4149 70.4391 58.4457C70.2281 58.6753 69.9467 58.7774 69.6653 58.7774ZM54.9631 32.3727C54.3769 32.3727 53.8845 31.888 53.8376 31.2502C53.6734 28.8776 54.6583 26.556 56.4404 25.1784C58.2225 23.8007 60.5673 23.5201 62.5604 24.4641C63.9205 25.1018 63.0294 27.3469 61.6694 26.7091C58.9259 25.408 55.8542 27.8061 56.0886 31.0461C56.1355 31.7859 55.5962 32.3217 54.9631 32.3727ZM58.6211 72.6557C57.4487 71.6608 58.8556 69.7474 60.0045 70.7424C64.108 74.263 61.6928 81.3297 56.6514 81.3042C55.8542 81.3042 55.0335 81.1257 54.2831 80.7175C52.9465 80.0286 53.9314 77.8091 55.2679 78.5234C56.7452 79.2888 58.5038 78.7531 59.3714 77.2479C60.2156 75.6916 59.9108 73.7528 58.6211 72.6557Z" fill="white"/>
<path fill-rule="evenodd" clip-rule="evenodd" d="M29.4752 25.9437C25.1607 26.3264 23.2848 32.1941 26.5676 35.3576C27.6696 36.4291 26.1689 38.2404 25.0669 37.1944C24.0586 36.1995 23.3317 34.9494 22.9565 33.5718C18.3137 36.1229 18.8999 43.6999 24.0117 45.2306C25.4655 45.6643 24.8089 48.0114 23.402 47.5777C22.0186 47.1695 20.7992 46.3531 19.8378 45.3072C15.4999 48.9298 15.8985 56.1752 20.5647 59.2111C20.893 58.2671 21.362 57.3997 21.9482 56.6089C22.8861 55.3588 24.6213 56.915 23.7068 58.1651C22.511 59.7723 22.0185 61.8898 22.3937 63.9307C22.9096 66.7625 24.9496 68.9565 27.5524 69.4668C29.0297 69.7474 28.5841 72.171 27.1538 71.8649C25.911 71.6098 24.762 71.0995 23.7772 70.3597C23.0972 72.4261 23.4724 74.7222 24.8324 76.4315C26.4738 78.5234 29.1469 79.1868 31.4449 78.0898C32.8049 77.452 33.6959 79.697 32.3359 80.3348C31.398 80.7685 30.4366 80.9981 29.4752 81.0491C28.8655 83.0645 29.6159 85.3351 31.3042 86.4576C32.969 87.5801 35.1028 87.274 36.4863 85.8708C36.1111 85.233 35.8063 84.5442 35.5718 83.8044C35.1263 82.2737 37.2601 81.5338 37.7056 83.039C38.4091 85.4116 40.3553 87.1464 42.7002 87.3505C44.9278 87.5546 47.0381 86.3301 48.1402 84.2381V68.88H38.0808C35.6421 68.88 33.649 66.7115 33.649 64.0583V39.7201C33.649 37.0669 35.6421 34.8984 38.0808 34.8984H48.1402V19.923C47.0381 17.7545 44.9512 16.4023 42.6533 16.4023C40.8946 16.4023 39.2532 17.1932 38.1042 18.5453C38.8546 18.7239 39.605 19.0301 40.285 19.4893C41.5512 20.3056 40.4022 22.4231 39.136 21.5812C37.2835 20.3822 34.9621 20.6118 33.3442 22.168C31.7262 23.6987 31.2338 26.1989 32.078 28.3418C32.4063 29.1327 31.8435 30.0511 31.0462 30.0511C30.6242 30.0511 30.2021 29.7705 30.0145 29.3113C29.6393 28.2398 29.4517 27.0918 29.4752 25.9437ZM30.4366 46.2256C27.2476 48.6747 26.8958 53.7515 29.7097 56.6854C30.4366 57.4507 29.8973 58.8029 28.9359 58.8029C28.6545 58.8029 28.3731 58.7008 28.1621 58.4712C24.3165 54.4659 24.8089 47.5777 29.1469 44.2357C30.3662 43.2917 31.6559 45.2816 30.4366 46.2256ZM43.6615 32.3727C43.005 32.4237 42.4891 31.7349 42.536 31.0461C42.7705 27.8061 39.6987 25.408 36.9553 26.7091C35.5953 27.3469 34.7042 25.1018 36.0642 24.4641C40.3788 22.4231 45.1388 26.1478 44.7871 31.2502C44.7167 31.888 44.2243 32.3727 43.6615 32.3727ZM41.9498 81.3042C36.9084 81.3042 34.4932 74.2375 38.5967 70.7424C39.7691 69.7474 41.1526 71.6863 39.9801 72.6557C38.6905 73.7527 38.3856 75.7172 39.2532 77.2224C40.1208 78.7275 41.8795 79.2888 43.3567 78.4979C44.6933 77.8091 45.6547 80.0031 44.3416 80.6919C43.5678 81.1001 42.7471 81.3042 41.9498 81.3042Z" fill="white"/>
</svg>
