<svg width="98" height="106" viewBox="0 0 98 106" fill="none" xmlns="http://www.w3.org/2000/svg">
<path d="M48.6036 4.13672L90.6956 28.4385V77.0422L48.6036 101.344L6.51165 77.0422V28.4385L48.6036 4.13672Z" fill="#3FA9F5"/>
<circle cx="9.61846" cy="30.1565" r="7.44561" fill="#FFD600"/>
<circle cx="9.61846" cy="75.1995" r="7.44561" fill="#FFD600"/>
<circle cx="87.7972" cy="75.1995" r="7.44561" fill="#FFD600"/>
<circle cx="48.7078" cy="52.6766" r="7.77035" fill="#00A859" stroke="white" stroke-width="4"/>
<path d="M62.1099 52.6794C62.1099 60.0812 56.1095 66.0815 48.7078 66.0815C41.306 66.0815 35.3057 60.0812 35.3057 52.6794C35.3057 45.2777 41.306 39.2773 48.7078 39.2773C56.1095 39.2773 62.1099 45.2777 62.1099 52.6794ZM40.0717 52.6794C40.0717 57.449 43.9382 61.3155 48.7078 61.3155C53.4773 61.3155 57.3439 57.449 57.3439 52.6794C57.3439 47.9099 53.4773 44.0433 48.7078 44.0433C43.9382 44.0433 40.0717 47.9099 40.0717 52.6794Z" fill="#FFD600"/>
<circle cx="48.7073" cy="7.44561" r="7.44561" fill="#FFD600"/>
<circle cx="48.7073" cy="98.094" r="7.44561" fill="#FFD600"/>
<circle cx="87.7972" cy="30.1565" r="7.44561" fill="#FFD600"/>
<path d="M44.6123 31.9245L48.8005 23.7344L52.8955 31.9245C51.2575 31.9245 50.5998 32.7932 50.4757 33.2275V37.1365H46.9391V33.0414C46.9391 32.0735 45.3879 31.8935 44.6123 31.9245Z" fill="white"/>
<path d="M44.6123 73.7122L48.8005 81.9023L52.8955 73.7122C51.2575 73.7122 50.5998 72.8435 50.4757 72.4092V68.5002H46.9391V72.5953C46.9391 73.5633 45.3879 73.7432 44.6123 73.7122Z" fill="white"/>
<path d="M31.2318 64.5524L28.4019 73.3052L37.0889 70.4096C35.9306 69.2513 36.0798 68.172 36.2992 67.7771L39.0632 65.0131L36.5624 62.5123L33.6667 65.408C32.9823 66.0924 31.7582 65.1228 31.2318 64.5524Z" fill="white"/>
<path d="M27.8601 48.582L19.6699 52.7702L27.8601 56.8653C27.8601 55.2272 28.7287 54.5695 29.1631 54.4454L33.072 54.4454L33.072 50.9088L28.9769 50.9088C28.009 50.9088 27.8291 49.3576 27.8601 48.582Z" fill="white"/>
<path d="M69.5549 48.582L77.7451 52.7702L69.5549 56.8653C69.5549 55.2272 68.6863 54.5695 68.252 54.4454L64.343 54.4454L64.343 50.9088L68.4381 50.9088C69.406 50.9088 69.586 49.3576 69.5549 48.582Z" fill="white"/>
<path d="M37.0882 35.2015L28.3354 32.3716L31.2311 41.0586C32.3893 39.9004 33.4686 40.0495 33.8635 40.2689L36.6275 43.0329L39.1283 40.5321L36.2327 37.6365C35.5482 36.952 36.5178 35.728 37.0882 35.2015Z" fill="white"/>
<path d="M60.5827 70.4118L69.3355 73.2417L66.4398 64.5547C65.2816 65.7129 64.2023 65.5638 63.8074 65.3444L61.0434 62.5803L58.5426 65.0811L61.4382 67.9768C62.1227 68.6612 61.1531 69.8853 60.5827 70.4118Z" fill="white"/>
<path d="M66.2546 41.057L69.0844 32.3042L60.3974 35.1998C61.5557 36.3581 61.4065 37.4374 61.1872 37.8322L58.4231 40.5963L60.9239 43.0971L63.8196 40.2014C64.504 39.517 65.7281 40.4866 66.2546 41.057Z" fill="white"/>
</svg>
