<svg width="89" height="118" viewBox="0 0 89 118" fill="none" xmlns="http://www.w3.org/2000/svg">
<path d="M44.3454 0C44.8372 0.00497165 44.8824 0.130632 45.3629 0.251105C46.6785 0.587664 47.992 0.934671 49.3029 1.29213L65.6355 5.76892L80.6001 9.84669L84.7014 10.9611C85.0618 11.0597 86.2864 11.3697 86.5658 11.5151C86.7782 12.141 86.3906 13.5413 86.4131 14.349L86.4616 14.8952C87.0357 15.1564 88.251 15.0455 88.6406 15.5307C88.6718 15.6498 88.7163 15.8816 88.6433 15.9928C88.3174 16.488 88.5364 17.2431 88.4581 17.8282C88.2358 19.4957 88.1335 21.1713 87.9849 22.8478L85.456 50.723L84.6124 60.4708C84.2434 64.415 84.0462 66.9765 83.0905 70.858C81.98 75.3685 80.1508 79.6333 77.6856 83.4593C74.2462 88.7624 70.5564 91.8909 66.1585 96.1255L52.1185 109.78L46.932 114.763C46.1282 115.537 45.0045 116.543 44.2857 117.344L44.2034 117.244C43.4845 116.374 41.8438 114.877 40.996 114.083C39.8848 113.028 38.7858 111.958 37.6993 110.874L20.9436 94.5641C19.1796 92.837 17.4677 91.3484 15.7301 89.542C11.3552 84.9479 8.06807 79.2745 6.1488 73.0037C5.60587 71.2139 4.76849 67.6826 4.56698 65.8229C4.27587 63.1368 4.11896 60.2193 3.85572 57.4885L1.29728 29.9314L0.452538 20.4176C0.318795 18.8574 0.237685 16.9008 0 15.3966C0.842417 15.1628 1.46215 14.9472 2.33417 14.8846C2.28007 13.8776 2.09828 12.5779 2.02341 11.445C2.48132 11.4316 2.68821 11.3442 3.1205 11.2339C5.11882 10.7242 7.08826 10.103 9.08146 9.57289L36.4966 2.0899L42.419 0.495076C42.785 0.398165 44.0799 0.0100154 44.3454 0Z" fill="#3FA9F5"/>
<path d="M2.19531 11.4528C2.65123 11.4394 2.85721 11.3519 3.28762 11.2415C5.27721 10.7315 7.23806 10.1098 9.22257 9.57938L36.5181 2.09132L42.4147 0.495412C42.779 0.398435 44.0683 0.0100222 44.3326 0L44.3128 14.2933C44.3141 16.7411 44.3524 19.2891 44.3141 21.7301L44.2705 21.7425L44.3121 25.8999C44.3187 26.4347 44.3617 27.5867 44.3102 28.0788L44.1998 28.1913L44.324 28.2208L44.3346 46.1787C44.3148 48.5323 44.3115 50.886 44.326 53.2396C44.328 53.7963 44.3643 56.591 44.2738 56.9096C40.3469 57.131 39.0091 61.9546 42.0182 64.6786L42.0827 64.7363C41.9749 65.3549 41.8928 66.0478 41.8324 66.6773C41.6892 68.1684 41.3829 69.6897 41.2527 71.175C41.8999 71.2666 43.6004 71.2175 44.3306 71.2154C44.3472 74.4095 44.3452 77.6036 44.324 80.7977L44.3207 100.436L44.3227 106.594C44.324 108.113 44.3571 109.628 44.25 111.143C42.6307 109.389 40.112 107.159 38.3346 105.439L23.6611 91.2287L19.7017 87.4037C18.6587 86.4109 17.6642 85.5283 16.6703 84.4691C12.9974 80.554 10.2731 76.0585 8.56384 70.7691C7.63569 67.9016 7.00287 64.9303 6.67707 61.9099C6.47869 60.1189 6.37936 58.2205 6.20418 56.4049C5.79848 52.4292 5.42603 48.4492 5.08689 44.4659L2.50472 14.8947C2.45086 13.887 2.26986 12.5864 2.19531 11.4528Z" fill="#61CFF9"/>
<path d="M28.6313 46.2736C30.5933 46.2895 32.5554 46.2908 34.5174 46.2774L44.3341 46.2713C44.3141 48.6056 44.3108 50.9398 44.3254 53.274C44.3274 53.8261 44.364 56.5978 44.2729 56.9138C40.3223 57.1333 38.9764 61.9172 42.0037 64.6187L42.0686 64.6759C41.9602 65.2894 41.8775 65.9766 41.8168 66.6009C41.6727 68.0796 41.3646 69.5884 41.2336 71.0615C41.8847 71.1523 43.5955 71.1037 44.3301 71.1015C44.3467 74.2693 44.3447 77.4371 44.3234 80.6048L31.8528 80.5948L28.3653 80.6048C27.0339 80.6091 25.7403 80.7629 24.6972 79.6438C23.778 78.6577 23.7591 77.7109 23.7506 76.4131L23.7398 57.9078L23.7362 52.301C23.7359 51.4294 23.6453 50.1444 23.7849 49.315C24.2979 46.2688 26.5448 46.2465 28.6313 46.2736Z" fill="white"/>
<path d="M28.5491 46.2558L28.5361 39.4179C28.5605 34.5332 29.8732 30.3285 33.1895 26.8366C36.1422 23.7059 40.1243 21.9475 44.2756 21.9414L44.3177 26.0776C44.3244 26.6098 44.3678 27.7559 44.3157 28.2456L44.204 28.3575L44.3297 28.3868L44.3404 46.2536L34.4684 46.2597C32.4953 46.2731 30.5221 46.2718 28.5491 46.2558Z" fill="#FBC404"/>
<path d="M44.2081 28.1445L44.3307 28.1742L44.3411 46.2647L34.7124 46.2709C34.7613 44.8046 34.6886 43.3074 34.7128 41.8375C34.7188 41.4749 34.7382 40.9259 34.7166 40.5788C34.2877 33.707 37.9462 28.6612 44.2081 28.1445Z" fill="#61CFF9"/>
<path d="M44.38 46.2884L54.1742 46.2822C56.1424 46.3021 58.1099 46.3033 60.0774 46.2857C61.463 46.2621 62.8399 46.1371 63.9465 47.2449C64.8094 48.109 64.9772 49.2066 64.9419 50.4143C64.9579 56.7338 64.9465 63.0562 64.9539 69.375L64.9645 74.8889C64.9658 75.5358 65.0038 77.1949 64.9266 77.7589C64.8287 78.4322 64.5404 79.0569 64.1003 79.548C63.7501 79.944 62.8279 80.5566 62.3385 80.5666C56.5053 80.6845 50.1467 80.5373 44.3694 80.6088C44.3907 77.4422 44.3927 74.2756 44.376 71.1091C43.6403 71.1112 41.9269 71.1598 41.2749 71.0691C41.406 69.5966 41.7147 68.0884 41.8589 66.6101C41.9198 65.9861 42.0026 65.2992 42.1112 64.6859L42.0461 64.6287C39.0144 61.9282 40.3622 57.1462 44.3187 56.9268C44.41 56.6108 44.3733 53.8403 44.3714 53.2884C44.3567 50.9551 44.36 48.6217 44.38 46.2884Z" fill="white"/>
<path d="M44.297 56.7656C48.3962 57.0058 49.6787 61.7585 46.5449 64.6473C46.9064 66.4201 47.1732 69.1975 47.4169 71.0745L43.3885 71.039C42.9204 71.0361 41.6696 71.005 41.27 71.0759C41.4004 69.5859 41.7073 68.0598 41.8508 66.564C41.9113 65.9326 41.9936 65.2375 42.1016 64.6169L42.0369 64.5591C39.022 61.8265 40.3624 56.9877 44.297 56.7656Z" fill="#1EAAE1"/>
<path d="M44.2624 111.064L44.3428 111.044L63.7226 92.5154L68.9787 87.4396C71.2872 85.213 72.5404 84.1693 74.517 81.547C77.1586 78.1038 79.1817 74.1523 80.48 69.8974C81.7935 65.6541 82.0099 62.9741 82.4247 58.6393C82.6756 56.071 82.9126 53.5017 83.1356 50.9306L84.9217 30.9581C85.4315 25.4649 86.0162 19.8038 86.4131 14.3086L86.4616 14.855C87.0357 15.1163 88.251 15.0053 88.6407 15.4908C88.6719 15.6099 88.7163 15.8418 88.6433 15.953C88.3174 16.4484 88.5364 17.2038 88.4581 17.7891C88.2358 19.4573 88.1336 21.1334 87.9849 22.8106L85.456 50.6963L84.6124 60.4477C84.2434 64.3934 84.0463 66.9558 83.0905 70.8388C81.98 75.351 80.1508 79.6174 77.6857 83.4449C74.2462 88.75 70.5564 91.8797 66.1585 96.1158L52.1185 109.775L46.932 114.76C46.1282 115.535 45.0045 116.541 44.2857 117.343L44.2034 117.242C43.4845 116.372 41.8438 114.875 40.996 114.08C39.8848 113.025 38.7858 111.955 37.6993 110.87L20.9436 94.5539C19.1796 92.8261 17.4677 91.3369 15.7301 89.5299C11.3552 84.9341 8.06807 79.2585 6.14881 72.9853C5.60587 71.1949 4.7685 67.6622 4.56698 65.8018C4.27587 63.1147 4.11896 60.1962 3.85572 57.4643L1.29728 29.8968L0.452538 20.3795C0.318795 18.8187 0.237685 16.8614 0 15.3566C0.842417 15.1227 1.46215 14.9071 2.33417 14.8444L4.92766 44.4066C5.26829 48.3888 5.64237 52.3675 6.04984 56.3421C6.2258 58.157 6.32556 60.0549 6.52481 61.8454C6.85204 64.8648 7.48763 67.8352 8.41985 70.7018C10.1366 75.9896 12.8729 80.4838 16.5619 84.3978C17.5601 85.4566 18.5589 86.3389 19.6065 87.3314L23.5833 91.1553L38.3211 105.361C40.1063 107.081 42.636 109.31 44.2624 111.064Z" fill="#E2231A"/>
<path d="M44.4567 21.9414C48.733 22.0043 52.6609 23.6556 55.6771 26.9818C58.0042 29.546 59.5153 32.8433 59.9913 36.3967C60.1845 37.9049 60.144 39.4043 60.1414 40.9236L60.1301 46.2565C58.1682 46.2741 56.2063 46.273 54.2437 46.253L44.4772 46.2592L44.4666 28.3974L44.3418 28.3681L44.4527 28.2562C44.5045 27.7667 44.4613 26.6209 44.4547 26.0889L44.4128 21.9538L44.4567 21.9414Z" fill="#FBC404"/>
<path d="M44.3418 28.1448C46.9159 28.1236 49.3872 29.2656 51.1896 31.3092C53.9129 34.3484 54.0137 37.2599 53.9993 41.2047L53.9797 46.2646L44.3523 46.2709L44.3418 28.1448Z" fill="#1EAAE1"/>
</svg>
