<svg width="1000" height="339" viewBox="0 0 1000 339" fill="none" xmlns="http://www.w3.org/2000/svg">
<g clip-path="url(#clip0_508_14)">
<path d="M999.901 176.855C999.901 219.987 972.278 249.095 933.344 249.095C894.407 249.095 866.783 219.987 866.783 176.855C866.783 133.724 894.407 104.616 933.344 104.616C972.278 104.616 999.901 133.724 999.901 176.855ZM898.616 176.855C898.616 205.169 912.034 222.369 933.344 222.369C954.65 222.369 968.069 205.169 968.069 176.855C968.069 148.542 954.65 131.342 933.344 131.342C912.034 131.342 898.616 148.542 898.616 176.855Z" fill="black"/>
<path d="M822.037 246.184V226.603C814.406 239.305 795.992 249.095 771.26 249.095C722.326 249.095 686.023 209.403 686.023 151.982C686.023 94.2969 722.591 53.2817 773.365 53.2817C812.04 53.2817 838.086 74.1862 849.66 107.792L817.563 118.641C812.04 96.1492 796.253 83.1832 773.629 83.1832C741.797 83.1832 719.696 110.438 719.696 151.453C719.696 192.468 741.797 219.988 774.155 219.988C801.514 219.988 819.406 200.406 820.458 173.416H770.734V143.779H852.817V246.184H822.037Z" fill="black"/>
<path d="M616.334 211.254V134.252H597.129V107.262H616.334V66.5112H647.376V107.262H676.317V134.252H647.376V206.227C647.376 218.663 654.481 219.987 665.794 219.987C671.055 219.987 673.951 219.722 678.686 219.193V245.918C672.899 246.977 665.003 247.771 656.85 247.771C630.54 247.771 616.334 239.568 616.334 211.254Z" fill="black"/>
<path d="M554.213 88.7448V56.1973H586.833V88.7448H554.213ZM586.307 107.268V246.189H554.739V107.268H586.307Z" fill="black"/>
<path d="M398.152 246.189V56.1973H473.131C513.647 56.1973 535.218 73.9265 535.218 106.209C535.218 129.76 521.539 141.932 508.385 147.224C528.117 153.575 541.27 169.981 541.27 193.267C541.27 226.608 516.803 246.189 477.866 246.189H398.152ZM430.511 134.787H469.974C491.549 134.787 503.385 126.32 503.385 109.649C503.385 92.9786 491.549 84.7756 469.974 84.7756H430.511V134.787ZM430.511 163.365V217.611H476.027C497.337 217.611 508.912 206.497 508.912 190.356C508.912 174.479 497.337 163.365 476.027 163.365H430.511Z" fill="black"/>
<path d="M144.065 338.917C144.065 338.917 287.884 270.771 287.884 192.494C287.884 131.786 287.884 92.3509 287.884 31.6434C196.583 -10.1515 91.5595 -10.1949 0.236328 31.5522C0.319141 92.2902 0.245154 131.756 0.245154 192.494C0.245154 270.771 144.065 338.917 144.065 338.917Z" fill="#1647DB"/>
<path fill-rule="evenodd" clip-rule="evenodd" d="M114.282 56.1836H132.839V74.57H151.397V56.1836H169.954V76.1063C191.012 80.7087 203.667 95.3728 203.667 116.286C203.667 130.984 194.823 144.168 179.403 148.707C196.864 153.246 207.069 167.512 207.069 183.29C207.069 205.873 193.533 221.082 169.954 226.049V246.208H151.397V227.816H132.839V246.208H114.282V227.816H95.7246V74.57H114.282V56.1836ZM173.96 117.799C173.96 105.695 164.89 98.5621 149.242 98.5621H124.751V137.036H150.829C165.343 137.036 173.96 129.903 173.96 117.799ZM177.362 181.777C177.362 167.512 168.518 160.379 151.057 160.379H124.751V202.743H149.469C166.703 202.743 177.362 194.746 177.362 181.777Z" fill="white"/>
</g>
<defs>
<clipPath id="clip0_508_14">
<rect width="1000" height="339" fill="white"/>
</clipPath>
</defs>
</svg>
