<svg width="1000" height="129" viewBox="0 0 1000 129" fill="none" xmlns="http://www.w3.org/2000/svg">
<path d="M122.663 20.425C109.713 8.60003 93.1663 2.8667 73.0225 2.8667C52.8786 2.8667 36.3318 8.95837 23.0225 20.7834C11.152 31.175 4.31742 44.075 3.23828 59.125C3.23828 62.35 5.39655 65.2167 8.99368 65.2167H42.8066V59.4834C42.8066 45.15 45.3246 34.0417 50.0009 26.1584C55.0368 18.275 61.5117 13.975 70.1448 13.975C78.7779 13.975 87.7707 19.35 93.8858 29.7417C96.7635 34.4 98.9217 39.775 100.361 45.5084C103.238 56.975 113.31 64.8584 125.181 64.8584H142.807C142.807 46.5834 136.332 31.5334 123.382 19.7084L122.663 20.425Z" fill="#4E4E4E"/>
<path d="M61.8704 110.725C74.8201 122.55 91.3669 128.283 111.511 128.283C131.655 128.283 148.201 122.192 161.511 110.367C173.381 99.975 179.856 87.075 181.295 71.6666C181.295 68.4416 179.137 65.575 175.54 65.575H141.727V71.3083C141.727 85.6416 139.209 96.75 134.532 104.633C129.496 112.517 123.022 116.817 114.388 116.817C105.755 116.817 96.7625 111.442 90.6474 101.05C87.7697 96.3916 85.6115 91.0166 84.1726 85.2833C81.2949 73.8166 71.223 65.9333 59.3525 65.9333H41.7266C41.7266 84.2083 48.2014 99.2583 61.151 111.083H61.8704V110.725Z" fill="#4E4E4E"/>
<path d="M224.461 122.55V118.967L226.979 118.25C229.137 117.533 230.936 116.1 231.655 114.667C232.375 113.233 233.094 111.442 233.094 108.933V27.95C233.094 25.4417 233.094 23.2917 232.015 22.2167C231.295 20.7833 229.857 19.7083 227.339 18.9917L224.821 18.275V14.6917H270.504C283.454 14.6917 292.806 17.2 298.562 21.8583C304.317 26.5167 307.195 32.6083 307.195 40.1333C307.195 47.6583 305.036 50.8833 301.08 55.5417C297.123 59.8417 289.929 63.0667 279.497 65.2167C291.367 66.65 300.001 69.5166 305.396 74.5333C310.792 79.55 313.31 85.2833 313.31 92.45C313.31 99.6167 312.59 99.2583 311.152 102.842C309.713 106.425 307.195 109.65 303.238 112.517C299.641 115.383 294.965 117.892 288.49 119.683C282.375 121.475 274.461 122.192 265.108 122.192H224.461V122.55ZM256.116 64.5H263.67C270.864 64.5 276.259 62.7083 279.497 59.4833C282.734 56.2583 284.533 50.525 284.533 42.2833C284.533 34.0417 283.094 27.95 279.857 24.725C276.979 21.5 271.943 19.7083 265.468 19.7083H255.756V64.1416L256.116 64.5ZM256.116 117.892H265.108C273.382 117.892 279.137 115.742 283.094 111.8C287.051 107.858 289.209 101.408 289.209 92.45C289.209 83.4916 287.411 77.7583 283.454 74.5333C279.497 70.95 273.382 69.1583 264.749 69.1583H256.475V117.892H256.116Z" fill="#4E4E4E"/>
<path d="M368.344 124.7C360.431 124.7 353.237 122.908 347.121 119.683C341.006 116.458 336.69 111.442 333.093 105.35C329.855 99.2584 328.057 91.7334 328.057 83.1334C328.057 74.5334 329.855 67.3667 333.093 60.9167C336.69 54.825 341.366 50.1667 347.481 46.9417C353.596 43.7167 360.431 41.925 367.985 41.925C375.539 41.925 382.373 43.7167 388.129 46.9417C394.244 50.1667 398.92 54.825 402.517 60.9167C406.114 67.0084 407.913 74.1751 407.913 83.1334C407.913 92.0917 406.114 99.2584 402.877 105.35C399.639 111.442 394.963 116.1 389.208 119.683C383.093 122.908 376.258 124.7 367.985 124.7H368.344ZM368.344 120.4C372.301 120.4 375.539 119.325 377.697 117.175C380.215 115.025 382.013 111.442 383.093 106.067C384.172 100.692 384.531 93.525 384.531 83.85C384.531 74.175 383.812 66.6501 383.093 61.6334C382.013 56.2584 380.215 52.3167 377.697 50.5251C375.179 48.3751 372.301 47.3 368.344 47.3C364.388 47.3 361.15 48.3751 358.992 50.5251C356.474 52.6751 354.675 56.2584 353.596 61.6334C352.517 67.0084 351.798 74.5334 351.798 83.85C351.798 93.1667 352.517 100.692 353.596 106.067C354.675 111.442 356.474 115.025 358.992 117.175C361.51 119.325 364.388 120.4 368.344 120.4Z" fill="#4E4E4E"/>
<path d="M450.359 124.7C446.043 124.7 442.446 123.983 438.849 122.55C435.251 120.758 432.733 118.25 430.575 114.667C428.777 111.083 427.697 106.067 427.697 100.333V59.4834C427.697 56.9751 427.697 55.5417 426.978 54.4667C426.259 53.3917 424.82 52.6751 423.021 52.3167L421.223 51.6001V48.7334L448.921 43.3584L450.719 45.1501L450 68.0834V104.992C450 108.575 451.079 111.442 452.877 113.233C455.036 115.025 457.554 115.742 460.431 115.742C463.309 115.742 466.546 115.742 468.705 114.308C471.223 113.233 474.1 111.8 476.618 110.008V60.2001C476.978 57.6917 476.618 55.9001 475.899 55.1834C475.18 54.1084 474.1 53.3917 471.942 53.0334H470.144V49.4501L497.122 43.7167L498.92 45.5084V68.4417C498.561 68.4417 498.561 111.083 498.561 111.083C498.561 113.233 498.561 115.025 499.28 116.458C500 117.892 501.438 118.608 503.237 119.325L505.395 120.042V123.267L478.057 125.058L476.618 114.667C473.021 117.892 469.064 120.4 464.748 122.55C460.431 124.7 455.395 125.775 450 125.775V124.7H450.359Z" fill="#4E4E4E"/>
<path d="M518.705 122.55V119.325L521.223 118.608C524.82 117.533 526.619 115.025 526.619 110.725V62.7084C526.619 60.5584 526.259 58.7667 525.54 57.6917C524.82 56.2584 523.381 55.5417 521.223 55.1834L518.705 54.4667V51.6L544.964 42.2834L546.763 44.0751L547.842 54.1084C551.799 50.5251 556.115 47.6584 560.791 45.5084C565.827 43.3584 570.504 41.925 575.18 41.925C582.374 41.925 587.77 43.7167 591.727 47.6584C595.684 51.6001 597.482 57.3334 597.482 65.575V110.725C597.482 115.025 599.281 117.533 603.237 118.608H605.036V122.192H567.626V118.967L570.144 118.25C573.741 117.175 575.54 114.308 575.54 110.367V62.35C575.54 58.4084 574.82 55.9001 573.022 54.1084C571.223 52.3167 568.705 51.6 564.748 51.6C560.791 51.6 553.957 53.75 548.201 58.4084V110.725C548.201 115.025 550 117.533 553.957 118.608H555.755V122.192H518.705V122.55Z" fill="#4E4E4E"/>
<path d="M652.518 124.7C646.043 124.7 640.287 123.267 635.252 120.4C630.216 117.533 626.259 112.875 623.381 107.142C620.503 101.05 619.064 93.525 619.064 84.2084C619.064 74.8917 620.863 67.0084 624.1 60.9167C627.338 54.4667 631.654 49.8084 637.05 46.9417C642.446 43.7167 648.561 42.2834 655.036 42.2834C661.51 42.2834 662.59 42.6417 666.187 43.7167C669.784 44.4334 673.021 45.8667 675.539 47.6584V26.5167C675.539 24.3667 675.18 22.575 674.46 21.5C673.741 20.425 672.302 19.7084 670.144 18.9917L666.906 18.275V15.05L694.964 8.2417L697.122 9.67503L696.403 32.6084V110.725C696.403 112.875 696.762 114.667 697.482 115.742C698.201 117.175 699.64 117.892 701.439 118.608H703.237V122.192L676.259 123.983L674.82 117.175C671.942 119.325 668.705 121.117 664.748 122.55C660.791 123.983 656.834 124.342 652.158 124.342L652.518 124.7ZM661.151 117.533C665.827 117.533 670.144 116.1 674.46 112.875V52.3167C670.503 49.8084 666.187 48.7334 661.51 48.7334C656.834 48.7334 651.798 51.6 647.841 57.3334C643.885 62.7084 642.086 71.6667 642.086 84.2084C642.086 96.75 643.885 105.35 647.482 110.008C651.079 115.025 655.755 117.533 661.151 117.533Z" fill="#4E4E4E"/>
<path d="M717.266 122.55V119.325L719.784 118.608C723.381 117.533 725.179 114.667 725.179 110.367V26.8751C725.179 24.7251 724.82 22.9334 724.1 21.8584C723.381 20.7834 721.942 19.7084 719.784 19.3501L717.266 18.6334V15.4084L745.683 8.6001L747.841 10.0334L747.122 32.9668V110.725C747.122 112.875 747.841 114.667 748.561 116.1C749.28 117.533 750.719 118.25 752.877 118.967L755.035 119.683V122.908H717.266V122.55Z" fill="#4E4E4E"/>
<path d="M809.352 42.2834C816.186 42.2834 821.942 43.7168 826.978 46.5834C832.014 49.4501 835.611 53.3918 838.129 58.4084C841.007 63.4251 842.086 68.8001 842.086 75.2501C842.086 81.7001 842.086 78.1168 842.086 79.1918C842.086 80.2668 842.086 81.3418 841.366 82.7751H792.445C792.445 93.8834 794.604 101.767 798.561 106.783C802.517 111.8 808.632 113.95 816.546 113.95C824.46 113.95 826.258 113.233 829.496 111.442C832.733 109.65 835.971 107.142 838.848 103.917L841.366 106.425C838.129 112.517 833.812 117.175 828.057 120.4C822.661 123.625 815.827 125.417 808.273 125.417C800.719 125.417 793.884 123.625 788.129 120.4C782.374 117.175 777.697 112.517 774.46 106.425C771.222 100.333 769.424 92.8084 769.424 84.2084C769.424 75.6084 771.222 67.7251 775.179 61.6335C779.136 55.5418 784.172 50.8834 789.927 47.6584C796.043 44.4334 802.517 42.6418 809.352 42.6418V42.2834ZM808.632 46.9418C805.395 46.9418 802.877 48.0168 800.359 49.8084C798.201 51.6001 796.402 54.8251 794.963 59.1251C793.525 63.4251 792.805 69.8751 792.805 78.1168H821.942C823.021 67.3668 822.661 59.1251 820.503 54.4668C818.345 49.4501 814.388 47.3001 808.992 47.3001H808.632V46.9418Z" fill="#4E4E4E"/>
<path d="M884.891 124.7C879.855 124.7 875.179 123.983 870.863 122.908C866.906 121.833 862.949 120.4 858.992 118.25V99.2584H863.309L868.345 108.575C870.503 112.517 872.661 115.383 875.179 117.533C878.057 119.325 881.294 120.4 885.251 120.4C889.208 120.4 894.244 119.325 897.481 117.175C900.359 115.025 902.158 111.8 902.158 108.217C902.158 104.633 901.078 101.767 898.92 99.6168C896.762 97.4668 892.445 95.3168 886.69 93.5251L879.496 91.3751C873.021 89.5834 867.985 86.3584 864.388 82.7751C860.791 78.8334 858.992 73.8168 858.992 67.7251C858.992 61.6334 860.071 58.7668 862.589 55.1834C865.107 51.2418 868.704 48.3751 873.381 45.8668C878.057 43.7168 883.812 42.2834 890.647 42.2834C897.481 42.2834 899.28 43.0001 902.877 44.0751C906.834 45.1501 910.431 46.5834 914.028 48.3751L912.949 65.5751H908.632L903.596 56.2584C901.798 52.6751 899.999 50.5251 898.201 49.0918C896.402 47.6584 893.884 46.9418 889.927 46.9418C885.971 46.9418 882.733 48.0168 879.496 50.1668C876.618 51.9584 875.179 54.8251 875.179 58.4084C875.179 61.9918 876.258 64.5001 878.776 66.6501C881.294 68.8001 885.251 70.5918 890.647 72.3834L897.481 74.5334C905.395 77.0418 911.15 80.2668 914.388 84.5668C917.625 88.5084 919.424 93.5251 919.424 99.2584C919.424 104.992 916.186 113.233 910.071 117.892C903.956 122.55 895.323 124.7 884.172 124.7H884.891Z" fill="#4E4E4E"/>
<path d="M961.87 124.7C956.834 124.7 952.158 123.983 947.841 122.908C943.884 121.833 939.928 120.4 935.971 118.25V99.2584H940.287L945.323 108.575C947.481 112.517 949.64 115.383 952.158 117.533C955.035 119.325 958.273 120.4 962.23 120.4C966.186 120.4 971.222 119.325 974.46 117.175C977.338 115.025 979.136 111.8 979.136 108.217C979.136 104.633 978.057 101.767 975.899 99.6168C973.74 97.4668 969.424 95.3168 963.668 93.5251L956.474 91.3751C949.999 89.5834 944.964 86.3584 941.366 82.7751C937.769 78.8334 935.971 73.8168 935.971 67.7251C935.971 61.6334 937.05 58.7668 939.568 55.1834C942.086 51.2418 945.683 48.3751 950.359 45.8668C955.035 43.7168 960.791 42.2834 967.625 42.2834C974.46 42.2834 976.258 43.0001 979.856 44.0751C983.812 45.1501 987.41 46.5834 991.007 48.3751L989.928 65.5751H985.611L980.575 56.2584C978.776 52.6751 976.978 50.5251 975.179 49.0918C973.381 47.6584 970.863 46.9418 966.906 46.9418C962.949 46.9418 959.712 48.0168 956.474 50.1668C953.597 51.9584 952.158 54.8251 952.158 58.4084C952.158 61.9918 953.237 64.5001 955.755 66.6501C958.273 68.8001 962.23 70.5918 967.625 72.3834L974.46 74.5334C982.374 77.0418 988.129 80.2668 991.366 84.5668C994.604 88.5084 996.402 93.5251 996.402 99.2584C996.402 104.992 993.165 113.233 987.05 117.892C980.935 122.55 972.302 124.7 961.151 124.7H961.87Z" fill="#4E4E4E"/>
</svg>
