<svg width="1000" height="278" viewBox="0 0 1000 278" fill="none" xmlns="http://www.w3.org/2000/svg">
<g clip-path="url(#clip0_442_139)">
<path d="M346.438 134.544C365.276 134.544 380.148 128.437 388.906 114.078L407.249 123.156C396.343 139.991 375.191 152.038 345.942 152.038C302.647 152.038 275.381 128.767 275.381 90.8065C275.381 52.8461 302.647 29.5747 346.768 29.5747C375.191 29.5747 396.343 41.788 407.084 58.2926L388.576 67.5351C379.983 53.3413 365.276 47.0695 346.438 47.0695C315.866 47.0695 295.541 61.9236 295.541 90.8065C295.541 119.69 315.866 134.544 346.438 134.544Z" fill="#8D8D8D"/>
<path d="M478.538 54.9912C510.099 54.9912 529.434 70.0104 529.434 98.3982V131.242C529.434 138.009 530.591 143.455 533.565 148.737H513.57C511.257 144.776 510.1 140.32 510.1 136.029V135.863C502.994 144.611 489.113 152.038 470.605 152.038C451.106 152.038 425.162 144.116 425.162 120.349C425.162 96.748 451.106 88.8254 470.605 88.8254C489.113 88.8254 502.994 96.2528 510.1 105V98.3982C510.1 78.9229 498.202 70.1754 474.902 70.1754C461.517 70.1754 450.941 73.1462 440.53 79.2529L433.59 66.2144C444.827 59.4475 462.178 54.9912 478.538 54.9912ZM510.43 121.835V119.029C503.16 106.486 487.792 102.689 474.241 102.689C462.178 102.689 444.165 105.826 444.165 120.349C444.165 135.038 462.178 138.174 474.241 138.174C487.792 138.174 503.16 134.213 510.43 121.835Z" fill="#8D8D8D"/>
<path d="M570.811 152.038H551.477V61.5934H570.811V79.0882C578.742 66.2147 593.614 58.2925 612.122 58.2925C639.719 58.2925 653.434 75.9524 653.434 100.379V152.038H634.266V101.699C634.266 83.8746 625.177 74.3019 607.165 74.3019C591.631 74.3019 578.577 81.564 570.811 96.4179V152.038Z" fill="#8D8D8D"/>
<path d="M743.396 130.252L748.519 143.621C741.083 148.572 731.002 152.038 720.592 152.038C702.91 152.038 688.864 142.631 688.864 123.816V73.6416H671.348V58.2923H688.864V37.3315H708.198V58.2923H747.693V73.6416H708.198V120.68C708.198 130.747 715.965 135.699 725.384 135.699C732.159 135.699 737.943 133.223 743.396 130.252Z" fill="#8D8D8D"/>
<path d="M822.781 152.038C787.749 152.038 766.432 133.389 766.432 103.515C766.432 73.4768 787.749 54.6616 822.781 54.6616C857.978 54.6616 879.129 73.4768 879.129 103.515C879.129 133.389 857.978 152.038 822.781 152.038ZM822.781 135.864C844.263 135.864 860.296 125.136 860.296 103.515C860.296 81.5641 844.263 70.8361 822.781 70.8361C801.465 70.8361 785.435 81.5641 785.435 103.515C785.435 125.136 801.465 135.864 822.781 135.864Z" fill="#8D8D8D"/>
<path d="M916.379 152.038H897.039V61.5934H916.379V79.0882C924.306 66.2147 939.179 58.2925 957.69 58.2925C985.288 58.2925 999.002 75.9524 999.002 100.379V152.038H979.831V101.699C979.831 83.8746 970.745 74.3019 952.733 74.3019C937.2 74.3019 924.146 81.564 916.379 96.4179V152.038Z" fill="#8D8D8D"/>
<path d="M989.357 186.248H999.442V246.51H990.313L943.164 198.99V246.51H933.164V186.248H944.196L989.357 231.961V186.248Z" fill="#8D8D8D"/>
<path d="M881.59 248.318C858.401 248.318 844.094 236.266 844.094 216.38C844.094 196.493 858.401 184.441 881.59 184.441C904.771 184.441 919.086 196.493 919.086 216.38C919.086 236.266 904.771 248.318 881.59 248.318ZM881.59 239.193C897.961 239.193 908.477 231.015 908.477 216.38C908.477 201.745 897.961 193.566 881.59 193.566C865.211 193.566 854.611 201.745 854.611 216.38C854.611 231.015 865.127 239.193 881.59 239.193Z" fill="#8D8D8D"/>
<path d="M830.123 246.51H819.779V186.248H830.123V246.51Z" fill="#8D8D8D"/>
<path d="M808.93 186.248V195.288H781.434V246.51H771.091V195.288H743.768V186.248H808.93Z" fill="#8D8D8D"/>
<path d="M739.718 246.51L731.961 231.961H693.259L685.588 246.51H674.383L707.05 186.248H718.429L751.01 246.51H739.718ZM697.914 223.18H727.392L712.653 195.288L697.914 223.18Z" fill="#8D8D8D"/>
<path d="M635.316 186.248C657.727 186.248 672.035 197.784 672.035 216.379C672.035 234.974 657.727 246.51 635.316 246.51H604.717V186.248H635.316ZM634.54 237.471C650.4 237.471 661.433 230.326 661.433 216.379C661.433 202.433 650.4 195.288 634.54 195.288H615.06V237.471H634.54Z" fill="#8D8D8D"/>
<path d="M576.404 186.248H586.488V246.51H577.351L530.203 198.99V246.51H520.205V186.248H531.238L576.404 231.961V186.248Z" fill="#8D8D8D"/>
<path d="M492.771 186.248H503.113V218.101C503.113 235.921 491.65 248.318 470.273 248.318C448.984 248.318 437.52 235.921 437.52 218.101V186.248H447.863V217.412C447.863 230.928 455.879 239.107 470.273 239.107C484.755 239.107 492.771 230.928 492.771 217.412V186.248Z" fill="#8D8D8D"/>
<path d="M387.065 248.318C363.879 248.318 349.57 236.266 349.57 216.38C349.57 196.493 363.879 184.441 387.065 184.441C410.251 184.441 424.559 196.493 424.559 216.38C424.559 236.266 410.251 248.318 387.065 248.318ZM387.065 239.193C403.442 239.193 413.958 231.015 413.958 216.38C413.958 201.745 403.442 193.566 387.065 193.566C370.688 193.566 360.086 201.745 360.086 216.38C360.086 231.015 370.602 239.193 387.065 239.193Z" fill="#8D8D8D"/>
<path d="M343.563 195.374H294.863V213.108H336.064V222.32H294.863V246.51H284.52V186.248H343.563V195.374Z" fill="#8D8D8D"/>
<path d="M211.326 30.7515L175.152 66.8798L211.326 103.008L247.498 66.8798L211.326 30.7515Z" fill="#8D8D8D"/>
<path d="M211.335 31.6612L246.6 66.8824L211.335 102.104L176.071 66.8824L211.335 31.6612ZM211.335 29.8604L174.268 66.8824L211.335 103.904L248.403 66.8824L211.335 29.8604Z" fill="#030206"/>
<path d="M207.722 27.3066L171.549 63.4351L207.722 99.5638L243.895 63.4351L207.722 27.3066Z" fill="#8D8D8D"/>
<path d="M207.728 28.2271L242.992 63.4483L207.728 98.6698L172.463 63.4483L207.728 28.2271ZM207.728 26.4263L170.66 63.4483L207.728 100.47L244.795 63.4483L207.728 26.4263Z" fill="#030206"/>
<path d="M203.964 24.103L167.791 60.2314L203.964 96.3594L240.137 60.2314L203.964 24.103Z" fill="#8D8D8D"/>
<path d="M203.956 24.9606L239.22 60.1817L203.956 95.4032L168.692 60.2237L203.956 24.9606ZM203.956 23.2017L166.889 60.2237L203.956 97.2453L241.023 60.2237L203.956 23.2017Z" fill="#030206"/>
<path d="M200.111 21.0869L163.938 57.2153L200.111 93.3438L236.284 57.2153L200.111 21.0869Z" fill="#8D8D8D"/>
<path d="M200.097 21.945L235.362 57.1662L200.097 92.3871L164.832 57.1662L200.097 21.945ZM200.097 20.186L163.029 57.2081L200.097 94.23L237.165 57.2081L200.097 20.186Z" fill="#030206"/>
<path d="M196.168 18.2632L159.994 54.3916L196.168 90.5199L232.34 54.3916L196.168 18.2632Z" fill="#8D8D8D"/>
<path d="M196.156 19.1394L231.42 54.3605L196.156 89.582L160.891 54.3605L196.156 19.1394ZM196.156 17.3804L159.088 54.4024L196.156 91.4241L233.223 54.4024L196.156 17.3804Z" fill="#030206"/>
<path d="M192.072 15.6392L155.898 51.7675L192.072 87.8961L228.244 51.7675L192.072 15.6392Z" fill="#8D8D8D"/>
<path d="M192.087 16.5426L227.352 51.7639L192.087 86.9851L156.823 51.7639L192.087 16.5426ZM192.087 14.7837L155.02 51.8057L192.087 88.828L229.155 51.8057L192.087 14.7837Z" fill="#030206"/>
<path d="M187.921 13.2476L151.748 49.376L187.921 85.504L224.094 49.376L187.921 13.2476Z" fill="#8D8D8D"/>
<path d="M187.937 14.1555L223.202 49.3766L187.937 84.5975L152.672 49.3766L187.937 14.1555ZM187.937 12.3965L150.869 49.4186L187.937 86.4404L225.004 49.4186L187.937 12.3965Z" fill="#030206"/>
<path d="M183.683 11.0654L147.51 47.1939L183.683 83.3222L219.856 47.1939L183.683 11.0654Z" fill="#8D8D8D"/>
<path d="M183.702 11.9781L218.967 47.1992L183.702 82.4204L148.438 47.1992L183.702 11.9781ZM183.702 10.1772L146.635 47.1992L183.702 84.2213L220.77 47.1992L183.702 10.1772Z" fill="#030206"/>
<path d="M179.362 9.09863L143.189 45.227L179.362 81.3554L215.535 45.227L179.362 9.09863Z" fill="#8D8D8D"/>
<path d="M179.382 10.0095L214.646 45.2306L179.382 80.4518L144.117 45.2306L179.382 10.0095ZM179.382 8.25049L142.314 45.2725L179.382 82.2945L216.45 45.2725L179.382 8.25049Z" fill="#030206"/>
<path d="M174.966 7.35156L138.793 43.48L174.966 79.6083L211.138 43.48L174.966 7.35156Z" fill="#8D8D8D"/>
<path d="M174.982 8.25017L210.246 43.4713L174.982 78.7344L139.717 43.5132L174.982 8.25017ZM174.982 6.49121L137.914 43.5132L174.982 80.5352L212.049 43.5132L174.982 6.49121Z" fill="#030206"/>
<path d="M170.548 5.83154L134.375 41.96L170.548 78.0883L206.721 41.96L170.548 5.83154Z" fill="#8D8D8D"/>
<path d="M170.536 6.70087L205.8 41.9221L170.536 77.1432L135.272 41.9221L170.536 6.70087ZM170.536 4.94189L133.469 41.9639L170.536 78.986L207.603 41.9639L170.536 4.94189Z" fill="#030206"/>
<path d="M166.051 4.48291L129.879 40.6113L166.051 76.7397L202.224 40.6113L166.051 4.48291Z" fill="#8D8D8D"/>
<path d="M166.048 5.36101L201.313 40.5822L166.048 75.8034L130.783 40.5822L166.048 5.36101ZM166.048 3.60205L128.98 40.6241L166.048 77.6461L203.116 40.6241L166.048 3.60205Z" fill="#030206"/>
<path d="M161.487 3.37207L125.314 39.5005L161.487 75.6289L197.66 39.5005L161.487 3.37207Z" fill="#8D8D8D"/>
<path d="M161.48 4.22967L196.744 39.4509L161.48 74.7139L126.215 39.4927L161.48 4.22967ZM161.48 2.4707L124.412 39.4927L161.48 76.5148L198.547 39.4927L161.48 2.4707Z" fill="#030206"/>
<path d="M156.907 2.44336L120.734 38.5717L156.907 74.7001L193.08 38.5717L156.907 2.44336Z" fill="#8D8D8D"/>
<path d="M156.908 3.35017L192.172 38.5714L156.908 73.7925L121.644 38.5714L156.908 3.35017ZM156.908 1.54932L119.84 38.5714L156.908 75.5934L193.975 38.5714L156.908 1.54932Z" fill="#030206"/>
<path d="M152.288 1.7334L116.115 37.8618L152.288 73.9902L188.461 37.8618L152.288 1.7334Z" fill="#8D8D8D"/>
<path d="M152.296 2.63873L187.561 37.8599L152.296 73.0811L117.031 37.8599L152.296 2.63873ZM152.296 0.837891L115.229 37.8599L152.296 74.8819L189.364 37.8599L152.296 0.837891Z" fill="#030206"/>
<path d="M147.634 1.24805L111.461 37.3764L147.634 73.5048L183.807 37.3764L147.634 1.24805Z" fill="#8D8D8D"/>
<path d="M147.642 2.13543L182.907 37.3566L147.642 72.6197L112.377 37.3985L147.642 2.13543ZM147.642 0.376465L110.574 37.3985L147.642 74.4205L184.71 37.3985L147.642 0.376465Z" fill="#030206"/>
<path d="M143.03 0.960938L106.857 37.0893L143.03 73.2177L179.203 37.0893L143.03 0.960938Z" fill="#8D8D8D"/>
<path d="M143.031 1.84295L178.295 37.0641L143.031 72.2853L107.766 37.0641L143.031 1.84295ZM143.031 0.0839844L105.963 37.106L143.031 74.1281L180.098 37.106L143.031 0.0839844Z" fill="#030206"/>
<path d="M138.335 0.909668L102.162 37.038L138.335 73.1664L174.507 37.0381L138.335 0.909668Z" fill="#8D8D8D"/>
<path d="M138.332 1.80084L173.597 37.022L138.332 72.2432L103.068 37.022L138.332 1.80084ZM138.332 0L101.307 37.022L138.374 74.0441L175.4 37.022L138.332 0Z" fill="#030206"/>
<path d="M133.669 1.03955L97.4961 37.1679L133.669 73.2963L169.842 37.1679L133.669 1.03955Z" fill="#8D8D8D"/>
<path d="M133.677 1.92596L168.942 37.1471L133.677 72.3684L98.4131 37.1471L133.677 1.92596ZM133.677 0.166992L96.6094 37.189L133.677 74.211L170.745 37.189L133.677 0.166992Z" fill="#030206"/>
<path d="M129.065 1.38574L92.8926 37.5141L129.065 73.6425L165.238 37.5141L129.065 1.38574Z" fill="#8D8D8D"/>
<path d="M129.066 2.26141L164.331 37.4826L129.066 72.7038L93.8009 37.4826L129.066 2.26141ZM129.066 0.502441L91.998 37.5245L129.066 74.5465L166.133 37.5245L129.066 0.502441Z" fill="#030206"/>
<path d="M124.403 1.95215L88.2305 38.0806L124.403 74.2089L160.576 38.0806L124.403 1.95215Z" fill="#8D8D8D"/>
<path d="M124.411 2.84772L159.676 38.0689L124.411 73.2901L89.1466 38.0689L124.411 2.84772ZM124.411 1.04688L87.3438 38.0689L124.411 75.091L161.479 38.0689L124.411 1.04688Z" fill="#030206"/>
<path d="M119.812 2.74707L83.6387 38.8755L119.812 75.0038L155.984 38.8755L119.812 2.74707Z" fill="#8D8D8D"/>
<path d="M119.798 3.60174L155.063 38.8229L119.798 74.0441L84.5335 38.8229L119.798 3.60174ZM119.798 1.84277L82.7305 38.8648L119.798 75.8868L156.866 38.8648L119.798 1.84277Z" fill="#030206"/>
<path d="M115.226 3.71582L79.0527 39.8442L115.226 75.9726L151.398 39.8442L115.226 3.71582Z" fill="#8D8D8D"/>
<path d="M115.228 4.60651L150.492 39.8277L115.228 75.0489L79.9632 39.8277L115.228 4.60651ZM115.228 2.80566L78.1602 39.8277L115.228 76.8497L152.295 39.8277L115.228 2.80566Z" fill="#030206"/>
<path d="M110.712 4.92236L74.5391 41.0507L110.712 77.1791L146.885 41.0507L110.712 4.92236Z" fill="#8D8D8D"/>
<path d="M110.698 5.77947L145.963 41.0006L110.698 76.2219L75.434 41.0006L110.698 5.77947ZM110.698 4.02051L73.6309 41.0425L110.698 78.0645L147.766 41.0425L110.698 4.02051Z" fill="#030206"/>
<path d="M106.21 6.31396L70.0371 42.4424L106.21 78.5707L142.383 42.4424L106.21 6.31396Z" fill="#8D8D8D"/>
<path d="M106.214 7.20319L141.479 42.4244L106.214 77.6875L70.9495 42.4663L106.214 7.20319ZM106.214 5.40234L69.1465 42.4244L106.214 79.4464L143.281 42.4244L106.214 5.40234Z" fill="#030206"/>
<path d="M101.811 7.9248L65.6387 44.0532L101.811 80.1816L137.984 44.0532L101.811 7.9248Z" fill="#8D8D8D"/>
<path d="M101.81 8.79462L137.074 44.0158L101.81 79.2369L66.5452 44.0158L101.81 8.79462ZM101.81 7.03564L64.7422 44.0577L101.81 81.0797L138.877 44.0577L101.81 7.03564Z" fill="#030206"/>
<path d="M97.4311 9.73047L61.2578 45.8589L97.4311 81.9872L133.604 45.8589L97.4311 9.73047Z" fill="#8D8D8D"/>
<path d="M97.4485 10.6379L132.713 45.8591L97.4485 81.0802L62.1839 45.8591L97.4485 10.6379ZM97.4485 8.87891L60.3809 45.901L97.4485 82.923L134.516 45.901L97.4485 8.87891Z" fill="#030206"/>
<path d="M93.1283 11.7974L56.9551 47.9257L93.1283 84.0541L129.301 47.9257L93.1283 11.7974Z" fill="#8D8D8D"/>
<path d="M93.1293 12.6895L128.436 47.9108L93.1708 83.1319L57.8646 47.9108L93.1293 12.6895ZM93.1293 10.8887L56.1035 47.9108L93.1708 84.9329L130.238 47.9108L93.1293 10.8887Z" fill="#030206"/>
<path d="M88.9401 14.0405L52.7676 50.169L88.9401 86.2974L125.114 50.169L88.9401 14.0405Z" fill="#8D8D8D"/>
<path d="M88.9384 14.9093L124.203 50.1305L88.9384 85.3519L53.6742 50.1305L88.9384 14.9093ZM88.9384 13.1504L51.8711 50.1724L88.9384 87.1948L126.006 50.1724L88.9384 13.1504Z" fill="#030206"/>
<path d="M84.831 16.4961L48.6582 52.6244L84.831 88.7532L121.004 52.6244L84.831 16.4961Z" fill="#8D8D8D"/>
<path d="M84.8273 17.3806L120.092 52.6017L84.8273 87.865L49.5628 52.6436L84.8273 17.3806ZM84.8273 15.6216L47.7598 52.6436L84.8273 89.6657L121.895 52.6436L84.8273 15.6216Z" fill="#030206"/>
<path d="M80.7549 19.1689L44.582 55.2974L80.7549 91.4258L116.928 55.2974L80.7549 19.1689Z" fill="#8D8D8D"/>
<path d="M80.7599 20.0606L116.024 55.2818L80.7599 90.5029L45.4955 55.2818L80.7599 20.0606ZM80.7599 18.2598L43.7344 55.2818L80.8019 92.3036L117.869 55.2818L80.7599 18.2598Z" fill="#030206"/>
<path d="M76.8505 22.0352L40.6777 58.1636L76.8505 94.2917L113.024 58.1636L76.8505 22.0352Z" fill="#8D8D8D"/>
<path d="M76.8605 22.9502L112.125 58.1714L76.8605 93.4343L41.596 58.2133L76.8605 22.9502ZM76.8605 21.1494L39.793 58.1714L76.8605 95.1936L113.928 58.1714L76.8605 21.1494Z" fill="#030206"/>
<path d="M73.04 25.1309L36.8672 61.2592L73.04 97.3879L109.213 61.2592L73.04 25.1309Z" fill="#8D8D8D"/>
<path d="M73.0441 26.0494L108.309 61.2705L73.0441 96.4915L37.7796 61.2705L73.0441 26.0494ZM73.0441 24.2485L35.9766 61.2705L73.0441 98.2922L110.112 61.2705L73.0441 24.2485Z" fill="#030206"/>
<path d="M69.3192 28.46L33.1465 64.5883L69.3192 100.716L105.492 64.5883L69.3192 28.46Z" fill="#8D8D8D"/>
<path d="M69.3117 29.3161L104.576 64.5373L69.3117 99.8001L34.0472 64.5791L69.3117 29.3161ZM69.3117 27.5571L32.2441 64.5791L69.3117 101.601L106.379 64.5791L69.3117 27.5571Z" fill="#030206"/>
<path d="M65.7606 31.9702L29.5879 68.0986L65.7606 104.227L101.933 68.0986L65.7606 31.9702Z" fill="#8D8D8D"/>
<path d="M65.7473 32.8341L101.012 68.0554L65.7473 103.277L30.4827 68.0554L65.7473 32.8341ZM65.7473 31.0752L28.6797 68.0972L65.7473 105.12L102.815 68.0972L65.7473 31.0752Z" fill="#030206"/>
<path d="M62.3955 35.6016L26.2227 71.73L62.3955 107.859L98.5686 71.73L62.3955 35.6016Z" fill="#8D8D8D"/>
<path d="M62.3956 36.4778L97.6602 71.6989L62.3956 106.962L27.1312 71.7408L62.3956 36.4778ZM62.3956 34.7188L25.3281 71.7408L62.3956 108.763L99.4631 71.7408L62.3956 34.7188Z" fill="#030206"/>
<path d="M59.2079 39.3867L23.0352 75.5151L59.2079 111.643L95.3807 75.5151L59.2079 39.3867Z" fill="#8D8D8D"/>
<path d="M59.2062 40.2886L94.4703 75.5098L59.2062 110.731L23.9417 75.5098L59.2062 40.2886ZM59.2062 38.4878L22.1387 75.5098L59.2062 112.532L96.274 75.5098L59.2062 38.4878Z" fill="#030206"/>
<path d="M56.2685 43.2656L20.0957 79.394L56.2685 115.523L92.441 79.394L56.2685 43.2656Z" fill="#8D8D8D"/>
<path d="M56.2707 44.1412L91.5354 79.3625L56.2707 114.584L21.0062 79.3625L56.2707 44.1412ZM56.2707 42.3823L19.2031 79.4043L56.2707 116.426L93.3383 79.4043L56.2707 42.3823Z" fill="#030206"/>
<path d="M53.497 47.2661L17.3242 83.3945L53.497 119.522L89.6697 83.3945L53.497 47.2661Z" fill="#8D8D8D"/>
<path d="M53.5031 48.1617L88.7674 83.3828L53.5031 118.604L18.2387 83.3828L53.5031 48.1617ZM53.5031 46.3608L16.4355 83.3828L53.5031 120.405L90.5703 83.3828L53.5031 46.3608Z" fill="#030206"/>
<path d="M50.9872 51.354L14.8145 87.4821L50.9872 123.611L87.1598 87.4821L50.9872 51.354Z" fill="#8D8D8D"/>
<path d="M50.9875 52.2243L86.2523 87.4458L50.9875 122.666L15.723 87.4458L50.9875 52.2243ZM50.9875 50.4653L13.9199 87.4872L50.9875 124.509L88.0552 87.4872L50.9875 50.4653Z" fill="#030206"/>
<path d="M48.6532 55.5581L12.4805 91.6866L48.6532 127.815L84.8256 91.6866L48.6532 55.5581Z" fill="#8D8D8D"/>
<path d="M48.6399 56.4123L83.9043 91.6333L48.6399 126.855L13.3754 91.6333L48.6399 56.4123ZM48.6399 54.6533L11.5723 91.6756L48.6399 128.698L85.707 91.6756L48.6399 54.6533Z" fill="#030206"/>
<path d="M46.5303 59.7871L10.3574 95.9152L46.5302 132.044L82.703 95.9152L46.5303 59.7871Z" fill="#8D8D8D"/>
<path d="M46.5441 60.6842L81.8085 95.9057L46.5441 131.126L11.2796 95.9057L46.5441 60.6842ZM46.5441 58.9253L9.47656 95.9471L46.5441 132.969L83.6117 95.9471L46.5441 58.9253Z" fill="#030206"/>
<path d="M44.6553 64.1279L8.48242 100.257L44.6552 136.385L80.828 100.257L44.6553 64.1279Z" fill="#8D8D8D"/>
<path d="M44.6593 65.0396L79.9238 100.261L44.6593 135.482L9.35291 100.261L44.6593 65.0396ZM44.6593 63.2388L7.5918 100.261L44.6593 137.283L81.7268 100.261L44.6593 63.2388Z" fill="#030206"/>
<path d="M42.9716 68.5186L6.79883 104.647L42.9716 140.775L79.1445 104.647L42.9716 68.5186Z" fill="#8D8D8D"/>
<path d="M42.9816 69.4375L78.2461 104.658L42.9816 139.88L7.6752 104.658L42.9816 69.4375ZM42.9816 67.6367L5.91406 104.658L42.9816 141.681L80.0491 104.658L42.9816 67.6367Z" fill="#030206"/>
<path d="M41.4853 73.0161L5.3125 109.144L41.4853 145.273L77.6581 109.144L41.4853 73.0161Z" fill="#8D8D8D"/>
<path d="M41.4718 73.8767L76.7364 109.098L41.4718 144.319L6.20736 109.098L41.4718 73.8767ZM41.4718 72.1177L4.4043 109.14L41.4718 146.162L78.5394 109.14L41.4718 72.1177Z" fill="#030206"/>
<path d="M40.2021 77.5L4.0293 113.629L40.2021 149.757L76.3749 113.629L40.2021 77.5Z" fill="#8D8D8D"/>
<path d="M40.2101 78.3995L75.4746 113.621L40.2101 148.842L4.94564 113.621L40.2101 78.3995ZM40.2101 76.5986L3.14258 113.621L40.2101 150.643L77.2776 113.621L40.2101 76.5986Z" fill="#030206"/>
<path d="M39.1611 82.0566L2.98828 118.185L39.1611 154.314L75.3339 118.185L39.1611 82.0566Z" fill="#8D8D8D"/>
<path d="M39.1652 82.9649L74.4297 118.186L39.1652 153.449L3.90071 118.186L39.1652 82.9649ZM39.1652 81.1641L2.09766 118.186L39.1652 155.208L76.2328 118.186L39.1652 81.1641Z" fill="#030206"/>
<path d="M38.333 86.6538L2.16016 122.782L38.333 158.91L74.5058 122.782L38.333 86.6538Z" fill="#8D8D8D"/>
<path d="M38.3254 87.5293L73.5899 122.751L38.3254 157.971L3.06087 122.751L38.3254 87.5293ZM38.3254 85.77L1.25781 122.792L38.3254 159.814L75.3929 122.792L38.3254 85.77Z" fill="#030206"/>
<path d="M37.6962 91.2593L1.52344 127.388L37.6962 163.516L73.8691 127.388L37.6962 91.2593Z" fill="#8D8D8D"/>
<path d="M37.6965 92.1362L72.9609 127.358L37.6965 162.578L2.43197 127.358L37.6965 92.1362ZM37.6965 90.377L0.628906 127.399L37.6965 164.421L74.764 127.399L37.6965 90.377Z" fill="#030206"/>
<path d="M37.2861 95.9033L1.11328 132.031L37.2861 168.16L73.4589 132.031L37.2861 95.9033Z" fill="#8D8D8D"/>
<path d="M37.2785 96.7848L72.543 132.006L37.2785 167.269L2.014 132.048L37.2785 96.7848ZM37.2785 95.0264L0.210938 132.048L37.2785 169.07L74.346 132.048L37.2785 95.0264Z" fill="#030206"/>
<path d="M37.0458 100.52L0.873047 136.648L37.0458 172.777L73.2187 136.648L37.0458 100.52Z" fill="#8D8D8D"/>
<path d="M37.0675 101.434L72.3321 136.655L37.0675 171.877L1.80306 136.655L37.0675 101.434ZM37.0675 99.6753L0 136.697L37.0675 173.719L74.1351 136.697L37.0675 99.6753Z" fill="#030206"/>
<path d="M37.0752 105.2L0.902344 141.329L37.0752 177.457L73.2479 141.329L37.0752 105.2Z" fill="#8D8D8D"/>
<path d="M37.0675 106.083L72.3321 141.304L37.0675 176.525L1.80306 141.304L37.0675 106.083ZM37.0675 104.324L0 141.346L37.0675 178.368L74.1351 141.346L37.0675 104.324Z" fill="#030206"/>
<path d="M37.2607 109.818L1.08789 145.947L37.2607 182.076L73.4335 145.947L37.2607 109.818Z" fill="#8D8D8D"/>
<path d="M37.2785 110.731L72.543 145.952L37.2785 181.173L2.014 145.952L37.2785 110.731ZM37.2785 108.972L0.210938 145.994L37.2785 183.016L74.346 145.994L37.2785 108.972Z" fill="#030206"/>
<path d="M37.6885 114.466L1.51562 150.594L37.6885 186.722L73.8612 150.594L37.6885 114.466Z" fill="#8D8D8D"/>
<path d="M37.6965 115.38L72.9609 150.601L37.6965 185.822L2.43197 150.601L37.6965 115.38ZM37.6965 113.579L0.628906 150.601L37.6965 187.623L74.764 150.601L37.6965 113.579Z" fill="#030206"/>
<path d="M38.3095 119.079L2.13672 155.207L38.3095 191.335L74.4823 155.207L38.3095 119.079Z" fill="#8D8D8D"/>
<path d="M38.3254 119.986L73.5899 155.208L38.3254 190.429L3.06087 155.208L38.3254 119.986ZM38.3254 118.186L1.25781 155.208L38.3254 192.23L75.3929 155.208L38.3254 118.186Z" fill="#030206"/>
<path d="M39.1611 123.684L2.98828 159.812L39.1611 195.94L75.3339 159.812L39.1611 123.684Z" fill="#8D8D8D"/>
<path d="M39.1652 124.552L74.4297 159.772L39.1652 194.994L3.90071 159.815L39.1652 124.552ZM39.1652 122.792L2.09766 159.815L39.1652 196.837L76.2328 159.815L39.1652 122.792Z" fill="#030206"/>
<path d="M40.2216 128.25L4.04883 164.379L40.2216 200.507L76.3945 164.379L40.2216 128.25Z" fill="#8D8D8D"/>
<path d="M40.2101 129.116L75.4746 164.338L40.2101 199.559L4.94564 164.338L40.2101 129.116ZM40.2101 127.358L3.14258 164.38L40.2101 201.401L77.2776 164.38L40.2101 127.358Z" fill="#030206"/>
<path d="M41.4619 132.746L5.28906 168.875L41.4619 205.003L77.6347 168.875L41.4619 132.746Z" fill="#8D8D8D"/>
<path d="M41.4718 133.639L76.7364 168.861L41.4718 204.124L6.20736 168.903L41.4718 133.639ZM41.4718 131.881L4.4043 168.903L41.4718 205.924L78.5394 168.903L41.4718 131.881Z" fill="#030206"/>
<path d="M42.9775 137.197L6.80469 173.326L42.9775 209.454L79.1503 173.326L42.9775 137.197Z" fill="#8D8D8D"/>
<path d="M42.9816 138.079L78.2461 173.3L42.9816 208.521L7.6752 173.342L42.9816 138.079ZM42.9816 136.32L5.91406 173.342L42.9816 210.364L80.0491 173.342L42.9816 136.32Z" fill="#030206"/>
<path d="M44.6553 141.606L8.48242 177.734L44.6552 213.862L80.828 177.734L44.6553 141.606Z" fill="#8D8D8D"/>
<path d="M44.6593 142.517L79.9238 177.739L44.6593 212.96L9.35291 177.739L44.6593 142.517ZM44.6593 140.717L7.5918 177.739L44.6593 214.761L81.7268 177.739L44.6593 140.717Z" fill="#030206"/>
<path d="M46.5557 145.964L10.3828 182.093L46.5557 218.222L82.7285 182.093L46.5557 145.964Z" fill="#8D8D8D"/>
<path d="M46.5441 146.831L81.8085 182.053L46.5441 217.274L11.2796 182.053L46.5441 146.831ZM46.5441 145.073L9.47656 182.095L46.5441 219.116L83.6117 182.095L46.5441 145.073Z" fill="#030206"/>
<path d="M48.6356 150.213L12.4629 186.342L48.6356 222.47L84.8085 186.342L48.6356 150.213Z" fill="#8D8D8D"/>
<path d="M48.6399 151.103L83.9043 186.325L48.6399 221.546L13.3754 186.325L48.6399 151.103ZM48.6399 149.303L11.5723 186.325L48.6399 223.346L85.707 186.325L48.6399 149.303Z" fill="#030206"/>
<path d="M50.9814 154.381L14.8086 190.51L50.9814 226.638L87.1539 190.51L50.9814 154.381Z" fill="#8D8D8D"/>
<path d="M50.9875 155.291L86.2523 190.513L50.9875 225.734L15.723 190.513L50.9875 155.291ZM50.9875 153.491L13.9199 190.513L50.9875 227.535L88.0552 190.513L50.9875 153.491Z" fill="#030206"/>
<path d="M53.5107 158.494L17.3379 194.622L53.5107 230.75L89.6838 194.622L53.5107 158.494Z" fill="#8D8D8D"/>
<path d="M53.5031 159.354L88.7674 194.575L53.5031 229.796L18.2387 194.575L53.5031 159.354ZM53.5031 157.595L16.4355 194.617L53.5031 231.639L90.5703 194.617L53.5031 157.595Z" fill="#030206"/>
<path d="M56.2607 162.459L20.0879 198.588L56.2607 234.717L92.4338 198.588L56.2607 162.459Z" fill="#8D8D8D"/>
<path d="M56.2707 163.374L91.5354 198.596L56.2707 233.859L21.0062 198.637L56.2707 163.374ZM56.2707 161.574L19.2031 198.596L56.2707 235.618L93.3383 198.596L56.2707 161.574Z" fill="#030206"/>
<path d="M59.2079 166.366L23.0352 202.495L59.2079 238.623L95.3807 202.495L59.2079 166.366Z" fill="#8D8D8D"/>
<path d="M59.2062 167.27L94.4703 202.49L59.2062 237.712L23.9417 202.49L59.2062 167.27ZM59.2062 165.468L22.1387 202.49L59.2062 239.513L96.274 202.49L59.2062 165.468Z" fill="#030206"/>
<path d="M62.3857 170.122L26.2129 206.251L62.3857 242.379L98.5586 206.251L62.3857 170.122Z" fill="#8D8D8D"/>
<path d="M62.3956 171.038L97.6602 206.26L62.3956 241.481L27.1312 206.26L62.3956 171.038ZM62.3956 169.238L25.3281 206.26L62.3956 243.281L99.4631 206.26L62.3956 169.238Z" fill="#030206"/>
<path d="M65.7373 173.786L29.5645 209.914L65.7373 246.042L101.91 209.914L65.7373 173.786Z" fill="#8D8D8D"/>
<path d="M65.7473 174.682L101.012 209.903L65.7473 245.166L30.4827 209.945L65.7473 174.682ZM65.7473 172.923L28.6797 209.945L65.7473 246.967L102.815 209.945L65.7473 172.923Z" fill="#030206"/>
<path d="M69.3076 177.306L33.1348 213.435L69.3076 249.563L105.481 213.435L69.3076 177.306Z" fill="#8D8D8D"/>
<path d="M69.3117 178.2L104.576 213.421L69.3117 248.684L34.0472 213.463L69.3117 178.2ZM69.3117 176.399L32.2441 213.421L69.3117 250.443L106.379 213.421L69.3117 176.399Z" fill="#030206"/>
<path d="M73.036 180.59L36.8633 216.719L73.036 252.848L109.209 216.719L73.036 180.59Z" fill="#8D8D8D"/>
<path d="M73.0441 181.509L108.309 216.729L73.0441 251.951L37.7796 216.729L73.0441 181.509ZM73.0441 179.707L35.9766 216.729L73.0441 253.751L110.112 216.729L73.0441 179.707Z" fill="#030206"/>
<path d="M76.8584 183.688L40.6855 219.817L76.8584 255.945L113.031 219.817L76.8584 183.688Z" fill="#8D8D8D"/>
<path d="M76.8605 184.566L112.125 219.787L76.8605 255.05L41.596 219.829L76.8605 184.566ZM76.8605 182.807L39.793 219.829L76.8605 256.851L113.928 219.829L76.8605 182.807Z" fill="#030206"/>
<path d="M80.7705 186.595L44.5977 222.723L80.7705 258.851L116.943 222.723L80.7705 186.595Z" fill="#8D8D8D"/>
<path d="M80.7599 187.455L116.024 222.676L80.7599 257.898L45.4955 222.676L80.7599 187.455ZM80.7599 185.696L43.7344 222.718L80.8019 259.74L117.869 222.718L80.7599 185.696Z" fill="#030206"/>
<path d="M84.804 189.219L48.6309 225.347L84.804 261.476L120.977 225.347L84.804 189.219Z" fill="#8D8D8D"/>
<path d="M84.8273 190.136L120.092 225.356L84.8273 260.62L49.5628 225.399L84.8273 190.136ZM84.8273 188.376L47.7598 225.399L84.8273 262.421L121.895 225.399L84.8273 188.376Z" fill="#030206"/>
<path d="M88.9329 191.697L52.7598 227.825L88.9329 263.954L125.106 227.825L88.9329 191.697Z" fill="#8D8D8D"/>
<path d="M88.9384 192.607L124.203 227.828L88.9384 263.049L53.6742 227.828L88.9384 192.607ZM88.9384 190.806L51.8711 227.828L88.9384 264.85L126.006 227.828L88.9384 190.806Z" fill="#030206"/>
<path d="M93.1354 193.971L56.9629 230.099L93.1354 266.228L129.309 230.099L93.1354 193.971Z" fill="#8D8D8D"/>
<path d="M93.1293 194.826L128.436 230.09L93.1708 265.31L57.8646 230.09L93.1293 194.826ZM93.1293 193.067L56.1035 230.09L93.1708 267.112L130.238 230.09L93.1293 193.067Z" fill="#030206"/>
<path d="M97.4582 196L61.2852 232.128L97.4582 268.257L133.631 232.128L97.4582 196Z" fill="#8D8D8D"/>
<path d="M97.4485 196.878L132.713 232.1L97.4485 267.362L62.1839 232.141L97.4485 196.878ZM97.4485 195.12L60.3809 232.141L97.4485 269.163L134.516 232.141L97.4485 195.12Z" fill="#030206"/>
<path d="M101.8 197.812L65.627 233.941L101.8 270.069L137.973 233.941L101.8 197.812Z" fill="#8D8D8D"/>
<path d="M101.81 198.721L137.074 233.943L101.81 269.163L66.5452 233.943L101.81 198.721ZM101.81 196.92L64.7422 233.943L101.81 270.965L138.877 233.943L101.81 196.92Z" fill="#030206"/>
<path d="M106.224 199.457L70.0508 235.585L106.224 271.714L142.396 235.585L106.224 199.457Z" fill="#8D8D8D"/>
<path d="M106.214 200.313L141.479 235.534L106.214 270.797L70.9495 235.576L106.214 200.313ZM106.214 198.554L69.1465 235.576L106.214 272.598L143.281 235.576L106.214 198.554Z" fill="#030206"/>
<path d="M110.69 200.844L74.5176 236.973L110.69 273.101L146.864 236.973L110.69 200.844Z" fill="#8D8D8D"/>
<path d="M110.698 201.736L145.963 236.957L110.698 272.179L75.434 236.957L110.698 201.736ZM110.698 199.935L73.6309 236.957L110.698 273.979L147.766 236.957L110.698 199.935Z" fill="#030206"/>
<path d="M115.235 202.055L79.0625 238.183L115.235 274.312L151.408 238.183L115.235 202.055Z" fill="#8D8D8D"/>
<path d="M115.228 202.91L150.492 238.13L115.228 273.352L79.9632 238.13L115.228 202.91ZM115.228 201.15L78.1602 238.173L115.228 275.195L152.295 238.173L115.228 201.15Z" fill="#030206"/>
<path d="M119.792 203.023L83.6191 239.152L119.792 275.28L155.964 239.152L119.792 203.023Z" fill="#8D8D8D"/>
<path d="M119.798 203.914L155.063 239.136L119.798 274.357L84.5335 239.136L119.798 203.914ZM119.798 202.114L82.7305 239.136L119.798 276.157L156.866 239.136L119.798 202.114Z" fill="#030206"/>
<path d="M124.419 203.809L88.2461 239.937L124.419 276.066L160.591 239.937L124.419 203.809Z" fill="#8D8D8D"/>
<path d="M124.411 204.668L159.676 239.89L124.411 275.111L89.1466 239.89L124.411 204.668ZM124.411 202.91L87.3438 239.932L124.411 276.953L161.479 239.932L124.411 202.91Z" fill="#030206"/>
<path d="M129.053 204.34L92.8809 240.469L129.053 276.598L165.227 240.469L129.053 204.34Z" fill="#8D8D8D"/>
<path d="M129.066 205.254L164.331 240.476L129.066 275.739L93.8009 240.517L129.066 205.254ZM129.066 203.454L91.998 240.476L129.066 277.498L166.133 240.476L129.066 203.454Z" fill="#030206"/>
<path d="M133.695 204.731L97.5215 240.86L133.695 276.988L169.868 240.86L133.695 204.731Z" fill="#8D8D8D"/>
<path d="M133.677 205.589L168.942 240.81L133.677 276.032L98.4131 240.81L133.677 205.589ZM133.677 203.831L96.6094 240.853L133.677 277.874L170.745 240.853L133.677 203.831Z" fill="#030206"/>
<path d="M138.339 204.864L102.166 240.992L138.339 277.121L174.511 240.992L138.339 204.864Z" fill="#8D8D8D"/>
<path d="M138.332 205.715L173.597 240.936L138.332 276.158L103.068 240.979L138.332 205.715ZM138.332 203.957L101.307 240.979L138.374 278L175.4 240.979L138.332 203.957Z" fill="#030206"/>
<path d="M143.014 204.754L106.842 240.883L143.014 277.012L179.188 240.883L143.014 204.754Z" fill="#8D8D8D"/>
<path d="M143.031 205.674L178.295 240.894L143.031 276.157L107.766 240.936L143.031 205.674ZM143.031 203.872L105.963 240.894L143.031 277.916L180.098 240.894L143.031 203.872Z" fill="#030206"/>
<path d="M147.658 204.522L111.484 240.65L147.658 276.778L183.83 240.65L147.658 204.522Z" fill="#8D8D8D"/>
<path d="M147.642 205.38L182.907 240.602L147.642 275.823L112.377 240.602L147.642 205.38ZM147.642 203.621L110.574 240.643L147.642 277.665L184.71 240.643L147.642 203.621Z" fill="#030206"/>
<path d="M152.296 204.009L116.123 240.137L152.296 276.266L188.468 240.137L152.296 204.009Z" fill="#8D8D8D"/>
<path d="M152.296 204.877L187.561 240.14L152.296 275.362L117.031 240.14L152.296 204.877ZM152.296 203.118L115.229 240.14L152.296 277.162L189.364 240.14L152.296 203.118Z" fill="#030206"/>
<path d="M156.903 203.301L120.73 239.429L156.903 275.557L193.076 239.429L156.903 203.301Z" fill="#8D8D8D"/>
<path d="M156.908 204.207L192.172 239.429L156.908 274.65L121.644 239.429L156.908 204.207ZM156.908 202.407L119.84 239.429L156.908 276.451L193.975 239.429L156.908 202.407Z" fill="#030206"/>
<path d="M161.471 202.389L125.299 238.518L161.471 274.646L197.644 238.518L161.471 202.389Z" fill="#8D8D8D"/>
<path d="M161.48 203.286L196.744 238.507L161.48 273.729L126.215 238.507L161.48 203.286ZM161.48 201.485L124.412 238.507L161.48 275.529L198.547 238.507L161.48 201.485Z" fill="#030206"/>
<path d="M166.028 201.244L129.855 237.372L166.028 273.501L202.201 237.372L166.028 201.244Z" fill="#8D8D8D"/>
<path d="M166.048 202.155L201.313 237.377L166.048 272.597L130.783 237.377L166.048 202.155ZM166.048 200.354L128.98 237.377L166.048 274.399L203.116 237.377L166.048 200.354Z" fill="#030206"/>
<path d="M170.516 199.913L134.344 236.042L170.516 272.17L206.689 236.042L170.516 199.913Z" fill="#8D8D8D"/>
<path d="M170.536 200.815L205.8 236.037L170.536 271.258L135.272 236.037L170.536 200.815ZM170.536 199.057L133.469 236.037L170.536 273.059L207.603 236.037L170.536 199.057Z" fill="#030206"/>
<path d="M174.989 198.396L138.816 234.524L174.989 270.652L211.162 234.524L174.989 198.396Z" fill="#8D8D8D"/>
<path d="M174.982 199.266L210.246 234.488L174.982 269.75L139.717 234.529L174.982 199.266ZM174.982 197.507L137.914 234.529L174.982 271.551L212.049 234.529L174.982 197.507Z" fill="#030206"/>
<path d="M179.386 196.628L143.213 232.757L179.386 268.885L215.559 232.757L179.386 196.628Z" fill="#8D8D8D"/>
<path d="M179.382 197.507L214.646 232.728L179.382 267.949L144.117 232.728L179.382 197.507ZM179.382 195.748L142.314 232.77L179.382 269.792L216.45 232.77L179.382 195.748Z" fill="#030206"/>
<path d="M183.704 194.658L147.531 230.786L183.704 266.915L219.876 230.786L183.704 194.658Z" fill="#8D8D8D"/>
<path d="M183.702 195.539L218.967 230.76L183.702 265.981L148.438 230.76L183.702 195.539ZM183.702 193.779L146.635 230.801L183.702 267.824L220.77 230.801L183.702 193.779Z" fill="#030206"/>
<path d="M187.944 192.482L151.771 228.611L187.944 264.74L224.117 228.611L187.944 192.482Z" fill="#8D8D8D"/>
<path d="M187.937 193.36L223.202 228.582L187.937 263.802L152.672 228.582L187.937 193.36ZM187.937 191.601L150.869 228.623L187.937 265.645L225.004 228.623L187.937 191.601Z" fill="#030206"/>
<path d="M192.096 190.099L155.924 226.227L192.096 262.355L228.269 226.227L192.096 190.099Z" fill="#8D8D8D"/>
<path d="M192.087 190.973L227.352 226.195L192.087 261.415L156.823 226.195L192.087 190.973ZM192.087 189.214L155.02 226.236L192.087 263.258L229.155 226.236L192.087 189.214Z" fill="#030206"/>
<path d="M196.134 187.47L159.961 223.598L196.134 259.727L232.307 223.598L196.134 187.47Z" fill="#8D8D8D"/>
<path d="M196.156 188.377L231.42 223.598L196.156 258.82L160.891 223.598L196.156 188.377ZM196.156 186.618L159.088 223.64L196.156 260.662L233.223 223.64L196.156 186.618Z" fill="#030206"/>
<path d="M200.089 184.678L163.916 220.806L200.089 256.935L236.262 220.806L200.089 184.678Z" fill="#8D8D8D"/>
<path d="M200.097 185.571L235.362 220.792L200.097 256.055L164.832 220.834L200.097 185.571ZM200.097 183.77L163.029 220.792L200.097 257.814L237.165 220.792L200.097 183.77Z" fill="#030206"/>
<path d="M203.948 181.662L167.775 217.79L203.948 253.918L240.121 217.79L203.948 181.662Z" fill="#8D8D8D"/>
<path d="M203.956 182.556L239.22 217.777L203.956 252.998L168.692 217.777L203.956 182.556ZM203.956 180.755L166.889 217.777L203.956 254.798L241.023 217.777L203.956 180.755Z" fill="#030206"/>
<path d="M207.719 178.41L171.547 214.538L207.719 250.667L243.892 214.538L207.719 178.41Z" fill="#8D8D8D"/>
<path d="M207.728 179.331L242.992 214.552L207.728 249.773L172.463 214.552L207.728 179.331ZM207.728 177.53L170.66 214.552L207.728 251.574L244.795 214.552L207.728 177.53Z" fill="#030206"/>
<path d="M211.333 174.981L175.16 211.11L211.333 247.238L247.506 211.11L211.333 174.981Z" fill="#8D8D8D"/>
<path d="M211.335 175.855L246.6 211.076L211.335 246.297L176.071 211.076L211.335 175.855ZM211.335 174.096L174.268 211.118L211.335 248.14L248.403 211.118L211.335 174.096Z" fill="#030206"/>
</g>
<defs>
<clipPath id="clip0_442_139">
<rect width="1000" height="278" fill="white"/>
</clipPath>
</defs>
</svg>
