<svg width="1000" height="153" viewBox="0 0 1000 153" fill="none" xmlns="http://www.w3.org/2000/svg">
<path d="M212.936 32.0845C257.834 32.0845 275.991 57.1902 275.991 83.6176C275.991 120.615 246.114 142.418 215.246 142.418H161.27V140.105C171.339 138.784 175.63 136.307 175.63 129.204V45.298C175.63 38.1957 171.339 35.7182 161.27 34.3968V32.0845H212.936ZM215.246 137.793C235.385 137.793 249.251 118.633 249.251 87.2511C249.251 62.6407 234.394 36.7092 210.129 36.7092H201.216V129.865C201.216 135.481 204.517 137.793 215.246 137.793Z" fill="#306961"/>
<path d="M365.93 132.837L368.407 133.003V135.315L335.723 144.895H333.412L332.257 127.552V125.075C328.13 137.462 317.731 144.895 304.36 144.895C290.66 144.895 281.416 136.306 281.416 123.588C281.416 106.245 293.631 98.978 324.004 93.3623L332.257 91.8757V84.9387C332.257 69.7428 326.81 60.4934 317.566 60.4934C305.351 60.4934 300.894 74.8634 306.011 84.9387L285.377 91.38C276.134 71.8903 295.117 55.8687 321.033 55.8687C343.812 55.8687 356.687 67.7611 356.687 86.0948V123.754C356.687 129.369 360.318 132.012 365.93 132.837ZM332.257 119.624V96.6659L324.664 98.1518C313.274 100.465 306.011 106.576 306.011 116.816C306.011 125.075 310.963 131.021 318.061 131.021C323.839 131.021 329.781 126.396 332.257 119.624Z" fill="#306961"/>
<path d="M422.85 130.36L424.171 131.681C420.375 137.132 413.277 144.895 399.081 144.895C384.39 144.895 374.981 135.645 374.981 119.954V62.971H365.902V60.6586L397.1 35.3877H399.411V58.3463H423.346V62.971H399.411V119.129C399.411 127.387 404.198 134.324 412.452 134.324C417.238 134.324 420.044 132.177 422.85 130.36Z" fill="#306961"/>
<path d="M510.454 132.837L512.93 133.003V135.315L480.246 144.895H477.936L476.78 127.552V125.075C472.654 137.462 462.254 144.895 448.884 144.895C435.184 144.895 425.939 136.306 425.939 123.588C425.939 106.245 438.155 98.978 468.527 93.3623L476.78 91.8757V84.9387C476.78 69.7428 471.333 60.4934 462.089 60.4934C449.875 60.4934 445.418 74.8634 450.535 84.9387L429.901 91.38C420.657 71.8903 439.64 55.8687 465.556 55.8687C488.335 55.8687 501.21 67.7611 501.21 86.0948V123.754C501.21 129.369 504.842 132.012 510.454 132.837ZM476.78 119.624V96.6659L469.187 98.1518C457.798 100.465 450.535 106.576 450.535 116.816C450.535 125.075 455.487 131.021 462.585 131.021C468.362 131.021 474.305 126.396 476.78 119.624Z" fill="#306961"/>
<path d="M643.308 34.3969C633.235 35.7182 628.947 38.1958 628.947 45.2981V129.204C628.947 136.307 633.235 138.784 643.308 140.105V142.418H588.999V140.105C599.068 138.784 603.36 136.307 603.36 129.204V88.242H555.985V129.204C555.985 136.307 560.277 138.784 570.346 140.105V142.418H516.039V140.105C526.108 138.784 530.4 136.307 530.4 129.204V45.2981C530.4 38.1958 526.108 35.7182 516.039 34.3969V32.0845H570.346V34.3969C560.277 35.7182 555.985 38.1958 555.985 45.2981V83.6177H603.36V45.2981C603.36 38.1958 599.068 35.7182 588.999 34.3969V32.0845H643.308V34.3969Z" fill="#306961"/>
<path d="M732.307 132.837L734.784 133.003V135.315L702.099 144.895H699.787L698.631 127.552V125.075C694.509 137.462 684.105 144.895 670.735 144.895C657.035 144.895 647.793 136.306 647.793 123.588C647.793 106.245 660.007 98.978 690.38 93.3623L698.631 91.8757V84.9387C698.631 69.7428 693.187 60.4934 683.94 60.4934C671.726 60.4934 667.273 74.8634 672.386 84.9387L651.756 91.38C642.509 71.8903 661.493 55.8687 687.408 55.8687C710.191 55.8687 723.065 67.7611 723.065 86.0948V123.754C723.065 129.369 726.692 132.012 732.307 132.837ZM698.631 119.624V96.6659L691.041 98.1518C679.652 100.465 672.386 106.576 672.386 116.816C672.386 125.075 677.34 131.021 684.435 131.021C690.215 131.021 696.16 126.396 698.631 119.624Z" fill="#306961"/>
<path d="M769.866 144.895L734.869 70.5689C731.236 63.4667 728.435 61.3192 722.82 60.6586V58.3462H771.022V60.6586C762.435 60.9889 759.303 64.4575 762.105 70.5689L781.915 114.173L801.56 70.5689C804.196 64.788 801.725 61.154 793.964 60.6586V58.3462H818.062V60.6586C812.618 61.3192 810.141 63.6313 806.839 70.5689L772.178 144.895H769.866Z" fill="#306961"/>
<path d="M866.288 127.387C876.52 127.387 884.606 121.772 889.065 114.504L891.046 115.165C888.074 131.021 876.025 144.73 854.398 144.73C826.832 144.73 812.637 124.414 812.637 102.282C812.637 74.5332 829.64 56.0342 855.389 56.0342C879.823 56.0342 890.881 70.4041 891.046 92.5364H836.41V93.0321C835.585 115.33 848.129 127.387 866.288 127.387ZM852.753 60.6589C842.845 60.6589 838.062 73.5424 836.741 87.9122H866.783C866.453 76.5155 862.325 60.6589 852.753 60.6589Z" fill="#306961"/>
<path d="M984.635 129.864C984.635 136.472 986.776 138.453 993.051 140.27V142.418H951.62V140.27C957.889 138.453 960.036 136.472 960.036 129.864V85.104C960.036 76.5151 955.583 71.3945 948.317 71.3945C942.213 71.3945 937.424 73.7067 931.81 79.1578V129.864C931.81 136.472 934.122 138.453 940.397 140.27V142.418H898.801V140.27C905.07 138.453 907.382 136.472 907.382 129.864V77.0103C907.382 71.8903 904.244 68.7519 898.305 67.9263L895.828 67.7611V65.4483L929.498 55.8687H931.81V74.3676C939.736 64.2923 948.483 56.0338 960.201 56.0338C976.544 56.0338 984.635 66.7697 984.635 83.6174V129.864Z" fill="#306961"/>
<path d="M130.47 44.5149C128.859 36.7142 118.098 40.6396 113.725 43.6424C111.061 45.4734 111.71 46.2133 107.862 46.2384C107.795 46.2384 107.518 46.2599 107.14 46.2904C106.574 46.3369 106.3 45.6185 106.75 45.2727C106.755 45.2691 106.76 45.2638 106.766 45.2602C112.313 40.9944 117.255 35.6303 119.867 28.4621C121.847 23.0318 123.521 16.7719 121.27 10.7718C120.467 8.62733 118.574 6.56697 116.588 8.15431C115.097 9.34753 114.764 12.3072 114.322 14.1956C114.299 14.2977 114.272 14.4052 114.204 14.4751C114.148 14.5324 114.057 14.5521 113.99 14.5127C113.974 14.5038 113.96 14.4912 113.947 14.4751C113.919 14.4375 113.907 14.3873 113.895 14.3389C113.177 11.1463 110.555 8.21882 107.889 6.98264C106.511 6.34304 104.218 6.93068 104.051 8.70615C103.835 11.0191 105.643 13.522 106.878 15.2885C107.502 16.1789 108.418 17.322 108.8 18.5026C108.955 18.9863 108.451 19.4163 107.999 19.1852C107.138 18.7445 106.27 18.0386 105.405 17.7609C104.1 17.3399 103.067 17.7519 102.789 19.2712C102.68 19.8642 102.746 20.4931 102.949 21.079C103.398 22.376 104.15 23.4278 105.056 24.3486C107.034 26.3606 109.226 28.369 108.248 31.5473C107.511 33.9444 105.158 35.7539 102.832 34.6897C101.704 34.1737 100.719 33.2009 99.9028 32.1833C98.6337 30.6013 96.6423 28.3976 94.7463 29.8452C92.8986 31.2552 93.9138 34.4138 94.4221 36.4723C95.0276 38.9197 95.5952 42.3846 94.0625 44.3877C92.8466 45.9732 89.9493 46.4767 88.2252 45.4519C85.4178 43.7839 84.1163 40.258 81.9995 38.0221C80.7481 36.6999 79.0649 36.3004 78.0013 37.8465C76.8661 39.4948 77.3768 41.3993 77.6362 43.3468C77.7995 44.5704 77.6203 45.803 77.2264 46.9103C75.9585 50.4791 69.923 49.4364 68.9579 45.6759C68.4294 43.6191 68.9328 41.4978 68.4692 39.4429C67.9909 37.3216 66.0625 34.7076 64.1609 36.6104C63.2086 37.5635 63.1707 38.7674 62.983 39.9786C62.8955 40.5483 62.109 40.6343 61.8943 40.0986C61.042 37.9809 60.7269 35.281 60.0949 33.2457C59.3071 30.7142 56.9991 28.3546 55.0905 30.9632C54.3868 31.9253 54.1504 33.2349 54.0591 34.5141C53.966 35.8184 54.0054 37.1675 54.308 38.4682C54.3671 38.7208 54.6858 39.932 54.9956 40.8654C55.1549 41.3437 54.6535 41.7809 54.206 41.5516C53.2069 41.0392 52.2955 40.2419 51.2588 39.8281C47.8497 38.4682 46.8291 41.9994 48.1308 44.9771C49.9732 49.1892 53.454 52.0987 57.146 54.0158C63.4698 57.3015 70.2019 58.3962 76.8074 57.9286C79.7848 57.7172 82.7359 57.1887 85.6129 56.3986C87.6649 55.836 89.6453 55.1462 91.5664 54.3472C92.0515 54.1465 92.5242 54.6589 92.2882 55.1283C91.9927 55.7124 91.6845 56.3412 91.3585 57.0203C90.6533 58.4947 86.1126 61.3792 85.9995 61.4061C84.879 61.673 83.6992 61.3449 82.6515 60.865C80.0931 59.6915 77.9028 58.4392 74.9683 58.6004C70.5567 58.8441 68.0197 61.7446 64.9291 64.4698C63.9603 65.3242 62.7646 67.0445 61.5096 67.3829C60.1128 67.7612 57.6222 66.9906 56.1486 66.9025C52.5874 66.6877 48.89 66.6626 45.4326 67.659C41.6707 68.7428 30.7201 75.0654 28.1758 77.9877C25.0406 81.5905 26.26 84.6236 30.7344 84.4571C31.0979 84.4424 31.379 84.7723 31.3109 85.1303L29.5491 94.3305C29.5437 94.3611 29.5401 94.3893 29.5383 94.4199C29.4381 97.2418 29.5545 100.031 29.9483 102.807C29.9842 103.054 29.857 103.299 29.6279 103.401C28.3405 103.969 24.4104 104.009 23.8607 106.451C23.5671 107.757 24.2833 125.108 24.0738 125.103C19.5044 124.974 10.9477 126.538 8.6988 131.14C7.41324 133.771 9.37024 135.071 11.3864 135.962C11.8627 136.171 11.8304 136.854 11.338 137.019C8.95666 137.825 5.81612 139.45 6.97813 141.989C8.17776 144.608 12.0721 145.074 14.5609 145.395C18.3316 145.878 22.1418 146.152 25.9395 146.308C36.4604 146.74 47.001 146.364 57.5273 146.64C72.5976 147.036 87.8692 147.131 102.304 142.182C105.253 141.172 111.099 139.802 111.414 135.94C111.623 133.368 106.905 132.506 105.049 132.273C104.544 132.208 102.891 132.249 101.727 132.052C101.215 131.967 101.084 131.304 101.516 131.015C103.264 129.847 104.666 127.497 102.551 125.967C99.5304 123.779 92.1787 124.612 88.5438 124.823C87.4374 124.888 87.0417 106.771 87.2674 103.794C87.2802 103.616 87.3768 103.459 87.5255 103.36C88.7805 102.523 90.1573 102.31 91.3891 101.334C93.3548 99.7749 94.7536 97.4009 96.0441 95.2907C96.7444 94.1439 97.5089 92.9707 98.0784 91.754C98.619 90.5985 98.8105 89.1506 99.6557 88.1585C100.653 86.9884 101.779 86.929 102.66 85.462C103.482 84.0948 104.191 82.6634 104.845 81.2105C105.785 79.1199 106.318 73.6125 108.553 72.5066C109.436 72.0696 110.818 72.5519 111.845 72.1718C112.785 71.8242 113.559 71.1884 114.22 70.4484C117.12 67.1963 117.684 62.3413 118.773 58.2744C118.807 58.1454 118.888 58.0325 118.995 57.9554C119.994 57.237 121.314 57.4108 122.449 57.0077C127.609 55.1731 131.682 50.3519 130.475 44.5167L130.47 44.5149ZM80.9377 125.621C79.3713 125.628 77.8404 126.015 76.3096 126.344C76.0233 126.405 75.7224 126.251 75.6343 125.97C75.2533 124.741 73.1762 124.377 72.0141 124.271C66.4368 123.765 61.0241 125.631 55.5076 125.621C55.359 125.621 54.308 121.905 54.1827 121.522C53.4002 119.131 53.1478 116.618 52.8738 114.131C52.5658 111.336 52.3653 108.514 52.5856 105.705C52.7735 103.313 50.0341 104.992 49.0655 105.711C47.0207 107.228 44.4406 109.378 43.121 111.582C41.9841 113.484 44.1505 116.779 45.0028 118.492C45.1694 118.825 46.2275 120.511 46.7611 121.719C46.967 122.183 46.5104 122.659 46.0359 122.478C42.1452 120.987 35.9304 121.377 34.5571 125.694C34.4712 125.967 34.1864 126.124 33.9053 126.067L31.7263 125.617C31.4148 125.552 31.2161 125.244 31.2877 124.934C31.9931 121.826 33.5455 118.571 35.2268 115.908C37.019 113.071 39.3986 110.546 41.719 108.142C43.5167 106.28 45.3179 104.322 47.3949 102.767C48.8434 101.683 50.3098 100.466 52.0806 99.9597C53.6115 99.5209 55.1764 99.8863 56.7037 100.13C61.0528 100.825 65.7493 100.122 69.8637 101.971C72.1591 103.004 73.3982 105.37 74.5762 107.463C76.1499 110.254 76.8307 113.411 78.0533 116.351C79.2319 119.178 80.5671 121.955 81.4698 124.888C81.5805 125.252 81.3138 125.623 80.9346 125.625L80.9377 125.621ZM109.478 53.8814C108.88 55.1928 106.598 56.9325 105.065 55.9327C103.708 55.0459 105.355 53.7524 106.109 53.2238C106.735 52.7831 107.471 52.2976 108.264 52.2009C108.875 52.1274 109.353 52.4481 109.53 52.9157C109.638 53.2006 109.634 53.541 109.48 53.8814H109.478Z" fill="#306961"/>
<path d="M95.8569 107.992C94.7932 109.88 93.4214 111.591 92.1345 113.327C91.4465 114.255 90.7627 115.188 90.1235 116.15C89.5235 117.053 88.6929 117.954 88.822 119.121C88.9688 120.448 89.0887 121.896 89.4269 123.191C89.5095 123.508 91.8495 121.561 91.9981 121.412C94.0159 119.374 96.0697 117.37 98.066 115.308C98.4764 114.885 98.8844 114.461 99.2893 114.033C101.226 111.992 103.124 109.912 105.089 107.898C106.675 106.271 108.557 104.394 108.727 101.991C108.827 100.583 107.907 98.9921 107.276 97.7919C106.562 96.4321 105.522 95.2907 104.489 94.1689C103.769 93.3861 103.095 92.4669 102.305 91.7129C102.073 91.4926 101.314 90.6823 101.023 90.869C100.776 91.0281 100.816 91.6499 100.753 91.91C100.062 94.7784 98.0342 97.1273 96.2526 99.388C95.8709 99.8715 95.477 100.346 95.0709 100.808C94.707 101.225 94.0929 101.554 94.6269 101.961C95.2195 102.413 96.2361 102.577 96.9345 102.808C97.1584 102.882 98.315 103.12 98.3633 103.419C98.3828 103.543 98.3345 103.665 98.2862 103.779C97.6489 105.264 96.652 106.583 95.8587 107.988L95.8569 107.992Z" fill="#306961"/>
</svg>
