<svg width="1000" height="313" viewBox="0 0 1000 313" fill="none" xmlns="http://www.w3.org/2000/svg">
<path d="M900.396 274.371C848.203 274.371 804.626 253.689 798.84 204.288C798.66 202.759 799.763 201.375 801.29 201.18L854.84 194.331C856.516 194.117 858.003 195.401 858.153 197.085C860.3 221.693 877.726 232.811 901.736 232.811C927.196 232.811 940.146 223.426 940.146 206.891C940.146 192.144 923.176 186.782 887.89 178.291C845.01 168.013 805.703 154.606 805.703 108.577C805.703 59.4205 849.03 40.2046 897.27 40.2046C945.52 40.2046 986.876 56.1506 993.846 104.972C994.06 106.479 993.02 107.884 991.52 108.14L939.746 116.974C938.056 117.262 936.5 116.002 936.32 114.297C933.926 91.5296 919.513 81.3178 898.163 81.3178C879.85 81.3178 864.663 88.021 864.663 103.662C864.663 118.856 880.743 124.218 910.67 130.922C950.42 139.859 1000 150.584 1000 203.763C1000 257.389 952.653 274.371 900.396 274.371Z" fill="#0080BC"/>
<path d="M763.863 61.4812C781.73 79.3565 783.963 103.488 783.963 132.536V269.55C783.963 271.134 782.68 272.418 781.096 272.418H723.853C722.27 272.418 720.986 271.134 720.986 269.55V137.898C720.986 117.341 719.2 106.616 709.373 97.2318C701.333 89.6349 693.74 88.2939 680.34 88.2939C661.133 88.2939 638.8 101.253 638.8 147.282V269.55C638.8 271.134 637.516 272.418 635.933 272.418H579.136C577.553 272.418 576.27 271.134 576.27 269.55V48.7084C576.27 47.1245 577.553 45.8402 579.136 45.8402H635.486C637.07 45.8402 638.353 47.1245 638.353 48.7084V73.0269C638.353 74.4007 640.393 74.8353 641.033 73.6192C653.6 49.7337 677.486 40.4775 704.46 40.4775C733.046 40.4775 749.57 47.1811 763.863 61.4812Z" fill="#0080BC"/>
<path d="M526.783 68.9406C548.47 91.0037 559.393 124.537 560.313 167.003C560.347 168.564 559.11 169.858 557.553 169.907L399.863 174.894C398.27 174.945 397.017 176.298 397.127 177.891C399.573 213.453 417.937 231.105 450.543 230.074C478.057 229.204 491.943 216.74 496.267 194.951C496.553 193.508 497.84 192.461 499.307 192.544L554.227 195.647C555.997 195.747 557.25 197.423 556.817 199.142C544.61 247.417 508.26 272.512 451.94 274.293C417.12 275.394 389.087 265.103 369.757 247.384C347.667 227.068 336.02 197.928 334.833 160.408C333.707 124.676 342.567 93.9922 363.78 72.3073C382.817 52.4797 409.277 41.3593 444.1 40.2581C479.367 39.1426 507.4 49.4337 526.783 68.9406ZM445.467 83.584C427.163 84.163 414.387 89.9322 406.257 101.367C400.797 108.871 397.613 118.159 396.367 128.903C396.17 130.601 397.55 132.046 399.257 131.991L492.457 129.044C494.147 128.991 495.427 127.488 495.163 125.815C493.207 113.399 489.26 103.01 481.593 95.4077C472.827 86.7426 461.54 83.0758 445.467 83.584Z" fill="#0080BC"/>
<path fill-rule="evenodd" clip-rule="evenodd" d="M141.578 5.15809C140.431 3.41621 142.539 1.37646 144.25 2.57252L215.858 52.6422C260.991 84.1992 281.772 140.544 267.463 193.642C266.329 197.848 265.113 201.53 263.971 204.615C263.262 206.528 260.447 206.115 260.305 204.081C259.097 186.792 246.635 167.026 237.59 152.68C235.975 150.118 234.469 147.73 233.156 145.56C224.364 131.031 160.723 34.2464 141.578 5.15809ZM46.762 145.981L132.475 5.09655C133.47 3.4612 131.679 1.55364 129.98 2.439C114.995 10.2426 74.5643 32.8212 42.822 64.4892C8.03602 99.1936 36.1483 137.27 43.694 146.22C44.528 147.209 46.0897 147.086 46.762 145.981ZM130.356 309.287C131.503 311.028 129.395 313.068 127.685 311.872L56.076 261.802C10.9438 230.245 -9.83724 173.901 4.47176 120.803C5.60519 116.596 6.82139 112.914 7.96369 109.829C8.67199 107.917 11.4877 108.33 11.6297 110.364C12.837 127.653 25.2994 147.419 34.3447 161.765C35.9593 164.326 37.465 166.714 38.7787 168.885C47.57 183.414 111.211 280.198 130.356 309.287ZM139.466 309.333L225.179 168.448C225.852 167.344 227.413 167.221 228.247 168.209C235.793 177.159 263.905 215.236 229.119 249.94C197.377 281.608 156.946 304.187 141.962 311.991C140.262 312.876 138.471 310.968 139.466 309.333Z" fill="#0080BC"/>
</svg>
