<svg width="1000" height="306" viewBox="0 0 1000 306" fill="none" xmlns="http://www.w3.org/2000/svg">
<path d="M305.694 153C305.694 68.5004 237.262 0 152.847 0C68.4318 0 0 68.5004 0 153C0 237.5 68.4318 306 152.847 306C237.262 306 305.694 237.5 305.694 153Z" fill="url(#paint0_linear_754_21)"/>
<path d="M252.198 148.693C250.1 98.9504 211.832 58.6193 163.159 53.5982C157.511 53.0122 152.895 57.6986 152.895 63.4082V90.9746C152.895 96.6841 157.542 101.205 163.11 102.332C182.222 106.208 197.495 120.736 202.532 139.492C204.57 138.791 206.89 138.364 209.571 138.353C218.822 138.397 223.814 143.537 227.702 147.692C231.339 151.527 234.242 154.538 240.325 154.628C245.991 154.636 248.891 152.065 252.198 148.693Z" fill="#366FFF"/>
<path d="M108.932 63.3497C115.202 60.2381 122.046 65.1934 122.046 72.2226V138.626C112.788 138.691 107.85 143.731 103.947 147.828L103.865 147.912C100.221 151.66 97.3267 154.637 91.2308 154.628C85.1468 154.538 82.245 151.527 78.608 147.692C74.7192 143.537 69.728 138.397 60.4769 138.353C58.2251 138.363 56.2285 138.665 54.4395 139.177C59.0306 105.813 80.0046 77.7137 108.932 63.3497Z" fill="#366FFF"/>
<path d="M163.157 252.399C157.509 252.981 152.893 248.298 152.893 242.588V215.022C152.893 209.316 157.54 204.792 163.108 203.665C186.607 198.899 204.303 178.028 204.303 152.998C204.303 152.771 204.302 152.544 204.299 152.317C205.791 151.711 207.5 151.366 209.582 151.369C215.666 151.459 218.568 154.47 222.205 158.304C226.094 162.46 231.085 167.6 240.337 167.643C245.095 167.624 248.716 166.294 251.641 164.449C246.374 210.863 209.477 247.62 163.157 252.399Z" fill="#004FA5"/>
<path d="M53.4941 153.17C53.5599 192.42 76.1327 226.362 108.93 242.647C115.2 245.758 122.044 240.804 122.044 233.774V151.642C116.01 151.662 113.127 154.628 109.501 158.357L109.42 158.441C105.506 162.55 100.551 167.606 91.2416 167.643C81.9905 167.6 76.9993 162.46 73.1105 158.304C69.4735 154.47 66.5713 151.459 60.4876 151.369C57.566 151.365 55.3799 152.046 53.4941 153.17Z" fill="#004FA5"/>
<path d="M404.926 229.882V75.9561H503.436V99.3306H432.782V141.119H496.68V164.494H432.782V229.882H404.926ZM528.816 229.882V75.9561H556.672V206.508H624.398V229.882H528.816ZM745.507 75.9561H773.363V176.52C773.363 187.543 770.761 197.238 765.556 205.606C760.398 213.974 753.141 220.513 743.779 225.222C734.421 229.882 723.481 232.212 710.971 232.212C698.407 232.212 687.444 229.882 678.082 225.222C668.72 220.513 661.464 213.974 656.309 205.606C651.151 197.238 648.575 187.543 648.575 176.52V75.9561H676.431V174.189C676.431 180.603 677.834 186.315 680.635 191.326C683.489 196.336 687.494 200.27 692.648 203.126C697.803 205.932 703.913 207.334 710.971 207.334C718.029 207.334 724.135 205.932 729.29 203.126C734.494 200.27 738.499 196.336 741.303 191.326C744.108 186.315 745.507 180.603 745.507 174.189V75.9561ZM831.498 75.9561V229.882H803.642V75.9561H831.498ZM913.772 229.882H861.662V75.9561H914.823C930.088 75.9561 943.202 79.0375 954.165 85.2007C965.178 91.3138 973.638 100.107 979.546 111.582C985.453 123.056 988.403 136.785 988.403 152.769C988.403 168.803 985.426 182.582 979.469 194.106C973.562 205.631 965.029 214.475 953.867 220.638C942.755 226.801 929.389 229.882 913.772 229.882ZM889.519 205.756H912.419C923.134 205.756 932.068 203.802 939.225 199.894C946.382 195.936 951.766 190.048 955.369 182.231C958.972 174.365 960.772 164.544 960.772 152.769C960.772 140.994 958.972 131.223 955.369 123.457C951.766 115.64 946.431 109.803 939.374 105.945C932.366 102.036 923.657 100.082 913.244 100.082H889.519V205.756Z" fill="black"/>
<defs>
<linearGradient id="paint0_linear_754_21" x1="152.847" y1="0" x2="152.847" y2="306" gradientUnits="userSpaceOnUse">
<stop stop-color="#0B0B0B"/>
<stop offset="1"/>
</linearGradient>
</defs>
</svg>
