<svg width="1000" height="192" viewBox="0 0 1000 192" fill="none" xmlns="http://www.w3.org/2000/svg">
<path d="M278.797 125.91H278.207C277.578 130.075 275.452 133.533 271.832 136.283C268.212 139.033 263.292 140.409 257.074 140.409C252.352 140.409 247.944 139.505 243.852 137.697C239.758 135.89 236.178 133.218 233.108 129.682C230.038 126.146 227.638 121.746 225.906 116.481C224.175 111.216 223.309 105.126 223.309 98.2106C223.309 91.2954 224.215 85.1661 226.024 79.8227C227.835 74.4792 230.354 70.0001 233.579 66.3853C236.886 62.7706 240.822 60.0203 245.386 58.1343C249.951 56.2484 255.028 55.3054 260.616 55.3054C268.014 55.3054 274.391 56.9164 279.742 60.1382C285.095 63.2814 289.305 68.0355 292.374 74.4006L277.735 82.7694C276.476 79.5477 274.508 76.8366 271.832 74.6363C269.156 72.3575 265.417 71.2181 260.616 71.2181C255.028 71.2181 250.581 72.829 247.275 76.0508C243.969 79.2725 242.317 84.341 242.317 91.2562V104.458C242.317 111.294 243.969 116.363 247.275 119.663C250.581 122.885 255.028 124.496 260.616 124.496C262.82 124.496 264.906 124.26 266.874 123.789C268.84 123.239 270.573 122.453 272.068 121.431C273.563 120.331 274.705 119.035 275.491 117.541C276.357 116.048 276.79 114.28 276.79 112.237V108.112H261.442V93.1421H293.909V138.994H278.797V125.91ZM353.795 140.409C349.073 140.409 344.862 139.662 341.163 138.169C337.464 136.597 334.315 134.436 331.718 131.686C329.2 128.857 327.27 125.439 325.932 121.431C324.673 117.424 324.044 112.944 324.044 107.994C324.044 103.122 324.673 98.7213 325.932 94.7923C327.192 90.7847 329.041 87.3664 331.483 84.5375C334.001 81.7086 337.069 79.5477 340.69 78.0546C344.31 76.483 348.442 75.6972 353.086 75.6972C358.203 75.6972 362.571 76.5615 366.192 78.2903C369.891 80.0192 372.882 82.3372 375.165 85.2447C377.526 88.1523 379.217 91.5312 380.24 95.3817C381.342 99.1536 381.894 103.122 381.894 107.287V112.473H342.108V113.416C342.108 117.502 343.208 120.763 345.412 123.199C347.616 125.557 351.079 126.735 355.802 126.735C359.422 126.735 362.374 126.028 364.656 124.614C366.939 123.121 369.064 121.353 371.033 119.31L379.768 130.154C377.014 133.375 373.394 135.89 368.907 137.697C364.499 139.505 359.462 140.409 353.795 140.409ZM353.441 88.5451C349.899 88.5451 347.105 89.7238 345.059 92.0813C343.091 94.3601 342.108 97.4247 342.108 101.275V102.218H363.83V101.157C363.83 97.3855 362.964 94.3601 361.233 92.0813C359.579 89.7238 356.983 88.5451 353.441 88.5451ZM436.912 140.409C432.347 140.409 428.255 139.662 424.635 138.169C421.093 136.676 418.063 134.515 415.543 131.686C413.103 128.857 411.215 125.439 409.877 121.431C408.538 117.424 407.869 112.944 407.869 107.994C407.869 103.043 408.538 98.5642 409.877 94.5566C411.215 90.5489 413.103 87.1699 415.543 84.4196C418.063 81.5907 421.093 79.4298 424.635 77.9367C428.255 76.4436 432.347 75.6972 436.912 75.6972C441.477 75.6972 445.531 76.4436 449.073 77.9367C452.693 79.4298 455.723 81.5907 458.163 84.4196C460.681 87.1699 462.61 90.5489 463.947 94.5566C465.287 98.5642 465.956 103.043 465.956 107.994C465.956 112.944 465.287 117.424 463.947 121.431C462.61 125.439 460.681 128.857 458.163 131.686C455.723 134.515 452.693 136.676 449.073 138.169C445.531 139.662 441.477 140.409 436.912 140.409ZM436.912 126.618C440.375 126.618 443.051 125.557 444.941 123.435C446.829 121.313 447.773 118.288 447.773 114.359V101.747C447.773 97.8177 446.829 94.7923 444.941 92.6706C443.051 90.5489 440.375 89.4881 436.912 89.4881C433.449 89.4881 430.773 90.5489 428.884 92.6706C426.996 94.7923 426.051 97.8177 426.051 101.747V114.359C426.051 118.288 426.996 121.313 428.884 123.435C430.773 125.557 433.449 126.618 436.912 126.618ZM533.952 128.621H533.362C532.889 130.272 532.141 131.843 531.118 133.336C530.096 134.751 528.837 136.008 527.34 137.108C525.924 138.13 524.272 138.915 522.382 139.466C520.573 140.094 518.683 140.409 516.715 140.409C508.845 140.409 502.902 137.658 498.889 132.158C494.874 126.578 492.867 118.524 492.867 107.994C492.867 97.4641 494.874 89.4489 498.889 83.9482C502.902 78.4474 508.845 75.6972 516.715 75.6972C520.73 75.6972 524.272 76.7972 527.34 78.9976C530.489 81.1979 532.496 84.0268 533.362 87.4843H533.952V51.7693H551.426V138.994H533.952V128.621ZM522.501 126.264C525.805 126.264 528.521 125.478 530.646 123.907C532.85 122.256 533.952 120.017 533.952 117.188V98.9178C533.952 96.0889 532.85 93.8886 530.646 92.317C528.521 90.6668 525.805 89.8417 522.501 89.8417C519.195 89.8417 516.441 91.0204 514.237 93.3779C512.111 95.6566 511.048 98.7607 511.048 102.69V113.416C511.048 117.345 512.111 120.488 514.237 122.846C516.441 125.124 519.195 126.264 522.501 126.264ZM611.151 140.409C606.429 140.409 602.218 139.662 598.519 138.169C594.82 136.597 591.671 134.436 589.074 131.686C586.556 128.857 584.628 125.439 583.29 121.431C582.029 117.424 581.401 112.944 581.401 107.994C581.401 103.122 582.029 98.7213 583.29 94.7923C584.549 90.7847 586.399 87.3664 588.839 84.5375C591.357 81.7086 594.426 79.5477 598.048 78.0546C601.668 76.483 605.8 75.6972 610.444 75.6972C615.559 75.6972 619.927 76.5615 623.548 78.2903C627.247 80.0192 630.238 82.3372 632.521 85.2447C634.882 88.1523 636.574 91.5312 637.598 95.3817C638.698 99.1536 639.25 103.122 639.25 107.287V112.473H599.464V113.416C599.464 117.502 600.566 120.763 602.77 123.199C604.972 125.557 608.436 126.735 613.158 126.735C616.778 126.735 619.73 126.028 622.013 124.614C624.295 123.121 626.421 121.353 628.389 119.31L637.125 130.154C634.37 133.375 630.75 135.89 626.263 137.697C621.855 139.505 616.819 140.409 611.151 140.409ZM610.797 88.5451C607.255 88.5451 604.461 89.7238 602.416 92.0813C600.447 94.3601 599.464 97.4247 599.464 101.275V102.218H621.187V101.157C621.187 97.3855 620.32 94.3601 618.589 92.0813C616.937 89.7238 614.339 88.5451 610.797 88.5451Z" fill="#2D4FD2"/>
<path d="M678.459 138.994V56.7199H685.543V132.865H725.919V138.994H678.459ZM807.982 138.994C805.228 138.994 803.26 138.326 802.079 136.99C800.899 135.654 800.23 133.847 800.073 131.568V129.446H799.482C798.145 132.668 795.941 135.301 792.872 137.344C789.802 139.387 785.631 140.409 780.357 140.409C773.982 140.409 768.944 138.876 765.245 135.812C761.625 132.668 759.815 128.268 759.815 122.61C759.815 119.938 760.248 117.541 761.113 115.42C762.058 113.219 763.514 111.373 765.481 109.88C767.528 108.387 770.125 107.247 773.273 106.462C776.422 105.597 780.278 105.165 784.844 105.165H799.718V97.7391C799.718 92.6314 798.302 88.8201 795.469 86.3056C792.715 83.791 788.857 82.5337 783.899 82.5337C775.556 82.5337 769.732 85.8733 766.426 92.5528L761.822 89.2524C763.395 85.7162 766.033 82.7694 769.732 80.412C773.509 77.976 778.35 76.758 784.253 76.758C791.18 76.758 796.61 78.5653 800.546 82.1801C804.481 85.7162 806.449 90.6668 806.449 97.0319V133.1H815.539V138.994H807.982ZM781.419 134.751C784.018 134.751 786.417 134.436 788.621 133.808C790.825 133.179 792.753 132.315 794.405 131.215C796.059 130.036 797.357 128.621 798.302 126.971C799.247 125.321 799.718 123.474 799.718 121.431V110.233H784.844C778.467 110.233 773.864 111.216 771.031 113.18C768.275 115.066 766.899 117.659 766.899 120.96V124.024C766.899 127.561 768.196 130.232 770.793 132.04C773.471 133.847 777.013 134.751 781.419 134.751ZM852.387 51.7693H859.116V87.8379H859.471C861.202 84.5375 863.603 81.8657 866.671 79.8227C869.82 77.7796 873.716 76.758 878.36 76.758C885.994 76.758 891.937 79.5083 896.186 85.009C900.437 90.4311 902.563 98.2892 902.563 108.583C902.563 118.877 900.437 126.775 896.186 132.275C891.937 137.697 885.994 140.409 878.36 140.409C873.716 140.409 869.82 139.387 866.671 137.344C863.603 135.301 861.202 132.629 859.471 129.329H859.116V138.994H852.387V51.7693ZM876.116 134.397C882.257 134.397 886.979 132.472 890.283 128.621C893.668 124.771 895.36 119.506 895.36 112.827V104.34C895.36 97.6605 893.668 92.3957 890.283 88.5451C886.979 84.6946 882.257 82.7694 876.116 82.7694C873.834 82.7694 871.67 83.0838 869.623 83.7124C867.578 84.341 865.767 85.2447 864.193 86.4234C862.618 87.6022 861.359 89.0559 860.416 90.7847C859.549 92.5135 859.116 94.4387 859.116 96.5604V120.606C859.116 122.728 859.549 124.653 860.416 126.382C861.359 128.111 862.618 129.564 864.193 130.743C865.767 131.922 867.578 132.826 869.623 133.454C871.67 134.083 873.834 134.397 876.116 134.397ZM964.793 140.409C958.655 140.409 953.302 139.387 948.737 137.344C944.25 135.222 940.355 132.275 937.049 128.504L941.653 124.496C944.645 127.953 947.989 130.547 951.688 132.275C955.387 133.926 959.795 134.751 964.911 134.751C970.263 134.751 974.593 133.729 977.897 131.686C981.282 129.643 982.974 126.5 982.974 122.256C982.974 120.37 982.62 118.838 981.912 117.659C981.282 116.402 980.377 115.381 979.197 114.595C978.016 113.809 976.638 113.219 975.064 112.827C973.491 112.355 971.758 112.002 969.87 111.766L960.426 110.469C958.064 110.155 955.663 109.723 953.223 109.173C950.862 108.544 948.698 107.64 946.73 106.462C944.84 105.283 943.267 103.711 942.008 101.747C940.827 99.7821 940.237 97.2676 940.237 94.203C940.237 91.2169 940.827 88.6238 942.008 86.4234C943.188 84.2231 944.84 82.4158 946.966 81.0014C949.091 79.5869 951.571 78.5261 954.404 77.8188C957.315 77.1116 960.426 76.758 963.73 76.758C969.397 76.758 974.16 77.701 978.016 79.5869C981.951 81.3942 985.257 83.6732 987.932 86.4234L983.447 90.6668C982.581 89.7238 981.558 88.7809 980.377 87.8379C979.275 86.8163 977.897 85.9127 976.245 85.1269C974.671 84.341 972.822 83.7124 970.696 83.2409C968.571 82.6908 966.131 82.4158 963.377 82.4158C958.181 82.4158 954.128 83.3588 951.217 85.2447C948.382 87.1307 946.966 89.9596 946.966 93.7315C946.966 95.6174 947.28 97.189 947.91 98.4463C948.62 99.625 949.563 100.607 950.743 101.393C951.924 102.179 953.302 102.808 954.875 103.279C956.451 103.672 958.143 103.986 959.952 104.222L969.516 105.636C971.877 106.029 974.238 106.54 976.599 107.169C979.039 107.719 981.203 108.583 983.093 109.762C985.059 110.941 986.635 112.512 987.815 114.477C988.996 116.363 989.586 118.838 989.586 121.903C989.586 124.967 988.956 127.639 987.697 129.918C986.516 132.197 984.824 134.122 982.62 135.694C980.496 137.265 977.897 138.444 974.829 139.23C971.758 140.016 968.414 140.409 964.793 140.409Z" fill="#2D4FD2"/>
<path fill-rule="evenodd" clip-rule="evenodd" d="M91.3766 76.0081L71.4277 95.925L91.3766 115.842L111.325 95.925L91.3766 76.0081ZM82.5993 95.925L91.3766 104.688L100.154 95.925L91.3766 87.1618L82.5993 95.925Z" fill="#2D4FD2"/>
<path fill-rule="evenodd" clip-rule="evenodd" d="M91.3771 51.7651L129.682 73.8451V118.005L91.3771 140.085L53.0723 118.005V73.8451L91.3771 51.7651ZM121.782 78.3985L91.3771 60.8721L60.9718 78.3985V113.451L91.3771 130.978L121.782 113.451V78.3985Z" fill="#2D4FD2"/>
<path fill-rule="evenodd" clip-rule="evenodd" d="M91.3761 26.0457L41.8848 46.5129L21.3848 95.9248L41.8848 145.337L91.3761 165.804L140.867 145.337L161.367 95.9248L140.867 46.5129L91.3761 26.0457ZM91.3761 34.5823L134.821 52.5492L152.817 95.9248L134.821 139.301L91.3761 157.267L47.9308 139.301L29.9353 95.9248L47.9308 52.5492L91.3761 34.5823Z" fill="#2D4FD2"/>
<path fill-rule="evenodd" clip-rule="evenodd" d="M91.3763 0L34.9027 18.32L0 66.2824V125.567L34.9027 173.53L91.3763 191.85L147.85 173.53L182.753 125.567V66.2824L147.85 18.32L91.3763 0ZM91.3763 8.29276L142.968 25.029L174.853 68.845V123.005L142.968 166.821L91.3763 183.557L39.7848 166.821L7.89954 123.005V68.845L39.7848 25.029L91.3763 8.29276Z" fill="#2D4FD2"/>
</svg>
