<svg width="1000" height="317" viewBox="0 0 1000 317" fill="none" xmlns="http://www.w3.org/2000/svg">
<path d="M570.203 146.882C533.38 146.882 531.103 125.23 537.907 100.616C547.814 100.616 557.735 100.616 567.642 100.616C564.745 114.197 562.908 125.618 579.244 125.618C589.294 125.618 595.593 119.125 597.649 109.476C603.082 83.8792 543.572 82.3141 552.574 39.9671C557.295 17.72 571.703 0 607.932 0C636.879 0 648.494 12.9861 640.203 42.7351C630.554 42.7351 620.905 42.7351 611.256 42.7351C613.52 32.0901 614.05 21.264 602.047 21.264C592.398 21.264 585.556 26.5801 583.474 36.4231C577.731 63.3912 638.095 61.0371 628.588 105.738C620.724 142.549 592.838 146.882 570.203 146.882Z" fill="black"/>
<path d="M777.809 147.245L808.049 5.08374H885.615L880.971 26.9428H833.128L825.665 61.9819H869.77L865.127 83.8409H821.009L812.188 125.386H861.609L856.966 147.245H777.809Z" fill="black"/>
<path d="M731.968 61.9819L744.074 5.08374H773.81L743.57 147.245H713.847L727.325 83.8409H693.256L679.779 147.245H650.043L680.27 5.08374H710.006L697.912 61.9819H731.968Z" fill="black"/>
<path d="M476.381 45.4518L482.396 147.245H513.722L505.354 5.08374H466.176L396.564 147.245H426.533L476.381 45.4518Z" fill="black"/>
<path d="M963.909 5.08716C947.366 5.08716 930.823 5.08716 914.294 5.08716C904.218 52.4786 894.142 99.8699 884.066 147.261C900.208 147.261 916.35 147.261 932.492 147.261C983.297 147.261 990.592 97.2572 995.236 75.3853C1004.66 31.0852 1002.89 5.08716 963.909 5.08716ZM964.944 76.1743C957.364 111.808 950.923 125.402 932.815 125.402C928.03 125.402 923.231 125.402 918.446 125.402C925.43 92.575 932.401 59.7606 939.386 26.9462C944.508 26.9462 949.63 26.9462 954.752 26.9462C975.407 26.9591 970.505 49.9952 964.944 76.1743Z" fill="black"/>
<path d="M372.603 147.245L402.83 5.08374H373.107L361.014 61.9819H326.945L339.039 5.08374H309.316L279.076 147.245H308.812L322.289 83.8409H356.358L342.88 147.245H372.603Z" fill="black"/>
<path d="M255.165 129.814L262.357 96.0294H216.414L235.104 8.11475H189.149L170.459 96.0294H117.791L136.481 8.11475H90.5262L71.8234 96.0294H25.8813L18.6899 129.814H64.632L53.1206 183.996H7.17844L0 217.793H45.9422L25.1052 315.81H71.0603L91.9101 217.793H144.565L123.728 315.81H169.683L190.546 217.793H236.488L243.68 183.996H197.724L209.249 129.814H255.165ZM151.731 183.996H99.0628L110.6 129.814H163.242L151.731 183.996Z" fill="black"/>
<path d="M274.633 162.533L243.035 316.581H948.025L980.037 162.533H274.633ZM342.809 229.339C343.107 230.258 343.236 230.452 343.21 230.62C341.606 246.451 341.606 246.451 326.254 246.451C319.554 246.451 312.841 246.451 305.779 246.451C303.852 255.661 302.028 264.378 300.049 273.833C312.815 273.833 324.986 273.833 337.946 273.833C336.782 279.925 335.773 285.241 334.725 290.713C315.027 290.713 295.677 290.713 275.862 290.713C282.963 256.476 289.999 222.575 297.087 188.454C316.178 188.454 334.919 188.454 354.359 188.454C353.221 193.977 352.122 199.241 350.932 205.01C338.722 205.01 326.758 205.01 314.341 205.01C312.634 213.133 311.017 220.828 309.219 229.339C320.873 229.339 331.97 229.339 342.809 229.339ZM425.329 290.519C430.632 264.844 435.896 239.325 441.161 213.818C440.824 213.702 440.488 213.585 440.139 213.456C439.246 215.383 438.315 217.284 437.474 219.225C428.214 240.773 418.72 262.218 409.873 283.935C407.545 289.652 404.635 291.993 398.659 291.023C396.305 290.648 393.835 290.958 390.303 290.958C390.303 264.495 390.303 238.445 390.303 212.395C389.644 212.331 388.997 212.279 388.338 212.214C382.931 238.173 377.525 264.146 372.028 290.519C366.013 290.519 359.986 290.519 353.157 290.519C355.446 279.408 357.722 268.336 360.012 257.277C364.448 235.91 369.001 214.555 373.23 193.149C373.968 189.463 375.119 187.924 379.064 188.066C387.406 188.35 395.775 188.143 404.635 188.143C404.635 211.71 404.635 234.875 404.635 259.994C406.225 256.941 407.105 255.518 407.726 253.992C416.055 233.827 424.463 213.689 432.559 193.434C434.176 189.411 436.181 187.833 440.604 188.04C448.701 188.415 456.824 188.143 465.503 188.143C458.363 222.626 451.379 256.359 444.304 290.506C438.082 290.519 431.874 290.519 425.329 290.519ZM526.293 244.033C525.931 245.21 523.202 246.309 521.534 246.348C511.755 246.568 501.964 246.451 491.487 246.451C489.56 255.829 487.762 264.534 485.848 273.846C498.575 273.846 510.578 273.846 523.719 273.846C522.594 279.77 521.598 285.035 520.538 290.609C501.033 290.609 481.722 290.609 461.661 290.609C468.71 256.618 475.721 222.794 482.809 188.583C501.874 188.583 520.77 188.583 540.146 188.583C538.969 194.093 537.843 199.435 536.628 205.178C524.314 205.178 512.324 205.178 500.037 205.178C498.356 213.327 496.752 221.048 495.031 229.391C506.569 229.391 517.537 229.391 529.32 229.391C528.285 234.707 527.677 239.493 526.293 244.033ZM616.884 206.872C616.263 221.915 611.064 234.397 595.232 239.907C604.998 244.434 606.808 247.357 605.709 258.041C605.075 264.12 603.497 270.082 602.889 276.162C602.424 280.896 602.799 285.707 602.799 290.739C596.59 290.739 589.503 290.739 581.173 290.739C581.445 286.199 581.432 281.84 582.001 277.546C582.893 270.884 584.523 264.314 585.182 257.64C585.842 251.004 583.191 248.379 576.53 247.732C576.129 247.693 575.715 247.654 575.314 247.628C564.527 246.969 564.475 246.956 562.315 257.342C560.026 268.31 557.827 279.305 555.499 290.777C548.437 290.777 541.957 290.777 534.791 290.777C541.879 256.605 548.889 222.769 555.835 189.256C571.796 189.256 587.459 188.544 603.006 189.527C611.879 190.084 617.259 197.663 616.884 206.872ZM698.305 218.591C693.028 218.772 687.738 218.668 682.292 218.668C682.137 215.344 682.253 212.887 681.878 210.494C680.456 201.479 672.786 198.374 665.84 204.428C662.736 207.131 659.606 210.947 658.662 214.788C654.755 230.762 651.302 246.865 648.482 263.072C647.525 268.569 648.288 274.933 655.182 277.274C660.071 278.942 667.03 275.644 670.328 269.268C673.135 263.809 674.519 257.614 676.873 250.746C671.363 250.746 667.366 250.746 662.684 250.746C663.719 245.507 664.598 240.98 665.555 236.078C676.575 236.078 687.479 236.078 699.068 236.078C695.239 254.51 691.488 272.592 687.725 290.777C682.551 290.777 677.895 290.777 672.786 290.777C673.135 288.048 673.445 285.565 673.911 281.93C665.62 291.023 656.152 294.102 645.081 292.575C634.242 291.088 627.917 285.125 627.477 274.053C626.546 250.422 631.099 227.684 641.705 206.536C651.703 186.591 671.376 183.267 689.354 188.195C700.504 191.248 706.971 207.079 701.694 216.896C701.215 217.841 699.482 218.552 698.305 218.591ZM767.916 243.541C767.477 244.912 764.683 246.27 762.924 246.322C753.146 246.594 743.367 246.451 733.072 246.451C731.158 255.492 729.334 264.184 727.329 273.678C739.991 273.678 752.098 273.678 765.265 273.678C764.101 279.835 763.092 285.125 762.044 290.674C742.488 290.674 723.151 290.674 703.155 290.674C710.23 256.566 717.24 222.704 724.328 188.531C743.432 188.531 762.316 188.531 781.678 188.531C780.463 194.21 779.324 199.539 778.121 205.126C765.912 205.126 754.09 205.126 741.595 205.126C739.914 213.158 738.271 220.997 736.499 229.469C748.153 229.469 759.134 229.469 770.852 229.469C769.857 234.591 769.326 239.208 767.916 243.541ZM845.677 290.674C837.399 290.674 829.897 290.674 822.02 290.674C818.579 267.353 815.178 244.265 811.776 221.165C811.466 221.152 811.142 221.139 810.832 221.139C807.12 239.079 803.408 257.019 799.696 274.959C799.657 275.153 799.657 275.36 799.618 275.567C796.229 292.937 796.229 292.937 777.539 290.389C784.589 256.463 791.625 222.549 798.7 188.467C806.771 188.467 814.453 188.467 822.576 188.467C825.965 211.231 829.328 233.763 832.691 256.294C833.027 256.294 833.363 256.307 833.699 256.307C838.395 233.892 843.103 211.477 847.901 188.622C853.98 188.622 859.969 188.622 866.824 188.622C859.749 222.665 852.752 256.514 845.677 290.674ZM946.227 202.746C945.916 203.859 943.588 204.997 942.14 205.061C936.048 205.32 929.93 205.165 923.437 205.165C917.5 233.815 911.641 262.115 905.73 290.648C898.952 290.648 892.485 290.648 885.1 290.648C890.933 262.205 896.728 233.983 902.639 205.178C895.059 205.178 887.958 205.178 880.366 205.178C881.388 200.043 882.073 195.425 883.354 190.976C883.703 189.76 885.85 188.273 887.182 188.26C907.592 188.092 928.003 188.143 949.253 188.143C948.219 193.408 947.533 198.168 946.227 202.746Z" fill="black"/>
<path d="M591.464 205.828C586.187 203.939 580.03 204.457 574.249 204.069C573.887 204.043 573.201 205.258 573.046 205.97C571.196 214.701 569.424 223.444 567.549 232.576C584.092 234.606 592.253 230.015 594.659 217.74C595.551 213.317 596.405 207.6 591.464 205.828Z" fill="black"/>
</svg>
