<svg width="1000" height="320" viewBox="0 0 1000 320" fill="none" xmlns="http://www.w3.org/2000/svg">
<path d="M521.071 185.121C522.404 193.648 526.445 200.755 533.197 206.439C540.036 212.037 549.186 214.834 560.643 214.834C569.616 214.834 577.388 213.457 583.961 210.703C590.623 207.861 596.353 204.13 601.15 199.511L615.273 218.964C607.279 226.96 598.795 232.422 589.824 235.353C580.941 238.285 571.215 239.751 560.643 239.751C551.051 239.751 542.123 238.152 533.862 234.953C525.601 231.755 518.451 227.314 512.41 221.629C506.37 215.856 501.618 209.016 498.154 201.111C494.779 193.204 493.09 184.411 493.09 174.728C493.09 165.313 494.645 156.652 497.753 148.746C500.951 140.752 505.393 133.868 511.079 128.093C516.852 122.231 523.736 117.701 531.731 114.503C539.725 111.217 548.564 109.573 558.246 109.573C568.283 109.573 577.388 111.305 585.56 114.769C593.733 118.145 600.705 123.075 606.48 129.56C612.342 136.043 616.917 143.994 620.203 153.409C623.49 162.736 625.133 173.307 625.133 185.121H521.071ZM593.955 160.871C592.533 152.876 588.402 146.481 581.563 141.684C574.723 136.799 566.951 134.356 558.246 134.356C549.54 134.356 541.723 136.799 534.796 141.684C527.866 146.481 523.691 152.876 522.271 160.871H593.955ZM724.622 236.686H641.213V211.903H668.394V87.7218H641.213V62.8052H695.975V211.903H724.622V236.686ZM862.688 199.511C862.688 207.595 860.866 214.167 857.224 219.232C853.583 224.295 848.874 228.38 843.101 231.49C837.415 234.599 831.02 236.73 823.914 237.884C816.896 239.129 810.012 239.751 803.261 239.751C791.981 239.751 780.744 238.107 769.551 234.82C758.359 231.533 748.677 227.225 740.505 221.897L751.964 199.244C761.734 204.93 770.662 208.972 778.745 211.37C786.917 213.679 795.089 214.834 803.261 214.834C814.365 214.834 822.448 213.679 827.511 211.37C832.574 208.972 835.106 205.685 835.106 201.51C835.106 199.467 834.396 197.779 832.974 196.447C831.553 195.114 829.199 193.916 825.912 192.849C822.626 191.695 818.273 190.584 812.854 189.518C807.525 188.363 800.863 187.165 792.868 185.92C786.473 184.854 780.388 183.567 774.615 182.057C768.929 180.458 763.911 178.237 759.558 175.395C755.206 172.553 751.697 168.955 749.032 164.602C746.457 160.25 745.168 154.786 745.168 148.213C745.168 141.551 746.856 135.778 750.231 130.892C753.695 125.917 758.182 121.832 763.689 118.634C769.285 115.436 775.547 113.127 782.475 111.705C789.404 110.284 796.332 109.573 803.261 109.573C813.033 109.573 822.492 110.861 831.642 113.437C840.88 115.924 848.963 119.521 855.892 124.23L844.966 145.549C838.038 141.196 831.286 138.264 824.713 136.755C818.229 135.156 811.078 134.356 803.261 134.356C799.975 134.356 796.554 134.534 793.002 134.889C789.448 135.245 786.163 135.955 783.142 137.021C780.122 137.998 777.59 139.375 775.547 141.151C773.593 142.839 772.615 144.926 772.615 147.414C772.615 150.701 775.502 153.409 781.277 155.541C787.139 157.585 797.087 159.628 811.123 161.67C818.762 162.736 825.735 164.113 832.041 165.801C838.349 167.4 843.766 169.621 848.298 172.463C852.828 175.216 856.336 178.814 858.823 183.255C861.399 187.608 862.688 193.027 862.688 199.511ZM882.082 200.977C882.082 193.693 884.037 187.342 887.945 181.923C891.853 176.416 896.961 171.841 903.267 168.2C909.664 164.558 916.947 161.849 925.12 160.071C933.381 158.206 941.774 157.274 950.302 157.274C955.009 157.274 959.051 157.363 962.426 157.54C965.802 157.718 969.222 157.984 972.686 158.34V153.409C972.686 146.926 970.155 142.084 965.092 138.887C960.117 135.689 953.544 134.09 945.371 134.09C937.911 134.09 930.316 135.156 922.587 137.288C914.859 139.33 907.531 142.351 900.602 146.348L889.41 124.763C897.583 120.054 906.332 116.368 915.659 113.703C925.075 110.95 934.978 109.573 945.371 109.573C952.123 109.573 958.74 110.328 965.225 111.838C971.798 113.349 977.66 115.835 982.813 119.299C988.053 122.764 992.229 127.294 995.337 132.89C998.446 138.398 1000 145.238 1000 153.409V236.686H972.686V218.431C968.333 225.182 961.893 230.424 953.367 234.155C944.927 237.884 935.822 239.751 926.052 239.751C920.012 239.751 914.282 238.907 908.863 237.219C903.533 235.62 898.915 233.177 895.006 229.891C891.098 226.604 887.945 222.562 885.546 217.766C883.236 212.88 882.082 207.284 882.082 200.977ZM933.113 215.101C938.532 215.101 943.595 214.434 948.304 213.103C953.099 211.681 957.319 209.771 960.961 207.373C964.603 204.885 967.446 201.909 969.489 198.445C971.62 194.982 972.686 191.162 972.686 186.986V182.323C968.333 181.613 964.248 181.213 960.428 181.125C956.608 181.035 953.233 180.991 950.302 180.991C936.8 180.991 926.585 182.767 919.656 186.321C912.817 189.874 909.396 194.27 909.396 199.511C909.396 209.905 917.302 215.101 933.113 215.101Z" fill="black"/>
<mask id="mask0_683_64" style="mask-type:luminance" maskUnits="userSpaceOnUse" x="0" y="0" width="424" height="320">
<path d="M423.945 0H0V319.556H423.945V0Z" fill="white"/>
</mask>
<g mask="url(#mask0_683_64)">
<path d="M423.945 167.265C423.945 194.91 412.482 220.078 394.093 234.267C394.597 232.32 395.025 230.346 395.453 228.323V228.273C395.654 227.287 395.831 226.274 396.007 225.262C396.183 224.226 396.361 223.189 396.512 222.151C396.663 221.114 396.814 220.052 396.94 218.989C397.066 218.129 397.166 217.296 397.242 216.409C397.368 215.347 397.468 214.285 397.544 213.173C397.67 211.857 397.745 210.516 397.821 209.151C397.897 207.608 397.972 206.166 398.022 204.775C398.073 203.409 398.098 202.094 398.098 200.855V198.73C398.148 194.075 398.199 186.767 397.796 177.636C397.745 176.776 397.72 175.891 397.67 174.979C397.62 174.069 397.569 173.158 397.519 172.222C397.418 170.604 397.317 168.934 397.166 167.24C397.116 166.607 397.066 165.974 397.015 165.318C396.889 163.85 396.763 162.333 396.612 160.79C396.285 157.451 395.906 154.011 395.428 150.496C395.126 148.295 394.798 146.07 394.446 143.793C393.917 140.328 393.286 136.811 392.556 133.22C392.304 132.032 392.053 130.817 391.801 129.604C391.524 128.313 391.247 126.999 390.944 125.708C390.692 124.697 390.44 123.659 390.188 122.622C389.886 121.281 389.533 119.941 389.156 118.6C388.827 117.361 388.5 116.122 388.148 114.883C387.719 113.289 387.241 111.67 386.712 110.051C386.459 109.166 386.182 108.281 385.88 107.396C385.477 106.131 385.074 104.892 384.646 103.627C384.218 102.388 383.764 101.123 383.311 99.8588C382.455 97.4296 381.523 95.0018 380.515 92.5739C380.489 92.4977 380.464 92.4216 380.414 92.3455C406.058 102.64 423.945 132.714 423.945 167.265Z" fill="#D80012"/>
<path d="M46.8052 91.1572C46.1761 92.5241 45.5457 93.8897 44.9416 95.2553C43.707 97.9865 42.5486 100.719 41.5151 103.45C41.037 104.639 40.5826 105.828 40.1295 107.016C39.9785 107.371 39.8524 107.75 39.7263 108.104C39.2981 109.267 38.87 110.457 38.4668 111.62C37.9887 112.986 37.5356 114.351 37.0812 115.717C35.7206 119.79 34.5123 123.812 33.4538 127.808C33.0755 129.123 32.7235 130.464 32.3965 131.778C32.0682 133.094 31.7411 134.41 31.4391 135.699C31.1108 137.015 30.8087 138.304 30.5316 139.595C30.1284 141.314 29.7764 143.034 29.4481 144.729C29.3482 145.109 29.2721 145.488 29.2222 145.867C28.8689 147.561 28.5668 149.257 28.2647 150.925C27.8366 153.38 27.4334 155.807 27.0801 158.159C25.8206 166.43 25.0405 174.07 24.5611 180.798C24.4101 182.518 24.309 184.187 24.2341 185.806C24.2091 185.982 24.2091 186.159 24.2091 186.336C24.1579 187.07 24.133 187.778 24.108 188.461C24.0581 189.599 24.0069 190.686 23.9819 191.724C23.932 193.419 23.8808 195.012 23.8808 196.48C23.8309 197.996 23.8309 199.388 23.8309 200.653C23.8309 201.917 23.8309 203.258 23.907 204.674C23.932 205.357 23.957 206.09 23.9819 206.824C23.9819 207.583 24.0581 208.342 24.083 209.151C24.1841 211.048 24.3352 212.919 24.5112 214.767C24.5611 215.322 24.6123 215.879 24.6872 216.436C24.7883 217.523 24.9144 218.585 25.0654 219.622C25.3675 222.025 25.7208 224.403 26.1739 226.705C26.3499 227.64 26.5259 228.551 26.7281 229.461C26.9041 230.373 27.1063 231.283 27.3323 232.168C10.4544 217.624 0 193.318 0 167.265C0 131.248 19.6492 100.086 46.8052 91.1572Z" fill="#D80012"/>
<path d="M390.517 198.654V200.83C390.491 203.206 390.416 205.762 390.24 208.72C390.114 211.048 389.936 213.35 389.71 215.575C389.005 222.277 387.845 228.525 386.183 234.52C386.083 234.849 385.982 235.203 385.881 235.531C385.755 236.088 385.579 236.645 385.378 237.175C385.125 238.011 384.823 238.871 384.52 239.679C384.445 239.882 384.395 240.059 384.319 240.236C384.118 240.742 383.941 241.247 383.74 241.728C380.516 249.898 375.654 257.587 369.179 264.695C322.248 321.023 212.262 319.607 211.18 319.531H210.776C209.693 319.607 99.6571 320.998 52.625 264.569C45.9493 257.234 40.9113 249.089 37.662 240.362C36.9305 238.44 36.3014 236.493 35.7472 234.52C34.3616 229.537 33.328 224.377 32.5978 218.913C32.1697 215.652 31.8676 212.261 31.6654 208.746C31.5143 205.66 31.4394 203.105 31.4394 200.626C31.3882 188.562 32.3207 164.483 38.8704 137.09C39.5257 134.434 40.206 131.728 40.9612 128.996C42.8511 122.142 45.093 115.186 47.763 108.205C48.8465 105.397 49.9799 102.59 51.1895 99.8076C52.424 97.0002 53.7085 94.2428 55.0429 91.4604C55.7494 90.0699 56.4285 88.7043 57.1599 87.3124C87.4641 29.3655 140.921 0 216.042 0C291.161 0 343.131 29.5677 370.161 87.8692C374.922 98.0875 378.551 108.559 381.372 118.802C390.894 153.683 390.617 186.083 390.517 198.654Z" fill="#D80012"/>
<path d="M32.5974 218.913C33.3027 224.377 34.3362 229.537 35.7206 234.519H35.7468C34.3612 229.537 33.3277 224.377 32.5974 218.913ZM32.4214 177.331C32.4713 176.826 32.5213 176.345 32.5725 175.813C32.6224 175.157 32.6985 174.473 32.7485 173.816C32.6224 175.029 32.5213 176.193 32.4214 177.331ZM31.489 194.581C31.5651 190.965 31.7411 186.716 32.0682 181.985C31.6912 187.044 31.5389 191.547 31.464 195.34V195.973C31.4141 197.667 31.4141 199.236 31.4141 200.626C31.4141 203.105 31.489 205.659 31.665 208.746C31.5139 205.659 31.439 203.105 31.439 200.626C31.439 199.488 31.439 198.275 31.464 196.934C31.464 196.175 31.489 195.391 31.489 194.581ZM31.464 195.34V196.934C31.464 196.175 31.489 195.391 31.489 194.581C31.489 194.834 31.489 195.088 31.464 195.34Z" fill="white"/>
<path d="M130.982 151.127C117.379 152.468 102.54 152.317 86.3679 150.976H86.2668C80.9017 150.242 75.8887 153.809 74.7553 159.145C70.5986 178.849 66.3919 198.603 66.4418 217.649C66.4418 219.8 66.5167 221.924 66.6428 224.049C67.046 230.979 68.0546 237.808 69.9682 244.485C72.6894 253.92 77.6013 261.963 84.0499 268.818C121.761 312.702 207.513 312.271 211.821 312.044C216.129 312.271 301.88 312.702 339.591 268.818C346.015 261.963 350.952 253.92 353.673 244.485C355.588 237.808 356.595 230.954 356.998 224.024C357.124 221.949 357.199 219.874 357.199 217.801C357.275 198.73 353.069 178.925 348.887 159.171C347.752 153.86 342.765 150.294 337.374 151.001H337.273C321.1 152.342 306.262 152.493 292.66 151.152C278.779 149.104 261.724 140.303 246.836 130.969C225.349 117.538 198.242 117.538 176.755 130.969C161.867 140.276 144.812 149.079 130.931 151.127H130.982Z" fill="white"/>
<path d="M131.272 227.285C142.256 227.285 151.173 218.356 151.173 207.304C151.173 196.251 142.256 187.322 131.272 187.322C120.289 187.322 111.371 196.251 111.371 207.304C111.371 218.356 120.289 227.285 131.272 227.285Z" fill="#D80012"/>
<path d="M291.387 227.285C302.371 227.285 311.289 218.356 311.289 207.304C311.289 196.251 302.371 187.322 291.387 187.322C280.404 187.322 271.486 196.251 271.486 207.304C271.486 218.356 280.404 227.285 291.387 227.285Z" fill="#D80012"/>
<path d="M184.93 248.608L236.698 248.482C236.698 248.482 240.477 281.717 208.937 280.857C180.925 280.073 184.955 248.608 184.955 248.608H184.93Z" fill="#D80012"/>
<path d="M210.046 105.839C229.876 105.839 245.951 89.764 245.951 69.9342C245.951 50.1043 229.876 34.0291 210.046 34.0291C190.216 34.0291 174.141 50.1043 174.141 69.9342C174.141 89.764 190.216 105.839 210.046 105.839Z" fill="white"/>
<path d="M210.046 95.0665C223.927 95.0665 235.179 83.8138 235.179 69.9329C235.179 56.052 223.927 44.7993 210.046 44.7993C196.165 44.7993 184.912 56.052 184.912 69.9329C184.912 83.8138 196.165 95.0665 210.046 95.0665Z" fill="#D80012"/>
<path d="M210.046 84.2959C217.978 84.2959 224.408 77.8658 224.408 69.9338C224.408 62.0019 217.978 55.5718 210.046 55.5718C202.114 55.5718 195.684 62.0019 195.684 69.9338C195.684 77.8658 202.114 84.2959 210.046 84.2959Z" fill="white"/>
</g>
</svg>
