<svg width="77" height="78" viewBox="0 0 77 78" fill="none" xmlns="http://www.w3.org/2000/svg">
<g clip-path="url(#clip0_353_10968)">
<path d="M77 39C77 17.4609 59.763 0 38.5 0C17.237 0 0 17.4609 0 39C0 60.5391 17.237 78 38.5 78C59.763 78 77 60.5391 77 39Z" fill="#6C00F6"/>
<path d="M46.7997 21.5762L36.0557 27.827V47.3359L30.1275 50.8169L24.163 47.3331V40.3679L30.1275 36.9179L33.9625 39.1708V33.5355L30.0939 31.3108L19.3525 37.6323V50.1365L30.1303 56.424L40.8716 50.1365V30.6305L46.8361 27.1465L52.7976 30.6305V37.5645L46.8361 41.0794L42.9675 38.8066V44.4137L46.7997 46.6525L57.6471 40.4019V27.827L46.7997 21.5762Z" fill="white"/>
</g>
<defs>
<clipPath id="clip0_353_10968">
<rect width="77" height="78" fill="white"/>
</clipPath>
</defs>
</svg>
