<svg width="1000" height="385" viewBox="0 0 1000 385" fill="none" xmlns="http://www.w3.org/2000/svg">
<g clip-path="url(#clip0_426_14)">
<path d="M412.621 299.37C412.621 305.767 412.621 313.57 412.621 313.57C412.621 313.57 412.054 315.329 410.076 315.475C410.076 315.475 357.542 314.435 354.002 315.475C352.912 315.795 352.283 316.826 352.283 317.965C352.283 317.965 351.108 327.962 352.283 332.408C357.964 332.766 435.151 332.408 435.151 332.408C435.151 333.194 435.151 353.014 435.151 351.706C435.151 351.706 356.788 351.706 352.283 351.706C351.628 354.405 351.702 357.713 351.898 360.11C352.074 362.267 351.93 365.219 354.002 365.827C357.542 366.865 413.993 368.315 413.993 365.827C413.993 363.933 413.993 342.547 413.993 332.397C413.993 329.47 416.362 327.111 419.283 327.111H429.274C431.006 327.111 432.41 328.511 432.41 330.245C432.41 336.67 432.41 346.554 432.41 356.173C432.41 372.223 419.421 385 403.396 385H339.549C337.817 385 336.414 383.595 336.414 381.859V299.44C336.414 297.707 337.817 296.302 339.549 296.302L409.488 296.243C411.218 296.243 412.621 297.637 412.621 299.37Z" fill="black"/>
<path d="M548.776 299.37C548.776 305.767 548.776 319.109 548.776 326.586C548.776 328.991 546.157 330.564 543.986 329.538C537.742 326.586 525.645 321.489 509.204 317.438C490.722 312.884 481.355 314.379 477.814 315.419C476.724 315.739 476.096 316.77 476.096 317.907L476.094 363.28C476.094 364.417 476.724 365.449 477.814 365.768C481.355 366.808 490.72 368.303 509.204 363.749C525.645 359.698 537.742 354.601 543.988 351.649C546.159 350.623 548.776 352.196 548.776 354.601C548.776 362.078 548.776 375.42 548.776 381.817C548.776 383.55 547.373 384.944 545.643 384.944H463.359C461.63 384.944 460.227 383.537 460.227 381.803V299.384C460.227 297.65 461.63 296.243 463.362 296.243H545.643C547.373 296.243 548.776 297.637 548.776 299.37Z" fill="black"/>
<path fill-rule="evenodd" clip-rule="evenodd" d="M643.599 299.37C643.599 305.767 643.599 347.124 643.599 354.601C643.599 362.078 643.599 375.418 643.599 381.817C643.599 383.55 642.196 384.944 640.464 384.944H558.182C556.45 384.944 555.047 383.537 555.047 381.803V299.384C555.047 297.65 556.452 296.243 558.182 296.243H640.464C642.196 296.243 643.599 297.637 643.599 299.37ZM604.024 315.867C617.009 315.867 627.533 326.411 627.533 339.415V342.556C627.533 355.562 617.009 366.104 604.024 366.104H595.547C581.835 366.104 570.72 354.97 570.72 341.236C571.047 327.131 582.556 315.867 596.641 315.867H604.024Z" fill="black"/>
<path d="M656.728 384.944C652.939 384.944 649.867 381.866 649.867 378.072V377.545C649.867 373.752 652.939 370.674 656.728 370.674C660.516 370.674 663.586 373.752 663.586 377.545V378.072C663.586 381.866 660.516 384.944 656.728 384.944Z" fill="black"/>
<path d="M405.36 66.7126C405.346 51.4919 405.342 36.2017 405.342 20.8418C405.342 10.2227 412.137 1.61359 420.463 1.57566C473.475 1.4366 526.486 1.42396 579.497 1.53774C587.844 1.57566 594.639 10.2227 594.639 20.8039C594.626 38.1231 594.626 55.3666 594.639 72.5342C594.621 77.5784 592.993 82.3569 590.078 85.8082C578.587 99.3287 548.38 134.372 537.249 151.988C526.405 168.789 523.394 188.738 522.846 202.865C522.448 212.65 515.162 220.633 505.887 219.951C486.581 221.202 467.272 223.294 447.966 226.226C438.182 227.821 431.121 218.415 434.168 207.246C442.855 176.147 462.2 121.155 493.299 106.345C513.173 97.1479 528.864 94.0569 540.069 93.5071C550.349 93.014 560.702 83.0396 560.72 70.5241C560.707 68.7671 560.707 67.0224 560.72 65.2904C560.72 58.5398 557.617 52.4147 552.202 51.1442C542.285 48.8119 522.882 47.5982 489.948 57.5159C465.418 65.0819 445.43 75.4355 431.045 84.3859C419.954 91.4211 405.36 82.0726 405.36 66.7126Z" fill="black"/>
<path d="M391.96 10.2421C391.96 27.6119 391.96 63.5653 391.96 83.533C391.96 89.9236 386.357 94.3608 381.701 91.8387C368.357 84.4811 342.483 71.6435 307.334 61.631C267.85 49.893 247.843 54.6718 240.271 57.8576C239.156 58.3315 238.285 59.2418 237.679 60.4175C236.222 63.167 236.372 66.8078 236.089 70.1454C235.521 77.1236 234.839 89.9995 236.6 98.9308C245.798 111.219 321.586 104.695 321.586 104.695C323.251 104.601 324.104 152.14 321.586 152.368C321.586 152.368 245.798 154.643 236.6 163.67C234.877 173.492 235.503 185.78 236.071 192.645C236.334 196.172 236.183 200.211 237.791 202.828C238.397 203.833 239.251 204.534 240.271 204.838C247.843 206.943 267.85 208.706 307.352 190.824C342.501 175.616 368.357 159.327 381.701 150.32C386.357 147.248 391.96 150.889 391.96 157.127C391.96 176.488 391.96 210.887 391.96 227.422C391.96 231.898 388.951 236.05 385.26 236.658C326.62 246.594 267.994 256.505 209.381 266.391C205.653 266.999 202.662 263.243 202.681 257.99C202.668 174.87 202.662 92.8881 202.662 12.0435C202.662 7.0563 205.653 2.97931 209.381 2.96035C268.008 2.58109 326.634 2.18288 385.26 1.7657C388.951 1.74673 391.96 5.52031 391.96 10.2421Z" fill="black"/>
<path d="M797.302 11.8731C797.32 30.3238 797.32 69.1028 797.32 91.0237C797.302 98.0966 791.717 102.534 787.079 99.3293C773.717 90.1893 747.861 74.5639 712.712 61.9348C673.21 48.13 653.203 51.7708 645.631 54.4066C644.534 54.7857 643.645 55.6012 643.039 56.6821C641.582 59.1851 641.732 62.6174 641.449 65.7274C640.881 72.2125 640.199 84.1401 641.96 92.5596C651.158 104.866 726.964 106.876 726.964 106.876C728.631 106.952 729.482 156.161 726.964 155.952C726.964 155.952 651.158 145.086 641.96 151.837C640.257 160.408 640.863 171.596 641.431 177.892C641.694 181.135 641.543 184.718 643.151 187.43C643.777 188.473 644.591 189.307 645.631 189.801C653.203 193.498 673.192 200.059 712.712 192.247C747.861 184.605 773.717 172.279 787.079 164.694C791.699 162.001 797.32 167.159 797.32 174.384C797.32 196.874 797.32 237.075 797.32 256.322C797.32 261.537 794.311 265.254 790.62 264.646C731.994 255.077 673.361 245.475 614.723 235.843C611.032 235.235 608.041 231.102 608.041 226.646C608.041 155.674 608.041 83.5207 608.041 10.1854C608.041 5.48264 611.032 1.69009 614.723 1.70906C673.361 2.10095 731.994 2.48021 790.62 2.84681C794.311 2.86579 797.32 6.88589 797.302 11.8731Z" fill="black"/>
<path d="M189.241 12.1004C189.204 33.4714 189.052 84.7088 188.92 118.349C188.92 127.697 179.418 132.741 174.894 126.067C160.831 105.264 136.698 76.4031 104.671 64.741C65.1689 49.0589 45.143 50.974 37.5718 52.5858C35.2437 53.0219 33.9 55.544 33.9 58.597C33.9 61.65 182.579 170.951 182.579 170.951C189.26 175.237 189.26 182.007 189.26 185.97C189.26 210.685 189.26 235.399 189.26 260.114C189.241 265.425 186.251 270.241 182.579 270.846C123.94 280.253 65.3014 288.716 6.66264 296.238C2.99061 296.448 0 290.587 0 283.058C0.0378559 250.842 0.189279 174.384 0.302847 127.432C0.321775 115.77 9.84252 116.661 14.3474 127.015C28.4297 158.379 52.5628 198.846 84.589 212.916C124.091 225.81 144.079 219.003 151.65 214.945C153.998 213.693 155.323 210.261 155.341 206.677C105.788 171.874 56.2286 130.137 6.66264 81.4662C4.10737 78.9252 0 70.7333 0 62.3137C0 43.6671 0 25.1405 0 6.73397C0 2.71387 2.99061 -0.282252 6.66264 0.0211509C65.314 1.90478 123.953 2.92244 182.579 3.07415C186.251 3.05519 189.241 7.05633 189.241 12.1004Z" fill="black"/>
<path d="M817.383 268.95C833.057 271.359 870.192 276.972 894.194 280.46C900.836 281.428 904.054 266.978 899.248 259.28C884.331 235.766 863.813 197.366 855.922 149.618C846.212 92.7868 849.39 64.8545 851.606 54.368C852.307 51.1633 854.521 49.3052 856.924 49.3052C859.347 49.286 930.894 275.399 930.894 275.399C934.246 286.813 938.958 287.478 941.741 287.838C958.926 290.038 976.113 291.985 993.3 293.678C996.991 293.906 1000 288.083 1000 280.726C1000 166.027 1000 74.7278 1000 6.82851C999.982 2.80842 997.009 -0.244588 993.318 0.0398538C977.647 1.00695 940.491 2.42916 916.491 3.03597C909.865 3.13078 906.629 15.8927 911.455 21.847C926.37 40.0323 946.888 70.1641 954.762 113.342C964.491 174.213 961.293 210.014 959.059 223.705C958.379 227.877 956.201 230.342 953.741 230.399C930.068 152.614 906.401 79.7909 882.741 11.9295C881.719 8.49723 876.458 2.94116 868.944 2.97908C851.757 2.99173 834.584 2.9854 817.422 2.96012C813.692 2.94116 810.703 6.98022 810.721 11.9674C810.708 92.7994 810.708 174.927 810.721 258.35C810.721 263.621 813.674 268.345 817.383 268.95Z" fill="black"/>
</g>
<defs>
<clipPath id="clip0_426_14">
<rect width="1000" height="385" fill="white"/>
</clipPath>
</defs>
</svg>
