<svg width="1000" height="227" viewBox="0 0 1000 227" fill="none" xmlns="http://www.w3.org/2000/svg">
<path fill-rule="evenodd" clip-rule="evenodd" d="M0.232422 113.155C0.232422 175.444 50.7588 225.939 113.088 225.939C175.417 225.939 225.947 175.444 225.947 113.155C225.947 50.8648 175.417 0.370117 113.088 0.370117C50.7588 0.370117 0.232422 50.8648 0.232422 113.155Z" fill="#0C0C4F"/>
<path fill-rule="evenodd" clip-rule="evenodd" d="M63.3085 86.5839L66.0943 77.9823C66.6606 76.2329 68.0422 74.8715 69.7992 74.3347L78.4482 71.6767C79.6453 71.3113 79.655 69.6234 78.4676 69.2385L69.8575 66.4544C68.1102 65.8885 66.7479 64.5077 66.2076 62.7519L63.551 54.1083C63.1855 52.9152 61.4965 52.9022 61.1113 54.0922L58.3255 62.6936C57.7592 64.4398 56.3776 65.8012 54.6206 66.3412L45.9716 68.9961C44.7745 69.3647 44.7615 71.0493 45.9522 71.4342L54.5623 74.2184C56.3096 74.7843 57.6719 76.1683 58.2122 77.9242L60.8688 86.5644C61.2343 87.7608 62.9233 87.7738 63.3085 86.5839Z" fill="#FAFAFA"/>
<path fill-rule="evenodd" clip-rule="evenodd" d="M200.014 81.5776C196.45 77.593 190.884 75.3495 185.474 74.4295C180.021 73.5458 174.303 73.6279 168.92 74.5837C158.027 76.4251 148.131 80.9326 139.5 86.4932C135.018 89.2222 131.196 92.38 127.236 95.5959C125.328 97.2223 123.588 98.9543 121.777 100.662L116.826 105.584C111.447 111.203 106.146 116.321 101.016 120.563C95.8654 124.785 91.0501 127.992 86.3047 130.232C81.5623 132.483 76.4879 133.807 69.8737 134.019C63.3177 134.25 55.5611 133.067 47.2643 131.116C38.9229 129.172 30.1634 126.402 20.375 124.019C23.7904 133.488 28.9336 141.856 35.5369 149.506C42.2176 157.023 50.5599 163.874 61.2764 168.378C71.8383 172.984 85.1111 174.637 97.5217 172.143C109.965 169.75 120.885 163.995 129.711 157.341C138.561 150.617 145.72 142.959 151.756 134.997C153.421 132.797 154.303 131.566 155.509 129.847L158.841 124.913C161.157 121.862 163.266 118.387 165.559 115.364C170.053 109.032 174.483 102.707 179.631 96.8804C182.223 93.9249 184.956 91.0981 188.181 88.3813C189.791 87.0552 191.529 85.7576 193.454 84.5886C195.409 83.3277 197.473 82.3407 200.014 81.5776Z" fill="url(#paint0_linear_437_82)"/>
<path fill-rule="evenodd" clip-rule="evenodd" d="M200.014 81.5774C196.184 71.9179 189.063 63.7868 179.506 57.7867C170.004 51.8524 156.81 48.8239 143.736 51.4056C137.276 52.6539 131.017 55.0575 125.526 58.2585C120.059 61.4467 115.16 65.2845 110.919 69.4018C108.802 71.4674 106.88 73.622 104.971 75.7889L100.023 82.0937L92.38 92.2429C82.6367 105.301 72.1446 120.604 54.9263 125.139C38.023 129.59 30.6917 125.648 20.375 124.019C22.2614 128.886 24.598 133.613 27.7659 137.771C30.8746 142.013 34.5464 145.998 39.1116 149.413C41.4186 151.054 43.8543 152.673 46.5596 154.046C49.2524 155.372 52.1564 156.54 55.2561 157.42C61.4219 159.109 68.3634 159.7 75.0844 158.792C81.8086 157.895 88.2357 155.765 93.8537 152.937C99.5131 150.134 104.443 146.724 108.845 143.122C117.596 135.86 124.403 127.835 130.152 119.724C133.044 115.668 135.669 111.536 138.097 107.403L140.955 102.483C141.828 101.044 142.712 99.5971 143.61 98.2492C147.23 92.8342 150.771 88.4922 155.073 85.2331C159.314 81.8898 165.221 79.4196 173.114 78.8457C180.974 78.2649 190.049 79.3377 200.014 81.5774Z" fill="#FAFAFA"/>
<path fill-rule="evenodd" clip-rule="evenodd" d="M157.49 161.835C157.49 168.931 163.249 174.684 170.347 174.684C177.447 174.684 183.197 168.931 183.197 161.835C183.197 154.741 177.447 148.986 170.347 148.986C163.249 148.986 157.49 154.741 157.49 161.835Z" fill="url(#paint1_linear_437_82)"/>
<path d="M986.565 81.6175V68.6433C986.565 68.1289 986.148 67.7119 985.633 67.7119H911.662C911.148 67.7119 910.73 68.1289 910.73 68.6433V81.6175H940.793V165.55H956.5V81.6175H986.565Z" fill="#0C0C4F"/>
<path d="M833.421 67.7119C832.905 67.7119 832.488 68.1289 832.488 68.6433V164.619C832.488 165.133 832.905 165.55 833.421 165.55H895.67C896.184 165.55 896.601 165.133 896.601 164.619V151.783H848.195V121.034H888.188V107.542H848.195V81.4795H893.154V68.6433C893.154 68.1289 892.737 67.7119 892.221 67.7119H833.421Z" fill="#0C0C4F"/>
<path d="M797.324 164.98L797.663 165.55H809.729C810.244 165.55 810.661 165.133 810.661 164.619V68.6433C810.661 68.1289 810.244 67.7119 809.729 67.7119H795.23V135.47C792.713 131.465 789.79 127.056 786.461 122.245C782.223 115.982 777.663 109.63 772.781 103.187C767.993 96.6528 763.111 90.3475 758.137 84.2713C753.25 78.0985 748.634 72.7001 744.287 68.0788L743.943 67.7119H732.587C732.071 67.7119 731.654 68.1289 731.654 68.6433V164.619C731.654 165.133 732.071 165.55 732.587 165.55H747.086V92.9633C749.069 95.3031 751.179 97.8961 753.417 100.743C756.441 104.59 759.559 108.713 762.77 113.113L762.773 113.118L762.777 113.123C765.984 117.429 769.194 121.919 772.404 126.593L772.409 126.599L772.413 126.605C775.716 131.282 778.88 135.912 781.907 140.495L781.91 140.5L781.914 140.504C784.939 144.993 787.733 149.342 790.297 153.552L790.301 153.56L790.307 153.568C792.969 157.788 795.309 161.593 797.324 164.98Z" fill="#0C0C4F"/>
<path d="M712.684 69.6607L713.039 69.2709C713.585 68.6729 713.161 67.7119 712.351 67.7119H695.154L694.805 68.1159C692.522 70.7623 689.686 73.8719 686.292 77.4466C682.986 80.9333 679.451 84.6051 675.685 88.4604C671.921 92.3144 668.109 96.1684 664.254 100.023C661.169 103.032 658.291 105.806 655.618 108.344V67.7119H640.844C640.329 67.7119 639.912 68.1289 639.912 68.6433V164.619C639.912 165.133 640.329 165.55 640.844 165.55H655.618V121.165C658.861 123.287 662.176 125.77 665.564 128.617L665.569 128.621L665.574 128.625C669.676 131.996 673.691 135.689 677.616 139.703L677.625 139.712L677.635 139.722C681.648 143.641 685.434 147.788 688.992 152.166L688.995 152.17L688.999 152.174C692.556 156.459 695.699 160.739 698.429 165.012L698.772 165.55H715.535C716.252 165.55 716.701 164.776 716.344 164.155L716.144 163.805C713.628 159.431 710.469 154.838 706.675 150.027C702.976 145.223 699.002 140.512 694.752 135.896C690.502 131.278 686.158 126.937 681.719 122.871C677.699 119.188 673.858 116.026 670.196 113.389C673.311 110.351 676.612 107.089 680.101 103.603C683.965 99.7412 687.829 95.8331 691.694 91.8791C695.651 87.833 699.424 83.9241 703.014 80.1529L703.018 80.1479L703.024 80.1428C706.611 76.2818 709.831 72.7877 712.684 69.6607Z" fill="#0C0C4F"/>
<path fill-rule="evenodd" clip-rule="evenodd" d="M550.75 66.9787C550.236 66.9788 549.818 67.3957 549.818 67.91V164.678C549.818 165.192 550.236 165.609 550.75 165.609H564.06V130.031H583.503C585.69 132.648 587.823 135.386 589.904 138.246L589.911 138.257L589.92 138.268C593.323 142.727 596.467 147.379 599.354 152.223L599.357 152.228L599.36 152.233C601.974 156.521 604.256 160.755 606.206 164.936L606.518 165.609H622.268C622.944 165.609 623.394 164.915 623.114 164.301C621.303 160.333 619.34 156.45 617.16 152.665C614.197 147.377 610.947 142.142 607.411 136.959C605.39 133.997 603.326 131.119 601.218 128.327C607.093 126.532 611.741 123.286 615.103 118.574L615.106 118.571C619.141 112.869 621.141 106.163 621.141 98.5044C621.141 93.2413 620.226 88.4255 618.373 84.0741C616.513 79.6593 613.714 75.998 609.986 73.1094C606.283 70.2057 601.721 68.358 596.348 67.5293C595.096 67.2985 593.801 67.1601 592.467 67.1132C591.164 67.0238 590.027 66.9781 589.06 66.9781C584.977 66.9781 580.893 66.9777 576.81 66.9773C568.123 66.9764 559.437 66.9758 550.75 66.9787ZM606.633 98.5044C606.633 101.046 606.21 103.548 605.358 106.013C604.527 108.381 603.198 110.457 601.363 112.251C599.623 113.949 597.328 115.154 594.421 115.828C593.5 116.037 592.508 116.185 591.443 116.27L591.441 116.27L591.44 116.27C590.393 116.357 589.467 116.4 588.658 116.4H564.06V80.6088H588.658C589.467 80.6088 590.393 80.6514 591.44 80.7385L591.464 80.7406L591.49 80.7416C592.526 80.783 593.486 80.9273 594.376 81.1696L594.404 81.1776L594.434 81.184C597.33 81.8132 599.617 83.0133 601.353 84.7485L601.357 84.7532L601.363 84.7579C603.196 86.5488 604.524 88.6452 605.358 91.0594V91.0622L605.36 91.0652C606.208 93.4836 606.633 95.9614 606.633 98.5044Z" fill="#0C0C4F"/>
<path fill-rule="evenodd" clip-rule="evenodd" d="M514.874 152.634L514.876 152.637L514.877 152.641C516.258 156.601 517.733 160.655 519.3 164.798L519.584 165.55H535.34C535.987 165.55 536.437 164.908 536.216 164.301C532.774 154.851 529.3 145.413 525.756 136.001C522.536 127.357 519.361 119.172 516.231 111.445C513.194 103.718 510.156 96.3576 507.117 89.3631C504.068 82.2543 500.86 75.2161 497.518 68.2404C497.363 67.9174 497.037 67.7119 496.678 67.7119H484.111C483.753 67.7119 483.426 67.9174 483.271 68.2404C479.928 75.2162 476.721 82.2546 473.673 89.3637C470.634 96.3556 467.551 103.714 464.423 111.439L464.42 111.445L464.418 111.451C461.381 119.175 458.253 127.358 455.034 136C451.488 145.413 448.014 154.851 444.573 164.301C444.351 164.908 444.801 165.55 445.448 165.55H460.531H460.827L461.173 165.179C464.811 161.274 468.878 157.444 473.376 153.686L473.38 153.682L473.384 153.678C477.898 149.826 482.606 146.254 487.504 142.96L487.516 142.953L487.526 142.946C492.351 139.538 497.208 136.48 502.096 133.771L502.101 133.768L502.107 133.765C503.867 132.764 505.6 131.831 507.306 130.967L510.603 140.379L510.606 140.386C512.074 144.514 513.497 148.598 514.874 152.634ZM497.924 106.224L497.927 106.232L497.93 106.24C499.257 109.597 500.584 113.011 501.911 116.481C501.813 116.525 501.711 116.57 501.608 116.617C496.938 118.743 491.918 121.491 486.551 124.855C481.413 128.076 476.314 131.575 471.257 135.353L473.398 129.241C476.231 121.298 479.064 113.628 481.897 106.232C484.501 99.5613 487.214 93.1453 490.034 86.9836C492.771 93.1429 495.401 99.5562 497.924 106.224Z" fill="#0C0C4F"/>
<path d="M448.418 81.6175V68.6433C448.418 68.1289 448.001 67.7119 447.485 67.7119H373.515C373.001 67.7119 372.584 68.1289 372.584 68.6433V81.6175H402.647V164.619C402.647 165.133 403.064 165.55 403.58 165.55H417.423C417.937 165.55 418.354 165.133 418.354 164.619V81.6175H448.418Z" fill="#0C0C4F"/>
<path d="M304.711 164.361L304.706 164.359C299.009 161.932 294.271 158.467 290.513 153.962L290.509 153.955L290.505 153.952C286.786 149.387 284.371 144.008 283.249 137.841C283.193 137.532 283.263 137.214 283.445 136.959C283.626 136.703 283.903 136.531 284.213 136.483L296.743 134.509C297.336 134.416 297.903 134.788 298.052 135.369C299.575 141.281 302.709 145.871 307.461 149.198C312.283 152.495 317.971 154.162 324.571 154.162C328.852 154.162 332.678 153.501 336.065 152.2C339.491 150.855 342.151 148.969 344.092 146.565C346.002 144.199 346.966 141.4 346.966 138.109C346.966 136.066 346.603 134.394 345.931 133.05C345.925 133.037 345.919 133.025 345.913 133.013C345.259 131.581 344.345 130.385 343.166 129.411C343.155 129.402 343.143 129.392 343.133 129.382C341.951 128.327 340.592 127.435 339.053 126.709C337.479 125.965 335.838 125.353 334.128 124.871L334.112 124.866L309.119 117.448C306.336 116.614 303.646 115.571 301.049 114.319L301.042 114.316L301.033 114.312C298.396 112.994 296.033 111.366 293.951 109.427L293.945 109.421L293.941 109.417C291.829 107.403 290.155 105.009 288.916 102.246L288.913 102.239C287.653 99.3838 287.043 96.0642 287.043 92.3109C287.043 86.2942 288.599 81.0986 291.763 76.7874L291.765 76.7856C294.942 72.4724 299.226 69.1949 304.575 66.9438C309.918 64.696 315.911 63.6079 322.536 63.6543C329.251 63.7005 335.291 64.9042 340.633 67.2918C346.018 69.6319 350.483 73.0105 354.009 77.4269C357.589 81.8525 359.976 87.1338 361.189 93.2411C361.251 93.5486 361.185 93.8677 361.008 94.1261C360.831 94.3846 360.556 94.5608 360.248 94.6146L347.378 96.8604C347.072 96.9136 346.759 96.8432 346.506 96.6646C346.252 96.4862 346.081 96.2142 346.029 95.9091C345.379 92.0982 343.936 88.8658 341.716 86.1789L341.703 86.1634C339.509 83.4113 336.758 81.3026 333.429 79.8339L333.418 79.8286C330.082 78.3136 326.408 77.527 322.379 77.4831H322.378C318.516 77.4393 315.065 78.0533 312.005 79.3023C308.936 80.5546 306.542 82.2831 304.776 84.468L304.769 84.4766C303.036 86.5787 302.175 88.9927 302.175 91.7666C302.175 94.5207 302.961 96.6452 304.448 98.2513C306.052 99.9386 308.025 101.301 310.385 102.331C312.886 103.357 315.313 104.203 317.669 104.869L317.675 104.87L336.326 110.245C338.501 110.846 340.983 111.674 343.772 112.724C346.691 113.807 349.505 115.332 352.213 117.292C355.002 119.263 357.292 121.895 359.091 125.158C360.939 128.465 361.825 132.577 361.825 137.429C361.825 142.305 360.839 146.688 358.836 150.55C356.893 154.386 354.165 157.608 350.665 160.208L350.656 160.213C347.176 162.752 343.146 164.668 338.583 165.971C334.018 167.32 329.141 167.99 323.958 167.99C316.879 167.99 310.456 166.788 304.711 164.361Z" fill="#0C0C4F"/>
<defs>
<linearGradient id="paint0_linear_437_82" x1="199.054" y1="78.1882" x2="-94.4426" y2="230.984" gradientUnits="userSpaceOnUse">
<stop stop-color="#EC796B"/>
<stop offset="1" stop-color="#D672EF"/>
</linearGradient>
<linearGradient id="paint1_linear_437_82" x1="183.189" y1="152.822" x2="136.338" y2="157.217" gradientUnits="userSpaceOnUse">
<stop stop-color="#EC796B"/>
<stop offset="1" stop-color="#D672EF"/>
</linearGradient>
</defs>
</svg>
